<svg version="1.1" id="Layer_1" xmlns:x="ns_extend;" xmlns:i="ns_ai;" xmlns:graph="ns_graphs;" xmlns="http://www.w3.org/2000/svg" xmlns:xlink="http://www.w3.org/1999/xlink" x="0px" y="0px" viewBox="0 0 387.1 387.9" style="enable-background:new 0 0 387.1 387.9;" xml:space="preserve">
 <style type="text/css">
  .st0{fill:#FFFFFF;}
	.st1{fill:#006341;}
 </style>
 <metadata>
  <sfw xmlns="ns_sfw;">
   <slices>
   </slices>
   <sliceSourceBounds bottomLeftOrigin="true" height="387.9" width="387.1" x="6.9" y="-394.1">
   </sliceSourceBounds>
  </sfw>
 </metadata>
 <g>
  <circle class="st0" cx="193.6" cy="193.6" r="193.6">
  </circle>
  <path class="st1" d="M213,83.7c-1.7-0.3-9.9-1.7-19.5-1.7c-9.6,0-17.8,1.4-19.5,1.7c-1,0.2-1.3-0.8-0.6-1.3
		c0.7-0.5,20.1-15.3,20.1-15.3l20.1,15.3C214.4,82.9,214,83.9,213,83.7z M179.5,179.5c0,0-1,0.4-1.3,1.3c4.1,3.1,6.9,10.2,15.3,10.2
		c8.5,0,11.3-7.1,15.3-10.2c-0.3-0.9-1.3-1.3-1.3-1.3s-5.3,1.3-14,1.3S179.5,179.5,179.5,179.5L179.5,179.5z M193.6,167.6
		c-2.4,0-2.9-0.9-4.5-0.9c-1.5,0-4.5,1.2-5.1,2.3c0,0.6,0.3,1.1,0.7,1.5c3.4,0.5,5,2.4,9,2.4s5.5-1.9,9-2.4c0.4-0.5,0.6-1,0.7-1.5
		c-0.6-1.1-3.6-2.3-5.1-2.3C196.4,166.7,195.9,167.6,193.6,167.6L193.6,167.6z M386.8,204.2c-0.2,4.6-0.7,9.2-1.2,13.7
		c-21.9,3.6-29.7-15.9-52.2-14.9c1.3,4.8,2.4,9.6,3.3,14.6c18.5,0,26,17.3,46.6,14.7c-1.1,5.3-2.4,10.5-3.9,15.7
		c-16.3,1.6-22-14.6-40.9-14.1c0.2,2.7,0.2,5.4,0.2,8.1l-0.1,4.5l36.6,14c-1.9,5.2-4.1,10.3-6.4,15.3c-11-0.6-14.8-14.7-31.5-13.6
		c-0.5,3.6-1.1,7.2-1.9,10.7c14.5-1,17.7,12.4,28.1,13.4c-2.7,4.8-5.5,9.5-8.5,14.1c-6.2-3.3-11.5-13.3-23.2-13.9
		c1.2-3.7,2.3-7.5,3.1-11.3c-10.4,0-22.2-4-32.2-13.1c3.2-18.4-25.3-37.1-25.3-50.5c0-14.6,7.4-22.7,7.4-42.4
		c0-14.6-7.1-30.5-17.8-41.3c-2.1-2.1-4.2-3.8-6.6-5.3c9.8,12.2,17.4,26.6,17.4,43.3c0,18.5-8.6,28.3-8.6,45.4
		c0,17.1,25,31.9,25,49.6c0,6.9-2.2,13.7-9.5,27c11.2,11.2,25.9,17.3,35.3,17.3c3.1,0,4.7-0.9,5.8-3.3c0.9-2.1,1.8-4.2,2.7-6.3
		c10.2,0.4,14.8,9.6,20.5,13.3c-3.1,4.1-6.3,8.2-9.7,12c-3.8-4.2-8.8-11.2-16.3-13.2c-1.3,2.6-2.7,5.1-4.2,7.6
		c6.4,1.7,10.8,8.2,14.2,12.4c-3.7,3.8-7.5,7.4-11.4,10.9c-2.5-3.8-6.3-8.7-10.6-11.4c-1.6,2.2-3.3,4.3-5,6.3c3.7,2.5,6.9,7,9,10.6
		c-4.6,3.7-9.3,7.1-14.2,10.4c-2.4-19.7-29.2-33.1-22-55.9c-2.4,4-5.2,9-5.2,15.1c0,16.5,17.6,29.6,19,46c-3.6,2.2-7.4,4.2-11.2,6.2
		c-0.6-18-19.3-37.8-19.3-52.6c0-16.5,21.6-33.1,21.6-52.6c0-19.5-25-33-25-50.2c0-17.1,10.6-27,10.6-48.9
		c0-16.1-7.6-32.3-19.4-42.7c-2.1-1.8-4.1-3.3-6.6-4.6c11.1,13.3,17.6,25.5,17.6,43.8c0,20.6-12.2,32.1-12.2,52.3
		c0,20.2,24.5,31.5,24.5,50.3s-22.8,34.7-22.8,54.1c0,17.6,20.1,35.2,20.4,56.1c-4.4,1.9-8.9,3.7-13.4,5.3
		c2.6-21.1-20.1-42.9-20.1-60.1c0-18.8,23.7-35,23.7-55.3c0-20.3-24.1-29.7-24.1-50.6c0-20.8,14.8-32.4,14.8-55.4
		c0-17.9-8.9-34.1-21.8-44.1l-0.8-0.6c-1.2-0.9-2.2,0.2-1.4,1.3c9.2,11.4,14.1,23,14.1,40.1c0,21.1-16.9,38.2-16.9,58.6
		c0,24.1,22.8,31,22.8,50.7c0,19.7-24.4,35.5-24.4,56.5c0,19.4,23.1,41,19.1,63.5c-4.6,1.2-9.3,2.2-14.1,3.1
		c4.3-27.9-18.3-48-18.3-66.3c0-19.8,25.3-37.4,25.3-56.8c0-18.2-18.1-24.2-20.5-42.9c-0.3-2.5-2.4-4.4-5.2-4
		c-3.7,0.7-8.4,3.1-15.8,3.1s-12.1-2.4-15.8-3.1c-2.8-0.5-4.9,1.4-5.2,4c-2.4,18.7-20.5,24.6-20.5,42.9c0,19.3,25.3,37,25.3,56.8
		c0,18.3-22.7,38.4-18.3,66.3c-4.8-0.9-9.5-1.9-14.1-3.1c-4-22.4,19.1-44,19.1-63.5c0-21-24.4-36.8-24.4-56.5
		c0-19.8,22.8-26.6,22.8-50.7c0-20.4-17-37.5-17-58.6c0-17.1,4.9-28.7,14.1-40.1c0.9-1.1-0.1-2.2-1.4-1.3l-0.8,0.6
		c-12.9,10-21.8,26.1-21.8,44.1c0,23,14.8,34.6,14.8,55.4c0,20.8-24.1,30.3-24.1,50.6c0,20.3,23.7,36.5,23.7,55.3
		c0,17.2-22.6,39-20.1,60.1c-4.6-1.6-9-3.3-13.4-5.3c0.3-20.9,20.4-38.5,20.4-56.1c0-19.4-22.8-35.2-22.8-54.1s24.5-30.1,24.5-50.3
		c0-20.2-12.2-31.7-12.2-52.3c0-18.4,6.4-30.5,17.6-43.8c-2.5,1.3-4.5,2.7-6.6,4.6c-11.8,10.4-19.4,26.7-19.4,42.7
		c0,21.9,10.6,31.8,10.6,48.9c0,17.1-25,30.6-25,50.2c0,19.5,21.6,36.1,21.6,52.6c0,14.8-18.6,34.5-19.3,52.6
		c-3.8-1.9-7.5-4-11.2-6.2c1.4-16.4,19-29.5,19-46c0-6.1-2.8-11.1-5.2-15.1c7.2,22.8-19.6,36.3-22,55.9c-4.9-3.3-9.6-6.7-14.2-10.4
		c2.1-3.6,5.3-8.1,9-10.6c-1.7-2-3.4-4.1-5-6.3c-4.3,2.6-8.2,7.5-10.6,11.4c-3.9-3.5-7.7-7.1-11.4-10.9c3.4-4.2,7.8-10.7,14.2-12.4
		c-1.5-2.5-2.9-5-4.2-7.6c-7.4,2-12.5,9-16.3,13.2c-3.4-3.9-6.7-7.9-9.7-12c5.6-3.7,10.3-12.9,20.5-13.3c0.9,2.1,1.7,4.2,2.7,6.3
		c1.1,2.4,2.7,3.3,5.8,3.3c9.4,0,24.1-6.1,35.3-17.3c-7.3-13.3-9.5-20.1-9.5-27c0-17.6,25-32.4,25-49.6s-8.6-26.9-8.6-45.4
		c0-16.7,7.5-31.1,17.4-43.3c-2.4,1.5-4.6,3.2-6.6,5.3c-10.7,10.8-17.8,26.7-17.8,41.3c0,19.7,7.4,27.8,7.4,42.4
		c0,13.4-28.5,32.1-25.3,50.5c-9.9,9.1-21.8,13.1-32.2,13.1c0.9,3.8,2,7.6,3.1,11.3c-11.7,0.6-17,10.6-23.2,13.9
		c-3-4.6-5.9-9.3-8.5-14.1c10.4-1.1,13.5-14.5,28.1-13.4c-0.8-3.5-1.4-7.1-1.9-10.7c-16.7-1.1-20.5,13-31.5,13.6
		c-2.3-5-4.5-10.1-6.4-15.3l36.6-14l-0.1-4.5c0-2.7,0.1-5.4,0.2-8.1c-18.8-0.4-24.6,15.7-40.9,14.1c-1.5-5.1-2.8-10.4-3.9-15.7
		c20.6,2.5,28-14.8,46.6-14.7c0.8-5,1.9-9.8,3.3-14.6c-22.4-1-30.3,18.5-52.2,14.9c-0.6-4.5-1-9.1-1.2-13.7
		c25.5,2.8,35-18.1,58.2-15.5c2.2-5.5,4.7-10.9,7.6-16.1c-29.1-5.1-38.9,19.2-66,15.5C3,83.7,88.5,0,193.6,0S384.1,83.7,387,188
		c-27.1,3.7-36.9-20.6-66-15.5c2.9,5.2,5.4,10.5,7.6,16.1C351.8,186.1,361.4,207,386.8,204.2L386.8,204.2z M110.4,123
		c-14.3-5.8-31.5-4.5-46.2,5c-2.3-13.7-9.7-25.9-20.3-33.2c-1.5-1-3-0.1-2.9,1.6c2.2,29-14.7,54.1-35.5,76.2
		c21.5,6.5,39.7-21.2,67.6-11.5C83,146.2,95.7,133.3,110.4,123L110.4,123z M193.6,105.5c-18,0-33,10.2-37,23.3
		c-0.3,1,0.1,1.7,1.3,1.1c3.2-1.5,6.9-2.1,10.9-2.1c7.3,0,13.8,2.7,17.6,7.4c1.7,5.6,1.8,13.6-0.1,18.3c-3-0.7-4.1-3-7.1-3
		s-5.2,2.1-10.2,2.1c-5,0-5.6-2.4-8.9-2.4c-3.9,0-4.6,4-4.6,8.5c0,20,18.4,47.6,38,47.6c19.6,0,38-27.5,38-47.6c0-4.5-0.9-8.3-5-8.9
		c-2,1.5-3.9,2.7-8.5,2.7c-5,0-6.4-2.1-9.3-2.1c-3.6,0-3.2,7.5-7.4,7.9c-2.8-6.8-2.9-15.4-0.6-23.2c3.8-4.7,10.3-7.4,17.6-7.4
		c4,0,7.7,0.7,10.9,2.1c1.2,0.5,1.6-0.1,1.3-1.1C226.6,115.6,211.5,105.5,193.6,105.5L193.6,105.5z M222.2,134.2
		c-4.3,0-9.4,1.3-12.5,4.9c-0.3,1-0.3,2.4,0.1,3.3c7.8-2.7,14.7-2.8,18,0.9c1.8-1.6,2.3-3.1,2.3-4.7
		C230.1,136,227.5,134.2,222.2,134.2z M159.3,143.3c3.8-3.8,11.7-3.6,20-0.6c0.4-4.1-7-8.6-14.3-8.6c-5.3,0-8,1.8-8,4.4
		C157,140.3,157.5,141.7,159.3,143.3L159.3,143.3z M283.2,75.6c-14.2,1-26.5,5.9-36.5,14c4.2-12,9.6-22.5,16.4-32.7
		c-18.1,1.9-33.2,8.5-44.2,19.8l-8.6-22.6l19.1-16.9l-25.6-1.8l-10.2-23.8l-10.2,23.8l-25.6,1.8l19.1,16.9l-8.6,22.6
		c-11-11.3-26.1-17.9-44.2-19.8c6.8,10.2,12.2,20.7,16.4,32.7c-10-8.1-22.3-13-36.5-14c8.5,10.9,16.1,22.6,21.6,35.1
		c0.6,1.4,2,1.9,3.5,1.1c19.4-9.7,41.3-15.1,64.5-15.1s45.1,5.4,64.5,15.1c1.5,0.7,2.8,0.3,3.4-1.1
		C267.1,98.2,274.6,86.5,283.2,75.6z M314.1,161.1c27.8-9.6,46.1,18,67.6,11.5c-20.8-22.1-37.8-47.3-35.5-76.2
		c0.1-1.7-1.4-2.7-2.9-1.6c-10.6,7.3-18,19.5-20.3,33.2c-14.7-9.5-32-10.8-46.2-5C291.4,133.3,304.1,146.2,314.1,161.1z">
  </path>
  <g>
   <path class="st1" d="M339.3,361.4h-9.8v26.5H326v-26.5h-9.8v-3.3h23.2V361.4z M343.5,358.1h5.2l10.1,23.3h0.1l10.2-23.3h5.1v29.8
			h-3.6v-25h-0.1l-10.7,25h-2.1l-10.7-25H347v25h-3.5L343.5,358.1L343.5,358.1z">
   </path>
  </g>
 </g>
</svg>