<svg xmlns="http://www.w3.org/2000/svg" width="2500" height="977" viewBox="-228.608 -6.185 134.833 52.669"><path fill="#005CFF" d="M-228.608-6.185h134.833v52.669h-134.833z"/><g fill="#FFF"><path d="M-212.682 10.422h4.353v18.984h-4.353z"/><path d="M-208.491 10.422h5.688v3.374h-5.688zM-208.491 26.033h5.688v3.374h-5.688zM-208.491 18.033h5.688v2.926h-5.688z"/><path d="M-202.803 29.407s6.031.19 6.031-5.604c0 0 .263-4.714-3.555-4.714 0 0 2.897-.215 2.897-3.612s-2.37-5.055-5.372-5.055-2.844 1.687-2.844 1.687l2.133 1.687h.711s1.343 0 1.343 1.975-.79 2.261-1.685 2.261-1.238 1.463-1.238 1.463l1.58 1.463s2.001-.026 2.001 2.607-2.107 2.466-2.633 2.466-.369 1.353-.369 1.353l1 2.023zM-188.729 15.252c-7.301 0-7.294 7.294-7.294 7.294s-.501 7.257 7.294 7.257c0 0 6.496.371 6.496-5.048h-3.341s.111 2.041-3.044 2.041c0 0-3.341.223-3.341-3.303h9.837c.001 0 1.077-8.241-6.607-8.241zm-3.267 5.707s.408-2.926 3.341-2.926c2.933 0 2.895 2.926 2.895 2.926h-6.236zM-116.361 15.252c-7.301 0-7.294 7.294-7.294 7.294s-.501 7.257 7.295 7.257c0 0 6.496.371 6.496-5.048h-3.341s.111 2.041-3.044 2.041c0 0-3.341.223-3.341-3.303h9.838c-.002 0 1.074-8.241-6.609-8.241zm-3.267 5.707s.408-2.926 3.341-2.926c2.932 0 2.895 2.926 2.895 2.926h-6.236zM-192.813 11.54h7.833v2.338h-7.833zM-180.637 10.422h3.86v18.975h-3.86zM-167.905 19.744h-3.786V29.397h3.786z"/><path d="M-171.74 19.744s0-1.448-2.402-1.448c-2.227 0-2.635 1.745-2.635 3.415s-.26-3.675-.26-3.675 1.225-2.784 4.492-2.784 4.64 2.361 4.64 4.68c0 2.319-1.313 1.199-1.313 1.199l-2.521-.598v-.79h-.001zM-151.933 15.455h3.86v13.942h-3.86zM-139.2 19.744h-3.786V29.397h3.786z"/><path d="M-143.035 19.744s0-1.448-2.402-1.448c-2.227 0-2.635 1.745-2.635 3.415s-.26-3.675-.26-3.675 1.225-2.784 4.492-2.784c3.266 0 4.64 2.361 4.64 4.68 0 2.319-1.313 1.199-1.313 1.199l-2.522-.598v-.789zM-153.225 29.397s-.718-.369-.718-2.623v-8.13s.457-3.391-5.653-3.391c-6.109 0-6.501 3.062-6.534 4.891h4.084s-.163-2.419 2.418-2.419c0 0 2.189-.174 2.189 2.02 0 0 0 1.442-1.993 1.573s-7.057.099-7.057 4.215c0 0-.131 4.345 4.525 4.345 0 0 3.186.065 4.525-1.895v1.414h4.214zm-4.247-4.289s-.327 2.091-3.104 2.091c0 0-2.287.099-2.287-1.862 0 0-.196-1.503 3.006-1.993 1.274-.098 1.862-.186 2.385-.779v2.543zM-124.261 24.024h-3.996s.098 2.812-2.516 2.812c-2.615 0-3.305-2.802-3.305-4.409 0-1.609.542-4.322 3.354-4.322s2.713 2.417 2.713 2.417h3.503s.246-5.269-6.166-5.269c-6.413 0-7.103 5.193-7.103 7.278s1.085 7.347 7.005 7.347c5.919-.001 6.511-4.769 6.511-5.854z"/></g></svg>