<svg version="1.1" id="Layer_1" xmlns:x="ns_extend;" xmlns:i="ns_ai;" xmlns:graph="ns_graphs;" xmlns="http://www.w3.org/2000/svg" xmlns:xlink="http://www.w3.org/1999/xlink" x="0px" y="0px" viewBox="0 0 155.7 106" style="enable-background:new 0 0 155.7 106;" xml:space="preserve">
 <style type="text/css">
  .st0{fill:#00758F;}
	.st1{fill:#F29111;}
	.st2{fill-rule:evenodd;clip-rule:evenodd;fill:#F29111;}
	.st3{fill-rule:evenodd;clip-rule:evenodd;fill:#00758F;}
 </style>
 <metadata>
  <sfw xmlns="ns_sfw;">
   <slices>
   </slices>
   <sliceSourceBounds bottomLeftOrigin="true" height="106" width="155.7" x="116.2" y="79.1">
   </sliceSourceBounds>
  </sfw>
 </metadata>
 <g transform="matrix(1.8189257,0,0,1.8237746,-82.14211,-64.843651)">
  <g transform="matrix(1.2699241,0,0,-1.2699241,3.3662307,208.12494)">
   <g transform="scale(0.1,0.1)">
    <path class="st0" d="M491.1,942h-26c-0.9,43.9-3.4,85.2-7.6,123.8h-0.2L417.7,942h-19.8l-39.4,123.8h-0.2
				c-2.9-37.1-4.8-78.4-5.5-123.8h-23.7c1.5,55.2,5.4,107,11.5,155.4h32.2l37.5-114.2h0.2l37.7,114.2h30.8
				C485.9,1040.7,489.9,988.9,491.1,942">
    </path>
    <path class="st0" d="M603.9,1056.6c-10.6-57.5-24.6-99.2-41.9-125.2c-13.5-20.1-28.3-30.1-44.4-30.1c-4.3,0-9.6,1.3-15.9,3.9
				v13.8c3.1-0.4,6.7-0.7,10.8-0.7c7.5,0,13.6,2.1,18.2,6.2c5.5,5.1,8.3,10.7,8.3,17c0,4.3-2.2,13.1-6.4,26.5l-28.5,88.6h25.5
				l20.5-66.3c4.6-15,6.5-25.6,5.8-31.5c11.2,29.9,19,62.5,23.5,97.8H603.9">
    </path>
    <path class="st1" d="M717.8,985c0-13.2-4.8-24-14.5-32.5c-9.7-8.4-22.6-12.6-38.9-12.6c-15.2,0-29.9,4.9-44.2,14.5l6.7,13.3
				c12.3-6.1,23.4-9.2,33.4-9.2c9.4,0,16.7,2.1,22,6.2c5.3,4.1,8.5,9.9,8.5,17.3c0,9.2-6.4,17.1-18.2,23.7
				c-10.9,6-32.7,18.5-32.7,18.5c-11.8,8.6-17.7,17.8-17.7,33.1c0,12.6,4.4,22.8,13.2,30.5c8.8,7.8,20.2,11.6,34.2,11.6
				c14.4,0,27.5-3.8,39.3-11.5l-6-13.3c-10.1,4.3-20.1,6.4-29.9,6.4c-8,0-14.1-1.9-18.4-5.8c-4.3-3.8-7-8.7-7-14.7
				c0-9.2,6.6-17.2,18.7-23.9c11-6,33.3-18.7,33.3-18.7C711.8,1009.3,717.8,1000.1,717.8,985">
    </path>
    <path class="st2" d="M764.3,973c-6.3,10.1-9.4,26.4-9.4,48.8c0,39.1,11.9,58.7,35.7,58.7c12.4,0,21.6-4.7,27.4-14
				c6.3-10.1,9.4-26.2,9.4-48.3c0-39.4-11.9-59.2-35.7-59.2C779.3,959,770.1,963.7,764.3,973 M856.8,938.2l-28.6,14.1
				c2.5,2.1,5,4.3,7.1,6.9c12.1,14.3,18.2,35.4,18.2,63.3c0,51.4-20.2,77.1-60.5,77.1c-19.8,0-35.2-6.5-46.3-19.6
				c-12.1-14.3-18.2-35.3-18.2-63.1c0-27.3,5.4-47.3,16.1-60.1c9.8-11.5,24.6-17.3,44.4-17.3c7.4,0,14.2,0.9,20.3,2.7l37.2-21.6
				L856.8,938.2">
    </path>
    <path class="st1" d="M950,942h-73.9v155.4H901V961.1h49V942">
    </path>
    <path class="st1" d="M967.8,942h4.1v15.8h5.4v3.2h-15.1v-3.2h5.6L967.8,942L967.8,942z M999.1,942h3.9v19h-5.8l-4.8-13l-5.2,13
				h-5.6v-19h3.7v14.5h0.2l5.4-14.5h2.8l5.4,14.5L999.1,942">
    </path>
    <path class="st3" d="M981.2,1149.4c-15,0.4-26.7-1.1-36.4-5.3c-2.8-1.1-7.3-1.1-7.7-4.7c1.5-1.5,1.7-3.9,3-6
				c2.2-3.8,6.2-8.8,9.8-11.4c3.9-3,7.9-6,12-8.6c7.3-4.5,15.6-7.1,22.7-11.6c4.1-2.6,8.3-6,12.4-8.8c2.1-1.5,3.4-3.9,6-4.9v0.6
				c-1.3,1.7-1.7,4.1-3,6c-1.9,1.9-3.8,3.6-5.6,5.4c-5.4,7.3-12.2,13.7-19.5,19c-6,4.1-19.2,9.8-21.6,16.7c0,0-0.2,0.2-0.4,0.4
				c4.1,0.4,9,1.9,13,3c6.4,1.7,12.2,1.3,18.8,3c3,0.8,6,1.7,9,2.6v1.7c-3.4,3.4-5.8,7.9-9.4,11.1c-9.6,8.3-20.1,16.3-31,23.1
				c-5.8,3.8-13.3,6.2-19.5,9.4c-2.2,1.1-6,1.7-7.3,3.6c-3.4,4.1-5.3,9.6-7.7,14.5c-5.4,10.3-10.7,21.8-15.4,32.7
				c-3.4,7.3-5.4,14.6-9.6,21.4c-19.3,31.9-40.4,51.2-72.6,70.2c-6.9,3.9-15.2,5.6-24,7.7c-4.7,0.2-9.4,0.6-14.1,0.7
				c-3,1.3-6,4.9-8.6,6.6c-10.7,6.8-38.3,21.4-46.2,2.1c-5.1-12.2,7.5-24.2,11.8-30.4c3.2-4.3,7.3-9.2,9.6-14.1
				c1.3-3.2,1.7-6.6,3-10c3-8.3,5.8-17.5,9.8-25.2c2.1-3.9,4.3-8.1,6.9-11.6c1.5-2.1,4.1-3,4.7-6.4c-2.6-3.8-2.8-9.4-4.3-14.1
				c-6.8-21.2-4.1-47.5,5.4-63.1c3-4.7,10.1-15,19.7-11.1c8.4,3.4,6.6,14.1,9,23.5c0.6,2.3,0.2,3.8,1.3,5.3v-0.4
				c2.6-5.2,5.3-10.3,7.7-15.6c5.8-9.2,16-18.8,24.4-25.1c4.5-3.4,8.1-9.2,13.7-11.3v0.6h-0.4c-1.1,1.7-2.8,2.4-4.3,3.7
				c-3.4,3.4-7.1,7.5-9.8,11.3c-7.9,10.5-14.8,22.2-21,34.2c-3,5.8-5.6,12.2-8.1,18c-1.1,2.2-1.1,5.6-3,6.8c-2.8-4.1-6.9-7.7-9-12.7
				c-3.6-8.1-3.9-18-5.3-28.4c-0.7-0.2-0.4,0-0.7-0.4c-6,1.5-8.1,7.7-10.3,12.9c-5.6,13.3-6.6,34.7-1.7,50.1
				c1.3,3.9,7,16.3,4.7,20.1c-1.1,3.6-4.9,5.6-6.9,8.5c-2.4,3.6-5.1,8.1-6.7,12c-4.5,10.5-6.8,22.2-11.6,32.7
				c-2.3,4.9-6.2,10-9.4,14.5c-3.6,5.1-7.5,8.6-10.3,14.6c-0.9,2.1-2.2,5.5-0.8,7.7c0.4,1.5,1.1,2.1,2.6,2.4
				c2.4,2.1,9.4-0.6,11.8-1.7c7-2.8,12.8-5.5,18.6-9.4c2.6-1.9,5.4-5.4,8.8-6.4h4c6-1.3,12.8-0.4,18.4-2.1c9.9-3.2,19-7.9,27-13
				c24.6-15.6,44.9-37.7,58.6-64.2c2.3-4.3,3.2-8.3,5.3-12.8c3.9-9.2,8.8-18.6,12.8-27.6c3.9-8.8,7.7-17.8,13.3-25.2
				c2.8-3.9,14.1-6,19.1-8.1c3.7-1.7,9.6-3.2,13-5.2c6.4-3.9,12.8-8.4,18.8-12.8C971.3,1157.8,980.7,1153.1,981.2,1149.4">
    </path>
    <path class="st3" d="M789.8,1312.5c-3.2,0-5.4-0.4-7.7-0.9v-0.4h0.4c1.5-3,4.1-5.1,6-7.7c1.5-3,2.8-6,4.3-9
				c0.2,0.2,0.4,0.4,0.4,0.4c2.6,1.9,4,4.9,4,9.4c-1.1,1.3-1.3,2.6-2.3,3.9C793.7,1310.1,791.3,1311,789.8,1312.5">
    </path>
   </g>
  </g>
 </g>
</svg>