<?xml version="1.0" encoding="UTF-8"?>
<svg width="160px" height="160px" viewBox="0 0 160 160" version="1.1" xmlns="http://www.w3.org/2000/svg" xmlns:xlink="http://www.w3.org/1999/xlink">
    <!-- Generator: Sketch 57 (83077) - https://sketch.com -->
    <title>A Brand / Logos / alan-logo-vertical-color</title>
    <desc>Created with Sketch.</desc>
    <defs>
        <linearGradient x1="63.9066032%" y1="30.1204183%" x2="34.7430855%" y2="69.8795817%" id="linearGradient-1">
            <stop stop-color="#47B0FF" offset="0%"></stop>
            <stop stop-color="#009DFF" offset="100%"></stop>
        </linearGradient>
        <linearGradient x1="30.5461988%" y1="69.695643%" x2="57.5382%" y2="30.304357%" id="linearGradient-2">
            <stop stop-color="#32BEFF" offset="0%"></stop>
            <stop stop-color="#5ECCFF" offset="100%"></stop>
        </linearGradient>
        <linearGradient x1="25.0938778%" y1="83.4411528%" x2="63.629194%" y2="16.5588472%" id="linearGradient-3">
            <stop stop-color="#1970E3" offset="0%"></stop>
            <stop stop-color="#115FC6" offset="100%"></stop>
        </linearGradient>
        <linearGradient x1="28.5756119%" y1="0%" x2="79.9231513%" y2="100%" id="linearGradient-4">
            <stop stop-color="#62BBFF" offset="0%"></stop>
            <stop stop-color="#009DFF" offset="100%"></stop>
        </linearGradient>
    </defs>
    <g id="A-Brand-/-Logos-/-alan-logo-vertical-color" stroke="none" stroke-width="1" fill="none" fill-rule="evenodd">
        <g id="logo" transform="translate(32.000000, 24.000000)">
            <g>
                <path d="M34.8287156,0.0118230729 C34.7114774,0.00397382144 34.5934744,-6.03961325e-14 34.4748691,-6.03961325e-14 L32.4359673,-6.03961325e-14 L60.4290171,-6.03961325e-14 L63.1574191,-6.03961325e-14 L61.1185173,-6.03961325e-14 C60.999912,-6.03961325e-14 60.881909,0.00397382144 60.7646708,0.0118230729 C62.3962481,0.12699798 63.8610742,1.07619012 64.6163784,2.53129074 L95.73917,62.4896346 C95.8152693,62.6362406 95.8549668,62.7987127 95.8549668,62.9635628 C95.8549668,63.5359712 95.3865127,64 94.8086452,64 L73.442448,64 C71.8741591,64 70.4374753,63.131514 69.7203491,61.7499638 L47.7966932,19.5138394 L36.540821,41.1983806 L45.3086588,41.1983806 C46.8802932,41.1983806 48.319453,42.0705385 49.0350013,43.4566143 L58.0830196,60.9833679 C58.2338444,61.2755278 58.3124914,61.5989826 58.3124914,61.9271255 C58.3124914,63.0719425 57.3755832,64 56.2198484,64 L1.64199891,64 C0.775197774,64 0.0725166179,63.3039569 0.0725166179,62.4453441 C0.0725166179,62.1980691 0.132062834,61.9543609 0.246211791,61.7344518 L30.9770079,2.53129074 C31.7323122,1.07619012 33.1971383,0.12699798 34.8287156,0.0118230729 Z" id="bg" fill="#009DFF"></path>
                <path d="M36.540821,41.1983806 L45.3086588,41.1983806 C46.8802932,41.1983806 48.319453,42.0705385 49.0350013,43.4566143 L58.0830196,60.9833679 C58.2338444,61.2755278 58.3124914,61.5989826 58.3124914,61.9271255 C58.3124914,63.0719425 57.3755832,64 56.2198484,64 L22.1509384,64 C23.7192273,64 25.1559111,63.131514 25.8730373,61.7499638 L36.540821,41.1983806 Z" id="shape" fill="url(#linearGradient-1)"></path>
                <path d="M36.540821,41.1983806 L25.8730373,61.7499638 C25.1559111,63.131514 23.7192273,64 22.1509384,64 L1.78061782,64 C1.53216358,64 1.28725893,63.9415719 1.0660493,63.829522 C0.294298499,63.4386048 -0.0114059134,62.5019862 0.383239382,61.7375259 L9.67486058,43.7388936 C10.4798525,42.1795583 12.0989072,41.1983806 13.8669959,41.1983806 L36.540821,41.1983806 L36.540821,41.1983806 Z" id="shape" fill="url(#linearGradient-2)"></path>
                <path d="M36.540821,41.1983806 L13.8669959,41.1983806 C12.0989072,41.1983806 10.4798525,42.1795583 9.67486058,43.7388936 L30.9770079,2.53129074 C31.783775,0.977046695 33.4000443,0 35.1643693,0 L63.1574191,0 L61.1185173,0 C59.1581561,0 57.3623013,1.08560744 56.4658935,2.81254526 L36.540821,41.1983806 Z" id="shape" fill="url(#linearGradient-3)"></path>
                <path d="M39.1274928,2.81254526 C38.2310851,1.08560744 36.4352303,0 34.4748691,0 L32.4359673,0 L60.4290171,0 C62.1933421,0 63.8096114,0.977046695 64.6163784,2.53129074 L95.73917,62.4896346 C95.8152693,62.6362406 95.8549668,62.7987127 95.8549668,62.9635628 C95.8549668,63.5359712 95.3865127,64 94.8086452,64 L73.442448,64 C71.8741591,64 70.4374753,63.131514 69.7203491,61.7499638 L39.1274928,2.81254526 Z" id="shape" fill="url(#linearGradient-4)"></path>
            </g>
            <path d="M4.86486375,109.583333 C4.61775859,109.583333 4.41184071,109.500001 4.24710393,109.333333 C4.08236715,109.166666 4,108.958335 4,108.708333 L4.08236798,108.333333 L13.9665252,81.4583333 C14.2410865,80.7638854 14.7352894,80.4166667 15.4491487,80.4166667 L19.9793874,80.4166667 C20.6932468,80.4166667 21.1874497,80.7638854 21.462011,81.4583333 L31.3461682,108.333333 L31.4285362,108.708333 C31.4285362,108.958335 31.3393051,109.166666 31.1608403,109.333333 C30.9823754,109.500001 30.7833215,109.583333 30.5636724,109.583333 L26.8982975,109.583333 C26.3217188,109.583333 25.9236109,109.319447 25.7039618,108.791667 L23.8094984,103.75 L11.6190378,103.75 L9.72457437,108.791667 C9.50492533,109.319447 9.10681743,109.583333 8.53023871,109.583333 L4.86486375,109.583333 Z M13.0604774,98.9166667 L22.3680588,98.9166667 L17.7142681,86.0833333 L13.0604774,98.9166667 Z M36.2877119,109.583333 C36.0131507,109.583333 35.7797771,109.486112 35.5875841,109.291667 C35.3953912,109.097221 35.2992962,108.861113 35.2992962,108.583333 L35.2992962,81 C35.2992962,80.6944429 35.3953912,80.4513898 35.5875841,80.2708333 C35.7797771,80.0902769 36.0131507,80 36.2877119,80 L39.747167,80 C40.0491844,80 40.2894219,80.0902769 40.4678868,80.2708333 C40.6463516,80.4513898 40.7355827,80.6944429 40.7355827,81 L40.7355827,108.583333 C40.7355827,108.861113 40.6463516,109.097221 40.4678868,109.291667 C40.2894219,109.486112 40.0491844,109.583333 39.747167,109.583333 L36.2877119,109.583333 Z M52.9666923,110 C51.5664297,110 50.2828749,109.715281 49.1159894,109.145833 C47.9491039,108.576386 47.0293374,107.80556 46.3566622,106.833333 C45.6839871,105.861106 45.3476545,104.791673 45.3476545,103.625 C45.3476545,101.736102 46.1026867,100.208339 47.6127739,99.0416667 C49.122861,97.8749942 51.1957677,97.0833354 53.8315561,96.6666667 L59.4737625,95.8333333 L59.4737625,94.9583333 C59.4737625,93.7638829 59.1717496,92.8611142 58.5677147,92.25 C57.9636799,91.6388858 57.0027298,91.3333333 55.6848356,91.3333333 C54.7787833,91.3333333 54.0512068,91.5 53.5020842,91.8333333 C52.9529616,92.1666683 52.5068062,92.5069427 52.1636046,92.8541667 L51.4840688,93.5416667 C51.3742442,93.8750017 51.1683264,94.0416667 50.8663089,94.0416667 L47.6539579,94.0416667 C47.4068527,94.0416667 47.1940709,93.9583342 47.015606,93.7916667 C46.8371412,93.6249992 46.7479101,93.4027792 46.7479101,93.125 C46.7753662,92.4305521 47.1116988,91.6458377 47.7569178,90.7708333 C48.4021369,89.895829 49.3974066,89.1319477 50.742757,88.4791667 C52.0881073,87.8263856 53.7491782,87.5 55.7260196,87.5 C58.9658428,87.5 61.3270345,88.2361038 62.8096655,89.7083333 C64.2922965,91.1805629 65.0336009,93.1110992 65.0336009,95.5 L65.0336009,108.583333 C65.0336009,108.861113 64.9443698,109.097221 64.765905,109.291667 C64.5874401,109.486112 64.3472026,109.583333 64.0451852,109.583333 L60.6269142,109.583333 C60.3523529,109.583333 60.1189793,109.486112 59.9267864,109.291667 C59.7345935,109.097221 59.6384984,108.861113 59.6384984,108.583333 L59.6384984,106.958333 C59.0344636,107.847227 58.1833363,108.576386 57.0850912,109.145833 C55.986846,109.715281 54.6140601,110 52.9666923,110 Z M54.3669479,106 C55.8770351,106 57.1125424,105.500005 58.0735069,104.5 C59.0344714,103.499995 59.5149465,102.055565 59.5149465,100.166667 L59.5149465,99.3333333 L55.3965476,100 C52.2390928,100.500003 50.660389,101.569436 50.660389,103.208333 C50.660389,104.097227 51.0241773,104.78472 51.7517647,105.270833 C52.4793521,105.756947 53.3510712,106 54.3669479,106 Z M71.8284241,109.583333 C71.5538628,109.583333 71.3204892,109.486112 71.1282963,109.291667 C70.9361034,109.097221 70.8400084,108.861113 70.8400084,108.583333 L70.8400084,88.9166667 C70.8400084,88.6111096 70.9361034,88.3680565 71.1282963,88.1875 C71.3204892,88.0069435 71.5538628,87.9166667 71.8284241,87.9166667 L75.2466951,87.9166667 C75.5487126,87.9166667 75.7889501,88.0069435 75.9674149,88.1875 C76.1458798,88.3680565 76.2351109,88.6111096 76.2351109,88.9166667 L76.2351109,90.625 C77.9099348,88.5416563 80.2024872,87.5 83.1128369,87.5 C85.6388008,87.5 87.6430682,88.333325 89.1256992,90 C90.6083302,91.666675 91.3496346,93.9583188 91.3496346,96.875 L91.3496346,108.583333 C91.3496346,108.861113 91.2604035,109.097221 91.0819386,109.291667 C90.9034738,109.486112 90.6632363,109.583333 90.3612188,109.583333 L86.6546599,109.583333 C86.3800986,109.583333 86.146725,109.486112 85.9545321,109.291667 C85.7623392,109.097221 85.6662442,108.861113 85.6662442,108.583333 L85.6662442,97.125 C85.6662442,95.5138808 85.2750002,94.256949 84.4925005,93.3541667 C83.7100008,92.4513844 82.5911803,92 81.1360055,92 C79.7357429,92 78.6100584,92.4583288 77.7589184,93.375 C76.9077784,94.2916713 76.4822148,95.5416588 76.4822148,97.125 L76.4822148,108.583333 C76.4822148,108.861113 76.3929837,109.097221 76.2145189,109.291667 C76.036054,109.486112 75.7958165,109.583333 75.4937991,109.583333 L71.8284241,109.583333 Z" id="Alan" fill="#081746"></path>
        </g>
    </g>
</svg>