<?xml version="1.0" encoding="UTF-8"?>
<svg width="70px" height="70px" viewBox="0 0 70 70" version="1.1" xmlns="http://www.w3.org/2000/svg" xmlns:xlink="http://www.w3.org/1999/xlink">
    <!-- Generator: Sketch 57 (83077) - https://sketch.com -->
    <title>A Brand / Logos / alan-logo-icon-color</title>
    <desc>Created with Sketch.</desc>
    <defs>
        <linearGradient x1="63.9066032%" y1="30.1204183%" x2="34.7430855%" y2="69.8795817%" id="linearGradient-1">
            <stop stop-color="#47B0FF" offset="0%"></stop>
            <stop stop-color="#009DFF" offset="100%"></stop>
        </linearGradient>
        <linearGradient x1="30.5461988%" y1="69.695643%" x2="57.5382%" y2="30.304357%" id="linearGradient-2">
            <stop stop-color="#32BEFF" offset="0%"></stop>
            <stop stop-color="#5ECCFF" offset="100%"></stop>
        </linearGradient>
        <linearGradient x1="25.0938778%" y1="83.4411528%" x2="63.629194%" y2="16.5588472%" id="linearGradient-3">
            <stop stop-color="#1970E3" offset="0%"></stop>
            <stop stop-color="#115FC6" offset="100%"></stop>
        </linearGradient>
        <linearGradient x1="28.5756119%" y1="0%" x2="79.9231513%" y2="100%" id="linearGradient-4">
            <stop stop-color="#62BBFF" offset="0%"></stop>
            <stop stop-color="#009DFF" offset="100%"></stop>
        </linearGradient>
    </defs>
    <g id="A-Brand-/-Logos-/-alan-logo-icon-color" stroke="none" stroke-width="1" fill="none" fill-rule="evenodd">
        <g id="logo" transform="translate(11.000000, 19.000000)">
            <path d="M17.4143578,0.00591153645 C17.3557387,0.00198691072 17.2967372,-6.03961325e-14 17.2374346,-6.03961325e-14 L16.2179837,-6.03961325e-14 L30.2145085,-6.03961325e-14 L31.5787095,-6.03961325e-14 L30.5592586,-6.03961325e-14 C30.499956,-6.03961325e-14 30.4409545,0.00198691072 30.3823354,0.00591153645 C31.1981241,0.0634989899 31.9305371,0.538095061 32.3081892,1.26564537 L47.869585,31.2448173 C47.9076346,31.3181203 47.9274834,31.3993564 47.9274834,31.4817814 C47.9274834,31.7679856 47.6932563,32 47.4043226,32 L36.721224,32 C35.9370796,32 35.2187376,31.565757 34.8601745,30.8749819 L23.8983466,9.75691969 L18.2704105,20.5991903 L22.6543294,20.5991903 C23.4401466,20.5991903 24.1597265,21.0352693 24.5175007,21.7283072 L29.0415098,30.4916839 C29.1169222,30.6377639 29.1562457,30.7994913 29.1562457,30.9635628 C29.1562457,31.5359712 28.6877916,32 28.1099242,32 L0.820999453,32 C0.387598887,32 0.036258309,31.6519784 0.036258309,31.2226721 C0.036258309,31.0990345 0.0660314168,30.9771804 0.123105895,30.8672259 L15.488504,1.26564537 C15.8661561,0.538095061 16.5985691,0.0634989899 17.4143578,0.00591153645 Z" id="bg" fill="#009DFF"></path>
            <path d="M18.2704105,20.5991903 L22.6543294,20.5991903 C23.4401466,20.5991903 24.1597265,21.0352693 24.5175007,21.7283072 L29.0415098,30.4916839 C29.1169222,30.6377639 29.1562457,30.7994913 29.1562457,30.9635628 C29.1562457,31.5359712 28.6877916,32 28.1099242,32 L11.0754692,32 C11.8596136,32 12.5779556,31.565757 12.9365187,30.8749819 L18.2704105,20.5991903 Z" id="shape" fill="url(#linearGradient-1)"></path>
            <path d="M18.2704105,20.5991903 L12.9365187,30.8749819 C12.5779556,31.565757 11.8596136,32 11.0754692,32 L0.890308908,32 C0.766081788,32 0.643629464,31.970786 0.533024649,31.914761 C0.14714925,31.7193024 -0.00570295669,31.2509931 0.191619691,30.868763 L4.83743029,21.8694468 C5.23992623,21.0897791 6.0494536,20.5991903 6.93349794,20.5991903 L18.2704105,20.5991903 L18.2704105,20.5991903 Z" id="shape" fill="url(#linearGradient-2)"></path>
            <path d="M18.2704105,20.5991903 L6.93349794,20.5991903 C6.0494536,20.5991903 5.23992623,21.0897791 4.83743029,21.8694468 L15.488504,1.26564537 C15.8918875,0.488523348 16.7000221,0 17.5821846,0 L31.5787095,0 L30.5592586,0 C29.5790781,0 28.6811507,0.542803719 28.2329468,1.40627263 L18.2704105,20.5991903 Z" id="shape" fill="url(#linearGradient-3)"></path>
            <path d="M19.5637464,1.40627263 C19.1155425,0.542803719 18.2176151,0 17.2374346,0 L16.2179837,0 L30.2145085,0 C31.0966711,0 31.9048057,0.488523348 32.3081892,1.26564537 L47.869585,31.2448173 C47.9076346,31.3181203 47.9274834,31.3993564 47.9274834,31.4817814 C47.9274834,31.7679856 47.6932563,32 47.4043226,32 L36.721224,32 C35.9370796,32 35.2187376,31.565757 34.8601745,30.8749819 L19.5637464,1.40627263 Z" id="shape" fill="url(#linearGradient-4)"></path>
        </g>
    </g>
</svg>