<?xml version="1.0" encoding="iso-8859-1"?>
<!-- Generator: Adobe Illustrator 19.0.0, SVG Export Plug-In . SVG Version: 6.00 Build 0)  -->
<svg xmlns="http://www.w3.org/2000/svg" xmlns:xlink="http://www.w3.org/1999/xlink" version="1.1" id="Capa_1" x="0px" y="0px" viewBox="0 0 467.434 467.434" style="enable-background:new 0 0 467.434 467.434;" xml:space="preserve">
<path style="fill:#08BC26;" d="M101.694,137.926V339.8c0,16.091,13.531,28.891,29.989,28.891h21.577  c-0.731,2.56-1.097,5.12-1.097,7.68v58.149c0,14.994,12.8,27.429,28.16,27.429s28.16-12.434,28.16-27.429v-58.149  c0-2.56-0.366-5.12-1.097-7.68h52.297c-0.731,2.56-1.097,5.12-1.097,7.68v58.149c0,14.994,12.8,27.429,28.16,27.429  c15.726,0,28.16-12.434,28.16-27.429v-58.149c0-2.56-0.366-5.12-1.097-7.68h21.577c16.457,0,29.989-13.166,29.989-28.891V137.926  H103.523H101.694z"/>
<polygon style="fill:#49E500;" points="101.694,137.926 101.694,231.914 365.74,231.914 365.74,137.926 103.889,137.926 "/>
<path style="fill:#08BC26;" d="M54.883,137.926c-15.726,0-28.16,12.434-28.16,27.429v117.76c0,14.994,12.8,27.429,28.16,27.429  c15.726,0,28.16-12.434,28.16-27.429v-117.76C83.043,150.36,70.243,137.926,54.883,137.926z"/>
<g>
	<path style="fill:#49E500;" d="M26.357,165.354v66.56h56.686v-66.56c0-14.994-12.8-27.429-28.16-27.429   C39.157,137.926,26.357,150.36,26.357,165.354z"/>
	<path style="fill:#49E500;" d="M365.009,119.64c-5.12-49.371-44.983-89.966-98.011-102.034c-10.606-2.194-21.943-3.291-33.28-3.291   s-22.674,1.097-33.28,3.291c-53.029,12.069-92.891,52.663-98.011,102.034H365.009z M290.403,65.149   c7.68,0,14.263,6.217,14.263,13.897s-6.217,13.897-14.263,13.897c-7.68,0-14.263-6.217-14.263-13.897   C276.14,71,282.357,65.149,290.403,65.149z M177.031,65.149c7.68,0,14.263,6.217,14.263,13.897s-6.217,13.897-14.263,13.897   c-7.68,0-14.263-6.217-14.263-13.897C163.134,71,169.351,65.149,177.031,65.149z"/>
</g>
<path style="fill:#08BC26;" d="M412.551,137.926c-15.726,0-28.16,12.434-28.16,27.429v117.76c0,14.994,12.8,27.429,28.16,27.429  c15.726,0,28.16-12.434,28.16-27.429v-117.76C441.077,150.36,428.277,137.926,412.551,137.926z"/>
<path style="fill:#49E500;" d="M412.551,137.926c-15.726,0-28.16,12.434-28.16,27.429v66.56h56.686v-66.56  C441.077,150.36,428.277,137.926,412.551,137.926z"/>
<g>
	<path style="fill:#33363A;" d="M287.112,467.434c-18.651,0-33.646-14.629-33.646-32.914v-58.149c0-0.731,0-1.463,0-2.194h-39.497   c0,0.731,0,1.463,0,2.194v58.149c0,18.286-14.994,32.914-33.646,32.914s-33.646-14.629-33.646-32.914v-58.149   c0-0.731,0-1.463,0-2.194h-14.994c-19.383,0-35.474-15.36-35.474-34.377V137.926c0-2.926,2.56-5.486,5.486-5.486h263.68   c2.926,0,5.486,2.56,5.486,5.486V339.8c0,19.017-15.726,34.377-35.474,34.377h-14.994c0,0.731,0,1.463,0,2.194v58.149   C320.757,452.806,305.763,467.434,287.112,467.434z M207.386,363.206h52.297c1.829,0,3.291,0.731,4.389,2.194   s1.463,3.291,0.731,4.754c-0.731,2.194-0.731,4.023-0.731,6.217v58.149c0,12.069,10.24,21.943,22.674,21.943   s22.674-9.874,22.674-21.943v-58.149c0-1.829-0.366-4.023-1.097-6.217c-0.366-1.829-0.366-3.291,0.731-4.754   s2.56-2.194,4.389-2.194h21.577c13.531,0,24.503-10.606,24.503-23.406V143.412H106.814V339.8c0,13.166,10.971,23.406,24.503,23.406   h21.577c1.829,0,3.291,0.731,4.389,2.194c1.097,1.463,1.463,3.291,0.731,4.754c-0.731,1.829-0.731,4.023-0.731,6.217v58.149   c0,12.069,10.24,21.943,22.674,21.943s22.674-9.874,22.674-21.943v-58.149c0-2.194-0.366-4.023-0.731-6.217   c-0.366-1.829,0-3.291,0.731-4.754S205.923,363.206,207.386,363.206z"/>
	<path style="fill:#33363A;" d="M54.883,316.029c-18.651,0-33.646-14.629-33.646-32.914v-117.76   c0-18.286,14.994-32.914,33.646-32.914s33.646,14.629,33.646,32.914v117.76C88.529,301.4,73.534,316.029,54.883,316.029z    M54.883,143.412c-12.434,0-22.674,9.874-22.674,21.943v117.76c0,12.069,10.24,21.943,22.674,21.943s22.674-9.874,22.674-21.943   v-117.76C77.557,153.286,67.317,143.412,54.883,143.412z"/>
	<path style="fill:#33363A;" d="M365.009,125.126H102.426c-1.463,0-2.926-0.731-4.023-1.829s-1.463-2.56-1.463-4.389   c5.12-50.834,46.08-93.989,102.034-106.789c22.674-4.754,46.446-4.754,69.12,0c55.954,12.8,97.28,55.954,102.4,106.789   c0,1.463-0.366,2.926-1.463,4.389C367.934,124.394,366.471,125.126,365.009,125.126z M108.643,114.154h250.149   c-7.314-43.52-43.886-79.726-92.891-91.063c-20.846-4.389-43.154-4.389-64.366,0C152.529,34.429,115.957,70.634,108.643,114.154z    M290.403,98.063c-10.971,0-19.749-8.777-19.749-19.383s8.777-19.383,19.749-19.383s19.749,8.777,19.749,19.383   C309.786,89.286,301.009,98.063,290.403,98.063z M290.403,70.634c-4.754,0-8.777,3.657-8.777,8.411   c0,4.389,4.023,8.411,8.777,8.411s8.777-3.657,8.777-8.411C298.814,74.292,295.157,70.634,290.403,70.634z M177.031,98.063   c-10.971,0-19.749-8.777-19.749-19.383s8.777-19.383,19.749-19.383c10.971,0,19.749,8.777,19.749,19.383   S188.003,98.063,177.031,98.063z M177.031,70.634c-4.754,0-8.777,3.657-8.777,8.411c0,4.389,4.023,8.411,8.777,8.411   s8.777-3.657,8.777-8.411C185.809,74.292,182.151,70.634,177.031,70.634z"/>
	<path style="fill:#33363A;" d="M412.551,316.029c-18.651,0-33.646-14.629-33.646-32.914v-117.76   c0-18.286,14.994-32.914,33.646-32.914c18.651,0,33.646,14.629,33.646,32.914v117.76   C446.563,301.4,431.203,316.029,412.551,316.029z M412.551,143.412c-12.434,0-22.674,9.874-22.674,21.943v117.76   c0,12.069,10.24,21.943,22.674,21.943c12.434,0,22.674-9.874,22.674-21.943v-117.76   C435.591,153.286,425.352,143.412,412.551,143.412z"/>
	<path style="fill:#33363A;" d="M156.917,40.28c-2.194,0-4.023-1.097-5.12-3.291l-12.8-29.257c-1.097-2.926,0-5.851,2.926-7.314   c2.926-1.097,5.851,0,7.314,2.926l12.8,29.257c1.097,2.926,0,5.851-2.926,7.314C158.38,40.28,157.649,40.28,156.917,40.28z"/>
	<path style="fill:#33363A;" d="M310.517,40.28c-0.731,0-1.463,0-2.194-0.366c-2.926-1.097-4.023-4.389-2.926-7.314l12.8-29.257   c1.097-2.926,4.389-4.023,7.314-2.926c2.926,1.097,4.023,4.389,2.926,7.314l-12.8,29.257   C314.54,39.183,312.712,40.28,310.517,40.28z"/>
	<path style="fill:#33363A;" d="M70.243,407.823c-1.463,0-2.926-0.366-4.023-1.463c-2.194-2.194-2.194-5.486,0-7.68l4.754-4.754   c2.194-2.194,5.486-2.194,7.68,0s2.194,5.486,0,7.68L73.9,406.36C72.803,407.457,71.706,407.823,70.243,407.823z"/>
	<path style="fill:#33363A;" d="M59.637,418.429c-1.463,0-2.926-0.366-4.023-1.463c-2.194-2.194-2.194-5.486,0-7.68l0.366-0.366   c2.194-2.194,5.486-2.194,7.68,0c2.194,2.194,2.194,5.486,0,7.68C62.563,417.697,61.1,418.429,59.637,418.429z"/>
	<path style="fill:#33363A;" d="M120.346,439.64c-2.926,0-5.486-2.56-5.486-5.486v-6.949c0-2.926,2.56-5.486,5.486-5.486   s5.486,2.56,5.486,5.486v6.949C125.831,437.08,123.271,439.64,120.346,439.64z"/>
	<path style="fill:#33363A;" d="M120.346,454.269c-2.926,0-5.486-2.194-5.486-5.12v-0.366c0-2.926,2.56-5.486,5.486-5.486   s5.486,2.56,5.486,5.486C125.831,451.709,123.271,454.269,120.346,454.269L120.346,454.269z"/>
	<path style="fill:#33363A;" d="M45.374,358.086h-6.949c-2.926,0-5.486-2.56-5.486-5.486s2.56-5.486,5.486-5.486h6.949   c2.926,0,5.486,2.56,5.486,5.486S48.3,358.086,45.374,358.086z"/>
	<path style="fill:#33363A;" d="M23.797,358.086c-2.926,0-5.486-2.56-5.486-5.486s2.194-5.486,5.486-5.486h0.366   c2.926,0,5.486,2.56,5.486,5.486S27.089,358.086,23.797,358.086z"/>
	<path style="fill:#33363A;" d="M397.191,407.092c-1.463,0-2.926-0.366-4.023-1.463l-4.754-4.754c-2.194-2.194-2.194-5.486,0-7.68   s5.486-2.194,7.68,0l4.754,4.754c2.194,2.194,2.194,5.486,0,7.68C400.117,406.726,398.654,407.092,397.191,407.092z"/>
	<path style="fill:#33363A;" d="M407.431,417.697c-1.463,0-2.926-0.366-3.657-1.463l-0.366-0.366c-2.194-2.194-1.829-5.486,0-7.68   c2.194-2.194,5.486-2.194,7.68,0s2.194,5.851,0,8.046C410.357,417.332,408.894,417.697,407.431,417.697z"/>
	<path style="fill:#33363A;" d="M429.009,357.354h-6.949c-2.926,0-5.486-2.56-5.486-5.486s2.56-5.486,5.486-5.486h6.949   c2.926,0,5.486,2.56,5.486,5.486C434.494,354.794,431.934,357.354,429.009,357.354z"/>
	<path style="fill:#33363A;" d="M444.003,357.354L444.003,357.354c-3.291,0-5.851-2.56-5.851-5.486s2.56-5.486,5.486-5.486   s5.486,2.56,5.486,5.486C449.123,354.794,446.929,357.354,444.003,357.354z"/>
	<path style="fill:#33363A;" d="M347.089,438.909c-2.926,0-5.486-2.56-5.486-5.486v-6.949c0-2.926,2.56-5.486,5.486-5.486   s5.486,2.56,5.486,5.486v6.949C352.574,436.714,350.38,438.909,347.089,438.909z"/>
	<path style="fill:#33363A;" d="M347.089,453.903c-2.926,0-5.486-2.194-5.486-5.486v-0.366c0-2.926,2.56-5.486,5.486-5.486   s5.486,2.56,5.486,5.486C352.574,450.977,350.38,453.903,347.089,453.903z"/>
	<path style="fill:#33363A;" d="M194.951,208.143H183.98c-2.926,0-5.486-2.56-5.486-5.486s2.56-5.486,5.486-5.486h10.971   c2.926,0,5.486,2.56,5.486,5.486C200.437,205.583,197.877,208.143,194.951,208.143z"/>
	<path style="fill:#33363A;" d="M239.203,208.143h-10.971c-2.926,0-5.486-2.56-5.486-5.486s2.56-5.486,5.486-5.486h10.971   c2.926,0,5.486,2.56,5.486,5.486C244.689,205.583,242.129,208.143,239.203,208.143z"/>
	<path style="fill:#33363A;" d="M283.454,208.143h-10.971c-2.926,0-5.486-2.56-5.486-5.486s2.56-5.486,5.486-5.486h10.971   c2.926,0,5.486,2.56,5.486,5.486C288.94,205.583,286.746,208.143,283.454,208.143z"/>
	<path style="fill:#33363A;" d="M278.334,374.177h-88.869c-2.926,0-5.486-2.56-5.486-5.486s2.56-5.486,5.486-5.486h88.869   c2.926,0,5.486,2.56,5.486,5.486C283.82,371.617,281.26,374.177,278.334,374.177z"/>
</g>
<g>
</g>
<g>
</g>
<g>
</g>
<g>
</g>
<g>
</g>
<g>
</g>
<g>
</g>
<g>
</g>
<g>
</g>
<g>
</g>
<g>
</g>
<g>
</g>
<g>
</g>
<g>
</g>
<g>
</g>
</svg>
