<?xml version="1.0" encoding="iso-8859-1"?>
<!-- Generator: Adobe Illustrator 19.0.0, SVG Export Plug-In . SVG Version: 6.00 Build 0)  -->
<svg xmlns="http://www.w3.org/2000/svg" xmlns:xlink="http://www.w3.org/1999/xlink" version="1.1" id="Capa_1" x="0px" y="0px" viewBox="0 0 462.264 462.264" style="enable-background:new 0 0 462.264 462.264;" xml:space="preserve">
<path style="fill:#33363A;" d="M279.708,78.629c14.629-19.017,25.966-45.714,21.943-73.143  c-24.137,1.829-52.297,17.189-68.754,36.937c-14.994,18.286-27.429,45.349-22.309,71.314  C236.92,114.834,263.982,99.109,279.708,78.629z"/>
<path style="fill:#4C5054;" d="M396.737,156.892c-23.04-28.891-55.589-45.714-86.309-45.714c-40.594,0-57.417,19.383-85.577,19.383  c-28.891,0-51.2-19.383-85.943-19.383c-34.377,0-70.949,20.846-94.354,57.051C12.005,218.697,17.491,313.783,70.52,394.972  c19.017,28.891,44.251,61.44,77.166,61.806c29.257,0.366,37.669-19.017,77.531-19.017c39.863-0.366,47.543,19.383,76.8,19.017  c32.914-0.366,59.611-36.206,78.629-65.463c13.531-20.846,18.651-31.086,29.257-54.857  C333.102,307.566,321.034,198.583,396.737,156.892z"/>
<g>
	<path style="fill:#33363A;" d="M350.291,212.846c-57.783,46.811-139.703,76.069-230.4,76.069c-32.549,0-64-3.657-93.257-10.606   c5.12,38.034,19.383,78.994,43.886,116.663c19.017,28.891,44.251,61.44,77.166,61.806c29.257,0.366,37.669-19.017,77.531-19.017   c39.863-0.366,47.543,19.383,76.8,19.017c32.914-0.366,59.611-36.206,78.629-65.463c13.531-20.846,18.651-31.086,29.257-54.857   C357.605,316.709,335.297,260.023,350.291,212.846z"/>
	<path style="fill:#33363A;" d="M212.417,119.589c-0.731,0-1.463,0-2.194,0c-2.56,0-4.754-1.829-5.12-4.389   c-4.389-24.137,4.389-52.663,23.771-76.069C246.428,17.92,276.051,1.829,301.285,0c2.926,0,5.486,1.829,5.851,4.754   c3.657,25.6-4.754,53.76-23.04,77.531C266.542,104.594,238.017,119.589,212.417,119.589z M296.897,11.703   c-21.211,3.291-44.983,16.823-59.611,34.377c-16.091,19.383-24.137,42.423-21.943,62.537c21.577-1.097,45.349-13.897,59.977-33.28   l0,0C282.634,65.829,299.091,41.326,296.897,11.703z"/>
	<path style="fill:#33363A;" d="M148.417,462.263c-0.366,0-0.366,0-0.731,0c-35.109-0.366-61.074-32.549-81.92-64.366   c-1.463-2.56-3.291-5.12-4.754-7.68c-0.366-0.731-0.731-1.097-1.097-1.829l-0.731-1.463c-0.731-1.463-1.829-2.926-2.56-4.389   c-0.731-1.463-1.463-2.56-2.194-4.023l-0.366-0.731c-0.366-0.731-1.097-1.829-1.463-2.56c-0.731-1.463-1.463-2.56-2.194-4.023   l-1.829-3.657c-1.097-1.829-1.829-4.023-2.926-5.851l-0.731-1.463c-1.097-2.194-2.194-4.754-3.291-6.949   C11.274,283.794,10.542,209.92,39.8,164.937c23.771-36.571,61.44-59.611,98.743-59.611c19.383,0,34.377,5.486,49.006,10.606   c12.434,4.389,24.137,8.777,36.937,8.777c11.703,0,21.577-3.657,32.914-8.046c13.897-5.486,29.989-11.337,53.029-11.337   c32.914,0,66.56,17.92,90.697,47.909c1.097,1.097,1.463,2.926,1.097,4.389c-0.366,1.463-1.463,2.926-2.56,3.657   c-21.577,11.703-36.571,29.989-43.886,52.663v0.366c-0.731,2.56-1.463,5.486-2.194,8.046c-1.097,5.851-1.829,11.703-2.194,17.554   l-5.486,0.366h5.486c0,2.56,0,5.486,0,8.046v0.366c0.366,5.486,1.097,11.337,2.56,16.823l0.366,0.731   c0.731,2.56,1.463,5.12,2.194,7.314l0.366,0.731c1.097,2.926,2.194,5.486,3.291,8.046l-4.754,2.56l5.12-2.194   c1.097,2.194,2.194,4.389,3.291,6.583l1.097,1.829c1.097,1.829,2.194,4.023,3.657,5.851l0.731,1.097   c1.463,2.194,3.291,4.389,4.754,6.217l1.097,1.463c1.463,1.463,2.926,3.291,4.389,4.754c0.731,0.731,1.097,1.097,1.829,1.463   c1.829,1.829,3.657,3.291,5.486,4.754l0.731,0.731c2.194,1.463,4.389,3.291,6.583,4.754c0.366,0.366,0.731,0.366,1.097,0.731   l0.731,0.366c1.829,1.097,3.657,2.194,5.486,3.291l0.731,0.366c0.366,0.366,1.097,0.731,1.829,0.731l0,0   c2.926,1.463,5.486,2.56,8.046,3.657c1.463,0.366,2.56,1.463,2.926,2.926c0.731,1.463,0.731,2.926,0,4.389   c-10.606,23.771-15.726,34.377-29.623,55.589c-21.943,33.28-48.64,67.657-83.383,68.023c-14.629,0-24.869-4.389-34.377-8.777   c-10.971-5.12-22.309-10.24-42.423-10.24s-31.451,5.12-42.789,10.24C172.188,457.874,162.68,462.263,148.417,462.263z    M51.868,348.892C51.868,349.257,51.868,349.257,51.868,348.892c1.097,2.56,2.194,4.754,3.291,6.949l0.731,1.463   c0.731,1.829,1.829,4.023,2.926,5.851l1.829,3.291c0.731,1.097,1.097,2.56,1.829,3.657l1.829,3.657   c0.731,1.097,1.463,2.56,2.194,3.657c0.731,1.463,1.463,2.926,2.56,4.023l1.829,2.926c1.463,2.56,2.926,4.754,4.754,7.314   c17.92,27.429,42.423,59.246,72.777,59.246c12.434,0.366,20.846-3.657,30.354-8.046c11.703-5.12,24.503-10.971,47.177-11.337   c22.674,0,35.474,5.851,46.811,10.971c9.509,4.389,17.554,8.046,29.623,8.046c29.257-0.366,53.76-31.817,74.24-62.903   c12.434-19.017,17.554-28.891,26.331-49.006c-1.097-0.366-2.194-1.097-3.657-1.829l0,0c-0.731-0.366-1.463-0.731-1.829-1.097   l-0.366-0.366c-2.194-1.097-4.389-2.194-6.217-3.657l-0.731-0.366c-0.366-0.366-1.097-0.731-1.463-0.731   c-2.926-1.829-5.12-3.657-7.68-5.486c-0.366,0-0.366-0.366-0.731-0.731c-2.194-1.829-4.389-3.657-6.217-5.486   c-0.731-0.731-1.463-1.097-1.829-1.829c-1.829-1.829-3.291-3.291-4.754-5.12l-1.097-1.463c-1.829-2.194-4.023-4.754-5.486-7.314   l-0.731-1.097c-1.463-2.194-2.926-4.389-4.023-6.583l-1.097-1.829c-1.463-2.56-2.56-5.12-3.657-7.314l-0.366-0.731   c-1.097-2.56-2.194-5.486-3.291-8.411l-0.366-1.097c-1.097-2.56-1.829-5.486-2.194-8.046l-0.366-1.097   c-1.463-6.217-2.56-12.434-2.926-18.286v-0.731c-0.366-2.926-0.366-6.217-0.366-9.143v-0.366c0-6.217,0.731-12.8,2.194-19.017   l5.486,0.731l-5.486-1.097c0.731-3.291,1.463-6.217,2.194-9.143c0,0,0,0,0-0.366c7.314-23.406,22.309-42.423,43.154-55.589   c-21.577-24.503-50.103-38.766-77.897-38.766c-21.211,0-35.109,5.486-49.006,10.606c-11.703,4.389-23.04,8.777-36.571,8.777   c-14.629,0-27.429-4.389-40.594-9.143c-13.897-4.754-27.794-9.874-45.349-9.874c-33.646,0-68.023,20.846-89.6,54.491   C22.611,212.48,23.708,283.794,51.868,348.892z"/>
	<path style="fill:#33363A;" d="M419.411,247.223c-2.926,0-5.486-2.56-5.486-5.486s2.56-5.486,5.486-5.486h6.217l0,0   c2.926,0,5.486,2.56,5.486,5.486s-2.56,5.486-5.486,5.486L419.411,247.223L419.411,247.223z"/>
	<path style="fill:#33363A;" d="M438.794,247.223C438.428,247.223,438.428,247.223,438.794,247.223L438.794,247.223   c-3.291,0-5.851-2.56-5.851-5.486s2.56-5.486,5.486-5.486l0,0c2.926,0,5.486,2.56,5.486,5.486   C443.914,245.029,441.72,247.223,438.794,247.223z"/>
	<path style="fill:#33363A;" d="M409.537,200.411c-1.463,0-2.926-0.366-4.023-1.463c-2.194-2.194-2.194-5.486,0-7.68l4.389-4.389   c2.194-2.194,5.486-2.194,7.68,0s2.194,5.486,0,7.68l-4.389,4.389C412.462,200.046,411,200.411,409.537,200.411z"/>
	<path style="fill:#33363A;" d="M423.068,186.88c-1.463,0-2.926-0.366-3.657-1.463c-2.194-2.194-2.194-5.486,0-7.68   c2.194-2.194,5.851-2.194,7.68-0.366c2.194,2.194,2.194,5.486,0.366,7.68l-0.366,0.366   C425.994,186.514,424.531,186.88,423.068,186.88z"/>
	<path style="fill:#33363A;" d="M413.925,298.423c-1.463,0-2.926-0.366-4.023-1.463l-4.389-4.389c-2.194-2.194-2.194-5.486,0-7.68   s5.486-2.194,7.68,0l4.389,4.389c2.194,2.194,2.194,5.486,0,7.68C416.851,298.057,415.388,298.423,413.925,298.423z"/>
	<path style="fill:#33363A;" d="M423.068,307.931c-1.463,0-2.926-0.366-3.657-1.463l-0.366-0.366c-2.194-2.194-2.194-5.486,0-7.68   s5.486-2.194,7.68,0s2.194,5.851,0,7.68C425.994,307.2,424.531,307.931,423.068,307.931z"/>
</g>
<g>
</g>
<g>
</g>
<g>
</g>
<g>
</g>
<g>
</g>
<g>
</g>
<g>
</g>
<g>
</g>
<g>
</g>
<g>
</g>
<g>
</g>
<g>
</g>
<g>
</g>
<g>
</g>
<g>
</g>
</svg>
