<?xml version="1.0" encoding="UTF-8" standalone="no"?>
<svg
   xmlns:dc="http://purl.org/dc/elements/1.1/"
   xmlns:cc="http://creativecommons.org/ns#"
   xmlns:rdf="http://www.w3.org/1999/02/22-rdf-syntax-ns#"
   xmlns:svg="http://www.w3.org/2000/svg"
   xmlns="http://www.w3.org/2000/svg"
   viewBox="0 0 1974.48 310.14667"
   height="310.14667"
   width="1974.48"
   xml:space="preserve"
   id="svg2"
   version="1.1"><metadata
     id="metadata8"><rdf:RDF><cc:Work
         rdf:about=""><dc:format>image/svg+xml</dc:format><dc:type
           rdf:resource="http://purl.org/dc/dcmitype/StillImage" /></cc:Work></rdf:RDF></metadata><defs
     id="defs6" /><g
     transform="matrix(1.3333333,0,0,-1.3333333,0,310.14667)"
     id="g10"><g
       transform="scale(0.1)"
       id="g12"><path
         id="path14"
         style="fill:#201d1c;fill-opacity:1;fill-rule:nonzero;stroke:none"
         d="m 3748.32,1624.45 c -238.45,0 -360.28,-187.68 -360.28,-470.41 0,-267.259 131.74,-467.841 360.28,-467.841 258.45,0 355.34,236.512 355.34,467.841 -0.18,241.57 -121.95,470.41 -355.42,470.41 m -633.5,701.66 h 283.24 v -678.52 h 5.01 c 77.02,128.48 238.52,208.19 382.64,208.19 404.94,0 601.3,-318.83 601.3,-706.97 0,-357.169 -173.9,-693.892 -554.12,-693.892 -173.94,0 -360.29,43.602 -444.79,218.434 h -4.92 V 490.781 H 3114.72 V 2326.07 l 0.02,0.04" /><path
         id="path16"
         style="fill:#201d1c;fill-opacity:1;fill-rule:nonzero;stroke:none"
         d="m 5368.94,938.059 c 0,-185.039 -193.83,-251.938 -318.05,-251.938 -99.43,0 -260.98,38.688 -260.98,169.699 0,154.27 109.38,200.57 231.18,221.15 124.18,23.11 260.86,20.47 347.85,79.59 z m 1212.13,917.721 c -168.96,0 -315.58,-89.95 -400.08,-236.55 l -4.95,5.22 v 195.3 H 5907.69 V 687.98 c -161.55,-1.832 -176.6,-1.832 -188.92,-1.832 -52.16,0 -67.11,28.282 -67.11,100.262 v 683.8 c 0,280.09 -263.35,385.57 -514.39,385.57 -283.26,0 -563.98,-100.21 -583.79,-442.17 h 283.19 c 12.47,143.96 124.21,210.84 283.25,210.84 114.28,0 265.87,-28.36 265.87,-179.98 0,-172.21 -181.39,-149.05 -385.14,-187.68 -238.53,-28.18 -494.43,-82.31 -494.43,-413.731 0,-259.7 208.68,-388.141 439.73,-388.141 151.6,0 332.95,48.844 444.83,161.742 22.27,-120.719 104.36,-161.742 218.63,-161.742 47.2,0 136.63,17.934 579.75,33.352 v 2.621 h 1.76 v 783.859 c 0,195.42 121.78,349.66 310.58,349.66 166.47,0 246.05,-90.01 250.96,-298.17 V 490.852 h 283.37 v 912.458 c 0.55,298.13 -175.95,452.43 -454.3,452.43" /><path
         id="path18"
         style="fill:#201d1c;fill-opacity:1;fill-rule:nonzero;stroke:none"
         d="m 7860.88,686.148 c 253.41,0 360.31,239.09 360.31,470.482 0,292.91 -136.64,467.82 -355.35,467.82 -265.88,0 -360.32,-244.22 -360.32,-483.22 0,-228.789 109.29,-455.031 355.41,-455.031 M 8494.47,490.852 H 8226.08 V 670.77 h -4.91 c -74.52,-151.661 -236.13,-215.852 -397.6,-215.852 -404.94,0 -601.29,311.043 -601.29,709.382 0,480.66 275.84,691.44 556.65,691.44 161.43,0 340.29,-61.73 427.28,-208.15 h 5.05 v 678.46 h 283.22 V 490.809 l -0.01,0.043" /><path
         id="path20"
         style="fill:#201d1c;fill-opacity:1;fill-rule:nonzero;stroke:none"
         d="m 9620.12,1375.04 c -22.39,161.94 -136.66,249.39 -293.18,249.39 -146.68,0 -352.86,-79.73 -352.86,-483.29 0,-221.081 94.38,-455.019 340.42,-455.019 163.96,0 278.22,113.231 305.62,303.457 h 283.23 c -52.19,-344.437 -258.37,-534.66 -588.85,-534.66 -402.55,0 -623.67,295.523 -623.67,686.222 0,400.96 211.2,714.56 633.6,714.56 298.15,0 551.67,-154.21 578.92,-480.67 h -282.77 l -0.46,0.01" /><path
         id="path22"
         style="fill:#201d1c;fill-opacity:1;fill-rule:nonzero;stroke:none"
         d="m 10877.6,938.059 c 0,-185.039 -193.8,-251.938 -318.1,-251.938 -99.3,0 -260.8,38.688 -260.8,169.699 0,154.27 109.4,200.57 231,221.15 124.3,23.11 261,20.47 347.9,79.59 z m 1973,917.721 c -186.4,0 -308.1,-84.87 -402.5,-221.07 -57.2,151.58 -203.8,221.07 -360.4,221.07 -203.7,0 -310.6,-89.95 -395,-221.07 h -7.5 v 185.04 h -268.5 V 687.98 c -161.5,-1.832 -176.5,-1.832 -189,-1.832 -52.1,0 -67,28.282 -67,100.262 v 683.8 c 0,280.09 -263.3,385.57 -514.4,385.57 -283.2,0 -564,-100.21 -583.9,-442.17 h 283.3 c 12.4,143.96 124.3,210.84 283.3,210.84 114.3,0 265.8,-28.36 265.8,-179.98 0,-172.21 -181.4,-149.05 -385.1,-187.68 -238.6,-28.18 -494.5,-82.31 -494.5,-413.731 0,-259.7 208.7,-388.141 439.8,-388.141 151.6,0 332.9,48.844 444.8,161.742 22.3,-120.719 104.3,-161.742 218.7,-161.742 47.1,0 136.6,17.934 575.7,33.352 v 2.621 h 5.8 v 789.039 c 0,221.04 134.2,344.48 280.8,344.48 171.4,0 226.1,-97.62 226.1,-280.26 V 490.852 h 283.2 v 778.798 c 0,223.67 82,354.74 273.4,354.74 221.1,0 233.5,-146.5 233.5,-357.36 V 490.859 h 283.3 v 917.571 c 0.1,323.94 -158.8,447.31 -429.5,447.31" /><path
         id="path24"
         style="fill:#201d1c;fill-opacity:1;fill-rule:nonzero;stroke:none"
         d="m 14170,1624.45 c -238.5,0 -360.3,-187.68 -360.3,-470.41 0,-267.259 131.7,-467.841 360.3,-467.841 258.4,0 355.4,236.512 355.4,467.841 0,241.57 -122,470.41 -355.4,470.41 m -633.6,195.3 h 268.4 v -179.92 h 5 c 79.5,151.6 233.5,215.95 397.5,215.95 405,0 601.3,-318.83 601.3,-706.97 0,-357.169 -173.9,-693.892 -554,-693.892 -164,0 -340.5,61.66 -429.9,208.07 h -5 V 0 h -283.3 v 1819.64 0.11" /><path
         id="path26"
         style="fill:#6399a8;fill-opacity:1;fill-rule:nonzero;stroke:none"
         d="M 2124.47,494.77 H 0 L 992.094,2326.11 H 3116.58 L 2124.47,494.77" /></g></g></svg>