<?xml version="1.0" encoding="iso-8859-1"?>
<!-- Generator: Adobe Illustrator 19.0.0, SVG Export Plug-In . SVG Version: 6.00 Build 0)  -->
<svg xmlns="http://www.w3.org/2000/svg" xmlns:xlink="http://www.w3.org/1999/xlink" version="1.1" id="Capa_1" x="0px" y="0px" viewBox="0 0 469.67 469.67" style="enable-background:new 0 0 469.67 469.67;" xml:space="preserve">
<path style="fill:#1A70F9;" d="M194.56,172.298c9.509-4.754,16.823-10.24,21.577-16.091c8.777-10.24,13.166-24.137,13.166-41.326  c0-16.457-4.389-30.72-13.166-42.789c-14.263-19.383-38.766-29.257-73.509-29.989H5.486v280.503h128  c14.263,0,27.794-1.097,40.229-3.657c12.434-2.56,23.04-7.314,32.183-13.897c8.046-5.851,14.629-13.166,20.114-21.943  c8.411-13.166,12.8-28.16,12.8-44.617c0-16.091-3.657-29.623-10.971-40.96C219.794,185.829,208.823,177.784,194.56,172.298z   M62.171,91.475h61.806c13.531,0,24.869,1.463,33.646,4.389c10.24,4.023,15.36,12.8,15.36,25.966  c0,11.703-4.023,19.749-11.703,24.503c-7.68,4.754-17.92,6.949-29.989,6.949h-69.12C62.171,153.282,62.171,91.475,62.171,91.475z   M159.817,269.212c-6.949,3.291-16.457,4.754-28.891,4.754H62.171V199.36h69.851c12.069,0,21.577,1.829,28.526,4.754  c12.069,5.486,17.92,15.36,17.92,29.989C178.469,251.292,172.251,262.995,159.817,269.212z"/>
<rect x="298.79" y="56" style="fill:#47BBF4;" width="121.42" height="34.743"/>
<g>
	<rect x="298.79" y="76.48" style="fill:#1A70F9;" width="121.42" height="14.263"/>
	<path style="fill:#1A70F9;" d="M446.171,150.355c-9.509-13.897-21.577-24.137-36.206-30.72s-31.086-9.874-49.371-9.874   c-30.72,0-55.589,9.509-74.971,28.526c-19.383,19.017-28.891,46.811-28.891,82.651c0,38.4,10.606,65.829,32.183,83.017   c21.211,16.823,46.08,25.6,73.874,25.6c33.646,0,59.977-10.24,78.994-30.354c12.069-12.8,19.017-25.234,20.48-37.303h-55.954   c-3.291,6.217-6.949,10.971-11.337,14.263c-7.68,6.217-17.92,9.509-30.354,9.509c-11.703,0-21.943-2.56-30.354-7.68   c-13.897-8.411-20.846-23.04-21.943-43.52H465.19c0.366-17.92-0.366-31.451-1.829-40.96   C460.434,177.052,454.583,162.789,446.171,150.355z M313.051,198.629c1.829-13.531,6.949-24.137,14.629-32.183   s18.651-11.703,32.914-11.703c12.8,0,23.771,3.657,32.549,10.971c8.777,7.314,13.531,18.286,14.629,32.914   C407.771,198.629,313.051,198.629,313.051,198.629z"/>
</g>
<g>
	<path style="fill:#33363A;" d="M133.486,328.092h-128c-2.926,0-5.486-2.56-5.486-5.486V42.835c0-2.926,2.56-5.486,5.486-5.486   h137.143c36.206,0.366,62.537,11.337,77.897,32.183c9.509,12.8,14.263,28.16,14.263,46.08c0,18.286-4.754,33.28-14.263,44.617   c-3.657,4.023-8.046,8.046-13.531,11.703c10.606,5.486,19.017,13.166,25.234,22.309c8.046,12.069,12.069,27.063,12.069,43.886   c0,17.554-4.389,33.646-13.531,47.543c-5.486,9.143-12.8,17.189-21.577,23.406c-9.509,7.314-21.211,12.434-34.377,14.994   C162.377,326.995,148.48,328.092,133.486,328.092z M10.971,317.121h122.514c14.263,0,27.429-1.097,39.131-3.657   c11.337-2.56,21.577-6.949,29.989-13.166c7.314-5.486,13.897-12.434,18.651-20.48c8.046-12.434,11.703-26.331,11.703-41.691   c0-14.994-3.291-27.794-10.24-38.034c-6.949-10.24-16.457-17.554-29.989-22.674c-2.194-0.731-3.657-2.56-3.657-4.754   s1.097-4.389,2.926-5.12c8.777-4.389,15.36-9.509,19.749-14.629c7.68-9.143,11.703-21.943,11.703-37.669   c0-15.36-4.023-28.526-12.069-39.497c-13.166-17.92-36.571-27.063-69.12-27.429H10.606v268.8L10.971,317.121L10.971,317.121z    M130.926,279.452H62.171c-2.926,0-5.486-2.56-5.486-5.486V199.36c0-2.926,2.56-5.486,5.486-5.486h69.851   c12.8,0,23.04,1.829,30.72,5.12c14.263,6.217,21.211,18.286,21.211,35.109c0,19.383-7.314,32.914-21.577,39.863l0,0   C154.697,277.624,144.091,279.452,130.926,279.452z M67.657,268.481h63.269c11.337,0,20.114-1.463,26.331-4.389   c10.606-5.12,15.726-14.994,15.726-29.989c0-12.434-4.754-20.48-14.994-24.869c-6.217-2.56-14.994-4.023-26.331-4.389H67.291   v63.634h0.366V268.481z M131.291,158.767h-69.12c-2.926,0-5.486-2.56-5.486-5.486V91.475c0-2.926,2.56-5.486,5.486-5.486h61.806   c14.263,0,25.966,1.463,35.109,4.754h0.366c8.411,3.657,18.651,11.703,18.651,31.086c0,13.897-4.754,23.406-14.263,29.257   C155.429,155.841,144.457,158.767,131.291,158.767z M67.657,147.795h63.634c11.337,0,20.48-2.194,27.063-6.217   c5.851-3.657,8.777-10.24,8.777-19.749c0-10.606-3.657-17.189-11.703-20.846c-8.046-2.56-18.651-4.023-31.451-4.023h-56.32   L67.657,147.795L67.657,147.795z"/>
	<path style="fill:#33363A;" d="M420.571,96.229H299.154c-2.926,0-5.486-2.56-5.486-5.486V56.001c0-2.926,2.56-5.486,5.486-5.486   h121.417c2.926,0,5.486,2.56,5.486,5.486v34.743C426.057,93.669,423.497,96.229,420.571,96.229z M304.64,85.258h110.446V61.487   H304.64V85.258z"/>
	<path style="fill:#33363A;" d="M362.423,335.041c-29.257,0-55.223-9.143-77.166-26.697c-22.674-17.92-34.011-47.177-34.011-87.04   c0-37.303,10.24-66.194,30.354-86.309c1.463-1.463,2.926-2.926,4.754-4.389c19.749-17.189,44.617-25.966,73.874-25.966   c19.017,0,36.206,3.291,51.566,10.24s28.526,17.92,38.4,32.549c9.143,12.8,14.994,28.16,17.554,44.983   c1.463,9.509,2.194,23.406,1.829,42.057c0,2.926-2.56,5.486-5.486,5.486H317.074c1.829,16.091,8.046,27.063,19.017,33.646   c7.68,4.754,16.823,6.949,27.429,6.949c10.971,0,20.114-2.926,27.063-8.411c3.657-2.926,6.949-7.314,9.874-12.434   c1.097-1.829,2.926-2.926,4.754-2.926h55.954c1.463,0,2.926,0.731,4.023,1.829s1.463,2.56,1.463,4.389   c-1.463,13.531-8.777,27.063-21.943,40.594C425.691,324.435,397.897,335.041,362.423,335.041z M360.594,115.612   c-26.697,0-49.371,7.68-66.926,23.406c-1.829,1.463-2.926,2.56-4.389,3.657c-17.92,17.92-27.063,44.617-27.063,78.629   c0,36.206,10.24,62.903,29.989,78.629c20.114,16.091,43.886,24.137,70.583,24.137c32.183,0,57.417-9.509,74.971-28.526   c9.143-9.509,14.994-19.017,17.554-28.16h-46.08c-3.291,5.486-6.949,9.874-10.971,13.166c-8.777,6.949-20.114,10.606-34.011,10.606   c-12.8,0-23.771-2.926-33.28-8.777c-15.36-9.143-23.406-25.234-24.503-47.909c0-1.463,0.366-2.926,1.463-4.023   c1.097-1.097,2.56-1.829,4.023-1.829h147.383c0-14.994-0.731-26.697-1.829-34.743l0,0c-2.56-15.36-7.68-28.891-15.726-40.594   c-8.777-13.166-20.48-22.674-34.011-28.891C393.874,118.904,377.783,115.612,360.594,115.612z M407.771,204.115h-94.72   c-1.463,0-3.291-0.731-4.023-1.829c-1.097-1.097-1.463-2.926-1.097-4.389c2.194-14.629,7.68-26.331,16.091-35.109   c8.777-8.777,21.211-13.531,36.571-13.531c14.263,0,26.331,4.023,36.206,12.434c9.874,8.411,15.36,20.846,16.457,36.571   c0,1.463-0.366,2.926-1.463,4.023C410.697,203.384,409.234,204.115,407.771,204.115z M319.634,193.144h81.92   c-1.463-9.874-5.486-17.554-12.069-23.04c-7.68-6.583-17.189-9.874-28.891-9.874c-12.434,0-22.309,3.291-28.891,10.24   C325.851,176.321,322.194,184.001,319.634,193.144z"/>
	<path style="fill:#33363A;" d="M32.914,362.469H9.143c-2.926,0-5.486-2.56-5.486-5.486s2.56-5.486,5.486-5.486h23.771   c2.926,0,5.486,2.56,5.486,5.486S36.206,362.469,32.914,362.469z"/>
	<path style="fill:#33363A;" d="M286.72,362.469H79.726c-2.926,0-5.486-2.56-5.486-5.486s2.56-5.486,5.486-5.486H286.72   c2.926,0,5.486,2.56,5.486,5.486S290.011,362.469,286.72,362.469z"/>
	<path style="fill:#33363A;" d="M58.88,362.469h-4.389c-2.926,0-5.486-2.56-5.486-5.486s2.56-5.486,5.486-5.486h4.389   c2.926,0,5.486,2.56,5.486,5.486S62.171,362.469,58.88,362.469z"/>
	<path style="fill:#33363A;" d="M461.166,362.469h-23.771c-2.926,0-5.486-2.56-5.486-5.486s2.56-5.486,5.486-5.486h23.771   c2.926,0,5.486,2.56,5.486,5.486C466.651,359.909,464.091,362.469,461.166,362.469z"/>
	<path style="fill:#33363A;" d="M390.217,362.469H183.223c-2.926,0-5.486-2.56-5.486-5.486s2.56-5.486,5.486-5.486h206.994   c2.926,0,5.486,2.56,5.486,5.486C395.703,359.909,393.509,362.469,390.217,362.469z"/>
	<path style="fill:#33363A;" d="M415.817,362.469h-4.389c-2.926,0-5.486-2.56-5.486-5.486s2.56-5.486,5.486-5.486h4.389   c2.926,0,5.486,2.56,5.486,5.486C421.303,359.909,418.743,362.469,415.817,362.469z"/>
	<path style="fill:#33363A;" d="M120.32,396.847H96.549c-2.926,0-5.486-2.56-5.486-5.486s2.56-5.486,5.486-5.486h23.771   c2.926,0,5.486,2.56,5.486,5.486S123.246,396.847,120.32,396.847z"/>
	<path style="fill:#33363A;" d="M374.126,396.847H167.131c-2.926,0-5.486-2.56-5.486-5.486s2.56-5.486,5.486-5.486h206.994   c2.926,0,5.486,2.56,5.486,5.486S377.051,396.847,374.126,396.847z"/>
	<path style="fill:#33363A;" d="M145.92,396.847h-4.389c-2.926,0-5.486-2.56-5.486-5.486s2.56-5.486,5.486-5.486h4.389   c2.926,0,5.486,2.56,5.486,5.486S149.211,396.847,145.92,396.847z"/>
	<path style="fill:#33363A;" d="M305.006,432.321h-23.771c-2.926,0-5.486-2.56-5.486-5.486s2.56-5.486,5.486-5.486h23.771   c2.926,0,5.486,2.56,5.486,5.486S307.931,432.321,305.006,432.321z"/>
	<path style="fill:#33363A;" d="M234.057,432.321h-68.754c-2.926,0-5.486-2.56-5.486-5.486s2.56-5.486,5.486-5.486h68.754   c2.926,0,5.486,2.56,5.486,5.486S237.349,432.321,234.057,432.321z"/>
	<path style="fill:#33363A;" d="M259.657,432.321h-4.389c-2.926,0-5.486-2.56-5.486-5.486s2.56-5.486,5.486-5.486h4.389   c2.926,0,5.486,2.56,5.486,5.486S262.583,432.321,259.657,432.321z"/>
	<path style="fill:#33363A;" d="M113.006,158.767h-69.12c-2.926,0-5.486-2.56-5.486-5.486s2.56-5.486,5.486-5.486h69.12   c2.926,0,5.486,2.56,5.486,5.486S115.931,158.767,113.006,158.767z"/>
	<path style="fill:#33363A;" d="M112.64,279.452H43.886c-2.926,0-5.486-2.56-5.486-5.486s2.56-5.486,5.486-5.486h68.754   c2.926,0,5.486,2.56,5.486,5.486S115.931,279.452,112.64,279.452z"/>
	<path style="fill:#33363A;" d="M446.537,239.955H293.669c-2.926,0-5.486-2.56-5.486-5.486s2.56-5.486,5.486-5.486h152.869   c2.926,0,5.486,2.56,5.486,5.486S449.463,239.955,446.537,239.955z"/>
</g>
<g>
</g>
<g>
</g>
<g>
</g>
<g>
</g>
<g>
</g>
<g>
</g>
<g>
</g>
<g>
</g>
<g>
</g>
<g>
</g>
<g>
</g>
<g>
</g>
<g>
</g>
<g>
</g>
<g>
</g>
</svg>
