<svg id="Behance" style="enable-background:new 0 0 64 64;" version="1.1" viewBox="0 0 64 64" x="0px" xml:space="preserve" xmlns="http://www.w3.org/2000/svg" xmlns:xlink="http://www.w3.org/1999/xlink" y="0px">
<style type="text/css">
	.st0{fill:url(#SVGID_1_);}
	.st1{fill:#F1F2F2;}
</style>
<title>behance Logo</title>
<linearGradient gradientUnits="userSpaceOnUse" id="SVGID_1_" x1="2.4341" x2="64.7675" y1="61.0916" y2="-0.2418">
<stop offset="0.2887" style="stop-color:#3F56FF"></stop>
<stop offset="1" style="stop-color:#3FA1FF"></stop>
</linearGradient>
<rect class="st0" height="64" width="64"></rect>
<path class="st1" d="M28.3,30.7c0,0,3.6-0.3,3.6-4.5S29,20,25.3,20H13v23.6h12.3c0,0,7.5,0.2,7.5-7C32.7,36.6,33.1,30.7,28.3,30.7z
	 M18.4,24.2h6.9c0,0,1.7,0,1.7,2.5s-1,2.8-2.1,2.8h-6.4V24.2z M24.9,39.3h-6.5V33h6.9c0,0,2.5,0,2.5,3.2
	C27.7,39,25.9,39.3,24.9,39.3z"></path>
<rect class="st1" height="2.9" width="9.7" x="37.7" y="21.4"></rect>
<path class="st1" d="M42.7,26c-9.1,0-9.1,9.1-9.1,9.1s-0.6,9,9.1,9c0,0,8.1,0.5,8.1-6.3h-4.2c0,0,0.1,2.5-3.8,2.5
	c0,0-4.2,0.3-4.2-4.1h12.2C50.9,36.2,52.3,26,42.7,26z M38.7,33c0,0,0.5-3.6,4.1-3.6c3.6,0,3.6,3.6,3.6,3.6H38.7z"></path>
</svg>