<?xml version="1.0" encoding="iso-8859-1"?>
<!-- Generator: Adobe Illustrator 19.0.0, SVG Export Plug-In . SVG Version: 6.00 Build 0)  -->
<svg xmlns="http://www.w3.org/2000/svg" xmlns:xlink="http://www.w3.org/1999/xlink" version="1.1" id="Capa_1" x="0px" y="0px" viewBox="0 0 467.52 467.52" style="enable-background:new 0 0 467.52 467.52;" xml:space="preserve">
<path style="fill:#859392;" d="M104.366,72.297H44.389L27.2,151.657h62.537c49.006,0,62.903-23.406,62.903-44.983  C152.64,91.68,143.497,72.297,104.366,72.297z"/>
<path d="M221.394,316.229h-59.977l-17.189,79.36h62.537c49.006,0,62.903-23.406,62.903-44.983  C269.669,335.611,260.16,316.229,221.394,316.229z"/>
<path style="fill:#6A7C7C;" d="M82.789,191.886H22.811l-17.189,79.36H68.16c49.006,0,62.903-23.406,62.903-44.983  C131.063,211.269,121.554,191.886,82.789,191.886z"/>
<path d="M390.354,267.954h-59.977l-17.189,79.36h62.537c49.006,0,62.903-23.406,62.903-44.983  C438.994,286.971,429.486,267.954,390.354,267.954z"/>
<g>
	<path style="fill:#384948;" d="M413.76,143.246h-59.977l-17.189,79.36h62.537c49.006,0,62.903-23.406,62.903-44.983   C462.034,162.629,452.891,143.246,413.76,143.246z"/>
	<path style="fill:#384948;" d="M244.434,191.886h-59.977l-17.189,79.36h62.537c49.006,0,62.903-23.406,62.903-44.983   C292.709,211.269,283.566,191.886,244.434,191.886z"/>
</g>
<path style="fill:#6A7C7C;" d="M266.377,72.297H206.4l-17.189,79.36h62.537c49.006,0,62.903-23.406,62.903-44.983  C314.651,91.68,305.143,72.297,266.377,72.297z"/>
<g>
	<path style="fill:#33363A;" d="M89.737,157.143H27.2c-1.829,0-3.291-0.731-4.389-2.194c-1.097-1.463-1.463-2.926-1.097-4.754   l17.189-79.36c0.366-2.56,2.926-4.389,5.486-4.389h59.977c49.737,0,53.76,30.72,53.76,39.863   C158.126,122.034,151.543,157.143,89.737,157.143z M34.149,146.171h55.954c36.937,0,57.417-13.897,57.417-39.497   c0-18.651-15.36-28.891-42.789-28.891H49.143L34.149,146.171z"/>
	<path style="fill:#33363A;" d="M206.766,401.074L206.766,401.074h-62.537c-1.829,0-3.291-0.731-4.389-2.194   c-1.097-1.463-1.463-2.926-1.097-4.754l17.189-79.36c0.366-2.56,2.926-4.389,5.486-4.389h59.977c49.737,0,53.76,30.72,53.76,40.229   c0,13.897-5.12,25.966-14.994,34.743C248.457,395.954,230.537,401.074,206.766,401.074z M150.811,390.103h55.954l0,0   c20.846,0,36.571-4.389,46.08-12.8c9.143-8.411,11.337-19.017,11.337-26.331c0-18.651-15.36-29.257-42.789-29.257h-55.589   L150.811,390.103z"/>
	<path style="fill:#33363A;" d="M68.16,276.731H5.623c-1.829,0-3.291-0.731-4.389-2.194s-1.463-2.926-1.097-4.754l17.189-79.36   c0.366-2.56,2.926-4.389,5.486-4.389h59.977c49.737,0,53.76,30.72,53.76,40.229C136.549,241.623,129.966,276.731,68.16,276.731z    M12.206,265.76H68.16c36.937,0,57.417-13.897,57.417-39.497c0-10.971-5.486-29.257-42.789-29.257H27.2L12.206,265.76z"/>
	<path style="fill:#33363A;" d="M376.091,352.8h-62.537c-1.829,0-3.291-0.731-4.389-2.194c-1.097-1.463-1.463-2.926-1.097-4.754   l17.189-79.36c0.366-2.56,2.926-4.389,5.486-4.389h59.977c49.737,0,53.76,30.72,53.76,39.863   C444.48,317.326,437.531,352.8,376.091,352.8z M320.137,341.829h55.954c36.937,0,57.417-13.897,57.417-39.497   c0-18.651-15.36-28.891-42.789-28.891H335.13L320.137,341.829z"/>
	<path style="fill:#33363A;" d="M399.131,228.091h-62.537c-1.829,0-3.291-0.731-4.389-2.194c-1.097-1.463-1.463-2.926-1.097-4.754   l17.189-79.36c0.366-2.56,2.926-4.389,5.486-4.389h59.977c49.737,0,53.76,30.72,53.76,40.229   C467.52,192.983,460.937,228.091,399.131,228.091z M343.543,217.12h55.954c36.937,0,57.417-13.897,57.417-39.497   c0-18.651-15.36-29.257-42.789-29.257h-55.954L343.543,217.12z"/>
	<path style="fill:#33363A;" d="M230.171,276.731h-62.537c-1.829,0-3.291-0.731-4.389-2.194s-1.463-2.926-1.097-4.754l17.189-79.36   c0.366-2.56,2.926-4.389,5.486-4.389H244.8c49.737,0,53.76,30.72,53.76,40.229C298.194,241.623,291.611,276.731,230.171,276.731z    M174.217,265.76h55.954c36.937,0,57.417-13.897,57.417-39.497c0-10.971-5.486-29.257-42.789-29.257H189.21L174.217,265.76z"/>
	<path style="fill:#33363A;" d="M251.749,157.143L251.749,157.143h-62.537c-1.829,0-3.291-0.731-4.389-2.194   s-1.463-2.926-1.097-4.754l17.189-79.36c0.366-2.56,2.926-4.389,5.486-4.389h59.977c49.737,0,53.76,30.72,53.76,39.863   c0,13.897-5.12,25.966-14.994,34.743C293.44,152.023,275.52,157.143,251.749,157.143z M195.794,146.171h55.954l0,0   c20.846,0,36.571-4.389,46.08-12.8c9.143-8.411,11.337-19.017,11.337-26.331c0-18.651-15.36-28.891-42.789-28.891h-55.589   L195.794,146.171z"/>
</g>
<g>
</g>
<g>
</g>
<g>
</g>
<g>
</g>
<g>
</g>
<g>
</g>
<g>
</g>
<g>
</g>
<g>
</g>
<g>
</g>
<g>
</g>
<g>
</g>
<g>
</g>
<g>
</g>
<g>
</g>
</svg>
