<?xml version="1.0" encoding="iso-8859-1"?>
<!-- Generator: Adobe Illustrator 19.0.0, SVG Export Plug-In . SVG Version: 6.00 Build 0)  -->
<svg xmlns="http://www.w3.org/2000/svg" xmlns:xlink="http://www.w3.org/1999/xlink" version="1.1" id="Capa_1" x="0px" y="0px" viewBox="0 0 459.703 459.703" style="enable-background:new 0 0 459.703 459.703;" xml:space="preserve">
<path style="fill:#FB6620;" d="M442.88,179.2c-9.509-4.023-50.103,0.366-61.44-9.874c-8.046-7.314-8.411-20.48-11.703-38.4  c-5.12-29.623-7.314-36.571-12.8-48.274C337.189,40.96,290.011,5.486,247.223,5.486h-99.474c-78.263,0-142.263,64-142.263,141.897  v165.303c0,77.897,64,141.531,142.263,141.531h163.474c78.263,0,141.897-63.634,142.263-141.531l0.731-114.469  C454.217,198.217,454.217,184.32,442.88,179.2z M149.577,121.783h78.994c14.994,0,27.063,12.069,27.063,27.063  s-12.069,27.063-27.063,27.063h-78.994c-14.994,0-27.063-12.434-27.063-27.063C122.514,133.852,134.583,121.783,149.577,121.783z   M309.76,337.554H149.577c-14.994,0-27.063-12.434-27.063-27.063c0-14.994,12.069-27.063,27.063-27.063H309.76  c14.994,0,27.063,12.069,27.063,27.063C336.823,325.486,324.754,337.554,309.76,337.554z"/>
<path style="fill:#EA4606;" d="M32.183,394.606c25.966,36.206,68.023,59.977,115.931,59.977h163.474  c47.543,0,89.966-23.771,115.566-59.977C427.154,394.606,32.183,394.606,32.183,394.606z"/>
<g>
	<path style="fill:#F9A121;" d="M149.577,193.097h78.994c14.994,0,27.429-25.234,27.429-39.863c0-2.926,0,0.366-1.829,4.023   c-3.657,10.606-13.897,18.286-25.6,18.286h-78.994c-12.069,0-21.943-7.68-25.6-18.286c-1.463-4.023-1.829-6.217-1.829-2.926   C122.514,169.326,134.583,193.097,149.577,193.097z"/>
	<path style="fill:#F9A121;" d="M147.749,23.406h99.474c42.789,0,89.966,35.84,109.714,77.166c5.486,11.703,7.68,18.286,12.8,48.274   c3.291,17.554,3.657,31.086,11.703,38.4c11.337,10.24,51.931,5.851,61.44,9.874c9.143,4.023,10.971,13.531,11.337,17.189v-15.726   c0,0,0-14.263-11.337-19.017c-9.509-4.023-50.103,0.366-61.44-9.874c-8.046-7.314-8.411-20.48-11.703-38.4   c-5.12-29.623-7.314-36.571-12.8-48.274C337.189,41.326,290.011,5.852,247.223,5.852h-99.474c-78.263,0-142.263,64-142.263,141.897   v17.554C5.851,87.04,69.486,23.406,147.749,23.406z"/>
	<path style="fill:#F9A121;" d="M149.577,355.109H309.76c14.994,0,27.794-23.04,27.794-37.669c0-2.926,0-5.12-2.194,1.829   c-3.657,10.606-13.531,18.286-25.6,18.286H149.577c-12.069,0-21.943-7.68-25.6-18.286c-2.194-5.851-1.829-4.754-1.829-1.463   C122.149,332.434,134.583,355.109,149.577,355.109z"/>
</g>
<g>
	<path style="fill:#33363A;" d="M311.223,459.703H147.749C66.194,459.703,0,393.874,0,312.686V147.383C0,66.194,66.194,0,147.749,0   h99.474c43.154,0,93.623,35.474,114.834,80.457c5.851,12.434,8.046,20.114,13.166,49.371c0.731,3.291,1.097,6.583,1.463,9.509   c1.829,12.069,3.291,20.846,8.411,25.6c5.486,4.754,24.503,5.486,36.937,6.217c11.337,0.366,18.651,0.731,23.04,2.56l0,0l0,0   l11.337,19.017c2.194,0.731,3.291,2.926,3.291,5.12l-0.731,114.469C458.606,393.874,392.046,459.703,311.223,459.703z    M147.749,11.337c-75.337,0-136.777,61.074-136.777,136.411v165.303c0,74.971,61.44,136.046,136.777,136.046h163.474   c74.971,0,136.411-61.074,136.777-136.046l0.731-114.469c0-0.366-0.366-10.606-8.046-13.897l0,0   c-2.56-1.097-11.337-1.463-19.017-1.829c-16.457-0.731-35.474-1.463-43.886-8.777c-8.046-7.314-9.509-18.286-11.703-32.183   c-0.366-2.926-1.097-6.217-1.463-9.509c-5.12-29.623-7.314-35.84-12.434-46.811c-19.749-41.691-65.829-74.24-104.96-74.24   L147.749,11.337L147.749,11.337z M309.76,343.04H149.577c-17.92,0-32.549-14.629-32.549-32.549s14.629-32.549,32.549-32.549H309.76   c17.92,0,32.549,14.629,32.549,32.549C342.309,328.777,328.046,343.04,309.76,343.04z M149.577,289.28   c-12.069,0-21.577,9.509-21.577,21.577c0,11.703,9.874,21.577,21.577,21.577H309.76c11.703,0,21.577-9.874,21.577-21.577   s-9.509-21.577-21.577-21.577H149.577z M228.571,181.029h-78.994c-17.92,0-32.549-14.629-32.549-32.549   s14.629-32.549,32.549-32.549h78.994c17.92,0,32.549,14.629,32.549,32.549S246.491,181.029,228.571,181.029z M149.577,127.269   c-12.069,0-21.577,9.509-21.577,21.577s9.874,21.577,21.577,21.577h78.994c12.069,0,21.577-9.874,21.577-21.577   s-9.874-21.577-21.577-21.577H149.577z"/>
	<path style="fill:#33363A;" d="M51.2,459.703H28.526c-2.926,0-5.486-2.56-5.486-5.486s2.56-5.486,5.486-5.486H51.2   c2.926,0,5.486,2.56,5.486,5.486S54.126,459.703,51.2,459.703z"/>
	<path style="fill:#33363A;" d="M156.16,459.703H96.183c-2.926,0-5.486-2.56-5.486-5.486s2.56-5.486,5.486-5.486h59.977   c2.926,0,5.486,2.56,5.486,5.486S159.086,459.703,156.16,459.703z"/>
	<path style="fill:#33363A;" d="M76.069,459.703H71.68c-2.926,0-5.486-2.56-5.486-5.486s2.56-5.486,5.486-5.486h4.389   c2.926,0,5.486,2.56,5.486,5.486S78.994,459.703,76.069,459.703z"/>
	<path style="fill:#33363A;" d="M431.543,459.703h-22.674c-2.926,0-5.486-2.56-5.486-5.486s2.56-5.486,5.486-5.486h22.674   c2.926,0,5.486,2.56,5.486,5.486S434.834,459.703,431.543,459.703z"/>
	<path style="fill:#33363A;" d="M363.886,459.703h-59.977c-2.926,0-5.486-2.56-5.486-5.486s2.56-5.486,5.486-5.486h59.977   c2.926,0,5.486,2.56,5.486,5.486S367.177,459.703,363.886,459.703z"/>
	<path style="fill:#33363A;" d="M388.389,459.703H384c-2.926,0-5.486-2.56-5.486-5.486s2.56-5.486,5.486-5.486h4.389   c2.926,0,5.486,2.56,5.486,5.486S391.314,459.703,388.389,459.703z"/>
</g>
<g>
</g>
<g>
</g>
<g>
</g>
<g>
</g>
<g>
</g>
<g>
</g>
<g>
</g>
<g>
</g>
<g>
</g>
<g>
</g>
<g>
</g>
<g>
</g>
<g>
</g>
<g>
</g>
<g>
</g>
</svg>
