<?xml version="1.0" encoding="iso-8859-1"?>
<!-- Generator: Adobe Illustrator 19.0.0, SVG Export Plug-In . SVG Version: 6.00 Build 0)  -->
<svg xmlns="http://www.w3.org/2000/svg" xmlns:xlink="http://www.w3.org/1999/xlink" version="1.1" id="Capa_1" x="0px" y="0px" viewBox="0 0 463.359 463.359" style="enable-background:new 0 0 463.359 463.359;" xml:space="preserve">
<g>
	<path style="fill:#33363A;" d="M457.874,160.229c0-0.366,0-0.731,0-0.731c0-0.731-0.366-1.097-0.366-1.463   s-0.366-0.731-0.366-1.097s-0.366-1.097-0.366-1.463s-0.366-0.731-0.366-1.097c-0.366-0.366-0.366-0.731-0.731-1.463   c0-0.366-0.366-0.731-0.366-0.731c-0.366-0.366-0.366-0.731-0.731-1.097c-0.366-0.366-0.366-0.731-0.731-0.731   c-0.366-0.366-0.731-0.731-1.097-1.097s-0.366-0.366-0.731-0.731c-0.366-0.366-0.731-0.731-1.097-1.097s-0.731-0.366-0.731-0.731   c0,0-0.366,0-0.366-0.366L243.2,8.457c-6.583-4.389-14.994-4.389-21.577,0L14.995,146.332c0,0-0.366,0-0.366,0.366   c-0.366,0.366-0.731,0.366-0.731,0.731c-0.366,0.366-0.731,0.731-1.097,1.097s-0.366,0.366-0.731,0.731   c-0.366,0.366-0.731,0.731-1.097,1.097s-0.366,0.731-0.731,0.731c-0.366,0.366-0.731,0.731-0.731,1.097   c-0.366,0.366-0.366,0.731-0.731,0.731c-0.366,0.366-0.366,0.731-0.731,1.463c0,0.366-0.366,0.731-0.366,1.097   c-0.366,0.366-0.366,1.097-0.366,1.463s-0.366,0.731-0.366,1.097s-0.366,1.097-0.366,1.463s0,0.731,0,0.731   c0,0.731-0.366,1.829-0.366,2.56v137.874c0,0.731,0,1.829,0.366,2.56c0,0.366,0,0.366,0,0.731c0,0.731,0.366,1.097,0.366,1.463   c0,0.366,0.366,0.731,0.366,1.097s0.366,1.097,0.366,1.463c0,0.366,0.366,0.731,0.366,1.097c0.366,0.366,0.366,0.731,0.731,1.463   c0.366,0.366,0.366,0.731,0.731,0.731c0.366,0.366,0.366,0.731,0.731,1.097c0.366,0.366,0.366,0.731,0.731,0.731   c0.366,0.366,0.731,0.731,1.097,1.097s0.366,0.366,0.731,0.731c0.366,0.366,0.731,0.731,1.097,1.097s0.731,0.366,0.731,0.731   c0,0,0.366,0,0.366,0.366L221.624,454.99c3.291,2.194,6.949,3.291,10.971,3.291c3.657,0,7.68-1.097,10.606-3.291l206.628-137.87   c0,0,0.366,0,0.366-0.366c0.366-0.366,0.731-0.366,0.731-0.731c0.366-0.366,0.731-0.731,1.097-1.097s0.366-0.366,0.731-0.731   c0.366-0.366,0.731-0.731,1.097-1.097s0.366-0.731,0.731-0.731c0.366-0.366,0.731-0.731,0.731-1.097   c0.366-0.366,0.366-0.731,0.366-0.731c0.366-0.366,0.366-0.731,0.731-1.463c0-0.366,0.366-0.731,0.366-1.097   s0.366-1.097,0.366-1.463c0-0.366,0.366-0.731,0.366-1.097s0.366-1.097,0.366-1.463c0-0.366,0-0.731,0-0.731   c0-0.731,0-1.829,0-2.56V162.789C457.874,161.692,457.874,160.96,457.874,160.229z M251.246,61.12l152.137,101.669l-68.023,45.349   l-84.114-56.32L251.246,61.12L251.246,61.12z M212.48,61.12v90.697l-84.114,56.32l-68.023-45.349L212.48,61.12z M44.617,198.994   l48.64,32.549l-48.64,32.549C44.617,264.092,44.617,198.994,44.617,198.994z M212.48,401.966L60.343,300.297l68.023-45.349   l84.114,56.32C212.48,311.269,212.48,401.966,212.48,401.966z M231.863,277.623l-68.754-46.08l68.754-46.08l68.754,46.08   L231.863,277.623z M251.246,401.966v-90.697l84.114-56.32l68.023,45.349L251.246,401.966z M419.109,264.092l-48.64-32.549   l48.64-32.549V264.092z"/>
	<path style="fill:#33363A;" d="M231.863,463.04c-5.12,0-9.874-1.463-13.897-4.023L11.337,321.143c0,0-0.366-0.366-0.731-0.366   c0,0-0.366-0.366-0.731-0.366c-0.731-0.731-1.463-1.097-1.829-1.463c-0.366-0.366-0.731-0.731-1.097-1.097   s-0.731-0.731-1.097-1.463c-0.366-0.366-0.366-0.731-0.731-1.097c-0.366-0.366-0.731-1.097-1.097-1.463   c0-0.366-0.366-0.366-0.366-0.731c0,0-0.366-0.366-0.366-0.731c-0.366-0.731-0.366-1.097-0.731-1.463   c0-0.366-0.366-0.366-0.366-0.731l-0.366-0.366c-0.366-0.366-0.366-1.097-0.731-1.463c-0.366-0.731-0.366-1.097-0.366-1.463   c0-0.366-0.366-1.097-0.366-1.463c0,0,0-0.366,0-0.731c0-0.366,0-0.731,0-1.097c0-1.097-0.366-2.194-0.366-3.291V162.423   c0-1.097,0-2.194,0.366-3.291c0-0.366,0-0.731,0-0.731v-0.366v-0.366c0-0.366,0.366-1.097,0.366-1.463s0.366-0.731,0.366-1.097   c0.366-0.731,0.366-1.463,0.731-1.829c0.366-0.366,0.366-0.731,0.731-1.097c0.366-0.366,0.366-1.097,0.731-1.463l0.366-0.366   c0-0.366,0.366-0.366,0.366-0.731c0.366-0.731,0.731-1.097,1.097-1.829c0-0.366,0.366-0.366,0.731-0.731   c0.366-0.366,0.731-1.097,1.463-1.463c0.366-0.366,0.731-0.731,1.097-1.097s0.731-0.731,1.463-1.097l0.366-0.366   c0.366-0.366,0.731-0.366,1.097-0.731h0.366L218.332,4.434c8.411-5.486,19.383-5.486,27.794,0l206.629,137.874   c0,0,0.366,0.366,0.731,0.366c0,0-0.366,0-0.366-0.366l0.731,0.731l0.366,0.366c0.366,0.366,1.097,0.731,1.463,1.097   c0.366,0,0.731,0.731,1.097,1.097s0.731,0.731,1.097,1.097s0.731,0.731,0.731,1.097c0.366,0.366,0.731,1.097,1.097,1.829   l0.731,0.731c0.366,0.366,0.731,1.097,0.731,1.829c0,0.366,0.366,0.731,0.366,1.097v0.366c0.366,0.731,0.366,1.097,0.731,1.829   c0,0.366,0.366,0.731,0.366,1.097s0.366,1.097,0.366,1.463s0,0.731,0,1.097v0.366c0,0,0,0,0,0.366c0,1.097,0.366,2.194,0.366,3.291   v137.874c0,1.097,0,2.194-0.366,3.291v0.366v0.366c0,0.366,0,0.366,0,0.366v0.366c0,0.366-0.366,1.097-0.366,1.463   c0,0.366-0.366,0.731-0.366,1.097l-0.731,1.829c0,0,0,0.366-0.366,0.366l-0.366,0.731c-0.366,0.731-0.731,1.463-1.097,1.829   l-0.366,0.731c-0.366,0.731-0.731,1.463-1.463,1.829c0,0-0.366,0.366-0.731,0.731l-0.366,0.366   c-0.366,0.366-0.731,1.097-1.097,1.463c-0.366,0.366-0.731,0.731-1.097,1.097s-1.097,0.731-1.463,1.097l-0.366,0.366   c-0.366,0-0.366,0.366-0.731,0.366l-0.366,0.366L244.663,459.383C241.737,461.577,236.983,463.04,231.863,463.04z M13.166,307.246   l0.366,0.366l0.366,0.366c0,0.366,0.366,0.366,0.366,0.366c0.366,0.366,0.366,0.366,0.366,0.731   c0.366,0.366,0.731,0.731,0.731,0.731c0.366,0.366,0.366,0.366,0.366,0.366c0.366,0.366,0.366,0.366,0.731,0.731l0.366,0.366   c0,0,0.366,0.366,0.731,0.366l206.629,137.874c4.754,2.926,10.971,2.926,15.36,0l206.629-137.874c0,0,0,0,0.366-0.366l0.731-0.731   c0,0,0.366-0.366,0.731-0.731l0.366-0.366c0.366-0.366,0.731-0.731,0.731-1.097l0.366-0.731c0.366-0.366,0.366-0.366,0.366-0.731   l0.366-0.366l0.366-0.366c0.366-0.366,0.366-0.366,0.366-0.731l1.097-2.194c0-0.366,0-0.366,0-0.366v-0.366v-0.366   c0-0.366,0-0.731,0-1.097s0-1.097,0-1.463V161.692c0-0.731,0-1.097,0-1.829c0-0.366,0-0.731,0-0.731v-0.366V158.4   c0,0,0-0.366,0-0.731v-0.366c0-0.366-0.366-0.731-0.366-1.097c0,0,0-0.366-0.366-0.366c0,0,0-0.366-0.366-0.366   c0,0,0-0.366-0.366-0.366l-0.366-0.731c-0.366-0.366-0.366-0.731-0.366-0.731l-0.731-0.731c-0.366-0.366-0.366-0.366-0.731-0.731   L448,151.817c-0.366-0.366-0.731-0.731-1.097-0.731l-0.731-0.366l-0.366-0.366L239.543,12.845c-4.754-3.291-10.606-3.291-15.36,0   l-207.36,138.24l-0.366,0.366l-0.366,0.366l-0.366,0.366l-0.366,0.366l-0.366,0.366c0,0,0,0.366-0.366,0.366l-0.366,0.366   c-0.366,0.366-0.366,0.366-0.366,0.731l-0.366,0.366l-0.366,0.366c0,0,0,0-0.366,0.366c0,0.366-0.366,0.366-0.366,0.731v0.366   c0,0,0,0.366-0.366,0.731v0.366c0,0.366,0,0.366,0,0.731s0,0.366,0,0.731v0.731l-5.486-0.731l5.486,1.097c0,0.731,0,1.097,0,1.829   v137.874c0,0.731,0,1.097,0,1.829c0,0.366,0,0.366,0,0.731l0,0c0,0.366,0,0.366,0,0.731v0.366l-5.12,2.194l5.12-1.463   c0,0.366,0.366,0.731,0.366,1.097l0.366,0.731C12.8,306.88,12.8,306.88,13.166,307.246C12.8,307.246,13.166,307.246,13.166,307.246   z M251.246,407.452c-0.731,0-1.829-0.366-2.56-0.731c-1.829-1.097-2.926-2.926-2.926-4.754V311.27c0-1.829,1.097-3.657,2.56-4.389   l84.114-56.32c1.829-1.097,4.389-1.097,6.217,0l68.023,45.349c1.463,1.097,2.56,2.56,2.56,4.389s-1.097,3.657-2.56,4.389   L254.537,406.355C253.44,407.086,252.343,407.452,251.246,407.452z M256.732,314.194v77.531l136.777-91.429L335.36,261.53   L256.732,314.194z M212.48,407.452c-1.097,0-2.194-0.366-2.926-1.097L57.417,304.686c-1.463-1.097-2.56-2.56-2.56-4.389   s0.731-3.657,2.56-4.389l68.023-45.349c1.829-1.097,4.389-1.097,6.217,0l84.114,56.32c1.463,1.097,2.56,2.56,2.56,4.389v90.697   c0,2.194-1.097,4.023-2.926,4.754C214.309,407.086,213.212,407.452,212.48,407.452z M69.852,300.297l136.777,91.429v-77.531   L128,261.532L69.852,300.297z M231.863,283.109c-1.097,0-2.194-0.366-2.926-1.097l-68.754-46.08c-1.463-1.097-2.56-2.56-2.56-4.389   s1.097-3.657,2.56-4.389l68.754-46.08c1.829-1.097,4.389-1.097,6.217,0l68.754,46.08c1.463,1.097,2.56,2.56,2.56,4.389   c0,1.829-1.097,3.657-2.56,4.389l-68.754,46.08C234.057,282.743,232.96,283.109,231.863,283.109z M172.983,231.543l58.88,39.497   l58.88-39.497l-58.88-39.497L172.983,231.543z M44.617,269.577c-0.731,0-1.829-0.366-2.56-0.731   c-1.829-1.097-2.926-2.926-2.926-4.754v-65.097c0-2.194,1.097-4.023,2.926-4.754c1.829-1.097,4.023-0.731,5.486,0.366l48.64,32.549   c1.463,1.097,2.56,2.56,2.56,4.389s-1.097,3.657-2.56,4.389l-48.64,32.549C46.812,269.212,45.714,269.577,44.617,269.577z    M50.103,209.234v44.617l33.28-22.309L50.103,209.234z M419.109,269.577c-1.097,0-2.194-0.366-2.926-1.097l-48.64-32.549   c-1.463-1.097-2.56-2.56-2.56-4.389s0.731-3.657,2.56-4.389l48.64-32.549c1.829-1.097,4.023-1.097,5.486-0.366   c1.829,1.097,2.926,2.926,2.926,4.754v65.097c0,2.194-1.097,4.023-2.926,4.754C420.937,269.212,420.206,269.577,419.109,269.577z    M380.343,231.543l33.28,22.309v-44.617L380.343,231.543z M128,213.623c-1.097,0-2.194-0.366-2.926-1.097l-68.023-45.349   c-1.463-1.097-2.56-2.56-2.56-4.389c0-1.829,1.097-3.657,2.56-4.389L209.189,56.732c1.829-1.097,4.023-1.097,5.486-0.366   c1.829,1.097,2.926,2.926,2.926,4.754v90.697c0,1.829-1.097,3.657-2.56,4.389l-84.114,56.32   C130.194,213.257,129.097,213.623,128,213.623z M69.852,162.789L128,201.555l78.629-52.663V71.36L69.852,162.789z M335.726,213.623   c-1.097,0-2.194-0.366-2.926-1.097l-84.114-56.32c-1.463-1.097-2.56-2.56-2.56-4.389V61.12c0-2.194,1.097-4.023,2.926-4.754   c1.829-0.731,4.023-0.731,5.486,0.366L406.674,158.4c1.463,1.097,2.56,2.56,2.56,4.389s-1.097,3.657-2.56,4.389l-68.023,45.349   C337.554,213.257,336.457,213.623,335.726,213.623z M256.732,148.892l78.629,52.663l58.149-38.766L256.732,71.36V148.892z"/>
</g>
<path style="fill:#4C5054;" d="M457.874,159.132c0-0.731-0.366-1.097-0.366-1.463s-0.366-0.731-0.366-1.097  s-0.366-1.097-0.366-1.463s-0.366-0.731-0.366-1.097c-0.366-0.366-0.366-0.731-0.731-1.463c0-0.366-0.366-0.731-0.366-0.731  c-0.366-0.366-0.366-0.731-0.731-1.097c-0.366-0.366-0.366-0.731-0.731-0.731c-0.366-0.366-0.731-0.731-1.097-1.097  s-0.366-0.366-0.731-0.731c-0.366-0.366-0.731-0.731-1.097-1.097s-0.731-0.366-0.731-0.731c0,0-0.366,0-0.366-0.366L243.2,8.092  c-6.583-4.389-14.994-4.389-21.577,0L14.995,145.966c0,0-0.366,0-0.366,0.366c-0.366,0.366-0.731,0.366-0.731,0.731  c-0.366,0.366-0.731,0.731-1.097,1.097s-0.366,0.366-0.731,0.731c-0.366,0.366-0.731,0.731-1.097,1.097s-0.366,0.731-0.731,0.731  c-0.366,0.366-0.731,0.731-0.731,1.097c-0.366,0.366-0.366,0.731-0.731,0.731c-0.366,0.366-0.366,0.731-0.731,1.463  c0,0.366-0.366,0.731-0.366,1.097c-0.366,0.366-0.366,1.097-0.366,1.463s-0.366,0.731-0.366,1.097s-0.366,1.097-0.366,1.463  s0,0.731,0,0.731c0,0.731-0.366,1.829-0.366,2.56v14.629l38.766,24.869v-3.291l48.64,32.549l-1.463,1.097l35.84,23.04l0.731-0.366  l32.914,21.943l70.583,45.349l70.949-45.714l32.549-21.943l0.731,0.366l35.84-23.04l-1.463-1.097l48.64-32.549v3.291l38.766-24.869  v-14.629c0-0.731,0-1.829,0-2.56C457.874,159.863,457.874,159.497,457.874,159.132z M59.977,162.789L212.114,61.12v90.697  L128,208.137L59.977,162.789z M231.863,277.623l-68.754-46.08l68.754-46.08l68.754,46.08L231.863,277.623z M335.726,208.137  l-84.114-56.32V61.12l152.137,101.669L335.726,208.137z"/>
<g>
	<path style="fill:#72818E;" d="M457.874,160.229c0-0.366,0-0.731,0-0.731c0-0.731-0.366-1.097-0.366-1.463   s-0.366-0.731-0.366-1.097s-0.366-1.097-0.366-1.463s-0.366-0.731-0.366-1.097c-0.366-0.366-0.366-0.731-0.731-1.463   c0-0.366-0.366-0.731-0.366-0.731c-0.366-0.366-0.366-0.731-0.731-1.097c-0.366-0.366-0.366-0.731-0.731-0.731   c-0.366-0.366-0.731-0.731-1.097-1.097s-0.366-0.366-0.731-0.731c-0.366-0.366-0.731-0.731-1.097-1.097s-0.731-0.366-0.731-0.731   c0,0-0.366,0-0.366-0.366L243.2,8.457c-6.583-4.389-14.994-4.389-21.577,0L14.995,146.332c0,0-0.366,0-0.366,0.366   c-0.366,0.366-0.731,0.366-0.731,0.731c-0.366,0.366-0.731,0.731-1.097,1.097s-0.366,0.366-0.731,0.731   c-0.366,0.366-0.731,0.731-1.097,1.097s-0.366,0.731-0.731,0.731c-0.366,0.366-0.731,0.731-0.731,1.097   c-0.366,0.366-0.366,0.731-0.731,0.731c-0.366,0.366-0.366,0.731-0.731,1.463c0,0.366-0.366,0.731-0.366,1.097   c-0.366,0.366-0.366,1.097-0.366,1.463s-0.366,0.731-0.366,1.097s-0.366,1.097-0.366,1.463s0,0.731,0,0.731   c0,0.731-0.366,1.829-0.366,2.56v14.629l0.366,0.366l0,0c0-0.731,0.366-1.097,0.366-1.463s0.366-0.731,0.366-1.097   s0.366-1.097,0.366-1.463s0.366-0.731,0.366-1.097c0.366-0.366,0.366-0.731,0.731-1.463c0.366-0.366,0.366-0.731,0.731-0.731   c0.366-0.366,0.366-0.731,0.731-1.097c0.366-0.366,0.366-0.731,0.731-0.731c0.366-0.366,0.731-0.731,1.097-1.097   s0.366-0.366,0.731-0.731c0.366-0.366,0.731-0.731,1.097-1.097s0.731-0.366,0.731-0.731c0,0,0.366,0,0.366-0.366L221.623,26.743   c6.583-4.389,14.994-4.389,21.577,0l206.629,137.874c0,0,0.366,0,0.366,0.366c0.366,0.366,0.731,0.366,0.731,0.731   c0.366,0.366,0.731,0.731,1.097,1.097s0.366,0.366,0.731,0.731c0.366,0.366,0.731,0.731,1.097,1.097s0.366,0.731,0.731,0.731   c0.366,0.366,0.731,0.731,0.731,1.097c0.366,0.366,0.366,0.731,0.366,0.731c0.366,0.366,0.366,0.731,0.731,1.463   c0,0.366,0.366,0.731,0.366,1.097s0.366,1.097,0.366,1.463s0.366,0.731,0.366,1.097s0.366,1.097,0.366,1.463l0,0h0.366v-14.629   C457.874,161.692,457.874,160.96,457.874,160.229z"/>
	<polygon style="fill:#72818E;" points="335.726,226.423 403.749,180.709 389.852,171.566 335.726,208.137 251.246,151.817    251.246,169.737  "/>
	<polygon style="fill:#72818E;" points="231.863,295.543 300.617,249.829 287.086,240.686 231.863,277.623 176.64,240.686    163.109,249.829  "/>
	<polygon style="fill:#72818E;" points="128,226.423 212.48,169.737 212.48,151.817 128,208.137 73.874,171.566 59.977,180.709  "/>
</g>
<path style="fill:#33363A;" d="M231.863,327.726c-1.097,0-2.194-0.366-2.926-0.731l-70.583-45.349L127.269,260.8  c-1.097,0-1.829-0.366-2.56-0.731l-35.84-23.04c-1.097-0.731-2.194-2.194-2.56-3.657L46.812,207.04  c-1.829,0.731-3.657,0.731-5.486-0.366L2.56,181.806C1.097,180.709,0,178.88,0,177.052v-14.629c0-1.097,0-2.194,0.366-3.291  c0-0.366,0-0.731,0-0.731v-0.366v-0.366c0-0.366,0.366-1.097,0.366-1.463s0.366-0.731,0.366-1.097  c0.366-0.731,0.366-1.463,0.731-1.829c0.366-0.366,0.366-0.731,0.731-1.097c0.366-0.366,0.366-1.097,0.731-1.463l0.366-0.366  c0-0.366,0.366-0.366,0.366-0.731c0.366-0.731,0.731-1.097,1.097-1.829c0-0.366,0.366-0.366,0.731-0.731  c0.366-0.366,0.731-1.097,1.463-1.463c0.366-0.366,0.731-0.731,1.097-1.097s0.731-0.731,1.463-1.097l0.366-0.366  c0.366-0.366,0.731-0.366,1.097-0.731h0.366L218.332,4.434c8.411-5.486,19.383-5.486,27.794,0l206.629,137.874  c0,0,0.366,0.366,0.731,0.366c0,0-0.366,0-0.366-0.366l0.731,0.731l0.366,0.366c0.366,0.366,1.097,0.731,1.463,1.097  c0.366,0,0.731,0.731,1.097,1.097s0.731,0.731,1.097,1.097s0.731,0.731,0.731,1.097c0.366,0.366,0.731,1.097,1.097,1.829  l0.731,0.731c0.366,0.366,0.731,1.097,0.731,1.829c0,0.366,0.366,0.731,0.366,1.097v0.366c0.366,0.731,0.366,1.097,0.731,1.829  c0,0.366,0.366,0.731,0.366,1.097s0.366,1.097,0.366,1.463c0,0,0,0.366,0,0.731s0,0.731,0,0.731c0,1.097,0.366,2.194,0.366,3.291  v14.629c0,1.829-1.097,3.657-2.56,4.754l-38.766,24.869c-1.463,1.097-3.657,1.097-5.486,0.366l-39.497,26.331  c-0.366,1.463-1.097,2.56-2.56,3.657l-35.84,23.04c-0.731,0.366-1.829,0.731-2.56,0.731l-30.72,20.48l-71.314,45.714  C234.057,327.36,232.96,327.726,231.863,327.726z M128.366,249.463c1.097,0,1.829,0.366,2.926,1.097l32.914,21.943l67.657,43.154  l68.023-43.52l32.549-21.577c0.731-0.731,1.829-0.731,2.926-1.097l29.989-19.017c0.366-1.463,1.097-2.56,2.194-3.291l48.64-32.549  c1.829-1.097,3.657-1.097,5.486-0.366l30.72-19.749v-11.703c0-0.731,0-1.097,0-1.829c0,0,0-0.366,0-0.731v-0.366v-0.366  c0,0,0-0.366,0-0.731V158.4c0-0.366-0.366-0.731-0.366-1.097c0,0,0-0.366-0.366-0.366c0,0,0-0.366-0.366-0.366  c0,0,0-0.366-0.366-0.366l-0.366-0.731c-0.366-0.366-0.366-0.731-0.366-0.731l-0.731-0.731c-0.366-0.366-0.366-0.366-0.731-0.731  l-0.366-0.366c-0.366-0.366-0.731-0.731-1.097-0.731l-0.731-0.366l-0.366-0.366L239.909,13.943c-4.754-3.291-10.606-3.291-15.36,0  l-207.36,138.24l-0.366,0.366l-0.366,0.366l-0.366,0.366l-0.366,0.366l-0.366,0.366c0,0,0,0.366-0.366,0.366l-0.366,0.366  c-0.366,0.366-0.366,0.366-0.366,0.731l-0.366,0.366l-0.366,0.366c0,0,0,0-0.366,0.366c0,0.366-0.366,0.366-0.366,0.731v0.366  c0,0,0,0.366-0.366,0.731v0.366c0,0.366,0,0.366,0,0.731s0,0.366,0,0.731v0.731l-5.486-0.731l5.486,1.097c0,0.731,0,1.097,0,1.829  v11.703l30.72,19.749c1.829-0.731,4.023-0.731,5.486,0.366l48.64,32.549c1.097,0.731,1.829,1.829,2.194,3.291L128.366,249.463z   M231.863,283.109c-1.097,0-2.194-0.366-2.926-1.097l-68.754-46.08c-1.463-1.097-2.56-2.56-2.56-4.389s1.097-3.657,2.56-4.389  l68.754-46.08c1.829-1.097,4.389-1.097,6.217,0l68.754,46.08c1.463,1.097,2.56,2.56,2.56,4.389c0,1.829-1.097,3.657-2.56,4.389  l-68.754,46.08C234.057,282.743,232.96,283.109,231.863,283.109z M172.983,231.543l58.88,39.497l58.88-39.497l-58.88-39.497  L172.983,231.543z M128,213.623c-1.097,0-2.194-0.366-2.926-1.097l-68.023-45.349c-1.463-1.097-2.56-2.56-2.56-4.389  c0-1.829,1.097-3.657,2.56-4.389L209.189,56.732c1.829-1.097,4.023-1.097,5.486-0.366c1.829,1.097,2.926,2.926,2.926,4.754v90.697  c0,1.829-1.097,3.657-2.56,4.389l-84.114,56.32C130.194,213.257,129.097,213.623,128,213.623z M69.852,162.789L128,201.555  l78.629-52.663V71.36L69.852,162.789z M335.726,213.623c-1.097,0-2.194-0.366-2.926-1.097l-84.114-56.32  c-1.463-1.097-2.56-2.56-2.56-4.389V61.12c0-2.194,1.097-4.023,2.926-4.754c1.829-0.731,4.023-0.731,5.486,0.366L406.674,158.4  c1.463,1.097,2.56,2.56,2.56,4.389s-1.097,3.657-2.56,4.389l-68.023,45.349C337.554,213.257,336.457,213.623,335.726,213.623z   M256.732,148.892l78.629,52.663l58.149-38.766L256.732,71.36V148.892z"/>
<g>
</g>
<g>
</g>
<g>
</g>
<g>
</g>
<g>
</g>
<g>
</g>
<g>
</g>
<g>
</g>
<g>
</g>
<g>
</g>
<g>
</g>
<g>
</g>
<g>
</g>
<g>
</g>
<g>
</g>
</svg>
