<?xml version="1.0" encoding="utf-8"?>
<!-- Generator: Adobe Illustrator 26.0.1, SVG Export Plug-In . SVG Version: 6.00 Build 0)  -->
<svg version="1.1" id="Layer_1" xmlns="http://www.w3.org/2000/svg" xmlns:xlink="http://www.w3.org/1999/xlink" x="0px" y="0px"
	 viewBox="0 0 800 361.6" style="enable-background:new 0 0 800 361.6;" xml:space="preserve">
<style type="text/css">
	.st0{fill:#1F074F;}
	.st1{fill:#04AB61;}
	.st2{fill-rule:evenodd;clip-rule:evenodd;fill:#FBB016;}
	.st3{fill:#FBB016;}
</style>
<g>
	<g>
		<path class="st0" d="M259.8,183.2c-4.5-3.9-10.8-5.8-18.9-5.8h-13.1h-6.3h-7.7v70.9h14v-20.5h9.8c4.9,0,9.2-0.8,12.8-2.3
			c3.6-1.5,6.6-3.6,9-6.2c2.4-2.6,4.1-5.6,5.3-9c1.2-3.4,1.8-7,1.8-10.6C266.5,192.6,264.3,187,259.8,183.2z M250.8,208.2
			c-1,2.4-2.6,4.4-4.8,5.9c-2.2,1.4-5.1,2.2-8.7,2.2h-9.6v-26.9h13c3.5,0,6.3,0.8,8.4,2.5c2.2,1.6,3.3,4.4,3.3,8.3
			C252.4,203,251.9,205.7,250.8,208.2z"/>
		<path class="st0" d="M322.1,233.9c0-2.1,0-3.8,0-5.2v-12.4c0-4.7-0.7-8.6-2-11.5c-1.2-3-3-5.4-5.3-7c-2.3-1.6-5-2.8-8.2-3.4
			c-3.1-0.7-6.5-1-10.1-1c-3,0-5.9,0.2-8.9,0.7c-3,0.4-5.6,1-8,1.9v10.9h1c1.6-0.7,3.6-1.3,6.2-1.9c2.6-0.6,5.2-0.9,8-0.9
			c3,0,5.5,0.3,7.6,0.9c2,0.5,3.6,1.6,4.6,3.3c1,1.7,1.6,4.2,1.6,7.6v0.9c-0.9-0.2-1.9-0.4-3-0.6c-2.1-0.5-4.6-0.7-7.4-0.7
			c-4.6,0-8.7,0.6-12.2,1.9c-3.5,1.2-6.2,3-8.2,5.5c-1.9,2.5-2.9,5.7-2.9,9.6c0,6,2.1,10.4,6.2,13.1c4.2,2.7,10.4,4,18.6,4
			c2.4,0,5-0.2,7.7-0.5c2.7-0.3,5.3-0.8,7.9-1.4c2.6-0.7,5.1-1.4,7.3-2.3l0.3-0.8c-0.3-1.2-0.5-2.8-0.6-4.7
			C322.2,237.9,322.1,235.9,322.1,233.9z M306.2,239.3c-2.1,0.4-4.3,0.6-6.6,0.6c-3.8,0-6.7-0.6-8.8-1.8c-2-1.2-3.1-3.1-3.1-5.8
			c0-2.8,1-4.8,3.1-6c2.1-1.2,5.3-1.8,9.6-1.8c1.9,0,3.9,0.2,5.9,0.6c0.8,0.1,1.6,0.3,2.3,0.4v3.8c0,1.6,0,2.9,0,4
			c0.1,1,0.1,2,0.2,2.9c0.1,0.8,0.3,1.5,0.4,2.2C308.3,238.8,307.3,239.1,306.2,239.3z"/>
		<polygon class="st0" points="358,232.1 345.5,194.6 330.8,194.6 330.8,195.7 351.2,249.4 342.6,270 342.6,271.2 356.3,271.2 
			385.6,195.7 385.6,194.6 371.7,194.6 		"/>
		<path class="st0" d="M469.9,197.9c-2.3-1.8-4.9-3-7.8-3.6c-2.9-0.7-5.9-1-9.1-1c-3.3,0-6.6,0.4-9.9,1.2c-2.8,0.7-5.4,1.5-8,2.5
			c-1.9-1.2-4.1-2.1-6.4-2.6c-2.9-0.7-5.9-1.1-9-1.1c-2.7,0-5.5,0.2-8.5,0.7c-2.9,0.5-5.7,1-8.4,1.8c-2.7,0.7-5,1.4-7,2.3l-0.3,0.8
			c0.3,1.2,0.5,2.8,0.6,4.8c0.1,2,0.2,4,0.3,6.1c0.1,2,0.1,3.7,0.1,5v33.6h13.8v-35.9c0-2-0.1-3.8-0.3-5.4c-0.1-0.5-0.1-0.9-0.2-1.3
			c0.8-0.2,1.7-0.5,2.6-0.7c2-0.5,4-0.7,6-0.7c2.4,0,4.4,0.4,6.2,1.2c1.8,0.7,3.3,2.1,4.2,4c1.1,1.9,1.6,4.7,1.6,8.3v30.4h13.8v-31
			c0-4.6-0.6-8.3-1.9-11.3c1.2-0.4,2.4-0.7,3.6-1c1.7-0.4,3.4-0.6,5-0.6c2.6,0,4.9,0.4,6.7,1.2c1.9,0.7,3.3,2.1,4.2,4
			c1,1.9,1.5,4.7,1.5,8.3v30.4h13.8v-31c0-5-0.7-9-2-12.1C474,202,472.2,199.6,469.9,197.9z"/>
		<path class="st0" d="M532.7,197c-3.7-2.5-8.6-3.7-14.6-3.7c-5.3,0-10,1.1-14,3.4c-3.9,2.2-7,5.5-9.2,9.7
			c-2.2,4.1-3.3,9.1-3.3,14.9c0,4.9,0.7,9.1,2.1,12.6c1.4,3.5,3.5,6.5,6.2,8.8c2.7,2.2,6,3.9,9.8,5c3.9,1.1,8.3,1.7,13.2,1.7
			c3.6,0,6.7-0.3,9.4-0.8c2.7-0.5,5-1.2,6.8-2v-11.1h-1c-1.4,0.8-3.3,1.5-5.7,2.1c-2.4,0.6-5.3,0.9-8.5,0.9c-3.6,0-6.8-0.5-9.6-1.5
			c-2.8-1-4.9-2.6-6.5-4.9c-1.1-1.7-1.8-3.9-2.2-6.5h36.9l0.1-3.3c0.3-5.6-0.4-10.6-2.1-15C539.1,202.9,536.4,199.5,532.7,197z
			 M529.3,216.4h-23.6c0.2-2.5,0.7-4.6,1.4-6.2c1.1-2.4,2.6-4.1,4.4-5.1c1.9-1,4-1.6,6.4-1.6c3.8,0,6.6,1,8.5,3.2
			c1.9,2.1,2.9,5.2,2.9,9.2V216.4z"/>
		<path class="st0" d="M598.7,198c-2.4-1.8-5.2-3-8.3-3.6c-3-0.7-6.2-1.1-9.6-1.1c-2.6,0-5.4,0.2-8.4,0.7c-2.9,0.5-5.7,1-8.5,1.8
			c-2.7,0.7-5,1.4-7,2.3l-0.3,0.8c0.3,1.2,0.5,2.8,0.6,4.8c0.1,2,0.2,4,0.3,6.1c0.1,2,0.1,3.7,0.1,5v33.6h13.8v-35.9
			c0-2-0.1-3.8-0.3-5.4c-0.1-0.5-0.1-0.9-0.2-1.3c0.8-0.2,1.7-0.5,2.6-0.7c2-0.5,4-0.7,6-0.7c2.7,0,5,0.4,7,1.2c2,0.7,3.5,2.1,4.5,4
			c1,1.9,1.6,4.7,1.6,8.3v30.4h13.8v-31c0-4.9-0.7-8.8-2.1-11.9C603.1,202.2,601.2,199.8,598.7,198z"/>
		<path class="st0" d="M652.2,237.5c-1.2,0.3-2.4,0.4-3.6,0.4c-3.3,0-5.7-0.7-7.3-2.2c-1.6-1.4-2.4-3.8-2.4-7.2v-22.9h14.7v-11
			h-14.7v-13.9h-13.8v13.9h-8.6v11h8.6v24c0,4.5,0.8,8.2,2.5,11.1c1.7,2.8,4.2,4.9,7.4,6.3c3.3,1.4,7.3,2.1,11.9,2.1
			c2,0,3.7-0.2,5.3-0.5c1.6-0.3,3-0.6,4.1-1.1v-11h-0.9C654.5,236.9,653.4,237.2,652.2,237.5z"/>
		<path class="st0" d="M700.7,219.2c-2.5-1.2-5.3-2-8.4-2.5l-4.5-0.8c-3-0.5-5.2-1.1-6.8-1.9c-1.5-0.7-2.3-1.9-2.3-3.6
			c0-2.2,1-3.8,3.1-4.6c2.1-0.9,5-1.4,8.7-1.4c2.4,0,4.8,0.2,7.1,0.6c2.3,0.4,4.7,1.1,7.2,2.1h0.8v-11.3c-2.2-0.7-4.5-1.1-6.9-1.5
			c-2.4-0.4-5-0.6-7.8-0.6c-6,0-10.9,0.8-14.7,2.4c-3.7,1.5-6.4,3.6-8.2,6.2c-1.7,2.6-2.6,5.5-2.6,8.8c0,4.5,1.4,7.8,4.2,10.1
			c2.8,2.2,6.9,3.8,12.1,4.7l4.6,0.8c3.2,0.5,5.5,1.1,7,1.9c1.5,0.7,2.3,2,2.3,3.8c0,1.4-0.4,2.6-1.2,3.4c-0.7,0.9-1.7,1.4-2.9,1.8
			c-1.1,0.3-2.3,0.6-3.6,0.7c-1.3,0.1-2.5,0.1-3.6,0.1c-3.2,0-6.4-0.4-9.7-1.1c-3.2-0.7-5.9-1.6-8.3-2.6h-0.8v11.6
			c2.5,0.8,5.3,1.4,8.5,2c3.2,0.5,6.3,0.8,9.5,0.8c8.5,0,14.9-1.4,19.1-4.2c4.3-2.9,6.4-7.2,6.4-12.9c0-3.2-0.8-5.8-2.3-7.9
			C705.3,222,703.3,220.4,700.7,219.2z"/>
		<path class="st0" d="M284.8,162.6c5.6,3,12.6,4.4,20.8,4.4c3.3,0,6.3-0.3,9-0.8c2.7-0.5,4.9-1.2,6.7-2.1v-12.4h-1
			c-1.7,1-3.8,1.8-6.2,2.4c-2.4,0.5-5,0.8-7.8,0.8c-5.3,0-9.7-1-13.2-2.9c-3.5-1.9-6.2-4.7-8.1-8.3c-1.8-3.7-2.8-8.1-2.8-13.4
			c0-5.3,0.9-9.7,2.8-13.3c1.8-3.7,4.5-6.5,8.1-8.4c3.5-1.9,7.9-2.9,13.2-2.9c2.8,0,5.3,0.3,7.8,0.9c2.4,0.5,4.5,1.3,6.2,2.3h1V96.6
			c-1.8-0.9-4-1.5-6.7-2.1c-2.6-0.5-5.6-0.8-9-0.8c-8.2,0-15.1,1.5-20.8,4.5c-5.6,3-9.8,7.3-12.7,12.8c-2.8,5.5-4.2,11.9-4.2,19.3
			c0,7.6,1.4,14.1,4.2,19.6C274.9,155.4,279.2,159.6,284.8,162.6z"/>
		<path class="st0" d="M339.7,163c4.2,2.7,10.4,4,18.6,4c2.4,0,5-0.2,7.7-0.5c2.7-0.3,5.3-0.8,7.9-1.4c2.6-0.7,5.1-1.4,7.3-2.3
			l0.3-0.8c-0.3-1.2-0.5-2.8-0.6-4.7c-0.1-2-0.2-4-0.3-6c0-2.1,0-3.8,0-5.2v-12.4c0-4.7-0.7-8.6-2-11.5c-1.2-3-3-5.4-5.3-7
			c-2.3-1.6-5-2.8-8.2-3.4c-3.1-0.7-6.5-1-10.1-1c-3,0-5.9,0.2-8.9,0.7c-3,0.4-5.6,1-8,1.9v10.9h1c1.6-0.7,3.6-1.3,6.2-1.9
			c2.6-0.6,5.2-0.9,8-0.9c3,0,5.5,0.3,7.6,0.9c2,0.5,3.6,1.6,4.6,3.3c1,1.7,1.6,4.2,1.6,7.6v0.9c-0.9-0.2-1.9-0.4-3-0.6
			c-2.1-0.5-4.6-0.7-7.4-0.7c-4.6,0-8.7,0.6-12.2,1.9c-3.5,1.2-6.2,3-8.2,5.5c-1.9,2.5-2.9,5.7-2.9,9.6
			C333.5,155.9,335.6,160.3,339.7,163z M349.4,143.8c2.1-1.2,5.3-1.8,9.6-1.8c1.9,0,3.9,0.2,5.9,0.6c0.8,0.1,1.6,0.3,2.3,0.4v3.8
			c0,1.6,0,2.9,0,4c0.1,1,0.1,2,0.2,2.9c0.1,0.8,0.3,1.5,0.4,2.2c-0.9,0.3-1.9,0.6-3,0.8c-2.1,0.4-4.3,0.6-6.6,0.6
			c-3.8,0-6.7-0.6-8.8-1.8c-2-1.2-3.1-3.1-3.1-5.8C346.3,147,347.3,145,349.4,143.8z"/>
		<path class="st0" d="M420.9,155.1c-1.1,0.3-2.3,0.6-3.6,0.7c-1.3,0.1-2.5,0.1-3.6,0.1c-3.2,0-6.4-0.4-9.7-1.1
			c-3.2-0.7-5.9-1.6-8.3-2.6h-0.8v11.6c2.5,0.8,5.3,1.4,8.5,2s6.3,0.8,9.5,0.8c8.5,0,14.9-1.4,19.1-4.2c4.3-2.9,6.4-7.2,6.4-12.9
			c0-3.2-0.8-5.8-2.3-7.9c-1.5-2.1-3.5-3.7-6.1-4.9c-2.5-1.2-5.3-2-8.4-2.5l-4.5-0.8c-3-0.5-5.2-1.1-6.8-1.9
			c-1.5-0.7-2.3-1.9-2.3-3.6c0-2.2,1-3.8,3.1-4.6c2.1-0.9,5-1.4,8.7-1.4c2.4,0,4.8,0.2,7.1,0.6c2.3,0.4,4.7,1.1,7.2,2.1h0.8v-11.3
			c-2.2-0.7-4.5-1.1-6.9-1.5c-2.4-0.4-5-0.6-7.8-0.6c-6,0-10.9,0.8-14.7,2.4c-3.7,1.5-6.4,3.6-8.2,6.2c-1.7,2.6-2.6,5.5-2.6,8.8
			c0,4.5,1.4,7.8,4.2,10.1c2.8,2.2,6.9,3.8,12.1,4.7l4.6,0.8c3.2,0.5,5.5,1.1,7,1.9c1.5,0.7,2.3,2,2.3,3.8c0,1.4-0.4,2.6-1.2,3.4
			C423,154.2,422.1,154.8,420.9,155.1z"/>
		<path class="st0" d="M500.7,165.8v-31c0-4.5-0.6-8.3-1.8-11.3c-1.2-3.1-2.8-5.5-4.9-7.4c-2-1.9-4.5-3.3-7.3-4
			c-2.8-0.9-5.7-1.3-9-1.3c-3.2,0-5.9,0.3-8.4,1c-1.3,0.3-2.5,0.7-3.6,1.1V91h-14.5l-0.3,0.8c0.3,1.2,0.5,2.8,0.6,4.7
			c0.1,2,0.2,4,0.3,6.1c0.1,2,0.1,3.7,0.1,5v58.2h13.8v-42.3c0.1,0,0.1,0,0.2-0.1c1.3-0.3,2.7-0.6,4.1-0.9c1.5-0.3,3-0.4,4.3-0.4
			c2.5,0,4.7,0.4,6.5,1.2c1.9,0.7,3.4,2.1,4.4,4c1,1.9,1.6,4.6,1.6,8.1v30.3H500.7z"/>
		<path class="st0" d="M543,90.4c-4.8,0-8.9,0.8-12.2,2.4c-3.3,1.6-5.9,4-7.8,7.3c-1.7,3.2-2.6,7.2-2.6,12h-8.6v11h8.6v42.7h13.8
			v-42.7h13.7v-11h-13.7c0.1-3.8,0.8-6.5,2.2-8.3c1.5-1.8,4-2.8,7.5-2.8c1.4,0,2.6,0.1,3.5,0.4c1,0.2,1.9,0.5,2.7,0.8h1V91.6
			c-1-0.4-2.2-0.7-3.5-0.9C546.2,90.5,544.7,90.4,543,90.4z"/>
		<path class="st0" d="M558,126.4c0.1,2,0.1,3.7,0.1,5v34.4h13.8V130c0-2.8-0.2-5-0.6-6.7c0.8-0.2,1.6-0.3,2.4-0.5
			c2-0.3,4.1-0.5,6.2-0.5c1.2,0,2.4,0.1,3.6,0.2c1.2,0.1,2.4,0.2,3.3,0.5h0.9v-11.2c-1.4-0.2-2.8-0.3-4.1-0.4
			c-1.4-0.1-2.7-0.1-3.8-0.1c-2.8,0-5.5,0.2-8.3,0.5c-2.7,0.3-5.3,0.7-7.8,1.2c-2.4,0.5-4.6,1.1-6.4,1.8l-0.3,0.8
			c0.3,1.2,0.5,2.8,0.6,4.8C557.8,122.3,557.9,124.3,558,126.4z"/>
		<path class="st0" d="M636.7,166c2.7-0.5,5-1.2,6.8-2v-11.1h-1c-1.4,0.8-3.3,1.5-5.7,2.1c-2.4,0.6-5.3,0.9-8.5,0.9
			c-3.6,0-6.8-0.5-9.6-1.5c-2.8-1-4.9-2.6-6.5-4.9c-1.1-1.7-1.8-3.9-2.2-6.5H647l0.1-3.3c0.3-5.6-0.4-10.6-2.1-15
			c-1.6-4.4-4.3-7.8-8.1-10.2c-3.7-2.5-8.6-3.7-14.6-3.7c-5.3,0-10,1.1-14,3.4c-3.9,2.2-7,5.5-9.2,9.7c-2.2,4.1-3.3,9.1-3.3,14.9
			c0,4.9,0.7,9.1,2.1,12.6c1.4,3.5,3.5,6.5,6.2,8.8c2.7,2.2,6,3.9,9.8,5c3.9,1.1,8.3,1.7,13.2,1.7C630.9,166.8,634,166.6,636.7,166z
			 M615.9,122.6c1.9-1,4-1.6,6.4-1.6c3.8,0,6.6,1,8.5,3.2c1.9,2.1,2.9,5.2,2.9,9.2v0.6h-23.6c0.2-2.5,0.7-4.6,1.4-6.2
			C612.6,125.3,614,123.6,615.9,122.6z"/>
		<path class="st0" d="M707.7,124.8c-1.6-4.4-4.3-7.8-8.1-10.2c-3.7-2.5-8.6-3.7-14.6-3.7c-5.3,0-10,1.1-14,3.4
			c-3.9,2.2-7,5.5-9.2,9.7c-2.2,4.1-3.3,9.1-3.3,14.9c0,4.9,0.7,9.1,2.1,12.6c1.4,3.5,3.5,6.5,6.2,8.8c2.7,2.2,6,3.9,9.8,5
			c3.9,1.1,8.3,1.7,13.2,1.7c3.6,0,6.7-0.3,9.4-0.8c2.7-0.5,5-1.2,6.8-2v-11.1h-1c-1.4,0.8-3.3,1.5-5.7,2.1
			c-2.4,0.6-5.3,0.9-8.5,0.9c-3.6,0-6.8-0.5-9.6-1.5c-2.8-1-4.9-2.6-6.5-4.9c-1.1-1.7-1.8-3.9-2.2-6.5h36.9l0.1-3.3
			C710.1,134.1,709.4,129.1,707.7,124.8z M696.3,133.9h-23.6c0.2-2.5,0.7-4.6,1.4-6.2c1.1-2.4,2.6-4.1,4.4-5.1c1.9-1,4-1.6,6.4-1.6
			c3.8,0,6.6,1,8.5,3.2c1.9,2.1,2.9,5.2,2.9,9.2V133.9z"/>
	</g>
	<path class="st1" d="M150.8,91.4c-14.3,0-25.8,11.6-25.8,25.8l0,0h95.9c14.3,0,25.8-11.6,25.8-25.8l0,0H150.8z"/>
	<path class="st1" d="M125,117.2c0-14.3,11.6-25.8,25.8-25.8l0,0v95.9c0,14.3-11.6,25.8-25.8,25.8l0,0V117.2z"/>
	<path class="st2" d="M159,125.8v25.8h30.1c14.3,0,25.8-11.6,25.8-25.8l0,0H159z"/>
	<path class="st3" d="M90.1,151.6c0-14.3,11.6-25.8,25.8-25.8l0,0v95.9c0,14.3-11.6,25.8-25.8,25.8l0,0V151.6z"/>
</g>
</svg>
