<?xml version="1.0" encoding="utf-8"?>
<!-- Generator: Adobe Illustrator 26.0.1, SVG Export Plug-In . SVG Version: 6.00 Build 0)  -->
<svg version="1.1" id="Layer_1" xmlns="http://www.w3.org/2000/svg" xmlns:xlink="http://www.w3.org/1999/xlink" x="0px" y="0px"
	 viewBox="0 0 800 800" style="enable-background:new 0 0 800 800;" xml:space="preserve">
<style type="text/css">
	.st0{fill:#04AB61;}
	.st1{fill-rule:evenodd;clip-rule:evenodd;fill:#FBB016;}
	.st2{fill:#FBB016;}
</style>
<g>
	<path class="st0" d="M354.9,200c-36.5,0-66.2,29.6-66.2,66.2h245.6c36.5,0,66.2-29.6,66.2-66.2H354.9z"/>
	<path class="st0" d="M288.8,266.2c0-36.5,29.6-66.2,66.2-66.2v245.6c0,36.5-29.6,66.2-66.2,66.2V266.2z"/>
	<path class="st1" d="M375.9,288.2v66.2h77.2c36.5,0,66.2-29.6,66.2-66.2l0,0H375.9z"/>
	<path class="st2" d="M199.5,354.4c0-36.5,29.6-66.2,66.2-66.2v245.6c0,36.5-29.6,66.2-66.2,66.2V354.4z"/>
</g>
</svg>
