<?xml version="1.0" encoding="iso-8859-1"?>
<!-- Generator: Adobe Illustrator 19.0.0, SVG Export Plug-In . SVG Version: 6.00 Build 0)  -->
<svg xmlns="http://www.w3.org/2000/svg" xmlns:xlink="http://www.w3.org/1999/xlink" version="1.1" id="Capa_1" x="0px" y="0px" viewBox="0 0 462.994 462.994" style="enable-background:new 0 0 462.994 462.994;" xml:space="preserve">
<path style="fill:#2A98F2;" d="M284.526,199.314c-40.96,0-72.411,33.28-72.411,72.411c0,40.96,31.451,72.046,75.703,72.046  c36.937,0,68.023-30.72,68.023-70.949C355.84,231.131,324.754,199.314,284.526,199.314z"/>
<g>
	<path style="fill:#64C0FF;" d="M337.554,320c26.331-26.331,26.697-69.851-1.829-98.377c-29.623-29.623-73.874-29.989-102.4-1.463"/>
	<path style="fill:#64C0FF;" d="M355.474,387.291c-25.6,25.234-51.931,34.377-86.674,34.377c-35.474,0-65.829-11.337-91.429-34.377   c-33.646-29.989-51.2-69.12-51.2-114.834c0-42.057,16.457-79.726,46.811-108.983c27.063-26.697,60.343-40.229,97.646-40.229   c35.474,0,62.537,12.069,82.286,36.937V40.594C317.806,18.286,276.48,5.486,231.863,5.486   C106.789,5.486,5.851,106.789,5.851,231.497c0,125.074,101.303,226.011,226.011,226.011c46.08,0,88.869-13.897,124.709-37.303   h-0.731v-32.914H355.474z"/>
</g>
<g>
	<path style="fill:#2A98F2;" d="M5.851,245.394c7.314,118.491,105.326,212.114,225.646,212.114c24.869,0,49.006-4.023,71.314-11.703   c-10.606,2.56-21.943,3.657-34.011,3.657c-35.474,0-65.829-11.337-91.429-34.377c-33.646-29.989-51.2-69.12-51.2-114.834   c0-4.754,0.366-9.143,0.731-13.897c-0.366-4.754-0.731-9.509-0.731-14.263c0-42.057,16.457-79.726,46.811-108.983   c27.063-26.697,60.343-40.229,97.646-40.229c35.474,0,62.537,12.069,82.286,36.937V68.389   C317.806,46.08,276.48,33.28,231.863,33.28C111.177,33.646,13.166,127.269,5.851,245.394z"/>
	<path style="fill:#2A98F2;" d="M355.474,415.451c-8.046,7.68-15.726,13.897-24.137,19.017c8.411-4.023,16.457-8.777,24.137-13.897   v-0.366V415.451z"/>
	<path style="fill:#2A98F2;" d="M438.491,322.194c12.069-27.794,19.017-58.514,19.017-90.697s-6.949-62.903-19.017-90.697"/>
</g>
<g>
	<path style="fill:#64C0FF;" d="M438.491,140.8V14.994l-85.943,17.92v7.68C390.217,64.731,420.571,99.474,438.491,140.8z"/>
	<path style="fill:#64C0FF;" d="M438.491,322.194c-17.554,40.229-46.446,74.24-82.651,98.011h82.651V322.194z"/>
</g>
<g>
	<path style="fill:#33363A;" d="M287.817,349.257c-46.446,0-81.189-33.28-81.189-77.531c0-43.154,35.109-77.897,77.897-77.897   c43.886,0,76.8,34.011,76.8,78.994C361.326,315.977,329.143,349.257,287.817,349.257z M284.526,204.8   c-36.937,0-66.926,29.989-66.926,66.926c0,38.4,29.623,66.56,70.217,66.56c35.109,0,62.537-28.891,62.537-65.463   C350.354,234.057,322.194,204.8,284.526,204.8z"/>
	<path style="fill:#33363A;" d="M337.554,325.486c-1.463,0-2.926-0.366-4.023-1.463c-2.194-2.194-2.194-5.486,0-7.68   c24.869-24.869,24.137-64.731-1.829-90.331c-13.166-13.166-30.354-20.846-47.909-20.846c-17.189,0-34.011,6.583-46.811,19.383   c-2.194,2.194-5.486,2.194-7.68,0s-2.194-5.486,0-7.68c14.994-14.994,34.377-23.04,54.857-22.674   c20.48,0.366,40.229,8.777,55.589,24.137c14.629,14.629,23.04,33.646,23.04,53.76c0.366,19.749-7.314,38.4-21.211,52.297   C340.48,325.12,339.017,325.486,337.554,325.486z"/>
	<path style="fill:#33363A;" d="M231.497,462.994C103.863,462.994,0,359.131,0,231.497S103.863,0,231.497,0   c43.886,0,87.04,12.434,123.977,36.206c1.463,1.097,2.56,2.926,2.56,4.754v119.589c0,2.194-1.463,4.389-3.657,5.12   s-4.754,0-6.217-1.829c-18.286-23.406-43.886-35.109-77.897-35.109c-35.84,0-67.291,13.166-93.623,38.766   c-29.623,28.526-45.349,64.731-45.349,104.96c0,44.617,16.457,81.92,49.371,110.811c24.503,21.943,54.126,32.914,87.771,32.914   c35.109,0,58.88-9.509,82.651-32.914c1.463-1.463,4.023-1.829,5.851-1.097c2.194,0.731,3.291,2.926,3.291,5.12v29.623   c0.366,0.366,0.366,0.731,0.731,1.463c0.731,2.194-0.366,4.754-2.194,6.217C321.097,449.829,277.211,462.994,231.497,462.994z    M231.497,10.971c-121.783,0-220.526,99.109-220.526,220.526s99.109,220.526,220.526,220.526   c42.057,0,83.017-12.069,118.491-34.377v-17.92c-23.04,19.017-47.909,27.429-81.189,27.429c-36.571,0-68.754-12.069-95.086-35.84   c-34.743-30.72-53.029-72.046-53.029-119.223c0-43.154,16.823-82.286,48.64-113.006c28.16-27.794,62.537-41.691,101.303-41.691   c31.817,0,57.417,9.143,76.8,28.16v-102.4C312.32,22.309,272.457,10.971,231.497,10.971z"/>
	<path style="fill:#33363A;" d="M438.491,327.68c-0.731,0-1.463,0-2.194-0.366c-2.926-1.097-4.023-4.389-2.926-7.314   c12.434-28.16,18.651-57.783,18.651-88.503s-6.217-60.343-18.651-88.503c-1.097-2.926,0-5.851,2.926-7.314   c2.926-1.097,5.851,0,7.314,2.926c12.8,29.257,19.383,60.709,19.383,92.891s-6.583,63.269-19.383,92.891   C442.88,326.583,440.686,327.68,438.491,327.68z"/>
	<path style="fill:#33363A;" d="M438.491,146.286c-2.194,0-4.023-1.097-5.12-3.291c-17.554-40.229-46.811-74.24-84.114-98.011   c-1.463-1.097-2.56-2.926-2.56-4.754v-7.68c0-2.56,1.829-4.754,4.389-5.486l85.943-17.92c1.463-0.366,3.291,0,4.754,1.097   c1.097,1.097,2.194,2.56,2.194,4.389v125.806c0,2.56-1.829,4.754-4.389,5.486C439.589,146.286,438.857,146.286,438.491,146.286z    M358.034,37.669c31.451,20.48,57.051,47.909,74.971,80.091V21.943L358.034,37.669L358.034,37.669z"/>
	<path style="fill:#33363A;" d="M438.491,425.691H355.84c-2.56,0-4.389-1.463-5.12-4.023c-0.731-2.194,0.366-4.754,2.194-6.217   c35.474-23.406,63.269-56.686,80.457-95.451c1.097-2.56,3.657-3.657,6.217-3.291c2.56,0.366,4.389,2.926,4.389,5.486v98.011   C443.977,423.131,441.783,425.691,438.491,425.691z M373.394,414.72h59.977V345.6C418.011,372.297,397.531,395.703,373.394,414.72z   "/>
</g>
<g>
</g>
<g>
</g>
<g>
</g>
<g>
</g>
<g>
</g>
<g>
</g>
<g>
</g>
<g>
</g>
<g>
</g>
<g>
</g>
<g>
</g>
<g>
</g>
<g>
</g>
<g>
</g>
<g>
</g>
</svg>
