<?xml version="1.0" encoding="iso-8859-1"?>
<!-- Generator: Adobe Illustrator 19.0.0, SVG Export Plug-In . SVG Version: 6.00 Build 0)  -->
<svg xmlns="http://www.w3.org/2000/svg" xmlns:xlink="http://www.w3.org/1999/xlink" version="1.1" id="Capa_1" x="0px" y="0px" viewBox="0 0 467.853 467.853" style="enable-background:new 0 0 467.853 467.853;" xml:space="preserve">
<path style="fill:#EDC211;" d="M454.375,126.223l-68.754-51.931c-1.463-1.463-3.291-2.926-5.12-4.023L334.055,35.16  c-3.291-2.56-7.68-4.023-12.069-4.023H145.712c-4.389,0-8.411,1.463-12.069,4.023l-120.32,91.063  c-8.777,6.583-10.606,19.017-3.657,27.794l208.457,274.286c8.046,10.606,23.406,10.606,31.451,0l208.457-274.286  C464.615,145.606,463.152,133.172,454.375,126.223z M152.295,71h163.109l22.309,17.189l-28.891,21.577l-141.897-1.097l-35.84-21.211  L152.295,71z M53.186,145.972l43.52-32.914l36.206,21.577l-41.691,61.806L53.186,145.972z M233.849,383.686L125.232,241.058h216.869  L233.849,383.686z M135.838,201.195l35.84-53.029l133.12,1.097l37.303,52.297H135.838V201.195z M382.329,188.76l-39.497-54.857  l28.16-20.846l43.886,33.28L382.329,188.76z"/>
<path style="fill:#E2A60E;" d="M454.375,126.223l-68.754-51.931c-1.463-1.463-3.291-2.926-5.12-4.023L334.055,35.16  c-3.291-2.56-7.68-4.023-12.069-4.023h-88.869v39.497h82.286l22.309,17.189L308.821,109.4l-75.703-0.731v39.863l72.046,0.731  l37.303,52.297H233.118v39.497h109.349L233.849,383.686l-0.731-1.097v53.394c6.217,0.366,12.434-2.194,16.457-7.68l208.457-274.286  C464.615,145.606,463.152,133.172,454.375,126.223z M382.329,188.76l-39.497-54.857l28.16-20.846l43.886,33.28L382.329,188.76z"/>
<path style="fill:#33363A;" d="M233.849,441.835L233.849,441.835c-8.046,0-15.36-3.657-20.114-9.874L5.278,157.675  c-4.023-5.486-5.851-12.069-5.12-18.651c1.097-6.583,4.389-12.8,9.874-16.823l120.32-91.063c4.389-3.291,9.874-5.12,15.36-5.12  h176.274c5.486,0,10.971,1.829,15.36,5.12l46.08,34.743c2.194,1.097,4.023,2.56,5.851,4.389l68.389,51.931l0,0  c5.486,4.023,8.777,9.874,9.874,16.823c1.097,6.583-0.731,13.531-4.754,18.651L254.329,431.96  C249.209,438.178,241.895,441.835,233.849,441.835z M145.712,36.623c-3.291,0-6.217,1.097-8.777,2.926l-120.32,91.063  c-2.926,2.194-5.12,5.851-5.486,9.509c-0.366,3.657,0.366,7.68,2.926,10.606l208.457,274.286c2.56,3.657,6.949,5.486,11.337,5.486  l0,0c4.389,0,8.777-2.194,11.337-5.486l208.457-274.286c2.194-2.926,3.291-6.949,2.926-10.606c-0.366-3.657-2.56-7.314-5.486-9.509  l-68.754-51.931c-0.366-0.366-0.366-0.366-0.731-0.731c-1.097-1.097-2.194-2.194-3.657-2.926c-0.366,0-0.731-0.366-0.731-0.366  l-46.446-35.109c-2.56-1.829-5.486-2.926-8.777-2.926H145.712L145.712,36.623z M233.849,389.172L233.849,389.172  c-1.829,0-3.291-0.731-4.389-2.194L120.844,244.349c-1.097-1.829-1.463-4.023-0.366-5.851c1.097-1.829,2.926-2.926,4.754-2.926  h216.869c2.194,0,4.023,1.097,4.754,2.926s0.731,4.023-0.366,5.851L237.872,386.978C237.141,388.44,235.678,389.172,233.849,389.172  z M136.569,246.543l97.28,128l97.28-128H136.569z M342.466,206.68H135.838c-2.194,0-4.023-1.097-4.754-2.926  c-1.097-1.829-0.731-4.023,0.366-5.486l35.84-53.029c1.097-1.463,2.56-2.56,4.389-2.56l0,0l133.12,1.097  c1.829,0,3.291,0.731,4.389,2.194l37.303,52.297c1.097,1.829,1.463,4.023,0.366,5.851  C345.758,205.949,344.661,206.68,342.466,206.68z M146.078,195.709h185.417l-29.623-41.326l-127.634-1.097L146.078,195.709z   M91.586,201.926c-1.829,0-3.291-0.731-4.389-2.194l-38.4-50.469c-0.731-1.097-1.097-2.56-1.097-4.023  c0.366-1.463,1.097-2.926,2.194-3.657l43.52-32.914c1.829-1.463,4.023-1.463,6.217-0.366l36.206,21.577  c1.463,0.731,2.194,2.194,2.56,3.657s0,2.926-0.731,4.389l-41.691,61.806C94.878,200.829,93.415,201.926,91.586,201.926  L91.586,201.926z M60.866,147.069l30.354,39.863l34.011-50.834l-28.16-16.823L60.866,147.069z M382.329,194.246  C381.964,194.246,381.964,194.246,382.329,194.246c-1.829,0-3.291-0.731-4.389-2.194l-39.497-54.857  c-1.829-2.56-1.097-5.851,1.097-7.68l28.16-20.846c1.829-1.463,4.754-1.463,6.583,0l43.886,33.28  c1.097,0.731,1.829,2.194,2.194,3.657c0.366,1.463-0.366,2.926-1.097,4.023l-32.183,42.423  C385.621,193.149,383.792,194.246,382.329,194.246z M350.512,135l31.817,44.617l24.503-32.183l-36.206-27.429L350.512,135z   M308.821,114.886L308.821,114.886l-141.897-1.097c-1.097,0-1.829-0.366-2.926-0.731l-35.84-21.211  c-1.463-1.097-2.56-2.56-2.56-4.389s0.731-3.657,2.194-4.754l21.211-16.091c1.097-0.731,2.194-1.097,3.291-1.097h163.109  c1.097,0,2.194,0.366,3.291,1.097l22.309,17.189c1.463,1.097,2.194,2.56,2.194,4.389s-0.731,3.291-2.194,4.389l-29.257,21.577  C311.015,114.52,309.918,114.886,308.821,114.886z M168.386,102.818l138.606,1.097l21.577-16.091l-14.994-11.337H154.123  l-13.531,10.24L168.386,102.818z"/>
<g>
</g>
<g>
</g>
<g>
</g>
<g>
</g>
<g>
</g>
<g>
</g>
<g>
</g>
<g>
</g>
<g>
</g>
<g>
</g>
<g>
</g>
<g>
</g>
<g>
</g>
<g>
</g>
<g>
</g>
</svg>
