<?xml version="1.0" encoding="iso-8859-1"?>
<!-- Generator: Adobe Illustrator 19.0.0, SVG Export Plug-In . SVG Version: 6.00 Build 0)  -->
<svg xmlns="http://www.w3.org/2000/svg" xmlns:xlink="http://www.w3.org/1999/xlink" version="1.1" id="Capa_1" x="0px" y="0px" viewBox="0 0 438.493 438.493" style="enable-background:new 0 0 438.493 438.493;" xml:space="preserve">
<path style="fill:#33363A;" d="M416.183,136.412c-5.486-12.8-12.069-24.869-19.749-36.206s-16.457-21.943-25.966-31.451  c-9.509-9.509-20.48-18.286-31.451-25.966c-11.337-7.68-23.771-14.263-36.206-19.749c-12.8-5.486-26.331-9.509-40.229-12.434  c-13.897-2.926-28.526-4.389-43.154-4.389s-28.891,1.463-43.154,4.389c-13.897,2.926-27.063,6.949-40.229,12.434  c-12.8,5.486-24.869,12.069-36.206,19.749S77.896,59.246,68.388,68.755s-18.286,20.48-25.966,31.451  c-7.68,11.337-14.263,23.771-19.749,36.206c-5.486,12.8-9.509,26.331-12.434,40.229C7.313,190.538,5.85,205.167,5.85,219.43  c0,14.629,1.463,28.891,4.389,43.154c2.926,13.897,6.949,27.063,12.434,40.229c5.486,12.8,12.069,24.869,19.749,36.206  s16.457,21.943,25.966,31.451c9.509,9.509,20.48,18.286,31.451,25.966c11.337,7.68,23.771,14.263,36.206,19.749  c12.8,5.486,26.331,9.509,40.229,12.434c13.897,2.926,28.526,4.389,43.154,4.389s28.891-1.463,43.154-4.389  c13.897-2.926,27.063-6.949,40.229-12.434c12.8-5.486,24.869-12.069,36.206-19.749s21.943-16.457,31.451-25.966  c9.509-9.874,18.286-20.114,25.966-31.451c7.68-11.337,14.263-23.771,19.749-36.206c5.486-12.8,9.509-26.331,12.434-40.229  c2.926-13.897,4.389-28.526,4.389-43.154s-1.463-28.891-4.389-42.789C426.057,162.744,421.669,149.212,416.183,136.412z"/>
<path style="fill:#4C5054;" d="M346.331,54.492c0.731-1.829,1.463-3.291,2.194-5.12c-3.291-2.56-6.217-4.754-9.509-6.949  c-11.337-7.68-23.771-14.263-36.206-19.749c-12.8-5.486-26.331-9.509-40.229-12.434c-13.897-2.926-28.526-4.389-43.154-4.389  s-28.891,1.463-43.154,4.389c-13.897,2.926-27.063,6.949-40.229,12.434c-12.8,5.486-24.869,12.069-36.206,19.749  S77.895,58.88,68.387,68.389S50.103,88.87,42.423,99.841c-7.68,11.337-14.263,23.771-19.749,36.206  c-0.731,1.829-1.463,3.291-2.194,5.12c3.291,2.56,6.217,4.754,9.509,6.949c11.337,7.68,23.771,14.263,36.206,19.749  c12.8,5.486,26.331,9.509,40.229,12.434c14.263,2.926,28.526,4.389,43.154,4.389s28.891-1.463,43.154-4.389  c13.897-2.926,27.063-6.949,40.229-12.434c12.8-5.486,24.869-12.069,36.206-19.749c11.337-7.68,21.943-16.457,31.451-25.966  c9.509-9.874,18.286-20.48,25.966-31.451C334.629,79.361,341.211,66.927,346.331,54.492z"/>
<path style="fill:#F26B95;" d="M416.183,136.412c-5.486-12.8-12.069-24.869-19.749-36.206s-16.457-21.943-25.966-31.451  c-9.509-9.509-20.48-18.286-31.451-25.966c-11.337-7.68-23.771-14.263-36.206-19.749c-12.8-5.486-26.331-9.509-40.229-12.434  c-13.897-2.926-28.526-4.389-43.154-4.389s-28.891,1.463-43.154,4.389c-13.897,2.926-27.063,6.949-40.229,12.434  c-12.8,5.486-24.869,12.069-36.206,19.749S77.896,59.246,68.388,68.755s-18.286,20.48-25.966,31.451  c-7.68,11.337-14.263,23.771-19.749,36.206c-5.486,12.8-9.509,26.331-12.434,40.229C7.313,190.538,5.85,205.167,5.85,219.43  c0,14.629,1.463,28.891,4.389,43.154c2.926,13.897,6.949,27.063,12.434,40.229c5.486,12.8,12.069,24.869,19.749,36.206  s16.457,21.943,25.966,31.451c9.509,9.509,20.48,18.286,31.451,25.966c11.337,7.68,23.771,14.263,36.206,19.749  c12.8,5.486,26.331,9.509,40.229,12.434c13.897,2.926,28.526,4.389,43.154,4.389s28.891-1.463,43.154-4.389  c13.897-2.926,27.063-6.949,40.229-12.434c12.8-5.486,24.869-12.069,36.206-19.749s21.943-16.457,31.451-25.966  c9.509-9.874,18.286-20.114,25.966-31.451c7.68-11.337,14.263-23.771,19.749-36.206c5.486-12.8,9.509-26.331,12.434-40.229  c2.926-13.897,4.389-28.526,4.389-43.154s-1.463-28.891-4.389-42.789C426.057,162.744,421.669,149.212,416.183,136.412z   M219.429,36.938c46.08,0,88.503,17.189,120.32,45.349c-0.366,0.731-26.331,40.229-95.451,66.194  c-31.086-57.417-65.463-102.766-68.023-106.423C190.171,38.767,204.434,36.938,219.429,36.938z M175.909,42.424  C175.909,42.424,175.543,42.424,175.909,42.424c0,0-0.366,0-0.731,0C175.177,42.424,175.543,42.424,175.909,42.424z M141.531,54.492  c2.56,3.291,36.206,49.006,67.657,104.96c-87.771,23.406-163.474,22.309-168.594,22.309C52.663,125.441,90.697,78.63,141.531,54.492  z M83.749,341.212c-28.891-32.183-46.811-74.971-46.811-121.783c0-1.829,0-4.023,0-5.851c3.291,0,93.257,2.194,187.246-25.966  c5.12,10.24,10.24,20.48,14.629,31.086c-2.56,0.731-4.754,1.463-7.314,2.194C133.486,252.71,83.749,341.212,83.749,341.212  L83.749,341.212z M219.429,401.921c-43.154,0-82.651-14.994-113.737-39.863c-0.731-0.366-1.463-1.097-2.194-1.829  c1.097,0.731,1.829,1.463,2.194,1.829c1.097,0.731,1.829,1.463,1.829,1.463s35.109-76.434,142.994-114.103  c0.366,0,0.731-0.366,1.097-0.366c25.6,66.56,36.206,122.514,39.131,138.606C268.8,396.801,244.663,401.921,219.429,401.921z   M321.463,370.835c-1.829-10.971-11.703-64.366-35.474-130.194c58.88-9.509,110.08,6.583,113.737,8.046  C391.314,299.155,362.423,343.041,321.463,370.835z M274.651,211.75c-1.463-3.291-2.56-6.217-4.023-9.509  c-3.657-8.777-8.046-17.92-12.069-26.331c72.046-29.257,101.303-71.68,101.669-72.046c25.6,31.086,40.96,70.583,41.326,114.103  C398.994,216.87,337.554,203.704,274.651,211.75z"/>
<g>
	<path style="fill:#33363A;" d="M219.429,438.492c-14.994,0-29.623-1.463-44.251-4.389c-14.263-2.926-27.794-7.314-41.326-12.8   c-12.8-5.486-25.6-12.069-37.303-20.114S73.874,384.367,64,374.492c-9.874-9.874-19.017-20.846-26.697-32.549   c-8.046-11.703-14.629-24.137-20.114-37.303s-9.874-27.063-12.8-41.326C1.463,249.052,0,234.058,0,219.064   s1.463-29.623,4.389-43.886s7.314-28.16,12.8-41.326c5.486-12.8,12.069-25.6,20.114-37.303S54.126,73.875,64,64.001   s20.846-19.017,32.549-26.697c11.703-8.046,24.137-14.629,37.303-20.114c13.531-5.486,27.429-9.874,41.326-12.8   c28.891-5.851,59.246-5.851,88.137,0c13.897,2.926,27.794,6.949,41.326,12.8c13.166,5.486,25.6,12.434,37.303,20.114   s22.674,16.823,32.549,26.697c9.874,9.874,19.017,20.846,26.697,32.549c8.046,11.703,14.629,24.137,20.114,37.303l0,0   c5.486,13.166,9.874,27.063,12.8,41.326c2.926,14.629,4.389,29.257,4.389,43.886s-1.463,29.623-4.389,44.251   c-2.926,13.897-7.314,27.794-12.8,41.326c-5.486,12.8-12.069,25.6-20.114,37.303c-7.68,11.337-16.457,22.309-26.697,32.549   c-9.874,9.874-20.846,19.017-32.549,26.697c-11.703,8.046-24.137,14.629-37.303,20.114c-13.166,5.486-27.063,9.874-41.326,12.8   C249.051,437.03,234.423,438.492,219.429,438.492z M219.429,11.338c-13.897,0-28.16,1.463-42.057,4.389   c-13.166,2.56-26.331,6.949-39.131,12.069c-12.434,5.12-24.137,11.703-35.474,19.017c-10.971,7.314-21.211,16.091-30.72,25.234   c-9.509,9.509-17.92,19.749-25.234,30.72c-7.68,11.337-13.897,23.04-19.017,35.474c-5.486,12.434-9.509,25.6-12.069,39.131   c-2.926,13.531-4.023,27.794-4.023,41.691c0,14.263,1.463,28.16,4.023,42.057c2.926,13.531,6.949,26.697,12.069,39.131   c5.12,12.434,11.703,24.137,19.017,35.474c7.314,10.971,16.091,21.211,25.234,30.72c9.509,9.143,19.749,17.92,30.72,25.234   c11.337,7.68,23.04,13.897,35.474,19.017c12.434,5.486,25.6,9.509,39.131,12.069c27.429,5.486,56.686,5.486,83.749,0   c13.531-2.926,26.697-6.949,39.131-12.069c12.434-5.12,24.137-11.703,35.474-19.017c10.971-7.314,21.577-16.091,30.72-25.234   c9.509-9.509,18.286-20.114,25.234-30.72c7.68-11.337,13.897-23.04,19.017-35.474c5.486-12.8,9.509-25.966,12.069-39.131   c2.926-13.897,4.389-27.794,4.389-42.057c0-13.897-1.463-28.16-4.389-41.691c-2.56-13.166-6.949-26.331-12.069-39.131l0,0   c-5.12-12.069-11.703-24.137-19.017-35.474c-7.314-10.971-15.726-21.211-25.234-30.72s-19.749-17.92-30.72-25.234   s-23.04-13.897-35.474-19.383c-12.8-5.486-25.966-9.509-39.131-12.069C247.589,12.801,233.326,11.338,219.429,11.338z    M219.429,407.407c-43.154,0-83.749-14.263-117.394-40.96c-0.366-0.366-0.731-0.366-1.097-0.731   c-0.366-0.366-0.731-0.731-1.463-1.097l0,0c-1.463-1.097-2.194-2.56-2.194-4.389c0-1.097,0.366-2.56,1.097-3.291   c1.463-1.829,4.389-2.56,6.583-1.463c10.606-19.017,50.469-78.629,143.36-110.811c0.366,0,0.731-0.366,1.097-0.366   c2.926-0.731,5.851,0.366,6.949,3.291c25.6,66.926,36.571,123.611,39.131,139.703c0.366,2.56-1.097,5.12-3.291,5.851   C269.531,402.287,244.663,407.407,219.429,407.407z M114.469,361.692c30.72,22.674,66.926,34.743,104.96,34.743   c22.309,0,44.251-4.023,65.097-12.434c-3.657-19.383-13.897-69.486-35.84-128C160.549,287.818,122.88,346.332,114.469,361.692z    M321.463,376.321c-0.731,0-1.463,0-2.194-0.366c-1.829-0.731-2.926-2.194-3.291-4.023c-1.829-10.24-11.337-64-35.109-129.463   c-0.731-1.463-0.366-3.291,0.366-4.754c0.731-1.463,2.194-2.56,4.023-2.56c59.611-9.509,110.446,6.217,116.297,8.046   c2.56,0.731,4.023,3.291,3.657,6.217c-8.046,50.834-37.669,96.914-80.457,126.171C323.657,375.955,322.56,376.321,321.463,376.321z    M293.303,245.03c18.651,52.663,28.16,96.914,31.817,116.297c35.474-26.697,59.977-65.463,68.023-108.983   C379.977,248.687,339.383,238.812,293.303,245.03z M83.749,346.698c-1.463,0-2.926-0.731-4.023-1.829   c-31.086-34.377-48.274-78.994-48.274-125.44c0-1.463,0-2.926,0-4.389v-1.463c0-2.926,2.56-5.486,5.486-5.486   c3.657,0,93.257,1.829,185.417-25.6c2.56-0.731,5.12,0.366,6.583,2.926c5.486,10.606,10.606,21.211,14.994,31.451   c0.731,1.463,0.731,3.291,0,4.754s-1.829,2.56-3.657,2.926c-2.194,0.731-4.754,1.463-6.949,2.194   c-91.429,29.623-140.8,110.08-145.189,117.394c-0.366,0.731-0.731,1.463-1.463,2.194C86.309,346.332,84.846,346.698,83.749,346.698   z M42.423,219.064C42.423,219.43,42.423,219.43,42.423,219.064c0,41.326,14.263,81.189,40.594,112.64   c13.897-21.577,62.537-88.869,147.383-116.297c0.366,0,0.731-0.366,1.463-0.366c-3.291-6.949-6.583-13.897-10.24-20.846   C141.531,217.601,64.366,219.064,42.423,219.064C42.789,219.064,42.423,219.064,42.423,219.064z M401.92,223.087   c-0.366,0-0.731,0-1.097,0c-2.56-0.731-63.634-13.531-125.074-5.851c-2.56,0.366-4.754-1.097-5.851-3.291l-1.463-3.657   c-0.731-1.829-1.463-3.657-2.56-5.486c-3.657-8.411-7.314-16.823-12.069-26.331c-0.731-1.463-0.731-2.926-0.366-4.389   c0.366-1.463,1.829-2.56,2.926-3.291c69.12-28.16,98.011-68.389,99.109-70.217c1.097-1.463,2.56-2.194,4.389-2.194   s3.291,0.731,4.389,1.829c27.063,32.914,42.423,74.606,42.789,117.394c0,1.829-0.731,3.291-2.194,4.389   C404.114,222.721,403.017,223.087,401.92,223.087z M316.343,203.704c35.84,0,66.56,4.754,79.726,7.314   c-1.829-35.474-14.263-70.217-35.84-98.377C349.623,125.075,320,155.43,266.24,178.835c3.657,7.68,6.949,14.629,9.874,21.577   c0.731,1.829,1.463,3.657,2.194,5.486C291.109,204.07,304.274,203.704,316.343,203.704z M44.983,187.247c-1.829,0-3.291,0-4.023,0   c-1.463,0-3.291-0.731-4.023-2.194c-1.097-1.097-1.463-2.926-1.097-4.389C47.909,123.612,86.674,74.607,139.703,49.372   c2.194-1.097,5.12-0.366,6.583,1.829c0.366,0.366,35.109,47.177,68.023,105.691c0.731,1.463,1.097,3.291,0.366,4.754   s-1.829,2.56-3.657,3.291C132.023,185.784,63.269,187.247,44.983,187.247z M139.703,61.441   c-45.714,23.04-79.726,65.463-92.16,114.834c20.114-0.366,82.651-2.56,153.234-20.114   C174.811,110.447,148.114,72.778,139.703,61.441z M244.663,153.967c-1.829,0-3.657-1.097-4.754-2.926   c-27.063-49.737-57.051-91.429-65.829-103.497c-1.829-0.366-3.657-2.194-4.023-4.389c-0.731-2.926,1.097-5.851,4.023-6.583l0,0   c0.366,0,0.731-0.366,1.097-0.366c0,0,0,0,0.366,0c14.629-3.657,29.257-5.12,44.251-5.12c45.714,0,89.6,16.823,123.977,46.811   c2.194,1.829,2.56,4.754,1.097,7.314c-2.925,4.39-29.988,42.79-98.011,68.024C245.76,153.967,245.394,153.967,244.663,153.967z    M185.783,45.715c11.337,15.726,37.303,52.297,61.074,96.183c51.566-20.114,77.166-48.274,85.211-58.514   c-31.817-26.331-71.68-40.96-113.006-40.96C208.091,42.424,197.12,43.521,185.783,45.715z"/>
	<path style="fill:#33363A;" d="M64,438.492H42.423c-2.926,0-5.486-2.56-5.486-5.486s2.56-5.486,5.486-5.486H64   c2.926,0,5.486,2.56,5.486,5.486S66.926,438.492,64,438.492z"/>
	<path style="fill:#33363A;" d="M229.303,438.492H110.811c-2.926,0-5.486-2.56-5.486-5.486s2.56-5.486,5.486-5.486h118.491   c2.926,0,5.486,2.56,5.486,5.486C234.789,435.932,232.229,438.492,229.303,438.492z"/>
	<path style="fill:#33363A;" d="M87.406,438.492h-4.023c-2.926,0-5.486-2.56-5.486-5.486s2.56-5.486,5.486-5.486h4.023   c2.926,0,5.486,2.56,5.486,5.486C92.891,435.932,90.331,438.492,87.406,438.492z"/>
</g>
<g>
</g>
<g>
</g>
<g>
</g>
<g>
</g>
<g>
</g>
<g>
</g>
<g>
</g>
<g>
</g>
<g>
</g>
<g>
</g>
<g>
</g>
<g>
</g>
<g>
</g>
<g>
</g>
<g>
</g>
</svg>
