<?xml version="1.0" encoding="iso-8859-1"?>
<!-- Generator: Adobe Illustrator 19.0.0, SVG Export Plug-In . SVG Version: 6.00 Build 0)  -->
<svg xmlns="http://www.w3.org/2000/svg" xmlns:xlink="http://www.w3.org/1999/xlink" version="1.1" id="Capa_1" x="0px" y="0px" viewBox="0 0 467.384 467.384" style="enable-background:new 0 0 467.384 467.384;" xml:space="preserve">
<polygon style="fill:#38B4F9;" points="234.057,258.844 139.703,337.472 99.474,311.141 99.474,352.832 234.057,434.021   368.274,352.832 368.274,311.141 328.046,337.472 "/>
<polyline style="fill:#1A68E5;" points="234.057,434.021 368.274,352.832 368.274,311.141 328.046,337.472 234.057,258.844 "/>
<polyline style="fill:none;stroke:#33363A;stroke-width:3;stroke-linecap:round;stroke-linejoin:round;stroke-miterlimit:10;" points="  99.474,311.141 99.474,352.832 234.057,434.021 368.274,352.832 368.274,311.141 "/>
<g>
	<path style="fill:#1083DD;" d="M233.691,85.495L233.691,85.495L233.691,85.495z"/>
	<path style="fill:#1083DD;" d="M369.006,169.609L369.006,169.609L369.006,169.609z"/>
	<path style="fill:#1083DD;" d="M233.691,254.09L233.691,254.09L233.691,254.09z"/>
</g>
<polygon style="fill:#1A68E5;" points="233.691,254.09 98.377,169.609 5.486,244.581 139.703,332.718 "/>
<polygon style="fill:#38B4F9;" points="233.691,254.09 233.691,254.09 327.68,332.718 461.897,244.581 369.006,169.609   369.006,169.609 "/>
<polygon style="fill:#1A68E5;" points="327.68,6.501 233.691,85.495 233.691,85.495 233.691,85.495 369.006,169.609   369.006,169.609 369.006,169.609 461.897,95.004 "/>
<polygon style="fill:#38B4F9;" points="233.691,85.495 139.703,6.501 5.486,95.004 98.377,169.609 "/>
<g>
	<path style="fill:none;stroke:#33363A;stroke-width:3;stroke-linecap:round;stroke-linejoin:round;stroke-miterlimit:10;" d="   M233.691,85.495L233.691,85.495L233.691,85.495z"/>
	<path style="fill:none;stroke:#33363A;stroke-width:3;stroke-linecap:round;stroke-linejoin:round;stroke-miterlimit:10;" d="   M369.006,169.609L369.006,169.609L369.006,169.609z"/>
</g>
<g>
	<path style="fill:#33363A;" d="M233.691,259.575c-2.926,0-5.486-2.56-5.486-5.486c0-2.926,2.56-5.486,5.486-5.486l0,0   c2.926,0,5.486,2.56,5.486,5.486C239.177,257.015,236.617,259.575,233.691,259.575z"/>
	<path style="fill:#33363A;" d="M139.703,338.204c-1.097,0-2.194-0.366-2.926-0.731L2.56,249.335c-1.463-1.097-2.56-2.56-2.56-4.389   s0.731-3.291,2.194-4.389l92.891-74.971c1.829-1.463,4.389-1.463,6.217-0.366l135.314,84.114c1.463,1.097,2.56,2.56,2.56,4.389   s-0.731,3.291-1.829,4.754l-93.989,78.994C142.263,337.838,141.166,338.204,139.703,338.204z M14.994,244.215l124.343,81.92   l84.846-71.314l-125.44-78.263L14.994,244.215z"/>
	<path style="fill:#33363A;" d="M327.68,338.204c-1.097,0-2.56-0.366-3.657-1.463l-93.989-78.994   c-1.463-1.097-2.194-2.926-1.829-4.754c0-1.829,1.097-3.291,2.56-4.389l135.314-84.114c1.829-1.097,4.389-1.097,6.217,0.366   l92.891,74.971c1.463,1.097,2.194,2.926,2.194,4.389c0,1.829-1.097,3.291-2.56,4.389l-134.215,88.136   C329.509,338.204,328.777,338.204,327.68,338.204z M242.834,254.455l84.846,71.314l124.343-81.92l-83.749-67.657L242.834,254.455z"/>
	<path style="fill:#33363A;" d="M369.006,175.095c-1.097,0-1.829-0.366-2.926-0.731L230.766,90.249   c-2.194-1.463-2.926-3.657-2.194-6.217c0.366-1.097,1.097-2.194,1.829-2.926l93.623-78.629c1.829-1.463,4.389-1.829,6.583-0.366   l134.217,88.137c1.463,1.097,2.56,2.56,2.56,4.389s-0.731,3.291-2.194,4.389l-92.891,74.971   C371.566,174.729,370.103,175.095,369.006,175.095z M242.834,84.764l125.44,78.263l83.749-67.657L327.68,13.449L242.834,84.764z"/>
	<path style="fill:#33363A;" d="M98.377,175.095c-1.097,0-2.56-0.366-3.291-1.097L2.194,99.027C0.731,97.93,0,96.101,0,94.638   c0-1.829,1.097-3.291,2.56-4.389L136.777,2.112c2.194-1.463,4.754-1.097,6.583,0.366l93.989,78.994   c1.829,1.463,2.56,4.023,1.463,6.217c-0.366,1.097-1.463,2.194-2.56,2.926l-134.949,84.114   C100.571,175.095,99.474,175.095,98.377,175.095z M14.994,95.37l83.749,67.657l125.44-78.263L139.337,13.45L14.994,95.37z"/>
	<path style="fill:#33363A;" d="M234.057,466.204c-1.097,0-1.829-0.366-2.926-0.731L96.549,384.284   c-1.463-1.097-2.56-2.926-2.56-4.754v-41.691c0-2.926,2.56-5.486,5.486-5.486s5.486,2.56,5.486,5.486v38.4l129.097,77.897   l129.097-77.897v-38.766c0-2.926,2.56-5.486,5.486-5.486s5.486,2.56,5.486,5.486v41.691c0,1.829-1.097,3.657-2.56,4.754   l-134.583,81.189C235.886,465.838,234.789,466.204,234.057,466.204z"/>
</g>
<g>
</g>
<g>
</g>
<g>
</g>
<g>
</g>
<g>
</g>
<g>
</g>
<g>
</g>
<g>
</g>
<g>
</g>
<g>
</g>
<g>
</g>
<g>
</g>
<g>
</g>
<g>
</g>
<g>
</g>
</svg>
