<?xml version="1.0" encoding="iso-8859-1"?>
<!-- Generator: Adobe Illustrator 19.0.0, SVG Export Plug-In . SVG Version: 6.00 Build 0)  -->
<svg xmlns="http://www.w3.org/2000/svg" xmlns:xlink="http://www.w3.org/1999/xlink" version="1.1" id="Capa_1" x="0px" y="0px" viewBox="0 0 470.491 470.491" style="enable-background:new 0 0 470.491 470.491;" xml:space="preserve">
<polygon style="fill:#F91D80;" points="430.902,201.326 235.245,5.668 39.588,201.326 39.588,201.69 430.902,201.69 "/>
<polygon style="fill:#FF9064;" points="79.085,161.828 391.405,161.828 235.245,5.668 "/>
<path style="fill:#33363A;" d="M430.902,207.176H39.222c-2.926,0-5.486-2.56-5.486-5.486c0-1.463,0.731-3.291,1.463-4.389  L230.856,1.645c2.194-2.194,5.851-2.194,7.68,0l195.657,195.657c1.097,1.097,1.463,2.56,1.463,4.023v0.366  C436.388,204.982,434.193,207.176,430.902,207.176z M52.388,196.205h365.714L235.245,13.349L52.388,196.205z"/>
<rect x="39.588" y="201.689" style="fill:#FFFFFF;" width="391.68" height="263.31"/>
<polygon style="fill:#DFEFEF;" points="39.588,201.69 39.588,248.503 39.588,248.868 235.245,444.526 430.902,248.868   430.902,248.503 430.902,201.69 "/>
<path style="fill:#33363A;" d="M430.902,470.491H39.222c-2.926,0-5.486-2.56-5.486-5.486V201.69c0-2.926,2.56-5.486,5.486-5.486  h391.68c2.926,0,5.486,2.56,5.486,5.486v263.314C436.388,467.932,434.193,470.491,430.902,470.491z M45.073,459.52h380.343V207.176  H45.073V459.52z"/>
<polygon style="fill:#B0C6C4;" points="39.588,202.057 235.245,398.079 430.902,202.057 430.902,201.69 39.588,201.69 "/>
<polygon style="fill:#A7B7B6;" points="391.405,241.919 79.085,241.919 235.245,398.079 "/>
<g>
	<path style="fill:#33363A;" d="M235.245,403.566L235.245,403.566c-1.463,0-2.926-0.731-4.023-1.463L35.565,206.445   c-1.097-1.097-1.463-2.56-1.463-4.023v-0.366c0-2.926,2.56-5.486,5.486-5.486h391.68c2.926,0,5.486,2.56,5.486,5.486   c0,1.463-0.731,3.291-1.463,4.389L239.633,402.103C238.17,402.834,236.708,403.566,235.245,403.566z M52.388,207.176   l182.857,182.857l182.857-182.857H52.388z"/>
	<path style="fill:#33363A;" d="M170.879,467.566c-1.463,0-2.926-0.366-4.023-1.463c-2.194-2.194-2.194-5.486,0-7.68l69.851-69.851   c2.194-2.194,5.486-2.194,7.68,0s2.194,5.486,0,7.68l-69.851,69.851C173.805,466.834,172.342,467.566,170.879,467.566z"/>
	<path style="fill:#33363A;" d="M404.936,384.549h-65.097c-2.926,0-5.486-2.56-5.486-5.486s2.56-5.486,5.486-5.486h65.097   c2.926,0,5.486,2.56,5.486,5.486S407.862,384.549,404.936,384.549z"/>
	<path style="fill:#33363A;" d="M404.936,409.783h-65.097c-2.926,0-5.486-2.56-5.486-5.486s2.56-5.486,5.486-5.486h65.097   c2.926,0,5.486,2.56,5.486,5.486S407.862,409.783,404.936,409.783z"/>
	<path style="fill:#33363A;" d="M404.936,434.652h-38.034c-2.926,0-5.486-2.56-5.486-5.486s2.56-5.486,5.486-5.486h37.669   c2.926,0,5.486,2.56,5.486,5.486C410.056,432.091,407.862,434.652,404.936,434.652z"/>
</g>
<rect x="101.759" y="140.249" style="fill:#FFFDF5;" width="266.61" height="115.57"/>
<polygon style="fill:#F4F1E6;" points="101.759,256.549 235.245,390.034 367.268,258.012 367.268,193.645 101.759,193.645 "/>
<g>
	<path style="fill:#33363A;" d="M368.73,261.303c-2.926,0-5.486-2.56-5.486-5.486v-110.08h-256v110.08   c0,2.926-2.56,5.486-5.486,5.486s-5.486-2.56-5.486-5.486V140.251c0-2.926,2.56-5.486,5.486-5.486h266.606   c2.926,0,5.486,2.56,5.486,5.486v115.566C374.216,258.743,371.656,261.303,368.73,261.303z"/>
	<path style="fill:#33363A;" d="M316.433,185.233H152.228c-2.926,0-5.486-2.56-5.486-5.486c0-2.926,2.56-5.486,5.486-5.486h164.206   c2.926,0,5.486,2.56,5.486,5.486C321.919,182.673,319.725,185.233,316.433,185.233z"/>
	<path style="fill:#33363A;" d="M316.433,216.686H152.228c-2.926,0-5.486-2.56-5.486-5.486s2.56-5.486,5.486-5.486h164.206   c2.926,0,5.486,2.56,5.486,5.486C321.919,214.126,319.725,216.686,316.433,216.686z"/>
	<path style="fill:#33363A;" d="M316.433,248.136H152.228c-2.926,0-5.486-2.56-5.486-5.486s2.56-5.486,5.486-5.486h164.206   c2.926,0,5.486,2.56,5.486,5.486S319.725,248.136,316.433,248.136z"/>
	<path style="fill:#33363A;" d="M316.433,279.589H152.228c-2.926,0-5.486-2.56-5.486-5.486s2.56-5.486,5.486-5.486h164.206   c2.926,0,5.486,2.56,5.486,5.486C321.919,277.029,319.725,279.589,316.433,279.589z"/>
	<path style="fill:#33363A;" d="M289.736,311.04h-110.08c-2.926,0-5.486-2.56-5.486-5.486s2.56-5.486,5.486-5.486h110.08   c2.926,0,5.486,2.56,5.486,5.486S292.662,311.04,289.736,311.04z"/>
</g>
<g>
</g>
<g>
</g>
<g>
</g>
<g>
</g>
<g>
</g>
<g>
</g>
<g>
</g>
<g>
</g>
<g>
</g>
<g>
</g>
<g>
</g>
<g>
</g>
<g>
</g>
<g>
</g>
<g>
</g>
</svg>
