<?xml version="1.0" encoding="iso-8859-1"?>
<!-- Generator: Adobe Illustrator 19.0.0, SVG Export Plug-In . SVG Version: 6.00 Build 0)  -->
<svg xmlns="http://www.w3.org/2000/svg" xmlns:xlink="http://www.w3.org/1999/xlink" version="1.1" id="Capa_1" x="0px" y="0px" viewBox="0 0 466.652 466.652" style="enable-background:new 0 0 466.652 466.652;" xml:space="preserve">
<rect x="5.486" y="80.09" style="fill:#FFFFFF;" width="455.31" height="306.1"/>
<polygon style="fill:#DFEFEF;" points="5.486,80.091 5.486,134.583 5.486,134.949 233.326,362.423 460.8,134.949 460.8,134.583   460.8,80.091 "/>
<path style="fill:#33363A;" d="M460.8,392.046H5.486c-2.926,0-5.486-2.56-5.486-5.486V80.457c0-2.926,2.56-5.486,5.486-5.486H460.8  c2.926,0,5.486,2.56,5.486,5.486V386.56C466.286,389.486,464.091,392.046,460.8,392.046z M10.971,381.074h444.343V85.943H10.971  V381.074z"/>
<polygon style="fill:#FF9064;" points="5.486,80.823 233.326,308.297 460.8,80.823 460.8,80.091 5.486,80.091 "/>
<polygon style="fill:#F91D80;" points="414.72,126.903 51.931,126.903 233.326,308.297 "/>
<g>
	<path style="fill:#33363A;" d="M233.326,313.783c-1.463,0-2.926-0.731-4.023-1.463L1.829,84.48   c-1.097-1.097-1.463-2.56-1.463-4.023v-0.366c0-2.926,2.56-5.486,5.486-5.486h455.314c2.926,0,5.486,2.56,5.486,5.486v0.366   c0,1.463-0.731,2.926-1.463,4.023l-227.84,227.84C236.251,313.417,234.789,313.783,233.326,313.783z M18.651,85.577   l214.674,214.674L448,85.577H18.651z"/>
	<path style="fill:#33363A;" d="M158.354,388.389c-1.463,0-2.926-0.366-4.023-1.463c-2.194-2.194-2.194-5.486,0-7.68l81.189-81.189   c2.194-2.194,5.486-2.194,7.68,0s2.194,5.486,0,7.68l-81.189,81.189C161.28,388.023,159.817,388.389,158.354,388.389z"/>
	<path style="fill:#33363A;" d="M430.446,291.84h-75.703c-2.926,0-5.486-2.56-5.486-5.486s2.56-5.486,5.486-5.486h75.703   c2.926,0,5.486,2.56,5.486,5.486C435.931,289.28,433.371,291.84,430.446,291.84z"/>
	<path style="fill:#33363A;" d="M430.446,321.097h-75.703c-2.926,0-5.486-2.56-5.486-5.486s2.56-5.486,5.486-5.486h75.703   c2.926,0,5.486,2.56,5.486,5.486C435.931,318.537,433.371,321.097,430.446,321.097z"/>
	<path style="fill:#33363A;" d="M430.446,350.354H386.56c-2.926,0-5.486-2.56-5.486-5.486s2.56-5.486,5.486-5.486h43.886   c2.926,0,5.486,2.56,5.486,5.486C435.931,347.794,433.371,350.354,430.446,350.354z"/>
</g>
<g>
</g>
<g>
</g>
<g>
</g>
<g>
</g>
<g>
</g>
<g>
</g>
<g>
</g>
<g>
</g>
<g>
</g>
<g>
</g>
<g>
</g>
<g>
</g>
<g>
</g>
<g>
</g>
<g>
</g>
</svg>
