<svg version="1.1" id="Layer_1" xmlns:x="ns_extend;" xmlns:i="ns_ai;" xmlns:graph="ns_graphs;" xmlns="http://www.w3.org/2000/svg" xmlns:xlink="http://www.w3.org/1999/xlink" x="0px" y="0px" viewBox="0 0 114.2 181" style="enable-background:new 0 0 114.2 181;" xml:space="preserve">
 <style type="text/css">
  .st0{fill:#F0CDC2;}
	.st1{fill:#1616B4;}
	.st2{fill:#C9B3F5;}
	.st3{fill:#88AAF1;}
	.st4{fill:#B8FAF6;}
 </style>
 <metadata>
  <sfw xmlns="ns_sfw;">
   <slices>
   </slices>
   <sliceSourceBounds bottomLeftOrigin="true" height="181" width="114.2" x="142.9" y="-289.9">
   </sliceSourceBounds>
  </sfw>
 </metadata>
 <g>
  <g>
   <path class="st0" d="M57,180.5v-45.2L1.1,102.7L57,180.5z">
   </path>
   <path class="st1" d="M57,181c-0.2,0-0.3-0.1-0.4-0.2L0.7,103c-0.1-0.2-0.1-0.5,0-0.6c0.2-0.2,0.4-0.2,0.6-0.1l55.9,32.7
			c0.2,0.1,0.2,0.3,0.2,0.4v45.2c0,0.2-0.1,0.4-0.3,0.5C57.1,181,57.1,181,57,181z M2.9,104.3l53.6,74.7v-43.3L2.9,104.3z">
   </path>
  </g>
  <g>
   <path class="st2" d="M57.2,180.5v-45.2l55.9-32.7L57.2,180.5z">
   </path>
   <path class="st1" d="M57.2,181c-0.1,0-0.1,0-0.2,0c-0.2-0.1-0.3-0.3-0.3-0.5v-45.2c0-0.2,0.1-0.3,0.2-0.4l55.9-32.7
			c0.2-0.1,0.5-0.1,0.6,0.1c0.2,0.2,0.2,0.4,0,0.6l-55.9,77.8C57.5,180.9,57.3,181,57.2,181z M57.7,135.6v43.3l53.6-74.7L57.7,135.6
			z">
   </path>
  </g>
  <g>
   <path class="st3" d="M57,124.1V66.5L0.5,91.8L57,124.1z">
   </path>
   <path class="st1" d="M57,124.6c-0.1,0-0.2,0-0.2-0.1L0.3,92.2C0.1,92.1,0,91.9,0,91.8c0-0.2,0.1-0.4,0.3-0.4L56.8,66
			c0.2-0.1,0.3-0.1,0.5,0c0.1,0.1,0.2,0.2,0.2,0.4v57.6c0,0.2-0.1,0.3-0.2,0.4C57.2,124.6,57.1,124.6,57,124.6z M1.6,91.8l54.9,31.4
			v-56L1.6,91.8z">
   </path>
  </g>
  <g>
   <path class="st2" d="M57.2,124.1V66.5l56.5,25.3L57.2,124.1z">
   </path>
   <path class="st1" d="M57.2,124.6c-0.1,0-0.2,0-0.3-0.1c-0.2-0.1-0.2-0.3-0.2-0.4V66.5c0-0.2,0.1-0.3,0.2-0.4
			c0.1-0.1,0.3-0.1,0.5,0l56.5,25.3c0.2,0.1,0.3,0.2,0.3,0.4c0,0.2-0.1,0.4-0.3,0.5l-56.5,32.3C57.4,124.6,57.3,124.6,57.2,124.6z
			 M57.7,67.3v56l54.9-31.4L57.7,67.3z">
   </path>
  </g>
  <g>
   <path class="st0" d="M0.5,91.8L57,0.5v66L0.5,91.8z">
   </path>
   <path class="st1" d="M0.5,92.3c-0.1,0-0.3-0.1-0.4-0.2c-0.1-0.2-0.2-0.4,0-0.6L56.6,0.2C56.7,0,56.9,0,57.1,0
			c0.2,0.1,0.4,0.3,0.4,0.5v66c0,0.2-0.1,0.4-0.3,0.5L0.7,92.2C0.6,92.3,0.6,92.3,0.5,92.3z M56.5,2.3L1.8,90.7l54.7-24.5V2.3z">
   </path>
  </g>
  <g>
   <path class="st4" d="M113.7,91.8L57.2,0.5v66L113.7,91.8z">
   </path>
   <path class="st1" d="M113.7,92.3c-0.1,0-0.1,0-0.2,0L57,66.9c-0.2-0.1-0.3-0.3-0.3-0.5v-66c0-0.2,0.1-0.4,0.4-0.5
			c0.2-0.1,0.4,0,0.6,0.2l56.5,91.3c0.1,0.2,0.1,0.4,0,0.6C114,92.2,113.8,92.3,113.7,92.3z M57.7,66.2l54.7,24.5L57.7,2.3V66.2z">
   </path>
  </g>
 </g>
</svg>