<?xml version="1.0" encoding="iso-8859-1"?>
<!-- Generator: Adobe Illustrator 19.0.0, SVG Export Plug-In . SVG Version: 6.00 Build 0)  -->
<svg xmlns="http://www.w3.org/2000/svg" xmlns:xlink="http://www.w3.org/1999/xlink" version="1.1" id="Capa_1" x="0px" y="0px" viewBox="0 0 472.377 472.377" style="enable-background:new 0 0 472.377 472.377;" xml:space="preserve">
<g>
	<path style="fill:#40E269;" d="M51.138,94.228L51.138,94.228h43.154c2.56,0,4.389-2.194,4.389-4.389c0,0-0.366-37.303-0.366-47.543   l0,0c0-8.411,1.829-15.726,4.754-21.943l1.463-2.926c0,0-0.366,0-0.366,0.366l-84.114,83.749l-0.366,0.366   c1.829-0.731,4.023-2.194,4.389-2.194C31.755,96.057,40.532,94.228,51.138,94.228z"/>
	<path style="fill:#40E269;" d="M363.458,54c-10.606-4.023-32.183-8.046-59.611-10.971c-21.943-2.56-47.543-2.194-62.903-1.829   c-1.829-12.8-10.606-24.503-20.846-28.526c-26.697-10.606-68.023-8.046-78.263-5.12c-8.411,2.194-17.554,7.314-23.04,14.629   c-3.291,5.12-5.851,11.337-5.851,20.114c0,5.12,0,16.823,0.366,27.429c0,10.606,0.366,20.114,0.366,20.114   c0,9.509-7.68,17.189-17.189,17.189H53.332c-9.143,0-16.091,1.463-21.577,4.023s-9.143,5.851-12.069,9.509   c-5.851,7.68-6.949,17.554-6.583,27.063c0,0,0,8.046,2.194,23.406c1.463,12.069,14.629,95.817,26.697,121.417   c4.754,9.874,8.046,13.897,17.189,18.286c20.846,9.143,68.754,19.017,91.063,21.943s36.206,8.777,44.617-8.777   c0,0,1.829-4.389,4.023-10.606c7.314-21.943,8.411-41.691,8.411-55.954c0-1.463,2.194-1.463,2.194,0   c0,9.874-1.829,45.349,24.869,54.857c10.606,3.657,32.183,6.949,54.491,9.509c20.114,2.194,34.743,10.24,34.743,61.806   c0,31.451-6.583,35.84-40.96,35.84c-27.794,0-38.4,0.731-38.4-21.577c0-17.92,17.554-16.091,30.72-16.091   c5.851,0,1.463-4.389,1.463-15.36s6.949-17.554,0.366-17.554c-45.349-1.097-72.046,0-72.046,56.686   c0,51.566,19.749,61.074,83.749,61.074c50.469,0,68.023-1.829,88.869-66.56c4.023-12.8,14.263-51.931,20.114-117.394   c3.657-41.326-3.657-166.4-9.509-198.217C384.304,66.434,373.332,57.291,363.458,54z M299.824,223.325   c-6.217-0.366-12.069,0-17.92,1.097c1.463-12.8,6.949-28.526,25.234-27.794c20.48,0.731,23.406,20.114,23.406,33.28   C322.132,226.251,311.527,223.691,299.824,223.325z"/>
</g>
<path style="fill:#00997C;" d="M19.321,120.56c-5.851,7.68-6.949,17.554-6.583,27.063c0,0,0,8.046,2.194,23.406  c1.463,12.069,14.629,95.817,26.697,121.417c4.754,9.874,8.046,13.897,17.189,18.286c20.846,9.143,68.754,19.017,91.063,21.943  c6.217,0.731,12.069,1.829,17.189,2.56c5.12-1.463,9.143-4.754,12.069-11.337c0,0,1.829-4.389,4.023-10.606  c7.314-21.943,8.411-41.691,8.411-55.954c0-1.463,2.194-1.463,2.194,0c0,7.314-1.097,27.794,8.777,42.423  c4.023-16.457,4.389-31.086,4.389-42.423c0-1.463,2.194-1.463,2.194,0c0,9.874-1.829,45.349,24.869,54.857  c10.606,3.657,32.183,6.949,54.491,9.509c20.114,2.194,34.743,10.24,34.743,61.806c0,31.451-6.583,35.84-40.96,35.84  c-4.023,0-7.68,0-11.337,0c-1.463,0-2.56,0-4.023,0c-27.794,0-38.4,0.731-38.4-21.577c0-17.92,17.554-16.091,30.72-16.091  c5.851,0,1.463-4.389,1.463-15.36c0-10.971,6.949-17.554,0.366-17.554c-2.194,0-4.389,0-6.217,0  c-31.817,1.097-50.103,9.874-50.103,57.051c0,49.737,18.286,60.343,77.531,61.074c43.52-0.366,60.343-5.851,79.726-66.56  c4.023-12.8,14.263-51.931,20.114-117.394c3.657-41.326-3.657-166.4-9.509-198.217c-3.291-18.286-14.263-27.429-24.137-31.086  c-10.606-4.023-32.183-8.046-59.611-10.971c-11.703-1.463-24.869-1.829-36.571-2.194c-4.023,0-7.68,0-10.971,0.366v-0.366  c-5.851,0-10.971,0-15.36,0.366c-1.829-12.8-10.971-24.503-20.846-28.526c-12.434-5.12-27.794-6.949-42.057-7.68  c-9.509,0.366-17.189,1.463-20.846,2.56c-8.411,2.194-17.554,7.314-23.04,14.629c-3.291,5.12-5.851,11.337-5.851,20.114  c0,5.12,0,16.823,0.366,27.429c0,10.606,0.366,20.114,0.366,20.114c0,9.509-7.68,17.189-17.189,17.189h-15.36H53.698  c-9.143,0-16.091,1.463-21.577,4.023C26.269,113.245,22.247,116.537,19.321,120.56z M292.144,196.628  c2.56,0,4.754,0.366,6.949,1.097c2.56-0.731,5.12-1.097,8.411-1.097c20.48,0.731,23.406,20.114,23.406,33.28  c-4.754-2.194-9.874-3.657-15.36-4.754c0,1.829,0,3.291,0,4.754c-7.68-3.291-17.189-5.486-27.063-6.583  c-2.194,0.366-4.389,0.366-6.217,0.731c0-0.366,0-0.731,0-1.097c-5.486,0-10.606,0.366-15.36,1.097  C268.007,211.622,273.492,195.897,292.144,196.628z"/>
<g>
	<path style="fill:#33363A;" d="M20.052,107.028c-0.366,0-0.731,0-1.463,0c-2.926-0.731-4.754-3.657-4.023-6.583   c0.366-1.097,1.097-2.194,1.829-3.291l83.749-83.383c2.194-2.194,5.486-2.194,7.68,0s2.194,5.486,0,7.68l-83.749,83.383   C23.709,105.931,21.881,107.028,20.052,107.028z"/>
	<path style="fill:#33363A;" d="M288.121,472.377c-62.903,0-89.234-9.143-89.234-66.56c0-24.137,4.754-39.863,14.629-49.737   c13.531-13.166,33.646-13.531,62.903-12.8c2.926,0,5.486,1.097,6.949,3.291c2.194,3.291,1.097,6.583,0,10.24   c-0.731,2.56-1.829,5.851-1.829,9.874c0,3.657,0.366,6.583,1.097,8.777c0.731,3.291,1.097,6.583-1.097,9.509   c-2.194,2.926-5.851,2.926-6.949,2.926s-2.194,0-3.657,0c-7.314,0-15.726-0.366-19.383,3.291c-1.463,1.463-2.194,4.023-2.194,7.314   c0,10.606,2.56,12.8,5.12,13.897c4.754,2.194,13.166,2.194,25.234,2.194h2.56c32.183,0,35.474-2.926,35.474-30.354   c0-53.029-15.726-54.857-29.623-56.32c-27.429-3.291-46.08-6.583-55.589-9.874c-12.069-4.389-18.651-12.8-22.674-22.309   c-1.097,6.217-2.926,12.8-5.12,19.749c-1.463,3.657-4.023,10.606-4.389,11.337c-8.777,18.286-23.04,16.091-39.863,13.166   c-3.291-0.366-6.583-1.097-10.24-1.463c-23.771-2.926-71.314-13.166-92.526-22.309c-10.971-5.12-14.994-10.24-20.114-21.211   c-13.897-28.526-27.063-122.149-27.429-122.88c-1.829-15.726-2.194-23.771-2.194-24.137c0-9.874,0.731-21.211,7.68-30.354   c3.657-5.12,8.411-8.777,14.263-11.337c6.583-2.926,14.629-4.389,23.771-4.389h43.154c6.217,0,11.703-5.12,11.703-11.703v-0.366   c0-2.194,0-10.606-0.366-19.383v-6.217c0-8.777-0.366-17.189-0.366-21.211c0-9.143,2.194-16.823,6.583-23.406   c7.314-10.606,20.48-15.36,25.966-16.823c12.069-3.291,54.491-5.851,81.92,5.486c10.606,4.389,19.749,15.36,23.04,28.16   c16.823-0.366,39.497-0.366,59.246,2.194c28.16,3.291,49.737,7.314,60.709,11.337l0,0c14.263,5.12,24.503,17.92,27.794,35.109   c5.851,31.451,13.531,156.891,9.509,199.68c-6.949,73.874-18.286,111.543-20.48,118.491   C360.898,469.085,341.149,472.377,288.121,472.377z M261.058,354.251c-18.651,0-31.817,1.829-40.229,9.874   c-7.68,7.68-11.337,20.846-11.337,41.691c0,45.714,13.897,55.589,78.263,55.589c47.543,0,63.634,0,83.749-62.537   c1.463-4.023,13.166-42.057,19.749-116.297c3.657-40.96-3.657-166.4-9.509-196.754c-3.291-18.286-14.263-24.503-20.846-27.063l0,0   c-10.24-3.657-31.451-7.68-58.149-10.971c-20.846-2.56-45.349-2.194-62.171-1.829l0,0c-2.56,0-5.12-1.829-5.486-4.754   c-1.463-10.606-8.777-20.846-17.554-24.137c-26.331-10.606-66.194-7.314-74.971-5.12c-8.777,2.56-16.091,6.949-19.749,12.434   c-3.291,4.754-4.754,10.24-4.754,17.189c0,4.023,0,12.434,0.366,21.211v6.217c0,9.143,0.366,17.189,0.366,19.383v0.731   c0,12.434-10.24,22.674-22.674,22.674H52.967c-7.68,0-14.263,1.097-19.383,3.657c-4.023,1.829-7.314,4.389-9.874,8.046   c-5.12,6.949-5.851,15.36-5.486,23.771c0,0,0,8.046,1.829,22.674c1.829,13.897,14.629,95.086,26.331,119.589   c4.389,9.143,6.583,12.069,14.629,15.726c19.749,8.411,66.926,18.651,89.234,21.211c3.657,0.366,7.314,1.097,10.606,1.463   c17.189,2.926,23.406,3.291,28.526-7.314c0,0,1.463-4.389,3.657-10.24c6.949-21.577,8.046-40.96,8.046-53.76   c0-3.657,2.926-6.583,6.583-6.583s6.583,2.926,6.583,6.583v1.829c0,10.971-0.366,40.229,21.211,47.909   c8.411,2.926,27.063,6.217,53.394,9.509c24.503,2.926,39.497,14.994,39.497,67.291c0,35.84-10.606,41.326-46.446,41.326h-2.56   c-13.897,0-23.04,0-29.989-3.291c-10.24-4.754-11.337-15.36-11.337-23.771c0-6.217,1.829-11.337,5.486-14.994   c6.949-6.949,17.92-6.583,27.429-6.583h0.366c-0.366-2.56-1.097-5.851-1.097-9.874c0-5.12,1.097-9.143,2.194-12.069   C268.372,354.251,264.715,354.251,261.058,354.251z M330.909,235.394c-0.731,0-1.463,0-2.194-0.366   c-8.411-3.657-18.286-5.851-28.891-6.217c-5.851-0.366-11.337,0-16.823,1.097c-1.829,0.366-3.291-0.366-4.754-1.463   c-1.097-1.097-1.829-2.926-1.463-4.754c3.657-29.257,20.846-32.914,31.086-32.549c13.166,0.366,28.526,7.68,28.891,38.766   c0,1.829-1.097,3.657-2.56,4.754C332.738,235.394,332.007,235.394,330.909,235.394z M296.532,217.84c1.097,0,2.194,0,3.657,0l0,0   c8.777,0.366,17.189,1.829,24.869,4.023c-2.194-17.189-10.971-19.749-17.554-19.749c-6.217-0.366-14.629,1.463-18.286,16.091   C291.412,217.84,293.972,217.84,296.532,217.84z"/>
	<path style="fill:#33363A;" d="M208.029,273.063c-2.926,0-5.486-2.56-5.486-5.486v-49.006c0-2.926,2.56-5.486,5.486-5.486   s5.486,2.56,5.486,5.486v49.006C213.515,270.503,210.955,273.063,208.029,273.063z"/>
	<path style="fill:#33363A;" d="M241.309,73.383c-2.926,0-5.486-2.56-5.486-5.486V43.394c0-2.926,2.56-5.486,5.486-5.486   s5.486,2.56,5.486,5.486v24.503C246.795,70.822,244.235,73.383,241.309,73.383z"/>
	<path style="fill:#33363A;" d="M309.332,171.394h-0.366c-2.926-0.366-5.12-2.926-5.12-5.851l0.366-6.217   c0.366-2.926,2.926-5.12,5.851-5.12c2.926,0.366,5.12,2.926,5.12,5.851l-0.366,6.217   C314.452,169.2,312.258,171.394,309.332,171.394z"/>
	<path style="fill:#33363A;" d="M310.795,152.011c-0.366,0-0.366,0-0.731,0c-2.926-0.366-5.12-2.926-4.754-6.217   c0.366-2.926,2.926-5.486,6.217-5.12c2.926,0.366,5.12,2.926,4.754,5.851v0.366C315.915,150.183,313.721,152.011,310.795,152.011z"/>
	<path style="fill:#33363A;" d="M261.058,177.245c-1.463,0-2.926-0.731-4.023-1.829l-4.023-4.754   c-1.829-2.194-1.829-5.851,0.731-7.68c2.194-1.829,5.851-1.829,7.68,0.731l4.023,4.754c1.829,2.194,1.829,5.851-0.731,7.68   C263.618,176.514,262.521,177.245,261.058,177.245z"/>
	<path style="fill:#33363A;" d="M248.989,162.617c-1.463,0-2.926-0.731-4.023-1.829c-2.194-2.194-1.829-5.851,0.366-7.68   c2.194-2.194,5.486-1.829,7.68,0.366l0.366,0.366c2.194,2.194,1.829,5.851-0.366,7.68   C251.549,161.885,250.087,162.617,248.989,162.617z"/>
	<path style="fill:#33363A;" d="M355.778,184.925c-1.463,0-2.926-0.731-4.023-1.829c-1.829-2.194-1.829-5.851,0.731-7.68   l4.754-4.023c2.194-1.829,5.851-1.829,7.68,0.731c1.829,2.194,1.829,5.851-0.731,7.68l-4.754,4.023   C358.338,184.56,356.875,184.925,355.778,184.925z"/>
	<path style="fill:#33363A;" d="M370.407,172.491c-1.463,0-3.291-0.731-4.389-1.829c-1.829-2.194-1.463-5.851,0.731-7.68   s5.851-1.829,7.68,0.731c1.829,2.194,1.829,5.851-0.731,7.68h-0.366C372.601,172.125,371.504,172.491,370.407,172.491z"/>
</g>
<path style="fill:#FF6155;" d="M458.909,355.348c0,13.166-10.606,23.771-23.771,23.771h-13.166  c-13.166,0-23.771-10.606-23.771-23.771V30.96c0-13.166,10.606-23.771,23.771-23.771h13.166c13.166,0,23.771,10.606,23.771,23.771  L458.909,355.348L458.909,355.348z"/>
<path style="fill:#D6381E;" d="M421.972,7.188h13.166c13.166,0,23.771,10.606,23.771,23.771v324.389  c0,13.166-10.606,23.771-23.771,23.771h-13.166"/>
<path style="fill:#33363A;" d="M435.138,384.605h-13.166c-16.091,0-29.257-13.166-29.257-29.257V30.96  c0-16.091,13.166-29.257,29.257-29.257h13.166c16.091,0,29.257,13.166,29.257,29.257v324.389  C464.395,371.44,451.229,384.605,435.138,384.605z M421.972,12.674c-10.24,0-18.286,8.411-18.286,18.286v324.389  c0,10.24,8.411,18.286,18.286,18.286h13.166c10.24,0,18.286-8.411,18.286-18.286V30.96c0-10.24-8.411-18.286-18.286-18.286H421.972z  "/>
<polygon style="fill:#F9D5AA;" points="400.395,364.491 428.555,464.331 456.715,364.491 "/>
<polygon style="fill:#F7B257;" points="421.972,364.491 428.555,464.331 456.715,364.491 "/>
<g>
	<path style="fill:#33363A;" d="M428.555,469.817L428.555,469.817c-2.56,0-4.754-1.463-5.12-4.023l-28.16-99.84   c-0.366-1.829,0-3.291,0.731-4.754c1.097-1.463,2.56-2.194,4.389-2.194h56.32c1.829,0,3.291,0.731,4.389,2.194   c1.097,1.463,1.463,3.291,0.731,4.754l-28.16,99.84C433.309,468.354,431.115,469.817,428.555,469.817z M407.709,369.977   l20.846,74.24l20.846-74.24H407.709z"/>
	<polygon style="fill:#33363A;" points="412.464,407.645 428.555,464.331 444.281,407.645  "/>
	<path style="fill:#33363A;" d="M428.555,469.817L428.555,469.817c-2.56,0-4.754-1.463-5.12-4.023l-16.091-56.686   c-0.366-1.829,0-3.291,0.731-4.754c1.097-1.463,2.56-2.194,4.389-2.194h31.817c1.829,0,3.291,0.731,4.389,2.194   s1.463,3.291,0.731,4.754l-16.091,56.686C433.309,468.354,431.115,469.817,428.555,469.817z M419.778,413.131l8.777,30.72   l8.777-30.72H419.778z"/>
	<path style="fill:#33363A;" d="M428.555,218.937c-2.926,0-5.486-2.56-5.486-5.486V34.617c0-2.926,2.56-5.486,5.486-5.486   s5.486,2.56,5.486,5.486v178.834C434.041,216.377,431.481,218.937,428.555,218.937z"/>
	<path style="fill:#33363A;" d="M428.555,271.965L428.555,271.965c-2.926,0-5.486-2.56-5.486-5.486V241.61   c0-2.926,2.56-5.486,5.486-5.486l0,0c2.926,0,5.486,2.56,5.486,5.486v24.869C434.041,269.771,431.481,271.965,428.555,271.965z"/>
	<path style="fill:#33363A;" d="M428.555,303.051c-2.926,0-5.486-2.56-5.486-5.486v-3.657c0-2.926,2.56-5.486,5.486-5.486   s5.486,2.56,5.486,5.486v3.657C434.041,300.491,431.481,303.051,428.555,303.051z"/>
	<path style="fill:#33363A;" d="M428.555,334.503c-2.926,0-5.486-2.56-5.486-5.486v-5.486c0-2.926,2.56-5.486,5.486-5.486   s5.486,2.56,5.486,5.486v5.486C434.041,331.942,431.481,334.503,428.555,334.503z"/>
</g>
<g>
</g>
<g>
</g>
<g>
</g>
<g>
</g>
<g>
</g>
<g>
</g>
<g>
</g>
<g>
</g>
<g>
</g>
<g>
</g>
<g>
</g>
<g>
</g>
<g>
</g>
<g>
</g>
<g>
</g>
</svg>
