<?xml version="1.0" encoding="iso-8859-1"?>
<!-- Generator: Adobe Illustrator 19.0.0, SVG Export Plug-In . SVG Version: 6.00 Build 0)  -->
<svg xmlns="http://www.w3.org/2000/svg" xmlns:xlink="http://www.w3.org/1999/xlink" version="1.1" id="Capa_1" x="0px" y="0px" viewBox="0 0 468.846 468.846" style="enable-background:new 0 0 468.846 468.846;" xml:space="preserve">
<circle style="fill:#FFFFFF;" cx="234.42" cy="247.59" r="215.77"/>
<path style="fill:#C7D5E0;" d="M234.423,20.114c-118.491,0-214.674,96.183-214.674,214.674c0,107.886,79.36,197.12,182.857,212.48  V309.76h-48.64v-56.32h48.64v-41.326c0-48.274,29.257-74.24,72.411-74.24c20.48,0,38.4,1.463,43.52,2.194v50.469h-29.623  c-23.406,0-27.794,10.971-27.794,27.429v35.84h55.589l-7.314,56.32h-48.64v138.24C366.811,435.2,449.097,344.869,449.097,235.52  C449.097,115.931,352.914,20.114,234.423,20.114z"/>
<path style="fill:#33363A;" d="M234.423,468.846c-121.783,0-221.257-99.109-221.257-221.257  c0-121.783,99.109-221.257,221.257-221.257c121.783,0,221.257,99.109,221.257,221.257S356.206,468.846,234.423,468.846z   M234.423,37.669c-115.931,0-210.286,94.354-210.286,210.286S118.491,458.24,234.423,458.24s210.286-94.354,210.286-210.286  C444.709,131.657,350.354,37.669,234.423,37.669z"/>
<path style="fill:#2463FF;" d="M234.423,5.486c-118.491,0-214.674,96.183-214.674,214.674c0,107.886,79.36,197.12,182.857,212.48  V295.131h-48.64v-56.32h48.64v-41.326c0-48.274,29.257-74.24,72.411-74.24c20.48,0,38.4,1.463,43.52,2.194v50.469h-29.623  c-23.406,0-27.794,10.971-27.794,27.429v35.84h55.589l-7.314,56.32h-48.64v138.24c106.057-13.166,188.343-103.497,188.343-212.846  C449.097,101.669,352.914,5.486,234.423,5.486z"/>
<path style="fill:#129AFF;" d="M234.423,5.486c-118.491,0-214.674,96.183-214.674,214.674c0,107.886,79.36,197.12,182.857,212.48  V295.131h-48.64v-56.32h48.64v-41.326c0-30.72,12.069-52.297,31.817-64V5.486z"/>
<g>
	<path style="fill:#33363A;" d="M260.754,438.491c-1.463,0-2.56-0.366-3.657-1.463c-1.097-1.097-1.829-2.56-1.829-4.023v-138.24   c0-2.926,2.56-5.486,5.486-5.486h43.52l5.851-45.349h-49.371c-2.926,0-5.486-2.56-5.486-5.486v-35.84   c0-15.36,3.657-32.914,33.28-32.914h24.137v-39.863c-8.046-0.731-22.309-1.829-38.034-1.829c-42.057,0-66.926,25.6-66.926,68.754   v41.326c0,2.926-2.56,5.486-5.486,5.486h-43.154v45.714h43.154c2.926,0,5.486,2.56,5.486,5.486V432.64   c0,1.463-0.731,3.291-1.829,4.023c-1.097,1.097-2.926,1.463-4.389,1.097c-107.153-15.726-187.61-109.349-187.61-217.6   C13.897,98.743,112.64,0,234.057,0s220.16,98.743,220.16,220.16c0,110.811-83.017,204.8-193.097,218.331   C261.486,438.491,261.12,438.491,260.754,438.491z M266.24,300.251v126.537c101.303-15.36,177.371-103.131,177.371-206.629   c0-115.2-93.989-209.189-209.189-209.189S25.234,104.96,25.234,220.16c0,100.937,73.509,187.977,171.886,205.897V300.251h-43.154   c-2.926,0-5.486-2.56-5.486-5.486v-56.32c0-2.926,2.56-5.486,5.486-5.486h43.154v-35.84c0-49.371,29.989-79.726,77.897-79.726   c20.48,0,38.4,1.463,44.251,2.194c2.56,0.366,4.754,2.56,4.754,5.486v50.469c0,2.926-2.56,5.486-5.486,5.486h-29.623   c-19.017,0-22.309,6.949-22.309,21.943v30.354h50.103c1.463,0,2.926,0.731,4.023,1.829c1.097,1.097,1.463,2.926,1.463,4.389   l-7.314,56.32c-0.366,2.56-2.56,4.754-5.486,4.754H266.24V300.251z"/>
	<path style="fill:#33363A;" d="M184.32,115.2c-1.463,0-2.926-0.366-4.023-1.463l-5.486-5.486c-2.194-2.194-2.194-5.486,0-7.68   s5.486-2.194,7.68,0l5.486,5.486c2.194,2.194,2.194,5.486,0,7.68C187.246,114.834,185.783,115.2,184.32,115.2z"/>
	<path style="fill:#33363A;" d="M167.497,98.377c-1.463,0-2.926-0.731-4.023-1.829c-2.194-2.194-2.194-5.851,0-8.046   c2.194-2.194,5.486-2.194,7.68,0l0.366,0.366c2.194,2.194,2.194,5.486,0,7.68C170.423,98.011,168.96,98.377,167.497,98.377z"/>
	<path style="fill:#33363A;" d="M143.726,165.669c-2.926,0-5.486-2.56-5.486-5.486s2.56-5.486,5.486-5.486h7.68l0,0   c2.926,0,5.486,2.56,5.486,5.486s-2.56,5.486-5.486,5.486H143.726L143.726,165.669z"/>
	<path style="fill:#33363A;" d="M127.634,165.669c-2.926,0-5.486-2.56-5.486-5.486s2.194-5.486,5.486-5.486H128   c2.926,0,5.486,2.56,5.486,5.486S130.56,165.669,127.634,165.669z"/>
	<path style="fill:#33363A;" d="M234.789,82.286c-2.926,0-5.486-2.56-5.486-5.486v-7.68c0-2.926,2.56-5.486,5.486-5.486   s5.486,2.56,5.486,5.486v7.68C240.274,79.726,237.714,82.286,234.789,82.286z"/>
	<path style="fill:#33363A;" d="M234.789,58.514c-2.926,0-5.486-2.56-5.486-5.486s2.56-5.486,5.486-5.486s5.486,2.194,5.486,5.486   v0.366C240.274,55.954,237.714,58.514,234.789,58.514z"/>
</g>
<g>
</g>
<g>
</g>
<g>
</g>
<g>
</g>
<g>
</g>
<g>
</g>
<g>
</g>
<g>
</g>
<g>
</g>
<g>
</g>
<g>
</g>
<g>
</g>
<g>
</g>
<g>
</g>
<g>
</g>
</svg>
