<?xml version="1.0" encoding="iso-8859-1"?>
<!-- Generator: Adobe Illustrator 19.0.0, SVG Export Plug-In . SVG Version: 6.00 Build 0)  -->
<svg xmlns="http://www.w3.org/2000/svg" xmlns:xlink="http://www.w3.org/1999/xlink" version="1.1" id="Capa_1" x="0px" y="0px" viewBox="0 0 462.994 462.994" style="enable-background:new 0 0 462.994 462.994;" xml:space="preserve">
<path style="fill:#F91D80;" d="M358.034,133.486c-55.223,0-99.84,43.886-99.84,98.377c0,54.126,44.617,98.377,99.84,98.377  s99.474-43.886,99.474-98.377C457.509,177.737,413.257,133.486,358.034,133.486z"/>
<path style="fill:#E2137A;" d="M427.52,301.349c38.766-38.766,39.497-101.669,1.097-140.069s-100.937-38.034-140.069,1.097"/>
<path style="fill:#168BF4;" d="M104.96,133.486c-54.857,0-99.474,43.886-99.474,98.377c0,54.126,44.617,98.377,99.474,98.377  c55.223,0,99.84-43.886,99.84-98.377C204.434,177.737,160.183,133.486,104.96,133.486z"/>
<path style="fill:#0A78DD;" d="M174.446,301.349c39.131-39.132,39.497-101.669,1.097-140.069s-100.937-38.034-140.069,1.097"/>
<g>
	<path style="fill:#33363A;" d="M358.034,335.726c-58.149,0-105.326-46.446-105.326-103.863c0-42.057,25.6-79.726,65.097-95.817   c39.497-17.189,84.48-8.411,114.469,21.577c9.509,9.509,17.189,20.846,22.309,33.28c5.486,12.8,8.411,26.697,8.411,40.96   C462.994,288.914,416.183,335.726,358.034,335.726z M359.497,138.24c-12.434,0-25.234,2.56-37.303,7.68   c-35.474,14.629-58.149,48.274-58.149,85.577c0,51.2,42.423,92.891,94.354,92.891s93.989-41.691,93.989-92.891   c0-12.8-2.56-24.869-7.68-36.571l0,0c-4.754-11.337-11.337-21.211-19.749-29.989C407.04,147.749,383.634,138.24,359.497,138.24z"/>
	<path style="fill:#33363A;" d="M104.96,335.726C47.177,335.726,0,289.28,0,231.863c0-42.423,25.966-80.457,65.829-96.183   c39.131-16.457,83.749-7.68,113.371,21.943c9.509,9.509,17.189,20.846,22.309,33.646c5.486,12.8,8.411,26.697,8.411,40.594   C209.92,288.914,162.743,335.726,104.96,335.726z M106.423,138.24c-12.434,0-24.503,2.56-36.571,7.314   c-35.84,14.263-59.246,47.909-59.246,85.943c0,51.2,42.057,92.891,93.989,92.891s94.354-41.691,94.354-92.891   c0-12.8-2.56-24.869-7.68-36.571c-4.754-11.337-11.337-21.577-20.114-29.989C153.966,147.749,130.56,138.24,106.423,138.24z"/>
	<path style="fill:#33363A;" d="M238.811,335.726h-24.137c-2.926,0-5.486-2.56-5.486-5.486s2.56-5.486,5.486-5.486h24.137   c2.926,0,5.486,2.56,5.486,5.486C244.297,333.166,241.737,335.726,238.811,335.726z"/>
	<path style="fill:#33363A;" d="M356.206,335.726h-69.851c-2.926,0-5.486-2.56-5.486-5.486s2.56-5.486,5.486-5.486h69.851   c2.926,0,5.486,2.56,5.486,5.486C361.691,333.166,359.131,335.726,356.206,335.726z"/>
	<path style="fill:#33363A;" d="M265.143,335.726h-4.389c-2.926,0-5.486-2.56-5.486-5.486s2.56-5.486,5.486-5.486h4.389   c2.926,0,5.486,2.56,5.486,5.486C270.629,333.166,268.069,335.726,265.143,335.726z"/>
	<path style="fill:#33363A;" d="M254.171,138.24h-24.137c-2.926,0-5.486-2.56-5.486-5.486c0-2.926,2.56-5.486,5.486-5.486h24.137   c2.926,0,5.486,2.56,5.486,5.486C259.657,135.68,257.097,138.24,254.171,138.24z"/>
	<path style="fill:#33363A;" d="M182.126,138.24h-69.851c-2.926,0-5.486-2.56-5.486-5.486c0-2.926,2.56-5.486,5.486-5.486h69.851   c2.926,0,5.486,2.56,5.486,5.486C187.611,135.68,185.417,138.24,182.126,138.24z"/>
	<path style="fill:#33363A;" d="M208.091,138.24h-4.389c-2.926,0-5.486-2.56-5.486-5.486c0-2.926,2.56-5.486,5.486-5.486h4.389   c2.926,0,5.486,2.56,5.486,5.486S211.017,138.24,208.091,138.24z"/>
</g>
<g>
</g>
<g>
</g>
<g>
</g>
<g>
</g>
<g>
</g>
<g>
</g>
<g>
</g>
<g>
</g>
<g>
</g>
<g>
</g>
<g>
</g>
<g>
</g>
<g>
</g>
<g>
</g>
<g>
</g>
</svg>
