<?xml version="1.0" encoding="iso-8859-1"?>
<!-- Generator: Adobe Illustrator 19.0.0, SVG Export Plug-In . SVG Version: 6.00 Build 0)  -->
<svg xmlns="http://www.w3.org/2000/svg" xmlns:xlink="http://www.w3.org/1999/xlink" version="1.1" id="Capa_1" x="0px" y="0px" viewBox="0 0 464.457 464.457" style="enable-background:new 0 0 464.457 464.457;" xml:space="preserve">
<path style="fill:#D6E7EA;" d="M353.231,5.486H114.054c-32.914,0-42.789,25.234-42.789,40.96v384  c0,19.017,9.509,24.503,14.629,26.697c5.12,2.194,19.017,3.657,28.891-6.217c0,0,113.371-133.851,115.566-136.046  c1.829-2.194,2.926-2.194,4.023-2.194h71.68c30.72,0,36.571-21.577,39.863-34.377c2.926-10.971,34.377-166.034,44.251-215.04  C397.848,25.6,388.34,5.486,353.231,5.486z"/>
<path style="fill:#FFFFFF;" d="M86.26,457.143c5.12,2.194,19.017,3.657,28.891-6.217c0,0,113.371-133.851,115.566-136.046  c1.829-2.194,2.926-2.194,4.023-2.194h71.68c30.72,0,36.571-21.577,39.863-34.377c2.194-9.143,24.503-118.491,37.669-182.857  c-6.217-6.583-16.457-9.874-30.72-9.874H114.054c-32.914,0-42.789,25.234-42.789,40.96v303.909  C71.631,449.463,81.14,455.314,86.26,457.143z"/>
<path style="fill:#FF88AD;" d="M353.231,5.486H114.054c-32.914,0-42.789,25.234-42.789,40.96v384  c0,19.017,9.509,24.503,14.629,26.697c5.12,2.194,19.017,3.657,28.891-6.217c0,0,113.371-133.851,115.566-136.046  c1.829-2.194,2.926-2.194,4.023-2.194h71.68c30.72,0,36.571-21.577,39.863-34.377c2.926-10.971,34.377-166.034,44.251-215.04  C397.848,25.6,388.34,5.486,353.231,5.486z M339.334,70.949l-10.606,52.297c-1.097,5.486-6.583,10.606-12.8,10.606h-93.257  c-10.606,0-19.017,8.777-19.017,19.383v11.337c0,10.606,8.777,19.383,19.017,19.383h78.994c7.314,0,13.531,7.314,12.069,14.994  c-1.463,8.046-9.874,49.006-10.606,53.394c-0.731,4.754-5.486,10.606-12.8,10.606h-65.463c-13.531,0.366-16.091,0.731-24.137,10.606  c-8.046,9.874-78.629,99.474-78.629,99.474c-0.731,1.097-1.097,0.731-1.097-0.366V68.754c0-7.314,5.851-13.166,12.8-13.166h193.463  C334.214,55.589,341.163,62.172,339.334,70.949z"/>
<path style="fill:#F34B78;" d="M86.26,457.143c5.12,2.194,19.017,3.657,28.891-6.217c0,0,113.371-133.851,115.566-136.046  c1.829-2.194,2.926-2.194,4.023-2.194h71.68c30.72,0,36.571-21.577,39.863-34.377c2.926-10.971,34.377-166.034,44.251-215.04  c0.731-4.389,1.463-8.046,1.829-12.069c-2.56-18.651-14.629-28.526-38.766-28.526H114.42c-32.914,0-42.789,25.234-42.789,40.96  v366.811C71.631,449.463,81.14,455.314,86.26,457.143z M121.003,372.297V85.943V68.389c0-7.314,5.851-13.166,12.8-13.166h193.463  c6.583,0,13.531,6.949,11.703,15.36l-1.463,8.046c1.463,2.56,2.56,5.851,1.463,9.509l-10.606,52.297  c-1.097,5.486-6.583,10.606-12.8,10.606h-93.257c-9.509,0-17.189,6.949-18.651,16.457c1.463,9.143,9.143,16.457,18.651,16.457H301.3  c7.314,0,13.531,7.314,12.069,14.994c-0.366,1.829-0.731,4.754-1.829,8.411c1.463,2.56,2.194,5.486,1.829,8.777  c-1.463,8.046-9.874,49.006-10.606,53.394c-0.731,4.754-5.486,10.606-12.8,10.606h-65.097c-13.531,0.366-16.091,0.731-24.137,10.606  c-8.046,9.874-78.629,99.474-78.629,99.474c-0.731,1.097-1.097,0.731-1.097-0.366L121.003,372.297L121.003,372.297z"/>
<g>
	<path style="fill:#33363A;" d="M95.768,464.457c-4.389,0-8.411-0.731-11.337-2.194c-11.703-4.754-18.286-16.091-18.286-31.817v-384   C66.145,24.137,81.14,0,114.42,0h239.177c16.823,0,28.891,4.389,36.206,13.531c8.777,10.606,10.606,27.429,6.217,51.2   c-9.509,47.909-41.326,204.069-44.251,215.406c-3.291,12.434-9.874,38.4-45.349,38.4h-71.314c0,0,0,0-0.366,0.366   c-1.829,2.194-115.566,136.046-115.566,136.046l-0.366,0.366C112.225,461.897,103.083,464.457,95.768,464.457z M114.42,10.972   c-29.257,0-37.303,22.309-37.303,35.474v384c0,14.994,6.583,19.749,11.337,21.577c2.56,1.097,14.263,3.657,22.674-4.754   c4.389-5.12,113.371-133.486,115.2-135.68c2.926-3.291,5.486-4.023,8.046-4.023h71.68c24.503,0,30.354-14.263,34.743-30.354   c2.56-10.24,33.646-161.646,44.251-214.674c4.023-20.114,2.56-34.011-4.023-42.057c-5.12-6.217-14.263-9.509-27.794-9.509   L114.42,10.972L114.42,10.972z M121.368,378.514c-0.731,0-1.097,0-1.829-0.366c-2.56-0.731-4.389-3.291-4.389-6.217V68.023   c0-10.24,8.411-18.651,18.286-18.651H326.9c5.12,0,9.874,2.56,13.531,6.583c3.657,4.389,4.754,9.874,3.657,15.36l-10.606,52.297   c-1.829,8.411-9.874,14.994-18.286,14.994H221.94c-7.314,0-13.531,6.217-13.531,13.897v11.337c0,7.68,6.217,13.897,13.531,13.897   h78.994c5.12,0,10.24,2.56,13.531,6.583c3.291,4.023,4.754,9.509,3.657,14.994c-1.463,8.046-9.874,48.274-10.606,53.394   c-1.097,7.314-8.411,14.994-18.286,14.994h-64.366c-12.8,0.366-13.531,0.366-20.114,8.411c-7.68,9.509-75.337,95.086-78.263,99.109   C125.391,377.783,123.563,378.514,121.368,378.514z M133.803,61.074c-4.023,0-7.314,3.291-7.314,7.68v290.012   c19.017-24.137,63.634-80.823,69.851-88.503c9.509-11.703,13.897-12.434,28.526-12.434h64.731c4.389,0,7.314-3.657,7.314-5.851   v-0.366c0.731-4.023,9.143-44.983,10.606-53.394c0.366-2.194,0-4.023-1.463-5.851c-1.463-1.463-3.291-2.56-5.12-2.56H221.94   c-13.531,0-24.503-10.971-24.503-24.869V153.6c0-13.531,10.971-24.869,24.503-24.869h93.257c4.023,0,6.949-3.291,7.68-6.217   l10.606-52.297l0,0c0.731-3.291-0.731-5.486-1.463-6.217c-1.097-1.463-3.291-2.56-4.754-2.56H133.803V61.074z"/>
	<path style="fill:#33363A;" d="M152.82,189.44h-23.771c-2.926,0-5.486-2.56-5.486-5.486s2.56-5.486,5.486-5.486h23.771   c2.926,0,5.486,2.56,5.486,5.486C158.305,186.88,156.111,189.44,152.82,189.44z"/>
	<path style="fill:#33363A;" d="M268.751,189.44h-68.754c-2.926,0-5.486-2.56-5.486-5.486s2.56-5.486,5.486-5.486h68.754   c2.926,0,5.486,2.56,5.486,5.486S271.677,189.44,268.751,189.44z"/>
	<path style="fill:#33363A;" d="M178.785,189.44h-4.389c-2.926,0-5.486-2.56-5.486-5.486s2.56-5.486,5.486-5.486h4.389   c2.926,0,5.486,2.56,5.486,5.486S181.711,189.44,178.785,189.44z"/>
	<path style="fill:#33363A;" d="M152.82,268.069h-23.771c-2.926,0-5.486-2.56-5.486-5.486s2.56-5.486,5.486-5.486h23.771   c2.926,0,5.486,2.56,5.486,5.486C158.305,265.509,156.111,268.069,152.82,268.069z"/>
	<path style="fill:#33363A;" d="M268.751,268.069h-68.754c-2.926,0-5.486-2.56-5.486-5.486s2.56-5.486,5.486-5.486h68.754   c2.926,0,5.486,2.56,5.486,5.486S271.677,268.069,268.751,268.069z"/>
	<path style="fill:#33363A;" d="M178.785,268.069h-4.389c-2.926,0-5.486-2.56-5.486-5.486s2.56-5.486,5.486-5.486h4.389   c2.926,0,5.486,2.56,5.486,5.486S181.711,268.069,178.785,268.069z"/>
	<path style="fill:#33363A;" d="M152.82,139.337h-23.771c-2.926,0-5.486-2.56-5.486-5.486s2.56-5.486,5.486-5.486h23.771   c2.926,0,5.486,2.56,5.486,5.486S156.111,139.337,152.82,139.337z"/>
	<path style="fill:#33363A;" d="M268.751,139.337h-68.754c-2.926,0-5.486-2.56-5.486-5.486s2.56-5.486,5.486-5.486h68.754   c2.926,0,5.486,2.56,5.486,5.486S271.677,139.337,268.751,139.337z"/>
	<path style="fill:#33363A;" d="M178.785,139.337h-4.389c-2.926,0-5.486-2.56-5.486-5.486s2.56-5.486,5.486-5.486h4.389   c2.926,0,5.486,2.56,5.486,5.486S181.711,139.337,178.785,139.337z"/>
</g>
<g>
</g>
<g>
</g>
<g>
</g>
<g>
</g>
<g>
</g>
<g>
</g>
<g>
</g>
<g>
</g>
<g>
</g>
<g>
</g>
<g>
</g>
<g>
</g>
<g>
</g>
<g>
</g>
<g>
</g>
</svg>
