<?xml version="1.0" encoding="iso-8859-1"?>
<!-- Generator: Adobe Illustrator 19.0.0, SVG Export Plug-In . SVG Version: 6.00 Build 0)  -->
<svg xmlns="http://www.w3.org/2000/svg" xmlns:xlink="http://www.w3.org/1999/xlink" version="1.1" id="Capa_1" x="0px" y="0px" viewBox="0 0 467.383 467.383" style="enable-background:new 0 0 467.383 467.383;" xml:space="preserve">
<path style="fill:#FFFFFF;" d="M461.898,233.691c0,125.806-102.034,228.206-228.206,228.206S5.487,359.863,5.487,233.691  S107.521,5.486,233.691,5.486S461.898,107.52,461.898,233.691z"/>
<path style="fill:#EAF4F9;" d="M233.691,5.486c125.806,0,228.206,102.034,228.206,228.206  c0,125.806-102.034,228.206-228.206,228.206"/>
<path style="fill:#33363A;" d="M233.691,467.383c-128.731,0-233.691-104.96-233.691-233.692S104.961,0,233.691,0  s233.691,104.96,233.691,233.691S362.424,467.383,233.691,467.383z M233.691,10.971c-122.88,0-222.72,99.84-222.72,222.72  s99.84,222.72,222.72,222.72s222.72-99.84,222.72-222.72S356.572,10.971,233.691,10.971z"/>
<g>
	<path style="fill:#3E77BF;" d="M233.691,53.76c-99.474,0-179.931,80.823-179.931,180.663c0,79.726,51.566,147.383,123.246,171.52   c9.143,1.829,12.434-4.023,12.434-8.777c0-4.389,0-15.726-0.366-30.72c-50.103,10.971-60.709-24.137-60.709-24.137   c-8.046-20.846-20.114-26.331-20.114-26.331c-16.457-11.337,1.097-10.971,1.097-10.971c17.92,1.097,27.429,18.651,27.429,18.651   c16.091,27.794,42.057,19.749,52.297,14.994c1.463-11.703,6.217-19.749,11.337-24.137c-39.863-4.754-81.92-20.114-81.92-89.234   c0-19.749,6.949-35.84,18.651-48.64c-1.829-4.754-8.046-23.04,1.829-47.909c0,0,14.994-4.754,49.371,18.651   c14.263-4.023,29.623-5.851,44.983-6.217c15.36,0,30.72,2.194,44.983,6.217c34.377-23.406,49.371-18.651,49.371-18.651   c9.874,24.869,3.657,43.154,1.829,47.909c11.703,12.8,18.651,28.891,18.651,48.64c0,69.486-42.057,84.846-82.286,89.234   c6.583,5.486,12.069,16.457,12.069,33.646c0,24.137-0.366,43.52-0.366,49.737c0,4.754,3.291,10.606,12.434,8.777   c71.314-23.771,122.88-91.794,122.88-171.52C413.623,134.583,333.167,53.76,233.691,53.76z"/>
	<path style="fill:#3E77BF;" d="M233.691,53.76c-99.474,0-179.931,80.823-179.931,180.663c0,79.726,51.566,147.383,123.246,171.52   c9.143,1.829,12.434-4.023,12.434-8.777c0-4.389,0-15.726-0.366-30.72c-50.103,10.971-60.709-24.137-60.709-24.137   c-8.046-20.846-20.114-26.331-20.114-26.331c-16.457-11.337,1.097-10.971,1.097-10.971c17.92,1.097,27.429,18.651,27.429,18.651   c16.091,27.794,42.057,19.749,52.297,14.994c1.463-11.703,6.217-19.749,11.337-24.137c-39.863-4.754-81.92-20.114-81.92-89.234   c0-19.749,6.949-35.84,18.651-48.64c-1.829-4.754-8.046-23.04,1.829-47.909c0,0,14.994-4.754,49.371,18.651   c14.263-4.023,29.623-5.851,44.983-6.217c15.36,0,30.72,2.194,44.983,6.217c34.377-23.406,49.371-18.651,49.371-18.651   c9.874,24.869,3.657,43.154,1.829,47.909c11.703,12.8,18.651,28.891,18.651,48.64c0,69.486-42.057,84.846-82.286,89.234   c6.583,5.486,12.069,16.457,12.069,33.646c0,24.137-0.366,43.52-0.366,49.737c0,4.754,3.291,10.606,12.434,8.777   c71.314-23.771,122.88-91.794,122.88-171.52C413.623,134.583,333.167,53.76,233.691,53.76z"/>
</g>
<path style="fill:#569FEF;" d="M233.691,53.76c-99.474,0-179.931,80.823-179.931,180.663c0,79.726,51.566,147.383,123.246,171.52  c9.143,1.829,12.434-4.023,12.434-8.777c0-4.389,0-15.726-0.366-30.72c-50.103,10.971-60.709-24.137-60.709-24.137  c-8.046-20.846-20.114-26.331-20.114-26.331c-16.457-11.337,1.097-10.971,1.097-10.971c17.92,1.097,27.429,18.651,27.429,18.651  c16.091,27.794,42.057,19.749,52.297,14.994c1.463-11.703,6.217-19.749,11.337-24.137c-39.863-4.754-81.92-20.114-81.92-89.234  c0-19.749,6.949-35.84,18.651-48.64c-1.829-4.754-8.046-23.04,1.829-47.909c0,0,14.994-4.754,49.371,18.651  c14.263-4.023,29.623-5.851,44.983-6.217L233.691,53.76L233.691,53.76z"/>
<path style="fill:#6CA9EA;" d="M145.555,333.897c-1.097-1.829-3.291-4.754-6.583-7.68  C141.167,329.509,142.995,332.069,145.555,333.897z"/>
<g>
	<path style="fill:#33363A;" d="M233.691,64.731c93.257,0,168.96,76.069,168.96,169.691c0,72.411-45.349,136.411-113.371,160.183   c0-1.829,0-4.389,0-7.68c0-9.509,0-23.406,0-39.497c0-9.143-1.463-17.92-4.754-25.234c14.629-2.926,31.086-8.777,44.617-20.114   c19.749-16.823,29.989-42.789,29.989-77.166c0-19.383-5.851-36.571-17.189-50.834c2.56-9.874,4.754-27.794-4.023-49.371   c-1.097-2.926-3.657-5.486-6.949-6.583c-1.097-0.366-3.657-1.097-7.314-1.097c-9.143,0-24.503,3.291-47.543,17.92   c-13.531-3.291-28.16-5.12-43.154-5.12s-29.257,1.829-43.154,5.12c-23.04-14.994-38.4-17.92-47.543-17.92   c-4.023,0-6.217,0.731-7.314,1.097c-3.291,1.097-5.486,3.291-6.949,6.583c-8.411,21.943-6.583,39.497-4.023,49.371   c-11.337,14.629-17.189,31.817-17.189,50.834c0,20.846,0,80.823,74.606,97.28c-1.097,2.56-1.829,5.12-2.56,8.046   c-3.291,1.097-6.949,1.829-10.971,1.829c-9.509,0-16.823-4.754-22.309-14.263c-1.463-2.56-13.531-22.309-36.206-24.137   c-0.366,0-0.366,0-0.731,0c0,0,0,0-0.366,0c-9.509,0-16.457,3.657-18.651,10.606c-3.291,10.606,7.68,17.92,10.971,20.48   c0.731,0.366,0.731,0.731,1.463,0.731c1.097,0.731,8.777,5.486,14.629,20.114c1.463,4.754,13.166,33.646,52.663,33.646   c2.194,0,4.754,0,7.314-0.366c0,2.56,0,4.754,0,6.949c0,3.657,0,6.217,0,8.411C108.618,370.469,63.27,306.469,63.27,234.057   C64.732,140.8,140.435,64.731,233.691,64.731 M233.691,53.76c-99.474,0-179.931,80.823-179.931,180.663   c0,79.726,51.566,147.383,123.246,171.52c1.097,0.366,2.194,0.366,2.926,0.366c6.583,0,9.143-4.754,9.143-9.143   s0-15.726-0.366-30.72c-6.583,1.463-12.8,2.194-18.286,2.194c-34.743,0-42.423-26.331-42.423-26.331   c-8.046-20.846-20.114-26.331-20.114-26.331c-15.726-10.971,0-10.971,1.097-10.971l0,0c17.92,1.097,27.429,18.651,27.429,18.651   c9.143,15.36,21.211,19.749,31.817,19.749c8.411,0,16.091-2.56,20.48-4.754c1.463-11.703,6.217-19.749,11.337-24.137   c-39.863-4.754-81.92-20.114-81.92-89.234c0-19.749,6.949-35.84,18.651-48.64c-1.829-4.754-8.046-23.04,1.829-47.909   c0,0,1.463-0.366,4.023-0.366c6.583,0,21.211,2.56,45.349,19.017c14.263-4.023,29.623-5.851,44.983-6.217   c15.36,0,30.72,2.194,44.983,6.217c24.137-16.457,38.766-19.017,45.349-19.017c2.56,0,4.023,0.366,4.023,0.366   c9.874,24.869,3.657,43.154,1.829,47.909c11.703,12.8,18.651,28.891,18.651,48.64c0,69.486-42.057,84.846-82.286,89.234   c6.583,5.486,12.069,16.457,12.069,33.646c0,24.137-0.366,43.52-0.366,49.737c0,4.389,2.56,9.143,9.143,9.143   c1.097,0,2.194,0,3.291-0.366c71.314-23.771,122.88-91.794,122.88-171.52C413.623,134.583,333.167,53.76,233.691,53.76   L233.691,53.76z"/>
	<path style="fill:#33363A;" d="M233.691,64.731c93.257,0,168.96,76.069,168.96,169.691c0,72.411-45.349,136.411-113.371,160.183   c0-1.829,0-4.389,0-7.68c0-9.509,0-23.406,0-39.497c0-9.143-1.463-17.92-4.754-25.234c14.629-2.926,31.086-8.777,44.617-20.114   c19.749-16.823,29.989-42.789,29.989-77.166c0-19.383-5.851-36.571-17.189-50.834c2.56-9.874,4.754-27.794-4.023-49.371   c-1.097-2.926-3.657-5.486-6.949-6.583c-1.097-0.366-3.657-1.097-7.314-1.097c-9.143,0-24.503,3.291-47.543,17.92   c-13.531-3.291-28.16-5.12-43.154-5.12s-29.257,1.829-43.154,5.12c-23.04-14.994-38.4-17.92-47.543-17.92   c-4.023,0-6.217,0.731-7.314,1.097c-3.291,1.097-5.486,3.291-6.949,6.583c-8.411,21.943-6.583,39.497-4.023,49.371   c-11.337,14.629-17.189,31.817-17.189,50.834c0,20.846,0,80.823,74.606,97.28c-1.097,2.56-1.829,5.12-2.56,8.046   c-3.291,1.097-6.949,1.829-10.971,1.829c-9.509,0-16.823-4.754-22.309-14.263c-1.463-2.56-13.531-22.309-36.206-24.137   c-0.366,0-0.366,0-0.731,0c0,0,0,0-0.366,0c-9.509,0-16.457,3.657-18.651,10.606c-3.291,10.606,7.68,17.92,10.971,20.48   c0.731,0.366,0.731,0.731,1.463,0.731c1.097,0.731,8.777,5.486,14.629,20.114c1.463,4.754,13.166,33.646,52.663,33.646   c2.194,0,4.754,0,7.314-0.366c0,2.56,0,4.754,0,6.949c0,3.657,0,6.217,0,8.411C108.618,370.469,63.27,306.469,63.27,234.057   C64.732,140.8,140.435,64.731,233.691,64.731 M233.691,53.76c-99.474,0-179.931,80.823-179.931,180.663   c0,79.726,51.566,147.383,123.246,171.52c1.097,0.366,2.194,0.366,2.926,0.366c6.583,0,9.143-4.754,9.143-9.143   s0-15.726-0.366-30.72c-6.583,1.463-12.8,2.194-18.286,2.194c-34.743,0-42.423-26.331-42.423-26.331   c-8.046-20.846-20.114-26.331-20.114-26.331c-15.726-10.971,0-10.971,1.097-10.971l0,0c17.92,1.097,27.429,18.651,27.429,18.651   c9.143,15.36,21.211,19.749,31.817,19.749c8.411,0,16.091-2.56,20.48-4.754c1.463-11.703,6.217-19.749,11.337-24.137   c-39.863-4.754-81.92-20.114-81.92-89.234c0-19.749,6.949-35.84,18.651-48.64c-1.829-4.754-8.046-23.04,1.829-47.909   c0,0,1.463-0.366,4.023-0.366c6.583,0,21.211,2.56,45.349,19.017c14.263-4.023,29.623-5.851,44.983-6.217   c15.36,0,30.72,2.194,44.983,6.217c24.137-16.457,38.766-19.017,45.349-19.017c2.56,0,4.023,0.366,4.023,0.366   c9.874,24.869,3.657,43.154,1.829,47.909c11.703,12.8,18.651,28.891,18.651,48.64c0,69.486-42.057,84.846-82.286,89.234   c6.583,5.486,12.069,16.457,12.069,33.646c0,24.137-0.366,43.52-0.366,49.737c0,4.389,2.56,9.143,9.143,9.143   c1.097,0,2.194,0,3.291-0.366c71.314-23.771,122.88-91.794,122.88-171.52C413.623,134.583,333.167,53.76,233.691,53.76   L233.691,53.76z"/>
	<path style="fill:#33363A;" d="M138.971,326.583c2.194,2.926,4.389,5.486,6.583,7.68   C144.092,332.434,142.264,329.509,138.971,326.583L138.971,326.583z"/>
</g>
<g>
</g>
<g>
</g>
<g>
</g>
<g>
</g>
<g>
</g>
<g>
</g>
<g>
</g>
<g>
</g>
<g>
</g>
<g>
</g>
<g>
</g>
<g>
</g>
<g>
</g>
<g>
</g>
<g>
</g>
</svg>
