<?xml version="1.0" encoding="iso-8859-1"?>
<!-- Generator: Adobe Illustrator 19.0.0, SVG Export Plug-In . SVG Version: 6.00 Build 0)  -->
<svg xmlns="http://www.w3.org/2000/svg" xmlns:xlink="http://www.w3.org/1999/xlink" version="1.1" id="Capa_1" x="0px" y="0px" viewBox="0 0 469.578 469.578" style="enable-background:new 0 0 469.578 469.578;" xml:space="preserve">
<path style="fill:#F72B2B;" d="M206.629,194.926v79.726c0,0,77.166,0,108.983,0c-17.189,51.931-43.52,80.091-108.983,80.091  c-66.194,0-117.76-53.76-117.76-119.954s51.566-119.954,117.76-119.954c34.743,0,57.417,12.434,78.263,29.257  c16.457-16.457,14.994-19.017,57.417-58.88c-35.84-32.549-83.383-52.663-135.314-52.663C95.817,32.55,5.851,122.881,5.851,234.058  s89.966,201.509,201.143,201.509c166.034,0,206.629-144.823,193.463-241.737H206.629V194.926z"/>
<path style="fill:#D80B0B;" d="M5.851,248.687c7.314,104.96,94.354,187.611,200.777,187.611  c139.703,0,190.537-102.4,195.291-192.366c-0.366-7.314-1.097-14.629-2.194-21.211H206.263v51.931c0,0,77.166,0,108.983,0  c-3.291,10.24-6.949,19.383-11.337,27.794c4.389,0,8.046,0,11.337,0c-17.189,51.931-43.52,80.091-108.983,80.091  c-66.194,0-117.76-53.76-117.76-119.954c0-4.754,0.366-9.509,0.731-13.897c-0.366-4.389-0.731-9.143-0.731-13.897  c0-66.194,51.566-119.954,117.76-119.954c34.743,0,57.417,12.434,78.263,29.257c14.263-14.263,15.36-17.92,41.691-43.886  c-33.646-24.869-74.971-39.497-119.954-39.497C100.206,61.075,13.166,143.727,5.851,248.687z"/>
<path style="fill:#33363A;" d="M206.629,441.784C92.526,441.784,0,348.892,0,234.79S92.891,27.795,206.629,27.795  c51.566,0,100.937,19.017,138.971,53.76c1.097,1.097,1.829,2.56,1.829,4.023c0,1.463-0.731,2.926-1.829,4.023  c-27.429,25.966-36.206,35.84-43.886,44.251c-4.023,4.389-7.68,8.411-13.531,14.263c-1.829,1.829-5.12,2.194-7.314,0.366  c-17.554-14.629-38.766-28.16-74.606-28.16c-62.903,0-112.274,50.103-112.274,114.469c0,64,49.371,114.469,112.274,114.469  c61.806,0,85.577-26.331,101.303-69.12c-34.743,0-100.937,0-100.937,0l0,0c-1.463,0-2.926-0.731-4.023-1.463  c-1.097-1.097-1.463-2.56-1.463-4.023v-79.726c0-2.926,2.56-5.486,5.486-5.486h193.463c2.56,0,5.12,2.194,5.486,4.754  c7.68,54.126-1.097,131.657-48.64,186.149C321.097,421.304,270.629,441.784,206.629,441.784z M206.629,38.767  c-107.886,0-195.657,88.137-195.657,196.023c0,108.251,87.771,196.023,195.657,196.023c60.709,0,108.617-19.383,141.897-57.783  c43.52-50.103,52.663-121.051,46.446-172.617H212.114v68.754c18.286,0,76.8,0,103.497,0c1.829,0,3.291,0.731,4.389,2.194  c1.097,1.463,1.463,3.291,0.731,4.754c-16.457,50.103-42.423,83.749-114.103,83.749c-69.12,0-123.246-54.857-123.246-125.44  c0-70.217,54.126-125.44,123.246-125.44c36.571,0,59.977,13.531,77.897,27.429c3.657-3.657,6.583-6.949,9.509-10.24  c7.314-8.411,15.726-17.554,40.229-40.96C298.423,55.224,253.44,38.767,206.629,38.767z"/>
<polygon style="fill:#4C5054;" points="425.326,111.544 425.326,72.778 397.897,72.778 397.897,111.544 357.669,111.544   357.669,139.338 397.897,139.338 397.897,179.566 425.326,179.566 425.326,139.338 464.091,139.338 464.091,111.544 "/>
<g>
	<polygon style="fill:#33363A;" points="425.326,111.544 425.326,96.55 397.897,96.55 397.897,111.544 397.897,135.314    357.669,135.314 357.669,139.338 397.897,139.338 397.897,163.109 397.897,179.566 425.326,179.566 425.326,163.109    425.326,139.338 464.091,139.338 464.091,135.314 425.326,135.314  "/>
	<path style="fill:#33363A;" d="M425.326,185.051h-27.794c-2.926,0-5.486-2.56-5.486-5.486v-34.377h-34.377   c-2.926,0-5.486-2.56-5.486-5.486v-27.794c0-2.926,2.56-5.486,5.486-5.486h34.377v-33.28c0-2.926,2.56-5.486,5.486-5.486h27.794   c2.926,0,5.486,2.56,5.486,5.486v33.28h33.28c2.926,0,5.486,2.56,5.486,5.486v27.794c0,2.926-2.56,5.486-5.486,5.486h-33.28v34.377   C430.811,182.492,428.617,185.051,425.326,185.051z M403.017,174.081h16.823v-34.377c0-2.926,2.56-5.486,5.486-5.486h33.28v-16.823   h-33.28c-2.926,0-5.486-2.56-5.486-5.486v-33.28h-16.823v33.28c0,2.926-2.56,5.486-5.486,5.486h-34.377v16.823h34.377   c2.926,0,5.486,2.56,5.486,5.486V174.081L403.017,174.081z"/>
	<path style="fill:#33363A;" d="M243.931,280.138v-10.971c0,0,77.166,0,108.983,0c2.926,0,5.486,2.56,5.486,5.486   s-2.56,5.486-5.486,5.486C321.097,280.138,243.931,280.138,243.931,280.138z"/>
	<path style="fill:#33363A;" d="M264.046,239.544h-10.971c-2.926,0-5.486-2.56-5.486-5.486s2.56-5.486,5.486-5.486h10.971   c2.926,0,5.486,2.56,5.486,5.486C269.531,236.984,267.337,239.544,264.046,239.544z"/>
	<path style="fill:#33363A;" d="M308.663,239.544h-10.971c-2.926,0-5.486-2.56-5.486-5.486s2.56-5.486,5.486-5.486h10.971   c2.926,0,5.486,2.56,5.486,5.486S311.589,239.544,308.663,239.544z"/>
	<path style="fill:#33363A;" d="M352.914,239.544h-10.971c-2.926,0-5.486-2.56-5.486-5.486s2.56-5.486,5.486-5.486h10.971   c2.926,0,5.486,2.56,5.486,5.486S356.206,239.544,352.914,239.544z"/>
</g>
<g>
</g>
<g>
</g>
<g>
</g>
<g>
</g>
<g>
</g>
<g>
</g>
<g>
</g>
<g>
</g>
<g>
</g>
<g>
</g>
<g>
</g>
<g>
</g>
<g>
</g>
<g>
</g>
<g>
</g>
</svg>
