<?xml version="1.0" encoding="iso-8859-1"?>
<!-- Generator: Adobe Illustrator 19.0.0, SVG Export Plug-In . SVG Version: 6.00 Build 0)  -->
<svg xmlns="http://www.w3.org/2000/svg" xmlns:xlink="http://www.w3.org/1999/xlink" version="1.1" id="Capa_1" x="0px" y="0px" viewBox="0 0 460.8 460.8" style="enable-background:new 0 0 460.8 460.8;" xml:space="preserve">
<path style="fill:#FF4743;" d="M235.154,5.486c-68.389,0-129.097,29.989-170.423,77.531c-12.434,14.629-23.406,30.72-31.817,47.909  l75.703,57.783c8.777-26.697,25.6-49.371,47.909-65.829c21.943-16.091,49.006-25.6,78.629-25.6  c31.817,0,60.343,11.337,83.017,29.623l65.463-65.463C343.771,26.697,292.571,5.486,235.154,5.486z"/>
<path style="fill:#E3443A;" d="M64.731,116.663c-6.583,7.68-12.8,16.091-18.286,24.503l62.537,47.543  c8.777-26.697,25.6-49.371,47.909-65.829c21.943-16.091,49.006-25.6,78.629-25.6c31.817,0,60.343,11.337,83.017,29.623  l46.446-46.446C328.411,54.492,284.16,39.132,235.52,39.132C166.766,39.132,106.057,69.12,64.731,116.663z"/>
<g>
	<path style="fill:#F7B92B;" d="M102.034,230.4c0-2.194,0-4.023,0.366-6.217c0.731-12.434,2.926-24.503,6.583-35.474L33.28,130.926   c-13.897,28.16-21.943,59.977-23.04,93.623c0,2.194,0,4.023,0,6.217s0,4.023,0,6.217c0.731,33.646,9.143,65.097,23.04,93.257   l75.703-58.149c-3.657-11.337-5.851-23.04-6.583-35.474C102.034,234.423,102.034,232.594,102.034,230.4z"/>
	<path style="fill:#F7B92B;" d="M32.914,329.874l75.703-58.149c-3.657-11.337-5.851-23.04-6.583-35.474   c0-2.194-0.366-4.023-0.366-6.217s0-4.023,0.366-6.217c0.731-12.434,2.926-24.503,6.583-35.474L32.914,130.56"/>
</g>
<path style="fill:#59C96E;" d="M310.126,343.772c-20.48,12.8-46.08,19.749-74.971,19.749c-16.823,0-32.914-3.291-47.909-8.777  c-10.971-4.389-21.211-9.874-30.354-16.823c-22.309-16.091-39.131-39.132-47.909-65.463L33.28,330.24  c8.411,17.189,19.383,33.28,31.817,47.909c41.326,47.543,102.034,77.531,170.423,77.531c20.48,0,40.96-2.926,60.343-8.046  c32.183-8.777,61.806-25.234,86.309-47.909L310.126,343.772z"/>
<path style="fill:#40A557;" d="M32.914,330.24c8.411,17.189,19.383,33.28,31.817,47.909  c41.326,47.543,102.034,77.531,170.423,77.531c20.48,0,40.96-2.926,60.343-8.046c32.183-8.777,61.806-25.234,86.309-47.909  l-72.046-55.589c-20.48,12.8-45.714,19.749-74.971,19.749c-16.823,0-32.914-3.291-47.909-8.777  c-10.971-4.389-21.211-9.874-30.354-16.823"/>
<path style="fill:#0097E2;" d="M445.074,189.44h-13.531H235.154v34.743v12.434v39.863H355.84  c-6.217,29.623-22.309,52.297-46.08,67.291l72.046,55.589c19.749-18.286,36.206-40.96,47.909-67.657  c12.8-29.257,20.48-62.903,20.48-101.303C450.194,217.234,448.366,202.972,445.074,189.44z"/>
<g>
	<path style="fill:#4087ED;" d="M381.806,399.36c19.749-18.286,36.206-40.96,47.909-67.657c12.8-29.257,20.48-62.903,20.48-101.303   c0-13.166-2.194-27.429-5.12-40.96h-13.531"/>
	<polyline style="fill:#4087ED;" points="235.154,224.183 235.154,236.617 235.154,276.48 355.84,276.48  "/>
</g>
<g>
	<path style="fill:#33363A;" d="M32.914,335.36c-0.366,0-0.731,0-1.097,0c-1.463-0.366-2.926-1.463-3.657-2.926   c-14.629-29.623-22.674-61.806-23.406-95.817v-1.829c0-1.463,0-2.926,0-4.389c0-1.463,0-2.926,0-4.389v-1.829   c0.731-33.646,8.777-65.829,23.406-95.817c8.777-17.554,19.749-34.011,32.549-49.006C104.594,28.892,168.229,0,235.154,0   c56.32,0,108.983,19.749,152.137,57.417c1.097,1.097,1.829,2.56,1.829,4.023s-0.366,2.926-1.463,4.023l-65.463,65.463   c-1.829,1.829-5.12,2.194-7.314,0.366c-22.674-18.651-50.103-28.526-79.36-28.526c-27.429,0-53.394,8.411-75.337,24.503   c-21.577,15.726-37.669,37.669-46.08,62.903c-3.657,10.971-5.851,22.309-6.217,34.011v1.463c0,1.463,0,2.926,0,4.389   c0,1.463,0,2.926,0,4.389v1.829l0,0l0,0c0.731,11.703,2.56,23.04,6.217,34.011c0.731,2.194,0,4.754-1.829,6.217L36.571,334.63   C35.109,334.994,34.011,335.36,32.914,335.36z M235.154,10.972c-64,0-124.343,27.429-166.034,75.337   c-12.434,14.263-23.04,29.989-31.086,46.811C24.137,161.646,16.457,192,15.726,224.183v2.194c0,1.463,0,2.56,0,4.023   s0,2.56,0,4.023v1.829c0.731,29.989,7.314,58.514,19.383,85.211l67.291-51.566c-3.291-10.606-5.12-21.943-5.486-33.28l0,0v-1.463   c0-1.463,0-3.291,0-4.754s0-3.291,0-4.754v-1.463c0.731-12.8,2.926-25.234,6.949-36.937c9.143-27.429,26.331-51.2,50.103-68.389   s51.931-26.331,81.554-26.331c29.989,0,58.514,9.509,82.651,27.794l57.783-57.783C335.36,28.526,286.72,10.972,235.154,10.972z"/>
	<path style="fill:#33363A;" d="M235.154,460.8c-67.291,0-130.926-28.891-174.446-79.36c-13.166-14.994-24.137-31.451-32.549-49.006   c-1.097-2.194-0.366-5.12,1.463-6.949l75.703-57.783c1.463-1.097,3.291-1.463,5.12-0.731c1.829,0.366,2.926,1.829,3.657,3.657   c8.411,25.234,24.137,47.177,46.08,62.903c9.143,6.583,19.017,12.069,29.257,16.091c14.629,5.851,30.354,8.411,46.08,8.411   c27.429,0,52.297-6.583,72.046-18.651c21.211-13.166,35.474-32.914,42.057-57.051H235.52c-2.926,0-5.486-2.56-5.486-5.486v-87.04   c0-2.926,2.56-5.486,5.486-5.486h209.92c2.56,0,4.754,1.829,5.486,4.389c3.291,14.994,5.12,29.623,5.12,42.057   c0,37.669-6.949,72.411-20.846,103.497c-11.703,26.697-28.526,50.103-49.371,69.486c-24.869,23.04-55.223,39.863-88.869,49.371   C277.211,458.24,256.366,460.8,235.154,460.8z M39.863,331.703c8.046,15.36,17.554,29.623,28.891,42.789   c41.691,47.909,102.4,75.703,166.4,75.703c20.114,0,39.863-2.56,58.88-8.046c31.817-8.777,60.709-24.869,84.114-46.811   c19.749-18.286,35.474-40.594,46.811-65.829c13.166-29.623,19.749-62.903,19.749-99.109c0-10.606-1.463-22.674-4.023-35.474H240.64   v76.069h115.2c1.829,0,3.291,0.731,4.389,2.194c1.097,1.097,1.463,2.926,1.097,4.389c-6.217,30.354-23.04,54.857-48.64,70.949   c-21.211,13.531-48.274,20.48-77.897,20.48c-17.189,0-34.011-3.291-49.737-9.143c-11.337-4.389-21.943-10.24-31.817-17.189   c-21.577-15.726-37.669-36.571-47.177-61.074L39.863,331.703z"/>
	<path style="fill:#33363A;" d="M108.617,194.194c-1.097,0-2.194-0.366-3.291-1.097l-75.703-57.783   c-2.56-1.829-2.926-5.12-1.097-7.68c1.829-2.56,5.12-2.926,7.68-1.097l75.703,57.783c2.56,1.829,2.926,5.12,1.097,7.68   C111.909,193.463,110.446,194.194,108.617,194.194z"/>
	<path style="fill:#33363A;" d="M381.806,404.846c-1.097,0-2.194-0.366-3.291-1.097l-72.046-55.589   c-2.56-1.829-2.926-5.12-1.097-7.68s5.486-2.926,7.68-1.097l72.046,55.589c2.56,1.829,2.926,5.12,1.097,7.68   C385.097,404.114,383.634,404.846,381.806,404.846z"/>
	<path style="fill:#33363A;" d="M383.269,281.966H262.583c-2.926,0-5.486-2.56-5.486-5.486s2.56-5.486,5.486-5.486h120.686   c2.926,0,5.486,2.56,5.486,5.486S386.56,281.966,383.269,281.966z"/>
	<path style="fill:#33363A;" d="M113.006,460.8H89.234c-2.926,0-5.486-2.56-5.486-5.486s2.56-5.486,5.486-5.486h23.771   c2.926,0,5.486,2.56,5.486,5.486C118.491,458.24,115.931,460.8,113.006,460.8z"/>
	<path style="fill:#33363A;" d="M228.571,460.8h-68.754c-2.926,0-5.486-2.56-5.486-5.486s2.56-5.486,5.486-5.486h68.754   c2.926,0,5.486,2.56,5.486,5.486C234.057,458.24,231.863,460.8,228.571,460.8z"/>
	<path style="fill:#33363A;" d="M138.971,460.8h-4.389c-2.926,0-5.486-2.56-5.486-5.486s2.56-5.486,5.486-5.486h4.389   c2.926,0,5.486,2.56,5.486,5.486S141.897,460.8,138.971,460.8z"/>
</g>
<g>
</g>
<g>
</g>
<g>
</g>
<g>
</g>
<g>
</g>
<g>
</g>
<g>
</g>
<g>
</g>
<g>
</g>
<g>
</g>
<g>
</g>
<g>
</g>
<g>
</g>
<g>
</g>
<g>
</g>
</svg>
