<?xml version="1.0" encoding="iso-8859-1"?>
<!-- Generator: Adobe Illustrator 19.0.0, SVG Export Plug-In . SVG Version: 6.00 Build 0)  -->
<svg xmlns="http://www.w3.org/2000/svg" xmlns:xlink="http://www.w3.org/1999/xlink" version="1.1" id="Capa_1" x="0px" y="0px" viewBox="0 0 446.69 446.69" style="enable-background:new 0 0 446.69 446.69;" xml:space="preserve">
<path style="fill:#21CE52;" d="M195.903,310.203c-0.366,37.303-14.629,68.754-42.057,93.989c-1.463,1.463-2.926,2.56-4.023,4.023  c-13.897,10.971-29.257,19.383-46.446,24.137c-7.314,1.829-14.994,3.291-22.309,4.389c-5.851,0.731-9.509-2.194-11.703-7.68  c0-16.091,0-32.183,0-48.64c0.366-4.754-1.463-9.874,2.194-13.897c1.829-2.194,4.023-3.657,6.949-4.389  c8.411-2.194,16.823-3.657,24.503-8.411c14.263-8.411,23.04-20.846,26.697-36.571c0.731-2.56,1.097-5.12,1.829-7.68  c-34.011,0-68.023,0-101.669,0c-2.926,0-5.851,0-8.777-0.731c-8.777-2.56-15.36-10.24-15.36-19.383c0-51.566,0-103.131,0-154.697  c-0.731-8.046,0-16.091,6.949-21.943c3.657-3.291,8.046-5.12,12.8-5.12c49.737,0,99.84,0,149.577,0  c13.166,0,20.48,4.023,20.48,27.063C195.903,138.317,196.269,253.883,195.903,310.203z"/>
<path style="fill:#0DBA5B;" d="M69.366,429.06c2.194,5.12,5.851,8.411,11.703,7.68c7.314-1.097,14.994-2.194,22.309-4.389  c17.189-4.754,32.549-13.166,46.446-24.137c1.463-1.463,2.926-2.56,4.023-4.023c27.063-25.234,41.691-56.686,42.057-93.989  c0-14.994,0-34.743,0.366-54.857c0-45.349-0.366-87.406-0.366-89.6c0-22.674-7.314-27.063-20.48-27.063c-49.737,0-99.84,0-149.577,0  c-4.754,0-9.143,1.829-12.8,5.12c-4.389,4.023-6.217,8.411-6.949,13.531c0,2.56,0,5.486,0,8.046v0.366c0,41.326,0,82.651,0,123.611  c0,8.777,6.583,16.823,15.36,19.017c2.926,0.731,5.851,0.731,8.777,0.731c34.011,0,68.023,0,101.669,0  c-0.731,2.56-1.097,5.12-1.829,7.68c-2.194,9.143-6.217,16.823-11.337,23.406c4.389,0,8.777,0,13.166,0  c-0.731,2.56-1.097,5.12-1.829,7.68c-4.023,16.091-12.8,28.16-26.697,36.571c-7.68,4.754-16.091,6.217-24.503,8.411  c-2.926,0.731-5.12,2.194-6.949,4.389c-1.463,1.463-1.829,2.926-2.194,4.754c0,2.194,0,4.389,0,6.583c0,1.097,0,1.829,0,2.926  C69.366,417.357,69.366,423.209,69.366,429.06z"/>
<g>
	<path style="fill:#33363A;" d="M79.24,442.226c-6.583,0-12.069-4.023-14.994-10.971c-0.366-0.731-0.366-1.463-0.366-2.194   c0-14.629,0-29.257,0-44.251v-4.389c0-1.463,0-2.56,0-3.657c-0.366-4.023-0.731-9.143,3.657-13.897   c2.56-2.926,5.851-4.754,9.509-5.851l3.291-0.731c7.314-1.829,13.897-3.291,19.749-6.949c12.8-7.68,20.846-18.651,24.137-33.28   c0-0.366,0-0.366,0.366-0.731c-31.817,0-63.269,0-94.72,0c-2.926,0-6.583,0-10.24-1.097C8.292,311.3,0.246,300.694,0.246,289.723   c0-38.034,0-76.069,0-114.103v-40.229c-0.731-8.046-0.366-18.651,8.777-26.331c5.12-4.389,10.24-6.583,16.457-6.583h54.857   c31.817,0,63.269,0,94.72,0c5.851,0,13.166,0.731,18.651,5.851c5.12,5.12,7.314,13.166,7.314,26.331v5.851   c0.366,79.726,0.366,136.777,0,169.691l0,0c-0.366,38.034-14.994,71.314-43.52,98.011c-1.097,1.097-1.829,1.829-2.926,2.926   l-1.097,1.097l-0.366,0.366c-16.091,12.434-31.817,20.48-48.64,24.869c-7.314,2.194-14.629,3.291-23.04,4.389   C80.703,442.226,79.972,442.226,79.24,442.226z M74.486,427.597c1.829,4.023,4.023,3.657,5.486,3.291   c7.68-1.097,14.994-2.194,21.577-4.023c14.994-4.023,29.623-11.703,44.251-23.04l0.731-0.731c1.097-1.097,2.194-2.194,3.291-2.926   c26.331-24.503,39.863-54.857,40.229-89.966c0.366-32.549,0.366-89.6,0-169.326v-5.851c0-9.509-1.463-15.726-4.389-18.651   c-1.829-1.829-5.12-2.56-10.971-2.926c-31.451,0-63.269,0-94.72,0H25.114c-3.291,0-6.217,1.097-9.143,3.657   c-4.389,3.657-5.851,8.411-5.12,17.189v0.366v40.594c0,38.034,0,76.069,0,114.103c0,6.217,4.754,12.069,11.337,13.897   c2.194,0.731,4.754,0.731,7.314,0.731c34.011,0,67.657,0,101.669,0c1.829,0,3.291,0.731,4.389,2.194   c1.097,1.463,1.463,2.926,1.097,4.754c-0.731,2.56-1.097,5.12-1.829,7.68c-4.389,17.554-14.263,31.086-29.257,39.863   c-7.314,4.389-15.36,6.217-23.04,8.411l-3.291,0.731c-1.829,0.366-2.926,1.097-4.023,2.56c-1.097,1.097-1.097,2.56-0.731,5.851   c0,1.463,0.366,2.926,0,4.754v4.023C74.852,399.072,74.852,413.334,74.486,427.597z"/>
	<path style="fill:#33363A;" d="M153.48,314.957L153.48,314.957c-34.011,0-68.023,0-101.669,0c-2.926,0-5.486-2.56-5.486-5.486   s2.56-5.486,5.486-5.486l0,0c34.011,0,68.023,0,101.669,0c2.926,0,5.486,2.56,5.486,5.486S156.406,314.957,153.48,314.957z"/>
</g>
<path style="fill:#21CE52;" d="M441.663,310.203c-0.366,37.303-14.629,68.754-42.057,93.989c-1.463,1.463-2.926,2.56-4.023,4.023  c-13.897,10.971-29.257,19.383-46.446,24.137c-7.314,1.829-14.994,3.291-22.309,4.389c-5.851,0.731-9.509-2.194-11.703-7.68  c0-16.091,0-32.183,0-48.64c0.366-4.754-1.463-9.874,2.194-13.897c1.829-2.194,4.023-3.657,6.949-4.389  c8.411-2.194,16.823-3.657,24.503-8.411c14.263-8.411,23.04-20.846,26.697-36.571c0.731-2.56,1.097-5.12,1.829-7.68  c-34.011,0-68.023,0-101.669,0c-2.926,0-5.851,0-8.777-0.731c-8.777-2.56-15.36-10.24-15.36-19.383c0-51.566,0-103.131,0-154.697  c-0.731-8.046,0-16.091,6.949-21.943c3.657-3.291,7.68-5.12,12.8-5.12c49.737,0,99.84,0,149.577,0  c13.166,0,20.48,4.023,20.48,27.063C441.663,138.317,442.029,253.883,441.663,310.203z"/>
<path style="fill:#0DBA5B;" d="M315.126,429.06c2.194,5.12,5.851,8.411,11.703,7.68c7.314-1.097,14.994-2.194,22.309-4.389  c17.189-4.754,32.549-13.166,46.446-24.137c1.463-1.463,2.926-2.56,4.023-4.023c27.063-25.234,41.691-56.686,42.057-93.989  c0-14.994,0-34.743,0.366-54.857c0-45.349-0.366-87.406-0.366-89.6c0-22.674-7.314-27.063-20.48-27.063c-49.737,0-99.84,0-149.577,0  c-4.754,0-9.143,1.829-12.8,5.12c-4.389,4.023-6.217,8.411-6.949,13.531c0,2.56,0,5.486,0,8.046v0.366c0,41.326,0,82.651,0,123.611  c0,8.777,6.583,16.823,15.36,19.017c2.926,0.731,5.851,0.731,8.777,0.731c34.011,0,68.023,0,101.669,0  c-0.731,2.56-1.097,5.12-1.829,7.68c-2.194,9.143-6.217,16.823-11.337,23.406c4.389,0,8.777,0,13.166,0  c-0.731,2.56-1.097,5.12-1.829,7.68c-4.023,16.091-12.8,28.16-26.697,36.571c-7.68,4.754-16.091,6.217-24.503,8.411  c-2.926,0.731-5.12,2.194-6.949,4.389c-1.463,1.463-1.829,2.926-2.194,4.754c0,2.194,0,4.389,0,6.583c0,1.097,0,1.829,0,2.926  C315.126,417.357,315.126,423.209,315.126,429.06z"/>
<g>
	<path style="fill:#33363A;" d="M324.634,442.226c-6.583,0-12.069-4.023-14.994-10.971c-0.366-0.731-0.366-1.463-0.366-2.194   c0-16.091,0-32.183,0-48.64c0-1.463,0-2.56,0-3.657c-0.366-4.023-0.731-9.143,3.657-13.897c2.56-2.926,5.851-4.754,9.509-5.851   l3.291-0.731c7.314-1.829,13.897-3.291,19.749-6.949c12.8-7.68,20.846-18.651,24.137-33.28c0-0.366,0-0.366,0.366-0.731   c-31.817,0-63.269,0-94.72,0c-2.926,0-6.583,0-10.24-1.097c-11.337-2.926-19.383-13.531-19.383-24.503c0-37.669,0-74.971,0-112.274   v-42.057c-0.731-8.046-0.366-18.651,8.777-26.331c5.12-4.389,10.24-6.583,16.457-6.583h54.857c31.451,0,63.269,0,94.72,0   c5.851,0,13.166,0.731,18.651,5.851c5.12,5.12,7.314,13.166,7.314,26.331v5.851c0.366,79.726,0.366,136.777,0,169.691l0,0   c-0.366,38.034-14.994,71.314-43.52,98.011c-1.097,1.097-1.829,1.829-2.926,2.926l-1.097,1.097l-0.366,0.366   c-16.091,12.434-31.817,20.48-48.64,24.868c-7.314,2.194-14.629,3.291-23.04,4.389   C326.463,442.226,325.732,442.226,324.634,442.226z M320.246,427.597c1.829,4.023,4.023,3.657,5.486,3.291   c7.68-1.097,14.994-2.194,21.577-4.023c14.994-4.023,29.623-11.703,44.251-23.04l1.097-0.731c1.097-1.097,2.194-2.194,3.291-2.926   c26.331-24.503,39.863-54.857,40.229-89.966c0.366-32.549,0.366-89.6,0-169.326v-5.851c0-9.509-1.463-15.726-4.389-18.651   c-1.829-1.829-5.12-2.926-10.971-2.926c-31.451,0-63.269,0-94.72,0H271.24c-3.291,0-6.217,1.097-9.143,3.657   c-4.389,3.657-5.851,8.411-5.12,17.189v0.366v42.057c0,37.303,0,74.971,0,112.274c0,6.217,4.754,12.069,11.337,13.897   c2.194,0.731,4.754,0.731,7.314,0.731c34.011,0,67.657,0,101.669,0c1.829,0,3.291,0.731,4.389,2.194   c1.097,1.463,1.463,2.926,1.097,4.754l-0.366,0.731c-0.366,2.194-1.097,4.389-1.463,6.583   c-4.389,17.554-14.263,31.086-29.257,39.863c-7.314,4.389-15.36,6.217-23.04,8.411l-3.291,0.731   c-1.829,0.366-2.926,1.097-4.023,2.56c-1.097,1.097-1.097,2.56-0.731,5.851c0,1.463,0.366,2.926,0,4.754   C320.612,396.146,320.612,411.872,320.246,427.597z"/>
	<path style="fill:#33363A;" d="M399.24,314.957L399.24,314.957c-34.011,0-68.023,0-101.669,0c-2.926,0-5.486-2.56-5.486-5.486   s2.56-5.486,5.486-5.486l0,0c34.011,0,68.023,0,101.669,0c2.926,0,5.486,2.56,5.486,5.486   C404.726,312.397,402.166,314.957,399.24,314.957z"/>
	<path style="fill:#33363A;" d="M223.697,50.546c-2.926,0-5.486-2.56-5.486-5.486V34.089c0-2.926,2.56-5.486,5.486-5.486l0,0   c2.926,0,5.486,2.56,5.486,5.486V45.06C229.183,47.986,226.623,50.546,223.697,50.546L223.697,50.546z"/>
	<path style="fill:#33363A;" d="M223.697,15.803L223.697,15.803c-2.926,0-5.486-2.56-5.486-5.486V9.951   c0-2.926,2.56-5.486,5.486-5.486s5.486,2.56,5.486,5.486v0.366C229.183,13.243,226.623,15.803,223.697,15.803z"/>
	<path style="fill:#33363A;" d="M137.389,68.1c-1.463,0-2.926-0.366-4.023-1.463l-8.046-7.68c-2.194-2.194-2.194-5.486,0-7.68   s5.486-2.194,7.68,0l8.046,7.68c2.194,2.194,2.194,5.486,0,7.68C140.314,67.734,138.852,68.1,137.389,68.1z"/>
	<path style="fill:#33363A;" d="M112.886,43.597c-1.463,0-2.926-0.366-4.023-1.463l-0.366-0.366c-2.194-2.194-2.194-5.486,0-7.68   s5.486-2.194,7.68,0l0.366,0.366c2.194,2.194,2.194,5.486,0,7.68C115.812,43.231,114.349,43.597,112.886,43.597z"/>
	<path style="fill:#33363A;" d="M310.006,68.1c-1.463,0-2.926-0.366-4.023-1.463c-2.194-2.194-2.194-5.486,0-7.68l8.046-8.046   c2.194-2.194,5.486-2.194,7.68,0s2.194,5.486,0,7.68l-8.046,8.046C312.566,67.734,311.469,68.1,310.006,68.1z"/>
	<path style="fill:#33363A;" d="M334.509,43.597c-1.463,0-2.926-0.731-4.023-1.829c-2.194-2.194-2.194-5.486,0-7.68l0.366-0.366   c2.194-2.194,5.486-2.194,7.68,0s2.194,5.486,0,7.68l-0.366,0.366C337.434,43.231,335.972,43.597,334.509,43.597z"/>
</g>
<g>
</g>
<g>
</g>
<g>
</g>
<g>
</g>
<g>
</g>
<g>
</g>
<g>
</g>
<g>
</g>
<g>
</g>
<g>
</g>
<g>
</g>
<g>
</g>
<g>
</g>
<g>
</g>
<g>
</g>
</svg>
