<?xml version="1.0" encoding="iso-8859-1"?>
<!-- Generator: Adobe Illustrator 19.0.0, SVG Export Plug-In . SVG Version: 6.00 Build 0)  -->
<svg xmlns="http://www.w3.org/2000/svg" xmlns:xlink="http://www.w3.org/1999/xlink" version="1.1" id="Capa_1" x="0px" y="0px" viewBox="0 0 457.351 457.351" style="enable-background:new 0 0 457.351 457.351;" xml:space="preserve">
<g>
	
		<rect x="197.745" y="197.13" transform="matrix(0.3175 0.9483 -0.9483 0.3175 372.3131 -60.1132)" style="fill:#7ED1B5;" width="60.342" height="62.907"/>
	<path style="fill:#7ED1B5;" d="M166.935,24.737C13.701,70.817-21.774,137.012,23.941,290.246   C70.021,443.48,136.215,478.955,289.45,433.24c153.234-46.08,188.709-112.274,142.994-265.509   C386.363,14.497,319.803-21.343,166.935,24.737z M354.546,266.84l-28.891,9.509l9.874,29.989   c4.023,12.069-2.56,25.234-14.629,29.257c-2.56,0.731-5.12,1.097-8.046,1.097c-9.509-0.366-18.286-6.217-21.211-15.726   l-9.874-29.989l-59.611,20.114l9.874,29.989c4.023,12.069-2.56,25.234-14.629,29.257c-2.56,0.731-5.486,1.097-8.046,1.097   c-9.509-0.366-18.286-6.217-21.211-15.726l-9.874-29.989l-28.891,9.509c-2.56,0.731-5.486,1.097-8.046,1.097   c-9.509-0.366-18.286-6.217-21.211-15.726c-4.023-12.069,2.56-25.234,14.629-29.257l28.891-9.509l-19.017-57.417l-28.891,9.509   c-2.56,0.731-5.486,1.097-8.046,1.097c-9.509-0.366-18.286-6.217-21.211-15.726c-4.023-12.069,2.56-25.234,14.629-29.257   l28.891-9.509l-9.874-29.989c-4.023-12.069,2.56-25.234,14.629-29.257s25.234,2.56,29.257,14.629l9.874,29.989l59.611-20.114   l-9.874-29.989c-4.023-12.069,2.56-25.234,14.629-29.257s25.234,2.56,29.257,14.629l9.874,29.989l28.891-9.509   c12.069-4.023,25.234,2.56,29.257,14.629c4.023,12.069-2.56,25.234-14.629,29.257l-28.891,9.509l19.017,57.417l28.891-9.509   c12.069-4.023,25.234,2.56,29.257,14.629C373.198,249.652,366.615,262.817,354.546,266.84z"/>
</g>
<rect x="197.745" y="197.13" transform="matrix(0.3175 0.9483 -0.9483 0.3175 372.3131 -60.1132)" style="fill:#9DEACE;" width="60.342" height="62.907"/>
<g>
	<path style="fill:#5FB2A2;" d="M224.718,119.823c-2.56,5.12-3.291,11.337-1.097,17.554l3.657,10.971l6.217-2.194L224.718,119.823z"/>
	<path style="fill:#5FB2A2;" d="M121.221,154.566c-2.56,5.12-3.291,11.337-1.097,17.554l3.657,10.971l6.217-2.194L121.221,154.566z"/>
	<path style="fill:#5FB2A2;" d="M354.546,266.84l-28.891,9.509L331.872,295l22.674-7.68c12.069-4.023,18.651-17.189,14.629-29.257   c-0.366-1.097-0.731-2.194-1.463-2.926C365.152,260.623,360.763,265.012,354.546,266.84z"/>
</g>
<path style="fill:#9DEACE;" d="M166.935,45.583c153.234-46.08,219.429-10.24,265.509,142.994  c10.606,35.84,16.823,66.926,18.286,94.354c1.829-31.817-4.754-69.486-18.286-115.2C386.363,14.497,320.169-20.977,166.935,24.737  C49.906,59.846,1.266,107.023,5.655,195.892C9.678,120.189,59.049,77.766,166.935,45.583z"/>
<g>
	<path style="fill:#5FB2A2;" d="M320.901,165.903l-28.891,9.509l6.217,18.651l22.674-7.68c12.069-4.023,18.651-17.189,14.629-29.257   c-0.366-1.097-0.731-2.194-1.463-2.926C331.506,159.686,326.752,163.709,320.901,165.903z"/>
	<path style="fill:#5FB2A2;" d="M86.843,240.875c3.291,9.509,11.703,15.36,21.211,15.726c2.56,0,5.486-0.366,8.046-1.097   l28.891-9.509l12.8,38.4l6.217-2.194l-19.017-57.417l-28.891,9.509c-2.56,0.731-5.486,1.097-8.046,1.097   c-8.411-0.366-16.091-5.12-20.114-12.8C85.381,228.44,84.649,234.657,86.843,240.875z"/>
	<path style="fill:#5FB2A2;" d="M321.266,335.595c-2.56,0.731-5.12,1.097-8.046,1.097c-9.509-0.366-18.286-6.217-21.211-15.726   l-9.874-29.989l-59.611,20.114l6.217,18.651l53.394-17.92l9.874,29.989c3.291,9.509,11.703,15.36,21.211,15.726   c2.56,0,5.12-0.366,8.046-1.097c12.069-4.023,18.651-17.189,14.629-29.257l-1.097-3.291   C332.238,329.377,327.483,333.766,321.266,335.595z"/>
	<path style="fill:#5FB2A2;" d="M218.135,370.337c-2.56,0.731-5.486,1.097-8.046,1.097c-9.509-0.366-18.286-6.217-21.211-15.726   l-9.874-29.989l-28.891,9.509c-2.56,0.731-5.486,1.097-8.046,1.097c-8.411-0.366-16.091-5.12-20.114-12.8   c-2.56,5.486-3.291,11.703-1.463,17.92c3.291,9.509,11.703,15.36,21.211,15.726c2.56,0,5.486-0.366,8.046-1.097l28.891-9.509   l9.874,29.989c3.291,9.509,11.703,15.36,21.211,15.726c2.56,0,5.12-0.366,8.046-1.097c12.069-4.023,18.651-17.189,14.629-29.257   l-1.097-3.291C228.741,363.755,223.986,368.143,218.135,370.337z"/>
</g>
<g>
	<path style="fill:#33363A;" d="M184.123,457.012c-27.429,0-50.469-5.486-70.217-16.091C72.215,418.612,42.957,372.532,18.82,291.71   C2.729,238.68-2.757,198.086,1.266,164.075v-0.366c1.097-9.874,3.291-19.383,6.217-28.16l0.366-0.731   c0.731-2.194,1.463-4.023,2.194-6.217l0.366-1.097c2.56-6.217,5.486-12.069,8.777-17.554l0.731-1.097   c1.097-1.829,2.194-3.291,3.291-4.754l1.097-1.829c1.097-1.463,2.194-3.291,3.291-4.754l0.731-0.731   c2.194-2.926,4.754-5.851,7.68-8.777l0.366-0.366c0.366-0.366,0.731-0.731,1.097-1.463c1.097-1.463,2.56-2.56,3.657-3.657   c0.731-0.731,1.463-1.463,2.194-2.194c1.463-1.097,2.56-2.194,4.023-3.657c0.731-0.731,1.463-1.097,2.194-1.829l0.731-0.731   c2.194-1.829,4.389-3.657,6.949-5.486l0.366-0.366c1.097-0.731,2.194-1.463,3.291-2.194s2.56-1.829,3.657-2.56l0.366-0.366   c1.463-0.731,2.56-1.829,4.023-2.56c1.463-0.731,2.56-1.829,4.023-2.56c1.463-1.097,3.291-1.829,4.754-2.926l1.463-0.731   c0.731-0.366,1.829-1.097,2.56-1.463c2.56-1.463,5.486-2.926,8.411-4.389c1.097-0.366,1.829-1.097,2.926-1.463l0.731-0.366   c1.829-1.097,4.023-1.829,6.217-2.926l4.023-1.829c2.194-1.097,4.389-1.829,6.949-2.926l1.097-0.366   c0.731-0.366,1.829-0.731,2.56-1.097c3.291-1.463,6.949-2.926,10.606-4.389l2.56-1.097c2.926-1.097,5.851-2.194,9.143-3.291   l4.023-1.463c2.926-1.097,5.851-1.829,8.777-2.926l3.657-1.097c4.023-1.463,8.411-2.56,12.8-4.023   c80.823-24.137,135.68-25.234,177.006-2.926c41.691,22.309,70.949,68.389,95.086,149.211c1.463,5.486,2.926,10.606,4.389,15.726   c0.366,1.097,0.366,2.194,0.731,2.926l0.366,1.463c1.097,3.657,1.829,7.314,2.926,10.971c0.366,1.463,0.731,2.56,1.097,4.023v0.366   c0.731,3.657,1.463,7.314,2.56,10.606l0.731,3.657c0.731,4.023,1.463,8.046,2.194,12.069l0.366,1.829   c9.143,57.051,1.463,99.109-24.503,131.657c-25.234,31.817-68.754,55.954-137.143,76.434   C248.855,450.795,213.746,457.012,184.123,457.012z M271.895,11.572c-28.526,0-62.537,6.217-103.497,18.286   c-4.389,1.463-8.411,2.56-12.434,4.023l-3.657,1.097c-2.926,1.097-5.851,1.829-8.411,2.926l-4.023,1.463   c-2.926,1.097-6.217,2.194-9.143,3.291l-2.56,0.731c-3.657,1.463-6.949,2.926-10.24,4.023c-0.731,0.366-1.463,0.731-2.56,1.097   l-1.097,0.366c-2.194,1.097-4.389,1.829-6.583,2.926l-4.023,1.829c-1.829,1.097-4.023,1.829-5.851,2.926l-1.097,0.366   c-0.731,0.366-1.829,0.731-2.56,1.463c-2.926,1.463-5.486,2.926-8.046,4.389c-0.731,0.366-1.463,0.731-2.194,1.463l-1.463,0.731   c-1.463,0.731-2.926,1.829-4.389,2.56c-1.463,0.731-2.56,1.463-4.023,2.56c-1.097,0.731-2.56,1.463-3.657,2.56l-0.366,0.366   c-1.097,0.731-2.194,1.463-3.291,2.194s-1.829,1.463-2.926,2.194l-0.366,0.366c-2.194,1.829-4.389,3.291-6.583,5.12l-0.731,0.731   c-0.731,0.366-1.097,1.097-1.829,1.463c-1.097,1.097-2.56,2.194-3.657,3.291c-0.731,0.731-1.463,1.463-2.194,2.194   c-1.097,1.097-2.56,2.194-3.657,3.657c-0.366,0.366-0.731,0.731-1.097,1.097l-0.366,0.366c-2.56,2.56-5.12,5.486-6.949,8.411   l-0.731,0.731c-1.097,1.463-2.194,2.926-2.926,4.389l-1.097,1.463c-1.097,1.463-1.829,2.926-2.926,4.389l-0.731,1.097   c-2.926,5.12-5.851,10.606-8.046,16.091l-0.366,0.731c-0.731,1.829-1.463,3.657-2.194,5.486l-0.366,0.731   c-2.56,8.046-4.389,16.823-5.486,26.331c-3.657,32.183,1.829,72.777,17.189,123.611c23.406,77.897,51.2,121.783,89.966,142.629   s90.697,19.749,168.594-3.657c129.097-38.766,170.789-91.794,153.966-196.023l0,0l-0.366-1.463   c-0.731-4.023-1.463-7.68-2.194-11.703l-0.731-3.657c-0.731-3.291-1.463-6.949-2.194-10.606v-0.366   c-0.366-1.463-0.731-2.56-1.097-4.023c-0.731-3.657-1.829-7.314-2.926-10.606l-0.366-1.463c-0.366-1.097-0.366-1.829-0.731-2.926   c-1.463-5.12-2.926-10.24-4.389-15.36C402.82,92.029,375.026,48.143,336.26,27.298C318.706,16.326,297.495,11.572,271.895,11.572z    M210.821,376.92c-0.366,0-0.366,0-0.731,0c-12.069-0.366-22.674-8.046-26.331-19.383l-8.411-24.503l-23.771,8.046   c-3.291,1.097-6.583,1.463-9.874,1.463c-1.463,0-2.56,0-4.023-0.366c-0.366,0-0.731,0-1.097-0.366h-0.366   c-0.731-0.366-1.829-0.366-2.56-0.731c-0.366,0-1.097-0.366-1.463-0.731c-0.731-0.366-1.463-0.731-2.194-0.731   c-0.731-0.366-1.097-0.731-1.829-1.097c-0.366-0.366-1.097-0.731-1.463-1.097c-0.731-0.366-1.097-0.731-1.829-1.463   c-0.366-0.366-0.731-0.731-1.097-1.097c-0.731-0.366-1.097-1.097-1.829-1.829c-0.366-0.366-0.366-0.731-0.731-1.097   c-0.731-0.731-1.463-1.463-1.829-2.194c0-0.366-0.366-0.366-0.366-0.731c-0.731-0.731-1.097-1.463-1.463-2.56v-0.366   c-0.731-1.463-1.097-2.56-1.463-4.023c-5.12-14.994,2.926-31.086,17.92-36.206l23.771-8.046l-15.726-46.811l-23.771,8.046   c-3.291,1.097-6.583,1.463-9.874,1.463c-1.463,0-2.56,0-4.023-0.366c-0.366,0-0.731,0-1.097-0.366   c-1.097-0.366-1.829-0.366-2.926-0.731c-0.366,0-0.731-0.366-1.463-0.366h-0.366c-0.731-0.366-1.463-0.366-1.829-0.731   c-0.731-0.366-1.097-0.731-1.829-1.097c-0.731-0.366-1.097-0.731-1.829-1.097c-0.731-0.366-1.097-0.731-1.829-1.097   c-0.366-0.366-0.731-0.731-1.463-1.097c-0.731-0.366-1.097-1.097-1.829-1.463c-0.366-0.366-0.731-0.731-1.097-1.097l4.023-4.023   l-4.023,3.657c-0.366-0.731-1.097-1.097-1.463-1.829c-0.366-0.366-0.366-0.731-0.731-1.097l-0.366-0.366l-0.366-0.366   c-0.366-0.366-0.731-1.097-1.097-1.829c-0.731-1.463-1.097-2.56-1.829-4.023c-5.12-14.994,2.926-31.086,17.92-36.206l23.771-8.046   l-8.411-24.503c-2.56-7.314-1.829-14.994,1.463-21.943c3.291-6.949,9.143-12.069,16.457-14.263   c14.994-5.12,31.086,2.926,36.206,17.92l8.411,24.503l49.006-16.457l-8.411-24.503c-5.12-14.994,2.926-31.086,17.92-36.206   s31.086,2.926,36.206,17.92l8.411,24.503l23.771-8.046c14.994-5.12,31.086,2.926,36.206,17.92c2.56,7.314,1.829,15.36-1.829,21.943   c0,0,0,0.366-0.366,0.366c-2.56,4.754-6.217,8.777-10.971,11.337l0,0c0,0,0,0-0.366,0c-1.463,0.731-3.291,1.829-5.12,2.194   l-23.771,8.046l15.726,46.811l23.771-8.046c14.994-5.12,31.086,2.926,36.206,17.92c2.56,7.314,1.829,15.36-1.829,22.309   c0,0,0,0.366-0.366,0.366c-3.291,6.583-9.143,11.337-16.091,13.531l-23.771,8.046l8.411,24.503   c2.56,7.314,1.829,14.629-1.463,21.577c0,0,0,0.366-0.366,0.366c-3.291,6.583-9.143,11.703-16.457,14.263   c-3.291,1.097-6.583,1.463-9.874,1.463c-12.069-0.366-22.674-8.046-26.331-19.383l-8.411-24.503l-49.006,16.457l8.411,24.503   c2.56,7.314,1.829,14.994-1.463,21.577v0.366c-3.291,6.949-9.143,11.703-16.457,14.263   C216.672,376.555,213.746,376.92,210.821,376.92z M178.638,320.235c0.731,0,1.829,0.366,2.56,0.731   c1.463,0.731,2.194,1.829,2.926,3.291l9.874,29.989c2.194,6.949,8.777,11.703,16.091,12.069c1.829,0,4.023-0.366,6.217-0.731   c4.389-1.463,8.046-4.754,10.24-9.143c0,0,0,0,0-0.366c1.829-4.023,2.194-8.777,0.731-13.166l-9.874-29.989   c-1.097-2.926,0.731-5.851,3.291-6.949l59.611-20.114c1.463-0.366,2.926-0.366,4.023,0.366c1.463,0.731,2.194,1.829,2.926,3.291   l9.874,29.989c2.194,6.949,8.777,11.703,16.091,12.069c2.194,0,4.023-0.366,6.217-1.097c4.389-1.463,8.046-4.754,10.24-9.143   v-0.366c1.829-4.023,2.194-8.777,0.731-12.8l-9.874-29.989c-1.097-2.926,0.731-5.851,3.291-6.949l28.891-9.509   c4.389-1.463,8.046-4.389,10.24-8.777v-0.366c2.194-4.023,2.194-8.777,0.731-13.166c-2.926-9.143-13.166-14.263-22.309-10.971   l-28.891,9.509c-1.463,0.366-2.926,0.366-4.023-0.366c-1.463-0.731-2.194-1.829-2.926-3.291l-19.017-57.417   c-1.097-2.926,0.731-5.851,3.291-6.949l28.891-9.509c1.097-0.366,2.194-0.731,3.291-1.463c0,0,0,0,0.366,0   c2.926-1.829,5.12-4.023,6.583-7.314v-0.366c2.194-4.023,2.194-8.777,0.731-13.166c-2.926-9.143-13.166-14.263-22.309-10.971   l-28.891,9.509c-1.463,0.366-2.926,0.366-4.023-0.366c-1.463-0.731-2.194-1.829-2.926-3.291l-9.874-29.989   c-2.926-9.143-13.166-14.263-22.309-10.971c-9.143,2.926-14.263,13.166-10.971,22.309l9.874,29.989   c1.097,2.926-0.731,5.851-3.291,6.949l-59.611,20.114c-1.463,0.366-2.926,0.366-4.023-0.366c-1.463-0.731-2.194-1.829-2.926-3.291   l-9.874-29.989c-2.926-9.143-13.166-14.263-22.309-10.971c-4.389,1.463-8.046,4.754-10.24,8.777   c-2.194,4.389-2.56,9.143-1.097,13.531l9.874,29.989c1.097,2.926-0.731,5.851-3.291,6.949l-28.891,9.509   c-9.143,2.926-14.263,13.166-10.971,22.309c0.366,0.731,0.731,1.463,1.097,2.56c0,0.366,0.366,0.366,0.366,0.731l0.366,0.731   l0.366,0.366c0.366,0.366,0.366,0.731,0.731,1.097l0.366,0.366c0,0.366,0.366,0.366,0.366,0.731   c0.366,0.366,0.731,0.731,1.097,1.097s0.731,0.366,0.731,0.731c0.366,0.366,0.731,0.366,1.097,0.731s0.731,0.366,1.097,0.731   s0.731,0.366,1.097,0.731c0.366,0,0.731,0.366,1.097,0.366h0.366c0.366,0,0.366,0,0.731,0.366c0.366,0,1.097,0.366,1.463,0.366   h0.731h0.366c0.731,0,1.829,0.366,2.56,0.366c2.194,0,4.023-0.366,6.217-1.097l28.891-9.509c1.463-0.366,2.926-0.366,4.023,0.366   c1.463,0.731,2.194,1.829,2.926,3.291l19.017,57.417c0.366,1.463,0.366,2.926-0.366,4.023c-0.731,1.463-1.829,2.194-3.291,2.926   l-28.891,9.509c-9.143,2.926-14.263,13.166-10.971,22.309c0.366,0.731,0.366,1.463,0.731,2.194c0,0,0,0,0,0.366   c0.366,0.731,0.731,1.097,1.097,1.829l0.366,0.366c0.366,0.366,0.731,1.097,1.097,1.463l0.731,0.731   c0.366,0.366,0.731,0.731,1.097,1.097s0.366,0.366,0.731,0.731c0.366,0.366,0.731,0.731,1.097,0.731   c0.366,0.366,0.731,0.366,1.097,0.731c0.366,0.366,0.731,0.366,1.097,0.731c0.366,0.366,0.731,0.366,1.097,0.366   c0.366,0.366,0.731,0.366,1.097,0.366s1.097,0.366,1.463,0.366h0.731c1.097,0.366,1.829,0.366,2.56,0.366   c2.194,0,4.023-0.366,6.217-0.731l28.891-9.509C177.541,320.6,178.272,320.235,178.638,320.235z"/>
	<path style="fill:#33363A;" d="M207.895,273.057c-2.194,0-4.389-1.463-5.12-3.657l-19.017-57.417   c-1.097-2.926,0.731-5.851,3.291-6.949l59.611-20.114c1.463-0.366,2.926-0.366,4.023,0.366c1.463,0.731,2.194,1.829,2.926,3.291   l19.017,57.417c1.097,2.926-0.731,5.851-3.291,6.949l-59.611,19.749C208.992,272.692,208.261,273.057,207.895,273.057z    M195.461,213.446l15.726,46.811l49.006-16.457l-15.726-46.811L195.461,213.446z"/>
</g>
<g>
</g>
<g>
</g>
<g>
</g>
<g>
</g>
<g>
</g>
<g>
</g>
<g>
</g>
<g>
</g>
<g>
</g>
<g>
</g>
<g>
</g>
<g>
</g>
<g>
</g>
<g>
</g>
<g>
</g>
</svg>
