<?xml version="1.0" encoding="iso-8859-1"?>
<!-- Generator: Adobe Illustrator 19.0.0, SVG Export Plug-In . SVG Version: 6.00 Build 0)  -->
<svg xmlns="http://www.w3.org/2000/svg" xmlns:xlink="http://www.w3.org/1999/xlink" version="1.1" id="Capa_1" x="0px" y="0px" viewBox="0 0 463.318 463.318" style="enable-background:new 0 0 463.318 463.318;" xml:space="preserve">
<g>
	<path style="fill:#F92E64;" d="M106.926,39.475c21.943,0,40.594,17.189,40.594,40.229c0,22.674-18.651,40.229-40.594,40.229   c-22.309,0-40.594-17.189-40.594-40.229C66.331,57.029,84.617,39.475,106.926,39.475z"/>
	<path style="fill:#F92E64;" d="M379.017,423.109c-41.326,0-61.074-24.503-61.074-58.149c0-9.509,1.097-19.749,4.023-29.989   l19.749-70.583c2.56-7.68,2.926-14.994,2.926-21.577c0-22.674-13.897-36.571-35.84-36.571c-28.16,0-46.811,20.114-56.32,59.246   l-38.4,153.6h-66.926l12.069-48.274c-19.749,32.549-47.177,52.297-80.823,52.297c-40.594,0-59.977-23.406-59.977-58.88   c0-9.143,1.097-20.114,3.657-29.989l30.354-124.709H5.257l14.263-53.029h113.737L88.274,334.606   c-2.926,11.337-4.023,20.846-4.023,27.429c0,11.337,5.486,14.629,14.263,16.823c5.486,1.097,47.909,0.366,70.949-51.2   l29.623-118.126h-47.909l14.263-53.029h102.4l-13.166,59.977c17.92-33.646,53.76-65.463,89.234-65.463   c37.669,0,68.754,26.697,68.754,78.263c0,13.166-1.829,27.429-6.583,43.52l-19.017,68.754c-1.829,7.314-2.926,13.166-2.926,18.651   c0,12.069,4.754,17.92,13.897,17.92c8.777,0,20.48-6.583,33.646-43.154l26.331,10.24   C442.651,400.435,414.491,423.109,379.017,423.109z"/>
</g>
<path style="fill:#DB0F4E;" d="M379.017,423.109c30.354,0,55.589-17.189,72.046-56.686l-19.383-7.314  c-13.166,36.571-24.503,43.154-33.646,43.154s-13.897-5.851-13.897-17.92c0-4.023,0.731-8.046,1.829-12.8  c-1.097-2.56-1.829-5.851-1.829-10.24c0-5.486,1.097-11.337,2.926-18.651l19.017-68.754c3.291-11.337,5.12-21.577,6.217-31.451  c-4.023-44.251-33.28-67.291-68.389-67.291c-35.474,0-71.314,31.817-89.234,65.463l7.68-35.84c-2.926,4.389-5.486,8.411-7.68,12.8  l8.046-36.937h-96.549l-8.046,29.989h41.691l-5.851,23.04h5.851l-29.623,118.126c-23.04,51.566-65.829,52.297-70.949,51.2  c-8.777-1.829-14.263-5.486-14.263-16.823c0-4.023,0.366-9.143,1.463-14.994c-1.097-2.194-1.463-4.754-1.463-8.046  c0-6.583,1.097-16.091,4.023-27.429l39.131-155.063H20.251l-8.046,29.989h40.96l-5.486,23.04h5.486L22.811,358.378  c-1.463,5.851-2.194,12.069-2.926,17.92c3.657,29.257,22.674,47.909,59.246,47.909c33.646,0,61.074-20.114,80.823-52.297  l-9.143,36.206c3.291-4.023,6.217-8.411,9.143-13.166l-6.217,25.234h61.44l38.4-153.6c9.509-38.766,28.16-59.246,56.32-59.246  c22.309,0,35.84,13.897,35.84,36.571c0,4.023-0.366,8.411-1.097,13.166c0.731,3.291,1.097,6.583,1.097,9.874  c0,6.583-0.731,13.897-2.926,21.577l-19.749,70.583c-1.829,5.851-2.926,11.703-3.291,17.554  C322.697,403.726,342.446,423.109,379.017,423.109z"/>
<g>
	<path style="fill:#33363A;" d="M106.926,125.418c-25.6,0-46.08-20.48-46.08-45.714s20.846-45.714,46.08-45.714   c25.6,0,46.08,20.48,46.08,45.714C153.006,104.938,132.526,125.418,106.926,125.418z M106.926,44.961   c-19.749,0-35.109,15.36-35.109,34.743s15.36,34.743,35.109,34.743s35.109-15.36,35.109-34.743   C142.034,60.686,126.309,44.961,106.926,44.961z"/>
	<path style="fill:#33363A;" d="M78.766,428.961c-41.691,0-65.463-23.406-65.463-64.366c0-9.874,1.463-21.211,3.657-31.451   l28.891-117.76H5.623c-1.829,0-3.291-0.731-4.389-2.194s-1.463-3.291-1.097-4.754l14.263-53.03c0.731-2.56,2.926-4.023,5.12-4.023   h113.737c1.829,0,3.291,0.731,4.389,2.194c1.097,1.463,1.463,2.926,1.097,4.754L93.76,336.435   c-2.56,9.874-4.023,19.383-4.023,25.966c0,7.68,2.56,9.509,10.24,11.337c0.366,0,41.691,2.926,64.731-47.543l27.794-110.811h-40.96   c-1.829,0-3.291-0.731-4.389-2.194c-1.097-1.463-1.463-3.291-1.097-4.754l14.263-53.029c0.731-2.56,2.926-4.023,5.12-4.023h102.4   c1.829,0,3.291,0.731,4.389,2.194c1.097,1.463,1.463,2.926,1.097,4.754l-6.949,32.183c19.749-24.137,47.909-43.886,77.531-43.886   c36.937,0,74.24,25.966,74.24,83.749c0,14.994-2.194,29.623-6.949,45.349l-19.017,68.754c-1.829,6.583-2.926,12.434-2.926,17.189   c0,12.434,5.486,12.434,8.411,12.434c9.509,0,19.017-13.166,28.526-39.497c0.366-1.463,1.463-2.56,2.926-3.291   c1.463-0.731,2.926-0.731,4.389,0l26.331,10.24c2.56,1.097,4.023,4.023,3.291,6.583c-15.36,53.76-43.886,81.189-84.114,81.189   c-41.691,0-66.56-23.771-66.56-63.634c0-10.971,1.463-21.577,4.389-31.451l19.749-70.583c1.829-6.217,2.926-12.434,2.926-20.114   c0-19.749-10.971-31.086-30.354-31.086c-25.234,0-41.691,17.92-50.834,54.857l-38.4,153.6c-0.731,2.56-2.926,4.023-5.486,4.023   H147.52c-1.829,0-3.291-0.731-4.389-2.194s-1.463-2.926-1.097-4.754l5.486-21.577C128.137,417.624,104.731,428.961,78.766,428.961z    M12.937,204.412h40.229c1.829,0,3.291,0.731,4.389,2.194s1.463,2.926,1.097,4.754L28.297,336.069   c-2.194,9.143-3.291,19.749-3.291,28.891c0,24.137,9.509,53.394,54.491,53.394c38.034,0,62.171-27.063,76.069-49.737   c1.463-2.194,4.389-3.291,6.949-2.194s4.023,3.657,3.291,6.217l-10.24,41.326h55.589l37.303-149.577   c10.24-42.057,31.086-63.269,61.44-63.269c25.234,0,41.326,16.457,41.326,42.057c0,5.486-0.366,13.897-3.291,23.04L328.184,336.8   c-2.56,9.143-4.023,18.651-4.023,28.526c0,33.28,20.114,52.663,55.589,52.663c34.011,0,58.149-23.04,72.411-68.389l-16.457-6.217   c-10.971,28.526-22.309,41.326-36.571,41.326c-5.851,0-19.383-2.194-19.383-23.406c0-5.851,1.097-12.069,3.291-19.749l19.017-69.12   c4.389-14.629,6.583-28.16,6.583-42.057c0-44.251-24.869-72.777-63.269-72.777c-33.28,0-67.657,31.451-84.48,62.537   c-1.463,2.56-4.023,3.657-6.583,2.56c-2.56-1.097-4.023-3.657-3.291-6.217l11.703-53.394h-91.429l-11.337,42.057h40.594   c1.829,0,3.291,0.731,4.389,2.194c1.097,1.463,1.463,2.926,1.097,4.754l-29.624,118.127c0,0.366-0.366,0.731-0.366,1.097   c-24.137,53.76-69.486,55.954-77.166,54.126c-9.143-2.194-18.651-6.217-18.651-21.943c0-7.68,1.463-17.92,4.389-28.891   l43.154-171.154h-102.4L12.937,204.412z"/>
	<path style="fill:#33363A;" d="M218.103,215.384h-47.909c-2.926,0-5.486-2.56-5.486-5.486c0-2.926,2.56-5.486,5.486-5.486h47.909   c2.926,0,5.486,2.56,5.486,5.486C223.589,212.824,221.394,215.384,218.103,215.384z"/>
	<path style="fill:#33363A;" d="M78.766,215.384H30.857c-2.926,0-5.486-2.56-5.486-5.486c0-2.926,2.56-5.486,5.486-5.486h47.909   c2.926,0,5.486,2.56,5.486,5.486C84.251,212.824,81.691,215.384,78.766,215.384z"/>
	<path style="fill:#33363A;" d="M279.177,428.961H257.6c-2.926,0-5.486-2.56-5.486-5.486s2.56-5.486,5.486-5.486h21.577   c2.926,0,5.486,2.56,5.486,5.486S282.103,428.961,279.177,428.961z"/>
	<path style="fill:#33363A;" d="M378.286,428.961H321.6c-2.926,0-5.486-2.56-5.486-5.486s2.56-5.486,5.486-5.486h56.686   c2.926,0,5.486,2.56,5.486,5.486S381.211,428.961,378.286,428.961z"/>
	<path style="fill:#33363A;" d="M302.583,428.961h-4.023c-2.926,0-5.486-2.56-5.486-5.486s2.56-5.486,5.486-5.486h4.023   c2.926,0,5.486,2.56,5.486,5.486S305.509,428.961,302.583,428.961z"/>
</g>
<g>
</g>
<g>
</g>
<g>
</g>
<g>
</g>
<g>
</g>
<g>
</g>
<g>
</g>
<g>
</g>
<g>
</g>
<g>
</g>
<g>
</g>
<g>
</g>
<g>
</g>
<g>
</g>
<g>
</g>
</svg>
