<?xml version="1.0" encoding="iso-8859-1"?>
<!-- Generator: Adobe Illustrator 19.0.0, SVG Export Plug-In . SVG Version: 6.00 Build 0)  -->
<svg xmlns="http://www.w3.org/2000/svg" xmlns:xlink="http://www.w3.org/1999/xlink" version="1.1" id="Capa_1" x="0px" y="0px" viewBox="0 0 464.092 464.092" style="enable-background:new 0 0 464.092 464.092;" xml:space="preserve">
<path style="fill:#BA30CE;" d="M450.194,344.503c0,60.709-49.371,110.08-110.08,110.08H115.2c-60.709,0-110.08-49.371-110.08-110.08  V119.589C5.12,58.88,54.491,9.509,115.2,9.509h224.914c60.709,0,110.08,49.371,110.08,110.08L450.194,344.503L450.194,344.503z"/>
<path style="fill:#FF0DA9;" d="M340.48,9.874H115.566c-60.709,0-110.08,49.371-110.08,110.08v112.274h444.709V119.954  C450.194,59.246,401.189,9.874,340.48,9.874z"/>
<path style="fill:#33363A;" d="M340.48,460.069H115.566C51.931,460.069,0,408.137,0,344.503V119.589  C0,55.954,51.931,4.023,115.566,4.023H340.48c63.634,0,115.566,51.931,115.566,115.566v224.914  C455.68,408.137,404.114,460.069,340.48,460.069z M115.566,15.36c-57.417,0-104.594,46.811-104.594,104.594v224.914  c0,57.417,46.811,104.594,104.594,104.594H340.48c57.417,0,104.594-46.811,104.594-104.594V119.954  c0-57.417-46.811-104.594-104.594-104.594C340.48,15.36,115.566,15.36,115.566,15.36z"/>
<path style="fill:#BA30CE;" d="M313.783,62.903c46.446,0,83.749,37.669,83.749,83.749v171.52c0,46.446-37.669,83.749-83.749,83.749  h-171.52c-46.446,0-83.749-37.669-83.749-83.749v-171.52c0-46.446,37.669-83.749,83.749-83.749  C142.263,62.903,313.783,62.903,313.783,62.903z"/>
<path style="fill:#FF0DA9;" d="M58.514,146.652v171.52c0,46.446,37.669,83.749,83.749,83.749h85.577V62.903h-85.577  C96.183,62.903,58.514,100.206,58.514,146.652z"/>
<path style="fill:#33363A;" d="M313.783,407.04h-171.52c-49.371,0-89.234-39.863-89.234-89.234v-171.52  c0-49.371,39.863-89.234,89.234-89.234h171.52c49.371,0,89.234,39.863,89.234,89.234v171.52  C403.017,367.177,362.789,407.04,313.783,407.04z M142.263,68.389C99.109,68.389,64,103.497,64,146.652v171.52  c0,43.154,35.109,78.263,78.263,78.263h171.52c43.154,0,78.263-35.109,78.263-78.263v-171.52c0-43.154-35.109-78.263-78.263-78.263  C313.783,68.389,142.263,68.389,142.263,68.389z"/>
<path style="fill:#FFFFFF;" d="M228.206,131.657c55.589,0,100.571,44.983,100.571,100.571S283.794,332.8,228.206,332.8  s-100.571-44.983-100.571-100.571C127.269,176.64,172.251,131.657,228.206,131.657z"/>
<path style="fill:#C7D5E0;" d="M127.269,232.229c0-55.589,44.983-100.571,100.571-100.571s100.571,44.983,100.571,100.571"/>
<path style="fill:#33363A;" d="M228.206,338.286c-58.514,0-106.057-47.543-106.057-106.057s47.543-106.057,106.057-106.057  s106.057,47.543,106.057,106.057S286.72,338.286,228.206,338.286z M228.206,137.143c-52.663,0-95.086,42.789-95.086,95.086  c0,52.663,42.789,95.086,95.086,95.086s95.086-42.789,95.086-95.086C323.291,179.566,280.503,137.143,228.206,137.143z"/>
<circle style="fill:#FFFFFF;" cx="228.21" cy="232.23" r="67.29"/>
<path style="fill:#C7D5E0;" d="M228.206,164.937c36.937,0,67.291,29.989,67.291,67.291c0,36.937-29.989,67.291-67.291,67.291"/>
<path style="fill:#33363A;" d="M228.206,305.006c-40.229,0-72.777-32.549-72.777-72.777s32.549-72.777,72.777-72.777  s72.777,32.549,72.777,72.777C300.617,272.457,268.069,305.006,228.206,305.006z M228.206,170.423  c-34.011,0-61.806,27.794-61.806,61.806s27.794,61.806,61.806,61.806c34.011,0,61.806-27.794,61.806-61.806  S262.217,170.423,228.206,170.423z"/>
<circle style="fill:#C7D5E0;" cx="334.99" cy="130.19" r="14.994"/>
<path style="fill:#FFFFFF;" d="M334.994,145.189c-8.411,0-14.994-6.949-14.994-14.994c0-8.411,6.949-14.994,14.994-14.994"/>
<g>
	<path style="fill:#33363A;" d="M334.994,150.674c-11.337,0-20.48-9.143-20.48-20.48s9.143-20.48,20.48-20.48   s20.48,9.143,20.48,20.48C355.474,141.532,346.331,150.674,334.994,150.674z M334.994,120.32c-5.486,0-9.509,4.389-9.509,9.509   c0,5.12,4.389,9.509,9.509,9.509c5.486,0,9.509-4.389,9.509-9.509C344.503,124.709,340.114,120.32,334.994,120.32z"/>
	<path style="fill:#33363A;" d="M458.606,460.069h-21.577c-2.926,0-5.486-2.56-5.486-5.486s2.56-5.486,5.486-5.486h21.577   c2.926,0,5.486,2.56,5.486,5.486S461.897,460.069,458.606,460.069z"/>
	<path style="fill:#33363A;" d="M394.606,460.069h-186.88c-2.926,0-5.486-2.56-5.486-5.486s2.56-5.486,5.486-5.486h186.88   c2.926,0,5.486,2.56,5.486,5.486S397.897,460.069,394.606,460.069z"/>
	<path style="fill:#33363A;" d="M417.646,460.069h-4.023c-2.926,0-5.486-2.56-5.486-5.486s2.56-5.486,5.486-5.486h4.023   c2.926,0,5.486,2.56,5.486,5.486S420.937,460.069,417.646,460.069z"/>
</g>
<g>
</g>
<g>
</g>
<g>
</g>
<g>
</g>
<g>
</g>
<g>
</g>
<g>
</g>
<g>
</g>
<g>
</g>
<g>
</g>
<g>
</g>
<g>
</g>
<g>
</g>
<g>
</g>
<g>
</g>
</svg>
