<?xml version="1.0" encoding="iso-8859-1"?>
<!-- Generator: Adobe Illustrator 19.0.0, SVG Export Plug-In . SVG Version: 6.00 Build 0)  -->
<svg xmlns="http://www.w3.org/2000/svg" xmlns:xlink="http://www.w3.org/1999/xlink" version="1.1" id="Capa_1" x="0px" y="0px" viewBox="0 0 462.263 462.263" style="enable-background:new 0 0 462.263 462.263;" xml:space="preserve">
<path style="fill:#3BAA00;" d="M457.143,7.131l-0.366,92.526l-11.703,230.034c-17.189,0-45.349-0.366-62.171,0L371.2,100.389V7.131  H457.143L457.143,7.131z M210.651,119.771V6.766h85.577v113.006H345.6v58.149h-49.371l0.366,187.611  c0,19.017,8.777,26.697,27.429,27.429c1.829,0,19.383,0,21.577,0v58.514c-28.891,3.291-62.171,6.217-91.063,0.366  c-26.331-5.12-38.4-19.749-41.691-47.909c-1.463-9.874-1.829-19.749-1.829-29.623V177.92h-42.789l0.366,273.554H83.749V285.44  l-0.366-166.034L210.651,119.771z"/>
<polygon style="fill:#079332;" points="139.703,451.84 167.863,451.84 167.863,182.309 139.703,182.309 "/>
<rect x="371.2" y="369.92" style="fill:#25D600;" width="85.21" height="81.92"/>
<rect x="371.2" y="369.92" style="fill:#7BEA06;" width="47.18" height="81.92"/>
<path style="fill:#25D600;" d="M83.383,7.131c24.137,0.366,59.977,0.366,84.114,0v73.143H83.383V7.131z"/>
<path style="fill:#7BEA06;" d="M113.371,7.131c-9.874,0-20.114,0-29.989,0v73.143h56.32V7.131  C130.926,7.131,122.149,7.131,113.371,7.131z"/>
<g>
	<path style="fill:#079332;" d="M323.657,393.691c-18.651-0.731-27.429-8.777-27.429-27.429l-0.366-187.611h-26.697l0.366,187.611   c0,19.017,8.777,26.697,27.429,27.429c1.829,0,19.383,0,21.577,0v58.514c-12.8,1.463-25.966,2.56-39.497,3.291   c22.309,1.097,45.349-1.097,66.194-3.291v-58.514C343.406,393.691,325.851,393.691,323.657,393.691z"/>
	<polygon style="fill:#079332;" points="183.589,178.286 183.589,178.286 140.8,178.286 141.166,451.84 167.863,451.84    167.863,178.286  "/>
	<path style="fill:#079332;" d="M430.08,7.131l-0.366,92.526l-11.703,230.034c9.874,0,19.383,0,26.697,0l11.703-230.034   l0.366-92.526C457.143,7.131,430.08,7.131,430.08,7.131z"/>
	<path style="fill:#079332;" d="M382.903,329.326L382.903,329.326c5.12,0,11.337,0,17.92,0   C394.971,329.326,389.12,329.326,382.903,329.326z"/>
	<polygon style="fill:#079332;" points="295.863,7.131 210.651,7.131 210.651,7.131 269.166,7.131 269.166,120.137 318.537,120.137    318.537,178.286 345.234,178.286 345.234,120.137 295.863,120.137  "/>
</g>
<g>
	<path style="fill:#33363A;" d="M291.474,460.983c-13.166,0-25.966-1.097-38.4-3.291c-28.16-5.486-42.423-21.943-46.08-52.663   c-1.463-9.874-1.829-20.114-1.829-30.354V183.771h-31.817l0.366,268.069c0,1.463-0.731,2.926-1.463,4.023   c-1.097,1.097-2.56,1.463-4.023,1.463H83.383c-2.926,0-5.486-2.56-5.486-5.486V285.806l-0.366-166.034   c0-1.463,0.731-2.926,1.463-4.023c1.097-1.097,2.56-1.463,4.023-1.463l0,0h122.149V6.766c0-1.463,0.731-2.926,1.463-4.023   c1.097-1.097,2.56-1.463,4.023-1.463l0,0h85.577c1.463,0,2.926,0.731,4.023,1.463c1.097,1.097,1.463,2.56,1.463,4.023v107.52H345.6   c2.926,0,5.486,2.56,5.486,5.486v58.149c0,2.926-2.56,5.486-5.486,5.486l0,0h-43.886l0.366,182.126   c0,15.36,6.217,21.577,22.309,21.943c1.829,0,19.383,0,21.211,0c1.463,0,2.926,0.366,4.023,1.463   c1.097,1.097,1.829,2.56,1.829,4.023v58.514c0,2.926-2.194,5.12-4.754,5.486C328.046,459.52,309.394,460.983,291.474,460.983z    M210.651,172.8c1.463,0,2.926,0.731,4.023,1.463c1.097,1.097,1.463,2.56,1.463,4.023v196.389c0,9.874,0.731,19.749,1.829,28.891   c3.291,26.697,13.897,38.766,37.303,43.52c26.331,5.12,55.954,2.926,84.48,0v-47.909c-5.851,0-14.629,0-16.091,0   c-21.943-0.731-32.914-11.703-32.914-32.914l-0.366-187.611c0-1.463,0.731-2.926,1.463-4.023c1.097-1.097,2.56-1.463,4.023-1.463   l0,0h43.886v-47.177h-43.886c-1.463,0-2.926-0.731-4.023-1.463c-1.097-1.097-1.463-2.56-1.463-4.023V12.983h-74.606v107.52   c0,1.463-0.731,2.926-1.463,4.023c-1.097,1.097-2.56,1.463-4.023,1.463l0,0H88.137l0.366,160.549v160.549h73.874l-0.366-268.069   c0-1.463,0.731-2.926,1.463-4.023c1.097-1.097,2.56-1.463,4.023-1.463L210.651,172.8L210.651,172.8z M382.903,335.177   c-2.926,0-5.486-2.194-5.486-5.12l-11.703-229.303V7.131c0-1.463,0.731-2.926,1.463-4.023c1.097-1.097,2.56-1.463,4.023-1.463   h85.577c1.463,0,2.926,0.731,4.023,1.463c1.097,1.097,1.463,2.56,1.463,4.023l-0.366,92.526l-11.703,230.4   c0,2.926-2.56,5.12-5.486,5.12l0,0C426.423,334.811,399.36,334.811,382.903,335.177L382.903,335.177z M376.686,12.617v87.771   l11.337,223.817c14.994-0.366,35.474,0,51.931,0l11.337-224.914l0.366-86.674L376.686,12.617L376.686,12.617z"/>
	<path style="fill:#33363A;" d="M456.777,457.326h-85.211c-2.926,0-5.486-2.56-5.486-5.486v-81.92c0-2.926,2.56-5.486,5.486-5.486   h85.211c2.926,0,5.486,2.56,5.486,5.486v81.92C462.263,454.766,459.703,457.326,456.777,457.326z M376.686,446.354h74.24v-70.949   h-74.24V446.354z"/>
	<path style="fill:#33363A;" d="M167.131,85.76H83.017c-1.463,0-2.926-0.731-4.023-1.463c-1.097-1.097-1.463-2.56-1.463-4.023V7.131   c0-1.463,0.731-2.926,1.463-4.023c1.097-1.097,2.56-1.463,4.023-1.463c22.674,0.366,58.88,0.366,84.114,0   c1.463,0,2.926,0.731,4.023,1.463c1.097,1.097,1.463,2.56,1.463,4.023v73.143C172.617,83.2,170.423,85.76,167.131,85.76z    M88.869,74.789h73.143V12.617c-22.674,0.366-51.931,0-73.143,0C88.869,12.617,88.869,74.789,88.869,74.789z"/>
	<path style="fill:#33363A;" d="M139.703,183.771c-2.926,0-5.486-2.56-5.486-5.486s2.56-5.486,5.486-5.486h42.789l0,0   c2.926,0,5.486,2.56,5.486,5.486s-2.56,5.486-5.486,5.486H139.703L139.703,183.771z"/>
	<path style="fill:#33363A;" d="M269.897,183.771c-2.926,0-5.486-2.56-5.486-5.486s2.56-5.486,5.486-5.486h42.789l0,0   c2.926,0,5.486,2.56,5.486,5.486s-2.56,5.486-5.486,5.486H269.897L269.897,183.771z"/>
	<path style="fill:#33363A;" d="M27.429,457.326H5.486c-2.926,0-5.486-2.56-5.486-5.486s2.56-5.486,5.486-5.486h21.943   c2.926,0,5.486,2.56,5.486,5.486C32.914,454.766,30.354,457.326,27.429,457.326z"/>
	<path style="fill:#33363A;" d="M129.097,457.326H70.949c-2.926,0-5.486-2.56-5.486-5.486s2.56-5.486,5.486-5.486h58.149   c2.926,0,5.486,2.56,5.486,5.486C134.583,454.766,132.389,457.326,129.097,457.326z"/>
	<path style="fill:#33363A;" d="M51.566,457.326h-4.023c-2.926,0-5.486-2.56-5.486-5.486s2.56-5.486,5.486-5.486h4.023   c2.926,0,5.486,2.56,5.486,5.486C57.051,454.766,54.491,457.326,51.566,457.326z"/>
</g>
<g>
</g>
<g>
</g>
<g>
</g>
<g>
</g>
<g>
</g>
<g>
</g>
<g>
</g>
<g>
</g>
<g>
</g>
<g>
</g>
<g>
</g>
<g>
</g>
<g>
</g>
<g>
</g>
<g>
</g>
</svg>
