<?xml version="1.0" encoding="iso-8859-1"?>
<!-- Generator: Adobe Illustrator 19.0.0, SVG Export Plug-In . SVG Version: 6.00 Build 0)  -->
<svg xmlns="http://www.w3.org/2000/svg" xmlns:xlink="http://www.w3.org/1999/xlink" version="1.1" id="Capa_1" x="0px" y="0px" viewBox="0 0 472.504 472.504" style="enable-background:new 0 0 472.504 472.504;" xml:space="preserve">
<path style="fill:#B70E10;" d="M396.434,260.938l-33.646-7.314c-23.04-5.486-29.989-14.994-29.989-31.086  c0-18.286,14.263-28.891,37.303-28.891c25.234,0,39.131,9.509,41.326,32.549l52.663-6.583  c-4.389-47.909-36.937-68.023-90.697-68.023c-47.543,0-93.989,18.286-93.989,76.434c0,36.206,17.554,59.246,61.074,69.851  l35.84,8.411c27.063,6.583,35.84,17.554,35.84,33.28c0,19.749-19.017,27.794-54.857,27.794c-53.394,0-75.337-28.16-88.137-67.291  l-17.554-53.394c-22.309-69.486-57.417-95.086-127.634-95.086c-77.531,0-118.857,49.737-118.857,134.217  c0,81.189,41.326,125.074,115.2,125.074c59.611,0,88.137-28.16,88.137-28.16l-16.823-46.446c0,0-27.429,31.086-68.754,31.086  c-36.571,0-62.171-32.183-62.171-83.383c0-65.829,32.549-89.234,64.731-89.234c46.446,0,61.074,30.354,73.874,69.486l16.823,53.394  c16.823,51.931,48.64,93.623,139.703,93.623c65.463,0,109.714-20.48,109.714-73.874  C466.286,294.218,441.783,271.544,396.434,260.938z"/>
<path style="fill:#CE1721;" d="M396.434,260.938l-33.646-7.314c-18.651-4.389-26.697-11.703-29.257-22.674  c-0.731,2.194-1.097,4.754-1.097,7.314c0,16.091,6.949,25.6,29.989,31.086l33.646,7.314c42.057,9.874,66.194,29.989,69.12,67.657  c0.366-2.194,0.366-4.389,0.366-6.949C466.286,294.218,441.783,271.544,396.434,260.938z"/>
<g>
	<path style="fill:#E51F32;" d="M400.823,160.001c47.543,0,51.566,23.04,60.709,59.977l2.56-0.366   c-4.389-47.909-36.937-68.023-90.697-68.023c-47.543,0-93.989,18.286-93.989,76.434c0,2.926,0,5.486,0.366,8.411   C283.429,184.504,355.109,160.001,400.823,160.001z"/>
	<path style="fill:#E51F32;" d="M124.343,167.681c81.554-2.926,105.691,25.6,127.634,95.086l17.554,53.394   c12.8,39.131,34.743,67.291,88.137,67.291c35.84,0,54.857-8.046,54.857-27.794c0-2.926-0.366-5.851-1.097-8.411   c-4.389,14.629-22.674,20.48-53.76,20.48c-53.394,0-75.337-28.16-88.137-67.291l-17.554-53.394   c-22.309-69.486-57.417-95.086-127.634-95.086c-77.531,0-118.857,49.737-118.857,134.217c0,2.56,0,5.12,0.366,7.68   C8.411,214.127,20.846,171.338,124.343,167.681z"/>
</g>
<path style="fill:#CE1721;" d="M123.246,367.361c-34.377,0-59.611-28.891-62.171-75.703c0,2.56-0.366,5.12-0.366,7.68  c0,51.2,25.966,83.383,62.171,83.383c41.326,0,68.754-31.086,68.754-31.086l12.434,34.377c2.926-2.194,4.389-3.657,4.389-3.657  l-16.823-46.446C192,336.275,164.206,367.361,123.246,367.361z"/>
<g>
	<path style="fill:#33363A;" d="M125.806,194.744c11.337,0,20.846,1.829,28.526,5.12c-32.183-19.017-100.206,0.731-144.823,43.154   c-2.926,13.166-4.023,27.429-4.023,43.154c0,81.189,41.326,125.074,115.2,125.074c59.611,0,88.137-28.16,88.137-28.16L192,336.641   c0,0-27.429,31.086-68.754,31.086c-36.571,0-62.171-32.183-62.171-83.383C61.074,218.15,93.623,194.744,125.806,194.744z"/>
	<path style="fill:#33363A;" d="M430.811,163.658c-68.023,0.731-90.331,28.16-95.451,47.177   c5.12-10.971,17.554-17.189,35.109-17.189c25.234,0,39.131,9.509,41.326,32.549l52.663-6.583   C461.531,192.55,450.194,174.264,430.811,163.658z"/>
	<path style="fill:#33363A;" d="M120.686,416.732C42.789,416.732,0,370.287,0,286.172c0-15.726,1.463-30.72,4.389-44.251   c0.366-1.097,0.731-2.194,1.463-2.926c46.08-43.886,116.663-64.366,151.406-43.886c2.56,1.463,3.291,4.754,2.194,7.314   s-4.389,3.657-6.949,2.56c-7.68-3.291-16.457-4.754-26.697-4.754c-37.303,0-59.246,31.451-59.246,83.749   c0,46.446,22.674,77.897,56.686,77.897c38.034,0,64.366-28.891,64.366-29.257c1.463-1.463,3.291-2.194,5.12-1.829   c1.829,0.366,3.291,1.829,4.023,3.657l16.823,46.446c0.731,1.829,0.366,4.389-1.463,5.851   C211.383,387.841,181.76,416.732,120.686,416.732z M14.629,245.944c-2.56,12.434-3.657,25.966-3.657,40.229   c0,78.263,38.034,119.589,109.714,119.589c46.446,0,73.509-18.286,81.554-24.503l-12.8-35.109   c-10.971,9.509-34.743,26.697-66.194,26.697c-40.594,0-67.657-35.84-67.657-88.869c0-39.131,11.337-64,27.429-78.263   C58.88,213.395,34.377,227.658,14.629,245.944z"/>
	<path style="fill:#33363A;" d="M411.429,231.681c-1.097,0-2.56-0.366-3.291-1.097c-1.097-1.097-1.829-2.194-2.194-3.657   c-1.829-19.383-12.434-27.429-35.84-27.429c-15.36,0-25.966,4.754-29.989,13.897c-1.097,2.56-4.023,4.023-6.949,2.926   c-2.56-1.097-4.023-4.023-3.291-6.583c4.023-14.994,22.309-50.103,100.571-51.2c0.731,0,1.829,0.366,2.56,0.731   c21.577,11.703,34.011,32.183,36.206,60.343c0.366,2.926-1.829,5.486-4.754,5.851l-52.663,6.583   C411.794,231.681,411.429,231.681,411.429,231.681z M370.103,188.161c26.697,0,42.057,10.606,45.714,31.817l42.057-5.12   c-2.926-21.211-12.434-36.571-28.891-45.714c-38.4,0.731-60.343,10.24-72.777,20.114   C360.594,188.527,365.349,188.161,370.103,188.161z"/>
	<path style="fill:#33363A;" d="M356.571,416.732c-99.84,0-129.463-49.006-145.189-97.28l-16.823-53.394   c-10.24-31.086-20.846-52.297-42.423-61.074c-1.829-0.731-3.657-1.463-5.12-1.829c-2.194-0.731-4.389-1.097-6.217-1.463h-1.097   c-1.829-0.366-3.657-0.731-5.851-0.731c-2.56-0.366-5.12-0.366-7.68-0.366c-37.303,0-59.246,31.451-59.246,83.749   c0,2.56,0,5.12,0.366,7.68c0,2.194,0.366,4.754,0.731,6.949v1.097c0.366,2.194,0.731,4.389,1.097,6.217l0.366,1.463   c0.366,1.829,0.731,3.657,1.463,5.851l0.366,1.829c0.366,1.829,1.097,3.291,1.463,5.12l0.731,1.829   c0.731,1.463,1.097,2.926,1.829,4.754l0.731,1.829c0.731,1.463,1.463,2.56,1.829,4.023c0.366,0.731,0.731,1.097,1.097,1.829   c0.731,1.097,1.463,2.56,2.194,3.657c0.366,0.731,0.731,1.097,1.097,1.829c0.731,1.097,1.463,2.194,2.194,2.926   c0.366,0.366,1.097,1.097,1.463,1.463c0.731,1.097,1.829,1.829,2.56,2.56s1.097,1.097,1.829,1.463   c0.731,0.731,1.829,1.463,2.56,2.194c0.366,0.366,1.097,0.731,1.463,1.097l0.731,0.731c0.731,0.366,1.463,1.097,2.194,1.463   c0.731,0.366,1.097,0.731,1.829,1.097l1.097,0.731c0.731,0.366,1.463,0.731,1.829,1.097c0.731,0.366,1.463,0.731,2.194,0.731   l1.463,0.731c0.366,0.366,1.097,0.366,1.463,0.731c0.731,0.366,1.463,0.366,2.194,0.731l1.829,0.366   c0.366,0,0.731,0.366,1.463,0.366c1.097,0.366,2.194,0.366,3.291,0.366l1.463,0.366c0.366,0,0.731,0,1.097,0   c1.829,0.366,4.023,0.366,5.851,0.366c38.4,0,64.366-28.891,64.366-29.257c1.463-1.463,3.291-2.194,5.12-1.829   c1.829,0.366,3.291,1.829,4.023,3.657l16.823,46.446c0.731,2.194,0.366,4.389-1.463,5.851c0,0-1.829,1.829-4.754,4.023   c-10.24,8.046-39.131,25.966-87.406,25.966c-77.897,0-120.686-46.446-120.686-130.56c0-3.657,0-6.949,0.366-10.606v-2.194   c0.366-6.949,1.097-13.897,2.194-20.48v-0.731c10.606-68.023,53.76-105.326,121.783-105.326c72.777,0,110.08,27.794,132.754,98.743   l17.554,53.394c14.629,44.617,39.131,63.634,83.017,63.634c2.194,0,4.023,0,5.851,0h1.829c1.097,0,2.56,0,3.657,0h2.194   c1.097,0,2.194,0,3.291-0.366l2.194-0.366c1.097,0,1.829-0.366,2.56-0.366s1.463-0.366,2.194-0.366s1.463-0.366,2.194-0.366   s1.463-0.366,1.829-0.366c0.731,0,1.097-0.366,1.829-0.366l1.463-0.366c0.366,0,0.731,0,1.097-0.366   c1.097-0.366,2.194-0.731,3.291-1.097c0.366,0,0.731-0.366,1.097-0.366l0.366-0.366c0.731-0.366,1.097-0.366,1.463-0.731   c0.366,0,0.731-0.366,1.097-0.731l0.731-0.366c0.366,0,0.366-0.366,0.731-0.366c0.366-0.366,1.097-0.731,1.463-0.731   c0.366-0.366,0.731-0.366,0.731-0.731c0.366-0.366,0.731-0.731,1.097-1.097c0.366,0,0.366-0.366,0.366-0.366l4.023,3.657   l-4.019-4.021c0.366-0.366,0.731-0.366,0.731-0.731l0.366-0.366l0.366-0.366c0.366-0.366,0.731-0.731,0.731-1.097v-0.366   c0.731-1.097,1.097-1.829,1.463-2.926c0.731-1.829,1.097-4.023,1.097-6.217c0-9.874-3.657-21.211-31.817-27.794l-35.84-8.411   c-42.789-10.606-63.634-32.549-65.097-69.851c0-1.829,0-3.657,0-5.12c0-51.931,36.206-81.92,99.474-81.92   c24.869,0,44.617,4.023,59.977,12.434l0,0c0.366,0.366,1.097,0.731,1.463,1.097l0.366,0.366c1.463,0.731,2.56,1.463,4.023,2.56   c0.731,0.366,1.463,1.097,2.194,1.463c1.463,1.097,2.926,2.194,4.023,3.291l1.463,1.463c1.463,1.463,2.926,2.56,4.023,4.023   c0.366,0.366,1.097,1.097,1.463,1.463c1.463,1.829,2.56,3.291,3.657,4.754c0.366,0.366,0.366,0.731,0.731,0.731l0.366,0.366   c1.097,1.829,2.194,3.657,3.291,5.12l0.366,0.731c1.097,1.829,1.829,4.023,2.926,6.217l0.366,1.097   c0.731,2.194,1.463,4.389,2.194,6.949c0,0.366,0.366,0.731,0.366,1.463c0.731,2.56,1.097,4.754,1.463,7.314v1.097   c0.366,2.926,0.731,5.851,1.097,8.411c0.366,2.926-1.829,5.486-4.754,5.851l-52.663,6.583c-1.463,0-2.926-0.366-4.023-1.097   c-1.097-1.097-1.829-2.194-2.194-3.657c-1.829-19.383-12.434-27.429-35.84-27.429c-1.829,0-3.657,0-5.12,0.366h-1.097   c-3.291,0.366-6.217,1.097-9.143,1.829l-0.731,0.366c-2.56,1.097-5.12,2.194-6.949,3.657l0,0c-2.926,2.194-5.12,4.754-6.583,8.046   c0,0.366-0.366,0.366-0.366,0.731c-1.097,2.56-1.829,5.486-1.829,8.777c0,2.194,0,4.389,0.366,6.217   c0,0.366,0.366,0.731,0.366,1.097c1.463,6.949,5.486,11.337,13.531,14.629l-1.829,5.12l2.194-5.12   c0.731,0.366,1.097,0.366,1.829,0.731c0.366,0.366,0.731,0.366,1.463,0.366l1.463,0.366c0.731,0.366,1.097,0.366,1.829,0.731   l1.463,0.366c1.097,0.366,2.194,0.731,3.657,0.731l33.646,7.314l0,0c50.469,11.703,73.874,37.669,73.874,81.92   C471.771,373.578,451.657,416.732,356.571,416.732z M125.806,189.258c2.926,0,5.851,0,8.777,0.366   c2.56,0.366,4.754,0.731,6.583,0.731c0.731,0,1.097,0,1.463,0.366c2.194,0.366,4.754,1.097,6.949,1.829   c2.194,0.731,4.389,1.463,6.583,2.194c28.526,11.337,39.863,39.863,49.006,68.023l16.823,53.394   c14.629,44.251,41.691,89.6,134.583,89.6c69.12,0,104.229-23.04,104.229-68.389c0-38.4-20.114-60.343-65.463-70.949l-33.646-7.314   c-1.463-0.366-2.926-0.731-4.023-1.097l-1.463-0.366c-0.731-0.366-1.463-0.366-2.194-0.731l-1.829-0.731   c-0.731-0.366-1.097-0.366-1.463-0.731c-0.731-0.366-1.463-0.366-1.829-0.731h-0.366c-10.606-4.754-17.189-11.703-19.749-21.211   c0-0.366-0.366-0.731-0.366-1.097c-0.731-2.926-1.097-6.217-1.097-9.874c0-5.12,1.097-9.874,2.926-14.263   c0-0.366,0.366-0.366,0.366-0.731c2.194-4.389,5.486-8.411,9.874-11.337l0,0l0,0c2.926-1.829,6.217-3.657,9.874-4.754l1.097-0.366   c3.291-1.097,6.949-1.829,10.971-2.194h1.463c2.194-0.366,4.389-0.366,6.217-0.366c26.697,0,42.057,10.606,45.714,31.817   l42.057-5.12c0-0.731-0.366-1.463-0.366-2.194v-1.097c-0.366-2.194-0.731-4.389-1.463-6.583l-0.366-1.097   c-0.731-2.194-1.097-4.023-1.829-5.851l-0.366-1.097c-0.731-2.194-1.463-3.657-2.56-5.486l4.754-2.926l-5.12,2.194   c-0.731-1.463-1.463-2.926-2.56-4.389l-0.731-1.097c-0.731-1.097-1.829-2.56-2.926-4.023c-0.366-0.366-0.731-0.731-1.097-1.463   c-1.097-1.097-2.194-2.194-3.291-3.291l-1.463-1.097c-1.097-1.097-2.194-1.829-3.291-2.56c-0.366-0.366-1.097-0.731-1.829-1.097   c-1.097-0.731-2.194-1.463-3.291-2.194l-0.366-0.366c-0.366-0.366-0.731-0.366-1.097-0.731l0,0   c-13.531-7.314-31.817-10.971-54.491-10.971c-32.914,0-88.503,9.143-88.503,70.949c0,1.463,0,3.291,0,4.754   c1.463,32.183,19.017,50.834,56.686,59.977l35.84,8.411c27.429,6.583,40.229,18.651,40.229,38.4c0,3.291-0.366,6.583-1.463,9.509   c-0.731,1.829-1.463,3.291-2.194,5.12c0,0.366-0.366,0.366-0.366,0.731c-0.366,0.731-0.731,1.097-1.463,1.829l-4.754-2.926   l4.389,3.291c-0.366,0.366-0.366,0.731-0.731,0.731c-0.366,0.366-0.731,1.097-1.463,1.463l-0.366,0.366   c-0.366,0.366-0.731,0.731-1.097,1.097s-1.097,1.097-1.829,1.463c-0.366,0.366-0.731,0.731-1.463,1.097   c-0.731,0.366-1.097,0.731-1.829,1.097c-0.366,0.366-0.731,0.366-1.097,0.731l-0.366,0.366c-0.731,0.366-1.463,0.731-1.829,1.097   c-0.731,0.366-1.463,0.731-1.829,0.731h-0.366c-0.366,0.366-1.097,0.366-1.463,0.731c-1.097,0.366-2.56,0.731-4.023,1.463   c-0.366,0-0.731,0.366-1.463,0.366l-1.097,0.366c-0.731,0-1.463,0.366-1.829,0.366c-0.731,0-1.463,0.366-2.194,0.366   c-1.097,0.366-1.829,0.366-2.926,0.366c-0.731,0-1.463,0.366-2.194,0.366c-1.097,0-1.829,0.366-2.926,0.366l-2.194,0.366   c-1.097,0-2.194,0.366-3.291,0.366h-2.194c-1.463,0-2.56,0-4.023,0.366h-2.194c-2.194,0-4.023,0-6.217,0   c-62.171,0-82.651-38.034-93.257-70.949l-17.552-53.398c-21.211-66.56-54.491-91.429-122.514-91.429   c-62.903,0-101.303,33.28-110.811,96.183v0.731c-0.731,6.217-1.463,12.8-1.829,19.383v2.194c0,3.291-0.366,6.583-0.366,10.24   c0,78.263,38.034,119.589,109.714,119.589c44.617,0,71.314-16.457,80.457-23.406c0.366-0.366,0.731-0.731,1.097-1.097l-12.8-35.109   c-10.971,9.509-34.743,26.697-66.194,26.697c-2.194,0-4.754,0-7.314-0.366c-0.731,0-1.097,0-1.829-0.366h-1.097   c-1.463-0.366-2.56-0.366-4.023-0.731c-0.731,0-1.463-0.366-1.829-0.366l-1.829-0.366c-1.097-0.366-1.829-0.366-2.926-0.731   c-0.731-0.366-1.463-0.731-2.194-1.097l-1.097-0.366c-1.097-0.366-1.829-0.731-2.56-1.097c-0.731-0.366-1.829-0.731-2.56-1.463   l-1.097-0.731c-0.731-0.366-1.463-0.731-2.194-1.463c-0.731-0.731-1.829-1.097-2.56-1.829l-0.731-0.731   c-0.731-0.366-1.463-1.097-2.194-1.463c-1.097-0.731-2.194-1.829-2.926-2.56c-0.731-0.731-1.463-1.463-2.194-1.829   c-1.097-1.097-1.829-2.194-2.926-2.926c-0.731-0.731-1.097-1.463-1.829-2.194c-1.097-1.097-1.829-2.194-2.56-3.657   c-0.366-0.731-1.097-1.463-1.463-2.194c-0.731-1.463-1.829-2.56-2.56-4.023c-0.366-0.731-0.731-1.463-1.097-2.194   c-0.731-1.463-1.463-2.926-2.194-4.754l-0.731-2.194c-0.731-1.829-1.463-3.291-2.194-5.12l-0.731-1.829   c-0.731-1.829-1.097-3.657-1.829-5.851l-0.366-1.829c-0.366-2.194-1.097-4.023-1.463-6.217c0-0.366,0-0.731-0.366-1.097v-0.366   c-0.366-2.194-0.731-4.389-1.097-6.949c0-0.366,0-0.731,0-1.097v-0.366c-0.366-2.56-0.366-5.12-0.731-7.68   c0-2.56-0.366-5.486-0.366-8.411C55.589,214.127,91.794,189.258,125.806,189.258z"/>
	<path style="fill:#33363A;" d="M235.886,101.852c-2.926,0-5.486-2.56-5.486-5.486V85.395c0-2.926,2.56-5.486,5.486-5.486l0,0   c2.926,0,5.486,2.56,5.486,5.486v10.971C241.371,99.292,238.811,101.852,235.886,101.852L235.886,101.852z"/>
	<path style="fill:#33363A;" d="M235.886,67.11L235.886,67.11c-3.291,0-5.486-2.56-5.486-5.486v-0.366   c0-2.926,2.56-5.486,5.486-5.486s5.486,2.56,5.486,5.486v0.366C241.371,64.55,238.811,67.11,235.886,67.11z"/>
	<path style="fill:#33363A;" d="M149.577,119.407c-1.463,0-2.926-0.366-4.023-1.463l-8.046-7.68c-2.194-2.194-2.194-5.486,0-7.68   s5.486-2.194,7.68,0l8.046,7.68c2.194,2.194,2.194,5.486,0,7.68C152.503,119.041,151.04,119.407,149.577,119.407z"/>
	<path style="fill:#33363A;" d="M125.074,94.904c-1.463,0-2.926-0.366-4.023-1.463l-0.366-0.366c-2.194-2.194-2.194-5.486,0-7.68   s5.486-2.194,7.68,0l0.366,0.366c2.194,2.194,2.194,5.486,0,7.68C128,94.538,126.537,94.904,125.074,94.904z"/>
	<path style="fill:#33363A;" d="M322.194,119.407c-1.463,0-2.926-0.366-4.023-1.463c-2.194-2.194-2.194-5.486,0-7.68l8.046-8.046   c2.194-2.194,5.486-2.194,7.68,0s2.194,5.486,0,7.68l-8.046,8.046C324.754,119.041,323.657,119.407,322.194,119.407z"/>
	<path style="fill:#33363A;" d="M346.697,94.904c-1.463,0-2.926-0.366-4.023-1.463c-2.194-2.194-2.194-5.486,0-7.68l0.366-0.366   c2.194-2.194,5.486-2.194,7.68,0s2.194,5.486,0,7.68l-0.366,0.366C349.623,94.538,348.16,94.904,346.697,94.904z"/>
</g>
<g>
</g>
<g>
</g>
<g>
</g>
<g>
</g>
<g>
</g>
<g>
</g>
<g>
</g>
<g>
</g>
<g>
</g>
<g>
</g>
<g>
</g>
<g>
</g>
<g>
</g>
<g>
</g>
<g>
</g>
</svg>
