<?xml version="1.0" encoding="iso-8859-1"?>
<!-- Generator: Adobe Illustrator 19.0.0, SVG Export Plug-In . SVG Version: 6.00 Build 0)  -->
<svg xmlns="http://www.w3.org/2000/svg" xmlns:xlink="http://www.w3.org/1999/xlink" version="1.1" id="Capa_1" x="0px" y="0px" viewBox="0 0 465.646 465.646" style="enable-background:new 0 0 465.646 465.646;" xml:space="preserve">
<g>
	<path style="fill:#33363A;" d="M450.971,226.469l-42.789-19.749c-6.217-2.926-13.166-2.926-19.383,0l-145.92,66.56   c-6.217,2.926-13.166,2.926-19.383,0l-145.92-66.56c-6.217-2.926-13.166-2.926-19.383,0l-42.789,19.749   c-6.217,2.926-6.217,11.703,0,14.629l208.091,95.086c6.217,2.926,13.166,2.926,19.383,0l208.091-95.086   C457.189,238.171,457.189,229.394,450.971,226.469z"/>
	<path style="fill:#33363A;" d="M450.971,348.617l-42.789-19.749c-6.217-2.926-13.166-2.926-19.383,0l-145.92,66.56   c-6.217,2.926-13.166,2.926-19.383,0l-145.92-66.56c-6.217-2.926-13.166-2.926-19.383,0l-42.789,19.749   c-6.217,2.926-6.217,11.703,0,14.629l208.091,95.086c6.217,2.926,13.166,2.926,19.383,0l208.091-95.086   C457.189,359.954,457.189,351.543,450.971,348.617z"/>
</g>
<path style="fill:#303030;" d="M450.971,103.589L244.343,7.771c-7.314-3.291-15.36-3.291-22.674,0L15.04,103.589  c-6.217,2.926-6.217,11.703,0,14.629l208.091,95.086c6.217,2.926,13.166,2.926,19.383,0l208.091-95.086  C457.189,115.291,457.189,106.514,450.971,103.589z"/>
<path style="fill:#4C5054;" d="M450.971,103.589L244.343,7.771c-7.314-3.291-15.36-3.291-22.674,0L15.04,103.589  c-6.217,2.926-6.217,11.703,0,14.629l208.091,95.086c6.217,2.926,13.166,2.926,19.383,0l208.091-95.086  C457.189,115.291,457.189,106.514,450.971,103.589z"/>
<g>
	<path style="fill:#33363A;" d="M450.971,103.589L244.343,7.771c-3.657-1.829-7.68-2.56-11.703-2.56v209.92   c3.291,0,6.583-0.731,9.874-2.194l208.091-95.086C457.189,115.291,457.189,106.514,450.971,103.589z"/>
	<path style="fill:#33363A;" d="M233.006,343.863c-4.023,0-8.046-0.731-12.069-2.56L12.846,246.217   c-4.754-2.194-7.68-6.949-8.046-12.069c0-5.486,2.926-9.874,7.68-12.069l42.789-19.749c7.68-3.657,16.457-3.657,24.137,0   l145.92,66.56c4.754,2.194,10.24,2.194,14.994,0l145.92-66.56c7.68-3.657,16.457-3.657,24.137,0l42.789,19.749l0,0   c4.754,2.194,7.68,6.949,7.68,12.069c0,5.486-2.926,9.874-8.046,12.069l-208.091,95.086   C241.051,342.766,237.029,343.863,233.006,343.863z M67.703,210.011c-2.56,0-5.12,0.731-7.68,1.829l-42.789,19.749   c-1.097,0.731-1.463,1.829-1.463,2.194c0,0.731,0.366,1.829,1.463,2.194l208.091,95.086c4.754,2.194,10.24,2.194,14.994,0   l208.091-95.086c1.097-0.731,1.463-1.829,1.463-2.194s-0.366-1.829-1.463-2.194l-42.789-19.749c-4.754-2.194-10.24-2.194-14.994,0   l-145.92,66.56c-7.68,3.657-16.457,3.657-23.771,0l-145.92-66.56C72.823,210.743,70.263,210.011,67.703,210.011z"/>
	<path style="fill:#33363A;" d="M233.006,465.646c-4.023,0-8.046-0.731-12.069-2.56L12.846,368   c-4.754-2.194-8.046-6.949-8.046-12.069c0-5.486,2.926-9.874,7.68-12.069l42.789-19.749c7.68-3.657,16.457-3.657,24.137,0   l145.92,66.56c4.754,2.194,10.24,2.194,14.994,0l145.92-66.56c7.68-3.657,16.457-3.657,24.137,0l42.789,19.749   c4.754,2.194,7.68,6.949,7.68,12.069c0,5.486-2.926,9.874-8.046,12.069l-208.091,95.086   C241.051,464.914,237.029,465.646,233.006,465.646z M67.703,332.16c-2.56,0-5.12,0.731-7.68,1.829l-42.789,19.749   c-1.097,0.731-1.463,1.829-1.463,2.194c0,0.366,0,1.829,1.463,2.194l208.091,95.086c4.754,2.194,10.24,2.194,14.629,0   l208.091-95.086c1.097-0.731,1.463-1.829,1.463-2.194c0-0.731-0.366-1.829-1.463-2.194l0,0l-42.789-19.749   c-4.754-2.194-10.24-2.194-14.994,0l-145.92,66.56c-7.68,3.657-16.457,3.657-23.771,0l-145.92-66.56   C72.823,332.526,70.263,332.16,67.703,332.16z"/>
	<path style="fill:#33363A;" d="M233.006,220.617c-4.023,0-8.046-0.731-12.069-2.56L12.846,122.971   c-4.754-2.194-8.046-6.949-8.046-12.069c0-5.486,2.926-9.874,7.68-12.069L219.109,3.017c8.777-4.023,18.651-4.023,27.429,0   l206.629,95.817l0,0c4.754,2.194,7.68,6.949,7.68,12.069c0,5.486-2.926,9.874-8.046,12.069L244.71,218.058   C241.051,219.886,237.029,220.617,233.006,220.617z M233.006,10.697c-2.926,0-6.217,0.731-9.143,1.829L17.234,108.343   c-1.097,0.731-1.463,1.829-1.463,2.194s0,1.829,1.463,2.194l208.091,95.086c4.754,2.194,10.24,2.194,14.994,0l208.091-95.086   c1.097-0.731,1.463-1.829,1.463-2.194c0-0.731-0.366-1.829-1.463-2.194L241.783,12.526   C239.223,11.429,235.931,10.697,233.006,10.697z"/>
</g>
<g>
</g>
<g>
</g>
<g>
</g>
<g>
</g>
<g>
</g>
<g>
</g>
<g>
</g>
<g>
</g>
<g>
</g>
<g>
</g>
<g>
</g>
<g>
</g>
<g>
</g>
<g>
</g>
<g>
</g>
</svg>
