<?xml version="1.0" encoding="iso-8859-1"?>
<!-- Generator: Adobe Illustrator 19.0.0, SVG Export Plug-In . SVG Version: 6.00 Build 0)  -->
<svg xmlns="http://www.w3.org/2000/svg" xmlns:xlink="http://www.w3.org/1999/xlink" version="1.1" id="Capa_1" x="0px" y="0px" viewBox="0 0 463.727 463.727" style="enable-background:new 0 0 463.727 463.727;" xml:space="preserve">
<path style="fill:#F17250;" d="M332.544,327.314c-22.674,42.057-66.56,70.949-117.029,70.949  c-73.509,0-133.486-60.709-133.486-135.314c0-56.32,34.011-104.96,82.286-125.074c17.189-22.674,43.154-44.617,91.063-53.76  c4.389-2.56-25.966-8.046-40.229-8.046c-101.669,0-183.954,84.114-183.954,188.343c0,103.863,82.286,188.343,183.954,188.343  s183.954-84.114,183.954-188.709C385.207,291.84,363.996,314.88,332.544,327.314z"/>
<path style="fill:#C6402A;" d="M332.544,327.314c-22.674,42.057-66.56,70.949-117.029,70.949  c-73.509,0-133.486-60.709-133.486-135.314c0-56.32,34.011-104.96,82.286-125.074c17.189-22.674,43.154-44.617,91.063-53.76  c4.389-2.56-25.966-8.046-40.229-8.046c-101.669,0-183.954,84.114-183.954,188.343c0,103.863,82.286,188.343,183.954,188.343  s183.954-84.114,183.954-188.709C385.207,291.84,363.996,314.88,332.544,327.314z"/>
<path style="fill:#E2573B;" d="M328.522,333.897c-23.406,38.4-65.463,64-113.371,64c-73.509,0-133.486-60.709-133.486-135.314  c0-56.32,34.011-104.96,82.286-125.074c17.189-22.309,42.423-44.251,89.6-53.394c-2.56-1.463-5.486-3.291-8.046-4.754  c-9.143-2.194-22.674-4.023-30.72-4.023c-101.669,0-183.954,84.114-183.954,188.343c0,84.48,54.491,156.16,129.463,179.931  C234.533,438.126,297.802,394.971,328.522,333.897z"/>
<g>
	<path style="fill:#D33F26;" d="M216.979,397.897c2.194,0,4.023,0,6.217-0.366C221.367,397.897,219.173,397.897,216.979,397.897z"/>
	<path style="fill:#D33F26;" d="M207.836,397.531C208.202,397.531,208.202,397.531,207.836,397.531   C208.202,397.531,208.202,397.531,207.836,397.531z"/>
</g>
<path style="fill:#F2A775;" d="M82.03,262.583c0-56.32,34.011-104.96,82.286-125.074c17.189-22.309,42.423-44.251,89.6-53.394  c-2.56-1.463-5.486-3.291-8.046-4.754c-9.143-2.194-22.674-4.023-30.72-4.023c-101.669,0-183.954,84.114-183.954,188.343  c0,8.046,0.731,15.726,1.463,23.406c42.423,53.394,92.891,89.966,141.531,104.229C120.796,373.76,82.03,322.926,82.03,262.583z"/>
<path style="fill:#F17250;" d="M31.562,276.48c0.366,3.657,0.731,6.949,1.097,10.606c19.749,24.869,41.691,46.446,64,63.269  c-9.509-18.651-14.629-39.497-14.629-61.806c0-4.389,0.366-8.411,0.731-12.8c-0.366-4.389-0.731-8.777-0.731-13.166  c0-56.32,34.011-104.96,82.286-125.074c9.874-12.8,22.309-25.234,39.863-35.474C112.019,107.886,38.145,182.491,31.562,276.48z"/>
<g>
	<path style="fill:#A52D21;" d="M130.304,366.811c-22.309,14.263-31.086,30.72-31.086,30.72l12.8,19.017   c15.726-14.994,33.646-24.503,49.737-30.354C150.053,381.44,139.447,374.857,130.304,366.811z"/>
	<path style="fill:#A52D21;" d="M332.544,327.314c-14.629,27.429-38.4,49.006-66.926,60.709   c51.566,2.926,87.406-12.069,112.64-37.303c13.166-26.331,20.846-55.954,20.846-87.771   C385.207,291.84,363.996,314.88,332.544,327.314z"/>
</g>
<path style="fill:#D33F26;" d="M224.293,397.897c13.531-0.731,26.697-3.657,39.131-8.777  C250.99,393.874,237.825,396.8,224.293,397.897z"/>
<path style="fill:#33363A;" d="M215.15,75.703c1.097,0,2.194,0,3.291,0c0,0,0,0,0.366,0c1.097,0,2.194,0,3.291,0.366h0.366  c1.097,0,2.56,0.366,3.657,0.366l0,0c14.629,1.463,32.914,5.486,29.623,7.314c-0.731,0-1.097,0.366-1.463,0.366l0,0  c-44.251,8.777-69.12,28.16-86.309,49.006c-1.097,1.463-2.194,2.926-3.291,4.023c-48.274,20.48-82.286,68.754-82.286,125.074  c0,2.194,0,4.389,0,6.217c0,0.731,0,1.463,0,1.829c0,1.463,0.366,2.926,0.366,4.389c0,0.731,0,1.463,0.366,2.194  c0,1.463,0.366,2.926,0.366,4.023c0,0.731,0.366,1.463,0.366,2.194c0.366,1.829,0.731,3.291,0.731,5.12c0,0.366,0,0.731,0.366,1.097  c0.366,1.829,0.731,4.023,1.463,5.851c0,0.731,0.366,1.463,0.731,2.194c0.366,1.097,0.731,2.56,1.097,3.657  c0.366,0.731,0.366,1.829,0.731,2.56c0.366,1.097,0.731,2.194,1.097,3.291c0.366,0.731,0.731,1.829,0.731,2.56  c0.366,1.097,0.731,2.194,1.097,3.291s0.731,2.194,1.463,3.291c0.731,1.463,1.097,2.926,1.829,4.023  c0.366,1.097,1.097,1.829,1.463,2.926c0.366,0.731,0.731,1.463,1.097,2.194c0.366,1.097,1.097,2.194,1.463,2.926  c0.366,0.731,0.731,1.463,1.097,1.829c0.731,1.097,1.097,2.194,1.829,3.291c0.366,0.366,0.731,0.731,0.731,1.463  c2.56,4.023,5.12,7.68,8.046,11.337l0.366,0.366c1.097,1.097,1.829,2.56,2.926,3.657l0.366,0.366  c15.726,18.286,36.206,32.183,59.611,39.863c-0.366,0-1.097-0.366-1.463-0.366c13.166,4.389,27.794,6.949,42.423,6.949  c2.926,0,6.217,0,9.143-0.366c1.097,0,2.194-0.366,2.926-0.366c1.829,0,3.657-0.366,5.486-0.731h0.366  c1.097,0,2.194-0.366,3.657-0.731c1.463-0.366,2.926-0.366,4.023-0.731c0.731,0,1.097-0.366,1.829-0.366  c1.097-0.366,1.829-0.366,2.926-0.731c1.097-0.366,2.194-0.731,3.657-0.731c1.097-0.366,2.194-0.731,3.291-1.097  c0.731,0,1.097-0.366,1.829-0.366c2.926-0.731,5.851-1.829,8.411-2.926l0,0l0,0l0,0l0,0l0,0l0,0c1.463-0.366,2.56-1.097,4.023-1.463  c1.463-0.731,2.926-1.097,4.023-1.829c1.097-0.731,2.56-1.097,3.657-1.829c1.463-0.731,2.926-1.463,4.389-2.194  c1.097-0.731,2.194-1.097,3.291-1.829c1.463-0.731,2.926-1.829,4.389-2.56c1.097-0.731,1.829-1.463,2.926-1.829  c1.463-1.097,2.926-1.829,4.023-2.926c0.731-0.731,1.829-1.463,2.56-2.194c1.463-1.097,2.926-2.194,4.023-3.291  c0.731-0.731,1.463-1.463,2.194-2.194c1.463-1.097,2.926-2.56,4.023-3.657c0.731-0.731,1.463-1.463,1.829-1.829  c1.463-1.463,2.56-2.926,4.023-4.023c0.731-0.731,1.097-1.463,1.829-1.829c1.463-1.463,2.56-2.926,4.023-4.754  c0.366-0.731,0.731-1.097,1.463-1.829c1.463-1.829,2.56-3.291,4.023-5.12c0.366-0.366,0.731-1.097,1.097-1.463  c1.463-1.829,2.56-4.023,3.657-5.851c1.463-2.194,2.56-4.389,4.023-6.949c31.451-12.069,52.663-35.474,66.56-64  c0,104.594-82.286,188.709-183.954,188.709c-19.749,0-38.766-3.291-56.32-9.143c-1.829-0.731-4.023-1.463-5.851-2.194  c-1.097-0.366-2.194-0.731-2.926-1.097c-1.463-0.731-2.926-1.097-4.754-1.829c-1.097-0.366-2.194-1.097-3.291-1.463  c-1.463-0.731-2.926-1.463-4.389-2.194c-1.097-0.366-1.829-1.097-2.926-1.463c-1.829-0.731-3.291-1.829-5.12-2.56  c-0.731-0.366-1.463-0.731-2.194-1.097c-2.194-1.463-4.754-2.56-6.949-4.023c-0.731-0.366-1.829-1.097-2.56-1.463  c-1.463-1.097-2.926-1.829-4.389-2.926c-1.097-0.731-1.829-1.463-2.926-1.829c-1.463-1.097-2.56-1.829-4.023-2.926  c-0.731-0.731-1.829-1.463-2.56-1.829c-1.463-1.097-2.926-2.194-4.389-3.291c-0.731-0.731-1.463-1.097-2.194-1.829  c-2.194-1.829-4.023-3.291-5.851-5.12c-0.731-0.366-1.097-1.097-1.829-1.829c-1.463-1.463-2.926-2.56-4.023-4.023  c-0.731-0.731-1.463-1.463-2.194-2.194c-1.097-1.097-2.194-2.56-3.657-3.657c-0.731-0.731-1.463-1.463-2.194-2.56  c-1.097-1.463-2.194-2.56-3.291-4.023c-0.731-0.731-1.097-1.463-1.829-2.194c-1.463-2.194-3.291-4.023-4.754-6.217  c-0.366-0.366-0.366-0.731-0.731-1.097c-1.463-1.829-2.926-4.023-4.023-5.851c-0.366-0.731-1.097-1.463-1.463-2.56  c-1.097-1.463-1.829-2.926-2.926-4.754c-0.366-0.731-1.097-1.829-1.463-2.56c-0.731-1.463-1.829-3.291-2.56-4.754  c-0.366-0.731-1.097-1.829-1.463-2.56c-1.097-1.829-1.829-4.023-2.926-5.851c-0.366-0.731-0.366-1.097-0.731-1.463  c-1.097-2.56-2.194-5.12-3.291-7.68c-0.366-0.731-0.731-1.463-1.097-2.194c-0.731-1.829-1.463-3.657-2.194-5.486  c-0.366-1.097-0.731-1.829-1.097-2.926c-0.731-1.829-1.097-3.657-1.829-5.12c-0.366-1.097-0.731-1.829-0.731-2.926  c-0.731-1.829-1.097-4.023-1.829-5.851c-0.366-0.731-0.366-1.463-0.731-2.194c-0.731-2.926-1.463-5.486-1.829-8.411  c0-0.731-0.366-1.097-0.366-1.829c-0.366-2.194-0.731-4.389-1.097-6.949c0-1.097-0.366-1.829-0.366-2.926  c-0.366-1.829-0.366-4.023-0.731-5.851c0-1.097-0.366-2.194-0.366-3.291c-0.366-2.194-0.366-4.023-0.366-6.217  c0-1.097,0-1.829,0-2.926s0-1.829,0-2.926c0-2.194,0-4.023,0-6.217C31.196,159.817,113.482,75.703,215.15,75.703 M399.105,263.314  L399.105,263.314 M215.15,64.731c-107.52,0-194.926,89.234-194.926,199.314c0,2.194,0,4.389,0,6.583v0.731c0,0.731,0,1.463,0,2.194  s0,1.463,0,2.194v0.731c0,2.194,0.366,4.389,0.366,6.583c0,1.097,0.366,2.194,0.366,3.291c0.366,2.194,0.366,4.023,0.731,6.217  v0.731c0,0.731,0.366,1.463,0.366,2.56c0.366,2.194,0.731,4.754,1.097,7.314v0.731c0,0.366,0,0.731,0.366,1.097  c0.731,2.926,1.097,5.851,1.829,8.777c0,0.731,0.366,1.097,0.366,1.829l0.366,0.731c0.366,2.194,1.097,4.023,1.829,6.217  c0.366,1.097,0.731,2.194,1.097,2.926c0.731,1.829,1.097,3.657,1.829,5.486c0.366,1.097,0.731,2.194,1.097,2.926  c0.731,1.829,1.463,4.023,2.194,5.851l0.366,0.731c0.366,0.731,0.366,1.097,0.731,1.829c1.097,2.56,2.194,5.486,3.657,8.046  c0.366,0.366,0.366,0.731,0.366,1.097l0.366,0.731c1.097,2.194,2.194,4.023,3.291,6.217c0.366,0.731,0.731,1.829,1.463,2.56v0.366  c0.731,1.463,1.829,3.291,2.926,5.12c0.731,1.097,1.097,1.829,1.829,2.926c1.097,1.463,2.194,3.291,2.926,4.754l0.366,0.731  c0.366,0.731,0.731,1.097,1.097,1.829c1.463,2.194,2.926,4.389,4.389,6.217l0.366,0.366L58.625,384  c1.463,2.194,3.291,4.389,5.12,6.583c0.366,0.731,1.097,1.097,1.463,1.829l0.366,0.731c1.097,1.463,2.56,2.926,3.657,4.389  c0.731,0.731,1.463,1.829,2.194,2.56c1.097,1.463,2.56,2.56,3.657,4.023l0.366,0.366c0.731,0.731,1.463,1.463,2.194,2.194  c1.463,1.463,2.926,2.926,4.389,4.389l0.366,0.366c0.366,0.366,0.731,0.731,1.463,1.097c1.829,1.829,4.023,3.657,6.217,5.486  c0.366,0.366,1.097,0.731,1.463,1.097l0.731,0.731c1.463,1.097,2.926,2.56,4.389,3.657c1.097,0.731,1.829,1.463,2.56,2.194  c1.463,1.097,2.926,2.194,4.389,3.291c1.097,0.731,1.829,1.463,2.926,2.194c1.463,1.097,2.926,2.194,4.754,2.926l0.731,0.366  c0.731,0.366,1.097,0.731,1.829,1.097c2.56,1.463,4.754,2.926,7.314,4.389c0.366,0.366,1.097,0.366,1.463,0.731l0.731,0.366  c1.829,1.097,3.657,1.829,5.486,2.926c0.731,0.366,1.829,0.731,2.56,1.097l0.731,0.366c1.463,0.731,3.291,1.463,4.754,2.194  c1.097,0.366,2.194,1.097,3.291,1.463c1.463,0.731,3.291,1.463,4.754,1.829l1.097,0.366c0.731,0.366,1.463,0.731,2.194,0.731  c2.194,0.731,4.023,1.463,6.217,2.194c19.383,6.217,39.497,9.509,59.977,9.509c52.297,0,101.303-20.846,137.874-58.514  s57.051-87.771,57.051-140.8v-0.366c0-5.851-4.754-10.606-10.606-10.971h-0.366c-0.366,0-0.731,0-1.463,0  c-1.829,0.366-3.657,1.097-5.486,2.194c-0.731,0.731-1.463,1.463-2.194,2.194c-0.366,0.731-0.731,1.097-1.097,1.829  c-13.897,28.526-34.377,48.274-60.709,58.514c-2.56,1.097-4.389,2.926-5.851,5.12c-1.097,1.829-2.194,3.657-3.657,6.217  c-1.097,1.829-2.194,3.657-3.657,5.486c0,0.366-0.366,0.366-0.366,0.731l-0.366,0.366c-1.097,1.829-2.56,3.291-3.657,4.754  l-0.731,0.731c-0.366,0.366-0.366,0.366-0.731,0.731c-1.097,1.463-2.56,2.926-3.657,4.389l-0.731,0.731  c-0.366,0.366-0.731,0.731-1.097,1.097c-1.097,1.463-2.56,2.56-3.657,4.023l-0.731,0.731c-0.366,0.366-0.731,0.731-1.463,1.463  c-1.097,1.097-2.56,2.194-3.657,3.291c-0.731,0.731-1.463,1.097-2.194,1.829c-1.097,1.097-2.56,2.194-3.657,2.926  c-0.731,0.731-1.463,1.097-2.56,1.829c-1.463,1.097-2.56,1.829-4.023,2.926c-0.731,0.731-1.829,1.097-2.56,1.829  c-1.097,0.731-2.56,1.463-4.023,2.56c-1.097,0.731-2.194,1.097-2.926,1.829c-1.097,0.731-2.56,1.463-4.023,2.194  c-1.097,0.366-2.194,1.097-3.291,1.463c-1.463,0.731-2.56,1.097-4.023,1.829c-1.097,0.366-2.194,1.097-3.657,1.463c0,0,0,0-0.366,0  c-2.56,1.097-5.12,1.829-7.68,2.56c-0.366,0-1.097,0.366-1.463,0.366c-1.097,0.366-2.194,0.731-2.926,0.731  c-1.097,0.366-2.194,0.366-3.291,0.731h-0.731c-0.731,0.366-1.463,0.366-2.194,0.366l-1.463,0.366  c-1.097,0.366-2.194,0.366-3.291,0.731h-0.731c-0.366,0-0.731,0-1.463,0.366c-0.731,0-1.097,0.366-1.829,0.366h-0.366  c-1.463,0.366-3.291,0.366-4.754,0.366h-0.366c-0.366,0-1.097,0-1.463,0s-0.731,0-1.463,0c-2.926,0.366-5.851,0.366-8.411,0.366  c-12.434,0-24.869-1.829-36.937-5.851c-0.366,0-0.366,0-0.731-0.366c-21.211-6.949-39.863-19.749-54.857-36.571l-0.366-0.366  c-1.097-1.097-1.829-2.194-2.926-3.291c0-0.366-0.366-0.366-0.366-0.731c-2.56-3.291-5.12-6.583-7.314-10.606l-0.366-0.731  l-0.366-0.731c-0.731-1.097-1.097-1.829-1.829-2.926c-0.366-0.731-0.731-1.097-1.097-1.829c-0.366-1.097-1.097-1.829-1.463-2.926  c-0.366-0.366-0.366-1.097-0.731-1.463l-0.366-0.366l-0.366-0.731c-0.366-0.731-0.731-1.463-1.097-2.194  c-0.731-1.097-1.097-2.56-1.829-3.657c-0.366-1.097-0.731-1.829-1.097-2.926s-0.731-2.194-1.097-2.926  c-0.366-0.731-0.366-1.463-0.731-2.194c0,0,0,0,0-0.366c-0.366-1.097-0.731-2.194-1.097-2.926c-0.366-0.731-0.366-1.463-0.731-2.194  c-0.366-1.097-0.731-2.194-1.097-3.291l-0.366-0.731c0-0.366-0.366-0.731-0.366-1.463c-0.366-1.829-0.731-3.657-1.097-5.486v-0.366  v-0.731c-0.366-1.463-0.731-3.291-0.731-4.754c0-0.366,0-0.731,0-1.097v-0.731c0-1.097-0.366-2.56-0.366-3.657  c0-0.731,0-1.463-0.366-2.194c0-1.463-0.366-2.56-0.366-4.023v-0.731c0-0.366,0-0.731,0-1.097c0-2.194,0-4.023,0-5.851  c0-50.469,29.623-95.817,75.703-115.2c1.829-0.731,3.291-1.829,4.389-3.291c1.097-1.463,2.194-2.56,3.291-4.023  c19.749-24.137,44.983-38.4,79.726-45.349h0.366c0.366,0,0.366,0,0.731,0h0.366c1.097-0.366,2.194-0.731,3.291-1.097  c4.389-2.56,6.949-7.314,5.851-12.434c-1.829-8.411-10.971-10.606-18.651-12.069c-6.217-1.463-13.897-2.56-20.846-3.291l0,0  c0,0,0,0-0.366,0c-1.463,0-2.56-0.366-4.023-0.366h-0.366c-1.097,0-2.194,0-3.657-0.366h-0.366  C217.345,64.731,216.247,64.731,215.15,64.731L215.15,64.731z"/>
<path style="fill:#F17250;" d="M409.71,13.897c0,0-13.531,31.086-151.04,68.023C73.253,134.949,141.642,287.086,158.099,300.983  c120.32-17.554,198.949-134.217,198.949-134.217c3.657-4.754,4.754-4.023,2.926,1.829c0,0-27.794,111.177-186.149,145.554  c-55.589,12.069-74.606,48.64-74.606,48.64l12.8,19.017c38.766-36.571,90.331-39.497,90.331-39.497  C509.916,426.057,418.487,16.457,418.487,16.457C417.39,10.24,413.733,9.143,409.71,13.897z"/>
<path style="fill:#FFBE8D;" d="M416.659,12.069c-1.829-1.829-4.389-1.097-7.314,1.829c0,0-13.531,31.086-151.04,68.023  C72.887,134.949,141.276,287.086,157.733,300.983c120.32-17.554,198.949-134.217,198.949-134.217  c3.657-4.754,4.754-4.023,2.926,1.829"/>
<path style="fill:#F7A56D;" d="M402.762,50.469c-20.48,12.434-58.149,29.623-127.634,47.909  C121.162,142.263,142.373,254.903,163.219,299.52C280.613,279.406,357.047,166.4,357.047,166.4c3.657-4.754,4.754-4.023,2.926,1.829  L402.762,50.469z"/>
<path style="fill:#33363A;" d="M414.465,10.971c1.829,0,3.657,1.829,4.023,5.12c0,0,74.971,336.823-140.434,336.823  c-21.943,0-47.177-3.657-75.703-11.337c0,0-51.566,2.926-90.331,39.497l-12.8-19.017c0,0,19.017-36.571,74.606-48.64  C332.18,279.04,359.975,167.863,359.975,167.863c1.097-3.291,1.097-4.754,0.366-4.754s-1.829,1.097-3.291,3.291  c0,0-78.994,116.663-198.949,134.217C141.642,286.72,73.253,134.583,258.67,81.554c137.509-36.571,151.04-68.023,151.04-68.023  c0.731-0.731,1.097-1.097,1.829-1.829l0.366-0.366c0.366-0.366,1.097-0.366,1.463-0.731h0.366  C413.733,10.971,414.099,10.971,414.465,10.971 M414.465,0c-1.097,0-2.194,0-3.291,0.366c-0.366,0-1.097,0.366-1.463,0.366  c-1.463,0.366-2.56,1.097-3.657,1.829c-0.366,0.366-0.731,0.366-1.097,0.731c-1.097,0.731-2.194,1.829-3.291,2.926  s-1.463,1.463-1.829,2.926c-1.097,1.463-6.583,8.411-24.503,18.286c-18.286,10.24-54.126,26.331-119.223,43.52l0,0  C204.18,85.579,139.448,118.127,124.82,187.979c-11.703,55.223,13.531,109.714,26.697,120.686  c-44.251,16.091-60.709,46.811-61.44,48.274c-1.829,3.657-1.463,8.046,0.731,11.337l12.8,19.017c1.829,2.56,4.754,4.389,8.046,4.754  c0.366,0,0.731,0,1.097,0c2.926,0,5.486-1.097,7.68-2.926c31.451-29.989,73.143-35.474,81.92-36.571  c27.794,7.314,53.394,11.337,76.8,11.337c50.469,0,90.331-17.554,118.126-52.297c32.549-40.594,47.909-103.497,46.08-186.514  c-1.463-59.977-12.069-108.251-12.8-111.543C427.265,3.657,419.95,0,414.465,0L414.465,0z"/>
<g>
</g>
<g>
</g>
<g>
</g>
<g>
</g>
<g>
</g>
<g>
</g>
<g>
</g>
<g>
</g>
<g>
</g>
<g>
</g>
<g>
</g>
<g>
</g>
<g>
</g>
<g>
</g>
<g>
</g>
</svg>
