<?xml version="1.0" encoding="iso-8859-1"?>
<!-- Generator: Adobe Illustrator 19.0.0, SVG Export Plug-In . SVG Version: 6.00 Build 0)  -->
<svg xmlns="http://www.w3.org/2000/svg" xmlns:xlink="http://www.w3.org/1999/xlink" version="1.1" id="Capa_1" x="0px" y="0px" viewBox="0 0 467.892 467.892" style="enable-background:new 0 0 467.892 467.892;" xml:space="preserve">
<path style="fill:#7FBA0D;" d="M373.104,8.555c-16.457-8.046-99.109,1.097-158.72,58.514c-93.989,93.989-91.794,217.6-91.794,217.6  s-3.291,12.8-16.457-5.851c-28.891-36.937-13.897-122.149-12.069-133.851c2.56-16.823-8.411-17.189-12.8-11.703  C-23.33,278.818,71.024,398.041,133.195,435.71c72.411,44.251,215.771,44.251,272.823-81.189  C476.601,197.995,393.584,18.429,373.104,8.555z"/>
<path style="fill:#66A00A;" d="M81.264,192.875c-25.6,35.474-39.131,69.486-44.617,101.303  c11.337,68.023,59.611,119.223,96.183,141.531c72.411,44.251,215.771,44.251,272.823-81.189  c16.091-35.109,24.137-71.68,27.063-107.154c-7.314-95.817-46.446-172.617-59.611-178.834c-16.457-8.046-99.109,1.097-158.72,58.514  c-93.989,93.989-91.794,217.6-91.794,217.6s-3.291,12.8-16.457-5.851c-19.749-25.234-19.017-72.777-16.091-104.594  c-1.829-14.629-1.829-29.989-1.097-43.886C86.384,189.583,83.093,190.681,81.264,192.875z"/>
<g>
	<path style="fill:#33363A;" d="M235.23,467.892c-37.669,0-75.337-9.509-104.96-27.794c-36.571-22.309-84.114-72.046-97.646-138.971   c-11.337-57.051,3.291-114.469,44.251-171.52c4.023-4.754,10.24-6.583,14.994-4.389c2.926,1.097,9.509,5.851,7.314,20.114   l-0.366,2.926c-12.069,77.531-0.366,111.909,11.337,126.903c3.291,4.389,5.486,6.583,6.583,7.314   c0.366-16.091,5.12-131.657,93.257-219.794C269.241,5.629,354.818-6.805,375.298,3.069c14.263,6.949,39.863,60.343,53.394,121.783   c12.8,58.514,20.114,146.286-18.286,231.131c-23.406,51.2-62.537,86.674-114.103,102.4   C276.921,464.966,256.075,467.892,235.23,467.892z M87.481,135.458c-0.366,0-1.097,0.366-1.829,1.097   c-38.766,54.126-53.029,108.617-42.057,162.743c12.8,63.269,57.783,110.446,92.526,131.657   c43.52,26.697,105.326,33.646,157.257,17.554c48.274-14.994,85.577-48.274,107.52-96.549   c37.303-82.286,29.989-167.497,17.554-224.549c-14.628-66.193-40.228-110.81-47.542-114.467l0,0   c-14.629-7.314-94.72,1.829-152.503,57.417c-91.063,91.063-89.966,212.48-89.966,213.577c0,0.366,0,1.097,0,1.463   c-0.731,3.291-3.291,7.314-8.046,8.411c-7.314,1.463-13.897-6.217-18.286-12.069c-13.166-16.457-25.966-53.76-13.531-134.949   l0.366-2.56C89.31,137.652,87.847,135.824,87.481,135.458L87.481,135.458z"/>
	<path style="fill:#33363A;" d="M144.167,365.858c-1.829,0-3.657-0.731-4.754-2.56c-1.463-2.194-33.28-51.2-19.383-113.737   c0.731-2.926,3.657-4.754,6.583-4.023c2.926,0.731,4.754,3.657,4.023,6.583c-12.8,57.783,17.189,104.96,17.554,105.326   c1.829,2.56,1.097,5.851-1.463,7.68C145.995,365.492,144.898,365.858,144.167,365.858z"/>
</g>
<g>
</g>
<g>
</g>
<g>
</g>
<g>
</g>
<g>
</g>
<g>
</g>
<g>
</g>
<g>
</g>
<g>
</g>
<g>
</g>
<g>
</g>
<g>
</g>
<g>
</g>
<g>
</g>
<g>
</g>
</svg>
