<?xml version="1.0" encoding="iso-8859-1"?>
<!-- Generator: Adobe Illustrator 19.0.0, SVG Export Plug-In . SVG Version: 6.00 Build 0)  -->
<svg xmlns="http://www.w3.org/2000/svg" xmlns:xlink="http://www.w3.org/1999/xlink" version="1.1" id="Capa_1" x="0px" y="0px" viewBox="0 0 465.188 465.188" style="enable-background:new 0 0 465.188 465.188;" xml:space="preserve">
<path style="fill:#76DB00;" d="M459.703,204.068c0-103.863-101.669-187.977-227.109-187.977S5.486,100.205,5.486,204.068  s101.669,187.977,227.109,187.977v57.051l141.531-98.377C426.057,316.342,459.703,263.679,459.703,204.068z"/>
<path style="fill:#63C605;" d="M5.486,204.068c0,103.863,101.669,187.977,227.109,187.977v57.051l141.531-98.377  c51.931-34.377,85.211-87.406,85.211-147.017"/>
<path style="fill:#33363A;" d="M232.594,454.582c-0.731,0-1.829-0.366-2.56-0.731c-1.829-1.097-2.926-2.926-2.926-4.754v-51.566  C101.303,394.97,0,309.393,0,204.068C0,97.279,104.229,10.605,232.594,10.605c128,0,232.594,86.674,232.594,193.463  c0,59.246-32.183,114.469-87.771,151.406l-141.531,98.011C234.789,454.216,233.691,454.582,232.594,454.582z M232.594,21.576  c-122.149,0-221.623,81.92-221.623,182.491s99.475,182.492,221.623,182.492c2.926,0,5.486,2.56,5.486,5.486v46.446l133.12-92.16  c52.663-35.109,83.017-86.674,83.017-142.263C454.217,103.496,354.743,21.576,232.594,21.576z"/>
<g>
	<path style="fill:#FFFFFF;" d="M186.514,259.29c0,8.411-6.949,14.994-14.994,14.994l0,0c-8.411,0-14.994-6.949-14.994-14.994   V155.063c0-8.411,6.949-14.994,14.994-14.994l0,0c8.411,0,14.994,6.949,14.994,14.994V259.29z"/>
	<path style="fill:#FFFFFF;" d="M134.949,244.296H98.011v-89.234c0-8.411-6.949-14.994-14.994-14.994   c-8.411,0-14.994,6.949-14.994,14.994v104.229c0,8.411,6.949,14.994,14.994,14.994h51.931c8.411,0,14.994-6.949,14.994-14.994   C149.943,250.88,143.36,244.296,134.949,244.296z"/>
	<path style="fill:#FFFFFF;" d="M382.171,222.354c8.411,0,14.994-6.949,14.994-14.994c0-8.411-6.583-14.994-14.994-14.994h-36.937   v-21.943h36.937c8.411,0,14.994-6.583,14.994-14.994s-6.583-14.994-14.994-14.994h-52.297c-1.097,0-2.194,0-2.926,0.366   c-6.949,1.463-12.069,7.314-12.069,14.629l0,0l0,0v104.229c0,8.411,6.949,14.994,14.994,14.994h52.297   c8.411,0,14.994-6.949,14.994-14.994c0-8.411-6.583-14.994-14.994-14.994h-36.937v-21.945h36.937v-0.366H382.171z"/>
	<path style="fill:#FFFFFF;" d="M276.846,140.068c-8.411,0-14.994,6.949-14.994,14.994v14.994l-22.309-22.309   c-1.097-1.097-2.194-2.194-3.657-2.926c-2.926-2.926-6.583-4.754-10.971-4.754c-8.411,0-14.994,6.949-14.994,14.994V259.29   c0,8.411,6.583,14.994,14.994,14.994s14.994-6.583,14.994-14.994v-68.389l21.577,21.577c0,0,0.366,0,0.366,0.366v46.446   c0,8.411,6.583,14.994,14.994,14.994s14.994-6.949,14.994-14.994V155.063C291.84,146.65,285.257,140.068,276.846,140.068z"/>
</g>
<g>
	<path style="fill:#E8F9F8;" d="M171.52,150.673c-8.411,0-14.994,6.949-14.994,14.994v93.623c0,8.411,6.949,14.994,14.994,14.994   c8.411,0,14.994-6.583,14.994-14.994v-93.623C186.514,157.257,179.931,150.673,171.52,150.673z"/>
	<path style="fill:#E8F9F8;" d="M83.017,274.285h51.931c6.583,0,12.069-4.023,14.263-9.874c-2.194-5.851-7.68-9.874-14.263-9.874   H98.011v-10.606v-78.263c0-8.411-6.949-14.994-14.994-14.994c-8.411,0-14.994,6.949-14.994,14.994v93.623   C67.657,267.702,74.606,274.285,83.017,274.285z"/>
	<path style="fill:#E8F9F8;" d="M330.24,274.285h52.297c6.583,0,12.069-4.023,13.897-9.874c-2.194-5.851-7.68-9.874-13.897-9.874   H345.6v-10.606v-11.337v-10.606h36.937c6.583,0,12.069-4.023,13.897-9.874c-2.194-5.851-7.68-9.874-13.897-9.874H345.6v-10.606   v-11.337v-10.606h36.937c6.583,0,12.069-4.023,13.897-9.874c-2.194-5.851-7.68-9.874-13.897-9.874H330.24   c-1.097,0-2.194,0-2.926,0.366c-6.949,1.463-12.069,7.68-12.069,14.629l0,0l0,0v93.623   C315.246,267.702,321.829,274.285,330.24,274.285z"/>
	<path style="fill:#E8F9F8;" d="M276.846,150.673c-8.411,0-14.994,6.949-14.994,14.994v4.023v10.606l-22.309-22.309   c-1.097-1.097-2.194-2.194-3.657-2.926c-2.926-2.926-6.583-4.754-10.971-4.754c-8.411,0-14.994,6.949-14.994,14.994v93.623   c0,8.411,6.583,14.994,14.994,14.994s14.994-6.583,14.994-14.994v-57.783v-10.606l21.577,21.577c0,0,0.366,0,0.366,0.366v10.606   v35.84c0,8.411,6.583,14.994,14.994,14.994s14.994-6.949,14.994-14.994v-93.623C291.84,157.257,285.257,150.673,276.846,150.673z"/>
</g>
<g>
	<path style="fill:#33363A;" d="M171.52,279.77c-11.337,0-20.48-9.143-20.48-20.48V155.063c0-11.337,9.143-20.48,20.48-20.48   s20.48,9.143,20.48,20.48v104.229C192,270.628,182.857,279.77,171.52,279.77z M171.52,145.553c-5.486,0-9.509,4.389-9.509,9.509   v104.229c0,5.486,4.389,9.509,9.509,9.509c5.486,0,9.509-4.389,9.509-9.509V155.063   C181.029,149.576,177.006,145.553,171.52,145.553z"/>
	<path style="fill:#33363A;" d="M134.949,279.77H83.017c-11.337,0-20.48-9.143-20.48-20.48V155.063   c0-11.337,9.143-20.48,20.48-20.48s20.48,9.143,20.48,20.48v83.749h31.451c11.337,0,20.48,9.143,20.48,20.48   c0,3.291-0.731,6.583-2.56,9.509l-0.366,0.731l0,0c-0.366,0.731-0.731,1.463-1.463,1.829c0,0-0.366,0.366-0.366,0.731   c-0.731,0.731-1.097,1.097-1.463,1.829c-0.731,0.731-1.463,1.463-2.56,2.194c-0.366,0.366-0.731,0.366-1.097,0.731   c-0.731,0.366-1.463,0.731-2.194,1.097c-0.366,0.366-1.097,0.366-1.463,0.731c-0.731,0.366-1.463,0.366-2.194,0.731   c-0.366,0-0.731,0.366-1.463,0.366C137.509,279.77,136.046,279.77,134.949,279.77z M83.017,145.553   c-5.486,0-9.509,4.389-9.509,9.509v104.229c0,5.486,4.389,9.509,9.509,9.509h51.931c0.366,0,1.097,0,1.829,0h0.731   c0.366,0,0.731,0,1.097-0.366c0.366,0,0.366,0,0.731-0.366c0.366,0,0.731-0.366,0.731-0.366l0.366-0.366   c0.731-0.366,1.097-0.731,1.463-1.097s0.366-0.366,0.731-0.731l0.366-0.366c0.366-0.366,0.366-0.731,0.731-1.097l0.366-0.366   c0.731-1.463,1.097-2.926,1.097-4.389c0-5.12-4.389-9.509-9.509-9.509H98.743c-2.926,0-5.486-2.56-5.486-5.486v-89.234   C92.526,149.576,88.137,145.553,83.017,145.553z"/>
	<path style="fill:#33363A;" d="M382.171,279.77h-52.297c-11.337,0-20.48-9.143-20.48-20.48V155.063   c0-9.874,6.949-18.286,16.457-20.114c1.463-0.366,2.56-0.366,4.023-0.366h52.297c11.337,0,20.48,9.143,20.48,20.48   c0,3.291-0.731,6.583-2.56,9.509c-0.366,0.366-0.366,0.731-0.731,1.097c-0.366,0.366-0.731,1.097-1.097,1.829   c0,0-0.366,0.366-0.366,0.731c-0.731,0.731-1.097,1.463-1.463,1.829c-0.731,0.731-1.463,1.463-2.56,2.194   c-0.366,0.366-0.731,0.366-1.097,0.731c-0.731,0.366-1.463,0.731-2.194,1.097c-0.366,0.366-1.097,0.366-1.463,0.731   c-0.366,0.366-1.463,0.366-2.194,0.731c-0.366,0-0.731,0.366-1.097,0.366c-1.097,0.366-2.56,0.366-3.657,0.366H350.72v10.971   h31.451c5.486,0,10.606,2.194,14.629,5.851c4.023,4.023,5.851,9.143,5.851,14.629c0,2.56-0.366,4.754-1.463,7.314   c-0.366,0.731-0.731,1.463-1.097,2.194l-0.366,0.731c-0.366,0.731-0.731,1.463-1.463,1.829c-0.366,0.366-0.366,0.731-0.731,1.097   c-0.731,0.731-1.097,1.097-1.463,1.463c-0.731,0.731-1.463,1.463-2.56,2.194c-0.366,0.366-0.731,0.366-1.097,0.731   c-0.731,0.366-1.463,0.731-2.194,1.097c-0.366,0-0.731,0.366-1.463,0.366c-0.731,0.366-1.463,0.366-2.194,0.731   c-0.366,0-0.731,0.366-1.463,0.366c-1.097,0.366-2.56,0.366-3.657,0.366h-31.451v10.971h31.451c11.337,0,20.48,9.143,20.48,20.48   c0,3.291-0.731,6.583-2.56,9.509c-0.366,0.366-0.366,0.731-0.366,0.731c-0.366,0.731-0.731,1.097-1.097,1.829l-0.366,0.366   l-0.366,0.366c-0.731,0.731-1.097,1.097-1.463,1.463c-0.731,0.731-1.463,1.463-2.56,1.829c-0.366,0.366-0.731,0.366-1.097,0.731   c-0.731,0.366-1.463,0.731-2.194,1.097c-0.366,0.366-0.731,0.366-1.463,0.366c-0.731,0.366-1.829,0.731-2.56,0.731   c0,0-0.731,0-1.097,0.366C384.731,279.77,383.634,279.77,382.171,279.77z M330.24,145.553c-0.731,0-1.463,0-1.829,0.366   c-4.389,1.097-7.68,4.754-7.68,9.509v104.229c0,5.486,4.389,9.509,9.509,9.509h52.297c0.366,0,1.097,0,1.829,0c0,0,0.366,0,0.731,0   c0.366,0,0.731,0,1.097-0.366l0.731-0.366c0.366,0,0.366-0.366,0.731-0.366l0.366-0.366c0.731-0.366,1.097-0.731,1.097-1.097   c0.366-0.366,0.366-0.366,0.366-0.731l0.366-0.366l0,0c0.366-0.366,0.366-0.731,0.731-1.097l0.366-0.366   c0.731-1.463,1.097-2.926,1.097-4.389c0-5.12-4.389-9.509-9.509-9.509H345.6c-2.926,0-5.486-2.56-5.486-5.486v-21.942   c0-2.926,2.56-5.486,5.486-5.486h36.937c0.366,0,1.097,0,1.829-0.366h0.366c0.366,0,0.731-0.366,1.097-0.366s0.366,0,0.731-0.366   c0.366,0,0.731-0.366,1.097-0.366l0.366-0.366c0.366-0.366,0.731-0.731,1.097-1.097l0.366-0.366l0.731-0.731   c0-0.366,0.366-0.366,0.366-0.731v-0.366c0.366-0.366,0.366-0.731,0.366-1.097c0.366-1.097,0.731-2.194,0.731-3.291   c0-2.56-1.097-5.12-2.926-6.949c-1.829-1.829-4.389-2.926-6.949-2.926h-36.937c-2.926,0-5.486-2.56-5.486-5.486v-21.943   c0-2.926,2.56-5.486,5.486-5.486h36.937c0.366,0,1.097,0,1.829,0h0.731c0.366,0,0.731,0,1.097-0.366   c0.366,0,0.366-0.366,0.731-0.366c0.366,0,0.731-0.366,0.731-0.366l0.366-0.366c0.731-0.366,1.097-0.731,1.097-1.097   c0.366-0.366,0.366-0.366,0.731-0.731l0.366-0.366c0.366-0.366,0.366-0.731,0.731-1.097l0.366-0.366   c0.731-1.463,1.097-2.926,1.097-4.389c0-5.12-4.389-9.509-9.509-9.509H330.24V145.553z"/>
	<path style="fill:#33363A;" d="M224.549,279.77c-11.337,0-20.48-9.143-20.48-20.48V155.063c0-11.337,9.143-20.48,20.48-20.48   c5.486,0,10.606,2.194,14.629,6.217c1.463,1.097,2.926,2.194,4.023,3.291l12.8,12.8v-1.829c0-11.337,9.143-20.48,20.48-20.48   s20.48,9.143,20.48,20.48V259.29c0,11.337-9.143,20.48-20.48,20.48S256,270.628,256,259.29v-44.251l-10.971-10.971v55.223   C245.394,270.628,236.251,279.77,224.549,279.77z M224.549,145.553c-5.12,0-9.509,4.389-9.509,9.509v104.229   c0,5.486,4.389,9.509,9.509,9.509c5.486,0,9.509-4.389,9.509-9.509v-68.389c0-2.194,1.463-4.389,3.291-5.12   c2.194-0.731,4.389-0.366,5.851,1.097l21.577,21.211c0.366,0,0.366,0.366,0.366,0.366c1.097,1.097,1.463,2.56,1.463,4.023v46.446   c0,5.486,4.389,9.509,9.509,9.509s9.509-4.389,9.509-9.509V154.697c0-5.486-4.389-9.509-9.509-9.509   c-5.486,0-9.509,4.389-9.509,9.509v14.994c0,2.194-1.463,4.389-3.291,5.12c-2.194,0.731-4.389,0.366-5.851-1.097l-22.309-22.309   c-0.731-0.731-1.463-1.463-2.56-2.194c-0.366-0.366-0.731-0.731-1.097-0.731C230.034,146.65,227.474,145.553,224.549,145.553z"/>
</g>
<g>
</g>
<g>
</g>
<g>
</g>
<g>
</g>
<g>
</g>
<g>
</g>
<g>
</g>
<g>
</g>
<g>
</g>
<g>
</g>
<g>
</g>
<g>
</g>
<g>
</g>
<g>
</g>
<g>
</g>
</svg>
