<?xml version="1.0" encoding="iso-8859-1"?>
<!-- Generator: Adobe Illustrator 19.0.0, SVG Export Plug-In . SVG Version: 6.00 Build 0)  -->
<svg xmlns="http://www.w3.org/2000/svg" xmlns:xlink="http://www.w3.org/1999/xlink" version="1.1" id="Capa_1" x="0px" y="0px" viewBox="0 0 467.383 467.383" style="enable-background:new 0 0 467.383 467.383;" xml:space="preserve">
<g>
	<path style="fill:#FFFFFF;" d="M179.931,299.154c0,10.606-8.411,19.017-19.017,19.017l0,0c-10.606,0-19.017-8.411-19.017-19.017   V168.229c0-10.606,8.411-19.017,19.017-19.017l0,0c10.606,0,19.017,8.411,19.017,19.017V299.154z"/>
	<path style="fill:#FFFFFF;" d="M89.966,280.137H43.52V168.229c0-10.606-8.411-19.017-19.017-19.017s-19.017,8.411-19.017,19.017   v130.926c0,10.606,8.411,19.017,19.017,19.017h65.463c10.606,0,19.017-8.411,19.017-19.017   C108.983,288.549,100.571,280.137,89.966,280.137z"/>
	<path style="fill:#FFFFFF;" d="M442.88,252.709c10.606,0,19.017-8.411,19.017-19.017s-8.411-19.017-19.017-19.017h-46.446v-27.429   h46.446c10.606,0,19.017-8.411,19.017-19.017s-8.411-19.017-19.017-19.017h-65.463c-1.463,0-2.56,0-3.657,0.366   c-8.777,1.829-14.994,9.509-14.994,18.651l0,0l0,0v130.926c0,10.606,8.411,19.017,19.017,19.017h65.463   c10.606,0,19.017-8.411,19.017-19.017s-8.411-19.017-19.017-19.017H396.8v-27.429H442.88L442.88,252.709z"/>
	<path style="fill:#FFFFFF;" d="M305.371,149.211c-10.606,0-19.017,8.411-19.017,19.017v18.651l-28.16-28.16   c-1.463-1.463-2.926-2.56-4.389-3.657c-3.291-3.657-8.411-6.217-13.897-6.217c-10.606,0-19.017,8.411-19.017,19.017v130.926   c0,10.606,8.411,19.017,19.017,19.017s19.017-8.411,19.017-19.017v-85.943l27.063,27.063l0.366,0.366v58.514   c0,10.606,8.411,19.017,19.017,19.017s19.017-8.411,19.017-19.017V167.863C324.389,157.989,315.977,149.211,305.371,149.211z"/>
</g>
<g>
	<path style="fill:#E8F9F8;" d="M160.914,162.743c-10.606,0-19.017,8.411-19.017,19.017v117.394   c0,10.606,8.411,19.017,19.017,19.017s19.017-8.411,19.017-19.017V181.76C179.931,171.154,171.154,162.743,160.914,162.743z"/>
	<path style="fill:#E8F9F8;" d="M24.503,318.171h65.463c8.046,0,14.994-5.12,17.554-12.434c-2.56-7.314-9.509-12.069-17.554-12.069   H43.52v-13.531V181.76c0-10.606-8.411-19.017-19.017-19.017S5.486,171.154,5.486,181.76v117.394   C5.486,309.395,13.897,318.171,24.503,318.171z"/>
	<path style="fill:#E8F9F8;" d="M377.417,318.171h65.463c8.046,0,14.994-5.12,17.554-12.434c-2.56-7.314-9.509-12.069-17.554-12.069   h-46.446v-13.531V266.24v-13.531h46.446c8.046,0,14.994-5.12,17.554-12.069c-2.56-7.314-9.509-12.434-17.554-12.434h-46.446   v-13.531v-13.897v-13.531h46.446c8.046,0,14.994-5.12,17.554-12.069c-2.56-7.314-9.509-12.069-17.554-12.069h-65.463   c-1.463,0-2.56,0-3.657,0.366c-8.777,1.829-14.994,9.509-14.994,18.651l0,0l0,0V299.52   C358.4,309.395,366.811,318.171,377.417,318.171z"/>
	<path style="fill:#E8F9F8;" d="M305.371,162.743c-10.606,0-19.017,8.411-19.017,19.017v5.12v13.531l-28.16-28.16   c-1.463-1.463-2.926-2.56-4.389-3.657c-3.291-3.657-8.411-6.217-13.897-6.217c-10.606,0-19.017,8.411-19.017,19.017v117.394   c0,10.606,8.411,19.017,19.017,19.017s19.017-8.411,19.017-19.017v-72.411v-13.531l27.063,27.063l0.366,0.366v13.531v44.983   c0,10.606,8.411,19.017,19.017,19.017s19.017-8.411,19.017-19.017V181.394C324.389,171.154,315.977,162.743,305.371,162.743z"/>
</g>
<g>
	<path style="fill:#33363A;" d="M160.914,323.658c-13.531,0-24.503-10.971-24.503-24.503V168.229   c0-13.531,10.971-24.503,24.503-24.503s24.503,10.971,24.503,24.503v130.926C185.417,312.686,174.446,323.658,160.914,323.658z    M160.914,154.697c-7.314,0-13.531,6.217-13.531,13.531v130.926c0,7.314,6.217,13.531,13.531,13.531s13.531-6.217,13.531-13.531   V168.229C174.446,160.914,168.229,154.697,160.914,154.697z"/>
	<path style="fill:#33363A;" d="M89.966,323.658H24.503C10.971,323.658,0,312.686,0,299.154V168.229   c0-13.531,10.971-24.503,24.503-24.503s24.503,10.971,24.503,24.503v106.423h40.96c13.531,0,24.503,10.971,24.503,24.503   c0,4.023-1.097,7.68-2.926,11.337l-0.366,1.097l0,0c-0.366,0.731-1.097,1.463-1.463,2.194c-0.366,0.366-0.366,0.731-0.731,1.097   c-0.731,0.731-1.097,1.463-1.829,2.194c-0.731,0.731-1.829,1.463-2.926,2.194c-0.366,0.366-0.731,0.366-1.097,0.731   c-1.097,0.731-1.829,1.097-2.56,1.463c-0.731,0.366-1.097,0.366-1.463,0.731c-0.731,0.366-1.829,0.731-2.926,0.731   c-0.731,0-1.097,0.366-1.463,0.366C92.891,323.291,91.429,323.658,89.966,323.658z M24.503,154.697   c-7.314,0-13.531,6.217-13.531,13.531v130.926c0,7.314,6.217,13.531,13.531,13.531h65.463c0.731,0,1.463,0,2.56-0.366h0.366   c0.731-0.366,1.463-0.366,1.829-0.366s0.731-0.366,1.097-0.366s0.731-0.366,1.097-0.731l0.731-0.366   c0.366-0.366,1.097-0.731,1.463-1.097s0.731-0.731,0.731-1.097l0.366-0.366l0.366-0.366c0.366-0.366,0.731-0.731,0.731-1.097   l0.366-0.731c1.097-1.829,1.463-4.023,1.463-6.217c0-7.314-6.217-13.531-13.531-13.531H43.52c-2.926,0-5.486-2.56-5.486-5.486   V168.594C38.034,160.914,31.817,154.697,24.503,154.697z"/>
	<path style="fill:#33363A;" d="M442.88,323.658h-65.463c-13.531,0-24.503-10.971-24.503-24.503V168.229   c0-11.703,8.046-21.577,19.383-24.137c1.463-0.366,3.291-0.366,4.754-0.366h65.463c13.531,0,24.503,10.971,24.503,24.503   c0,4.023-1.097,7.68-2.926,11.337c-0.366,0.731-0.366,0.731-0.731,1.097c-0.366,0.731-1.097,1.463-1.463,2.194   c-0.366,0.366-0.366,0.731-0.731,1.097c-0.731,0.731-1.097,1.463-1.829,1.829c-1.097,0.731-1.829,1.829-2.926,2.194   c-0.366,0.366-0.731,0.366-1.097,0.731c-1.097,0.731-1.829,1.097-2.56,1.463c-0.366,0.366-1.097,0.366-1.829,0.731   c-0.731,0.366-1.829,0.731-2.56,0.731S447.269,192,446.903,192c-1.463,0.366-2.926,0.366-4.389,0.366H401.92v16.457h40.96   c6.583,0,12.8,2.56,17.189,7.314c4.754,4.754,7.314,10.606,7.314,17.189c0,2.926-0.731,5.851-1.829,8.777   c-0.366,1.097-0.731,1.829-1.097,2.56l-0.366,1.097c-0.366,0.731-1.097,1.463-1.463,2.194c-0.366,0.366-0.366,0.731-0.731,1.097   l-4.389-2.926l4.023,3.657c-0.366,0.731-1.097,1.097-1.463,1.829c-0.731,0.731-1.829,1.463-2.926,2.194   c-0.366,0.366-0.731,0.366-1.097,0.731c-1.097,0.731-1.829,1.097-2.56,1.463c-0.366,0.366-1.097,0.366-1.463,0.731   c-0.731,0.366-1.829,0.731-2.926,0.731c-0.366,0-1.097,0.366-1.463,0.366c-1.463,0.366-2.926,0.366-4.389,0.366H401.92v16.457   h40.96c13.531,0,24.503,10.971,24.503,24.503c0,4.023-1.097,7.68-2.926,11.337c-0.366,0.366-0.366,0.731-0.366,1.097   c-0.366,0.731-1.097,1.463-1.463,2.194c-0.366,0.366-0.366,0.731-0.731,0.731l-0.366,0.366c-0.366,0.731-1.097,1.097-1.463,1.463   c-0.731,0.731-1.829,1.463-2.926,2.194c-0.366,0.366-0.731,0.366-1.097,0.731c-1.097,0.731-1.829,1.097-2.56,1.463   c-0.731,0.366-1.097,0.366-1.463,0.731c-0.731,0.366-1.829,0.731-2.56,0.731s-1.097,0.366-1.463,0.366   C445.806,323.291,444.343,323.658,442.88,323.658z M377.417,154.697c-1.097,0-1.829,0-2.56,0.366   c-6.217,1.097-10.606,6.949-10.606,13.166v130.926c0,7.314,6.217,13.531,13.531,13.531h65.463c0.731,0,1.463,0,2.56-0.366h0.366   c0.731-0.366,1.097-0.366,1.829-0.366c0.366,0,0.731-0.366,1.097-0.366s0.731-0.366,1.097-0.731l1.097-0.731   c0.366-0.366,1.097-0.731,1.463-1.097c0.366-0.366,0.731-0.731,0.731-0.731l0.731-0.731c0.366-0.366,0.731-0.731,0.731-1.463   l0.366-0.366c1.097-2.194,1.829-4.389,1.829-6.217c0-7.314-6.217-13.531-13.531-13.531h-46.446c-2.926,0-5.486-2.56-5.486-5.486   v-27.429c0-2.926,2.56-5.486,5.486-5.486h46.446c0.731,0,1.463,0,2.56-0.366h0.366c0.731-0.366,1.463-0.366,1.829-0.366   s0.731-0.366,0.731-0.366c0.366-0.366,0.731-0.366,1.463-0.731l0.731-0.366c0.366-0.366,1.097-0.731,1.463-1.097   c0.366-0.366,0.366-0.731,0.731-0.731l0.366-0.366l0.366-0.366c0.366-0.366,0.731-0.731,0.731-1.097l0.366-0.366   c0.366-0.731,0.731-1.097,0.731-1.829c0.731-1.463,1.097-3.291,1.097-4.754c0-3.657-1.463-6.949-4.023-9.509   s-5.851-4.023-9.509-4.023h-46.446c-2.926,0-5.486-2.56-5.486-5.486v-27.429c0-2.926,2.56-5.486,5.486-5.486h46.446   c0.731,0,1.463,0,2.56-0.366l0.731-0.366c0.366,0,1.097-0.366,1.463-0.366c0.366,0,0.731-0.366,1.097-0.366   c0.366-0.366,0.731-0.366,1.097-0.731l0.731-0.366c0.366-0.366,1.097-0.731,1.463-1.463c0.366-0.366,0.731-0.731,0.731-1.097   c0.366-0.366,0.366-0.731,0.731-0.731c0.366-0.366,0.731-0.731,0.731-1.097l0.366-0.366c0,0,0-0.366,0.366-0.366   c1.097-1.829,1.463-4.023,1.463-6.217c0-7.314-6.217-13.531-13.531-13.531h-66.194v-0.729H377.417z"/>
	<path style="fill:#33363A;" d="M239.909,323.658c-13.531,0-24.503-10.971-24.503-24.503V168.229   c0-13.531,10.971-24.503,24.503-24.503c6.583,0,12.8,2.56,17.554,7.314c1.829,1.097,3.657,2.56,4.754,4.023l18.651,18.651v-5.486   c0-13.531,10.971-24.503,24.503-24.503c13.531,0,24.503,10.971,24.503,24.503v130.926c0,13.531-10.971,24.503-24.503,24.503   c-13.531,0-24.503-10.971-24.503-24.503v-56.32l-16.457-16.457v72.777C264.411,312.686,253.44,323.658,239.909,323.658z    M239.909,154.697c-7.314,0-13.531,6.217-13.531,13.531v130.926c0,7.314,6.217,13.531,13.531,13.531s13.531-6.217,13.531-13.531   v-85.943c0-2.194,1.463-4.389,3.291-5.12c2.194-0.731,4.389-0.366,5.851,1.097l27.063,27.063c0,0,0,0,0.366,0.366   c1.097,1.097,1.829,2.56,1.829,4.023v58.514c0,7.314,6.217,13.531,13.531,13.531s13.531-6.217,13.531-13.531V168.229   c0-7.314-6.217-13.531-13.531-13.531s-13.531,6.217-13.531,13.531v18.651c0,2.194-1.463,4.389-3.291,5.12   c-2.194,0.731-4.389,0.366-5.851-1.097l-28.16-28.16c-1.097-1.097-2.194-1.829-3.657-2.926c-0.366-0.366-0.731-0.731-1.097-1.097   C247.223,156.526,243.566,154.697,239.909,154.697z"/>
	<path style="fill:#33363A;" d="M53.76,370.835H34.377c-2.926,0-5.486-2.56-5.486-5.486s2.56-5.486,5.486-5.486H53.76   c2.926,0,5.486,2.56,5.486,5.486C59.246,368.274,56.686,370.835,53.76,370.835z"/>
	<path style="fill:#33363A;" d="M432.64,370.835H91.429c-2.926,0-5.486-2.56-5.486-5.486s2.56-5.486,5.486-5.486H432.64   c2.926,0,5.486,2.56,5.486,5.486C438.126,368.274,435.931,370.835,432.64,370.835z"/>
	<path style="fill:#33363A;" d="M74.606,370.835h-3.657c-2.926,0-5.486-2.56-5.486-5.486s2.56-5.486,5.486-5.486h3.657   c2.926,0,5.486,2.56,5.486,5.486C80.091,368.274,77.531,370.835,74.606,370.835z"/>
	<path style="fill:#33363A;" d="M432.64,401.921h-19.383c-2.926,0-5.486-2.56-5.486-5.486s2.56-5.486,5.486-5.486h19.383   c2.926,0,5.486,2.56,5.486,5.486S435.931,401.921,432.64,401.921z"/>
	<path style="fill:#33363A;" d="M375.954,401.921H34.743c-2.926,0-5.486-2.56-5.486-5.486s2.56-5.486,5.486-5.486h341.211   c2.926,0,5.486,2.56,5.486,5.486S378.88,401.921,375.954,401.921z"/>
	<path style="fill:#33363A;" d="M396.434,401.921h-3.657c-2.926,0-5.486-2.56-5.486-5.486s2.56-5.486,5.486-5.486h3.657   c2.926,0,5.486,2.56,5.486,5.486S399.36,401.921,396.434,401.921z"/>
	<path style="fill:#33363A;" d="M432.64,107.52h-19.383c-2.926,0-5.486-2.56-5.486-5.486c0-2.926,2.56-5.486,5.486-5.486h19.383   c2.926,0,5.486,2.56,5.486,5.486C438.126,104.96,435.931,107.52,432.64,107.52z"/>
	<path style="fill:#33363A;" d="M375.954,107.52H34.743c-2.926,0-5.486-2.56-5.486-5.486c0-2.926,2.56-5.486,5.486-5.486h341.211   c2.926,0,5.486,2.56,5.486,5.486C381.44,104.96,378.88,107.52,375.954,107.52z"/>
	<path style="fill:#33363A;" d="M396.434,107.52h-3.657c-2.926,0-5.486-2.56-5.486-5.486c0-2.926,2.56-5.486,5.486-5.486h3.657   c2.926,0,5.486,2.56,5.486,5.486C401.92,104.96,399.36,107.52,396.434,107.52z"/>
	<path style="fill:#33363A;" d="M53.76,76.434H34.377c-2.926,0-5.486-2.56-5.486-5.486c0-2.926,2.56-5.486,5.486-5.486H53.76   c2.926,0,5.486,2.56,5.486,5.486C59.246,73.874,56.686,76.434,53.76,76.434z"/>
	<path style="fill:#33363A;" d="M432.64,76.434H91.429c-2.926,0-5.486-2.56-5.486-5.486c0-2.926,2.56-5.486,5.486-5.486H432.64   c2.926,0,5.486,2.56,5.486,5.486C438.126,73.874,435.931,76.434,432.64,76.434z"/>
	<path style="fill:#33363A;" d="M74.606,76.434h-3.657c-2.926,0-5.486-2.56-5.486-5.486c0-2.926,2.56-5.486,5.486-5.486h3.657   c2.926,0,5.486,2.56,5.486,5.486C80.091,73.874,77.531,76.434,74.606,76.434z"/>
</g>
<g>
</g>
<g>
</g>
<g>
</g>
<g>
</g>
<g>
</g>
<g>
</g>
<g>
</g>
<g>
</g>
<g>
</g>
<g>
</g>
<g>
</g>
<g>
</g>
<g>
</g>
<g>
</g>
<g>
</g>
</svg>
