<?xml version="1.0" encoding="iso-8859-1"?>
<!-- Generator: Adobe Illustrator 19.0.0, SVG Export Plug-In . SVG Version: 6.00 Build 0)  -->
<svg xmlns="http://www.w3.org/2000/svg" xmlns:xlink="http://www.w3.org/1999/xlink" version="1.1" id="Capa_1" x="0px" y="0px" viewBox="0 0 466.652 466.652" style="enable-background:new 0 0 466.652 466.652;" xml:space="preserve">
<g>
	<g>
		<rect id="SVGCleanerId_0" x="17.189" y="159.09" style="fill:#187FB8;" width="88.87" height="281.23"/>
	</g>
	<g>
		<rect id="SVGCleanerId_0_1_" x="17.189" y="159.09" style="fill:#187FB8;" width="88.87" height="281.23"/>
	</g>
</g>
<g>
	<rect id="SVGCleanerId_0_2_" x="17.189" y="159.09" style="fill:#0E78D8;" width="88.87" height="281.23"/>
</g>
<path style="fill:#187FB8;" d="M348.526,156.526c-50.834,0-82.651,27.429-88.503,46.811v-44.251h-99.84  c1.463,23.406,0,281.234,0,281.234h99.84V288.183c0-8.411-0.366-16.823,2.194-23.04c6.949-16.823,21.577-34.377,47.909-34.377  c34.743,0,50.469,25.966,50.469,64V440.32h100.571V283.794C461.166,196.754,411.429,156.526,348.526,156.526z"/>
<path style="fill:#0E78D8;" d="M348.526,156.526c-50.834,0-82.651,27.429-88.503,46.811v-44.251h-99.84  c1.463,23.406,0,281.234,0,281.234h99.84V288.183c0-8.411-0.366-16.823,2.194-23.04c6.949-16.823,21.577-34.377,47.909-34.377  c34.743,0,50.469,25.966,50.469,64V440.32h100.571V283.794C461.166,196.754,411.429,156.526,348.526,156.526z"/>
<path style="fill:#2ED3FF;" d="M59.977,26.331c-32.914,0-54.126,21.211-54.126,49.006c0,27.429,20.846,48.64,53.029,48.64h0.731  c33.28,0,54.126-21.577,54.126-48.64C112.64,47.177,92.526,26.331,59.977,26.331z"/>
<path style="fill:#00A4DD;" d="M5.486,75.337c0,27.429,20.846,48.64,53.029,48.64h0.731c33.28,0,54.126-21.577,54.126-48.64"/>
<g>
	<path id="SVGCleanerId_1" style="fill:#33363A;" d="M106.057,445.806H17.189c-2.926,0-5.486-2.56-5.486-5.486V159.086   c0-2.926,2.56-5.486,5.486-5.486h88.869c2.926,0,5.486,2.56,5.486,5.486V440.32C111.543,443.246,108.983,445.806,106.057,445.806z    M22.674,434.834h77.897V164.571H22.674V434.834z"/>
</g>
<g>
	<path id="SVGCleanerId_1_1_" style="fill:#33363A;" d="M106.057,445.806H17.189c-2.926,0-5.486-2.56-5.486-5.486V159.086   c0-2.926,2.56-5.486,5.486-5.486h88.869c2.926,0,5.486,2.56,5.486,5.486V440.32C111.543,443.246,108.983,445.806,106.057,445.806z    M22.674,434.834h77.897V164.571H22.674V434.834z"/>
</g>
<g>
	<path id="SVGCleanerId_1_2_" style="fill:#33363A;" d="M106.057,445.806H17.189c-2.926,0-5.486-2.56-5.486-5.486V159.086   c0-2.926,2.56-5.486,5.486-5.486h88.869c2.926,0,5.486,2.56,5.486,5.486V440.32C111.543,443.246,108.983,445.806,106.057,445.806z    M22.674,434.834h77.897V164.571H22.674V434.834z"/>
</g>
<g>
	<path style="fill:#33363A;" d="M259.657,445.806h-99.474c-1.463,0-2.926-0.731-4.023-1.463c-1.097-1.097-1.463-2.56-1.463-4.023   c0-2.56,1.097-257.829,0-280.869c0-1.463,0.366-2.926,1.463-4.023s2.56-1.829,4.023-1.829h99.84c2.926,0,5.486,2.56,5.486,5.486   v24.503c14.994-16.823,43.52-32.914,83.017-32.914c72.777,0,118.126,50.834,118.126,133.12V440.32c0,2.926-2.56,5.486-5.486,5.486   H360.594c-2.926,0-5.486-2.56-5.486-5.486V294.766c0-26.697-7.68-58.514-44.983-58.514c-26.331,0-38.4,19.383-43.154,31.086   c-1.829,4.389-1.829,10.971-1.829,17.92v2.926V440.32C265.143,443.246,262.949,445.806,259.657,445.806z M165.669,434.834h88.869   V285.257c0-7.68,0-15.726,2.56-21.943c9.874-24.137,29.257-37.669,53.029-37.669c35.474,0,55.954,25.234,55.954,69.486V435.2h89.6   V284.16c0-76.434-40.229-122.149-107.154-122.149c-47.909,0-77.897,25.6-83.383,42.789c-0.731,2.56-3.291,4.389-6.217,3.657   c-2.56-0.366-4.754-2.56-4.754-5.486v-38.766H165.67C166.766,205.166,165.669,398.629,165.669,434.834z"/>
	<path style="fill:#33363A;" d="M259.657,445.806h-99.474c-1.463,0-2.926-0.731-4.023-1.463c-1.097-1.097-1.463-2.56-1.463-4.023   c0-2.56,1.097-257.829,0-280.869c0-1.463,0.366-2.926,1.463-4.023s2.56-1.829,4.023-1.829h99.84c2.926,0,5.486,2.56,5.486,5.486   v24.503c14.994-16.823,43.52-32.914,83.017-32.914c72.777,0,118.126,50.834,118.126,133.12V440.32c0,2.926-2.56,5.486-5.486,5.486   H360.594c-2.926,0-5.486-2.56-5.486-5.486V294.766c0-26.697-7.68-58.514-44.983-58.514c-26.331,0-38.4,19.383-43.154,31.086   c-1.829,4.389-1.829,10.971-1.829,17.92v2.926V440.32C265.143,443.246,262.949,445.806,259.657,445.806z M165.669,434.834h88.869   V285.257c0-7.68,0-15.726,2.56-21.943c9.874-24.137,29.257-37.669,53.029-37.669c35.474,0,55.954,25.234,55.954,69.486V435.2h89.6   V284.16c0-76.434-40.229-122.149-107.154-122.149c-47.909,0-77.897,25.6-83.383,42.789c-0.731,2.56-3.291,4.389-6.217,3.657   c-2.56-0.366-4.754-2.56-4.754-5.486v-38.766H165.67C166.766,205.166,165.669,398.629,165.669,434.834z"/>
	<path style="fill:#33363A;" d="M59.246,129.463h-0.731C24.503,129.463,0,106.789,0,75.337c0-31.451,25.234-54.491,59.611-54.491   s58.149,21.577,58.88,54.126C118.857,107.154,94.354,129.463,59.246,129.463z M59.977,31.817c-28.526,0-48.64,17.92-48.64,43.52   s19.383,43.154,47.543,43.154h0.731c28.526,0,48.64-17.92,48.64-43.154C107.154,49.371,88.137,31.817,59.977,31.817z"/>
	<path style="fill:#33363A;" d="M310.491,78.994c-2.926,0-5.486-2.56-5.486-5.486v-12.8c0-2.926,2.56-5.486,5.486-5.486l0,0   c2.926,0,5.486,2.56,5.486,5.486v12.8C315.977,76.8,313.417,78.994,310.491,78.994L310.491,78.994z"/>
	<path style="fill:#33363A;" d="M310.491,39.497L310.491,39.497c-3.291,0-5.486-2.56-5.486-5.486V33.28   c0-2.926,2.56-5.486,5.486-5.486s5.486,2.56,5.486,5.486v0.731C315.977,37.303,313.417,39.497,310.491,39.497z"/>
	<path style="fill:#33363A;" d="M212.846,99.108c-1.463,0-2.926-0.366-4.023-1.463l-8.777-8.777c-2.194-2.194-2.194-5.486,0-7.68   s5.486-2.194,7.68,0l8.777,8.777c2.194,2.194,2.194,5.486,0,7.68C215.771,98.743,214.309,99.108,212.846,99.108z"/>
	<path style="fill:#33363A;" d="M185.051,71.314c-1.463,0-2.56-0.366-3.657-1.463l-0.366-0.366c-2.194-2.194-2.194-5.486,0-7.68   s5.486-2.194,7.68,0l0.366,0.366c2.194,2.194,2.194,5.486,0,7.68C187.977,70.949,186.514,71.314,185.051,71.314z"/>
	<path style="fill:#33363A;" d="M408.137,99.108c-1.463,0-2.926-0.366-4.023-1.463c-2.194-2.194-2.194-5.486,0-7.68l8.777-8.777   c2.194-2.194,5.486-2.194,7.68,0s2.194,5.486,0,7.68l-8.777,8.777C411.063,98.743,409.6,99.108,408.137,99.108z"/>
	<path style="fill:#33363A;" d="M436.297,71.314c-1.463,0-2.926-0.366-4.023-1.463c-2.194-2.194-2.194-5.486,0-7.68l0.366-0.366   c2.194-2.194,5.486-2.194,7.68,0s2.194,5.486,0,7.68l-0.366,0.366C438.857,70.949,437.394,71.314,436.297,71.314z"/>
</g>
<g>
</g>
<g>
</g>
<g>
</g>
<g>
</g>
<g>
</g>
<g>
</g>
<g>
</g>
<g>
</g>
<g>
</g>
<g>
</g>
<g>
</g>
<g>
</g>
<g>
</g>
<g>
</g>
<g>
</g>
</svg>
