<?xml version="1.0" encoding="iso-8859-1"?>
<!-- Generator: Adobe Illustrator 19.0.0, SVG Export Plug-In . SVG Version: 6.00 Build 0)  -->
<svg xmlns="http://www.w3.org/2000/svg" xmlns:xlink="http://www.w3.org/1999/xlink" version="1.1" id="Capa_1" x="0px" y="0px" viewBox="0 0 464.457 464.457" style="enable-background:new 0 0 464.457 464.457;" xml:space="preserve">
<circle style="fill:#FFFFFF;" cx="232.229" cy="179.57" r="127.27"/>
<path style="fill:#D6E5EA;" d="M104.959,179.566c0-70.217,57.051-127.269,127.269-127.269s127.269,57.051,127.269,127.269"/>
<path style="fill:#0695ED;" d="M232.229,5.486c-96.549,0-174.811,79.36-174.811,177.006c0,131.657,139.703,276.48,174.811,276.48  s174.811-144.823,174.811-276.481C407.039,84.846,328.776,5.486,232.229,5.486z M232.229,290.743  c-58.514,0-106.057-48.274-106.057-107.52c0-23.406,7.314-45.349,20.114-62.903c1.463,22.674,19.749,40.594,42.789,40.594  c23.771,0,42.789-19.383,42.789-43.52c0-17.189-9.874-31.817-24.137-38.766c7.68-1.829,16.091-2.926,24.503-2.926  c58.514,0,106.057,48.274,106.057,107.52C338.286,242.469,290.742,290.743,232.229,290.743z"/>
<path style="fill:#0779EA;" d="M334.628,211.017c-12.069,45.714-53.394,79.36-102.4,79.36c-47.177,0-86.674-31.086-100.571-73.874  c4.754,64,48.274,114.469,101.303,114.469C287.451,330.971,332.068,277.943,334.628,211.017z"/>
<path style="fill:#4FCCED;" d="M232.229,20.846c93.623,0,170.057,74.606,174.446,168.594c0-2.194,0.366-4.389,0.366-6.583  c0-97.646-78.263-177.006-174.811-177.006S57.416,85.212,57.416,182.857c0,2.194,0,4.389,0.366,6.583  C62.17,95.451,138.605,20.846,232.229,20.846z"/>
<path style="fill:#33363A;" d="M232.229,464.457c-21.211,0-66.194-39.131-104.96-91.063c-28.16-37.669-75.337-112.64-75.337-190.903  C51.93,81.92,132.753,0,232.229,0s180.297,81.92,180.297,182.491c0,78.263-47.177,153.234-75.337,190.903  C298.422,425.326,253.439,464.457,232.229,464.457z M232.229,10.971c-93.257,0-169.326,76.8-169.326,171.52  c0,132.023,140.8,270.994,169.326,270.994s169.326-138.971,169.326-270.994C401.553,87.771,325.485,10.971,232.229,10.971z   M232.229,296.229c-61.44,0-111.543-50.834-111.543-113.006c0-23.771,7.314-46.811,21.211-66.194  c1.463-1.829,3.657-2.56,5.851-2.194c2.194,0.731,3.657,2.56,4.023,5.12c1.097,20.114,17.554,35.474,37.303,35.474  c20.48,0,37.303-16.823,37.303-38.034c0-14.629-8.046-27.429-20.846-34.011c-2.194-1.097-3.291-3.291-2.926-5.486  c0.366-2.194,1.829-4.023,4.023-4.754c8.411-2.194,17.189-2.926,25.6-2.926c29.623,0,57.783,11.703,78.994,33.28  c21.211,21.211,32.549,49.737,32.549,79.726C343.771,245.394,293.669,296.229,232.229,296.229z M143.725,134.583  c-8.046,14.994-12.069,31.451-12.069,48.64c0,56.32,44.983,102.034,100.571,102.034s100.572-45.714,100.572-102.034  c0-27.429-10.606-53.029-29.623-72.046c-19.017-19.383-44.251-29.989-70.949-29.989c-3.291,0-6.949,0-10.24,0.366  c9.874,9.143,15.36,21.943,15.36,35.84c0,27.063-21.577,49.006-48.274,49.006C168.593,166.4,150.673,153.234,143.725,134.583z"/>
<g>
</g>
<g>
</g>
<g>
</g>
<g>
</g>
<g>
</g>
<g>
</g>
<g>
</g>
<g>
</g>
<g>
</g>
<g>
</g>
<g>
</g>
<g>
</g>
<g>
</g>
<g>
</g>
<g>
</g>
</svg>
