<?xml version="1.0" encoding="iso-8859-1"?>
<!-- Generator: Adobe Illustrator 19.0.0, SVG Export Plug-In . SVG Version: 6.00 Build 0)  -->
<svg xmlns="http://www.w3.org/2000/svg" xmlns:xlink="http://www.w3.org/1999/xlink" version="1.1" id="Capa_1" x="0px" y="0px" viewBox="0 0 468.114 468.114" style="enable-background:new 0 0 468.114 468.114;" xml:space="preserve">
<circle style="fill:#2463FF;" cx="227.84" cy="214.13" r="194.19"/>
<polygon style="fill:#129AFF;" points="256.731,262.766 198.583,200.96 85.211,262.766 209.92,130.377 269.531,192.183   381.806,130.377 "/>
<path style="fill:#FFFFFF;" d="M234.057,5.303c-126.171,0-228.571,94.72-228.571,211.383c0,66.56,33.28,125.806,85.211,164.571  v80.823l77.897-42.789c20.846,5.851,42.789,8.777,65.463,8.777c126.171,0,228.571-94.72,228.571-211.383  S360.229,5.303,234.057,5.303z M256.731,290.194l-58.149-62.171L85.211,290.194L209.92,157.806l59.611,62.171l112.274-62.171  L256.731,290.194z"/>
<path style="fill:#D9E5ED;" d="M234.057,428.434c119.589,0,217.966-85.211,227.474-193.829  C451.657,125.989,353.646,40.777,234.057,40.777S16.091,125.989,6.583,234.606c5.12,59.246,36.937,111.909,84.114,147.017v35.474  v45.349l77.897-42.789C189.44,425.508,211.383,428.434,234.057,428.434z M85.211,325.669l68.754-72.777L85.211,290.56  L209.92,158.171l59.611,62.171l112.274-62.171l-69.486,73.874l69.486-38.4L257.097,326.034l-58.149-62.171L85.211,325.669z"/>
<g>
	<path style="fill:#33363A;" d="M90.697,467.931c-1.097,0-1.829-0.366-2.926-0.731c-1.829-1.097-2.56-2.926-2.56-4.754v-77.897   C31.086,343.223,0,282.149,0,217.051C0,97.463,104.96,0.183,234.057,0.183c62.537,0,121.051,22.674,165.303,63.269   c44.251,40.96,68.754,95.451,68.754,153.6c0,119.589-104.96,216.869-234.057,216.869c-21.943,0-43.886-2.926-64.731-8.411   L93.623,467.2C92.526,467.566,91.794,467.931,90.697,467.931z M234.057,10.789c-122.88,0-223.086,92.526-223.086,205.897   c0,62.537,30.354,121.051,83.017,160.183c1.463,1.097,2.194,2.56,2.194,4.389v71.314l69.851-38.4   c1.097-0.731,2.56-0.731,4.023-0.366c20.846,5.851,42.423,8.777,64,8.777c122.88,0,223.086-92.526,223.086-205.897   c0-54.857-23.04-106.789-65.097-145.554C349.623,32.366,293.669,10.789,234.057,10.789z M85.211,295.68   c-1.829,0-3.291-0.731-4.389-2.194c-1.829-2.194-1.463-5.12,0.366-6.949l124.709-132.389c1.097-1.097,2.56-1.829,4.023-1.829   s2.926,0.731,4.023,1.829l56.686,58.88l108.251-59.977c2.194-1.463,5.486-0.731,6.949,1.463c1.829,2.194,1.463,5.12-0.366,6.949   L260.754,293.851c-1.097,1.097-2.56,1.829-4.023,1.829l0,0c-1.463,0-2.926-0.731-4.023-1.829l-55.223-58.88L87.771,294.948   C87.04,295.68,85.943,295.68,85.211,295.68z M198.583,222.903c1.463,0,2.926,0.731,4.023,1.829l54.126,57.783l96.914-102.766   l-81.189,44.983c-2.194,1.097-4.754,0.731-6.583-1.097l-55.589-57.783l-97.28,103.131l83.017-45.349   C196.754,222.903,197.851,222.903,198.583,222.903z"/>
	<path style="fill:#33363A;" d="M174.811,426.606c-0.366,0-1.097,0-1.463-0.366c-17.189-4.754-33.646-11.337-49.006-20.48   c-2.56-1.463-3.657-4.754-1.829-7.68c1.463-2.56,4.754-3.657,7.68-1.829c14.263,8.411,29.989,14.994,46.08,19.383   c2.926,0.731,4.754,3.657,4.023,6.583C179.566,425.143,177.371,426.606,174.811,426.606z"/>
</g>
<g>
</g>
<g>
</g>
<g>
</g>
<g>
</g>
<g>
</g>
<g>
</g>
<g>
</g>
<g>
</g>
<g>
</g>
<g>
</g>
<g>
</g>
<g>
</g>
<g>
</g>
<g>
</g>
<g>
</g>
</svg>
