<svg id="Layer_1" data-name="Layer 1" xmlns="http://www.w3.org/2000/svg" viewBox="0 0 734.3 588.3"><defs><style>.cls-1,.cls-10{fill:#161616;}.cls-2{fill:#e17726;stroke:#e17726;}.cls-10,.cls-11,.cls-2,.cls-3,.cls-4,.cls-5,.cls-6,.cls-7,.cls-8,.cls-9{stroke-linecap:round;stroke-linejoin:round;}.cls-3{fill:#e27625;stroke:#e27625;}.cls-4{fill:#d5bfb2;stroke:#d5bfb2;}.cls-5{fill:#233447;stroke:#233447;}.cls-6{fill:#cc6228;stroke:#cc6228;}.cls-7{fill:#e27525;stroke:#e27525;}.cls-8{fill:#f5841f;stroke:#f5841f;}.cls-9{fill:#c0ac9d;stroke:#c0ac9d;}.cls-10{stroke:#161616;}.cls-11{fill:#763e1a;stroke:#763e1a;}</style></defs><title>Artboard 1</title><path class="cls-1" d="M518.24,454c-3.17-2.11-6.71-3.64-10.06-5.49a41.82,41.82,0,0,1-6.35-3.83c-3.19-2.63-2.55-7.81.82-10.07,4.78-3.21,12.73-1.39,13.55,5.14a.27.27,0,0,0,.27.25h7.22a.29.29,0,0,0,.29-.32c-.39-4.51-2.1-8.26-5.28-10.66a16.94,16.94,0,0,0-10.26-3.52c-19.13,0-20.87,20.25-10.58,26.64,1.2.74,11.29,5.81,14.86,8s4.69,6.25,3.14,9.46c-1.41,2.94-5.07,4.91-8.73,4.72-4-.21-7.1-2.39-8.19-5.78a10.59,10.59,0,0,1-.28-2.29.29.29,0,0,0-.29-.27h-7.86a.3.3,0,0,0-.29.3c0,5.68,1.42,8.82,5.24,11.69a18.89,18.89,0,0,0,11.65,3.84c10.69,0,16.27-6.06,17.37-12.34S523.77,457.66,518.24,454Z"/><path class="cls-1" d="M177.76,426.47h-7.25a.27.27,0,0,0-.27.2l-6.46,21.21a.28.28,0,0,1-.54,0l-6.45-21.21a.29.29,0,0,0-.28-.2H144.58a.29.29,0,0,0-.29.28v54.19a.29.29,0,0,0,.29.29h7.86a.28.28,0,0,0,.28-.29V439.77a.29.29,0,0,1,.56-.08l6.5,21.35.45,1.49a.29.29,0,0,0,.28.2h6a.29.29,0,0,0,.28-.2l.45-1.49,6.5-21.35a.29.29,0,0,1,.56.08v41.17a.28.28,0,0,0,.28.29h7.86a.29.29,0,0,0,.29-.29V426.75a.29.29,0,0,0-.29-.28Z"/><path class="cls-1" d="M398.15,426.47a.29.29,0,0,0-.27.2l-6.45,21.21a.29.29,0,0,1-.55,0l-6.45-21.21a.28.28,0,0,0-.27-.2H372.23a.29.29,0,0,0-.29.28v54.19a.29.29,0,0,0,.29.29h7.86a.29.29,0,0,0,.28-.29V439.77a.29.29,0,0,1,.56-.08l6.5,21.35.45,1.49a.29.29,0,0,0,.27.2h6a.27.27,0,0,0,.27-.2l.46-1.49,6.49-21.35a.29.29,0,0,1,.56.08v41.17a.29.29,0,0,0,.29.29h7.86a.29.29,0,0,0,.28-.29V426.75a.29.29,0,0,0-.28-.28Z"/><path class="cls-1" d="M297,426.47H260a.29.29,0,0,0-.29.28v6.78a.29.29,0,0,0,.29.28h14.33v47.13a.29.29,0,0,0,.29.29h7.86a.29.29,0,0,0,.28-.29V433.81H297a.29.29,0,0,0,.29-.28v-6.78A.29.29,0,0,0,297,426.47Z"/><path class="cls-1" d="M343.29,481.23h7.14a.28.28,0,0,0,.27-.36L336,426.5a.29.29,0,0,0-.28-.21H325.46a.29.29,0,0,0-.28.21l-14.75,54.37a.29.29,0,0,0,.28.36h7.14a.29.29,0,0,0,.27-.22l4.29-15.8a.28.28,0,0,1,.27-.21h15.78a.29.29,0,0,1,.27.21L343,481A.28.28,0,0,0,343.29,481.23ZM324.55,457.3l5.74-21.17a.29.29,0,0,1,.55,0l5.74,21.17a.28.28,0,0,1-.27.36H324.83A.29.29,0,0,1,324.55,457.3Z"/><path class="cls-1" d="M465,481.23h7.13a.29.29,0,0,0,.28-.36L457.66,426.5a.28.28,0,0,0-.28-.21H447.16a.29.29,0,0,0-.28.21l-14.74,54.37a.29.29,0,0,0,.27.36h7.14a.28.28,0,0,0,.27-.22l4.29-15.8a.29.29,0,0,1,.28-.21h15.77a.28.28,0,0,1,.27.21l4.29,15.8A.29.29,0,0,0,465,481.23ZM446.26,457.3,452,436.13a.29.29,0,0,1,.55,0l5.74,21.17a.29.29,0,0,1-.28.36H446.53A.28.28,0,0,1,446.26,457.3Z"/><path class="cls-1" d="M214.46,473.22V456.4a.27.27,0,0,1,.28-.28h20.88a.29.29,0,0,0,.28-.29v-6.77a.29.29,0,0,0-.28-.29H214.74a.28.28,0,0,1-.28-.28V434.1a.28.28,0,0,1,.28-.29H238.5a.29.29,0,0,0,.29-.28v-6.78a.29.29,0,0,0-.29-.28H206.31a.28.28,0,0,0-.28.28v54.19a.28.28,0,0,0,.28.29h33.21a.29.29,0,0,0,.29-.29v-7.15a.29.29,0,0,0-.29-.29H214.74A.27.27,0,0,1,214.46,473.22Z"/><path class="cls-1" d="M589.92,480.74l-27.14-28.05a.28.28,0,0,1,0-.4L587.19,427a.28.28,0,0,0-.2-.48H577a.29.29,0,0,0-.21.09l-20.72,21.51a.29.29,0,0,1-.5-.2V426.75a.28.28,0,0,0-.28-.28h-7.86a.29.29,0,0,0-.29.28v54.19a.29.29,0,0,0,.29.29h7.86a.28.28,0,0,0,.28-.29V457.09a.29.29,0,0,1,.49-.2l23.47,24.25a.29.29,0,0,0,.2.09h10A.29.29,0,0,0,589.92,480.74Z"/><polygon class="cls-2" points="483.75 116.55 382.63 191.57 401.41 147.31 483.75 116.55"/><polygon class="cls-3" points="250.55 116.55 350.75 192.28 332.89 147.31 250.55 116.55"/><polygon class="cls-3" points="447.4 290.46 420.5 331.68 478.06 347.51 494.51 291.37 447.4 290.46"/><polygon class="cls-3" points="239.89 291.37 256.24 347.51 313.8 331.68 287 290.46 239.89 291.37"/><polygon class="cls-3" points="310.65 220.81 294.61 245.08 351.67 247.62 349.74 186.19 310.65 220.81"/><polygon class="cls-3" points="423.65 220.81 383.95 185.48 382.63 247.62 439.69 245.08 423.65 220.81"/><polygon class="cls-3" points="313.8 331.68 348.22 314.92 318.57 291.78 313.8 331.68"/><polygon class="cls-3" points="386.08 314.92 420.5 331.68 415.73 291.78 386.08 314.92"/><polygon class="cls-4" points="420.5 331.68 386.08 314.92 388.82 337.36 388.52 346.8 420.5 331.68"/><polygon class="cls-4" points="313.8 331.68 345.78 346.8 345.58 337.36 348.22 314.92 313.8 331.68"/><polygon class="cls-5" points="346.39 276.95 317.76 268.53 337.96 259.29 346.39 276.95"/><polygon class="cls-5" points="387.91 276.95 396.34 259.29 416.64 268.53 387.91 276.95"/><polygon class="cls-6" points="313.8 331.68 318.77 290.46 287 291.37 313.8 331.68"/><polygon class="cls-6" points="415.53 290.46 420.5 331.68 447.4 291.37 415.53 290.46"/><polygon class="cls-6" points="439.69 245.08 382.63 247.62 387.91 276.95 396.34 259.29 416.64 268.53 439.69 245.08"/><polygon class="cls-6" points="317.76 268.53 337.96 259.29 346.39 276.95 351.67 247.62 294.61 245.08 317.76 268.53"/><polygon class="cls-7" points="294.61 245.08 318.57 291.78 317.76 268.53 294.61 245.08"/><polygon class="cls-7" points="416.64 268.53 415.73 291.78 439.69 245.08 416.64 268.53"/><polygon class="cls-7" points="351.67 247.62 346.39 276.95 353.09 311.57 354.51 265.99 351.67 247.62"/><polygon class="cls-7" points="382.63 247.62 379.89 265.89 381.21 311.57 387.91 276.95 382.63 247.62"/><polygon class="cls-8" points="387.91 276.95 381.21 311.57 386.08 314.92 415.73 291.78 416.64 268.53 387.91 276.95"/><polygon class="cls-8" points="317.76 268.53 318.57 291.78 348.22 314.92 353.09 311.57 346.39 276.95 317.76 268.53"/><polygon class="cls-9" points="388.52 346.8 388.82 337.36 386.29 335.13 348.01 335.13 345.58 337.36 345.78 346.8 313.8 331.68 324.97 340.81 347.71 356.55 386.59 356.55 409.33 340.81 420.5 331.68 388.52 346.8"/><polygon class="cls-10" points="386.08 314.92 381.21 311.57 353.09 311.57 348.22 314.92 345.58 337.36 348.01 335.13 386.29 335.13 388.82 337.36 386.08 314.92"/><polygon class="cls-11" points="488.01 196.45 496.54 155.03 483.75 116.55 386.08 189.04 423.65 220.81 476.74 236.35 488.42 222.64 483.34 218.99 491.46 211.57 485.27 206.7 493.39 200.51 488.01 196.45"/><polygon class="cls-11" points="237.76 155.03 246.39 196.45 240.91 200.51 249.03 206.7 242.84 211.57 250.96 218.99 245.88 222.64 257.56 236.35 310.65 220.81 348.22 189.04 250.55 116.55 237.76 155.03"/><polygon class="cls-8" points="476.74 236.35 423.65 220.81 439.69 245.08 415.73 291.78 447.4 291.37 494.51 291.37 476.74 236.35"/><polygon class="cls-8" points="310.65 220.81 257.56 236.35 239.89 291.37 287 291.37 318.57 291.78 294.61 245.08 310.65 220.81"/><polygon class="cls-8" points="382.63 247.62 386.08 189.04 401.41 147.31 332.89 147.31 348.22 189.04 351.67 247.62 352.99 266.09 353.09 311.57 381.21 311.57 381.31 266.09 382.63 247.62"/></svg>