<?xml version="1.0" encoding="iso-8859-1"?>
<!-- Generator: Adobe Illustrator 19.0.0, SVG Export Plug-In . SVG Version: 6.00 Build 0)  -->
<svg xmlns="http://www.w3.org/2000/svg" xmlns:xlink="http://www.w3.org/1999/xlink" version="1.1" id="Capa_1" x="0px" y="0px" viewBox="0 0 468.846 468.846" style="enable-background:new 0 0 468.846 468.846;" xml:space="preserve">
<path style="fill:#4F5459;" d="M234.057,259.474h-1.463L183.954,78.08H35.474v46.08h15.36c6.217,0,14.629,8.411,14.629,13.897  v194.56c0,5.486-8.046,12.8-14.629,12.8h-15.36v46.08h118.857v-46.08h-29.623V140.983h1.829l68.389,250.514h53.76l69.486-250.514  h1.463v204.434h-29.623v46.08h141.897v-46.08h-15.726c-5.851,0-13.897-7.314-13.897-12.8v-194.56  c0-5.486,8.046-13.897,13.897-13.897h15.726V78.08H283.794L234.057,259.474z"/>
<g>
	<path style="fill:#33363A;" d="M124.343,221.074c-21.211-5.12-41.326-11.703-59.246-19.749v130.926c0,5.486-8.046,12.8-14.629,12.8   h-15.36v46.08h118.857v-46.08h-29.623V221.074H124.343z"/>
	<path style="fill:#33363A;" d="M241.006,233.509l-6.949,25.6h-1.463l-6.949-25.6c-26.331-0.366-51.931-2.926-76.069-7.314   l44.983,164.937h53.76l44.617-161.28C276.114,232.046,258.56,233.509,241.006,233.509z"/>
	<path style="fill:#33363A;" d="M401.554,332.252V201.326c-24.503,10.606-52.297,19.017-82.286,24.869v118.857h-29.623v46.08   h141.897v-46.08h-15.726C409.6,345.052,401.554,337.737,401.554,332.252z"/>
	<path style="fill:#33363A;" d="M153.966,396.617H35.109c-2.926,0-5.486-2.56-5.486-5.486v-46.08c0-2.926,2.56-5.486,5.486-5.486   h15.36c3.657,0,8.777-5.12,9.143-7.314v-194.56c0-2.194-5.486-8.411-9.143-8.411h-15.36c-2.926,0-5.486-2.56-5.486-5.486v-46.08   c0-2.926,2.56-5.486,5.486-5.486h148.48c2.56,0,4.754,1.829,5.12,4.023l44.251,164.206l44.617-164.206   c0.731-2.56,2.926-4.023,5.12-4.023h148.114c2.926,0,5.486,2.56,5.486,5.486v46.08c0,2.926-2.56,5.486-5.486,5.486h-15.726   c-2.926,0-8.411,5.851-8.411,8.411v194.56c0,2.194,5.486,7.314,8.411,7.314h15.726c2.926,0,5.486,2.56,5.486,5.486v46.08   c0,2.926-2.56,5.486-5.486,5.486H289.28c-2.926,0-5.486-2.56-5.486-5.486v-46.08c0-2.926,2.56-5.486,5.486-5.486h24.137v-163.84   L253.44,392.594c-0.731,2.56-2.926,4.023-5.12,4.023h-53.76c-2.56,0-4.754-1.829-5.12-4.023l-59.246-217.6v164.571h24.137   c2.926,0,5.486,2.56,5.486,5.486v46.08C159.451,394.423,157.257,396.617,153.966,396.617z M40.96,385.646h107.886v-35.109h-24.137   c-2.926,0-5.486-2.56-5.486-5.486V140.617c0-2.926,2.56-5.486,5.486-5.486h1.829c2.56,0,4.754,1.829,5.12,4.023l67.291,246.491   h45.349l68.023-246.491c0.731-2.194,2.926-4.023,5.12-4.023h1.463c2.926,0,5.486,2.56,5.486,5.486v204.434   c0,2.926-2.56,5.486-5.486,5.486h-24.137v35.109h130.926v-35.109h-10.24c-8.777,0-19.383-9.874-19.383-18.286v-194.56   c0-8.777,10.606-19.383,19.383-19.383h10.24V83.2h-138.24l-48.274,177.371c-0.731,2.56-2.926,4.023-5.12,4.023h-1.463   c-2.56,0-4.754-1.829-5.12-4.023L179.931,83.2H41.326v35.109H51.2c8.777,0,20.114,10.606,20.114,19.383v194.56   c0,8.411-10.606,18.286-20.114,18.286h-9.874v35.109H40.96V385.646z"/>
	<path style="fill:#33363A;" d="M85.577,396.617H28.891c-2.926,0-5.486-2.56-5.486-5.486s2.56-5.486,5.486-5.486h56.686   c2.926,0,5.486,2.56,5.486,5.486S88.503,396.617,85.577,396.617z"/>
	<path style="fill:#33363A;" d="M9.509,396.617H5.486c-2.926,0-5.486-2.56-5.486-5.486s2.56-5.486,5.486-5.486h4.023   c2.926,0,5.486,2.56,5.486,5.486C14.994,394.057,12.434,396.617,9.509,396.617z"/>
	<path style="fill:#33363A;" d="M440.32,396.617h-56.686c-2.926,0-5.486-2.56-5.486-5.486s2.56-5.486,5.486-5.486h56.686   c2.926,0,5.486,2.56,5.486,5.486S443.246,396.617,440.32,396.617z"/>
	<path style="fill:#33363A;" d="M463.36,396.617h-4.023c-2.926,0-5.486-2.56-5.486-5.486s2.56-5.486,5.486-5.486h4.023   c2.926,0,5.486,2.56,5.486,5.486C468.846,394.057,466.286,396.617,463.36,396.617z"/>
</g>
<g>
</g>
<g>
</g>
<g>
</g>
<g>
</g>
<g>
</g>
<g>
</g>
<g>
</g>
<g>
</g>
<g>
</g>
<g>
</g>
<g>
</g>
<g>
</g>
<g>
</g>
<g>
</g>
<g>
</g>
</svg>
