<svg version="1.1" id="Layer_1" xmlns="http://www.w3.org/2000/svg" xmlns:xlink="http://www.w3.org/1999/xlink" x="0px" y="0px" viewBox="0 0 384 116" enable-background="new 0 0 384 116" xml:space="preserve">
 <path fill="#3291E9" d="M135.1,53.2c0-3.2,0.5-6.1,1.6-8.7c1.1-2.6,2.5-4.9,4.3-6.7c1.9-1.8,4.1-3.3,6.7-4.2c2.6-1,5.4-1.5,8.5-1.5
	c3.1,0,6,0.4,8.6,1.4c2.6,0.9,4.8,2.3,6.7,4.2c1.9,1.8,3.3,4.1,4.4,6.7c1.1,2.6,1.6,5.5,1.6,8.7c0,3.1-0.5,6-1.6,8.5
	c-1.1,2.6-2.5,4.8-4.4,6.6c-1.9,1.8-4.1,3.3-6.7,4.4c-2.6,1-5.5,1.5-8.6,1.6c-3.1,0-5.9-0.5-8.5-1.5c-2.6-1-4.8-2.4-6.7-4.2
	c-1.8-1.8-3.3-4.1-4.3-6.6C135.6,59.2,135.1,56.3,135.1,53.2z M142.6,52.7c0,2.1,0.3,4.1,1,5.9c0.7,1.8,1.6,3.4,2.8,4.7
	c1.2,1.3,2.6,2.4,4.3,3.1c1.7,0.8,3.6,1.1,5.6,1.1c2.1,0,4-0.4,5.6-1.1c1.7-0.8,3.1-1.8,4.3-3.1c1.2-1.3,2.1-2.9,2.8-4.7
	c0.7-1.8,1-3.8,1-5.9c0-2-0.3-3.9-1-5.6c-0.6-1.7-1.6-3.2-2.8-4.5c-1.2-1.3-2.7-2.3-4.3-3.1c-1.7-0.8-3.6-1.1-5.6-1.1
	c-2.1,0-4,0.4-5.6,1.1c-1.7,0.7-3.1,1.7-4.3,3.1c-1.2,1.3-2.1,2.8-2.8,4.5C142.9,48.9,142.6,50.8,142.6,52.7z">
 </path>
 <path fill="#3291E9" d="M185.7,45.9h6.4V50h0.1c1-1.7,2.3-2.9,4-3.6c1.7-0.8,3.4-1.1,5.4-1.1c2.1,0,3.9,0.4,5.6,1.1
	c1.7,0.7,3.1,1.7,4.2,3c1.2,1.3,2.1,2.8,2.7,4.5c0.6,1.7,0.9,3.6,0.9,5.6c0,2-0.3,3.9-1,5.6c-0.6,1.7-1.5,3.2-2.7,4.5
	c-1.1,1.3-2.5,2.3-4.1,3.1c-1.6,0.7-3.4,1.1-5.3,1.1c-1.3,0-2.4-0.1-3.4-0.4c-1-0.3-1.8-0.6-2.6-1c-0.8-0.4-1.4-0.8-1.9-1.3
	c-0.5-0.5-1-1-1.3-1.4h-0.2v16.3h-6.8V45.9z M208.1,59.5c0-1.1-0.2-2.1-0.6-3.1c-0.3-1-0.9-1.8-1.6-2.6c-0.7-0.8-1.5-1.4-2.5-1.8
	c-1-0.5-2.1-0.7-3.3-0.7c-1.2,0-2.4,0.2-3.3,0.7c-1,0.5-1.8,1.1-2.5,1.8c-0.7,0.8-1.2,1.6-1.6,2.6c-0.3,1-0.5,2-0.5,3.1
	c0,1.1,0.2,2.1,0.5,3.1c0.4,1,0.9,1.8,1.6,2.6c0.7,0.8,1.6,1.4,2.5,1.8c1,0.5,2.1,0.7,3.3,0.7c1.2,0,2.4-0.2,3.3-0.7
	c1-0.5,1.8-1.1,2.5-1.8c0.7-0.8,1.2-1.6,1.6-2.6C208,61.6,208.1,60.5,208.1,59.5z">
 </path>
 <path fill="#3291E9" d="M228.7,61.9c0.2,2,1,3.6,2.4,4.7c1.4,1.1,3,1.7,4.9,1.7c1.7,0,3.1-0.3,4.2-1c1.2-0.7,2.2-1.6,3-2.7l4.9,3.7
	c-1.6,2-3.3,3.4-5.3,4.2c-2,0.8-4,1.2-6.2,1.2c-2,0-4-0.3-5.8-1c-1.8-0.7-3.4-1.6-4.7-2.9c-1.3-1.2-2.4-2.7-3.2-4.5
	c-0.8-1.8-1.1-3.7-1.1-5.9c0-2.1,0.4-4.1,1.1-5.8c0.8-1.8,1.8-3.3,3.2-4.5c1.3-1.2,2.9-2.2,4.7-2.9c1.8-0.7,3.7-1,5.8-1
	c1.9,0,3.6,0.3,5.1,1c1.6,0.6,2.9,1.6,4,2.8c1.1,1.2,2,2.8,2.6,4.6c0.6,1.8,1,3.9,1,6.3v1.9H228.7z M242.6,56.8c0-2-0.7-3.6-1.9-4.7
	c-1.2-1.2-2.9-1.8-5-1.8c-2,0-3.7,0.6-4.9,1.8c-1.2,1.2-1.9,2.7-2.1,4.7H242.6z">
 </path>
 <path fill="#3291E9" d="M257.7,45.9h6.4v4.4h0.1c0.6-1.4,1.6-2.5,2.9-3.5c1.3-1,3.1-1.5,5.4-1.5c1.8,0,3.3,0.3,4.6,0.9
	c1.3,0.6,2.3,1.4,3.1,2.4c0.8,1,1.4,2.1,1.7,3.4c0.3,1.3,0.5,2.6,0.5,4V73h-6.8V59.3c0-0.8,0-1.6-0.1-2.5c-0.1-0.9-0.3-1.8-0.6-2.6
	c-0.3-0.8-0.8-1.5-1.5-2c-0.7-0.6-1.6-0.8-2.8-0.8c-1.1,0-2.1,0.2-2.9,0.6c-0.8,0.4-1.4,0.9-1.9,1.5c-0.5,0.6-0.8,1.4-1.1,2.2
	c-0.2,0.8-0.3,1.7-0.3,2.6V73h-6.8V45.9z">
 </path>
 <path fill="#3291E9" d="M312.3,41.6c-0.8-1.1-1.8-1.9-3-2.4c-1.2-0.5-2.6-0.8-4-0.8c-0.8,0-1.6,0.1-2.4,0.3
	c-0.8,0.2-1.4,0.5-2.1,0.9c-0.6,0.4-1.1,1-1.5,1.6c-0.4,0.6-0.6,1.4-0.6,2.3c0,1.4,0.5,2.4,1.4,3.1s2.1,1.3,3.5,1.9s2.9,1,4.6,1.5
	s3.2,1.2,4.6,2c1.4,0.9,2.6,2,3.5,3.4c0.9,1.4,1.4,3.3,1.4,5.7c0,2.1-0.4,4-1.2,5.7c-0.8,1.6-1.9,2.9-3.2,4
	c-1.3,1.1-2.9,1.8-4.6,2.4c-1.8,0.5-3.6,0.8-5.6,0.8c-2.5,0-4.9-0.4-7.2-1.2c-2.3-0.8-4.3-2.2-5.9-4.2l5.4-5.2
	c0.9,1.3,2,2.4,3.4,3.1c1.4,0.7,2.9,1.1,4.5,1.1c0.8,0,1.7-0.1,2.5-0.3c0.8-0.2,1.6-0.6,2.3-1c0.7-0.5,1.2-1,1.6-1.7
	c0.4-0.7,0.6-1.5,0.6-2.4c0-1.5-0.5-2.6-1.4-3.4c-0.9-0.8-2.1-1.5-3.5-2c-1.4-0.6-2.9-1.1-4.6-1.6c-1.7-0.5-3.2-1.1-4.6-2
	c-1.4-0.9-2.6-2-3.5-3.4c-0.9-1.4-1.4-3.3-1.4-5.7c0-2.1,0.4-3.9,1.2-5.4c0.9-1.5,2-2.8,3.3-3.7c1.4-1,3-1.8,4.7-2.3
	c1.8-0.5,3.6-0.7,5.4-0.7c2.1,0,4.1,0.3,6.1,1c2,0.6,3.8,1.7,5.4,3.2L312.3,41.6z">
 </path>
 <path fill="#3291E9" d="M332,61.9c0.2,2,1,3.6,2.4,4.7c1.4,1.1,3,1.7,4.9,1.7c1.7,0,3.1-0.3,4.2-1c1.2-0.7,2.2-1.6,3-2.7l4.9,3.7
	c-1.6,2-3.4,3.4-5.3,4.2c-2,0.8-4,1.2-6.2,1.2c-2,0-3.9-0.3-5.8-1c-1.8-0.7-3.4-1.6-4.7-2.9c-1.3-1.2-2.4-2.7-3.2-4.5
	c-0.8-1.8-1.1-3.7-1.1-5.9c0-2.1,0.4-4.1,1.1-5.8c0.8-1.8,1.8-3.3,3.2-4.5c1.3-1.2,2.9-2.2,4.7-2.9c1.8-0.7,3.7-1,5.8-1
	c1.9,0,3.6,0.3,5.1,1c1.6,0.6,2.9,1.6,4,2.8c1.1,1.2,2,2.8,2.6,4.6c0.6,1.8,1,3.9,1,6.3v1.9H332z M345.8,56.8c0-2-0.7-3.6-1.9-4.7
	c-1.2-1.2-2.9-1.8-5-1.8c-2,0-3.7,0.6-4.9,1.8c-1.2,1.2-1.9,2.7-2.1,4.7H345.8z">
 </path>
 <path fill="#3291E9" d="M377.9,69.3h-0.2c-1,1.5-2.2,2.7-3.7,3.4c-1.5,0.7-3.2,1-5,1c-1.2,0-2.5-0.2-3.7-0.5
	c-1.2-0.3-2.2-0.8-3.2-1.5c-0.9-0.7-1.6-1.5-2.2-2.5s-0.8-2.2-0.8-3.6c0-1.5,0.3-2.7,0.8-3.7c0.5-1.1,1.2-1.9,2.1-2.6
	c0.9-0.7,1.9-1.3,3.1-1.7c1.2-0.4,2.4-0.7,3.6-0.9c1.3-0.2,2.6-0.4,3.8-0.4c1.3-0.1,2.5-0.1,3.6-0.1h1.7v-0.7c0-1.7-0.6-3-1.8-3.8
	c-1.2-0.9-2.7-1.3-4.5-1.3c-1.4,0-2.8,0.3-4,0.8c-1.2,0.5-2.3,1.2-3.2,2l-3.6-3.6c1.5-1.5,3.3-2.7,5.2-3.3c2-0.7,4.1-1,6.3-1
	c1.9,0,3.5,0.2,4.9,0.7c1.3,0.4,2.4,1,3.3,1.6c0.9,0.7,1.5,1.5,2,2.4c0.5,0.9,0.8,1.8,1,2.7c0.2,0.9,0.4,1.8,0.4,2.7
	c0,0.8,0.1,1.6,0.1,2.2V73h-6.1V69.3z M377.5,60.9h-1.4c-0.9,0-2,0-3.2,0.1c-1.2,0.1-2.3,0.3-3.3,0.6c-1,0.3-1.9,0.7-2.6,1.2
	c-0.7,0.5-1.1,1.3-1.1,2.3c0,0.6,0.1,1.2,0.4,1.6c0.3,0.4,0.7,0.8,1.1,1.1c0.5,0.3,1,0.5,1.5,0.7c0.6,0.1,1.1,0.2,1.7,0.2
	c2.3,0,4-0.5,5.1-1.6c1.1-1.1,1.7-2.7,1.7-4.6V60.9z">
 </path>
 <path fill="#3291E9" d="M58,0C26,0,0,26,0,58s26,58,58,58s58-26,58-58S90,0,58,0z M57.8,100.2C34.7,100.2,16,81.5,16,58.3
	c0-23.1,18.7-41.9,41.8-41.9s41.8,18.8,41.8,41.9C99.5,81.5,80.8,100.2,57.8,100.2z">
 </path>
 <path fill="#3291E9" d="M61.3,35c0,1.1-0.6,2-1.4,2.5v2.6l0.1,0l4.1,0.5c0,0,0,0,0,0l0,0c0,0,0,0,0,0c0,0,0,0,0,0
	c0.7,0.4,7.8,6.6,7.8,15.8c0,8.9-2.8,10.7-4,11.5c-0.2,0.1-0.3,0.2-0.4,0.3c-0.1,0.1-0.3,0.1-0.4,0L67,68l0,0
	c-0.7-0.7-2.3-2.2-5.6-2.7c-0.5-0.1-0.9-0.1-1.4-0.2l-0.1,0v6.5h7.8c1.9,0,3.4-1.3,3.8-3.1c0-0.1,0.2-0.2,0.3-0.2
	c3.8,0,7.6-0.9,11-2.5l0.7-0.3c0.2-0.1,0.5-0.1,0.7,0.1c0.2,0.1,0.3,0.4,0.3,0.6c0,0.3-0.2,0.5-0.4,0.7c-3.1,1.5-5.1,4.6-6.2,7.9
	c-0.5,1.5-1.2,2.9-2,4.2c-0.5,0.9-1.5,1.4-2.4,1l-1.4-0.6c-1.1-0.5-2.2-0.5-3.3,0l-1.4,0.6c-1.1,0.5-2.2,0.5-3.3,0l-1.4-0.6
	c-1.1-0.5-2.2-0.5-3.3,0L58,79.9c-1.1,0.5-2.2,0.5-3.3,0l-1.4-0.6c-1.1-0.5-2.2-0.5-3.3,0l-1.4,0.6c-1.1,0.5-2.2,0.5-3.3,0l-1.4-0.6
	c-1.1-0.5-2.2-0.5-3.3,0l-1.3,0.6c-0.6,0.3-1.3,0-1.7-0.6c-2.3-3.5-3.6-7.7-3.6-12.2c0-0.3,0-0.6,0-0.9c0-0.2,0.2-0.3,0.3-0.3h12.1
	c0.2,0,0.3,0.1,0.3,0.3v1.5c0,2.2,1.8,3.9,3.9,3.9h6.5v-6.5c-1.5,0.1-2.7,0.2-3.4,0.4c-0.1,0-0.2,0-0.3-0.1l0,0
	c-0.1-0.1-0.1-0.2,0-0.3c0.6-1.2,1.6-4.4,1.4-11.5c-0.2-7.6-2.9-12.5-3.9-14.1c-0.2-0.2,0-0.5,0.3-0.5l5.9,0.8v-2.2
	c-0.8-0.5-1.4-1.4-1.4-2.5c0-1.6,1.3-2.8,2.8-2.8S61.3,33.5,61.3,35z M51.4,63V50.6c0-0.1-0.1-0.2-0.2-0.3l-5.6-2.6
	c-0.2-0.1-0.4,0-0.4,0.2l-5.8,14.9c-0.1,0.2,0.1,0.4,0.3,0.4h11.4C51.3,63.3,51.4,63.2,51.4,63z">
 </path>
</svg>