<svg version="1.1" id="Layer_1" xmlns="http://www.w3.org/2000/svg" xmlns:xlink="http://www.w3.org/1999/xlink" x="0px" y="0px" viewBox="0 0 116 116" enable-background="new 0 0 116 116" xml:space="preserve">
 <path fill="#3291E9" d="M84.3,65.5c-0.2-0.2-0.5-0.2-0.8-0.1l-0.7,0.3c-3.4,1.7-7.2,2.5-11,2.5c-0.2,0-0.3,0.1-0.3,0.2
	c-0.4,1.8-1.9,3.1-3.8,3.1h-7.8v-6.5H60c0.5,0.1,0.9,0.1,1.4,0.2c3.3,0.5,4.9,2,5.6,2.7l0,0l0.1,0.1c0.1,0.1,0.3,0.1,0.4,0
	c0.1-0.1,0.2-0.2,0.4-0.3c1.2-0.8,4-2.5,4-11.5c0-9.2-7-15.4-7.8-15.8c0,0,0,0,0,0c0,0,0,0,0,0l0,0h0L60,40.1l-0.1,0v-2.6
	c0.8-0.5,1.4-1.4,1.4-2.5c0-1.6-1.2-2.9-2.8-2.9c-1.6,0-2.8,1.3-2.8,2.9c0,1,0.5,1.9,1.4,2.4v2.2L51.2,39c-0.3,0-0.5,0.3-0.3,0.5
	c1,1.6,3.7,6.6,3.9,14.1c0.2,7-0.9,10.3-1.4,11.5c-0.1,0.1-0.1,0.2,0,0.3l0,0c0.1,0.1,0.2,0.1,0.3,0.1c0.7-0.1,1.9-0.3,3.4-0.4v6.5
	h-6.5c-2.1,0-3.9-1.8-3.9-3.9v-1.6c0-0.2-0.1-0.3-0.3-0.3H34.3c-0.1,0-0.3,0.1-0.3,0.3c0,0.3,0,0.6,0,0.9c0,4.5,1.3,8.6,3.5,12.2
	c0.4,0.6,1.1,0.9,1.7,0.6l1.3-0.6c1-0.5,2.2-0.5,3.3,0l1.4,0.6c1,0.5,2.2,0.5,3.3,0l1.4-0.6c1.1-0.5,2.2-0.5,3.3,0l1.4,0.6
	c1.1,0.5,2.2,0.5,3.3,0l1.4-0.6c1.1-0.5,2.2-0.5,3.3,0l1.4,0.6c1.1,0.5,2.2,0.5,3.3,0l1.4-0.6c1.1-0.5,2.2-0.5,3.3,0l1.4,0.6
	c0.9,0.4,1.9-0.1,2.4-1c0.8-1.3,1.5-2.8,2-4.2c1.1-3.3,3.1-6.4,6.2-7.9c0.3-0.1,0.4-0.4,0.4-0.7C84.6,65.9,84.5,65.6,84.3,65.5z
	 M39.7,63.3h11.4c0.2,0,0.3-0.1,0.3-0.3V50.6c0-0.1-0.1-0.2-0.2-0.3l-5.6-2.6c-0.1-0.1-0.3,0-0.4,0.2l-5.8,14.9
	C39.3,63.1,39.5,63.3,39.7,63.3z M58,0C26,0,0,26,0,58s26,58,58,58s58-26,58-58S90,0,58,0z M57.8,100.2C34.7,100.2,16,81.5,16,58.3
	c0-23.1,18.7-41.9,41.8-41.9s41.8,18.8,41.8,41.9C99.5,81.5,80.8,100.2,57.8,100.2z M83.5,65.4l-0.7,0.3c-3.4,1.7-7.2,2.5-11,2.5
	c-0.2,0-0.3,0.1-0.3,0.2c-0.4,1.8-1.9,3.1-3.8,3.1h-7.8v-6.5H60c0.5,0.1,0.9,0.1,1.4,0.2c3.3,0.5,4.9,2,5.6,2.7l0,0l0.1,0.1
	c0.1,0.1,0.3,0.1,0.4,0c0.1-0.1,0.2-0.2,0.4-0.3c1.2-0.8,4-2.5,4-11.5c0-9.2-7-15.4-7.8-15.8c0,0,0,0,0,0c0,0,0,0,0,0l0,0h0L60,40.1
	l-0.1,0v-2.6c0.8-0.5,1.4-1.4,1.4-2.5c0-1.6-1.2-2.9-2.8-2.9c-1.6,0-2.8,1.3-2.8,2.9c0,1,0.5,1.9,1.4,2.4v2.2L51.2,39
	c-0.3,0-0.5,0.3-0.3,0.5c1,1.6,3.7,6.6,3.9,14.1c0.2,7-0.9,10.3-1.4,11.5c-0.1,0.1-0.1,0.2,0,0.3l0,0c0.1,0.1,0.2,0.1,0.3,0.1
	c0.7-0.1,1.9-0.3,3.4-0.4v6.5h-6.5c-2.1,0-3.9-1.8-3.9-3.9v-1.6c0-0.2-0.1-0.3-0.3-0.3H34.3c-0.1,0-0.3,0.1-0.3,0.3
	c0,0.3,0,0.6,0,0.9c0,4.5,1.3,8.6,3.5,12.2c0.4,0.6,1.1,0.9,1.7,0.6l1.3-0.6c1-0.5,2.2-0.5,3.3,0l1.4,0.6c1,0.5,2.2,0.5,3.3,0
	l1.4-0.6c1.1-0.5,2.2-0.5,3.3,0l1.4,0.6c1.1,0.5,2.2,0.5,3.3,0l1.4-0.6c1.1-0.5,2.2-0.5,3.3,0l1.4,0.6c1.1,0.5,2.2,0.5,3.3,0
	l1.4-0.6c1.1-0.5,2.2-0.5,3.3,0l1.4,0.6c0.9,0.4,1.9-0.1,2.4-1c0.8-1.3,1.5-2.8,2-4.2c1.1-3.3,3.1-6.4,6.2-7.9
	c0.3-0.1,0.4-0.4,0.4-0.7c0-0.2-0.1-0.5-0.3-0.6C84.1,65.4,83.8,65.3,83.5,65.4z M39.7,63.3h11.4c0.2,0,0.3-0.1,0.3-0.3V50.6
	c0-0.1-0.1-0.2-0.2-0.3l-5.6-2.6c-0.1-0.1-0.3,0-0.4,0.2l-5.8,14.9C39.3,63.1,39.5,63.3,39.7,63.3z">
 </path>
 <path fill="#3291E9" d="M51.2,50.4l-5.6-2.6c-0.1-0.1-0.3,0-0.4,0.2l-5.8,14.9c-0.1,0.2,0.1,0.4,0.3,0.4h11.4c0.2,0,0.3-0.1,0.3-0.3
	V50.6C51.4,50.5,51.3,50.4,51.2,50.4z M84.3,65.5c-0.2-0.2-0.5-0.2-0.8-0.1l-0.7,0.3c-3.4,1.7-7.2,2.5-11,2.5
	c-0.2,0-0.3,0.1-0.3,0.2c-0.4,1.8-1.9,3.1-3.8,3.1h-7.8v-6.5H60c0.5,0.1,0.9,0.1,1.4,0.2c3.3,0.5,4.9,2,5.6,2.7l0,0l0.1,0.1
	c0.1,0.1,0.3,0.1,0.4,0c0.1-0.1,0.2-0.2,0.4-0.3c1.2-0.8,4-2.5,4-11.5c0-9.2-7-15.4-7.8-15.8c0,0,0,0,0,0c0,0,0,0,0,0l0,0h0L60,40.1
	l-0.1,0v-2.6c0.8-0.5,1.4-1.4,1.4-2.5c0-1.6-1.2-2.9-2.8-2.9c-1.6,0-2.8,1.3-2.8,2.9c0,1,0.5,1.9,1.4,2.4v2.2L51.2,39
	c-0.3,0-0.5,0.3-0.3,0.5c1,1.6,3.7,6.6,3.9,14.1c0.2,7-0.9,10.3-1.4,11.5c-0.1,0.1-0.1,0.2,0,0.3l0,0c0.1,0.1,0.2,0.1,0.3,0.1
	c0.7-0.1,1.9-0.3,3.4-0.4v6.5h-6.5c-2.1,0-3.9-1.8-3.9-3.9v-1.6c0-0.2-0.1-0.3-0.3-0.3H34.3c-0.1,0-0.3,0.1-0.3,0.3
	c0,0.3,0,0.6,0,0.9c0,4.5,1.3,8.6,3.5,12.2c0.4,0.6,1.1,0.9,1.7,0.6l1.3-0.6c1-0.5,2.2-0.5,3.3,0l1.4,0.6c1,0.5,2.2,0.5,3.3,0
	l1.4-0.6c1.1-0.5,2.2-0.5,3.3,0l1.4,0.6c1.1,0.5,2.2,0.5,3.3,0l1.4-0.6c1.1-0.5,2.2-0.5,3.3,0l1.4,0.6c1.1,0.5,2.2,0.5,3.3,0
	l1.4-0.6c1.1-0.5,2.2-0.5,3.3,0l1.4,0.6c0.9,0.4,1.9-0.1,2.4-1c0.8-1.3,1.5-2.8,2-4.2c1.1-3.3,3.1-6.4,6.2-7.9
	c0.3-0.1,0.4-0.4,0.4-0.7C84.6,65.9,84.5,65.6,84.3,65.5z">
 </path>
</svg>