<?xml version="1.0" encoding="iso-8859-1"?>
<!-- Generator: Adobe Illustrator 19.0.0, SVG Export Plug-In . SVG Version: 6.00 Build 0)  -->
<svg xmlns="http://www.w3.org/2000/svg" xmlns:xlink="http://www.w3.org/1999/xlink" version="1.1" id="Capa_1" x="0px" y="0px" viewBox="0 0 463.36 463.36" style="enable-background:new 0 0 463.36 463.36;" xml:space="preserve">
<path style="fill:#D8532B;" d="M261.851,163.474h-64v68.023h64c18.651,0,34.011-15.36,34.011-34.011  S280.869,163.474,261.851,163.474z"/>
<path style="fill:#FC732D;" d="M197.851,197.486h98.011c0-18.651-15.36-34.011-34.011-34.011h-64L197.851,197.486L197.851,197.486z"/>
<path style="fill:#33363A;" d="M261.851,236.983h-64c-2.926,0-5.486-2.56-5.486-5.486v-68.023c0-2.926,2.56-5.486,5.486-5.486h64  c21.577,0,39.497,17.554,39.497,39.497C301.349,219.429,283.794,236.983,261.851,236.983z M203.337,226.011h58.514  c15.726,0,28.526-12.8,28.526-28.526s-12.8-28.526-28.526-28.526h-58.514V226.011z"/>
<path style="fill:#D8532B;" d="M231.863,5.12C106.789,5.12,5.486,106.423,5.486,231.497s101.303,226.377,226.377,226.377  S458.24,356.571,458.24,231.497S356.937,5.12,231.863,5.12z M261.851,276.846h-64v68.023h-45.349V118.857h109.349  c43.886,0,78.994,35.474,78.994,78.994C341.211,241.371,305.737,276.846,261.851,276.846z"/>
<path style="fill:#CC4521;" d="M333.531,231.497c-12.8,26.697-39.863,45.349-71.68,45.349h-64v68.023h-45.349V231.497H5.486  c0,125.074,101.303,226.377,226.377,226.377S458.24,356.571,458.24,231.497H333.531z"/>
<path style="fill:#FC732D;" d="M231.863,23.04c121.783,0,221.257,96.549,226.011,217.234c0-2.926,0.366-5.851,0.366-8.777  C458.24,106.423,356.937,5.12,231.863,5.12S5.851,106.423,5.851,231.497c0,2.926,0,5.851,0.366,8.777  C10.606,119.589,109.714,23.04,231.863,23.04z"/>
<g>
	<path style="fill:#33363A;" d="M231.863,463.36C104.229,463.36,0,359.497,0,231.863S103.863,0,231.863,0   C359.497,0,463.36,103.863,463.36,231.863C463.36,359.131,359.497,463.36,231.863,463.36z M231.863,10.606   c-121.783,0-220.891,99.109-220.891,220.891s99.109,220.526,220.891,220.526s220.526-99.109,220.526-220.526   C452.389,109.714,353.646,10.606,231.863,10.606z M197.851,349.989h-45.349c-2.926,0-5.486-2.56-5.486-5.486V118.491   c0-2.926,2.56-5.486,5.486-5.486h109.349c46.811,0,84.48,38.034,84.48,84.48c0,46.811-38.034,84.48-84.48,84.48h-58.514v62.537   C203.337,347.794,201.143,349.989,197.851,349.989z M158.354,339.017h34.377V276.48c0-2.926,2.56-5.486,5.486-5.486h64   c40.594,0,73.509-32.914,73.509-73.509s-32.914-73.509-73.509-73.509H158.354V339.017z"/>
	<path style="fill:#33363A;" d="M311.223,349.989h-21.577c-2.926,0-5.486-2.56-5.486-5.486s2.56-5.486,5.486-5.486h21.577   c2.926,0,5.486,2.56,5.486,5.486C316.709,347.428,314.514,349.989,311.223,349.989z"/>
	<path style="fill:#33363A;" d="M247.589,349.989h-56.686c-2.926,0-5.486-2.56-5.486-5.486s2.56-5.486,5.486-5.486h56.686   c2.926,0,5.486,2.56,5.486,5.486C253.074,347.428,250.514,349.989,247.589,349.989z"/>
	<path style="fill:#33363A;" d="M270.263,349.989h-4.023c-2.926,0-5.486-2.56-5.486-5.486s2.56-5.486,5.486-5.486h4.023   c2.926,0,5.486,2.56,5.486,5.486C275.749,347.428,273.554,349.989,270.263,349.989z"/>
	<path style="fill:#33363A;" d="M273.92,375.589h-21.577c-2.926,0-5.486-2.56-5.486-5.486s2.56-5.486,5.486-5.486h21.577   c2.926,0,5.486,2.56,5.486,5.486S277.211,375.589,273.92,375.589z"/>
	<path style="fill:#33363A;" d="M210.286,375.589H153.6c-2.926,0-5.486-2.56-5.486-5.486s2.56-5.486,5.486-5.486h56.686   c2.926,0,5.486,2.56,5.486,5.486C215.771,373.029,213.211,375.589,210.286,375.589z"/>
	<path style="fill:#33363A;" d="M233.326,375.589h-4.023c-2.926,0-5.486-2.56-5.486-5.486s2.56-5.486,5.486-5.486h4.023   c2.926,0,5.486,2.56,5.486,5.486C238.811,373.029,236.251,375.589,233.326,375.589z"/>
	<path style="fill:#33363A;" d="M273.92,401.189h-21.577c-2.926,0-5.486-2.56-5.486-5.486s2.56-5.486,5.486-5.486h21.577   c2.926,0,5.486,2.56,5.486,5.486S277.211,401.189,273.92,401.189z"/>
	<path style="fill:#33363A;" d="M210.286,401.189H153.6c-2.926,0-5.486-2.56-5.486-5.486s2.56-5.486,5.486-5.486h56.686   c2.926,0,5.486,2.56,5.486,5.486S213.211,401.189,210.286,401.189z"/>
	<path style="fill:#33363A;" d="M233.326,401.189h-4.023c-2.926,0-5.486-2.56-5.486-5.486s2.56-5.486,5.486-5.486h4.023   c2.926,0,5.486,2.56,5.486,5.486S236.251,401.189,233.326,401.189z"/>
</g>
<g>
</g>
<g>
</g>
<g>
</g>
<g>
</g>
<g>
</g>
<g>
</g>
<g>
</g>
<g>
</g>
<g>
</g>
<g>
</g>
<g>
</g>
<g>
</g>
<g>
</g>
<g>
</g>
<g>
</g>
</svg>
