<?xml version="1.0" encoding="iso-8859-1"?>
<!-- Generator: Adobe Illustrator 19.0.0, SVG Export Plug-In . SVG Version: 6.00 Build 0)  -->
<svg xmlns="http://www.w3.org/2000/svg" xmlns:xlink="http://www.w3.org/1999/xlink" version="1.1" id="Capa_1" x="0px" y="0px" viewBox="0 0 458.24 458.24" style="enable-background:new 0 0 458.24 458.24;" xml:space="preserve">
<path style="fill:#1558BA;" d="M168.694,303.543c1.829-10.971,10.971-19.017,22.309-19.017h46.08  c91.063,0,162.011-36.571,182.857-142.629c0.731-3.291,1.463-9.143,1.463-9.143c5.851-39.131,0-65.829-21.577-89.966  C376.42,16.091,333.997,4.754,279.506,4.754H121.882c-10.971,0-20.48,8.046-22.309,19.017L33.745,436.663  c-1.463,8.046,5.12,15.36,13.531,15.36h97.28l24.503-153.966L168.694,303.543z"/>
<path style="fill:#337BD1;" d="M99.939,45.714c1.829-10.971,11.337-19.017,22.309-19.017h157.623  c54.491,0,96.914,11.337,120.32,38.034c14.263,16.091,21.211,32.914,23.04,54.126c2.56-31.817-4.389-54.491-23.04-75.703  C376.785,16.457,334.362,5.12,279.871,5.12H122.248c-10.971,0-20.48,8.046-22.309,19.017L34.111,437.028  c-0.366,3.291,0.366,6.583,1.829,9.143L99.939,45.714z"/>
<path style="fill:#33363A;" d="M145.288,458.24h-97.28c-5.486,0-10.971-2.56-14.629-6.583c-3.657-4.389-5.12-9.874-4.389-15.36  L94.819,23.406C97.014,9.874,108.717,0,122.614,0h157.623c59.246,0,100.937,13.531,124.343,39.863  c21.943,24.869,28.891,53.394,22.674,94.354c0,0-1.097,6.217-1.829,9.509c-19.017,97.646-82.286,147.017-188.343,147.017h-46.08  c-8.411,0-15.36,5.851-16.823,14.263v0.366l-23.771,148.48C150.042,456.046,147.848,458.24,145.288,458.24z M122.248,10.606  c-8.411,0-15.726,5.851-16.823,14.263L39.596,437.76c-0.366,2.194,0.366,4.389,1.829,6.217c1.463,1.829,3.657,2.926,6.217,2.926  h92.526l23.771-149.211c0.366-1.463,0.731-2.56,1.829-3.291c4.754-9.143,14.263-15.36,25.234-15.36h46.08  c101.303,0,159.086-45.349,177.371-138.24c0.731-2.926,1.463-9.143,1.463-9.143c5.851-38.034,0-62.903-20.114-85.211  C374.591,22.308,335.459,10.24,279.505,10.24H122.248V10.606z"/>
<path style="fill:#1644B7;" d="M227.939,194.194c0.731-3.657,3.657-6.217,7.314-6.217h15.36c29.989,0,53.76-12.069,60.709-47.177  c0.366-1.097,0.366-2.926,0.366-2.926c1.829-13.166,0-21.943-6.949-29.623c-7.68-8.777-21.943-12.434-39.863-12.434h-52.297  c-3.657,0-6.949,2.56-7.314,6.217l-21.577,136.777c-0.366,2.56,1.829,5.12,4.389,5.12h32.183l8.046-50.834L227.939,194.194z"/>
<path style="fill:#FFFFFF;" d="M227.939,171.52c0.731-3.657,3.657-6.217,7.314-6.217h15.36c29.989,0,53.76-12.069,60.709-47.177  c0.366-1.097,0.366-2.926,0.366-2.926c1.829-13.166,0-21.943-6.949-29.623c-7.68-8.777-21.943-12.434-39.863-12.434h-52.297  c-3.657,0-6.949,2.56-7.314,6.217l-21.577,136.777c-0.366,2.56,1.829,5.12,4.389,5.12h32.183l8.046-50.834L227.939,171.52z"/>
<path style="fill:#33363A;" d="M220.259,226.377h-32.183c-2.926,0-5.851-1.097-7.68-3.657c-1.829-2.194-2.56-5.12-2.194-8.046  l21.577-136.777c1.097-6.217,6.583-10.971,12.8-10.971h52.297c20.846,0,35.474,4.754,43.886,14.263  c8.046,9.143,10.606,19.383,8.411,34.377c0,0-0.366,2.194-0.731,3.291c-6.583,34.377-28.891,51.566-65.829,51.566h-15.36  c-1.097,0-1.829,0.731-1.829,1.463l0,0l0,0l0,0l-7.68,49.371C225.379,224.183,222.819,226.377,220.259,226.377z M189.174,215.406  h26.331l7.314-46.446c0-1.097,0.731-1.829,1.097-2.56c2.194-4.023,6.583-6.583,11.337-6.583h15.36  c31.451,0,49.371-13.897,55.223-42.789c0.366-1.097,0.366-2.926,0.366-2.926c1.829-11.337,0-18.651-5.851-25.234  c-6.217-6.949-18.286-10.606-35.84-10.606h-52.297c-1.097,0-1.829,0.731-1.829,1.829L189.174,215.406z"/>
<g>
</g>
<g>
</g>
<g>
</g>
<g>
</g>
<g>
</g>
<g>
</g>
<g>
</g>
<g>
</g>
<g>
</g>
<g>
</g>
<g>
</g>
<g>
</g>
<g>
</g>
<g>
</g>
<g>
</g>
</svg>
