<?xml version="1.0" encoding="iso-8859-1"?>
<!-- Generator: Adobe Illustrator 19.0.0, SVG Export Plug-In . SVG Version: 6.00 Build 0)  -->
<svg xmlns="http://www.w3.org/2000/svg" xmlns:xlink="http://www.w3.org/1999/xlink" version="1.1" id="Capa_1" x="0px" y="0px" viewBox="0 0 463.36 463.36" style="enable-background:new 0 0 463.36 463.36;" xml:space="preserve">
<path style="fill:#C6232C;" d="M231.499,5.852C106.791,5.852,5.488,107.155,5.488,231.863c0,92.526,55.589,172.251,135.314,206.994  c-0.731-15.726,0-34.743,4.023-51.931c4.389-18.286,29.257-123.246,29.257-123.246s-7.314-14.629-7.314-35.84  c0-33.646,19.383-58.514,43.52-58.514c20.48,0,30.354,15.36,30.354,34.011c0,20.48-13.166,51.566-20.114,80.091  c-5.486,24.137,12.069,43.52,35.84,43.52c42.789,0,71.68-54.857,71.68-120.32c0-49.737-33.28-86.674-93.989-86.674  c-68.754,0-111.177,51.2-111.177,108.251c0,19.749,5.851,33.646,14.994,44.251c4.023,5.12,4.754,6.949,3.291,12.8  c-1.097,4.023-3.657,14.263-4.754,18.286c-1.463,5.851-6.217,7.68-11.337,5.851c-31.451-12.8-46.446-47.543-46.446-86.309  c0-64.366,54.126-141.166,161.646-141.166c86.309,0,142.994,62.537,142.994,129.463c0,88.869-49.371,155.063-122.149,155.063  c-24.503,0-47.177-13.166-55.223-28.16c0,0-13.166,51.931-15.726,62.171c-4.754,17.554-14.263,34.743-22.674,48.274  c20.48,5.851,41.691,9.143,64,9.143c124.709,0,226.011-101.303,226.011-226.011S356.208,5.852,231.499,5.852z"/>
<path style="fill:#680719;" d="M228.208,174.812l-0.731-0.731h-0.366C227.476,174.446,227.842,174.812,228.208,174.812z"/>
<path style="fill:#E2102E;" d="M20.848,247.589c0-125.074,101.303-226.011,226.011-226.011c58.514,0,111.909,22.309,151.771,58.514  c-41.326-45.714-100.937-74.24-167.497-74.24C106.425,5.852,5.122,107.155,5.122,231.863c0,65.829,28.16,125.074,73.143,166.4  C42.791,358.4,20.848,305.372,20.848,247.589z"/>
<path style="fill:#33363A;" d="M231.499,463.36c-22.309,0-44.251-3.291-65.463-9.509c-1.829-0.366-2.926-1.829-3.657-3.291  s-0.366-3.291,0.366-4.754c10.606-16.823,18.286-32.914,21.943-46.811c2.56-9.874,15.726-61.44,15.726-62.171  c0.731-2.194,2.56-3.657,4.754-4.023s4.389,0.731,5.486,2.926c6.583,12.434,27.063,25.234,50.469,25.234  c68.754,0,116.663-61.44,116.663-149.577c0-61.074-51.566-123.977-137.509-123.977c-59.977,0-96.914,24.503-117.029,44.983  c-24.869,24.869-38.766,58.149-38.766,90.697c0,40.594,15.726,70.217,42.789,81.189c1.097,0.366,1.829,0.366,2.56,0.366  c0.731-0.366,1.097-1.097,1.463-2.194c0.731-2.194,1.829-6.583,2.926-10.971l1.829-7.314c1.097-3.657,1.097-4.023-2.194-7.68  c-10.971-12.8-16.091-28.526-16.091-47.909c0-55.223,40.96-113.737,116.663-113.737c60.343,0,99.474,36.206,99.474,92.16  c0,71.68-33.28,125.806-77.166,125.806c-13.531,0-25.966-5.851-34.011-15.726c-7.68-9.509-10.24-21.943-7.314-34.743  c2.56-10.606,5.851-21.211,9.143-31.817c5.486-17.92,10.606-34.743,10.606-47.177c0-10.24-3.657-19.017-9.874-23.771l-0.366-0.366  c-0.366,0-0.366-0.366-0.731-0.366c-0.366,0-0.366-0.366-0.731-0.731c-3.657-2.194-8.046-3.291-13.166-3.291  c-21.211,0-38.034,23.406-38.034,53.029c0,19.749,6.583,33.28,6.583,33.28c0.731,1.097,0.731,2.56,0.366,3.657  c0,0-24.869,104.96-29.257,123.246c-3.291,13.897-4.389,31.086-3.657,50.469c0,1.829-0.731,3.657-2.56,4.754  c-1.463,1.097-3.657,1.097-5.12,0.366C78.265,417.28,32.185,366.446,11.705,303.909v-0.366c-2.56-7.68-4.389-14.994-6.217-22.674  l-0.366-1.463c-0.731-3.291-1.463-6.583-1.829-9.874l-0.366-1.829c-0.731-4.023-1.097-7.68-1.463-10.971v-1.463  c-0.366-3.291-0.731-6.583-0.731-9.509c0-1.097,0-1.829,0-2.926c-0.366-4.389-0.366-7.68-0.366-11.337  C0.368,103.863,104.231,0,231.865,0c4.023,0,8.046,0,12.434,0.366c0.731,0,1.829,0,2.56,0.366h1.463  c2.926,0.366,5.486,0.366,8.046,0.731c1.097,0,2.194,0.366,3.291,0.366l2.56,0.366c2.194,0.366,4.389,0.366,6.217,0.731  c1.097,0.366,2.194,0.366,3.291,0.731l2.56,0.366c1.829,0.366,4.023,0.731,5.851,1.097c1.097,0.366,2.56,0.731,3.657,0.731  l1.463,0.366h0.366c2.194,0.366,4.023,1.097,6.217,1.463c1.463,0.366,2.926,0.731,4.023,1.097l0.731,0.366  c2.194,0.731,4.023,1.097,6.217,1.829c1.829,0.366,3.291,1.097,5.12,1.829c2.194,0.731,4.023,1.463,6.217,2.194  c1.463,0.731,3.291,1.097,4.754,1.829c1.829,0.731,4.023,1.829,5.851,2.56c1.463,0.731,3.291,1.463,4.754,2.194  c1.829,1.097,4.023,1.829,5.851,2.926c1.463,0.731,2.926,1.463,4.389,2.194c1.829,1.097,4.023,2.194,5.851,3.291  c1.463,0.731,2.926,1.463,4.389,2.56c1.829,1.097,3.657,2.194,5.851,3.657l0.731,0.366c1.097,0.731,2.194,1.463,3.291,2.194  c1.829,1.097,3.657,2.56,5.486,4.023l1.097,0.731c0.731,0.731,1.829,1.097,2.56,1.829c1.829,1.463,3.657,2.926,5.486,4.389  l1.097,0.731c0.731,0.731,1.463,1.097,2.194,1.829c1.829,1.463,4.023,3.291,5.851,5.12l1.097,1.097  c0.731,0.366,1.097,1.097,1.829,1.463c2.194,2.194,4.389,4.023,6.583,6.217l0.731,0.731c0.366,0.366,0.731,0.731,1.097,1.097l0,0  c43.886,43.886,68.023,102.034,68.023,164.206C462.996,359.497,359.134,463.36,231.499,463.36z M175.911,445.44  c18.286,4.754,36.937,6.949,55.589,6.949c121.783,0,220.526-99.109,220.526-220.526c0-59.246-23.04-114.469-64.731-156.16  l-1.829-1.463c-2.194-2.194-4.023-4.023-6.217-5.851c-0.366-0.366-1.097-0.731-1.463-1.463l-1.097-1.097  c-1.829-1.463-3.657-3.291-5.486-4.754c-0.731-0.731-1.463-1.097-2.194-1.463l-1.097-0.731c-1.829-1.463-3.657-2.926-5.486-4.023  c-0.731-0.731-1.463-1.097-2.56-1.829l-1.097-0.731c-1.829-1.097-3.657-2.56-5.486-3.657c-1.097-0.731-2.194-1.463-3.291-2.194  l-0.731-0.366c-1.829-1.097-3.657-2.194-5.486-3.291c-1.463-0.731-2.926-1.463-4.023-2.56c-1.829-1.097-3.657-2.194-5.486-2.926  c-1.463-0.731-2.926-1.463-4.389-2.194c-1.829-1.097-3.657-1.829-5.486-2.56c-1.463-0.731-2.926-1.463-4.389-2.194  c-1.829-0.731-3.657-1.463-5.851-2.56c-1.463-0.731-2.926-1.097-4.754-1.829c-1.829-0.731-4.023-1.463-5.851-2.194  c-1.463-0.366-3.291-1.097-4.754-1.463c-1.829-0.731-4.023-1.097-5.851-1.829l-0.731-0.366c-1.463-0.366-2.56-0.731-4.023-1.097  c-1.829-0.366-4.023-1.097-5.851-1.463l-1.829-0.366c-1.097-0.366-2.194-0.366-3.291-0.731c-1.829-0.366-3.657-0.731-5.486-1.097  l-2.56-0.366c-1.097-0.366-2.194-0.366-3.291-0.731c-1.829-0.366-4.023-0.731-5.851-0.731l-2.56-0.366  c-1.097,0-1.829-0.366-2.926-0.366c-2.56-0.366-4.754-0.366-7.314-0.731H245.4c-0.731,0-1.463,0-2.194,0  c-4.023-0.366-8.046-0.366-11.703-0.366c-121.783,0-220.526,99.109-220.526,220.526c0,3.291,0,6.583,0.366,10.606  c0,1.097,0,1.829,0,2.926c0.366,2.926,0.366,6.217,0.731,9.143v1.463c0.366,3.291,0.731,6.949,1.463,10.606l0.366,1.829  c0.366,3.291,1.097,6.217,1.829,9.509l0.366,1.463c1.463,7.314,3.657,14.629,5.851,21.577l0,0  c18.651,56.686,59.611,103.497,113.006,129.463c0-16.823,1.097-31.817,4.389-44.617c4.023-16.823,25.234-107.52,28.526-121.417  c-2.194-4.754-6.949-18.286-6.949-36.206c0-35.84,21.577-64,49.006-64c7.68,0,14.263,1.829,20.114,5.851c0,0,0.366,0,0.366,0.366  c0,0,0.366,0,0.366,0.366c9.509,6.949,14.994,19.017,14.994,33.28c0,13.897-5.486,31.817-11.337,50.469  c-3.291,10.24-6.583,20.846-8.777,31.086c-2.194,9.509-0.366,18.286,5.12,25.234c5.851,7.314,14.994,11.703,25.234,11.703  c37.669,0,66.194-49.371,66.194-114.834c0-50.103-34.011-81.189-88.503-81.189c-68.758-0.005-105.695,53.024-105.695,102.761  c0,16.823,4.389,29.989,13.531,40.96c5.486,6.583,6.217,10.24,4.389,17.554l-1.829,7.314c-1.097,4.023-2.194,8.777-2.926,10.971  c-1.097,4.389-3.657,7.68-6.949,9.143c-3.291,1.829-7.68,1.829-11.703,0c-31.086-12.8-49.737-46.811-49.737-91.429  c0-72.046,62.537-146.651,167.131-146.651c92.891,0,148.48,68.754,148.48,134.949c0,92.891-53.76,160.549-127.634,160.549  c-20.114,0-40.594-8.777-52.663-21.211c-4.023,16.091-10.971,43.886-13.166,51.2C191.636,415.086,185.419,429.715,175.911,445.44z"/>
<g>
</g>
<g>
</g>
<g>
</g>
<g>
</g>
<g>
</g>
<g>
</g>
<g>
</g>
<g>
</g>
<g>
</g>
<g>
</g>
<g>
</g>
<g>
</g>
<g>
</g>
<g>
</g>
<g>
</g>
</svg>
