<svg width="361px" height="70px" viewBox="0 0 361 70" version="1.1" xmlns="http://www.w3.org/2000/svg" xmlns:xlink="http://www.w3.org/1999/xlink">
 <!-- Generator: Sketch 64 (93537) - https://sketch.com -->
 <title>
  polygon.io
 </title>
 <desc>
  Created with Sketch.
 </desc>
 <g id="Logos" stroke="none" stroke-width="1" fill="none" fill-rule="evenodd">
  <g id="link" transform="translate(-236.000000, -67.000000)" fill="#5F5CFF" fill-rule="nonzero">
   <g id="polygon.io" transform="translate(236.900000, 67.080000)">
    <path d="M9.432,68.472 L9.432,53.712 L8.856,48.528 L9.432,48.528 C10.392,50.112 11.844,51.432 13.788,52.488 C15.732,53.544 17.952,54.072 20.448,54.072 C23.76,54.072 26.772,53.244 29.484,51.588 C32.196,49.932 34.32,47.628 35.856,44.676 C37.392,41.724 38.16,38.352 38.16,34.56 C38.16,30.816 37.392,27.456 35.856,24.48 C34.32,21.504 32.196,19.188 29.484,17.532 C26.772,15.876 23.76,15.048 20.448,15.048 C17.952,15.048 15.744,15.588 13.824,16.668 C11.904,17.748 10.44,19.08 9.432,20.664 L9.432,20.664 L8.856,20.664 L8.856,16.2 L9.66338121e-13,16.2 L9.66338121e-13,68.472 L9.432,68.472 Z M18.792,45.36 C17.064,45.36 15.432,44.904 13.896,43.992 C12.36,43.08 11.136,41.808 10.224,40.176 C9.312,38.544 8.856,36.672 8.856,34.56 C8.856,32.448 9.312,30.576 10.224,28.944 C11.136,27.312 12.36,26.052 13.896,25.164 C15.432,24.276 17.064,23.832 18.792,23.832 C20.568,23.832 22.224,24.276 23.76,25.164 C25.296,26.052 26.52,27.312 27.432,28.944 C28.344,30.576 28.8,32.448 28.8,34.56 C28.8,36.672 28.344,38.544 27.432,40.176 C26.52,41.808 25.296,43.08 23.76,43.992 C22.224,44.904 20.568,45.36 18.792,45.36 Z M63,54.072 C66.744,54.072 70.104,53.22 73.08,51.516 C76.056,49.812 78.372,47.484 80.028,44.532 C81.684,41.58 82.512,38.256 82.512,34.56 C82.512,30.912 81.684,27.6 80.028,24.624 C78.372,21.648 76.056,19.308 73.08,17.604 C70.104,15.9 66.744,15.048 63,15.048 C59.208,15.048 55.824,15.9 52.848,17.604 C49.872,19.308 47.556,21.648 45.9,24.624 C44.244,27.6 43.416,30.912 43.416,34.56 C43.416,38.256 44.244,41.58 45.9,44.532 C47.556,47.484 49.872,49.812 52.848,51.516 C55.824,53.22 59.208,54.072 63,54.072 Z M63,45.36 C61.176,45.36 59.496,44.928 57.96,44.064 C56.424,43.2 55.188,41.94 54.252,40.284 C53.316,38.628 52.848,36.72 52.848,34.56 C52.848,32.4 53.316,30.504 54.252,28.872 C55.188,27.24 56.424,25.992 57.96,25.128 C59.496,24.264 61.176,23.832 63,23.832 C64.824,23.832 66.504,24.264 68.04,25.128 C69.576,25.992 70.8,27.24 71.712,28.872 C72.624,30.504 73.08,32.4 73.08,34.56 C73.08,36.768 72.624,38.688 71.712,40.32 C70.8,41.952 69.576,43.2 68.04,44.064 C66.504,44.928 64.824,45.36 63,45.36 Z M99.144,52.92 L99.144,1.368 L89.712,1.368 L89.712,52.92 L99.144,52.92 Z M122.184,68.472 L144.864,16.2 L134.352,16.2 L125.208,39.024 L124.632,39.024 L115.128,16.2 L104.4,16.2 L119.88,51.192 L112.032,68.472 L122.184,68.472 Z M166.968,69.624 C170.76,69.624 174.072,68.844 176.904,67.284 C179.736,65.724 181.92,63.504 183.456,60.624 C184.992,57.744 185.76,54.336 185.76,50.4 L185.76,50.4 L185.76,16.2 L176.688,16.2 L176.688,20.088 L176.112,20.088 C174.96,18.456 173.448,17.208 171.576,16.344 C169.704,15.48 167.568,15.048 165.168,15.048 C162.144,15.048 159.324,15.828 156.708,17.388 C154.092,18.948 151.992,21.156 150.408,24.012 C148.824,26.868 148.032,30.192 148.032,33.984 C148.032,37.776 148.824,41.1 150.408,43.956 C151.992,46.812 154.092,49.02 156.708,50.58 C159.324,52.14 162.144,52.92 165.168,52.92 C167.568,52.92 169.704,52.488 171.576,51.624 C173.448,50.76 174.96,49.512 176.112,47.88 L176.112,47.88 L176.688,47.88 L176.688,50.76 C176.688,54.12 175.812,56.712 174.06,58.536 C172.308,60.36 169.944,61.272 166.968,61.272 C164.952,61.272 163.152,60.744 161.568,59.688 C159.984,58.632 158.808,57.192 158.04,55.368 L158.04,55.368 L149.184,58.968 C150.24,61.896 152.304,64.404 155.376,66.492 C158.448,68.58 162.312,69.624 166.968,69.624 Z M167.112,44.352 C164.424,44.352 162.144,43.44 160.272,41.616 C158.4,39.792 157.464,37.248 157.464,33.984 C157.464,30.72 158.4,28.176 160.272,26.352 C162.144,24.528 164.424,23.616 167.112,23.616 C169.8,23.616 172.068,24.516 173.916,26.316 C175.764,28.116 176.688,30.672 176.688,33.984 C176.688,37.2 175.752,39.732 173.88,41.58 C172.008,43.428 169.752,44.352 167.112,44.352 Z M212.544,54.072 C216.288,54.072 219.648,53.22 222.624,51.516 C225.6,49.812 227.916,47.484 229.572,44.532 C231.228,41.58 232.056,38.256 232.056,34.56 C232.056,30.912 231.228,27.6 229.572,24.624 C227.916,21.648 225.6,19.308 222.624,17.604 C219.648,15.9 216.288,15.048 212.544,15.048 C208.752,15.048 205.368,15.9 202.392,17.604 C199.416,19.308 197.1,21.648 195.444,24.624 C193.788,27.6 192.96,30.912 192.96,34.56 C192.96,38.256 193.788,41.58 195.444,44.532 C197.1,47.484 199.416,49.812 202.392,51.516 C205.368,53.22 208.752,54.072 212.544,54.072 Z M212.544,45.36 C210.72,45.36 209.04,44.928 207.504,44.064 C205.968,43.2 204.732,41.94 203.796,40.284 C202.86,38.628 202.392,36.72 202.392,34.56 C202.392,32.4 202.86,30.504 203.796,28.872 C204.732,27.24 205.968,25.992 207.504,25.128 C209.04,24.264 210.72,23.832 212.544,23.832 C214.368,23.832 216.048,24.264 217.584,25.128 C219.12,25.992 220.344,27.24 221.256,28.872 C222.168,30.504 222.624,32.4 222.624,34.56 C222.624,36.768 222.168,38.688 221.256,40.32 C220.344,41.952 219.12,43.2 217.584,44.064 C216.048,44.928 214.368,45.36 212.544,45.36 Z M248.688,52.92 L248.688,34.2 C248.688,31.224 249.468,28.752 251.028,26.784 C252.588,24.816 254.64,23.832 257.184,23.832 C259.344,23.832 261.024,24.48 262.224,25.776 C263.424,27.072 264.024,28.896 264.024,31.248 L264.024,31.248 L264.024,52.92 L273.456,52.92 L273.456,30.096 C273.456,25.44 272.304,21.768 270,19.08 C267.696,16.392 264.336,15.048 259.92,15.048 C257.568,15.048 255.384,15.564 253.368,16.596 C251.352,17.628 249.792,19.032 248.688,20.808 L248.688,20.808 L248.112,20.808 L248.112,16.2 L239.256,16.2 L239.256,52.92 L248.688,52.92 Z" id="polygon">
    </path>
    <path d="M288.072,53.352 C289.8,53.352 291.276,52.74 292.5,51.516 C293.724,50.292 294.336,48.816 294.336,47.088 C294.336,45.36 293.724,43.896 292.5,42.696 C291.276,41.496 289.8,40.896 288.072,40.896 C286.344,40.896 284.868,41.496 283.644,42.696 C282.42,43.896 281.808,45.36 281.808,47.088 C281.808,48.816 282.42,50.292 283.644,51.516 C284.868,52.74 286.344,53.352 288.072,53.352 Z M308.304,12.168 C309.984,12.168 311.412,11.568 312.588,10.368 C313.764,9.168 314.352,7.728 314.352,6.048 C314.352,4.368 313.764,2.94 312.588,1.764 C311.412,0.588 309.984,-4.97379915e-14 308.304,-4.97379915e-14 C306.624,-4.97379915e-14 305.184,0.588 303.984,1.764 C302.784,2.94 302.184,4.368 302.184,6.048 C302.184,7.728 302.784,9.168 303.984,10.368 C305.184,11.568 306.624,12.168 308.304,12.168 Z M312.984,52.92 L312.984,16.2 L303.552,16.2 L303.552,52.92 L312.984,52.92 Z M340.416,54.072 C344.16,54.072 347.52,53.22 350.496,51.516 C353.472,49.812 355.788,47.484 357.444,44.532 C359.1,41.58 359.928,38.256 359.928,34.56 C359.928,30.912 359.1,27.6 357.444,24.624 C355.788,21.648 353.472,19.308 350.496,17.604 C347.52,15.9 344.16,15.048 340.416,15.048 C336.624,15.048 333.24,15.9 330.264,17.604 C327.288,19.308 324.972,21.648 323.316,24.624 C321.66,27.6 320.832,30.912 320.832,34.56 C320.832,38.256 321.66,41.58 323.316,44.532 C324.972,47.484 327.288,49.812 330.264,51.516 C333.24,53.22 336.624,54.072 340.416,54.072 Z M340.416,45.36 C338.592,45.36 336.912,44.928 335.376,44.064 C333.84,43.2 332.604,41.94 331.668,40.284 C330.732,38.628 330.264,36.72 330.264,34.56 C330.264,32.4 330.732,30.504 331.668,28.872 C332.604,27.24 333.84,25.992 335.376,25.128 C336.912,24.264 338.592,23.832 340.416,23.832 C342.24,23.832 343.92,24.264 345.456,25.128 C346.992,25.992 348.216,27.24 349.128,28.872 C350.04,30.504 350.496,32.4 350.496,34.56 C350.496,36.768 350.04,38.688 349.128,40.32 C348.216,41.952 346.992,43.2 345.456,44.064 C343.92,44.928 342.24,45.36 340.416,45.36 Z" id=".io">
    </path>
   </g>
  </g>
 </g>
</svg>