<?xml version="1.0" encoding="iso-8859-1"?>
<!-- Generator: Adobe Illustrator 19.0.0, SVG Export Plug-In . SVG Version: 6.00 Build 0)  -->
<svg xmlns="http://www.w3.org/2000/svg" xmlns:xlink="http://www.w3.org/1999/xlink" version="1.1" id="Capa_1" x="0px" y="0px" viewBox="0 0 468.114 468.114" style="enable-background:new 0 0 468.114 468.114;" xml:space="preserve">
<circle style="fill:#3E8AF7;" cx="234.06" cy="234.06" r="228.57"/>
<path style="fill:#2364CE;" d="M395.703,72.411c89.234,89.234,89.234,234.057,0,323.291s-234.057,89.234-323.291,0"/>
<path style="fill:#FFFFFF;" d="M171.52,114.103c-19.749,0-38.766,0.366-51.566,1.097c-1.463,0-4.389,1.097-4.389,2.56v215.771  c0,1.829,0.731,2.56,2.56,2.56h30.354c1.829,0,2.56-0.731,2.56-2.56V256c5.486,0,8.046,0.366,15.726,0.366  c44.983,0,81.92-21.943,81.92-72.777C248.32,144.457,226.743,114.103,171.52,114.103z M167.497,224.549  c-8.046,0-11.703,0-16.091-0.366v-77.531c3.657-0.366,11.337-0.731,19.017-0.731c26.697,0,42.423,12.8,42.423,38.4  C212.846,216.137,190.903,224.549,167.497,224.549z"/>
<path id="SVGCleanerId_0" style="fill:#FFFFFF;" d="M326.583,238.08c-21.211-10.971-24.869-16.091-24.869-23.406  c0-6.583,5.486-14.629,21.211-14.629c12.8,0,25.966,3.291,34.743,9.143c1.829,0.731,2.926-0.366,2.926-1.829V179.93  c0-1.463-0.366-2.926-1.829-4.023c-6.583-2.926-18.651-5.486-35.84-5.486c-35.109,0-55.223,21.577-55.223,47.543  c0,23.04,11.703,36.937,40.229,50.469c20.114,10.606,24.869,16.823,24.869,24.137c0,9.143-6.583,15.726-22.309,15.726  c-13.166,0-27.429-3.657-40.229-11.703c-1.463-1.097-2.56-0.366-2.56,1.463v29.623c0,1.463,0.366,2.56,1.463,3.291  c8.777,5.12,23.406,8.777,40.96,8.777c32.914,0,57.417-17.189,57.417-49.371C367.543,268.069,357.669,253.44,326.583,238.08z"/>
<g>
	<path id="SVGCleanerId_0_1_" style="fill:#FFFFFF;" d="M326.583,238.08c-21.211-10.971-24.869-16.091-24.869-23.406   c0-6.583,5.486-14.629,21.211-14.629c12.8,0,25.966,3.291,34.743,9.143c1.829,0.731,2.926-0.366,2.926-1.829V179.93   c0-1.463-0.366-2.926-1.829-4.023c-6.583-2.926-18.651-5.486-35.84-5.486c-35.109,0-55.223,21.577-55.223,47.543   c0,23.04,11.703,36.937,40.229,50.469c20.114,10.606,24.869,16.823,24.869,24.137c0,9.143-6.583,15.726-22.309,15.726   c-13.166,0-27.429-3.657-40.229-11.703c-1.463-1.097-2.56-0.366-2.56,1.463v29.623c0,1.463,0.366,2.56,1.463,3.291   c8.777,5.12,23.406,8.777,40.96,8.777c32.914,0,57.417-17.189,57.417-49.371C367.543,268.069,357.669,253.44,326.583,238.08z"/>
</g>
<path style="fill:#C8D8E8;" d="M119.954,125.074c12.8-0.731,31.817-1.097,51.566-1.097c52.663,0,74.606,27.429,76.8,63.634  c0-1.463,0.366-2.926,0.366-4.389c0-39.131-21.577-69.486-76.8-69.486c-19.749,0-38.766,0.366-51.566,1.097  c-1.463,0-4.389,1.097-4.389,2.56v10.24C115.566,126.171,118.491,125.074,119.954,125.074z"/>
<path style="fill:#FFFFFF;" d="M167.497,234.423c23.406,0,45.349-8.411,45.349-40.229c0-1.463-0.366-2.56-0.366-4.023  c-2.56,26.697-23.406,34.011-44.983,34.011c-8.046,0-11.703,0-16.091-0.366v10.24C155.794,234.423,159.451,234.423,167.497,234.423z  "/>
<g>
	<path style="fill:#C8D8E8;" d="M326.583,238.08c-15.726-8.046-21.577-13.166-23.771-17.92c-1.463-4.389-1.097-4.389-1.097-2.926   c0,7.314,3.657,19.749,24.869,31.086c28.891,13.897,39.131,27.429,40.96,46.08c0-1.463,0.366-3.291,0.366-5.12   C367.543,268.069,357.669,253.44,326.583,238.08z"/>
	<path style="fill:#C8D8E8;" d="M270.263,306.103c12.434,8.411,27.063,11.703,40.229,11.703c15.726,0,22.309-6.583,22.309-15.726   c0-1.829-0.366-3.291-1.097-5.12c-2.194,6.217-8.777,10.606-21.577,10.606c-13.166,0-27.429-3.657-40.229-11.703   c-1.463-1.097-2.56-0.366-2.56,1.463v10.24C267.703,305.737,268.8,305.006,270.263,306.103z"/>
	<path style="fill:#C8D8E8;" d="M322.926,180.297c17.189,0,29.257,2.56,35.84,5.486c1.463,1.097,1.829,2.56,1.829,4.023v-10.24   c0-1.463-0.366-2.926-1.829-4.023c-6.583-2.926-18.651-5.486-35.84-5.486c-35.109,0-55.223,21.577-55.223,47.543   c0,1.829,0.366,3.291,0.366,4.754C270.629,198.583,290.377,180.297,322.926,180.297z"/>
</g>
<g>
	<path style="fill:#33363A;" d="M234.057,468.114C104.96,468.114,0,363.154,0,234.057S104.96,0,234.057,0   s234.057,104.96,234.057,234.057S363.154,468.114,234.057,468.114z M234.057,10.971c-122.88,0-223.086,100.206-223.086,223.086   s100.206,223.086,223.086,223.086s223.086-100.206,223.086-223.086S356.937,10.971,234.057,10.971z"/>
	<path style="fill:#33363A;" d="M148.48,341.211h-30.354c-4.754,0-8.046-3.291-8.046-8.046V117.394c0-5.486,5.851-8.046,9.874-8.046   c13.166-0.731,32.549-1.097,51.566-1.097c52.297,0,82.286,27.429,82.286,74.971c0,49.006-32.549,78.263-87.406,78.263   c-4.389,0-6.949,0-9.509-0.366c-0.366,0-0.366,0-0.731,0v71.68C156.526,337.92,153.234,341.211,148.48,341.211z M121.051,330.24   h24.503V256c0-2.926,2.56-5.486,5.486-5.486c2.56,0,4.389,0,6.583,0s4.754,0.366,8.777,0.366c23.04,0,76.434-6.583,76.434-67.291   c0-29.257-12.434-64-71.314-64c-18.286,0-37.303,0.366-50.469,1.097L121.051,330.24L121.051,330.24z M167.497,230.034   c-8.046,0-11.703,0-16.823-0.366c-2.926-0.366-5.12-2.56-5.12-5.486v-77.531c0-2.926,2.194-5.486,5.12-5.486   c6.949-0.366,13.531-0.731,19.383-0.731c30.354,0,47.909,16.091,47.909,43.886c0,16.457-5.486,28.891-16.091,36.571   C193.463,226.743,182.126,230.034,167.497,230.034z M156.891,218.697c2.56,0,5.851,0,10.606,0c12.069,0,21.577-2.56,28.16-6.949   c7.68-5.486,11.703-14.629,11.703-27.429c0-21.943-12.434-32.914-36.937-32.914c-4.023,0-8.777,0-13.531,0.366L156.891,218.697   L156.891,218.697z"/>
	<path style="fill:#33363A;" d="M310.491,344.503c-17.189,0-33.28-3.291-43.52-9.143c-4.389-2.194-4.389-6.583-4.389-8.046v-29.623   c0-4.389,2.56-6.217,3.657-6.949c2.194-1.097,5.12-0.731,7.314,0.731c10.606,6.949,23.771,10.971,36.937,10.971   c11.337,0,16.823-3.291,16.823-10.24c0-2.926,0-8.046-21.943-19.383c-30.72-14.629-43.154-30.72-43.154-55.589   c0-31.086,24.869-53.029,60.709-53.029c15.726,0,29.257,2.194,38.034,6.217c0.366,0,0.366,0.366,0.731,0.366   c2.926,1.829,4.754,4.754,4.754,8.777v27.429c0,2.56-1.097,4.754-2.926,6.217c-1.097,0.731-3.657,2.194-6.949,1.097   c-0.366,0-1.097-0.366-1.463-0.731c-8.046-5.12-19.749-8.046-31.817-8.046c-11.703,0-15.726,4.754-15.726,9.143   c0,3.291,0,6.949,21.577,18.286c31.817,15.36,44.251,31.451,44.251,56.32C373.029,322.926,348.526,344.503,310.491,344.503z    M273.189,326.217c8.411,4.389,22.309,7.314,36.937,7.314c24.869,0,51.931-11.703,51.931-43.886   c0-17.189-6.217-31.086-38.034-46.446l0,0c-21.577-11.337-27.794-17.554-27.794-28.16c0-9.874,8.411-20.114,26.697-20.114   c11.337,0,23.04,2.56,32.183,6.949v-21.577c-4.389-1.829-14.263-4.754-32.183-4.754c-29.623,0-49.737,16.823-49.737,42.057   c0,20.114,9.874,32.549,36.937,45.714c20.48,10.606,27.794,18.286,27.794,28.891c0,5.12-1.829,21.211-27.794,21.211   c-12.8,0-25.6-3.291-36.937-9.143L273.189,326.217L273.189,326.217z"/>
</g>
<g>
</g>
<g>
</g>
<g>
</g>
<g>
</g>
<g>
</g>
<g>
</g>
<g>
</g>
<g>
</g>
<g>
</g>
<g>
</g>
<g>
</g>
<g>
</g>
<g>
</g>
<g>
</g>
<g>
</g>
</svg>
