<?xml version="1.0" encoding="iso-8859-1"?>
<!-- Generator: Adobe Illustrator 19.0.0, SVG Export Plug-In . SVG Version: 6.00 Build 0)  -->
<svg xmlns="http://www.w3.org/2000/svg" xmlns:xlink="http://www.w3.org/1999/xlink" version="1.1" id="Capa_1" x="0px" y="0px" viewBox="0 0 466.651 466.651" style="enable-background:new 0 0 466.651 466.651;" xml:space="preserve">
<rect x="89.97" y="200.229" style="fill:#FFFFFF;" width="261.49" height="188.34"/>
<path style="fill:#F8571D;" d="M406.309,174.628c-13.166,0-25.234,4.754-34.377,12.069c-33.28-20.846-75.703-33.28-121.051-35.84  l23.771-74.24l65.097,15.36c1.829,23.406,21.577,42.057,45.714,42.057c25.234,0,45.714-20.48,45.714-45.349  s-20.48-45.349-45.714-45.349c-17.554,0-32.914,9.874-40.594,24.503l-75.703-17.554c-6.217-1.463-12.8,2.194-14.629,8.411  l-29.257,92.16c-49.006,1.097-95.086,13.897-130.926,35.84c-9.143-7.314-20.846-11.703-33.646-11.703  c-30.354,0-54.857,24.503-54.857,54.126c0,18.651,9.509,34.743,23.771,44.617c-0.731,4.389-1.097,8.777-1.097,13.166  c0,37.303,21.943,72.046,61.806,98.011c38.034,24.869,88.869,38.4,142.263,38.4c53.76,0,104.229-13.531,142.263-38.4  c39.863-25.6,61.806-60.709,61.806-98.011c0-4.023-0.366-8.046-0.731-12.069c15.36-9.509,25.234-26.697,25.234-45.714  C461.166,199.131,436.663,174.628,406.309,174.628z M385.097,67.839c11.703,0,20.846,9.143,20.846,20.846  c0,11.337-9.509,20.846-20.846,20.846c-11.703,0-20.846-9.143-20.846-20.846C364.251,77.348,373.76,67.839,385.097,67.839z   M134.583,262.765c0-16.823,14.263-31.086,31.451-31.086c17.189,0,30.72,14.263,30.72,31.086s-13.897,30.72-30.72,30.72  C148.846,293.119,134.583,279.588,134.583,262.765z M308.297,352.365c-15.726,15.726-40.229,23.406-74.606,23.406c0,0,0,0-0.366,0  c0,0,0,0-0.366,0c-34.377,0-58.88-7.68-74.606-23.406c-4.754-4.754-4.754-12.8,0-17.554s12.8-4.754,17.554,0  c10.971,10.971,29.623,16.091,57.051,16.091c0,0,0,0,0.366,0c0,0,0,0,0.366,0c27.429,0,46.08-5.12,57.051-16.091  c4.754-4.754,12.8-4.754,17.554,0C313.051,339.93,313.051,347.61,308.297,352.365z M300.983,293.119  c-17.189,0-31.451-13.531-31.451-30.72c0-16.823,14.263-31.086,31.451-31.086c17.189,0,30.72,14.263,30.72,31.086  C332.069,279.588,318.171,293.119,300.983,293.119z"/>
<path style="fill:#F7851E;" d="M406.309,174.628c-13.166,0-25.234,4.754-34.377,12.069c-33.28-20.846-75.703-33.28-121.051-35.84  l23.771-74.24l65.097,15.36c1.829,23.406,21.577,42.057,45.714,42.057c25.234,0,45.714-20.48,45.714-45.349  s-20.48-45.349-45.714-45.349c-17.554,0-32.914,9.874-40.594,24.503l-75.703-17.554c-6.217-1.463-12.8,2.194-14.629,8.411  l-29.257,92.16c-49.006,1.097-95.086,13.897-130.926,35.84c-9.143-7.314-20.846-11.703-33.646-11.703  c-30.354,0-54.857,24.503-54.857,54.126c0,18.651,9.509,34.743,23.771,44.617c0,0.366,0,0.731,0,0.731  c43.154,24.503,118.491,40.594,204.069,40.594c94.72,0,172.617-20.114,212.846-48.64c9.143-9.874,14.994-22.674,14.994-37.303  C461.166,199.131,436.663,174.628,406.309,174.628z M385.097,67.839c11.703,0,20.846,9.143,20.846,20.846  c0,11.337-9.509,20.846-20.846,20.846c-11.703,0-20.846-9.143-20.846-20.846C364.251,77.348,373.76,67.839,385.097,67.839z   M166.034,293.119c-17.189,0-31.451-13.531-31.451-30.72c0-16.823,14.263-31.086,31.451-31.086c17.189,0,30.72,14.263,30.72,31.086  C196.754,279.588,182.857,293.119,166.034,293.119z M300.983,293.119c-17.189,0-31.451-13.531-31.451-30.72  c0-16.823,14.263-31.086,31.451-31.086c17.189,0,30.72,14.263,30.72,31.086C332.069,279.588,318.171,293.119,300.983,293.119z"/>
<path style="fill:#33363A;" d="M232.229,428.433c-54.491,0-106.423-13.897-145.189-39.131  c-41.326-26.697-64.366-63.269-64.366-102.4c0-3.657,0.366-6.949,0.731-10.606C8.777,264.959,0,247.77,0,229.119  c0-32.914,27.063-59.611,60.343-59.611c12.069,0,23.771,3.657,34.011,10.606c35.109-20.48,79.726-32.914,126.537-34.377  l28.16-88.503c2.926-8.777,12.069-13.897,21.211-12.069l71.68,16.823c9.509-14.629,25.6-23.771,43.52-23.771  c28.16,0,51.2,22.674,51.2,50.834s-23.04,50.834-51.2,50.834c-25.234,0-46.811-18.651-50.834-43.154l-56.32-13.166l-20.114,62.903  c42.423,3.291,81.554,15.36,113.371,34.377c10.24-7.314,22.309-10.971,34.743-10.971c33.28,0,60.343,26.697,60.343,59.611  c0,19.383-9.143,37.303-25.234,48.64c0.366,3.291,0.366,6.217,0.366,9.143c0,39.497-22.674,75.703-64.366,102.4  C338.651,414.536,287.086,428.433,232.229,428.433z M60.343,180.113c-27.063,0-49.371,21.943-49.371,48.64  c0,16.091,8.046,31.086,21.211,40.229c1.829,1.097,2.56,3.291,2.194,5.12c-0.731,4.023-0.731,8.046-0.731,12.434  c0,35.474,21.211,68.754,59.246,93.257c37.303,24.137,86.674,37.303,139.337,37.303s102.034-13.166,139.337-37.303  c38.4-24.869,59.246-57.783,59.246-93.257c0-3.657-0.366-7.314-0.731-11.337c-0.366-2.194,0.731-4.023,2.56-5.486  c14.263-9.143,23.04-24.503,23.04-40.96c0-27.063-21.943-48.64-49.371-48.64c-11.337,0-22.309,4.023-31.086,10.971  c-1.829,1.463-4.389,1.463-6.217,0.366c-32.914-20.48-73.874-32.549-118.491-35.109c-1.829,0-3.291-1.097-4.023-2.194  c-1.097-1.463-1.097-3.291-0.731-4.754l23.771-74.24c0.731-2.56,3.657-4.389,6.583-3.657l65.097,15.36  c2.194,0.366,4.023,2.56,4.389,5.12c1.463,20.846,19.017,36.937,40.229,36.937c22.309,0,40.229-17.92,40.229-39.863  s-17.92-39.863-40.229-39.863c-14.994,0-28.891,8.411-35.84,21.577c-1.097,2.194-3.657,3.291-6.217,2.926l-75.703-17.554  c-3.657-0.731-7.314,1.097-8.411,4.754l-29.257,92.16c-0.731,2.194-2.926,3.657-5.12,3.657c-47.909,1.097-93.257,13.531-128,35.109  c-1.829,1.097-4.389,1.097-6.217-0.366C81.92,183.77,71.314,180.113,60.343,180.113z M233.691,381.256h-0.366  c-35.84,0-61.806-8.046-78.629-24.869c-3.291-3.291-5.12-7.68-5.12-12.8c0-4.754,1.829-9.143,5.12-12.434  c6.949-6.949,18.286-6.949,25.234,0c9.874,9.874,27.429,14.629,53.394,14.629h0.366c25.966,0,43.52-4.754,53.394-14.629  c6.949-6.949,18.286-6.949,25.234,0c3.291,3.291,5.12,8.046,5.12,12.8s-1.829,9.143-5.12,12.434l0,0  C295.131,373.21,269.531,381.256,233.691,381.256z M167.131,337.005c-1.829,0-3.657,0.731-4.754,2.194  c-1.463,1.463-2.194,2.926-2.194,4.754c0,1.829,0.731,3.657,2.194,4.754c14.629,14.629,38.034,21.577,70.583,21.577  c0.366,0,0.731,0,0.731,0c32.914,0,55.954-7.314,70.583-21.577c1.463-1.463,2.194-2.926,2.194-4.754  c0-1.829-0.731-3.657-2.194-4.754c-2.56-2.56-7.314-2.56-9.874,0c-12.069,12.069-32.183,17.554-61.074,17.554h-0.731l0,0  c-28.891,0-48.64-5.851-60.709-17.554C170.789,337.736,168.96,337.005,167.131,337.005z M300.983,298.605  c-20.48,0-36.937-16.091-36.937-36.206c0-19.749,16.823-36.571,36.937-36.571s36.206,16.457,36.206,36.571  C337.554,282.513,321.097,298.605,300.983,298.605z M300.983,237.165c-13.897,0-25.966,11.703-25.966,25.6  c0,13.531,11.703,25.234,25.966,25.234c13.897,0,25.234-11.337,25.234-25.234C326.583,248.502,315.246,237.165,300.983,237.165z   M166.034,298.605c-9.509,0-19.017-3.657-25.966-10.606c-6.949-6.949-10.971-16.091-10.971-25.6  c0-19.749,16.823-36.571,36.937-36.571s36.206,16.457,36.206,36.571S186.149,298.605,166.034,298.605L166.034,298.605z   M166.034,237.165c-13.897,0-25.966,11.703-25.966,25.6c0,6.583,2.56,12.8,7.68,17.554c4.754,4.754,11.337,7.314,18.286,7.314l0,0  c13.897,0,25.234-11.337,25.234-25.234S179.931,237.165,166.034,237.165z M385.097,115.016c-14.629,0-26.331-11.703-26.331-26.331  s11.703-26.331,26.331-26.331s26.331,11.703,26.331,26.331S399.726,115.016,385.097,115.016z M385.097,73.325  c-8.411,0-15.36,6.949-15.36,15.36s6.949,15.36,15.36,15.36c8.411,0,15.36-6.949,15.36-15.36S393.874,73.325,385.097,73.325z"/>
<g>
	<path style="fill:#FCE2AE;" d="M103.131,217.416c-1.829,0-3.657-1.097-4.754-2.56c-1.463-2.56-0.731-5.851,1.829-7.68   c36.571-22.309,83.749-35.474,133.486-36.571c2.926,0,5.486,2.194,5.486,5.486c0,2.926-2.194,5.486-5.486,5.486   c-47.909,1.097-93.257,13.531-128,35.109C104.96,217.05,103.863,217.416,103.131,217.416z"/>
	<path style="fill:#FCE2AE;" d="M265.509,181.942h-9.874c-2.926,0-5.486-2.56-5.486-5.486s2.56-5.486,5.486-5.486h9.874   c2.926,0,5.486,2.56,5.486,5.486C270.994,179.382,268.434,181.942,265.509,181.942z"/>
</g>
<g>
</g>
<g>
</g>
<g>
</g>
<g>
</g>
<g>
</g>
<g>
</g>
<g>
</g>
<g>
</g>
<g>
</g>
<g>
</g>
<g>
</g>
<g>
</g>
<g>
</g>
<g>
</g>
<g>
</g>
</svg>
