<?xml version="1.0" encoding="iso-8859-1"?>
<!-- Generator: Adobe Illustrator 19.0.0, SVG Export Plug-In . SVG Version: 6.00 Build 0)  -->
<svg xmlns="http://www.w3.org/2000/svg" xmlns:xlink="http://www.w3.org/1999/xlink" version="1.1" id="Capa_1" x="0px" y="0px" viewBox="0 0 460.434 460.434" style="enable-background:new 0 0 460.434 460.434;" xml:space="preserve">
<path style="fill:#FA9826;" d="M70.2,326.583c-35.474,0-64,28.891-64,64c0,35.474,28.891,64,64,64c35.474,0,64-28.891,64-64  S105.308,326.583,70.2,326.583z"/>
<g>
	<path style="fill:#EF8114;" d="M5.834,155.429v85.577c117.76,0,213.943,95.817,213.943,213.577h85.577   C305.354,290.011,171.137,155.429,5.834,155.429z"/>
	<path style="fill:#EF8114;" d="M5.834,5.851v85.577c200.411,0,363.52,163.109,363.52,363.52h85.577   C454.931,207.36,253.423,5.851,5.834,5.851z"/>
</g>
<g>
	<path style="fill:#FA9826;" d="M70.2,326.583c-35.474,0-64,28.891-64,64c0,35.474,28.891,64,64,64c35.474,0,64-28.891,64-64   S105.308,326.583,70.2,326.583z"/>
	<path style="fill:#FA9826;" d="M5.834,155.429v85.577c109.714,0,200.411,83.383,212.48,189.806   c29.257-8.411,56.686-19.383,81.554-32.549C273.537,260.389,151.754,155.429,5.834,155.429z"/>
	<path style="fill:#FA9826;" d="M70.2,326.583c-35.474,0-64,28.891-64,64c0,20.48,9.874,38.766,24.869,50.469   c34.743-12.434,69.486-30.354,103.497-53.394C132.737,353.646,104.577,326.583,70.2,326.583z"/>
	<path style="fill:#FA9826;" d="M5.834,155.429v85.577c77.531,0,145.554,41.691,183.223,103.497   c7.314-6.583,14.629-13.166,21.577-20.114c13.897-13.897,27.063-28.526,38.766-43.154   C195.274,205.166,106.405,155.429,5.834,155.429z"/>
	<path style="fill:#FA9826;" d="M5.834,5.851v85.577c113.737,0,215.406,52.663,282.331,134.583   c16.823-27.429,29.989-55.589,39.863-83.383C246.474,58.514,132.371,5.851,5.834,5.851z"/>
</g>
<g>
	<path style="fill:#F9BD28;" d="M100.188,334.263c-9.143-4.754-19.383-7.68-29.989-7.68c-35.474,0-64,28.891-64,64   c0,12.434,3.657,23.771,9.509,33.646C47.891,403.017,76.783,372.297,100.188,334.263z"/>
	<path style="fill:#F9BD28;" d="M154.314,194.926C110.428,169.691,59.96,155.429,6.2,155.429v85.577   c45.349,0,87.406,14.263,122.149,38.4C138.954,253.44,147.731,224.914,154.314,194.926z"/>
	<path style="fill:#F9BD28;" d="M5.834,91.429c56.686,0,110.08,12.8,157.623,36.206c1.097-13.531,1.463-27.429,1.463-41.326   c0-17.554-0.731-35.109-2.56-51.931C113.354,16.091,60.691,6.217,5.468,6.217v85.211L5.834,91.429L5.834,91.429z"/>
</g>
<g>
	<path style="fill:#33363A;" d="M70.2,460.434c-38.4,0-69.486-31.086-69.486-69.486S31.8,321.463,70.2,321.463   s69.486,31.086,69.486,69.486C139.685,428.983,108.6,460.434,70.2,460.434z M70.2,332.069c-32.183,0-58.514,26.331-58.514,58.514   s26.331,58.514,58.514,58.514s58.514-26.331,58.514-58.514S102.383,332.069,70.2,332.069z"/>
	<path style="fill:#33363A;" d="M305.354,460.434h-85.577c-2.926,0-5.486-2.56-5.486-5.486   c0-114.834-93.257-208.091-208.457-208.091c-2.926,0-5.486-2.56-5.486-5.486v-85.577c0-2.926,2.56-5.486,5.486-5.486   c167.863,0,304.64,136.777,304.64,304.64C310.84,457.874,308.28,460.434,305.354,460.434z M225.263,449.463h74.606   C296.943,291.84,169.308,164.206,11.685,161.28v74.606C127.983,238.446,222.337,332.8,225.263,449.463z"/>
	<path style="fill:#33363A;" d="M454.931,460.434h-85.577c-2.926,0-5.486-2.56-5.486-5.486   c0-197.486-160.549-358.034-358.034-358.034c-2.926,0-5.486-2.56-5.486-5.486V5.851c0-2.926,2.56-5.486,5.486-5.486   c250.514,0,454.217,203.703,454.217,454.217C460.417,457.874,457.857,460.434,454.931,460.434z M374.84,449.463h74.606   C446.52,209.189,251.594,14.629,11.685,11.703v74.606C210.634,88.869,371.914,250.149,374.84,449.463z"/>
	<path style="fill:#33363A;" d="M70.2,460.434c-38.4,0-69.486-31.086-69.486-69.486S31.8,321.463,70.2,321.463   s69.486,31.086,69.486,69.486C139.685,428.983,108.6,460.434,70.2,460.434z M70.2,332.069c-32.183,0-58.514,26.331-58.514,58.514   s26.331,58.514,58.514,58.514s58.514-26.331,58.514-58.514S102.383,332.069,70.2,332.069z"/>
	<path style="fill:#33363A;" d="M218.314,436.663c-2.926,0-5.12-2.194-5.486-4.754C201.125,326.217,112.257,246.857,5.834,246.857   c-2.926,0-5.486-2.56-5.486-5.486v-85.577c0-2.926,2.56-5.486,5.486-5.486c145.92,0,271.726,103.863,299.154,247.223   c0.731,2.926-1.463,5.851-4.389,6.583c-2.926,0.731-5.851-1.463-6.583-4.389C268.051,263.314,149.56,163.84,10.954,161.28v74.606   c109.349,2.56,200.411,85.577,212.48,194.926c0.366,2.926-1.829,5.851-4.754,6.217C218.68,436.663,218.68,436.663,218.314,436.663z   "/>
	<path style="fill:#33363A;" d="M356.92,366.811c-2.56,0-4.754-1.463-5.12-4.023C310.108,206.263,167.845,97.28,6.2,97.28   c-2.926,0-5.486-2.56-5.486-5.486V6.217c0-2.926,2.56-5.486,5.486-5.486c91.794,0,180.297,27.429,256,79.36   c73.874,50.469,130.926,121.051,164.571,203.703c1.097,2.926-0.366,5.851-2.926,7.314c-2.926,1.097-5.851-0.366-7.314-2.926   C348.508,122.149,190.154,14.263,11.32,12.069v74.606c164.571,2.56,308.297,114.469,350.72,273.554   c0.731,2.926-1.097,5.851-4.023,6.583C358.017,366.446,357.651,366.811,356.92,366.811z"/>
	<path style="fill:#33363A;" d="M30.703,446.903c-1.097,0-2.194-0.366-3.291-1.097c-17.189-13.166-27.063-33.28-27.063-54.857   c0-38.4,31.086-69.486,69.486-69.486c37.303,0,68.023,29.257,69.486,66.56c0,2.926-2.194,5.486-5.12,5.851   c-2.926,0-5.486-2.194-5.851-5.12c-1.463-31.451-27.063-55.954-58.514-55.954c-32.183,0-58.514,26.331-58.514,58.514   c0,18.286,8.411,35.109,22.674,46.08c2.56,1.829,2.926,5.486,1.097,7.68C33.994,446.171,32.531,446.903,30.703,446.903z"/>
	<path style="fill:#33363A;" d="M189.057,350.354c-1.829,0-3.657-1.097-4.754-2.56C146.634,285.623,78.245,246.857,5.834,246.857   c-2.926,0-5.486-2.56-5.486-5.486v-85.577c0-2.926,2.56-5.486,5.486-5.486c98.011,0,190.537,47.909,247.954,128   c1.829,2.56,1.097,5.851-1.097,7.68c-2.56,1.829-5.851,1.097-7.68-1.097C190.885,209.189,103.845,163.474,11.32,161.646v74.606   c74.24,1.829,143.726,42.057,182.491,106.057c1.463,2.56,0.731,5.851-1.829,7.68C190.885,349.989,190.154,350.354,189.057,350.354z   "/>
	<path style="fill:#33363A;" d="M288.165,231.497c-1.463,0-3.291-0.731-4.389-2.194C215.388,144.823,114.085,96.549,5.834,96.549   c-2.926,0-5.486-2.56-5.486-5.486V5.486C0.348,2.56,2.908,0,5.834,0c123.611,0,239.543,49.006,326.217,138.24   c2.194,2.194,2.194,5.486,0,7.68s-5.486,2.194-7.68,0C241.354,59.977,130.543,12.434,11.685,10.971v74.606   c109.349,1.463,211.383,51.2,280.869,136.777c1.829,2.194,1.463,5.851-0.731,7.68C290.725,231.131,289.263,231.497,288.165,231.497   z"/>
	<path style="fill:#33363A;" d="M15.343,429.714c-1.829,0-3.657-1.097-4.754-2.56c-6.949-10.971-10.24-23.771-10.24-36.571   c0-38.4,31.086-69.486,69.486-69.486c11.337,0,22.674,2.926,32.914,8.046c2.56,1.463,3.657,4.754,2.194,7.314   s-4.754,3.657-7.314,2.194c-8.411-4.389-17.92-6.949-27.429-6.949c-32.183,0-58.514,26.331-58.514,58.514   c0,10.606,2.926,21.211,8.777,30.72c1.463,2.56,0.731,5.851-1.829,7.68C17.537,429.349,16.44,429.714,15.343,429.714z"/>
	<path style="fill:#33363A;" d="M127.983,285.257c-1.097,0-2.194-0.366-3.291-1.097c-35.109-24.503-76.434-37.669-118.857-37.669   c-2.926,0-5.486-2.56-5.486-5.486v-85.577c0-2.926,2.56-5.486,5.486-5.486c53.029,0,104.96,13.897,151.04,40.229   c2.56,1.463,3.657,4.754,2.194,7.314s-4.754,3.657-7.314,2.194c-42.789-24.503-91.063-37.669-140.069-38.766v74.606   c43.154,1.097,84.48,14.629,119.954,39.497c2.56,1.829,2.926,5.12,1.463,7.68C131.64,284.16,129.811,285.257,127.983,285.257z"/>
	<path style="fill:#33363A;" d="M163.823,133.12c-0.731,0-1.463,0-2.56-0.731C112.623,108.983,60.325,96.914,5.834,96.914   c-2.926,0-5.486-2.56-5.486-5.486V5.851c0-2.926,2.56-5.486,5.486-5.486c54.491,0,107.886,9.509,158.72,28.526   c2.926,1.097,4.389,4.389,3.291,6.949c-1.097,2.926-4.389,4.389-6.949,3.291C112.988,21.211,62.885,11.703,11.32,11.337v74.606   c54.126,0.731,106.057,13.166,154.697,36.571c2.56,1.463,4.023,4.754,2.56,7.314C167.845,132.023,165.651,133.12,163.823,133.12z"/>
</g>
<g>
</g>
<g>
</g>
<g>
</g>
<g>
</g>
<g>
</g>
<g>
</g>
<g>
</g>
<g>
</g>
<g>
</g>
<g>
</g>
<g>
</g>
<g>
</g>
<g>
</g>
<g>
</g>
<g>
</g>
</svg>
