<?xml version="1.0" encoding="iso-8859-1"?>
<!-- Generator: Adobe Illustrator 19.0.0, SVG Export Plug-In . SVG Version: 6.00 Build 0)  -->
<svg xmlns="http://www.w3.org/2000/svg" xmlns:xlink="http://www.w3.org/1999/xlink" version="1.1" id="Capa_1" x="0px" y="0px" viewBox="0 0 470.354 470.354" style="enable-background:new 0 0 470.354 470.354;" xml:space="preserve">
<g>
	<path style="fill:#33363A;" d="M24.869,400.298H5.486c-2.926,0-5.486-2.56-5.486-5.486s2.56-5.486,5.486-5.486h19.383   c2.926,0,5.486,2.56,5.486,5.486S28.16,400.298,24.869,400.298z"/>
	<path style="fill:#33363A;" d="M113.371,400.298H62.537c-2.926,0-5.486-2.56-5.486-5.486s2.56-5.486,5.486-5.486h50.834   c2.926,0,5.486,2.56,5.486,5.486S116.297,400.298,113.371,400.298z"/>
	<path style="fill:#33363A;" d="M45.714,400.298h-3.657c-2.926,0-5.486-2.56-5.486-5.486s2.56-5.486,5.486-5.486h3.657   c2.926,0,5.486,2.56,5.486,5.486S49.006,400.298,45.714,400.298z"/>
</g>
<rect x="146.65" y="146.13" style="fill:#E6EFE8;" width="190.54" height="243.93"/>
<path style="fill:#FFFFFF;" d="M275.383,238.286c0,0-13.531-7.314-29.989-7.314c-24.137,0-25.6,15.36-25.6,19.017  c0,21.211,54.491,29.257,54.491,78.263c0,38.766-24.503,63.634-57.417,63.634c-39.497,0-59.977-24.869-59.977-24.869l10.606-35.109  c0,0,20.846,17.92,38.4,17.92c11.337,0,16.091-9.143,16.091-15.726c0-27.429-44.617-28.526-44.617-73.874  c0-38.034,27.063-74.606,81.92-74.606c21.211,0,31.451,6.217,31.451,6.217L275.383,238.286z"/>
<path style="fill:#95C675;" d="M416.914,107.726c-1.463,0-32.549-2.56-32.549-2.56s-21.577-21.577-24.137-23.771  c-2.194-2.56-6.949-1.829-8.777-1.097c-0.366,0-4.754,1.463-12.069,3.657c-7.314-20.846-20.114-39.863-42.423-39.863  c-0.731,0-1.097,0-1.829,0c-6.217-8.411-14.263-12.069-21.211-12.069c-52.297,0-77.166,65.463-84.846,98.743  c-20.114,6.217-34.743,10.971-36.571,11.337c-11.337,3.657-11.703,4.023-13.166,14.629c-1.097,8.046-30.72,238.08-30.72,238.08  l230.766,43.52l125.074-27.063c0,0-43.886-298.057-44.251-300.251C420.206,108.823,418.377,107.726,416.914,107.726z   M293.669,96.023c0,0.731,0,1.463,0,2.194c-12.8,4.023-26.331,8.411-40.229,12.434c7.68-29.989,22.309-44.617,35.109-50.103  C291.474,68.595,293.669,80.298,293.669,96.023z M272.823,45.92c2.194,0,4.389,0.731,6.583,2.194  c-16.823,8.046-34.743,27.794-42.057,67.657c-10.971,3.291-21.943,6.949-31.817,9.874C214.309,95.292,235.154,45.92,272.823,45.92z   M281.6,222.926c0,0-13.531-7.314-29.989-7.314c-24.137,0-25.6,15.36-25.6,19.017c0,21.211,54.491,29.257,54.491,78.263  c0,38.766-24.503,63.634-57.417,63.634c-39.497,0-59.977-24.869-59.977-24.869l10.606-35.109c0,0,20.846,17.92,38.4,17.92  c11.337,0,16.091-9.143,16.091-15.726c0-27.429-44.617-28.526-44.617-73.874c0-38.034,27.063-74.606,81.92-74.606  c21.211,0,31.451,6.217,31.451,6.217L281.6,222.926z M307.2,93.829c0-1.463,0-2.926,0-4.389c0-12.8-1.829-23.406-4.754-31.817  c11.703,1.463,19.383,14.629,24.137,29.989C321.097,89.806,314.514,91.635,307.2,93.829z"/>
<path style="fill:#79B259;" d="M108.983,394.812l230.766,43.52l125.074-27.063c0,0-43.886-298.057-44.251-300.251  c-0.366-2.194-2.194-3.291-3.657-3.291s-32.549-2.56-32.549-2.56s-21.577-21.577-24.137-23.771c-2.194-2.56-6.949-1.829-8.777-1.097  c-0.366,0-4.754,1.463-12.069,3.657c-7.314-20.846-20.114-39.863-42.423-39.863c-0.731,0-1.097,0-1.829,0  c-6.217-8.411-14.263-12.069-21.211-12.069c-52.297,0-65.097,65.463-72.777,98.743 M293.669,96.023c0,0.731,0,1.463,0,2.194  c-12.8,4.023-26.331,8.411-40.229,12.434c7.68-29.989,22.309-44.617,35.109-50.103C291.474,68.595,293.669,80.298,293.669,96.023z   M272.823,45.92c2.194,0,4.389,0.731,6.583,2.194c-16.823,8.046-34.743,27.794-42.057,67.657  c-10.971,3.291-21.943,6.949-31.817,9.874C214.309,95.292,235.154,45.92,272.823,45.92z M281.6,222.926  c0,0-13.531-7.314-29.989-7.314c-24.137,0-25.6,15.36-25.6,19.017c0,21.211,54.491,29.257,54.491,78.263  c0,38.766-24.503,63.634-57.417,63.634c-39.497,0-59.977-24.869-59.977-24.869l10.606-35.109c0,0,20.846,17.92,38.4,17.92  c11.337,0,16.091-9.143,16.091-15.726c0-27.429-44.617-28.526-44.617-73.874c0-38.034,27.063-74.606,81.92-74.606  c21.211,0,31.451,6.217,31.451,6.217L281.6,222.926z M307.2,93.829c0-1.463,0-2.926,0-4.389c0-12.8-1.829-23.406-4.754-31.817  c11.703,1.463,19.383,14.629,24.137,29.989C321.097,89.806,314.514,91.635,307.2,93.829z"/>
<path style="fill:#55932C;" d="M339.749,438.332l125.074-27.063c0,0-43.886-298.057-44.251-300.251  c-0.366-2.194-2.194-3.291-3.657-3.291s-32.549-2.56-32.549-2.56s-21.577-21.577-24.137-23.771c-1.097-1.097-3.291-1.463-5.12-1.463  c-4.754,8.046-3.657,23.406-3.657,23.406l-14.629,334.629L339.749,438.332z"/>
<g>
	<path style="fill:#33363A;" d="M297.326,43.726c-0.731,0-1.097,0-1.829,0c-6.217-8.411-14.263-12.069-21.211-12.069   c-51.931,0-76.8,65.097-84.846,98.377l16.091-5.12c8.777-30.354,29.989-79.36,67.291-79.36c2.194,0,4.389,0.731,6.583,2.194   c-16.823,8.046-34.377,27.794-42.057,67.291l16.091-5.12c7.68-29.989,22.309-44.251,35.109-49.737   c3.291,8.046,5.12,19.749,5.12,35.474c0,0.731,0,1.463,0,2.194l13.531-4.389c0-1.463,0-2.56,0-4.023   c0-12.8-1.829-23.406-4.754-31.817c11.337,1.463,19.017,14.629,24.137,29.623l12.8-4.023   C332.069,63.109,319.634,43.726,297.326,43.726z"/>
	<path style="fill:#33363A;" d="M189.44,135.886c-1.463,0-2.56-0.366-3.657-1.463c-1.463-1.463-2.194-3.291-1.463-5.12   c4.023-17.189,27.429-102.766,89.966-102.766c8.411,0,17.189,4.389,23.771,12.069c14.629,0.366,34.377,8.046,46.811,43.52   c0.366,1.463,0.366,2.926-0.366,4.389s-1.829,2.194-3.291,2.926l-12.8,4.023c-2.926,0.731-5.851-0.731-6.949-3.657   c-2.926-9.143-6.583-16.091-10.606-20.48c1.097,6.217,1.829,13.166,1.829,20.846v4.023c0,2.56-1.463,4.389-4.023,5.12   l-13.531,4.389c-1.829,0.366-3.657,0.366-4.754-0.731c-1.463-1.097-2.194-2.56-2.194-4.389v-2.194   c0-10.606-1.097-20.114-2.926-27.429c-8.411,5.486-19.749,17.554-26.331,43.154c-0.366,1.829-1.829,3.291-3.657,4.023l-16.091,5.12   c-1.829,0.731-4.023,0-5.12-1.097c-1.463-1.463-2.194-3.291-1.829-5.12c6.217-32.914,19.383-51.2,30.72-61.44   c-29.623,8.411-46.08,53.394-51.931,73.874c-0.366,1.829-1.829,3.291-3.657,3.657l-16.091,5.12   C190.537,135.52,189.806,135.886,189.44,135.886z M274.286,37.143c-47.177,0-69.486,58.88-76.8,84.846l4.023-1.097   c8.046-26.331,29.989-80.457,71.68-80.457c3.291,0,6.583,1.097,9.874,3.291c1.463,1.097,2.56,2.926,2.194,5.12   s-1.463,3.657-3.291,4.389c-10.24,4.754-27.794,18.286-36.937,54.126l4.023-1.097c9.509-34.011,27.429-46.446,37.303-50.469   c1.463-0.731,2.926-0.731,4.389,0s2.56,1.829,2.926,2.926c3.291,8.411,5.12,19.017,5.486,31.817l2.926-0.731   c0-11.337-1.463-21.577-4.389-29.989c-0.731-1.829-0.366-3.657,1.097-5.12c1.097-1.463,2.926-2.194,5.12-1.829   c11.337,1.463,20.114,10.971,26.697,28.16l2.194-0.731c-8.411-21.211-20.846-31.817-36.571-30.72c-1.829,0-3.657-0.731-4.754-2.194   C285.989,40.8,280.137,37.143,274.286,37.143z"/>
</g>
<path style="fill:#4C822A;" d="M389.486,105.532c-3.291-0.366-5.12-0.366-5.12-0.366s-21.577-21.577-24.137-23.771  c-1.097-1.097-3.291-1.463-4.754-1.463c-4.754,8.046-3.657,23.406-3.657,23.406l-14.629,334.629l2.56,0.366l66.56-14.629  L389.486,105.532z"/>
<path style="fill:#33363A;" d="M339.749,443.818c-0.366,0-0.731,0-1.097,0l-230.766-43.52c-2.926-0.366-4.754-3.291-4.389-6.217  c1.097-9.509,29.623-230.034,30.72-238.08c1.829-12.8,3.657-14.994,16.823-19.017c1.829-0.366,14.994-4.754,33.646-10.606  c5.851-22.309,29.623-99.84,89.6-99.84c8.411,0,17.189,4.389,23.771,12.069c13.897,0.366,32.549,7.314,44.983,38.766h0.366  c4.023-1.097,6.583-2.194,6.583-2.194c1.463-0.366,9.143-2.56,14.263,2.56c1.829,1.829,17.554,17.554,22.674,22.309  c7.314,0.366,29.257,2.194,30.72,2.194c3.657,0.366,7.68,3.291,8.411,8.046c0.366,2.926,43.52,296.96,44.251,299.886  c0.366,2.926-1.463,5.486-4.389,6.217l-125.074,27.063C340.48,443.818,340.114,443.818,339.749,443.818z M115.2,390.423  l224.549,42.423l118.857-25.966c-5.851-39.132-40.229-273.92-43.154-293.669c-4.389-0.366-20.48-1.463-31.086-2.194  c-1.463,0-2.56-0.731-3.291-1.463c0,0-21.577-21.577-24.137-23.771c-0.366,0-2.194,0-3.291,0.366c-0.366,0-2.56,0.731-6.583,2.194  l-5.486,1.829c-2.926,0.731-5.851-0.731-6.949-3.291c-8.777-24.869-21.577-37.303-38.766-36.206c-1.829,0-3.657-0.731-4.754-2.194  c-4.754-6.217-10.971-9.874-16.823-9.874c-54.491,0-75.703,78.629-79.726,94.72c-0.366,1.829-1.829,3.291-3.657,4.023  c-20.114,6.217-34.743,10.971-36.571,11.337c-3.291,1.097-6.949,2.194-7.68,2.926c-0.731,0.731-1.097,4.389-1.463,6.949  C144.091,164.777,119.589,356.412,115.2,390.423z M223.451,382.743c-41.691,0-63.269-25.6-64-26.697  c-1.097-1.463-1.463-3.291-1.097-5.12l10.606-35.109c0.366-1.829,1.829-3.291,3.657-3.657c1.829-0.366,3.657,0,5.12,1.097  c5.486,4.754,21.943,16.457,34.743,16.457c8.411,0,10.606-6.583,10.606-10.24c0-9.143-6.217-14.263-16.091-22.674  c-12.8-10.24-28.526-23.04-28.526-51.2c0-38.766,27.429-80.091,87.406-80.091c22.309,0,33.646,6.583,34.377,6.949  c2.194,1.463,3.291,4.023,2.56,6.583l-15.36,46.08c-0.366,1.463-1.829,2.926-3.291,3.291c-1.463,0.731-3.291,0.366-4.754-0.366  c0,0-12.434-6.583-27.429-6.583c-17.554,0-20.114,8.411-20.114,13.531c0,5.486,7.68,11.337,16.457,17.92  c16.091,11.703,38.034,28.16,38.034,60.709C286.354,354.218,260.389,382.743,223.451,382.743z M169.691,350.926  c5.486,5.486,23.406,20.846,53.76,20.846c31.086,0,51.931-23.406,51.931-58.149c0-27.063-17.92-40.229-33.646-51.931  c-11.337-8.411-21.211-15.726-21.211-26.697c0-4.023,1.463-24.503,31.086-24.503c10.971,0,20.846,2.926,26.697,5.12l12.069-35.474  c-4.389-1.463-12.8-3.657-24.869-3.657c-52.663,0-76.434,34.743-76.434,69.12c0,22.674,12.434,32.914,24.503,42.789  c9.874,8.046,20.114,16.457,20.114,31.086c0,10.24-7.68,21.211-21.577,21.211c-13.166,0-27.429-8.411-35.474-14.263L169.691,350.926  z M205.531,131.132c-1.463,0-2.926-0.731-4.023-1.463c-1.463-1.463-1.829-3.657-1.463-5.486  c7.314-25.234,29.257-83.749,72.777-83.749c3.291,0,6.583,1.097,9.874,3.291c1.463,1.097,2.56,2.926,2.194,5.12  c0,1.829-1.463,3.657-3.291,4.389c-10.971,5.12-31.086,20.48-39.131,63.634c-0.366,1.829-1.829,3.657-3.657,4.389l-31.817,9.874  C206.629,131.132,205.897,131.132,205.531,131.132z M262.949,52.869c-25.6,7.314-41.326,42.057-49.006,64.366l18.651-5.851  C239.177,80.298,251.611,62.743,262.949,52.869z M253.44,116.137c-1.463,0-2.926-0.366-3.657-1.463  c-1.463-1.463-2.194-3.291-1.463-5.486c9.509-36.571,27.794-49.371,38.034-53.76c1.463-0.731,2.926-0.731,4.389,0  s2.56,1.829,2.926,2.926c3.657,9.509,5.851,21.943,5.851,37.303v2.194c0,2.56-1.463,4.389-4.023,5.12  c-12.8,4.023-26.331,8.411-40.229,12.434C254.171,116.137,253.806,116.137,253.44,116.137z M285.257,68.595  c-7.314,4.754-16.823,14.629-23.771,34.011c9.143-2.926,17.92-5.486,26.697-8.411C287.817,84.32,287.086,75.543,285.257,68.595z   M307.2,99.315c-1.097,0-2.194-0.366-3.291-1.097c-1.463-1.097-2.194-2.56-2.194-4.389V89.44c0-11.337-1.463-21.577-4.389-29.989  c-0.731-1.829-0.366-3.657,1.097-5.12c1.097-1.463,2.926-2.194,5.12-1.829c12.434,1.463,21.943,12.8,28.526,33.646  c0.366,1.463,0.366,2.926-0.366,4.389c-0.731,1.463-1.829,2.194-3.291,2.56l-19.383,6.217  C308.297,99.315,307.931,99.315,307.2,99.315z M310.857,68.96c1.097,5.486,1.463,11.337,1.829,17.554l6.949-2.194  C317.074,77.737,314.149,72.618,310.857,68.96z"/>
<g>
</g>
<g>
</g>
<g>
</g>
<g>
</g>
<g>
</g>
<g>
</g>
<g>
</g>
<g>
</g>
<g>
</g>
<g>
</g>
<g>
</g>
<g>
</g>
<g>
</g>
<g>
</g>
<g>
</g>
</svg>
