<?xml version="1.0" encoding="iso-8859-1"?>
<!-- Generator: Adobe Illustrator 19.0.0, SVG Export Plug-In . SVG Version: 6.00 Build 0)  -->
<svg xmlns="http://www.w3.org/2000/svg" xmlns:xlink="http://www.w3.org/1999/xlink" version="1.1" id="Capa_1" x="0px" y="0px" viewBox="0 0 466.286 466.286" style="enable-background:new 0 0 466.286 466.286;" xml:space="preserve">
<path style="fill:#FFFFFF;" d="M436.48,252.709c0-109.349-89.966-197.851-200.411-197.851c-11.703,0-23.04,1.097-34.377,2.926  c-17.92-10.971-39.131-17.554-61.806-17.554c-64.366,0-116.297,51.2-116.297,114.834c0,21.211,5.851,40.96,16.091,58.149  c-2.56,12.8-4.023,25.966-4.023,39.863c0,109.349,89.966,197.851,200.777,197.851c12.434,0,24.869-1.097,36.571-3.291  c16.457,8.777,35.109,13.531,54.857,13.531c64.366,0,116.297-51.2,116.297-114.834c0-18.286-4.389-35.474-12.069-50.834  C434.652,281.234,436.48,266.972,436.48,252.709z M338.469,347.063c-9.143,12.8-23.04,23.04-40.96,30.354  c-17.554,7.314-38.766,10.971-62.537,10.971c-28.891,0-53.029-5.12-71.68-14.994c-13.531-7.314-24.503-16.823-32.914-28.891  c-8.411-12.069-12.8-24.137-12.8-35.84c0-7.314,2.926-13.531,8.411-18.651c5.486-5.12,12.434-7.68,20.846-7.68  c6.949,0,12.8,2.194,17.554,6.217s8.411,9.509,11.703,16.823c3.657,8.046,7.314,14.994,11.337,20.114  c4.023,5.12,9.509,9.509,16.823,12.8s17.189,5.12,29.257,5.12c16.457,0,30.354-3.657,40.229-10.24  c9.874-6.583,14.994-14.629,14.994-24.869c0-7.68-2.56-13.897-7.68-18.651c-5.486-5.12-12.8-8.777-21.577-11.703  c-9.143-2.926-21.577-5.851-36.937-9.143c-20.846-4.389-38.4-9.509-52.663-15.36c-14.263-5.851-25.966-14.263-34.377-24.869  c-8.777-10.606-13.166-24.137-13.166-39.497c0-14.994,4.754-28.526,13.531-39.863c8.777-11.703,21.943-20.48,38.766-26.697  s36.571-9.143,58.88-9.143c17.92,0,33.646,2.194,46.811,6.217s24.503,9.509,33.28,16.091c8.777,6.949,15.36,13.897,19.383,21.577  s6.217,15.36,6.217,22.674c0,6.949-2.926,13.531-8.411,19.017c-5.486,5.486-12.434,8.411-20.48,8.411  c-7.314,0-13.166-1.829-17.189-5.486c-3.657-3.291-7.68-8.411-12.069-15.726c-5.12-9.509-10.971-16.823-17.92-21.943  c-6.583-5.12-17.92-7.68-33.646-7.68c-14.263,0-25.966,2.926-34.743,8.411c-8.411,5.486-12.434,11.703-12.434,19.017  c0,4.389,1.463,8.411,4.023,11.337c2.926,3.291,6.949,6.583,12.069,9.143c5.12,2.56,10.606,4.754,16.091,6.217  c5.486,1.463,14.994,3.657,27.794,6.583c16.091,3.291,31.086,7.314,44.251,11.337c13.531,4.023,24.869,9.509,34.377,15.36  c9.509,6.217,17.189,13.897,22.674,23.406c5.486,9.509,8.046,21.211,8.046,34.743C352.732,319.269,347.977,334.263,338.469,347.063z  "/>
<path style="fill:#C7D5E0;" d="M436.48,234.423c0-109.349-89.966-197.851-200.411-197.851c-11.703,0-23.04,1.097-34.377,2.926  c-17.92-10.971-39.131-17.554-61.806-17.554c-64.366,0-116.297,51.2-116.297,114.834c0,21.211,5.851,40.96,16.091,58.149  c-2.56,12.8-4.023,25.966-4.023,39.863c0,109.349,89.966,197.851,200.777,197.851c12.434,0,24.869-1.097,36.571-3.291  c16.457,8.777,35.109,13.531,54.857,13.531c64.366,0,116.297-51.2,116.297-114.834c0-18.286-4.389-35.474-12.069-50.834  C434.652,263.315,436.48,249.052,436.48,234.423z M338.469,329.143c-9.143,12.8-23.04,23.04-40.96,30.354  c-17.554,7.314-38.766,10.971-62.537,10.971c-28.891,0-53.029-5.12-71.68-14.994c-13.531-7.314-24.503-16.823-32.914-28.891  c-8.411-12.069-12.8-24.137-12.8-35.84c0-7.314,2.926-13.531,8.411-18.651c5.486-5.12,12.434-7.68,20.846-7.68  c6.949,0,12.8,2.194,17.554,6.217s8.411,9.509,11.703,16.823c3.657,8.046,7.314,14.994,11.337,20.114  c4.023,5.12,9.509,9.509,16.823,12.8s17.189,5.12,29.257,5.12c16.457,0,30.354-3.657,40.229-10.24  c9.874-6.583,14.994-14.629,14.994-24.868c0-7.68-2.56-13.897-7.68-18.651c-5.486-5.12-12.8-8.777-21.577-11.703  c-9.143-2.926-21.577-5.851-36.937-9.143c-20.846-4.389-38.4-9.509-52.663-15.36s-25.966-14.263-34.377-24.869  c-8.777-10.606-13.166-24.137-13.166-39.497c0-14.994,4.754-28.526,13.531-39.863c8.777-11.703,21.943-20.48,38.766-26.697  s36.571-9.143,58.88-9.143c17.92,0,33.646,2.194,46.811,6.217s24.503,9.509,33.28,16.091c8.777,6.949,15.36,13.897,19.383,21.577  s6.217,15.36,6.217,22.674c0,6.949-2.926,13.531-8.411,19.017s-12.434,8.411-20.48,8.411c-7.314,0-13.166-1.829-17.189-5.486  c-3.657-3.291-7.68-8.411-12.069-15.726c-5.12-9.509-10.971-16.823-17.92-21.943c-6.583-5.12-17.92-7.68-33.646-7.68  c-14.263,0-25.966,2.926-34.743,8.411c-8.411,5.486-12.434,11.703-12.434,19.017c0,4.389,1.463,8.411,4.023,11.337  c2.926,3.291,6.949,6.583,12.069,9.143c5.12,2.56,10.606,4.754,16.091,6.217c5.486,1.463,14.994,3.657,27.794,6.583  c16.091,3.291,31.086,7.314,44.251,11.337c13.531,4.023,24.869,9.509,34.377,15.36c9.509,6.217,17.189,13.897,22.674,23.406  c5.486,9.509,8.046,21.211,8.046,34.743C352.732,300.983,347.977,315.977,338.469,329.143z"/>
<path style="fill:#33363A;" d="M327.497,466.286c-19.383,0-38.766-4.754-55.954-13.531c-11.703,2.194-23.771,2.926-35.84,2.926  c-113.737,0-206.263-91.063-206.263-203.337c0-12.8,1.097-25.966,3.657-38.766c-10.24-17.92-15.726-38.4-15.726-58.88  c0-66.194,54.491-120.32,121.783-120.32c22.309,0,43.886,5.851,62.903,17.189c10.971-1.829,21.943-2.56,33.28-2.56  c113.737,0,206.263,91.063,206.263,203.337c0,14.263-1.463,28.16-4.389,41.691c7.68,16.091,11.703,33.646,11.703,51.566  C449.28,412.16,394.789,466.286,327.497,466.286z M272.64,441.417c0.731,0,1.829,0.366,2.56,0.731  c16.091,8.411,34.011,13.166,52.297,13.166c61.074,0,110.811-49.006,110.811-109.349c0-17.189-4.023-33.28-11.337-48.64  c-0.731-1.097-0.731-2.56-0.366-3.657c2.926-13.531,4.389-27.429,4.389-41.326c0-106.057-87.406-192.366-195.291-192.366  c-10.971,0-22.309,1.097-33.28,2.926c-1.463,0.366-2.56,0-3.657-0.731c-17.554-10.971-38.034-16.823-58.88-16.823  c-61.074,0-110.811,49.006-110.811,109.349c0,19.383,5.12,38.4,15.36,55.223c0.731,1.097,1.097,2.56,0.731,4.023  c-2.56,12.8-4.023,25.6-4.023,38.766c0,106.057,87.406,192.366,195.291,192.366c12.069,0,24.137-1.097,35.84-3.291  C271.909,441.417,272.275,441.417,272.64,441.417z M235.337,393.874c-29.623,0-54.857-5.12-74.24-15.36  c-14.263-7.68-25.966-17.92-35.109-30.72c-9.143-13.166-13.897-25.966-13.897-38.766c0-8.777,3.657-16.457,10.24-22.674  c6.583-6.217,14.994-9.143,24.869-9.143c8.046,0,15.36,2.56,21.211,7.314c5.12,4.389,9.874,10.971,13.166,19.017  c3.291,7.68,6.949,14.263,10.971,19.017c3.291,4.389,8.411,8.411,14.994,11.337c6.583,2.926,15.726,4.754,26.697,4.754  c15.36,0,28.16-3.291,37.303-9.509c8.411-5.851,12.434-12.069,12.434-20.114c0-6.217-1.829-10.971-5.851-14.629  c-4.754-4.389-11.337-8.046-19.383-10.606c-9.143-2.926-21.577-5.851-36.206-8.777c-21.211-4.389-39.497-9.874-53.76-15.726  c-15.36-6.217-27.429-15.36-36.571-26.331c-9.509-11.703-14.263-26.331-14.263-43.154c0-16.091,5.12-30.72,14.629-43.52  c9.509-12.434,23.406-21.943,41.326-28.526c17.189-6.217,37.669-9.509,60.709-9.509c18.286,0,34.743,2.194,48.274,6.217  c13.897,4.389,25.6,9.874,34.743,17.189c9.509,7.314,16.457,15.36,20.846,23.406c4.754,8.411,6.949,16.823,6.949,25.234  s-3.291,16.457-9.874,23.04s-14.629,10.24-24.503,10.24c-8.777,0-15.726-2.194-20.846-6.583c-4.023-3.657-8.411-9.143-13.166-17.189  c-4.754-8.777-10.24-15.726-16.457-20.48c-5.851-4.389-16.091-6.583-30.354-6.583c-13.166,0-24.137,2.56-31.817,7.68  c-8.777,5.851-9.874,10.971-9.874,14.263c0,3.291,0.731,5.851,2.56,8.046c2.194,2.926,5.851,5.486,10.24,7.68  c5.12,2.56,10.24,4.389,14.994,5.851c5.486,1.463,14.994,3.657,27.429,6.583c16.091,3.291,31.086,7.314,44.617,11.703  c13.897,4.389,25.966,9.874,35.474,16.091c10.24,6.583,18.651,15.36,24.503,25.234c5.851,10.24,8.777,23.04,8.777,37.669  c0,17.554-5.12,33.28-14.994,47.177s-24.503,24.868-43.154,32.183C281.783,390.217,259.84,393.874,235.337,393.874z   M146.835,288.183c-6.949,0-12.8,2.194-17.189,6.217c-4.389,4.023-6.583,8.777-6.583,14.629c0,10.606,4.023,21.577,11.703,32.549  c8.046,11.337,18.286,20.48,31.086,27.063c17.92,9.509,41.326,14.263,69.12,14.263c23.406,0,43.52-3.657,60.709-10.606  c16.823-6.949,29.623-16.457,38.4-28.526l0,0c8.777-12.069,13.166-25.966,13.166-40.96c0-12.8-2.56-23.406-7.314-32.183  c-5.12-8.777-12.069-16.091-20.846-21.577c-9.143-5.851-20.114-10.606-32.914-14.629c-13.166-4.023-27.794-8.046-43.886-11.337  c-12.8-2.926-22.309-5.12-28.16-6.949c-5.851-1.463-11.337-3.657-17.189-6.583c-5.851-2.926-10.606-6.583-13.897-10.24  c-3.291-4.023-5.12-9.143-5.12-14.994c0-9.143,5.12-17.189,14.994-23.406c9.509-6.217,22.309-9.509,37.669-9.509  c16.823,0,28.891,2.926,36.937,8.777c7.68,5.851,14.263,13.531,19.383,23.771c4.023,6.583,7.314,11.337,10.606,14.263  c2.926,2.56,7.68,4.023,13.531,4.023c6.583,0,12.069-2.194,16.823-6.949c4.389-4.389,6.583-9.509,6.583-15.36  c0-6.217-1.829-13.166-5.486-20.114c-3.657-6.949-9.874-13.531-17.92-19.749c-8.046-6.217-18.651-11.337-31.451-15.36  c-12.8-4.023-27.794-5.851-45.349-5.851c-21.943,0-40.96,2.926-57.051,8.777c-15.726,5.851-28.16,14.263-36.571,24.869  s-12.434,23.04-12.434,36.571c0,14.263,4.023,26.697,11.703,36.206c8.046,9.874,18.651,17.554,32.183,23.406  c13.531,5.851,31.086,10.971,51.566,15.36c15.36,3.291,27.794,6.217,37.303,9.143c9.509,2.926,17.554,7.314,23.406,12.8  c6.217,5.851,9.509,13.531,9.509,22.674c0,11.703-5.851,21.577-17.189,29.257c-11.337,7.68-25.966,11.337-43.52,11.337  c-12.8,0-23.406-1.829-31.451-5.486c-8.046-3.657-14.263-8.777-19.017-14.629c-4.389-5.486-8.411-12.8-12.069-21.211  c-2.926-6.583-6.217-11.703-10.24-14.994C157.075,289.646,152.32,288.183,146.835,288.183z"/>
<circle style="fill:#C7D5E0;" cx="233.871" cy="223.45" r="159.09"/>
<path style="fill:#FFFFFF;" d="M338.469,328.412c-9.143,12.8-23.04,23.04-40.96,30.354c-17.554,7.314-38.766,10.971-62.537,10.971  c-28.891,0-53.029-5.12-71.68-14.994c-13.531-7.314-24.503-16.823-32.914-28.891c-8.411-12.069-12.8-24.137-12.8-35.84  c0-7.314,2.926-13.531,8.411-18.651c5.486-5.12,12.434-7.68,20.846-7.68c6.949,0,12.8,2.194,17.554,6.217s8.411,9.509,11.703,16.823  c3.657,8.046,7.314,14.994,11.337,20.114c4.023,5.12,9.509,9.509,16.823,12.8s17.189,5.12,29.257,5.12  c16.457,0,30.354-3.657,40.229-10.24c9.874-6.583,14.994-14.629,14.994-24.868c0-7.68-2.56-13.897-7.68-18.651  c-5.486-5.12-12.8-8.777-21.577-11.703c-9.143-2.926-21.577-5.851-36.937-9.143c-20.846-4.389-38.4-9.509-52.663-15.36  s-25.966-14.263-34.377-24.869c-8.777-10.606-13.166-24.137-13.166-39.497c0-14.994,4.754-28.526,13.531-39.863  c8.777-11.703,21.943-20.48,38.766-26.697s36.571-9.143,58.88-9.143c17.92,0,33.646,2.194,46.811,6.217s24.503,9.509,33.28,16.091  c8.777,6.949,15.36,13.897,19.383,21.577s6.217,15.36,6.217,22.674c0,6.949-2.926,13.531-8.411,19.017s-12.434,8.411-20.48,8.411  c-7.314,0-13.166-1.829-17.189-5.486c-3.657-3.291-7.68-8.411-12.069-15.726c-5.12-9.509-10.971-16.823-17.92-21.943  c-6.583-5.12-17.92-7.68-33.646-7.68c-14.263,0-25.966,2.926-34.743,8.411c-8.411,5.486-12.434,11.703-12.434,19.017  c0,4.389,1.463,8.411,4.023,11.337c2.926,3.291,6.949,6.583,12.069,9.143c5.12,2.56,10.606,4.754,16.091,6.217  c5.486,1.463,14.994,3.657,27.794,6.583c16.091,3.291,31.086,7.314,44.251,11.337c13.531,4.023,24.869,9.509,34.377,15.36  c9.509,6.217,17.189,13.897,22.674,23.406c5.486,9.509,8.046,21.211,8.046,34.743C352.732,300.617,347.977,315.612,338.469,328.412z  "/>
<path style="fill:#0C86EA;" d="M436.48,218.332c0-109.349-89.966-197.851-200.411-197.851c-11.703,0-23.04,1.097-34.377,2.926  c-17.92-10.971-39.131-17.554-61.806-17.554c-64.366,0-116.297,51.2-116.297,114.834c0,21.211,5.851,40.96,16.091,58.149  c-2.56,12.8-4.023,25.966-4.023,39.863c0,109.349,89.966,197.851,200.777,197.851c12.434,0,24.869-1.097,36.571-3.291  c16.457,8.777,35.109,13.531,54.857,13.531c64.366,0,116.297-51.2,116.297-114.834c0-18.286-4.389-35.474-12.069-50.834  C434.652,247.223,436.48,232.96,436.48,218.332z M338.469,313.052c-9.143,12.8-23.04,23.04-40.96,30.354  c-17.554,7.314-38.766,10.971-62.537,10.971c-28.891,0-53.029-5.12-71.68-14.994c-13.531-7.314-24.503-16.823-32.914-28.891  c-8.411-12.069-12.8-24.137-12.8-35.84c0-7.314,2.926-13.531,8.411-18.651c5.486-5.12,12.434-7.68,20.846-7.68  c6.949,0,12.8,2.194,17.554,6.217s8.411,9.509,11.703,16.823c3.657,8.046,7.314,14.994,11.337,20.114  c4.023,5.12,9.509,9.509,16.823,12.8s17.189,5.12,29.257,5.12c16.457,0,30.354-3.657,40.229-10.24  c9.874-6.583,14.994-14.629,14.994-24.869c0-7.68-2.56-13.897-7.68-18.651c-5.486-5.12-12.8-8.777-21.577-11.703  c-9.143-2.926-21.577-5.851-36.937-9.143c-20.846-4.389-38.4-9.509-52.663-15.36c-14.263-5.851-25.966-14.263-34.377-24.869  c-8.777-10.606-13.166-24.137-13.166-39.497c0-14.994,4.754-28.526,13.531-39.863c8.777-11.703,21.943-20.48,38.766-26.697  c16.823-6.217,36.571-9.143,58.88-9.143c17.92,0,33.646,2.194,46.811,6.217s24.503,9.509,33.28,16.091  c8.777,6.949,15.36,13.897,19.383,21.577s6.217,15.36,6.217,22.674c0,6.949-2.926,13.531-8.411,19.017s-12.434,8.411-20.48,8.411  c-7.314,0-13.166-1.829-17.189-5.486c-3.657-3.291-7.68-8.411-12.069-15.726c-5.12-9.509-10.971-16.823-17.92-21.943  c-6.583-5.12-17.92-7.68-33.646-7.68c-14.263,0-25.966,2.926-34.743,8.411c-8.411,5.486-12.434,11.703-12.434,19.017  c0,4.389,1.463,8.411,4.023,11.337c2.926,3.291,6.949,6.583,12.069,9.143c5.12,2.56,10.606,4.754,16.091,6.217  c5.486,1.463,14.994,3.657,27.794,6.583c16.091,3.291,31.086,7.314,44.251,11.337c13.531,4.023,24.869,9.509,34.377,15.36  c9.509,6.217,17.189,13.897,22.674,23.406c5.486,9.509,8.046,21.211,8.046,34.743C352.732,285.257,347.977,299.886,338.469,313.052z  "/>
<g>
	<path style="fill:#24AEF0;" d="M35.657,206.263c-0.366,4.023-0.366,8.046-0.366,12.069c0,5.851,0.366,11.337,0.731,17.189   c0.731-7.68,1.829-15.36,3.291-22.674C37.852,210.652,36.755,208.457,35.657,206.263z"/>
	<path style="fill:#24AEF0;" d="M435.383,269.532c-0.731,8.777-1.829,17.189-3.657,25.6c5.486,10.606,9.143,21.943,10.606,34.011   c0.731-5.486,1.463-11.337,1.463-17.189C443.795,296.96,440.869,282.697,435.383,269.532z"/>
	<path style="fill:#24AEF0;" d="M139.52,40.229c22.674,0,43.886,6.583,61.806,17.554c11.337-1.829,22.674-2.926,34.377-2.926   c104.96,0,190.903,79.36,199.68,180.663c0.366-5.486,0.731-11.337,0.731-16.823c0-109.349-89.966-197.851-200.411-197.851   c-11.703,0-23.04,1.097-34.377,2.926C183.406,12.8,162.195,6.217,139.52,6.217c-64.366,0-116.297,51.2-116.297,114.834   c0,5.851,0.366,11.337,1.463,16.823C33.097,82.286,81.372,40.229,139.52,40.229z"/>
</g>
<path style="fill:#33363A;" d="M327.497,431.909c-19.383,0-38.766-4.754-55.954-13.531c-11.703,2.194-23.771,2.926-35.84,2.926  c-113.737,0-206.263-91.063-206.263-203.337c0-12.8,1.097-25.966,3.657-38.766c-10.24-17.92-15.726-38.4-15.726-58.88  c0-32.183,12.8-62.171,35.84-85.211C76.252,12.434,106.972,0,139.154,0l0,0c22.309,0,43.886,5.851,62.903,17.189  c10.971-1.829,21.943-2.56,33.28-2.56c113.737,0,206.263,91.063,206.263,203.337c0,14.263-1.463,28.16-4.389,41.691  c7.68,16.091,11.703,33.646,11.703,51.566C449.28,378.149,394.789,431.909,327.497,431.909z M272.64,407.406  c0.731,0,1.829,0.366,2.56,0.731c16.091,8.411,34.011,12.8,52.297,12.8c61.074,0,110.811-49.006,110.811-109.349  c0-17.189-4.023-33.28-11.337-48.64c-0.731-1.097-0.731-2.56-0.366-3.657c2.926-13.531,4.389-27.429,4.389-41.326  c0-106.057-87.406-192.366-195.291-192.366c-11.337,0-22.309,1.097-33.28,2.926c-1.463,0.366-2.56,0-3.657-0.731  c-17.554-10.971-38.034-16.823-58.88-16.823l0,0c-29.623,0-57.417,11.337-78.263,32.183c-20.846,20.48-32.549,47.909-32.549,77.166  c0,19.383,5.12,38.4,15.36,55.223c0.731,1.097,1.097,2.56,0.731,4.023c-2.56,12.8-4.023,25.6-4.023,38.766  c0,106.057,87.406,192.366,195.291,192.366c12.069,0,24.137-1.097,35.84-3.291C271.909,407.406,272.275,407.406,272.64,407.406z   M235.337,359.863c-29.623,0-54.857-5.12-74.24-15.36c-14.263-7.68-25.966-17.92-35.109-30.72  c-9.143-13.166-13.897-25.966-13.897-38.766c0-8.777,3.657-16.457,10.24-22.674c6.583-6.217,14.994-9.143,24.869-9.143  c8.046,0,15.36,2.56,21.211,7.314c5.12,4.389,9.874,10.606,13.166,19.017c3.291,7.68,6.949,14.263,10.971,19.017  c3.291,4.389,8.411,8.411,14.994,11.337c6.583,2.926,15.726,4.754,26.697,4.754c15.36,0,28.16-3.291,37.303-9.509  c8.411-5.851,12.434-12.069,12.434-20.114c0-6.217-1.829-10.971-5.851-14.629c-4.754-4.389-11.337-8.046-19.383-10.606  c-9.143-2.926-21.577-5.851-36.206-8.777c-21.211-4.389-39.497-9.874-53.76-15.726c-15.36-6.217-27.429-15.36-36.571-26.331  c-9.509-11.703-14.263-26.331-14.263-43.154c0-16.091,5.12-30.72,14.629-43.52c9.509-12.434,23.406-21.943,41.326-28.526  c17.189-6.217,37.669-9.509,60.709-9.509c18.286,0,34.743,2.194,48.274,6.217c13.897,4.389,25.6,9.874,34.743,17.189  c9.509,7.314,16.457,15.36,20.846,23.406c4.754,8.411,6.949,16.823,6.949,25.234s-3.291,16.457-9.874,23.04  s-14.629,10.24-24.503,10.24c-8.777,0-15.726-2.194-20.846-6.583c-4.023-3.657-8.411-9.143-13.166-17.189  c-4.754-8.777-10.24-15.726-16.457-20.48c-5.851-4.389-16.091-6.583-30.354-6.583c-13.166,0-24.137,2.56-31.817,7.68  c-8.777,5.851-9.874,10.971-9.874,14.263c0,3.291,0.731,5.851,2.56,8.046c2.194,2.926,5.851,5.486,10.24,7.68  c5.12,2.56,10.24,4.389,14.994,5.851c5.486,1.463,14.994,3.657,27.429,6.583c16.091,3.291,31.086,7.314,44.617,11.703  c13.897,4.389,25.966,9.874,35.474,16.091c10.24,6.583,18.651,15.36,24.503,25.6c5.851,10.24,8.777,23.04,8.777,37.669  c0,17.554-5.12,33.28-14.994,47.177s-24.503,24.869-43.154,32.183C281.783,356.206,259.84,359.863,235.337,359.863z   M146.835,253.806c-6.949,0-12.8,2.194-17.189,6.217c-4.389,4.023-6.583,8.777-6.583,14.629c0,10.606,4.023,21.577,11.703,32.549  c8.046,11.337,18.286,20.48,31.086,27.063c17.92,9.509,41.326,14.263,69.12,14.263c23.406,0,43.52-3.657,60.709-10.606  c16.823-6.949,29.623-16.457,38.4-28.526l0,0c8.777-12.069,13.166-25.966,13.166-40.96c0-12.8-2.56-23.406-7.314-32.183  c-5.12-8.777-12.069-16.091-20.846-21.577c-9.143-5.851-20.114-10.606-32.914-14.629c-13.166-4.023-27.794-8.046-43.886-11.337  c-12.8-2.926-22.309-5.12-28.16-6.949c-5.851-1.463-11.337-3.657-17.189-6.583c-5.851-2.926-10.606-6.583-13.897-10.606  s-5.12-9.143-5.12-14.994c0-9.143,5.12-17.189,14.994-23.406c9.509-6.217,22.309-9.509,37.669-9.509  c16.823,0,28.891,2.926,36.937,8.777c7.68,5.851,14.263,13.531,19.383,23.771c4.023,6.583,7.314,11.337,10.606,14.263  c2.926,2.56,7.68,4.023,13.531,4.023c6.583,0,12.069-2.194,16.823-6.949c4.389-4.389,6.583-9.509,6.583-15.36  c0-6.217-1.829-13.166-5.486-20.114c-3.657-6.949-9.874-13.531-17.92-19.749c-8.046-6.217-18.651-11.337-31.451-15.36  s-27.794-5.851-45.349-5.851c-21.943,0-40.96,2.926-57.051,8.777c-15.726,5.851-28.16,14.263-36.571,24.869  s-12.434,23.04-12.434,36.571c0,14.263,4.023,26.697,11.703,36.206c8.046,9.874,18.651,17.554,32.183,23.406  c13.531,5.851,31.086,10.971,51.566,15.36c14.994,3.291,27.794,6.217,37.303,9.143c9.509,2.926,17.554,7.314,23.406,12.8  c6.217,5.851,9.509,13.531,9.509,22.674c0,11.703-5.851,21.577-17.189,29.257c-11.337,7.68-25.966,11.337-43.52,11.337  c-12.8,0-23.406-1.829-31.451-5.486c-8.046-3.657-14.263-8.777-19.017-14.629c-4.389-5.486-8.411-12.8-12.069-21.211  c-2.926-6.583-6.217-11.703-10.24-14.994C157.075,255.634,152.32,253.806,146.835,253.806z"/>
<g>
</g>
<g>
</g>
<g>
</g>
<g>
</g>
<g>
</g>
<g>
</g>
<g>
</g>
<g>
</g>
<g>
</g>
<g>
</g>
<g>
</g>
<g>
</g>
<g>
</g>
<g>
</g>
<g>
</g>
</svg>
