<?xml version="1.0" encoding="iso-8859-1"?>
<!-- Generator: Adobe Illustrator 19.0.0, SVG Export Plug-In . SVG Version: 6.00 Build 0)  -->
<svg xmlns="http://www.w3.org/2000/svg" xmlns:xlink="http://www.w3.org/1999/xlink" version="1.1" id="Capa_1" x="0px" y="0px" viewBox="0 0 470.34 470.34" style="enable-background:new 0 0 470.34 470.34;" xml:space="preserve">
<g>
	<path style="fill:#FFEB5A;" d="M454.965,352.564c-61.074-10.24-88.869-72.777-89.966-75.337c0-0.366,0-0.366-0.366-0.366   c-3.291-6.217-3.657-11.703-2.194-15.726c3.291-7.68,16.091-12.069,24.503-14.629c2.56-0.731,4.754-1.463,6.583-2.194   c8.411-3.291,14.263-6.949,18.286-10.971c4.754-4.754,5.486-9.509,5.486-12.434c0-7.314-5.851-13.897-14.629-17.189   c-2.926-1.097-6.583-1.829-9.874-1.829c-2.56,0-5.851,0.366-9.143,1.829c-7.314,3.291-13.531,5.12-19.017,5.486   c-2.926,0-5.12-0.731-6.217-1.463c0-2.926,0.366-5.851,0.731-8.777v-1.463c1.829-31.086,4.389-69.486-5.851-92.526   c-6.949-15.726-16.457-29.257-28.16-40.229c-9.874-9.143-20.846-16.457-33.646-21.943c-21.943-9.509-42.057-10.971-52.297-10.971   l0,0c-0.366,0-0.731,0-1.097,0c-2.926,0-7.314,0-7.68,0c-10.24,0-30.354,1.463-52.297,10.971   c-12.434,5.486-23.771,12.8-33.28,21.943c-11.337,10.971-20.846,24.503-27.794,39.863c-10.24,23.04-7.68,61.44-5.851,92.526l0,0   c0.366,3.291,0.366,6.949,0.731,10.24c-1.463,0.731-4.023,1.463-7.68,1.463c-5.851,0-12.8-1.829-20.48-5.486   c-2.194-1.097-4.754-1.463-7.68-1.463c-4.754,0-9.509,1.463-13.531,3.657c-5.486,3.291-8.777,7.68-9.509,12.434   c-0.731,3.291-0.731,9.509,6.583,16.091c4.023,3.657,9.509,6.949,17.189,9.874c1.829,0.731,4.389,1.463,6.583,2.194   c8.411,2.56,21.211,6.583,24.503,14.629c1.829,4.023,1.097,9.143-2.194,15.726c0,0.366,0,0.366-0.366,0.366   c-0.731,1.829-8.046,18.286-23.04,35.84c-8.411,9.874-17.92,18.286-27.794,24.503c-12.069,7.68-25.234,12.8-39.131,15.36   c-5.486,0.731-9.143,5.851-8.777,10.971c0,1.463,0.366,3.291,1.097,4.754l0,0c2.194,5.12,7.314,9.509,15.36,13.166   c10.24,4.754,25.234,8.411,44.617,11.703c1.097,1.829,2.194,6.583,2.56,9.874c0.731,3.291,1.463,6.949,2.56,10.606   c1.097,4.023,4.389,8.777,12.434,8.777c2.926,0,6.583-0.731,10.606-1.463c5.851-1.097,13.897-2.56,24.137-2.56   c5.486,0,11.337,0.366,17.189,1.463c11.337,1.829,20.846,8.777,32.183,16.457c16.457,11.703,34.743,24.503,63.269,24.503   c0.731,0,1.463,0,2.194,0c1.097,0,2.194,0,3.291,0c28.16,0,46.811-13.166,63.269-24.503l0,0   c11.337-8.046,20.846-14.629,32.183-16.457c5.851-1.097,11.703-1.463,17.189-1.463c9.509,0,17.189,1.097,24.137,2.56   c4.389,0.731,8.046,1.463,10.606,1.463h0.366h0.366c5.851,0,10.24-3.291,11.703-8.777c1.097-3.657,1.829-7.314,2.56-10.606   c0.731-2.926,1.829-8.046,2.56-9.874c19.749-2.926,34.743-6.949,44.617-11.703c8.046-3.657,13.166-8.046,15.36-13.166   c0.731-1.463,1.097-2.926,1.097-4.754C464.473,358.05,460.45,353.295,454.965,352.564z"/>
	<path style="fill:#FFEB5A;" d="M454.965,352.564c-61.074-10.24-88.869-72.777-89.966-75.337c0-0.366,0-0.366-0.366-0.366   c-3.291-6.217-3.657-11.703-2.194-15.726c3.291-7.68,16.091-12.069,24.503-14.629c2.56-0.731,4.754-1.463,6.583-2.194   c8.411-3.291,14.263-6.949,18.286-10.971c4.754-4.754,5.486-9.509,5.486-12.434c0-7.314-5.851-13.897-14.629-17.189   c-2.926-1.097-6.583-1.829-9.874-1.829c-2.56,0-5.851,0.366-9.143,1.829c-7.314,3.291-13.531,5.12-19.017,5.486   c-2.926,0-5.12-0.731-6.217-1.463c0-2.926,0.366-5.851,0.731-8.777v-1.463c1.829-31.086,4.389-69.486-5.851-92.526   c-6.949-15.726-16.457-29.257-28.16-40.229c-9.874-9.143-20.846-16.457-33.646-21.943c-21.943-9.509-42.057-10.971-52.297-10.971   l0,0c-0.366,0-0.731,0-1.097,0c-2.926,0-7.314,0-7.68,0c-10.24,0-30.354,1.463-52.297,10.971   c-12.434,5.486-23.771,12.8-33.28,21.943c-11.337,10.971-20.846,24.503-27.794,39.863c-10.24,23.04-7.68,61.44-5.851,92.526l0,0   c0.366,3.291,0.366,6.949,0.731,10.24c-1.463,0.731-4.023,1.463-7.68,1.463c-5.851,0-12.8-1.829-20.48-5.486   c-2.194-1.097-4.754-1.463-7.68-1.463c-4.754,0-9.509,1.463-13.531,3.657c-5.486,3.291-8.777,7.68-9.509,12.434   c-0.731,3.291-0.731,9.509,6.583,16.091c4.023,3.657,9.509,6.949,17.189,9.874c1.829,0.731,4.389,1.463,6.583,2.194   c8.411,2.56,21.211,6.583,24.503,14.629c1.829,4.023,1.097,9.143-2.194,15.726c0,0.366,0,0.366-0.366,0.366   c-0.731,1.829-8.046,18.286-23.04,35.84c-8.411,9.874-17.92,18.286-27.794,24.503c-12.069,7.68-25.234,12.8-39.131,15.36   c-5.486,0.731-9.143,5.851-8.777,10.971c0,1.463,0.366,3.291,1.097,4.754l0,0c2.194,5.12,7.314,9.509,15.36,13.166   c10.24,4.754,25.234,8.411,44.617,11.703c1.097,1.829,2.194,6.583,2.56,9.874c0.731,3.291,1.463,6.949,2.56,10.606   c1.097,4.023,4.389,8.777,12.434,8.777c2.926,0,6.583-0.731,10.606-1.463c5.851-1.097,13.897-2.56,24.137-2.56   c5.486,0,11.337,0.366,17.189,1.463c11.337,1.829,20.846,8.777,32.183,16.457c16.457,11.703,34.743,24.503,63.269,24.503   c0.731,0,1.463,0,2.194,0c1.097,0,2.194,0,3.291,0c28.16,0,46.811-13.166,63.269-24.503l0,0   c11.337-8.046,20.846-14.629,32.183-16.457c5.851-1.097,11.703-1.463,17.189-1.463c9.509,0,17.189,1.097,24.137,2.56   c4.389,0.731,8.046,1.463,10.606,1.463h0.366h0.366c5.851,0,10.24-3.291,11.703-8.777c1.097-3.657,1.829-7.314,2.56-10.606   c0.731-2.926,1.829-8.046,2.56-9.874c19.749-2.926,34.743-6.949,44.617-11.703c8.046-3.657,13.166-8.046,15.36-13.166   c0.731-1.463,1.097-2.926,1.097-4.754C464.473,358.05,460.45,353.295,454.965,352.564z"/>
</g>
<path style="fill:#FFF19C;" d="M235.17,31.832c-2.194,0-4.389,0-4.754,0c-10.24,0-30.354,1.463-52.297,10.971  c-12.434,5.486-23.771,12.8-33.28,21.943c-11.337,10.971-20.846,24.503-27.794,39.863c-10.24,23.04-7.68,61.44-5.851,92.526l0,0  c0.366,3.291,0.366,6.949,0.731,10.24c-1.463,0.731-4.023,1.463-7.68,1.463c-5.851,0-12.8-1.829-20.48-5.486  c-2.194-1.097-4.754-1.463-7.68-1.463c-4.754,0-9.509,1.463-13.531,3.657c-5.486,3.291-8.777,7.68-9.509,12.434  c-0.731,3.291-0.731,9.509,6.583,16.091c4.023,3.657,9.509,6.949,17.189,9.874c1.829,0.731,4.389,1.463,6.583,2.194  c8.411,2.56,21.211,6.583,24.503,14.629c1.829,4.023,1.097,9.143-2.194,15.726c0,0.366,0,0.366-0.366,0.366  c-0.731,1.829-8.046,18.286-23.04,35.84c-8.411,9.874-17.92,18.286-27.794,24.503c-12.069,7.68-25.234,12.8-39.131,15.36  c-5.486,0.731-9.143,5.851-9.143,11.337c0,1.463,0.366,3.291,1.097,4.754l0,0c2.194,5.12,7.314,9.509,15.36,13.166  c10.24,4.754,25.234,8.411,44.617,11.703c1.097,1.829,2.194,6.583,2.56,9.874c0.731,3.291,1.463,6.949,2.56,10.606  c1.097,4.023,4.389,8.777,12.434,8.777c2.926,0,6.583-0.731,10.606-1.463c5.851-1.097,13.897-2.56,24.137-2.56  c5.486,0,11.337,0.366,17.189,1.463c11.337,1.829,20.846,8.777,32.183,16.457c16.457,11.703,34.743,24.503,63.269,24.503  c0.731,0,1.463,0,2.194,0h0.366V31.832H235.17z"/>
<g>
	<path style="fill:#FFFFFF;" d="M359.148,217.25v1.463c-0.366,2.926-0.366,5.851-0.731,8.777c1.463,0.731,3.291,1.097,6.217,1.463   c5.486-0.366,12.069-2.194,19.017-5.486c3.291-1.463,6.949-1.829,9.143-1.829c3.657,0,6.949,0.731,9.874,1.829   c4.754,1.829,8.411,4.389,10.971,7.314c2.926-4.023,3.657-7.68,3.657-10.24c0-7.314-5.851-13.897-14.629-17.189   c-2.926-1.097-6.583-1.829-9.874-1.829c-2.56,0-5.851,0.366-9.143,1.829c-7.314,3.291-13.531,5.12-19.017,5.486   c-2.194,0-3.657-0.366-5.12-1.097C359.513,211.398,359.513,214.324,359.148,217.25z"/>
	<path style="fill:#FFFFFF;" d="M7.33,368.29c0.731,1.829,2.194,3.657,4.023,5.486c1.097-0.731,2.56-1.463,4.023-1.463   c13.897-2.194,27.063-7.314,39.131-15.36c9.874-6.583,19.383-14.629,27.794-24.503c14.994-17.554,22.309-34.011,23.04-35.84   c0,0,0-0.366,0.366-0.366c3.291-6.217,4.023-11.703,2.194-15.36c-0.731-1.463-1.463-2.56-2.56-3.657   c-1.097,2.194-8.411,18.286-23.04,35.474c-8.411,9.874-17.92,18.286-27.794,24.503c-12.069,7.68-25.234,12.8-39.131,15.36   c-5.486,0.731-9.143,5.851-9.143,11.337C6.233,364.998,6.599,366.827,7.33,368.29L7.33,368.29z"/>
	<path style="fill:#FFFFFF;" d="M365.365,277.227c-1.097,1.097-1.829,2.194-2.56,3.657c-1.829,4.023-1.097,9.143,2.194,15.726   c0,0,0,0.366,0.366,0.366c1.097,2.56,28.526,65.463,89.966,75.337c1.463,0.366,2.926,0.731,4.023,1.463   c1.829-1.829,2.926-3.657,3.657-5.486c0.731-1.463,1.097-2.926,1.097-4.754c0.366-5.486-3.657-10.24-9.143-10.971   C394.256,342.324,366.828,280.884,365.365,277.227z"/>
	<path style="fill:#FFFFFF;" d="M62.188,225.661c4.389-2.56,9.143-3.657,13.531-3.657c2.926,0,5.486,0.366,7.68,1.463   c7.68,3.657,14.629,5.486,20.48,5.486c3.657,0,5.851-0.731,7.68-1.463c-0.366-3.291-0.366-6.949-0.731-10.24l0,0   c-0.366-2.926-0.366-6.217-0.731-9.143c-1.463,0.366-3.657,1.097-6.217,1.097c-5.851,0-12.8-1.829-20.48-5.486   c-2.194-1.097-4.754-1.463-7.68-1.463c-4.754,0-9.509,1.463-13.531,3.657c-5.486,3.291-8.777,7.68-9.509,12.434   c-0.366,2.56-0.366,7.314,3.291,12.8C57.799,228.952,59.628,227.124,62.188,225.661z"/>
	<path style="fill:#FFFFFF;" d="M117.045,125.09c6.949-15.726,16.457-28.891,27.794-39.863c9.509-9.143,20.846-16.457,33.28-21.943   c21.943-9.509,42.057-10.971,52.297-10.971c0.366,0,5.12,0,7.68,0c0.366,0,0.731,0,1.097,0l0,0c10.24,0,30.354,1.463,52.297,10.971   c12.434,5.486,23.771,12.8,33.646,21.943c11.703,10.971,20.846,24.503,28.16,40.229c5.12,10.971,6.949,25.6,7.314,41.326   c0.731-22.674-0.366-45.714-7.314-61.44s-16.457-29.257-28.16-40.229c-9.874-9.143-20.846-16.457-33.646-21.943   c-21.943-9.509-42.057-10.971-52.297-10.971l0,0c-0.366,0-0.731,0-1.097,0c-2.926,0-7.314,0-7.68,0   c-10.24,0-30.354,1.463-52.297,10.971c-12.434,5.486-23.771,12.8-33.28,21.943c-11.337,10.971-20.846,24.503-27.794,39.863   c-6.949,15.726-8.046,38.4-7.314,61.44C110.096,150.69,111.925,136.061,117.045,125.09z"/>
</g>
<g>
	<path style="fill:#33363A;" d="M238.096,466.667c-1.097,0-2.194,0-3.291,0c-0.731,0-1.463,0-2.56,0   c-29.989,0-49.371-13.531-66.56-25.6c-10.606-7.68-19.749-13.897-29.989-15.726c-5.486-1.097-10.971-1.463-16.457-1.463   c-9.509,0-17.189,1.463-23.04,2.56c-4.023,0.731-8.046,1.463-11.703,1.463c-8.777,0-14.994-4.754-17.554-12.8   c-1.097-4.023-1.829-7.314-2.56-10.971c-0.366-1.463-0.731-4.023-1.463-6.217c-18.651-2.926-32.914-6.949-43.154-11.703   c-9.509-4.389-15.36-9.509-18.286-16.091c-1.097-2.194-1.463-4.389-1.463-6.583c-0.366-8.411,5.486-15.36,13.531-16.823   c13.166-2.194,25.6-6.949,36.937-14.263c9.509-6.217,18.286-13.897,26.697-23.406c14.263-16.457,21.577-32.549,22.309-34.377   c0,0,0-0.366,0.366-0.731c2.56-4.754,2.926-8.777,2.194-10.971c-2.194-5.486-14.629-9.509-21.211-11.337   c-2.56-0.731-5.12-1.463-6.949-2.56c-8.046-3.291-14.263-6.949-18.651-10.971c-9.143-8.411-9.143-16.823-8.046-21.211   c1.097-6.583,5.486-12.069,12.434-16.091c8.411-4.754,19.017-5.851,26.697-2.56c6.949,3.291,13.166,5.12,17.92,5.12   c0.731,0,1.097,0,1.829,0c0-1.829-0.366-3.657-0.366-5.486v-0.366c-1.829-31.086-4.389-70.583,6.217-94.72   c7.314-16.091,17.189-30.354,29.257-41.691c10.24-9.509,21.943-17.554,35.109-23.04c22.674-9.874,43.886-11.337,54.491-11.337h7.68   c0.366,0,0.731,0,1.097,0c10.606,0,31.817,1.463,54.491,11.337c13.166,5.851,24.869,13.531,35.109,23.04   c12.069,11.337,21.943,25.6,29.257,41.691c10.971,24.137,8.411,63.269,6.217,95.086v1.097c0,1.463-0.366,2.926-0.366,4.389   c0.366,0,0.366,0,0.731,0c4.754-0.366,10.24-1.829,16.823-4.754c4.389-1.829,8.777-2.56,11.703-2.56   c4.389,0,8.411,0.731,12.069,2.194c10.971,4.023,17.92,12.434,17.92,21.943c0,4.023-1.097,10.24-6.949,16.457   c-4.389,4.754-10.971,8.777-20.114,12.069c-2.194,0.731-4.389,1.463-6.949,2.56c-6.583,2.194-19.017,5.851-21.211,11.337   c-1.097,2.56-0.366,6.217,2.194,10.971l0.366,0.731c1.097,2.56,27.429,62.537,85.943,72.411   c8.046,1.463,13.897,8.777,13.531,16.823c0,2.194-0.731,4.389-1.463,6.583c-2.56,6.217-8.777,11.703-18.286,16.091   c-9.874,4.754-24.503,8.411-43.154,11.703c-0.366,1.829-1.097,4.754-1.463,5.851c-0.731,3.291-1.463,7.314-2.926,11.337   c-2.194,8.046-8.777,12.8-17.189,12.8h-0.366c-2.926,0-6.949-0.366-11.703-1.463c-6.583-1.097-13.897-2.56-23.04-2.56   c-5.12,0-10.606,0.366-16.457,1.463c-9.874,1.829-19.017,8.046-29.623,15.726C287.468,453.135,268.085,466.667,238.096,466.667z    M234.805,455.695L234.805,455.695c1.097,0,2.194,0,3.291,0c26.697,0,44.251-12.434,59.977-23.771   c11.703-8.411,21.943-15.36,34.377-17.554c6.217-1.097,12.069-1.463,17.92-1.463c10.24,0,17.92,1.097,25.234,2.56   c4.023,0.731,7.314,1.097,9.509,1.097h0.366c3.291,0,5.486-1.463,6.583-4.754c1.097-3.657,1.829-6.949,2.56-10.24   c1.097-4.754,2.194-8.777,3.291-10.971c0.731-1.463,2.194-2.56,4.023-2.926c19.017-2.926,33.646-6.949,43.154-11.337   c6.949-3.291,10.971-6.583,12.8-10.24c0.366-1.097,0.731-1.829,0.731-2.926c0-2.56-1.829-5.12-4.389-5.486l0,0   c-64.366-10.606-92.891-76.069-93.989-78.629c-4.023-8.046-4.754-14.994-2.56-20.48c4.389-10.24,18.651-14.629,27.794-17.554   c2.56-0.731,4.754-1.463,6.583-2.194c7.68-2.926,12.8-6.217,16.457-9.509c3.291-3.291,4.023-6.583,4.023-8.411   c0-5.12-4.389-9.509-10.971-12.069c-2.56-1.097-5.486-1.463-8.046-1.463c-1.829,0-4.389,0.366-6.949,1.463   c-7.68,3.657-14.994,5.486-21.211,5.851c-0.366,0-0.366,0-0.731,0c-2.926,0-5.851-0.731-8.411-1.829   c-2.194-1.097-3.291-2.926-3.291-5.486c0-2.926,0.366-5.851,0.731-8.777V197.5c1.829-30.354,4.389-68.389-5.486-89.966   c-6.583-14.994-15.726-27.794-26.697-38.4c-9.143-8.777-20.114-15.726-31.817-21.211c-20.846-9.143-40.229-10.606-50.103-10.606   h-9.143c-9.874,0-29.257,1.463-50.103,10.606c-12.069,5.12-22.674,12.434-31.817,21.211c-10.971,10.606-20.114,23.406-26.697,38.4   c-9.509,21.577-7.314,59.246-5.486,89.6v0.366c0.366,2.926,0.366,6.583,0.731,9.874c0,2.194-1.097,4.389-3.291,5.486   c-7.68,3.657-19.383,2.194-32.549-4.023c-4.389-1.829-10.971-1.097-16.457,1.829c-4.023,2.194-6.583,5.486-6.949,8.777   c-0.366,2.194-0.366,6.217,4.754,10.971c3.291,2.926,8.411,5.851,15.36,8.777c1.829,0.731,4.023,1.463,6.217,2.194   c9.509,2.926,23.771,7.68,28.16,17.554c2.194,5.486,1.463,12.434-2.194,20.114c-1.463,3.291-9.143,19.749-24.137,37.303   c-8.777,10.24-18.651,19.017-28.891,25.6c-12.8,8.411-26.697,13.531-41.326,16.091c-2.56,0.366-4.389,2.926-4.389,5.486   c0,1.097,0.366,1.829,0.731,2.926c1.463,3.657,5.851,7.314,12.8,10.24c9.509,4.389,24.137,8.411,43.154,11.337   c1.829,0.366,3.291,1.463,4.023,2.926c1.097,2.194,2.194,6.217,3.291,11.337c0.731,3.291,1.463,6.949,2.56,10.24   c1.097,3.657,3.291,5.12,6.949,5.12c2.56,0,5.851-0.731,9.509-1.463c5.851-1.097,14.263-2.926,25.234-2.926   c5.851,0,12.069,0.366,17.92,1.463c12.434,2.194,22.674,9.143,34.377,17.554c16.457,11.703,33.646,23.771,60.343,23.771   c0.731,0,1.097,0,1.829,0C234.439,455.695,234.439,455.695,234.805,455.695z"/>
	<path style="fill:#33363A;" d="M69.502,404.13c-2.56,0-4.754-1.463-5.12-4.023c-3.657-12.8,15.726-25.6,21.577-28.891   c2.56-1.463,5.851-0.731,7.68,1.829c1.463,2.56,0.731,5.851-1.829,7.68c-9.143,5.486-17.554,13.531-16.823,16.457   s-0.731,5.851-3.657,6.583C70.233,404.13,69.868,404.13,69.502,404.13z"/>
	<path style="fill:#33363A;" d="M127.65,309.41c-0.366,0-1.097,0-1.463,0c-2.926-0.731-4.754-3.657-4.023-6.583   c0.366-1.463,7.314-31.451-29.257-46.811c-2.926-1.097-4.023-4.389-2.926-7.314s4.389-4.023,7.314-2.926   c45.714,19.383,35.474,59.246,35.474,59.611C132.039,307.947,129.845,309.41,127.65,309.41z"/>
	<path style="fill:#33363A;" d="M115.582,336.107c-1.097,0-2.56-0.366-3.291-1.097c-2.194-1.829-2.926-5.486-0.731-7.68l3.657-4.389   c1.829-2.194,5.486-2.926,7.68-0.731c2.194,1.829,2.926,5.486,0.731,7.68l-3.657,4.389   C118.873,335.375,117.41,336.107,115.582,336.107z"/>
	<path style="fill:#33363A;" d="M400.108,404.13c-0.366,0-1.097,0-1.463-0.366c-2.926-0.731-4.754-3.657-3.657-6.583   s-7.314-10.971-16.823-16.457c-2.56-1.463-3.657-4.754-1.829-7.68c1.829-2.926,4.754-3.657,7.68-1.829   c5.851,3.657,25.234,16.091,21.577,28.891C404.862,402.301,402.668,404.13,400.108,404.13z"/>
	<path style="fill:#33363A;" d="M341.959,309.41c-2.56,0-4.754-1.463-5.12-4.023c0-0.366-10.24-40.229,35.474-59.611   c2.926-1.097,5.851,0,7.314,2.926c1.463,2.926,0,5.851-2.926,7.314c-36.571,15.36-29.623,45.349-29.257,46.811   c0.731,2.926-1.097,5.851-4.023,6.583C343.056,309.41,342.325,309.41,341.959,309.41z"/>
	<path style="fill:#33363A;" d="M354.028,336.107c-1.463,0-3.291-0.731-4.389-2.194l-3.657-4.389   c-1.829-2.194-1.463-5.851,0.731-7.68c2.194-1.829,5.851-1.463,7.68,0.731l3.657,4.389c1.829,2.194,1.463,5.851-0.731,7.68   C356.222,335.741,355.125,336.107,354.028,336.107z"/>
	<path style="fill:#33363A;" d="M390.965,65.112c-1.463,0-2.926-0.366-4.023-1.463c-2.194-2.194-2.194-5.486,0-7.68l4.754-4.754   c2.194-2.194,5.486-2.194,7.68,0s2.194,5.486,0,7.68l-4.754,4.754C393.89,64.747,392.428,65.112,390.965,65.112z"/>
	<path style="fill:#33363A;" d="M405.959,50.484c-1.463,0-2.926-0.731-4.023-1.829c-2.194-2.194-1.829-5.486,0.366-7.68   s5.851-2.194,8.046,0c2.194,2.194,2.194,5.486,0,7.68l-0.366,0.366C408.519,49.752,407.056,50.484,405.959,50.484z"/>
	<path style="fill:#33363A;" d="M346.713,35.855c-2.926,0-5.486-2.56-5.486-5.486v-6.583c0-2.926,2.56-5.486,5.486-5.486   s5.486,2.56,5.486,5.486v6.583C352.199,33.661,349.639,35.855,346.713,35.855z"/>
	<path style="fill:#33363A;" d="M346.713,15.01c-2.926,0-5.486-2.56-5.486-5.486s2.56-5.851,5.486-5.851s5.486,2.194,5.486,5.12   v0.366C352.199,12.45,349.639,15.01,346.713,15.01L346.713,15.01z"/>
	<path style="fill:#33363A;" d="M426.805,109.73h-6.583c-2.926,0-5.486-2.56-5.486-5.486s2.56-5.486,5.486-5.486h6.583   c2.926,0,5.486,2.56,5.486,5.486S430.096,109.73,426.805,109.73z"/>
	<path style="fill:#33363A;" d="M441.433,109.73L441.433,109.73c-3.291,0-5.851-2.56-5.851-5.486s2.56-5.486,5.486-5.486   s5.486,2.56,5.486,5.486S444.725,109.73,441.433,109.73z"/>
	<path style="fill:#33363A;" d="M79.376,65.844c-1.463,0-2.926-0.366-4.023-1.463l-4.754-4.754c-2.194-2.194-2.194-5.486,0-7.68   s5.486-2.194,7.68,0l4.754,4.754c2.194,2.194,2.194,5.486,0,7.68C82.302,65.478,80.839,65.844,79.376,65.844z"/>
	<path style="fill:#33363A;" d="M64.382,50.85c-1.463,0-2.926-0.731-4.023-1.829c-2.194-2.194-2.194-5.851,0-8.046   s5.486-2.194,7.68,0l0.366,0.366c2.194,2.194,1.829,5.851-0.366,7.68C67.308,50.484,65.845,50.85,64.382,50.85z"/>
	<path style="fill:#33363A;" d="M50.119,110.095h-6.583c-2.926,0-5.486-2.56-5.486-5.486s2.56-5.486,5.486-5.486h6.583   c2.926,0,5.486,2.56,5.486,5.486S53.045,110.095,50.119,110.095z"/>
	<path style="fill:#33363A;" d="M29.273,110.095c-2.926,0-5.486-2.56-5.486-5.486s2.194-5.486,5.486-5.486h0.366   c2.926,0,5.486,2.56,5.486,5.486S32.199,110.095,29.273,110.095z"/>
	<path style="fill:#33363A;" d="M123.628,36.587c-2.926,0-5.486-2.56-5.486-5.486v-6.583c0-2.926,2.56-5.486,5.486-5.486   s5.486,2.56,5.486,5.486v6.583C129.113,34.392,126.553,36.587,123.628,36.587z"/>
	<path style="fill:#33363A;" d="M123.628,15.741c-2.926,0-5.486-2.56-5.486-5.486s2.56-5.486,5.486-5.486s5.486,2.194,5.486,5.486   v0.366C129.113,13.181,126.553,15.741,123.628,15.741z"/>
</g>
<g>
</g>
<g>
</g>
<g>
</g>
<g>
</g>
<g>
</g>
<g>
</g>
<g>
</g>
<g>
</g>
<g>
</g>
<g>
</g>
<g>
</g>
<g>
</g>
<g>
</g>
<g>
</g>
<g>
</g>
</svg>
