<?xml version="1.0" encoding="iso-8859-1"?>
<!-- Generator: Adobe Illustrator 19.0.0, SVG Export Plug-In . SVG Version: 6.00 Build 0)  -->
<svg xmlns="http://www.w3.org/2000/svg" xmlns:xlink="http://www.w3.org/1999/xlink" version="1.1" id="Capa_1" x="0px" y="0px" viewBox="0 0 467.573 467.573" style="enable-background:new 0 0 467.573 467.573;" xml:space="preserve">
<path style="fill:#63C605;" d="M435.563,213.415c-52.297-51.566-104.229-103.497-156.526-155.063  c-7.68-7.314-14.629-15.726-24.869-20.114c-9.874-4.754-21.577-5.486-32.183-3.291c-9.509,2.194-17.92,7.314-24.503,13.897  C138.969,106.992,80.089,165.14,21.575,223.289c-6.583,6.583-12.069,14.994-14.263,24.137c-4.754,16.823,1.097,35.474,13.531,47.543  c41.326,40.96,82.651,81.92,123.977,122.88c9.143,9.509,22.309,14.629,35.474,14.629c34.011,0.366,67.657,0,101.303,0  c15.36,1.097,30.72-4.389,41.326-15.36c37.303-36.937,74.971-74.24,112.274-111.177c6.217-6.217,12.8-11.703,17.554-19.017  c9.143-13.166,10.606-30.72,5.12-45.349C454.215,230.238,443.975,222.192,435.563,213.415z M142.626,279.609  c-6.217,7.68-17.554,5.486-26.331,4.389c-7.68-5.851-14.629-13.166-20.846-20.48c-3.657-4.023,1.097-8.411,3.657-11.337  c38.766-38.034,77.166-76.434,115.566-114.469c5.12-5.12,9.874-10.606,15.726-14.994c5.12-2.56,8.777,2.926,12.069,5.851  c6.949,7.314,14.994,14.263,21.577,21.943c3.291,4.023-0.366,8.411-3.291,11.337C221.62,200.98,182.123,240.478,142.626,279.609z   M264.043,369.575c-6.217,6.949-12.434,13.531-19.749,19.383c-6.583,1.463-13.531,1.097-20.48,0.366  c-6.583-3.291-10.971-9.509-16.091-14.263c-3.657-3.657-9.509-9.143-4.754-14.263c8.046-9.143,16.823-17.554,25.966-25.6  c3.291-2.926,8.411-1.463,10.971,1.463c7.68,7.314,15.36,14.994,22.674,22.674C265.872,361.895,267.335,366.649,264.043,369.575z   M261.849,267.175c-21.943,21.577-43.886,43.52-65.829,65.463c-6.217,7.314-16.823,5.12-25.234,4.389  c-8.046-5.12-14.263-12.8-20.846-19.749c-4.389-4.023-0.366-9.509,2.926-12.434c21.943-21.577,43.886-43.52,65.829-65.097  c4.023-4.023,7.68-8.411,12.434-11.337c4.754-2.194,8.411,2.926,11.703,5.486c7.314,7.68,15.726,14.629,22.309,23.04  C267.7,260.226,264.409,264.249,261.849,267.175z"/>
<path style="fill:#8CF41E;" d="M21.209,256.935c58.514-58.149,117.394-116.297,175.909-174.446  c6.949-6.583,15.36-11.703,24.503-13.897c10.606-2.194,22.309-1.463,32.183,3.291c10.24,4.389,17.189,12.8,24.869,20.114  C330.969,143.563,382.9,195.495,435.197,247.06c8.777,8.777,18.651,16.823,22.674,28.526c0,0.366,0.366,0.731,0.366,1.097  c3.657-10.971,3.657-23.406-0.366-34.377c-4.023-11.703-14.263-20.114-22.674-28.526C382.9,162.215,330.969,110.283,278.672,58.717  c-7.68-7.314-14.629-15.726-24.869-20.114c-9.874-4.754-21.577-5.486-32.183-3.291c-9.509,2.194-17.92,7.314-24.503,13.897  C138.603,107.357,79.723,165.506,21.209,223.655c-6.583,6.583-12.069,14.994-14.263,24.137c-2.56,9.509-1.829,19.383,1.463,28.526  C10.969,269.003,15.723,262.42,21.209,256.935z"/>
<g>
	<path style="fill:#33363A;" d="M285.255,438.695c-1.463,0-2.56,0-4.023,0c-15.36,0-30.72,0-46.08,0c-18.286,0-36.571,0-54.857,0   c-14.629,0.366-28.891-5.851-39.497-16.091c-24.137-24.137-48.64-47.909-72.777-72.046l-51.2-50.834   C2.557,285.826-3.294,264.98,1.826,246.695c2.194-9.509,7.68-18.651,15.726-26.697C76.066,161.849,134.946,103.7,193.46,45.552   c8.046-7.68,17.189-13.166,27.429-15.36c12.8-2.56,25.234-1.463,35.84,3.657c9.143,4.023,16.091,10.606,22.674,17.189   c1.463,1.463,2.56,2.56,4.023,4.023c35.109,34.743,69.851,69.486,104.96,104.229l51.566,51.2l0,0   c1.463,1.463,2.56,2.56,4.023,4.023c8.046,7.68,16.091,15.36,20.114,26.697c6.217,16.823,4.023,36.206-5.851,50.103   c-4.023,5.851-9.143,10.606-13.897,15.36c-1.463,1.463-2.926,2.926-4.389,4.023c-17.554,17.189-35.109,34.743-52.663,51.931   c-19.749,19.749-39.863,39.497-59.977,59.246C315.975,432.478,300.98,438.695,285.255,438.695z M255.266,427.358   c8.777,0,17.554,0,26.331,0c14.263,0.731,28.16-4.389,37.303-13.531c20.114-19.749,39.863-39.497,59.977-59.246   c17.554-17.189,35.109-34.743,52.663-51.931c1.463-1.463,2.926-2.926,4.389-4.389c4.754-4.754,9.143-8.777,12.8-13.897   c7.68-11.337,9.509-26.697,4.754-40.229c-2.926-8.777-9.874-15.36-17.189-22.309c-1.463-1.463-2.926-2.926-4.389-4.023   l-51.566-50.834c-35.109-34.743-69.851-69.486-104.96-103.863c-1.463-1.097-2.56-2.56-4.023-4.023   c-6.217-6.217-11.703-12.069-19.017-14.994c-8.411-4.023-18.651-5.12-28.891-2.926c-8.046,1.829-15.36,6.217-21.943,12.434   C142.992,111.746,84.112,169.894,25.597,228.043c-6.583,6.583-10.971,13.897-12.8,21.577c-4.023,14.263,0.731,31.086,12.069,42.423   l51.2,50.834c24.137,24.137,48.64,47.909,72.777,72.046c8.411,8.411,19.749,13.166,31.451,13.166c18.286,0,36.571,0,54.857,0   C241.735,427.358,248.317,427.358,255.266,427.358z M234.42,395.54c-3.291,0-7.314-0.366-11.337-0.731   c-0.731,0-1.097-0.366-1.829-0.366c-5.12-2.56-9.143-6.583-12.8-10.606c-1.463-1.463-2.926-3.291-4.389-4.389l-0.366-0.366   c-3.657-3.291-13.166-12.8-4.754-21.943c7.68-8.411,16.457-17.189,26.331-25.966c5.851-5.12,14.263-2.926,18.651,1.829   c8.411,8.046,15.726,15.36,22.674,22.674c2.926,2.56,4.754,6.583,4.754,10.24c0,2.926-1.097,5.851-3.291,8.046   c-5.851,6.217-12.434,13.531-20.48,19.749c-0.731,0.366-1.463,0.731-2.194,1.097C242.1,395.175,238.443,395.54,234.42,395.54z    M225.643,384.203c6.583,0.731,11.703,0.731,16.091,0c6.949-5.486,13.166-12.069,18.286-17.92l0.366-0.366l0,0   c0-0.366-0.366-1.463-1.097-2.194l-0.366-0.366c-6.949-7.314-14.263-14.629-22.674-22.674l-0.366-0.366   c-1.097-1.097-2.926-1.829-3.657-1.097c-9.143,8.411-17.92,16.823-25.6,25.234c-0.366,0.366-0.366,0.731-0.366,0.731   c0,1.463,3.657,4.754,4.754,5.851c1.829,1.829,3.657,3.657,5.12,5.12C219.426,379.083,222.352,382.009,225.643,384.203z    M182.123,343.243c-2.926,0-5.851-0.366-8.777-0.731c-1.097,0-2.194-0.366-3.291-0.366c-0.731,0-1.829-0.366-2.56-0.731   c-7.314-4.754-13.166-10.971-18.651-17.189c-1.097-1.097-2.194-2.56-3.291-3.657c-2.194-1.829-3.291-4.754-3.291-7.68   c0-5.12,3.657-9.509,6.583-12.434c20.846-20.48,43.154-42.423,65.829-65.097c1.097-1.097,1.829-1.829,2.926-2.926   c2.926-3.291,6.217-6.583,10.606-9.143c0.366,0,0.366-0.366,0.731-0.366c7.314-3.291,12.8,2.194,15.726,5.12   c0.366,0.366,1.097,1.097,1.463,1.463l0.366,0.366c2.56,2.926,5.486,5.851,8.411,8.411c4.754,4.754,9.874,9.509,14.263,14.629   c2.56,2.926,5.12,9.143-3.657,17.92l-13.531,13.531c-17.554,17.189-34.743,34.377-51.931,51.566   C194.923,341.78,188.34,343.243,182.123,343.243z M172.249,331.54c0.731,0,1.463,0,2.194,0.366   c8.046,0.731,13.897,1.097,17.189-2.926l0.366-0.366c17.189-17.554,34.743-34.743,52.297-51.931l13.531-13.531l0,0   c1.829-1.829,2.56-2.926,2.56-3.291c-4.023-4.754-8.411-9.143-13.166-13.531c-2.926-2.926-5.851-5.486-8.777-8.777   c-0.731-0.366-1.097-1.097-1.829-1.829c-1.097-0.731-2.926-2.926-3.657-2.926c-2.926,1.829-5.12,4.389-7.68,6.949   c-1.097,1.097-2.194,2.194-3.291,3.291c-22.674,22.309-44.983,44.617-65.829,65.097c-2.56,2.194-3.291,4.023-3.291,4.389   l0.366,0.366c1.097,1.097,2.194,2.56,3.291,3.657C162.009,322.397,166.763,327.518,172.249,331.54z M128.363,290.58   c-4.389,0-8.411-0.731-12.069-1.097h-0.731c-1.097,0-1.829-0.366-2.56-1.097c-7.68-6.217-14.994-13.166-21.577-21.211   c-6.583-7.68,0.731-15.36,3.657-18.286l0.366-0.366c23.771-23.406,47.177-46.811,70.949-70.217   c14.994-14.629,29.989-29.623,44.617-44.251c1.463-1.463,2.926-2.926,4.389-4.389c3.657-3.657,7.314-7.68,11.703-10.971   c0.366-0.366,0.366-0.366,0.731-0.366c7.68-3.657,13.531,1.829,16.457,4.754c0.731,0.366,1.097,1.097,1.463,1.463l0.366,0.366   c2.56,2.926,5.486,5.486,8.411,8.046c4.754,4.389,9.509,9.143,13.531,14.263c2.194,2.56,5.851,9.509-3.657,18.651l-13.531,13.166   c-35.109,34.743-70.217,69.486-105.326,104.229C141.529,289.118,134.946,290.58,128.363,290.58z M118.489,278.512   c8.777,1.463,16.091,1.829,19.749-2.56l0.366-0.366c35.109-34.743,70.217-69.486,105.326-104.229l13.531-13.166   c2.926-2.926,2.926-4.023,2.926-4.023c-4.023-4.754-8.411-8.777-12.8-13.166c-2.926-2.56-5.486-5.486-8.411-8.411   c-0.731-0.366-1.097-1.097-1.829-1.829c-1.097-1.097-2.926-2.926-3.657-2.926c-3.291,2.56-6.583,5.851-9.874,9.143   c-1.463,1.463-2.926,3.291-4.754,4.754c-14.994,14.629-29.623,29.623-44.617,44.251c-23.771,23.406-47.177,46.811-70.949,70.217   l-0.366,0.366c-0.731,0.731-2.56,2.56-2.926,3.657C105.689,267.175,112.272,273.392,118.489,278.512z"/>
	<path style="fill:#33363A;" d="M78.992,438.695H55.22c-2.926,0-5.486-2.56-5.486-5.486s2.56-5.486,5.486-5.486h23.771   c2.926,0,5.486,2.56,5.486,5.486S81.917,438.695,78.992,438.695z"/>
	<path style="fill:#33363A;" d="M194.557,438.695h-68.754c-2.926,0-5.486-2.56-5.486-5.486s2.56-5.486,5.486-5.486h68.754   c2.926,0,5.486,2.56,5.486,5.486S197.849,438.695,194.557,438.695z"/>
	<path style="fill:#33363A;" d="M104.957,438.695h-4.389c-2.926,0-5.486-2.56-5.486-5.486s2.56-5.486,5.486-5.486h4.389   c2.926,0,5.486,2.56,5.486,5.486S107.883,438.695,104.957,438.695z"/>
</g>
<g>
</g>
<g>
</g>
<g>
</g>
<g>
</g>
<g>
</g>
<g>
</g>
<g>
</g>
<g>
</g>
<g>
</g>
<g>
</g>
<g>
</g>
<g>
</g>
<g>
</g>
<g>
</g>
<g>
</g>
</svg>
