<?xml version="1.0" encoding="iso-8859-1"?>
<!-- Generator: Adobe Illustrator 19.0.0, SVG Export Plug-In . SVG Version: 6.00 Build 0)  -->
<svg xmlns="http://www.w3.org/2000/svg" xmlns:xlink="http://www.w3.org/1999/xlink" version="1.1" id="Capa_1" x="0px" y="0px" viewBox="0 0 467.749 467.749" style="enable-background:new 0 0 467.749 467.749;" xml:space="preserve">
<g>
	<path style="fill:#FA7B7A;" d="M424.958,295.132c0-0.366,0-0.366-0.366-0.731c-0.731-1.463-0.731-1.463-1.463-3.291   c-31.451-69.851-64.366-138.606-99.109-207.36c-0.731-1.829-1.463-2.926-3.291-6.217l0,0c-5.486-11.337-8.411-16.091-11.703-22.309   c-6.217-11.337-12.434-20.114-20.114-27.429c-13.531-13.166-31.817-21.212-50.834-22.309h-8.411   c-19.749,1.097-38.766,9.143-52.663,23.04c-7.314,6.949-13.166,15.726-19.383,26.697c-3.291,6.217-6.217,11.703-11.703,22.309   c-0.366,0.731-0.366,0.731-0.731,1.097c-1.097,2.56-1.829,3.291-2.56,4.754c-23.04,45.714-45.349,91.794-67.291,138.606   c-16.091,34.377-27.429,59.246-38.4,83.749c-6.583,15.36-10.606,26.697-12.069,39.131c-3.657,23.406,1.463,48.274,13.897,68.754   c10.606,17.554,26.697,31.817,45.349,40.229c14.629,6.583,30.72,9.143,46.446,8.411c20.114-1.097,40.229-8.046,58.88-19.749   c14.994-9.143,28.526-20.846,43.52-36.937c-2.194-2.194-4.389-4.754-6.583-7.314h13.531c-2.194,2.56-4.389,4.754-6.583,7.314   c13.897,14.263,26.331,25.234,39.863,34.377c18.286,12.434,38.034,20.114,58.149,21.943c23.04,2.56,47.177-3.291,66.56-16.457   c17.189-11.337,30.354-28.16,38.034-47.543c4.754-12.434,7.314-25.966,6.949-39.497c0-13.166-2.926-26.697-8.046-39.863   C432.272,311.954,430.078,306.469,424.958,295.132z M233.689,350.354l-7.314-5.486c2.56-3.291,4.754-6.583,6.949-9.509   c-1.463-2.194-3.657-4.754-5.851-8.046c-0.366-0.731-0.366-0.731-0.731-1.097c-0.366-0.366-0.366-0.366-0.366-0.731   c-8.046-12.069-14.629-23.771-19.749-35.474c-4.754-11.337-8.046-21.577-9.143-31.086c-1.097-9.143-0.366-16.823,1.829-23.406   c2.194-6.583,6.949-12.069,12.434-15.726c14.263-9.509,34.377-8.046,47.177,2.926c5.851,5.12,9.874,13.166,10.971,21.943   c1.097,10.971-0.731,23.406-5.851,36.937c-6.583,17.554-16.457,34.743-30.354,54.491c2.56,3.657,4.754,6.583,6.949,9.143   L233.689,350.354z M396.067,377.417L396.067,377.417c-4.023,13.897-13.531,26.331-26.331,33.28   c-10.971,6.217-24.503,8.411-36.937,6.217c-14.994-2.56-29.989-10.24-45.714-23.04c-7.68-6.217-14.994-13.166-23.406-22.309   c-1.463,2.194-2.926,4.023-4.754,6.217l-0.366-11.703c1.829,1.829,3.291,3.657,5.12,5.486   c14.994-19.749,25.966-36.937,34.743-54.857c10.971-22.309,16.823-43.154,17.554-63.634c0.366-15.36-2.56-30.354-9.143-43.154   c-8.777-17.554-24.869-31.451-43.886-38.4c-17.189-6.217-36.206-6.949-53.76-1.829c-16.823,4.754-32.183,15.36-42.423,29.257   c-9.143,12.069-14.263,27.063-15.726,42.789c-1.463,19.383,2.56,39.863,10.971,61.44c9.509,23.04,23.04,45.349,40.96,68.754   c1.829-1.829,3.291-3.657,4.754-5.486v11.703c-1.463-2.194-3.291-4.023-4.754-6.217c-6.217,6.949-12.8,13.166-20.114,19.749   c-15.36,13.166-29.989,21.943-45.349,25.234c-13.166,2.926-27.063,1.463-38.766-4.389c-13.897-6.949-24.503-20.114-28.526-35.474   c-2.926-10.971-2.56-23.04,1.463-34.377c2.194-6.583,4.389-12.069,9.874-23.771c0.366-0.366,0.366-0.366,0.366-1.097   c1.097-2.194,1.463-3.657,2.194-5.12c30.72-68.389,63.269-136.411,97.646-204.069c0.731-1.463,1.463-2.56,2.56-5.12   c0,0,0,0,0-0.366c6.217-12.069,8.777-17.554,12.434-24.137c4.754-8.777,9.143-14.629,14.263-18.651   c6.217-4.754,13.897-7.68,21.577-7.314c8.046,0,16.091,2.926,22.309,8.046c5.486,4.754,9.874,10.971,15.36,21.577   c8.046,15.36,14.994,29.623,28.16,55.589c1.097,2.194,1.097,2.194,2.194,4.754c0,0.366,0,0.366,0.366,0.366   c28.891,58.514,56.686,117.029,83.017,175.909c0.366,0.731,0.731,1.463,1.463,2.926c0.366,0.731,0.366,0.731,0.366,1.097   c5.12,11.337,6.949,16.457,8.777,22.674C398.627,355.84,398.992,367.177,396.067,377.417z"/>
	<path style="fill:#FA7B7A;" d="M227.107,398.263c2.194,2.56,4.389,4.754,6.583,7.314c2.194-2.194,4.389-4.754,6.583-7.314H227.107z   "/>
	<path style="fill:#FA7B7A;" d="M226.741,344.503l7.314,5.486l6.949-5.851c-2.194-2.926-4.389-5.486-6.949-9.143   C231.495,338.286,228.935,341.211,226.741,344.503z"/>
	<path style="fill:#FA7B7A;" d="M258.924,378.149c1.463-2.194,3.291-4.023,4.754-6.217c-1.829-1.829-3.291-3.657-5.12-5.486   L258.924,378.149z"/>
</g>
<path style="fill:#DD4B4B;" d="M227.838,326.949c-0.366-0.731-0.366-0.731-0.731-1.097c-0.366-0.366-0.366-0.366-0.366-0.731  c-8.046-12.069-14.629-23.771-19.749-35.474c-4.754-11.337-8.046-21.577-9.143-31.086c-1.097-9.143-0.366-16.823,1.829-23.406  s6.949-12.069,12.434-15.726c14.263-9.509,34.377-8.046,47.177,2.926c5.851,5.12,9.874,13.166,10.971,21.943  c1.097,9.874-0.366,20.48-4.389,32.183c22.309-69.12,5.12-103.497-20.846-108.617c-11.703-1.463-23.771-0.731-35.474,2.56  c-16.823,4.754-32.183,15.36-42.423,29.257c-9.143,12.069-14.263,27.063-15.726,42.789c-1.463,19.749,2.56,39.863,10.971,61.44  c9.509,23.04,23.04,44.983,40.96,68.389c9.874-10.24,19.749-22.309,29.989-36.571C231.861,332.434,230.032,329.874,227.838,326.949z  "/>
<path style="fill:#33363A;" d="M203.335,377.052L203.335,377.052c-1.829,0-3.291-0.731-4.389-2.194  c-19.017-24.869-32.183-46.811-41.691-69.486c-9.509-23.406-13.166-44.251-11.703-64c1.463-16.823,6.949-32.549,16.823-45.714  c10.971-14.994,27.063-25.966,45.349-31.086c12.069-3.657,24.869-4.389,37.669-2.926h0.366c11.337,2.194,20.48,9.143,26.697,19.749  c8.777,14.629,15.36,43.154-1.463,95.817l0,0l0,0l0,0c-1.097,2.926-4.023,4.389-6.949,3.657c-2.926-1.097-4.389-4.023-3.657-6.949  c0,0,0,0,0-0.366c3.657-11.337,5.12-21.211,4.023-29.623c-0.731-7.314-4.023-13.897-9.143-18.286  c-10.606-9.509-28.526-10.24-40.594-2.56c-4.754,2.926-8.411,7.68-10.24,13.166c-2.194,5.486-2.56,12.434-1.829,20.846  c1.097,9.143,4.023,18.651,8.777,29.623c5.12,10.971,11.337,22.309,19.383,34.743l1.097,1.829c2.194,3.291,4.023,5.486,5.486,7.68  c1.463,1.829,1.463,4.389,0,6.217c-10.24,14.263-20.48,27.063-30.354,37.303C206.261,376.32,204.798,377.052,203.335,377.052z   M233.689,171.886c-7.68,0-15.36,1.097-22.674,3.291c-15.726,4.754-29.989,14.263-39.497,27.063  c-8.411,10.971-13.531,25.234-14.629,39.863c-1.463,17.92,1.829,37.303,10.606,58.88c8.411,20.114,19.749,39.863,36.206,61.806  c7.314-8.046,14.994-17.554,22.674-28.16c-1.097-1.463-2.194-2.926-3.291-4.754l0,0l-0.731-1.097  c-0.366-0.366-0.366-0.366-0.366-0.731c-8.411-12.8-14.994-24.503-20.48-36.206c-5.12-12.069-8.411-22.674-9.509-32.914  s-0.366-18.651,2.194-25.966c2.56-7.314,8.046-13.897,14.629-18.286c16.091-10.606,39.497-9.143,53.76,3.291  c2.926,2.56,5.486,5.486,7.314,9.143c1.097-16.457-1.463-30.354-6.949-40.229c-4.389-7.68-11.337-12.8-19.017-14.263  C240.638,172.252,236.981,171.886,233.689,171.886z"/>
<path id="SVGCleanerId_0" style="fill:#FA7B7A;" d="M442.878,358.4L442.878,358.4L442.878,358.4z"/>
<g>
	<path style="fill:#FA7B7A;" d="M208.455,366.08c-1.463,1.829-3.291,3.657-4.754,5.486c1.463,2.194,2.926,4.023,4.754,6.217V366.08z   "/>
	<path style="fill:#FA7B7A;" d="M227.107,398.263c2.194,2.56,4.389,4.754,6.583,7.314c2.194-2.194,4.389-4.754,6.583-7.314H227.107z   "/>
	<path style="fill:#FA7B7A;" d="M258.924,378.149c1.463-2.194,3.291-4.023,4.754-6.217c-1.829-1.829-3.291-3.657-5.12-5.486   L258.924,378.149z"/>
</g>
<g>
	<path id="SVGCleanerId_0_1_" style="fill:#FA7B7A;" d="M442.878,358.4L442.878,358.4L442.878,358.4z"/>
</g>
<path style="fill:#BA3A3A;" d="M261.849,285.989c7.314-14.994,11.703-35.474,11.703-58.149c0-45.349-17.92-58.149-40.229-58.149  s-40.229,12.8-40.229,58.149c0,21.943,4.389,41.691,10.971,56.686c-3.657-9.143-6.217-17.554-6.949-25.966  c-1.097-9.143-0.366-16.823,1.829-23.406s6.949-12.069,12.434-15.726c14.263-9.509,34.377-8.046,47.177,2.926  c5.851,5.12,9.874,13.166,10.971,21.943c1.097,10.971-0.731,23.406-5.851,36.937C263.678,282.332,262.581,284.16,261.849,285.989z"/>
<path style="fill:#33363A;" d="M261.849,291.474c-0.731,0-1.463,0-2.194-0.366c-2.56-1.097-4.023-4.389-2.926-6.949  c0.366-0.731,0.731-1.463,1.097-2.194c0.366-1.097,0.731-1.829,1.097-2.926c4.754-13.166,6.583-24.503,5.486-34.377  c-0.731-7.314-4.023-13.897-9.143-18.286c-10.606-9.143-28.526-10.24-40.594-2.56c-4.754,2.926-8.411,7.68-10.24,13.166  c-2.194,5.486-2.56,12.434-1.829,20.846c1.097,7.314,3.291,15.36,6.583,24.503c1.097,2.926-0.366,5.851-2.926,6.949  c-2.56,1.097-5.851,0-7.314-2.56c-7.314-16.091-11.703-36.937-11.703-58.88c0-42.423,15.36-63.634,45.714-63.634  s45.714,21.577,45.714,63.634c0,22.674-4.389,44.251-12.434,60.709C265.872,290.377,264.044,291.474,261.849,291.474z   M233.689,174.811c-14.629,0-33.646,5.12-34.743,49.006c2.56-3.657,6.217-6.949,9.874-9.509c16.091-10.606,39.497-9.143,53.76,3.291  c2.194,1.829,4.023,4.023,5.486,6.217C267.335,180.297,248.318,174.811,233.689,174.811z"/>
<path style="fill:#DD4B4B;" d="M440.318,382.903c1.829-8.046,2.926-16.091,2.56-24.503c0-13.166-2.926-26.697-8.046-39.863  c-2.56-6.583-4.754-11.703-9.874-23.406c0-0.366,0-0.366-0.366-0.731c-0.731-1.463-0.731-1.463-1.463-3.291  c-31.451-69.851-64.366-138.606-99.109-207.36c-0.731-1.829-1.463-2.926-3.291-6.217l0,0c-5.486-11.337-8.411-16.091-11.703-22.309  c-6.217-11.337-12.434-20.114-20.114-27.429c-6.583-6.583-14.629-11.703-23.04-15.36c-2.56,0-8.777-2.56-11.703-1.463  c-20.114,7.68-40.594,30.354-62.537,78.629c2.194-4.389,4.023-8.046,6.217-11.703c4.754-8.777,9.143-14.629,14.263-18.651  c6.217-4.754,13.897-7.68,21.577-7.314c8.046,0,16.091,2.926,22.309,8.046c5.486,4.754,9.874,10.971,15.36,21.577  c8.046,15.36,14.994,29.623,28.16,55.589c1.097,2.194,1.097,2.194,2.194,4.754c0,0.366,0,0.366,0.366,0.366  c28.891,58.514,56.686,117.029,83.017,175.909c0.366,0.731,0.731,1.463,1.463,2.926c0.366,0.731,0.366,0.731,0.366,1.097  c5.12,11.337,6.949,16.457,8.777,22.674c2.926,10.606,2.926,21.577,0,31.817l0,0c-4.023,13.897-13.531,26.331-26.331,33.28  c-10.971,6.217-24.503,8.411-36.937,6.217c-4.754-0.731-9.509-2.194-14.263-4.023c19.017,8.411,38.4,12.069,58.149,8.777  C401.918,418.012,423.495,403.749,440.318,382.903z"/>
<g>
	<path style="fill:#BA3A3A;" d="M424.958,295.132c0-0.366,0-0.366-0.366-0.731c-0.731-1.463-0.731-1.463-1.463-3.291   c-9.874-22.309-20.114-44.251-30.354-66.194c2.56,20.48,24.503,63.634,22.674,100.937c-2.194,49.371-21.577,72.411-42.423,82.651   c-1.097,0.731-2.194,1.463-3.291,2.194c-10.971,6.217-24.503,8.411-36.937,6.217c-2.56-0.366-5.12-1.097-7.68-1.829   c-0.731,0-1.463-0.366-2.194-0.366c17.554,7.314,35.84,9.874,53.76,6.949c25.234-4.023,46.811-18.286,63.634-39.497   c1.829-8.046,2.926-16.091,2.56-24.503c0-13.166-2.926-26.697-8.046-39.863C432.272,311.954,430.078,306.469,424.958,295.132z"/>
	<path style="fill:#BA3A3A;" d="M322.192,80.092c-0.366-0.731-0.731-1.097-1.097-2.194l0,0   c-5.486-11.337-8.411-16.091-11.703-22.309c-6.217-11.337-12.434-20.114-20.114-27.429c-6.583-6.583-14.629-11.703-23.04-15.36   c-2.56,0-8.777-2.56-11.703-1.463c-20.114,7.68-40.594,30.354-62.537,78.629c2.194-4.389,4.023-8.046,6.217-11.703   c4.754-8.777,9.143-14.629,14.263-18.651c6.217-4.754,13.897-7.68,21.577-7.314c8.046,0,16.091,2.926,22.309,8.046   c5.486,4.754,9.874,10.971,15.36,21.577c8.046,15.36,14.994,29.623,28.16,55.589c1.097,2.194,1.097,2.194,2.194,4.754   c0,0.366,0,0.366,0.366,0.366c8.411,16.823,16.457,33.646,24.503,50.469c0.731-11.337,1.097-23.04,1.097-34.743   C328.044,130.56,325.849,104.229,322.192,80.092z"/>
</g>
<path style="fill:#33363A;" d="M362.055,428.617c-14.994,0-30.354-3.657-45.714-10.606c-2.56-1.097-4.023-4.389-2.926-6.949  c1.097-2.56,4.389-4.023,6.949-2.926c4.754,1.829,8.777,2.926,13.166,3.657c11.703,1.829,23.406,0,33.646-5.851  c10.971-6.217,19.749-17.554,23.406-29.989c0,0,0,0,0-0.366c2.56-9.143,2.56-19.383,0-28.891  c-1.463-5.851-3.291-10.606-8.411-21.943l-1.829-4.023c-25.966-58.149-54.126-117.394-83.017-175.543l4.754-2.926l-4.754,2.56  l-2.194-4.754c-13.531-27.429-20.48-40.594-28.16-55.589c-5.486-10.606-9.509-15.726-13.897-19.749  c-5.12-4.389-12.069-6.949-18.651-6.949c-6.583-0.366-13.166,2.194-18.286,6.217c-4.389,3.291-8.411,8.411-12.8,16.823  c-2.194,3.657-3.657,7.314-6.217,11.703c-1.463,2.56-4.754,3.657-7.314,2.56c-2.56-1.463-3.657-4.389-2.56-7.314  c21.211-46.446,42.057-72.411,65.829-81.554c3.291-1.097,7.314-0.366,10.606,0.366c1.097,0.366,2.194,0.731,2.926,0.731  s1.463,0,2.56,0.366c9.143,4.023,17.554,9.509,24.869,16.457c7.68,7.314,14.629,16.457,21.211,28.526  c3.657,6.583,6.217,12.069,11.703,22.674v0.366l2.926,5.851c34.377,68.023,67.657,137.874,99.109,207.36l1.829,4.023  c5.12,11.337,7.314,16.823,9.874,23.406c5.486,14.263,8.411,28.526,8.411,41.691c0,8.411-0.731,16.823-2.926,25.6  c0,0.731-0.366,1.463-1.097,2.194c-18.286,23.04-41.326,37.303-67.291,41.326C372.295,428.252,367.175,428.617,362.055,428.617z   M401.187,378.514C401.187,378.88,401.187,378.88,401.187,378.514c-4.389,15.726-14.994,29.257-28.891,36.937  c-1.097,0.731-2.56,1.463-3.657,1.829c2.194,0,4.754-0.366,6.949-0.731c22.674-3.657,43.154-16.091,59.611-36.571  c1.463-7.314,2.194-14.629,2.194-21.943c0-12.069-2.926-24.868-7.68-38.034c-2.56-6.583-4.754-11.703-9.874-23.04l-1.829-4.023  c-31.086-69.486-64.366-138.971-98.743-206.994l-3.291-6.217c-5.486-10.606-8.046-16.091-11.703-22.309  c-6.217-11.337-12.434-19.383-19.017-25.966c-5.851-5.851-12.8-10.606-20.48-13.897c-1.463,0-2.926-0.366-4.389-0.731  c-1.097-0.366-3.657-0.731-4.389-0.731c-12.069,4.754-23.771,15.36-35.474,32.549c4.389-1.463,8.777-2.194,13.531-2.194  c9.143,0,18.651,3.291,25.966,9.509c5.851,5.12,10.606,11.337,16.823,23.04c7.68,14.629,14.629,28.16,28.16,55.589l2.194,4.754  c0,0.366,0,0.366,0.366,0.731c28.891,58.514,57.051,117.76,83.017,175.909l1.829,4.023c4.754,10.971,6.949,16.457,9.143,23.406  C404.478,355.474,404.478,367.543,401.187,378.514z"/>
<path style="fill:#DD4B4B;" d="M37.667,306.103c-6.583,15.36-10.606,26.697-12.069,39.131c-1.829,12.434-1.097,25.6,1.463,38.034  c26.331,40.96,50.103,38.4,81.92,38.4c13.897,0,27.429-2.926,39.863-8.411c-3.291,1.097-6.949,2.194-10.24,2.926  c-13.166,2.926-27.063,1.463-38.766-4.389c-13.897-6.949-24.503-20.114-28.526-35.474c-2.926-10.971-2.56-23.04,1.463-34.377  c2.194-6.583,4.389-12.069,9.874-23.771c0.366-0.366,0.366-0.366,0.366-1.097c1.097-2.194,1.463-3.657,2.194-5.12  c23.406-51.931,47.909-103.863,73.509-155.794"/>
<path style="fill:#BA3A3A;" d="M99.838,411.794c-13.897-6.949-24.503-20.114-28.526-35.474c-2.926-10.971-2.56-23.04,1.463-34.377  c0.731-2.194,1.463-4.389,2.56-6.583c-10.971,20.114-24.137,32.183-38.766,32.183c-4.023,0-7.68-1.097-11.337-2.56  c0.366,6.217,1.097,12.069,2.56,18.286c26.331,40.96,47.177,44.251,78.994,44.251c13.897,0,34.011-4.023,42.789-13.897  c-3.291,1.097-6.949,2.194-10.24,2.926C125.438,419.474,111.541,418.012,99.838,411.794z"/>
<path style="fill:#33363A;" d="M106.055,432.64c-32.183,0-55.589-3.291-83.383-46.811c-0.366-0.366-0.731-1.097-0.731-1.829  c-1.463-6.217-2.194-12.434-2.56-19.017c0-2.926,2.194-5.486,5.12-5.851c2.926,0,5.486,2.194,5.851,5.12  c0.366,5.486,1.097,10.971,2.194,16.091c25.234,38.766,44.617,40.96,73.874,40.96c1.463,0,2.926,0,4.389,0  c-4.389-1.097-8.777-2.926-13.166-4.754c-14.994-7.68-26.697-22.309-31.451-38.766c-3.291-11.703-2.926-25.234,1.463-37.669  c0.731-2.194,1.463-4.389,2.56-6.949c1.097-2.926,4.389-4.023,6.949-3.291c2.926,1.097,4.389,4.389,3.291,6.949  c-0.731,2.194-1.463,4.023-2.194,6.217c-3.291,10.24-4.023,21.577-1.097,31.451c3.657,13.897,13.166,25.6,25.6,32.183  c10.24,5.486,23.04,6.949,35.109,4.023c2.926-0.731,6.217-1.463,9.509-2.926c2.194-0.731,5.12,0,6.583,2.194  c1.463,2.194,1.097,4.754-0.366,6.949C142.992,427.886,122.147,432.64,106.055,432.64z"/>
<path style="fill:#DD4B4B;" d="M287.084,394.24c-7.68-6.217-14.994-13.166-23.04-22.309c-1.463,1.829-2.926,3.657-4.389,5.12  c-0.366,0.366-0.366,0.366-0.366,0.731l0,0c-3.291,4.023-6.949,8.411-10.971,12.434c-4.754,5.486-9.509,10.606-14.263,15.36  c10.971,11.337,20.846,20.48,31.451,28.526c5.851-3.291,11.703-7.68,16.091-12.8c5.486-6.217,9.874-13.531,12.8-21.577  C291.838,397.897,289.278,396.069,287.084,394.24z"/>
<path style="fill:#33363A;" d="M265.141,439.589c-1.097,0-2.194-0.366-3.291-1.097c-10.606-8.046-20.846-17.189-32.183-28.891  c-2.194-2.194-2.194-5.486,0-7.68c5.12-5.12,9.874-10.24,14.263-14.994c3.291-3.657,6.583-7.68,10.606-12.434l0.366-0.366l0,0  c1.463-1.829,2.926-3.657,4.389-5.486c1.097-1.097,2.56-1.829,4.023-2.194c1.463,0,3.291,0.731,4.389,1.829  c8.411,9.143,15.36,15.726,22.674,21.577c2.194,1.829,4.389,3.657,6.949,5.12c2.56,1.829,2.926,5.12,1.097,7.68  s-5.12,2.926-7.68,1.097s-4.754-3.657-7.314-5.486c-6.217-5.12-12.434-10.971-19.383-18.286l-0.366,0.366  c0,0.366-0.366,0.366-0.731,0.731l-0.366,0.366c-4.023,4.754-7.314,8.411-10.606,12.069c-3.291,4.023-6.949,7.68-10.971,11.703  c9.509,9.509,17.92,17.189,27.063,23.771c2.56,1.829,2.926,5.12,1.097,7.68C268.432,438.857,266.969,439.589,265.141,439.589z"/>
<g>
	<path style="fill:#DD4B4B;" d="M224.912,414.354c-7.314,6.949-14.629,13.166-21.211,18.651   C210.649,427.52,217.598,421.669,224.912,414.354z"/>
	<path style="fill:#DD4B4B;" d="M200.409,435.566c0.731-0.366,1.097-1.097,1.829-1.463   C201.507,434.469,201.141,434.834,200.409,435.566z"/>
</g>
<path style="fill:#33363A;" d="M341.941,467.749c-3.657,0-7.314-0.366-10.971-0.731c-20.48-1.829-40.96-9.509-60.343-23.04  c-9.509-6.217-18.651-13.531-28.16-22.674l-0.731-0.731c-1.097-1.097-2.194-1.829-3.291-2.926l-4.389-4.389  c-0.366-0.366-0.366-0.366-0.731-0.731c-14.263,14.629-27.063,25.234-40.594,33.646c-19.749,12.434-40.96,19.749-61.44,20.846  c-16.823,1.097-33.646-2.194-49.006-8.777c-19.749-8.777-36.571-23.771-47.909-42.423c-8.411-13.897-13.897-29.989-15.36-46.446  c-0.366-1.829-0.366-4.023-0.366-5.851c0-0.731,0-1.829,0-2.56v-0.366c0-2.56,0-4.754,0-7.314v-1.463  c0.366-2.926,0.366-5.851,0.731-8.411c1.829-12.069,5.486-23.771,12.8-40.229c10.606-24.137,21.943-48.64,38.4-84.114  c21.943-46.814,44.617-93.625,67.657-138.608c0.731-1.463,1.097-2.56,2.56-4.754l0.731-1.097c5.12-10.24,8.046-16.091,11.703-22.309  c6.583-12.069,13.166-20.846,20.48-27.794C188.707,9.874,208.455,1.097,230.032,0h8.411c15.36,1.097,30.354,5.851,42.789,14.263  c0,0,0.366,0,0.366,0.366c1.829,1.097,3.657,2.56,5.851,4.023c1.829,1.463,3.657,3.291,5.486,5.12  c7.68,7.314,14.629,16.457,21.211,28.526c3.657,6.583,6.217,12.069,11.703,22.674v0.366l0.731,1.829v0.366l1.829,3.657  c23.04,45.349,46.08,92.526,68.389,140.8v0.366l0.731,1.829c3.657,8.046,7.314,15.726,10.971,23.771  c6.217,13.531,12.434,27.063,18.651,40.594l1.829,4.023c5.12,11.703,7.314,16.823,9.874,23.406  c5.486,14.263,8.411,28.16,8.411,41.691c0,2.194,0,4.023,0,6.217v0.366c-0.366,12.069-2.926,23.771-7.314,34.743  c-8.046,20.48-22.309,38.034-40.229,50.103C383.632,461.532,362.787,467.749,341.941,467.749z M230.032,11.337  c-18.286,1.097-35.84,8.411-48.64,21.577c-6.583,6.217-12.434,14.263-18.651,25.234c-3.657,6.217-6.217,12.069-11.337,21.943  l-0.731,1.097c-1.097,2.56-1.829,3.657-2.56,4.754c-22.674,44.983-45.349,91.794-67.291,138.24  c-16.457,35.474-27.429,59.611-38.4,83.749c-6.949,15.726-10.24,26.331-11.703,37.669c-0.366,2.56-0.731,4.754-0.731,7.68v1.097  c0,2.194,0,4.389,0,6.583v0.366c0,0.731,0,1.463,0,2.194c0,1.829,0.366,3.657,0.366,5.12c1.463,14.994,6.217,29.257,13.897,41.691  c10.24,16.823,25.6,30.354,43.154,38.034c13.897,6.217,28.891,8.777,43.886,8.046c18.651-1.097,38.034-7.68,55.954-19.017  c13.897-8.777,27.063-19.749,42.423-36.206c1.097-1.097,2.56-1.829,4.023-1.829l0,0c1.463,0,2.926,0.731,4.023,1.829l1.463,1.463  c1.097,1.097,1.829,1.829,2.926,2.926l4.023,4.023c1.097,1.097,2.194,2.194,2.926,2.926l0.366,0.366  c9.143,8.777,17.92,15.726,26.697,21.577c18.286,12.069,36.937,19.383,55.589,21.211c21.943,2.194,44.617-3.291,62.903-15.726  c16.091-10.971,28.891-26.697,35.84-44.983c4.023-9.874,6.217-20.48,6.583-31.451c0-2.194,0-4.023,0-5.851  c0-12.069-2.926-24.869-7.68-38.034c-2.56-6.583-4.754-11.703-9.874-23.04l0,0l-1.829-3.657  c-6.217-13.531-12.434-27.063-18.651-40.594c-3.657-8.046-7.314-15.726-10.971-23.771l-0.731-1.463l0,0l0,0l0,0  c-22.674-48.274-45.714-95.817-68.389-140.8l-2.194-4.023c0,0,0,0,0-0.366l-1.097-1.829c-5.486-10.606-8.046-16.091-11.703-22.674  c-6.217-11.337-12.434-19.383-19.017-25.966c-1.463-1.463-3.291-2.926-4.754-4.389s-3.291-2.56-5.12-3.657  c-10.971-7.314-24.137-11.703-37.303-12.8L230.032,11.337z M342.307,423.497c-3.657,0-6.949-0.366-10.606-0.731  c-1.463-0.366-3.291-0.731-4.754-1.097c-1.097-0.366-2.194-0.731-3.657-0.731l0,0h-0.366h-0.366  c-1.829-0.731-4.023-1.097-5.851-2.194l0,0c-8.411-3.291-16.823-8.046-25.6-14.263c-0.731-0.731-1.463-1.097-2.194-1.829  l-0.366-0.366c-1.463-1.097-2.926-2.194-4.389-3.657c-6.583-5.486-13.166-11.337-20.48-19.383l-1.097-1.097  c-0.731-0.731-1.463-1.829-2.56-2.56c-1.829-1.829-1.829-4.754-0.366-6.949c15.36-20.114,25.966-36.937,34.377-54.126  c10.971-22.309,16.457-42.423,17.189-61.44c0.366-14.629-2.56-28.891-8.777-40.594c-8.411-16.457-23.04-29.257-40.96-35.84  c-6.583-2.194-13.531-4.023-20.846-4.389h-1.463c-1.829,0-3.657,0-5.486,0h-0.366c-0.731,0-1.463,0-1.829,0c-0.731,0-1.829,0-2.56,0  c-1.097,0-2.56,0-3.657,0.366l-2.194,0.366c-1.463,0.366-3.291,0.366-4.754,0.731l-1.463,0.366  c-1.829,0.366-3.657,0.731-5.486,1.463c-15.726,4.754-29.989,14.263-39.497,27.063c-8.411,11.337-13.531,24.869-14.629,39.863  c-1.463,17.92,1.829,37.303,10.606,58.88c2.194,5.486,4.754,10.971,7.68,16.823c0.731,1.097,1.097,2.194,1.829,3.291l1.463,2.56  c0.366,0.731,0.731,1.463,1.097,2.194c7.68,13.531,16.823,27.429,28.16,42.423c1.463,2.194,1.463,5.12-0.366,6.949  c-6.217,6.949-13.166,13.897-20.48,20.114l0,0c-12.8,11.337-25.234,18.651-37.303,23.406c-1.463,0.731-3.291,1.097-4.754,1.463  c-1.829,0.731-3.657,1.097-5.486,1.463c-14.629,3.291-29.623,1.463-42.423-5.12c-14.994-7.68-26.697-22.309-31.451-38.766  c-3.291-11.703-2.926-25.234,1.463-37.669c0.366-1.097,0.731-2.194,1.097-3.291l0.366-0.731c0.366-0.731,0.731-1.829,1.097-2.926  l0,0c1.829-4.389,3.657-9.143,7.68-17.554l0.366-1.097c1.097-2.194,1.463-3.657,2.194-5.12  c5.851-13.166,12.434-27.794,20.846-45.714c1.829-4.023,4.023-8.411,5.851-12.8l1.829-4.023c4.389-9.509,9.143-19.383,13.531-28.891  c2.926-6.583,6.217-12.8,9.143-19.383c4.389-9.509,9.143-19.017,13.897-28.526l2.56-5.486c1.829-3.657,3.657-7.68,5.486-11.337  c0,0,0,0,0-0.366c8.411-17.189,16.457-33.28,24.137-48.274l2.926-5.851c2.56-5.12,4.389-8.777,6.217-12.069  c2.194-4.389,4.023-8.046,6.217-11.703c5.486-9.874,10.24-15.726,15.726-20.114c7.314-5.851,16.091-8.777,25.234-8.411  c9.509,0,18.651,3.291,25.966,9.509c5.851,5.12,10.606,11.337,16.823,23.04c7.68,14.629,14.629,28.16,28.16,55.589l2.194,4.754  c0,0.366,0,0.366,0.366,0.731c5.851,11.337,11.337,23.04,16.823,34.743l2.56,5.12c1.829,3.657,3.657,7.314,5.12,10.606  c20.48,42.423,40.229,84.846,58.514,125.806l1.829,4.023c4.754,10.971,6.949,16.457,9.143,23.406  c3.291,11.337,3.291,23.771,0,34.743c0,0,0,0,0,0.366c-4.023,13.897-13.166,26.331-24.869,34.377c0,0,0,0-0.366,0  c-1.097,0.731-2.194,1.463-3.657,2.194C363.152,420.937,352.912,423.497,342.307,423.497z M326.215,409.966L326.215,409.966  c1.463,0.366,2.194,0.731,3.291,0.731c1.463,0.366,2.56,0.731,4.023,0.731c11.703,1.829,23.406,0,33.646-5.851  c1.097-0.731,2.194-1.097,2.926-1.829c0,0,0,0,0.366,0c9.874-6.583,17.189-16.823,20.48-27.794c0,0,0,0,0-0.366  c2.56-9.143,2.56-19.383,0-28.891c-1.463-5.851-3.291-10.606-8.411-21.943l-1.829-4.023c-18.286-40.96-38.034-83.017-58.514-125.44  c-1.829-3.657-3.291-7.314-5.12-10.606l-2.56-5.12c-5.486-11.703-11.337-23.04-16.823-34.743l4.754-2.926l-4.754,2.56l-2.194-4.754  c-13.531-27.429-20.48-40.594-28.16-55.589c-5.486-10.606-9.509-15.726-13.897-19.749c-5.12-4.389-12.069-6.949-18.651-6.949  s-13.166,2.194-18.286,6.217c-4.389,3.291-8.411,8.411-12.8,16.823c-2.194,3.657-3.657,6.949-6.217,11.703  c-1.829,3.291-3.657,6.949-6.217,12.069l-0.366,0.366l-0.366,0.366l-2.56,5.12c-7.68,14.994-15.36,30.72-23.771,47.909  c0,0,0,0,0,0.366c-1.829,4.023-3.657,7.68-5.486,11.337l-2.56,5.486c-4.754,9.509-9.143,19.017-13.897,28.526  c-2.926,6.583-6.217,12.8-9.143,19.383c-4.389,9.509-9.143,19.383-13.531,28.891l-1.83,4.023c-1.829,4.023-4.023,8.411-5.851,12.434  c-8.046,17.92-14.994,32.183-20.846,45.349c-0.731,1.463-1.097,2.926-2.194,5.12L88.501,320c-3.657,8.046-5.851,12.8-7.314,16.823  c0,0,0,0,0,0.366c-0.366,1.097-0.731,1.829-1.097,2.926v0.366c-0.366,1.097-0.731,2.194-1.097,2.926  c-3.657,10.24-4.023,21.577-1.097,31.451c3.657,13.897,13.166,25.6,25.6,32.183c10.24,5.486,23.04,6.949,35.109,4.023  c1.463-0.366,3.291-0.731,4.754-1.097s2.926-0.731,4.023-1.463c10.971-4.023,21.943-10.971,34.011-21.211  c5.851-5.12,11.337-10.24,16.457-15.726c-10.606-13.897-19.017-27.063-26.331-39.863c-0.366-0.731-0.731-1.829-1.463-2.56  l-1.463-2.56c-0.731-1.097-1.463-2.56-1.829-3.657c-2.926-5.851-5.851-11.703-8.046-17.554c-9.509-23.406-13.166-44.251-11.703-64  c1.463-16.823,6.949-32.549,16.823-45.714c10.971-14.994,27.063-25.966,45.349-31.086c2.194-0.731,4.023-1.097,6.217-1.463  c0.731,0,1.097-0.366,1.829-0.366c1.829-0.366,3.657-0.731,5.486-1.097c0.731,0,1.097,0,1.829-0.366h0.731  c1.463,0,2.56-0.366,4.023-0.366c1.097,0,2.194,0,2.926,0s1.463,0,2.194,0h0.366c2.194,0,4.023,0,6.217,0.366v5.486l0.366-5.486  h1.097c8.046,0.731,16.091,2.56,23.406,5.12c20.114,7.314,37.303,22.309,46.811,40.96c6.949,13.531,10.24,29.257,9.874,46.08  c-0.731,20.48-6.583,42.057-18.286,65.829c-8.046,16.823-18.286,32.914-32.549,52.297l0,0c7.314,7.68,13.531,13.531,19.383,18.286  c1.463,1.097,2.926,2.194,4.389,3.291l0.366,0.366c0.731,0.366,1.463,1.097,2.194,1.463c8.046,5.851,15.36,9.874,22.674,12.8l0,0  C322.192,408.869,324.021,409.6,326.215,409.966C325.849,409.966,325.849,409.966,326.215,409.966z M233.689,340.48  c-1.829,0-3.291-0.731-4.389-2.194l-0.366-0.366c-1.463-1.829-2.56-3.657-4.023-5.851l-2.194-3.291  c-0.366-0.366-0.366-0.366-0.366-0.731c-8.411-12.8-14.994-24.503-20.48-36.206c-0.731-1.829-1.463-3.291-2.194-5.12l-0.366-0.731  v-0.366c-0.731-1.829-1.463-4.023-2.194-5.851v-0.366l-0.366-0.731c-0.731-1.829-1.097-3.657-1.829-5.486  c-0.366-0.731-0.366-1.463-0.366-2.194v-0.731c-0.366-1.463-0.731-2.926-1.097-4.389c-0.731-2.56-1.097-5.12-1.097-7.314  c-1.097-10.24-0.366-18.651,2.194-25.966c2.56-7.314,8.046-13.897,14.629-18.286c16.091-10.606,39.497-9.143,53.76,3.291  c6.949,5.851,11.703,15.36,12.8,25.234c0,1.463,0.366,2.926,0.366,4.389c0,1.097,0,2.194,0,3.291v0.731  c0,5.851-1.097,12.069-2.56,18.651c0,0.366,0,0.731,0,1.097c-1.097,4.023-2.194,7.68-3.657,11.703  c-0.366,0.731-0.731,1.463-1.097,2.194v0.366c-6.583,16.823-16.091,33.646-29.989,53.029  C236.981,339.749,235.518,340.48,233.689,340.48L233.689,340.48z M209.918,282.697L209.918,282.697  c0.731,1.463,1.097,3.291,1.829,4.754c5.12,10.971,11.337,22.309,19.383,34.743l2.56,3.657c10.24-14.629,17.554-27.794,23.04-40.594  c0-0.366,0-0.731,0.366-1.097c0.366-0.731,0.731-1.463,1.097-2.194c0.366-1.097,0.731-1.829,1.097-2.926s0.731-2.56,1.097-3.657  c0-0.366,0-0.731,0.366-1.097l0,0l0,0l0,0c2.926-8.411,4.023-16.091,4.389-22.674v-0.731c0-0.731,0-1.829,0-2.926  s0-2.194-0.366-3.657c-0.731-7.314-4.023-14.263-9.143-18.286c-10.606-9.509-28.526-10.24-40.594-2.56  c-4.754,2.926-8.411,7.68-10.24,13.166c-2.194,5.486-2.56,12.434-1.829,20.846c0.366,1.829,0.731,4.023,1.097,6.217  c0.366,1.097,0.366,2.194,0.731,3.657l0.366,1.097c0,0.731,0.366,1.097,0.366,1.829c0.366,1.829,1.097,3.291,1.463,5.12l0.366,1.097  C208.089,278.309,208.821,280.137,209.918,282.697C209.918,282.332,209.918,282.332,209.918,282.697z"/>
<g>
</g>
<g>
</g>
<g>
</g>
<g>
</g>
<g>
</g>
<g>
</g>
<g>
</g>
<g>
</g>
<g>
</g>
<g>
</g>
<g>
</g>
<g>
</g>
<g>
</g>
<g>
</g>
<g>
</g>
</svg>
