<?xml version="1.0" encoding="iso-8859-1"?>
<!-- Generator: Adobe Illustrator 19.0.0, SVG Export Plug-In . SVG Version: 6.00 Build 0)  -->
<svg xmlns="http://www.w3.org/2000/svg" xmlns:xlink="http://www.w3.org/1999/xlink" version="1.1" id="Capa_1" x="0px" y="0px" viewBox="0 0 463.724 463.724" style="enable-background:new 0 0 463.724 463.724;" xml:space="preserve">
<path style="fill:#F7441C;" d="M386.926,214.857c-9.874,0-18.651,1.829-27.429,5.486c-1.829-21.211-8.411-40.96-19.749-58.514  c-11.337-17.554-26.331-31.817-44.983-42.057c-18.651-10.24-38.4-15.36-59.977-15.36c-9.143,0-18.651,1.097-28.16,3.291  c-4.389,1.463-6.583,5.851-6.583,13.166v232.229c0,0.731,0.366,1.829,1.097,2.926s1.463,1.829,2.926,2.194l183.223,0.366  c19.383,0,36.206-6.949,50.103-21.211c13.897-14.263,20.846-31.086,20.846-51.2c0-19.749-6.949-36.571-20.846-50.834  C423.131,221.806,406.309,214.857,386.926,214.857z"/>
<path style="fill:#F4921E;" d="M386.926,214.857c-9.874,0-18.651,1.829-27.429,5.486c-1.829-21.211-8.411-40.96-19.749-58.514  c-11.337-17.554-26.331-31.817-44.983-42.057c-18.651-10.24-38.4-15.36-59.977-15.36c-9.143,0-18.651,1.097-28.16,3.291  c-4.389,1.463-6.583,5.851-6.583,13.166v232.229c0,0.731,0.366,1.829,1.097,2.926s1.463,1.829,2.926,2.194l183.223,0.366  c19.383,0,36.206-6.949,50.103-21.211c13.897-14.263,20.846-31.086,20.846-51.2c0-19.749-6.949-36.571-20.846-50.834  C423.131,221.806,406.309,214.857,386.926,214.857z"/>
<g>
	<path style="fill:#F7441C;" d="M374.857,215.954c-5.12,0.731-10.24,2.194-15.36,4.389c0-1.829-0.366-3.657-0.731-5.486   c-8.411,0.366-16.457,2.194-24.137,5.486c-1.829-21.211-8.411-40.96-19.749-58.514c-11.337-17.554-26.331-31.817-44.983-42.057   c-14.994-8.046-30.72-13.166-47.177-14.629c-5.486,0.731-10.606,1.463-16.091,2.926c-4.389,1.463-6.583,5.851-6.583,13.166v232.229   c0,0.731,0.366,1.829,1.097,2.926s1.463,1.829,2.926,2.194l159.086,0.366c19.383,0,35.84-7.314,49.737-21.211   c13.897-14.263,20.846-31.086,20.846-51.2c0-19.749-6.949-36.571-20.846-50.834C401.554,225.097,389.12,218.149,374.857,215.954z"/>
	<path style="fill:#F7441C;" d="M20.846,235.703c-4.389,0-7.68,1.463-10.971,4.754c-2.926,2.926-4.389,6.949-4.389,11.337V313.6   c0,5.851,2.194,9.874,6.217,12.8s8.411,4.023,13.166,2.926c4.389-0.731,7.314-2.56,9.143-4.754s2.56-6.217,2.56-11.337v-61.806   c0-4.389-1.463-8.046-4.389-11.337C28.891,237.166,25.234,235.703,20.846,235.703z"/>
</g>
<path style="fill:#F4921E;" d="M69.486,179.749c-4.389,0-7.68,1.463-10.971,4.754c-2.926,2.926-4.389,6.583-4.389,10.971V339.93  c0,4.023,1.463,7.314,4.389,9.143c2.926,2.194,6.583,3.291,10.971,3.291c4.754,0,8.411-1.097,11.337-3.291s4.389-5.12,4.389-9.143  V195.474c0-4.389-1.463-8.046-4.389-10.971C77.531,181.212,73.874,179.749,69.486,179.749z"/>
<path style="fill:#F7441C;" d="M118.126,198.766c-4.389,0-8.046,1.463-11.337,4.754c-2.926,3.291-4.754,6.949-4.754,11.337v131.657  l0,0c0,4.023,1.463,7.314,4.389,9.143c2.926,2.194,6.583,2.926,11.337,2.926c4.389,0,8.046-1.097,10.971-2.926  c2.926-2.194,4.389-5.12,4.389-9.143V214.857c0-4.389-1.463-8.046-4.389-11.337C125.806,200.229,122.149,198.766,118.126,198.766z"/>
<path style="fill:#F4921E;" d="M171.154,113.189c-4.754-1.097-9.143,0.366-13.531,4.023s-6.583,9.143-6.583,16.091V346.88l0,0  c0,7.68,5.12,11.703,15.726,11.703c10.24,0,15.726-4.023,15.726-11.703V133.303C181.76,121.6,178.103,115.017,171.154,113.189z"/>
<path style="fill:#FF7639;" d="M102.4,346.514L102.4,346.514L102.4,346.514L102.4,346.514z"/>
<g>
	<path style="fill:#33363A;" d="M386.926,364.434l-183.223-0.366c-0.731,0-1.097,0-1.829-0.366c-2.56-0.731-4.754-2.56-5.851-4.754   c-1.097-1.829-1.463-3.657-1.463-5.486V121.234c0-12.434,5.486-16.823,10.24-18.286h0.366c9.874-2.194,19.749-3.657,29.257-3.657   c22.309,0,43.52,5.486,62.537,16.091c19.383,10.606,35.109,25.234,46.811,43.886c10.606,16.457,17.189,34.377,20.114,54.126   c7.314-2.194,14.994-3.291,22.674-3.291c21.211,0,39.497,7.68,54.491,22.674c14.994,14.994,22.674,33.646,22.674,54.857   s-7.68,39.863-22.674,54.857C426.057,356.754,407.771,364.434,386.926,364.434z M205.531,353.463l181.394,0.366   c18.286,0,33.28-6.217,46.446-19.383c13.166-13.166,19.383-28.526,19.383-47.177s-6.217-34.011-19.383-46.811   c-13.166-13.166-28.16-19.383-46.446-19.383c-8.777,0-17.554,1.829-25.234,5.12c-1.463,0.731-3.657,0.731-5.12-0.366   c-1.463-0.731-2.56-2.56-2.56-4.389c-1.829-20.48-8.046-39.131-19.017-55.954s-25.234-30.354-43.154-40.229   c-17.554-9.874-36.937-14.629-57.417-14.629c-8.777,0-17.554,1.097-26.331,3.291c-2.194,0.731-2.56,4.754-2.56,8.046   L205.531,353.463L205.531,353.463z"/>
	<path style="fill:#33363A;" d="M386.926,364.434l-183.223-0.366c-0.731,0-1.097,0-1.829-0.366c-2.56-0.731-4.754-2.56-5.851-4.754   c-1.097-1.829-1.463-3.657-1.463-5.486V121.234c0-12.434,5.486-16.823,10.24-18.286h0.366c9.874-2.194,19.749-3.657,29.257-3.657   c22.309,0,43.52,5.486,62.537,16.091c19.383,10.606,35.109,25.234,46.811,43.886c10.606,16.457,17.189,34.377,20.114,54.126   c7.314-2.194,14.994-3.291,22.674-3.291c21.211,0,39.497,7.68,54.491,22.674c14.994,14.994,22.674,33.646,22.674,54.857   s-7.68,39.863-22.674,54.857C426.057,356.754,407.771,364.434,386.926,364.434z M205.531,353.463l181.394,0.366   c18.286,0,33.28-6.217,46.446-19.383c13.166-13.166,19.383-28.526,19.383-47.177s-6.217-34.011-19.383-46.811   c-13.166-13.166-28.16-19.383-46.446-19.383c-8.777,0-17.554,1.829-25.234,5.12c-1.463,0.731-3.657,0.731-5.12-0.366   c-1.463-0.731-2.56-2.56-2.56-4.389c-1.829-20.48-8.046-39.131-19.017-55.954s-25.234-30.354-43.154-40.229   c-17.554-9.874-36.937-14.629-57.417-14.629c-8.777,0-17.554,1.097-26.331,3.291c-2.194,0.731-2.56,4.754-2.56,8.046   L205.531,353.463L205.531,353.463z"/>
	<path style="fill:#33363A;" d="M21.577,335.177c-4.754,0-9.143-1.463-13.166-4.389C2.926,326.766,0,320.914,0,313.234v-61.806   c0-5.851,2.194-10.971,6.217-14.994s9.143-6.217,14.629-6.217c5.851,0,10.971,2.194,14.994,6.217   c4.023,4.023,6.217,9.143,6.217,14.994v61.806c0,6.583-1.097,11.337-3.657,14.629c-2.56,3.291-6.949,5.486-12.434,6.583   C24.503,334.812,23.04,335.177,21.577,335.177z M20.846,241.189c-2.926,0-5.12,1.097-6.949,2.926   c-2.194,2.194-2.926,4.389-2.926,7.314v61.806c0,5.12,2.194,7.314,3.657,8.411c2.926,2.194,5.851,2.926,8.777,2.194   c2.926-0.731,4.754-1.463,5.851-2.56c0.366-0.731,1.463-2.56,1.463-8.046v-61.806c0-2.926-1.097-5.486-2.926-7.314   C25.966,241.92,23.771,241.189,20.846,241.189z"/>
	<path style="fill:#33363A;" d="M69.486,357.486c-5.486,0-10.606-1.463-14.263-4.023c-2.926-2.194-6.583-6.217-6.583-13.897V195.109   c0-5.851,2.194-10.606,6.217-14.994c4.023-4.023,9.143-6.217,14.629-6.217c5.851,0,10.971,2.194,14.994,6.217   c4.023,4.023,6.217,9.143,6.217,14.994v144.457c0,7.314-3.657,11.703-6.583,13.897C80.091,356.389,75.337,357.486,69.486,357.486z    M69.486,185.234c-2.926,0-5.12,1.097-6.949,2.926c-2.194,2.194-2.926,4.389-2.926,7.314V339.93c0,2.926,1.097,4.023,2.194,4.754   c1.829,1.463,4.389,2.194,8.046,2.194c3.291,0,6.217-0.731,8.046-2.194c1.097-0.731,2.194-1.829,2.194-4.754V195.474   c0-2.926-1.097-5.12-2.926-7.314C74.606,186.332,72.411,185.234,69.486,185.234z"/>
	<path style="fill:#33363A;" d="M118.126,364.434c-5.851,0-10.606-1.463-14.629-4.023c-2.926-2.194-6.583-6.217-6.583-13.897   V214.857c0-5.851,2.194-10.971,6.217-14.994s9.143-6.217,14.994-6.217c5.486,0,10.606,2.194,14.629,6.217   c4.023,4.023,6.217,9.143,6.217,14.994v131.657c0,7.314-3.657,11.703-6.583,13.897   C128.366,362.971,123.611,364.434,118.126,364.434z M118.126,204.252c-2.926,0-5.12,1.097-7.314,2.926   c-2.194,2.194-2.926,4.389-2.926,7.314v131.657c0,2.926,1.097,4.023,2.194,4.754c1.829,1.463,4.754,2.194,8.411,2.194   c3.291,0,5.851-0.731,7.68-2.194c1.097-0.731,2.194-1.829,2.194-4.754V214.491c0-2.926-1.097-5.486-2.926-7.68   C122.88,205.349,120.686,204.252,118.126,204.252z"/>
	<path style="fill:#33363A;" d="M166.4,364.434c-19.017,0-21.211-12.069-21.211-17.189V133.669c0-8.777,2.926-15.36,8.777-20.48   c7.314-6.217,13.897-6.217,18.651-5.12c6.949,1.463,14.994,7.314,14.994,25.6v213.577   C187.246,352.366,185.417,364.434,166.4,364.434z M167.863,118.309c-1.829,0-4.023,0.731-6.949,3.291   c-3.291,2.926-4.754,6.583-4.754,12.069v213.577c0,2.194,0,6.217,10.24,6.217s10.24-4.023,10.24-6.217V133.669   c0-13.531-4.754-14.629-6.583-14.994l0,0C169.326,118.674,168.594,118.309,167.863,118.309z"/>
	<path style="fill:#33363A;" d="M102.4,352c-2.926,0-5.486-2.56-5.486-5.486c0-1.463,0.366-2.926,1.463-4.023   c1.463-1.463,4.023-2.194,5.851-1.463c2.194,0.731,3.291,2.926,3.291,5.12l0,0C107.886,349.806,105.326,352,102.4,352z"/>
	<path style="fill:#33363A;" d="M389.486,364.434c-32.549,0-59.246-26.331-59.246-59.246c0-26.697,21.577-48.274,48.274-48.274   c21.943,0,39.863,17.92,39.863,39.863c0,18.286-14.629,32.914-32.914,32.914c-14.994,0-27.429-12.434-27.429-27.429   c0-2.926,2.56-5.486,5.486-5.486s5.486,2.56,5.486,5.486c0,9.143,7.314,16.457,16.457,16.457c12.069,0,21.943-9.874,21.943-21.943   c0-15.726-12.8-28.891-28.891-28.891c-20.48,0-37.303,16.823-37.303,37.303c0,26.697,21.577,48.274,48.274,48.274   c2.926,0,5.486,2.56,5.486,5.486C394.971,361.874,392.411,364.434,389.486,364.434z"/>
</g>
<g>
</g>
<g>
</g>
<g>
</g>
<g>
</g>
<g>
</g>
<g>
</g>
<g>
</g>
<g>
</g>
<g>
</g>
<g>
</g>
<g>
</g>
<g>
</g>
<g>
</g>
<g>
</g>
<g>
</g>
</svg>
