<?xml version="1.0" encoding="iso-8859-1"?>
<!-- Generator: Adobe Illustrator 19.0.0, SVG Export Plug-In . SVG Version: 6.00 Build 0)  -->
<svg xmlns="http://www.w3.org/2000/svg" xmlns:xlink="http://www.w3.org/1999/xlink" version="1.1" id="Capa_1" x="0px" y="0px" viewBox="0 0 465.189 465.189" style="enable-background:new 0 0 465.189 465.189;" xml:space="preserve">
<rect x="53.761" y="113.01" style="fill:#FFFFFF;" width="362.06" height="253.07"/>
<path style="fill:#37D660;" d="M232.594,5.486C107.887,5.486,5.487,107.52,5.487,232.594c0,124.709,102.034,227.109,227.109,227.109  c124.709,0,227.109-102.034,227.109-227.109C459.703,107.886,358.766,5.486,232.594,5.486z M337.19,333.531  c-4.389,6.949-12.434,9.143-19.383,4.389c-53.394-32.914-120.32-39.863-199.68-21.577c-8.046,2.194-14.629-3.291-17.189-10.24  c-2.194-8.046,3.291-14.629,10.24-17.189c86.309-19.383,161.28-11.337,220.16,24.869  C339.383,317.806,340.481,326.949,337.19,333.531z M364.252,271.36c-5.486,8.046-15.726,11.337-23.771,5.851  c-61.44-37.303-154.331-48.64-226.011-25.966c-9.143,2.194-19.383-2.194-21.577-11.337s2.194-19.383,11.337-21.577  c83.017-24.869,185.051-12.434,255.269,30.72C366.447,251.977,370.104,263.314,364.252,271.36z M396.07,201.874  c-5.851,8.046-19.383,11.337-29.623,5.851c-72.777-43.154-194.194-47.543-263.314-25.966c-11.337,3.291-22.674-3.291-25.966-13.531  c-3.291-11.337,3.291-22.674,13.531-25.966c80.457-23.771,213.577-19.383,297.326,30.72  C398.263,178.103,401.921,191.634,396.07,201.874z"/>
<path style="fill:#2CC64D;" d="M232.594,5.486C107.887,5.486,5.487,107.52,5.487,232.594c0,124.709,102.034,227.109,227.109,227.109  c124.709,0,227.109-102.034,227.109-227.109C459.703,107.886,358.766,5.486,232.594,5.486z M337.19,333.531  c-4.389,6.949-12.434,9.143-19.383,4.389c-53.394-32.914-120.32-39.863-199.68-21.577c-8.046,2.194-14.629-3.291-17.189-10.24  c-2.194-8.046,3.291-14.629,10.24-17.189c86.309-19.383,161.28-11.337,220.16,24.869  C339.383,317.806,340.481,326.949,337.19,333.531z M364.252,271.36c-5.486,8.046-15.726,11.337-23.771,5.851  c-61.44-37.303-154.331-48.64-226.011-25.966c-9.143,2.194-19.383-2.194-21.577-11.337s2.194-19.383,11.337-21.577  c83.017-24.869,185.051-12.434,255.269,30.72C366.447,251.977,370.104,263.314,364.252,271.36z M396.07,201.874  c-5.851,8.046-19.383,11.337-29.623,5.851c-72.777-43.154-194.194-47.543-263.314-25.966c-11.337,3.291-22.674-3.291-25.966-13.531  c-3.291-11.337,3.291-22.674,13.531-25.966c80.457-23.771,213.577-19.383,297.326,30.72  C398.263,178.103,401.921,191.634,396.07,201.874z"/>
<path style="fill:#21D844;" d="M232.594,5.486C107.887,5.486,5.487,107.52,5.487,232.594c0,7.68,0.366,15.726,1.097,23.04h288.183  c-56.686-19.749-125.074-22.674-180.663-5.12c-9.143,2.194-19.383-2.194-21.577-11.337s2.194-19.383,11.337-21.577  c83.017-24.869,185.051-12.434,255.269,30.72c2.926,1.463,5.12,4.023,6.217,7.314h92.526c0.731-7.68,1.097-15.36,1.097-23.04  C459.703,107.886,358.766,5.486,232.594,5.486z M396.07,201.874c-5.851,8.046-19.383,11.337-29.623,5.851  c-72.777-43.154-194.194-47.543-263.314-25.966c-11.337,3.291-22.674-3.291-25.966-13.531c-3.291-11.337,3.291-22.674,13.531-25.966  c80.457-23.771,213.577-19.383,297.326,30.72C398.263,178.103,401.921,191.634,396.07,201.874z"/>
<g>
	<path style="fill:#33363A;" d="M232.594,465.189c-128.365,0-232.594-104.229-232.594-232.595S104.229,0,232.594,0   s232.594,104.229,232.594,232.594S360.961,465.189,232.594,465.189z M232.594,10.971c-122.149,0-221.623,99.474-221.623,221.623   s99.474,221.623,221.623,221.623s221.623-99.474,221.623-221.623S354.744,10.971,232.594,10.971z M325.12,345.966   c-3.657,0-7.314-1.097-10.606-3.291c-51.2-31.817-117.029-38.766-195.657-20.846c-10.971,3.291-20.48-4.754-23.406-13.897   c-3.291-11.703,4.754-20.846,13.531-24.137c2.926-1.097,5.851,0.731,6.949,3.291c1.097,2.926-0.731,5.851-3.291,6.949   c-3.291,1.097-8.046,4.754-6.583,10.24c1.097,3.291,4.754,8.046,10.24,6.583c81.554-18.651,150.309-11.337,204.069,22.309   c2.194,1.463,4.023,1.829,5.851,1.463c2.194-0.366,4.023-1.829,5.851-4.023c1.097-2.56,1.463-5.486,0.731-7.68   c-0.731-1.829-1.829-2.926-3.657-3.657c-2.926-1.097-4.023-4.389-2.926-7.314c1.097-2.926,4.389-4.023,7.314-2.926   c4.754,1.829,8.046,5.486,9.509,10.24c1.829,5.12,1.463,11.337-1.097,16.823c0,0.366-0.366,0.366-0.366,0.731   c-3.291,4.754-7.68,8.046-12.8,9.143C327.68,345.966,326.583,345.966,325.12,345.966z M349.258,285.257   c-4.023,0-8.046-1.097-11.703-3.657c-60.709-36.937-151.771-47.543-221.257-25.6c-13.166,3.291-25.6-3.657-28.526-15.36   c-3.291-12.8,3.657-25.234,15.36-28.16c2.926-0.731,5.851,1.097,6.583,4.023c0.731,2.926-1.097,5.851-4.023,6.583   c-6.217,1.463-8.777,9.143-7.314,14.994c1.463,6.217,9.143,8.777,14.994,7.314c72.046-23.04,166.766-12.069,230.034,26.697   c0,0,0.366,0,0.366,0.366c2.194,1.463,4.389,2.194,7.314,1.829c3.291-0.731,6.583-2.926,9.143-6.217   c1.829-2.56,2.194-5.486,1.463-8.777c-0.731-2.56-2.194-4.754-4.023-5.851c-2.56-1.463-3.657-4.754-2.56-7.314   c1.463-2.56,4.754-3.657,7.314-2.56c4.754,2.194,8.411,7.314,9.874,13.166c1.463,6.217,0.366,12.8-3.291,17.92   c-4.023,5.486-9.874,9.509-16.091,10.606C351.451,285.257,350.354,285.257,349.258,285.257z M377.784,215.771   c-4.754,0-9.874-1.097-13.897-3.657c-70.217-41.691-190.537-46.811-258.926-25.6c-13.531,4.023-28.526-3.657-32.914-17.189   c-4.023-13.897,3.657-28.526,17.189-32.914c2.926-1.097,5.851,0.731,6.949,3.291c1.097,2.56-0.731,5.851-3.291,6.949   c-6.949,2.194-12.8,10.24-10.24,19.383c2.194,6.949,10.24,12.8,19.383,9.874c70.217-21.943,192.731-17.92,267.703,26.697   c7.68,4.389,17.92,1.463,21.943-4.023c1.829-3.657,2.56-8.046,1.463-12.069c-1.097-4.389-3.657-7.68-7.314-9.509   c-2.56-1.463-3.657-4.754-2.194-7.314s4.754-3.657,7.314-2.194c6.217,3.291,10.606,9.143,12.434,16.457   c1.829,6.949,0.731,14.263-2.56,20.48l-0.366,0.366C395.703,212.114,386.927,215.771,377.784,215.771z"/>
	<path style="fill:#33363A;" d="M232.594,465.189c-128.365,0-232.594-104.229-232.594-232.595S104.229,0,232.594,0   s232.594,104.229,232.594,232.594S360.961,465.189,232.594,465.189z M232.594,10.971c-122.149,0-221.623,99.474-221.623,221.623   s99.474,221.623,221.623,221.623s221.623-99.474,221.623-221.623S354.744,10.971,232.594,10.971z M325.12,345.966   c-3.657,0-7.314-1.097-10.606-3.291c-51.2-31.817-117.029-38.766-195.657-20.846c-10.971,3.291-20.48-4.754-23.406-13.897   c-3.291-11.703,4.754-20.846,13.531-24.137c2.926-1.097,5.851,0.731,6.949,3.291c1.097,2.926-0.731,5.851-3.291,6.949   c-3.291,1.097-8.046,4.754-6.583,10.24c1.097,3.291,4.754,8.046,10.24,6.583c81.554-18.651,150.309-11.337,204.069,22.309   c2.194,1.463,4.023,1.829,5.851,1.463c2.194-0.366,4.023-1.829,5.851-4.023c1.097-2.56,1.463-5.486,0.731-7.68   c-0.731-1.829-1.829-2.926-3.657-3.657c-2.926-1.097-4.023-4.389-2.926-7.314c1.097-2.926,4.389-4.023,7.314-2.926   c4.754,1.829,8.046,5.486,9.509,10.24c1.829,5.12,1.463,11.337-1.097,16.823c0,0.366-0.366,0.366-0.366,0.731   c-3.291,4.754-7.68,8.046-12.8,9.143C327.68,345.966,326.583,345.966,325.12,345.966z M349.258,285.257   c-4.023,0-8.046-1.097-11.703-3.657c-60.709-36.937-151.771-47.543-221.257-25.6c-13.166,3.291-25.6-3.657-28.526-15.36   c-3.291-12.8,3.657-25.234,15.36-28.16c2.926-0.731,5.851,1.097,6.583,4.023c0.731,2.926-1.097,5.851-4.023,6.583   c-6.217,1.463-8.777,9.143-7.314,14.994c1.463,6.217,9.143,8.777,14.994,7.314c72.046-23.04,166.766-12.069,230.034,26.697   c0,0,0.366,0,0.366,0.366c2.194,1.463,4.389,2.194,7.314,1.829c3.291-0.731,6.583-2.926,9.143-6.217   c1.829-2.56,2.194-5.486,1.463-8.777c-0.731-2.56-2.194-4.754-4.023-5.851c-2.56-1.463-3.657-4.754-2.56-7.314   c1.463-2.56,4.754-3.657,7.314-2.56c4.754,2.194,8.411,7.314,9.874,13.166c1.463,6.217,0.366,12.8-3.291,17.92   c-4.023,5.486-9.874,9.509-16.091,10.606C351.451,285.257,350.354,285.257,349.258,285.257z M377.784,215.771   c-4.754,0-9.874-1.097-13.897-3.657c-70.217-41.691-190.537-46.811-258.926-25.6c-13.531,4.023-28.526-3.657-32.914-17.189   c-4.023-13.897,3.657-28.526,17.189-32.914c2.926-1.097,5.851,0.731,6.949,3.291c1.097,2.56-0.731,5.851-3.291,6.949   c-6.949,2.194-12.8,10.24-10.24,19.383c2.194,6.949,10.24,12.8,19.383,9.874c70.217-21.943,192.731-17.92,267.703,26.697   c7.68,4.389,17.92,1.463,21.943-4.023c1.829-3.657,2.56-8.046,1.463-12.069c-1.097-4.389-3.657-7.68-7.314-9.509   c-2.56-1.463-3.657-4.754-2.194-7.314s4.754-3.657,7.314-2.194c6.217,3.291,10.606,9.143,12.434,16.457   c1.829,6.949,0.731,14.263-2.56,20.48l-0.366,0.366C395.703,212.114,386.927,215.771,377.784,215.771z"/>
</g>
<g>
</g>
<g>
</g>
<g>
</g>
<g>
</g>
<g>
</g>
<g>
</g>
<g>
</g>
<g>
</g>
<g>
</g>
<g>
</g>
<g>
</g>
<g>
</g>
<g>
</g>
<g>
</g>
<g>
</g>
</svg>
