<svg version="1.1" id="Layer_1" xmlns:x="ns_extend;" xmlns:i="ns_ai;" xmlns:graph="ns_graphs;" xmlns="http://www.w3.org/2000/svg" xmlns:xlink="http://www.w3.org/1999/xlink" x="0px" y="0px" viewBox="0 0 665.4 82" style="enable-background:new 0 0 665.4 82;" xml:space="preserve">
 <style type="text/css">
  .st0{fill-rule:evenodd;clip-rule:evenodd;fill:#38BDF8;}
	.st1{fill-rule:evenodd;clip-rule:evenodd;fill:#FFFFFF;}
 </style>
 <metadata>
  <sfw xmlns="ns_sfw;">
   <slices>
   </slices>
   <sliceSourceBounds bottomLeftOrigin="true" height="82" width="665.4" x="-373.1" y="188.2">
   </sliceSourceBounds>
  </sfw>
 </metadata>
 <g>
  <path class="st0" d="M68.7,0C50.4,0,39,9.1,34.4,27.3c6.9-9.1,14.9-12.5,24.1-10.3c5.2,1.3,9,5.1,13.1,9.2
		C78.3,33.1,86.1,41,103.1,41c18.3,0,29.8-9.1,34.4-27.3c-6.9,9.1-14.9,12.5-24,10.2c-5.2-1.3-9-5.1-13.1-9.2
		C93.6,7.9,85.8,0,68.7,0L68.7,0z M34.4,41C16,41,4.6,50.1,0,68.3c6.9-9.1,14.9-12.5,24.1-10.3c5.2,1.3,9,5.1,13.1,9.2
		C43.9,74.1,51.7,82,68.7,82c18.3,0,29.8-9.1,34.4-27.3c-6.9,9.1-14.9,12.5-24.1,10.2c-5.2-1.3-9-5.1-13.1-9.2
		C59.2,48.9,51.4,41,34.4,41L34.4,41z M34.4,41">
  </path>
  <path class="st1" d="M206.2,34.5h-12v23.1c0,6.2,4.1,6.1,12,5.7v9.3c-16.1,1.9-22.5-2.5-22.5-15V34.5h-8.9v-10h8.9V11.6l10.5-3.1
		v16h12V34.5z M252,24.6h10.4v48.1H252v-6.9c-3.7,5.1-9.4,8.2-16.9,8.2c-13.2,0-24.1-11.1-24.1-25.3c0-14.3,10.9-25.3,24.1-25.3
		c7.5,0,13.3,3.1,16.9,8.1V24.6z M236.7,64c8.7,0,15.3-6.5,15.3-15.4c0-9-6.6-15.4-15.3-15.4c-8.7,0-15.3,6.5-15.3,15.4
		C221.4,57.5,228,64,236.7,64L236.7,64z M279.8,17.3c-3.7,0-6.7-3.1-6.7-6.6c0-3.7,3-6.6,6.7-6.6c3.7,0,6.7,3,6.7,6.6
		C286.5,14.3,283.5,17.3,279.8,17.3L279.8,17.3z M274.6,72.6V24.6H285v48.1H274.6z M297.1,72.6V2.4h10.4v70.2L297.1,72.6L297.1,72.6
		z M375.4,24.6h11l-15.2,48.1H361l-10.1-32.4l-10.2,32.4h-10.3l-15.2-48.1h11l9.4,33.2l10.2-33.2h10l10.1,33.2L375.4,24.6z
		 M399.4,17.3c-3.7,0-6.7-3.1-6.7-6.6c0-3.7,3-6.6,6.7-6.6c3.7,0,6.7,3,6.7,6.6C406.1,14.3,403.1,17.3,399.4,17.3L399.4,17.3z
		 M394.2,72.6V24.6h10.4v48.1H394.2z M442.2,23.3c10.8,0,18.6,7.3,18.6,19.8v29.5h-10.4V44.2c0-7.3-4.2-11.2-10.8-11.2
		c-6.9,0-12.3,4-12.3,13.9v25.8h-10.5V24.6h10.5v6.1C430.3,25.7,435.6,23.3,442.2,23.3L442.2,23.3z M510.3,5.3h10.5v67.3h-10.5v-6.9
		c-3.7,5.1-9.4,8.2-16.9,8.2c-13.1,0-24.1-11.1-24.1-25.3c0-14.3,10.9-25.3,24.1-25.3c7.5,0,13.3,3.1,16.9,8.1V5.3z M495,64
		c8.7,0,15.3-6.5,15.3-15.4c0-9-6.6-15.4-15.3-15.4c-8.7,0-15.3,6.5-15.3,15.4C479.7,57.5,486.3,64,495,64L495,64z M555.7,73.9
		c-14.6,0-25.6-11.1-25.6-25.3c0-14.3,10.9-25.3,25.6-25.3c9.5,0,17.7,4.9,21.6,12.4l-9,5.2c-2.1-4.5-6.9-7.4-12.7-7.4
		c-8.5,0-15,6.4-15,15.1c0,8.7,6.5,15.1,15,15.1c5.8,0,10.5-3,12.9-7.4l9,5.1C573.4,69,565.2,73.9,555.7,73.9L555.7,73.9z
		 M594.7,37.8c0,8.8,26,3.5,26,21.3c0,9.6-8.4,14.8-18.9,14.8c-9.7,0-16.6-4.3-19.7-11.3l9-5.2c1.5,4.3,5.4,6.9,10.7,6.9
		c4.6,0,8.2-1.5,8.2-5.4c0-8.6-26-3.7-26-21c0-9,7.8-14.7,17.7-14.7c7.9,0,14.5,3.7,17.9,10l-8.8,4.9c-1.7-3.8-5.1-5.5-9.1-5.5
		C598,32.7,594.7,34.4,594.7,37.8L594.7,37.8z M639.3,37.8c0,8.8,26,3.5,26,21.3c0,9.6-8.4,14.8-18.9,14.8
		c-9.7,0-16.6-4.3-19.7-11.3l9-5.2c1.5,4.3,5.4,6.9,10.7,6.9c4.6,0,8.2-1.5,8.2-5.4c0-8.6-26-3.7-26-21c0-9,7.8-14.7,17.7-14.7
		c7.9,0,14.5,3.7,17.9,10l-8.8,4.9c-1.7-3.8-5.1-5.5-9.1-5.5C642.6,32.7,639.3,34.4,639.3,37.8L639.3,37.8z M639.3,37.8">
  </path>
 </g>
</svg>