<svg version="1.1" id="Layer_1" xmlns:x="ns_extend;" xmlns:i="ns_ai;" xmlns:graph="ns_graphs;" xmlns="http://www.w3.org/2000/svg" xmlns:xlink="http://www.w3.org/1999/xlink" x="0px" y="0px" viewBox="0 0 1851.6 449.4" style="enable-background:new 0 0 1851.6 449.4;" xml:space="preserve">
 <style type="text/css">
  .st0{fill:#25F4EE;}
	.st1{fill:#FE2C55;}
	.st2{fill:#FFFFFF;}
 </style>
 <metadata>
  <sfw xmlns="ns_sfw;">
   <slices>
   </slices>
   <sliceSourceBounds bottomLeftOrigin="true" height="449.4" width="1851.6" x="274.2" y="311.2">
   </sliceSourceBounds>
  </sfw>
 </metadata>
 <g id="LOGOS">
  <path class="st0" d="M154.6,177.7v-18.3c-6.1-0.9-12.2-1.3-18.4-1.3C61.1,158.1,0,219.2,0,294.4c0,44.5,21.7,86.1,58.2,111.6
		c-0.6-0.7-1.3-1.4-1.9-2.1c-21.5-24.1-33.9-55.9-33.9-90.7C22.1,239.5,81,179.2,154.6,177.7z">
  </path>
  <path class="st0" d="M157.9,375.9c33.5,0,61.4-27.2,62.7-60.4l0.1-296.2l53.8,0.1l-0.1-0.7c-1.2-6.2-1.7-12.5-1.7-18.8h-74
		l-0.2,296.7c-1.2,34.3-30,61.1-64.3,59.9c-9.3-0.3-18.5-2.8-26.7-7.1C118.7,365.1,137.1,375.9,157.9,375.9z">
  </path>
  <path class="st0" d="M375.6,120.7V103c-19.9,0-39.4-5.8-56.1-16.7C333.9,102.8,353.4,115.9,375.6,120.7z">
  </path>
  <path class="st1" d="M319.5,86.3c-16.3-18.7-25.3-42.7-25.3-67.5h-20.3C279,47,296.3,71.2,319.5,86.3z">
  </path>
  <path class="st1" d="M136.3,231.6c-34.3,0-62.8,28.5-62.8,62.8c0,23.9,14.1,44.7,33.9,55.1c-20.2-27.7-14.1-66.4,13.5-86.6
		c15.9-11.6,36.5-15,55.3-9v-75.6c-6.1-0.9-12.2-1.3-18.4-1.3c-1.1,0-2.1,0.1-3.2,0.1l-0.5,0.1l0,57.1
		C148.3,232.3,142.3,231.5,136.3,231.6z">
  </path>
  <path class="st1" d="M375.6,119.5l-0.4-0.1l-0.2,57c-36.9,0-72.9-11.7-102.9-33.3l-0.1,151.3c0.1,74.9-60.5,135.6-135.3,135.7
		c-0.1,0-0.3,0-0.4,0c-29,0-56-8.6-78.1-24.2c25.7,27.7,61.8,43.5,99.7,43.5c75.1,0,136.3-61.1,136.3-136.3V162.7
		c30,21.6,66,33.2,103,33.1v-74C389.9,121.8,382.7,121,375.6,119.5z">
  </path>
  <path class="st2" d="M272.6,294.4V143.9c30,21.6,66,33.2,103,33.1v-57.5c-21.8-4.7-41.5-16.3-56.1-33.2
		c-23.7-15.4-40-39.8-45.2-67.5h-54.2L220,315.5c-1.2,34.3-30,61.1-64.3,59.9c-19.2-0.7-37.1-10.2-48.3-25.9
		c-30.4-15.9-42.2-53.5-26.3-84c10.7-20.5,32-33.4,55.1-33.4c6.2,0,12.4,1,18.4,2.9v-58C81,178.8,21.6,239.2,21.6,313.3
		c0,34.5,13.1,67.6,36.6,92.8c22.9,16.1,50.1,24.7,78.1,24.7C211.4,430.7,272.6,369.5,272.6,294.4z">
  </path>
  <path class="st2" d="M470.4,119.7h231.4l-21.2,66.2h-60v244.7h-74.8V185.9l-75.2,0.1L470.4,119.7z">
  </path>
  <path class="st2" d="M1080.7,119.7h236.7l-21.2,66.2h-65.2v244.7H1156V185.9l-75.2,0.1L1080.7,119.7z">
  </path>
  <polygon class="st2" points="715.9,218.6 790,218.6 790,430.6 716.3,430.6 	">
  </polygon>
  <path class="st2" d="M819.5,118.9h74.1v144.8l73.4-72h88.4l-92.9,90l104,148.9h-81.6l-69.4-103.2l-22,21.3v81.9h-74.1L819.5,118.9z
		">
  </path>
  <path class="st2" d="M1604.5,118.9h74.1v144.8l73.4-72h88.4l-92.9,90l104,148.9h-81.6l-69.4-103.2l-22,21.3v81.9h-74.1
		L1604.5,118.9z">
  </path>
  <ellipse transform="matrix(0.3827 -0.9239 0.9239 0.3827 319.6917 792.5724)" class="st2" cx="752.9" cy="157.1" rx="37.3" ry="37.3">
  </ellipse>
  <path class="st0" d="M1307.9,303.7c0-66.2,51-121.3,117-126.5c-3.3-0.2-7.8-0.4-11.1-0.4c-70.1,0-126.9,56.9-126.9,126.9
		c0,70.1,56.8,126.8,126.9,126.9c3.3,0,7.8-0.2,11.1-0.4C1358.9,425,1308,369.9,1307.9,303.7z">
  </path>
  <path class="st1" d="M1453.7,176.8c-3.4,0-7.9,0.2-11.2,0.4c69.8,5.5,122,66.6,116.5,136.4c-4.9,62.2-54.3,111.6-116.5,116.5
		c3.3,0.3,7.8,0.4,11.2,0.4c70.1,0,126.9-56.9,126.9-126.9C1580.6,233.6,1523.8,176.8,1453.7,176.8z">
  </path>
  <path class="st2" d="M1433.7,176.8c-70.1,0-126.9,56.8-126.9,126.9s56.8,126.9,126.9,126.9s126.9-56.8,126.9-126.9c0,0,0,0,0,0
		C1560.6,233.6,1503.7,176.8,1433.7,176.8z M1433.7,365.4c-34.1,0-61.7-27.6-61.7-61.7s27.6-61.7,61.7-61.7
		c34.1,0,61.7,27.6,61.7,61.7C1495.4,337.8,1467.8,365.4,1433.7,365.4C1433.7,365.4,1433.7,365.4,1433.7,365.4z">
  </path>
 </g>
</svg>