<svg version="1.1" id="Layer_1" xmlns:x="ns_extend;" xmlns:i="ns_ai;" xmlns:graph="ns_graphs;" xmlns="http://www.w3.org/2000/svg" xmlns:xlink="http://www.w3.org/1999/xlink" x="0px" y="0px" viewBox="0 0 1851.6 449.5" style="enable-background:new 0 0 1851.6 449.5;" xml:space="preserve">
 <style type="text/css">
  .st0{fill:#25F4EE;}
	.st1{fill:#FE2C55;}
 </style>
 <metadata>
  <sfw xmlns="ns_sfw;">
   <slices>
   </slices>
   <sliceSourceBounds bottomLeftOrigin="true" height="449.5" width="1851.6" x="274.2" y="311.2">
   </sliceSourceBounds>
  </sfw>
 </metadata>
 <g id="LOGOS">
  <path class="st0" d="M154.6,177v-17.5c-6.1-0.9-12.2-1.3-18.4-1.3C61.1,158.1,0,219.2,0,294.4c0,44.5,21.7,86.1,58.2,111.6
		c-23.5-25.2-36.6-58.3-36.6-92.8C21.6,239.1,81,178.7,154.6,177z">
  </path>
  <path class="st0" d="M157.9,375.4c33.4-0.1,60.8-26.5,62.1-59.9l0.1-296.7h54.2c-1.2-6.2-1.7-12.5-1.7-18.8h-74l-0.2,296.7
		c-1.2,34.3-30,61.1-64.3,59.9c-9.3-0.3-18.5-2.8-26.7-7.1C119,365.7,137.8,375.4,157.9,375.4z">
  </path>
  <path class="st0" d="M375.6,119.5V103c-19.9,0-39.4-5.8-56.1-16.7C334.1,103.2,353.8,114.8,375.6,119.5z">
  </path>
  <path class="st1" d="M319.5,86.3c-16.3-18.7-25.3-42.7-25.3-67.5h-19.8C279.5,46.5,295.8,70.9,319.5,86.3z">
  </path>
  <path class="st1" d="M136.3,232.1c-34.4,0-62.2,27.8-62.2,62.2c0,23.2,12.8,44.4,33.4,55.1c-20.2-27.7-14.1-66.4,13.5-86.6
		c15.9-11.6,36.5-15,55.3-9v-75.6c-6.1-0.9-12.2-1.3-18.4-1.3c-1.1,0-2.1,0.1-3.2,0.1v58C148.7,233.1,142.5,232.1,136.3,232.1z">
  </path>
  <path class="st1" d="M375.6,119.5V177c-37,0-73-11.5-103-33.1v150.5c0,75.2-61.1,136.3-136.3,136.3c-28,0-55.2-8.6-78.1-24.7
		c25.7,27.7,61.8,43.5,99.7,43.5c75.1,0,136.3-61.1,136.3-136.3V162.7c30,21.6,66,33.2,103,33.1v-74
		C389.9,121.8,382.7,121,375.6,119.5z">
  </path>
  <path d="M272.6,294.4V143.9c30,21.6,66,33.2,103,33.1v-57.5c-21.8-4.7-41.5-16.3-56.1-33.2c-23.7-15.4-40-39.8-45.2-67.5h-54.2
		L220,315.5c-1.2,34.3-30,61.1-64.3,59.9c-19.2-0.7-37.1-10.2-48.3-25.9c-30.4-15.9-42.2-53.5-26.3-84c10.7-20.5,32-33.4,55.1-33.4
		c6.2,0,12.4,1,18.4,2.9v-58C81,178.8,21.6,239.2,21.6,313.3c0,34.5,13.1,67.6,36.6,92.8c22.9,16.1,50.1,24.7,78.1,24.7
		C211.4,430.7,272.6,369.5,272.6,294.4z">
  </path>
  <path d="M470.4,119.7h231.4l-21.2,66.2h-60v244.7h-74.8V185.9l-75.2,0.1L470.4,119.7z">
  </path>
  <path d="M1080.7,119.7h236.7l-21.2,66.2h-65.2v244.7H1156V185.9l-75.2,0.1L1080.7,119.7z">
  </path>
  <polygon points="715.9,218.6 790,218.6 790,430.6 716.3,430.6 	">
  </polygon>
  <path d="M819.5,118.9h74.1v144.8l73.4-72h88.4l-92.9,90l104,148.9h-81.6l-69.4-103.2l-22,21.3v81.9h-74.1L819.5,118.9z">
  </path>
  <path d="M1604.5,118.9h74.1v144.8l73.4-72h88.4l-92.9,90l104,148.9h-81.6l-69.4-103.2l-22,21.3v81.9h-74.1L1604.5,118.9z">
  </path>
  <ellipse transform="matrix(0.3827 -0.9239 0.9239 0.3827 319.6917 792.5724)" cx="752.9" cy="157.1" rx="37.3" ry="37.3">
  </ellipse>
  <path class="st0" d="M1307.9,303.7c0-66.2,51-121.3,117-126.5c-3.3-0.2-7.8-0.4-11.1-0.4c-70.1,0-126.9,56.9-126.9,126.9
		c0,70.1,56.8,126.8,126.9,126.9c3.3,0,7.8-0.2,11.1-0.4C1358.9,425,1308,369.9,1307.9,303.7z">
  </path>
  <path class="st1" d="M1453.7,176.8c-3.4,0-7.9,0.2-11.2,0.4c69.8,5.5,122,66.6,116.5,136.4c-4.9,62.2-54.3,111.6-116.5,116.5
		c3.3,0.3,7.8,0.4,11.2,0.4c70.1,0,126.9-56.9,126.9-126.9C1580.6,233.6,1523.8,176.8,1453.7,176.8z">
  </path>
  <path d="M1433.7,365.4c-34.1,0-61.7-27.6-61.7-61.7s27.6-61.7,61.7-61.7c34.1,0,61.7,27.6,61.7,61.7
		C1495.4,337.8,1467.8,365.4,1433.7,365.4C1433.7,365.4,1433.7,365.4,1433.7,365.4z M1433.7,176.8c-70.1,0-126.9,56.8-126.9,126.9
		s56.8,126.9,126.9,126.9s126.9-56.8,126.9-126.9c0,0,0,0,0,0C1560.6,233.6,1503.7,176.8,1433.7,176.8L1433.7,176.8z">
  </path>
 </g>
</svg>