<?xml version="1.0" encoding="iso-8859-1"?>
<!-- Generator: Adobe Illustrator 19.0.0, SVG Export Plug-In . SVG Version: 6.00 Build 0)  -->
<svg xmlns="http://www.w3.org/2000/svg" xmlns:xlink="http://www.w3.org/1999/xlink" version="1.1" id="Capa_1" x="0px" y="0px" viewBox="0 0 464.821 464.821" style="enable-background:new 0 0 464.821 464.821;" xml:space="preserve">
<path style="fill:#FFA506;" d="M353.041,125.072c-25.234-40.229-56.32-76.069-90.697-108.617c-3.657-3.291-7.314-6.949-11.337-10.24  c10.606,27.063,14.263,57.417,9.874,86.309c-3.291,22.309-12.069,43.886-25.234,61.806c-12.8,17.554-28.891,32.183-46.446,45.349  c-0.731,0-1.097-1.097-1.829-1.463c-8.046-9.509-13.897-20.846-17.554-32.914c-3.657-11.703-4.754-24.137-4.389-36.206  c-0.366,0-0.731,0.731-1.097,0.731c-13.531,14.629-25.966,29.989-37.303,46.446c-13.531,19.017-25.6,39.131-35.474,60.343  c-11.337,24.869-20.114,51.2-21.943,78.629c-2.194,25.6,2.194,52.297,14.994,74.971c10.971,19.749,28.526,35.474,47.909,46.08  c21.211,11.703,44.983,17.92,68.754,20.846c21.211,2.56,42.423,2.56,63.269,0.731c17.554-1.463,35.474-4.023,52.297-9.509  c13.531-4.389,26.697-10.971,38.034-19.383c10.24-8.046,19.383-17.92,26.697-28.891c8.411-12.8,14.629-27.063,19.017-41.326  c3.291-9.874,5.12-20.48,6.217-31.086c2.56-25.234,1.097-50.469-3.291-75.337C396.196,206.992,377.544,163.838,353.041,125.072z"/>
<path style="fill:#F46300;" d="M189.567,224.181c-0.731,0-1.097-1.097-1.829-1.463c-8.046-9.509-13.897-20.846-17.554-32.914  c-3.657-11.703-4.754-24.137-4.389-36.571c-0.366,0-0.731,0.731-1.097,0.731c-13.531,14.629-25.966,29.989-37.303,46.446  c-13.531,19.017-25.6,39.131-35.474,60.343c-11.337,24.503-19.749,50.834-21.943,78.263c1.463,17.92,6.217,35.474,14.994,51.2  c10.971,19.749,28.526,35.474,47.909,46.08c21.211,11.703,44.983,17.92,68.754,20.846c21.211,2.56,42.423,2.56,63.269,0.731  c17.554-1.463,35.474-4.023,52.297-9.509c13.531-4.389,26.697-10.971,38.034-19.383c10.24-8.046,19.383-17.92,26.697-28.891  c8.411-12.8,14.629-27.063,19.017-41.326c3.291-9.874,5.12-20.48,6.217-31.086c0.366-4.754,0.731-9.143,1.097-13.897  c-0.731-12.434-2.194-25.234-4.389-37.669c-8.411-45.349-27.063-88.137-51.566-126.903c-25.234-40.229-56.32-76.069-90.697-108.617  c-0.731-0.731-1.463-1.097-2.194-1.829c2.56,13.897,3.291,28.16,2.194,42.057c0.731,12.069,0.366,24.137-1.463,35.84  c-3.291,22.309-12.069,43.886-25.234,61.806C223.213,196.387,206.756,211.015,189.567,224.181z"/>
<path style="fill:#33363A;" d="M235.647,464.821c-12.069,0-23.406-0.731-34.377-2.194c-26.697-3.291-50.469-10.606-70.583-21.577  c-21.577-11.703-39.131-28.526-50.103-48.274c-12.434-21.943-17.92-49.006-15.726-78.263c1.829-25.234,9.509-51.566,22.674-80.457  c9.509-20.48,21.211-40.594,35.84-61.44c12.434-17.554,24.869-32.914,37.669-46.811c0.366-0.366,0.366-0.366,0.731-0.731  c0.731-0.366,1.097-0.731,1.463-1.097c1.829-1.097,4.023-1.097,5.486-0.366c1.829,1.097,2.926,2.926,2.926,4.754  c-0.366,13.166,1.097,24.503,4.023,34.743c2.926,10.24,8.046,20.114,14.629,28.526c17.92-13.897,31.086-27.063,41.326-41.326  c12.8-17.554,21.211-38.4,24.503-59.611c4.389-27.429,1.097-56.32-9.509-83.383c-0.731-2.194,0-4.754,1.829-6.217  s4.754-1.463,6.583,0c2.56,2.194,4.754,4.389,7.314,6.217c1.463,1.463,2.926,2.56,4.389,4.023  c38.034,36.206,68.023,72.046,91.794,109.714c26.697,42.423,44.251,85.943,52.297,129.097c4.754,26.697,6.217,52.297,3.657,76.8  c-1.463,12.8-3.657,23.04-6.583,32.183c-5.12,16.457-11.703,30.72-19.749,42.789c-7.68,11.703-17.189,21.943-27.794,30.354  c-11.337,8.777-24.869,15.726-39.863,20.48c-15.36,5.12-32.549,8.046-53.394,9.874C255.03,464.455,244.79,464.821,235.647,464.821z   M160.676,142.992c-9.874,11.337-19.017,23.406-28.526,36.571c-14.263,20.48-25.6,39.863-34.743,59.611  c-12.8,27.429-19.749,52.663-21.577,76.434c-2.194,26.697,2.926,51.566,14.263,72.046c10.24,17.92,25.966,33.28,45.714,43.886  c19.017,10.24,41.326,17.189,66.926,20.48c18.286,2.194,38.034,2.56,62.171,0.731c20.114-1.829,36.571-4.754,51.2-9.509  c13.897-4.389,25.966-10.606,36.571-18.651c9.874-7.68,18.286-16.823,25.234-27.429c7.314-11.337,13.531-24.503,18.651-40.229  c2.926-8.411,4.754-17.92,6.217-29.989c2.56-23.406,1.463-48.274-3.291-73.874c-7.68-41.691-24.503-83.749-50.834-125.074l0,0  c-22.309-35.474-50.103-69.12-85.577-103.497c5.851,22.674,7.314,46.446,3.657,69.12c-3.657,23.04-12.8,45.349-26.331,64.366  c-11.337,16.091-26.697,30.72-47.543,46.446c-1.097,0.731-2.56,1.097-4.023,1.097c-2.926-0.366-4.754-2.56-5.12-3.291  c-8.411-10.24-14.629-22.309-18.651-35.109C162.87,159.449,161.407,151.404,160.676,142.992z"/>
<path style="fill:#FF7676;" d="M309.887,269.529c-25.234-25.6-55.954-6.583-70.217,8.777c-14.263-15.36-44.983-34.743-70.217-8.777  c-33.646,34.011,2.194,68.754,2.194,68.754l68.023,76.434v0.366l0.366-0.366l0.366,0.366v-0.366l68.023-76.434  C307.693,338.284,343.167,303.541,309.887,269.529z"/>
<path style="fill:#F24444;" d="M322.687,311.587c-1.829-6.949-5.851-14.263-13.166-21.577c-25.234-25.6-55.954-6.583-70.217,8.777  c-14.263-15.36-44.983-34.743-70.217-8.777c-7.314,7.314-11.337,14.629-13.166,21.577c4.023,15.726,15.36,26.697,15.36,26.697  l68.023,76.434v0.366l0.366-0.366l0.366,0.366v-0.366l68.023-76.434C307.693,338.284,319.03,327.312,322.687,311.587z"/>
<g>
	<path style="fill:#33363A;" d="M239.67,420.935c-0.731,0-1.463,0-2.194-0.366l0,0c-1.463-0.366-2.56-1.463-3.291-2.926   l-66.926-75.337c-1.829-1.829-17.92-18.286-17.92-40.229c0-13.166,5.12-25.234,16.091-35.84   c9.509-9.509,20.48-14.263,32.549-14.263c18.651,0.366,33.646,12.069,41.326,19.383c7.68-7.314,23.04-19.017,41.326-19.383   c12.069,0,23.04,4.754,32.549,14.263l0,0c10.606,10.971,16.091,23.04,16.091,35.84c-0.366,21.943-16.091,38.4-17.92,40.229   l-66.926,75.337c-0.731,1.463-1.829,2.56-3.291,2.926C241.133,420.569,240.401,420.935,239.67,420.935z M197.247,262.581   c-8.777,0-16.823,3.657-24.137,10.971c-8.411,8.777-12.8,18.286-12.8,28.16c0,18.286,14.629,32.549,14.994,32.914l0.366,0.366   l64,72.046l64-72.046c0,0,0-0.366,0.366-0.366c0,0,14.629-14.629,14.994-32.914c0-9.874-4.389-19.383-12.8-28.16   c-7.314-7.314-15.726-10.971-24.503-10.971c-14.629,0.366-28.891,10.24-37.669,19.749c-2.194,2.194-5.851,2.194-8.046,0   c-8.777-9.509-23.04-19.383-37.669-19.749C197.613,262.581,197.247,262.581,197.247,262.581z"/>
	<path style="fill:#33363A;" d="M239.304,462.261c-2.926,0-5.486-2.56-5.486-5.486v-41.691c0-2.926,2.56-5.486,5.486-5.486   s5.486,2.56,5.486,5.486v41.691C244.79,459.701,242.23,462.261,239.304,462.261z"/>
	<path style="fill:#33363A;" d="M158.847,235.152c-1.463,0-2.56-0.366-3.657-1.463c-2.194-2.194-2.56-5.486-0.366-7.68   c1.097-1.097,25.966-28.16,39.863-36.571c2.56-1.463,5.851-0.731,7.68,1.829s0.731,5.851-1.829,7.68   c-12.434,7.314-36.937,34.377-37.303,34.377C161.773,234.421,160.31,235.152,158.847,235.152z"/>
	<path style="fill:#33363A;" d="M129.224,100.935c-1.829,0-3.291-0.731-4.389-2.194l-5.12-6.949c-1.829-2.56-1.097-5.851,1.097-7.68   c2.56-1.829,5.851-1.097,7.68,1.097l5.12,6.949c1.829,2.56,1.097,5.851-1.097,7.68   C131.419,100.569,130.321,100.935,129.224,100.935z"/>
	<path style="fill:#33363A;" d="M112.767,78.626c-1.829,0-3.291-0.731-4.389-2.194l-0.366-0.366c-1.829-2.56-1.097-5.851,1.097-7.68   c2.56-1.829,5.851-1.097,7.68,1.097l0.366,0.366c1.829,2.56,1.097,5.851-1.097,7.68C114.961,78.261,113.864,78.626,112.767,78.626z   "/>
	<path style="fill:#33363A;" d="M82.413,152.501c-0.366,0-0.731,0-0.731,0l-8.777-1.463c-2.926-0.366-5.12-3.291-4.754-6.217   c0.366-2.926,3.291-5.12,6.217-4.754l8.777,1.463c2.926,0.366,5.12,3.291,4.754,6.217   C87.167,150.307,84.973,152.501,82.413,152.501z"/>
	<path style="fill:#33363A;" d="M54.984,148.112c-0.366,0-0.366,0-0.731,0h-0.366c-2.926-0.366-5.12-3.291-4.754-6.217   c0.366-2.926,3.291-5.12,6.217-4.754h0.366c2.926,0.366,5.12,3.291,4.754,6.217C60.104,146.284,57.91,148.112,54.984,148.112z"/>
	<path style="fill:#33363A;" d="M192.493,72.044c-0.366,0-0.731,0-0.731,0c-2.926-0.366-5.12-3.291-4.754-6.217l1.463-8.777   c0.366-2.926,3.291-5.12,6.217-4.754c2.926,0.366,5.12,3.291,4.754,6.217l-1.463,8.777   C197.613,69.849,195.053,72.044,192.493,72.044z"/>
	<path style="fill:#33363A;" d="M196.516,44.615c-0.366,0-0.731,0-0.731,0c-2.926-0.366-5.12-3.291-4.754-6.217v-0.366   c0.366-2.926,3.291-5.12,6.217-4.754c2.926,0.366,5.12,3.291,4.754,6.217v0.366C201.636,42.787,199.441,44.615,196.516,44.615z"/>
</g>
<g>
</g>
<g>
</g>
<g>
</g>
<g>
</g>
<g>
</g>
<g>
</g>
<g>
</g>
<g>
</g>
<g>
</g>
<g>
</g>
<g>
</g>
<g>
</g>
<g>
</g>
<g>
</g>
<g>
</g>
</svg>
