<?xml version="1.0" encoding="iso-8859-1"?>
<!-- Generator: Adobe Illustrator 19.0.0, SVG Export Plug-In . SVG Version: 6.00 Build 0)  -->
<svg xmlns="http://www.w3.org/2000/svg" xmlns:xlink="http://www.w3.org/1999/xlink" version="1.1" id="Capa_1" x="0px" y="0px" viewBox="0 0 409.235 409.235" style="enable-background:new 0 0 409.235 409.235;" xml:space="preserve">
<g>
	<path style="fill:#0399FF;" d="M171.154,354.011c0,18.286-14.994,33.28-33.28,33.28H38.4c-18.286,0-33.28-14.994-33.28-33.28   V55.589c0-18.286,14.994-33.28,33.28-33.28h99.474c18.286,0,33.28,14.994,33.28,33.28   C171.154,55.589,171.154,354.011,171.154,354.011z"/>
	<path style="fill:#0399FF;" d="M403.383,221.257c0,18.286-14.994,33.28-33.28,33.28h-99.474c-18.286,0-33.28-14.994-33.28-33.28   V55.223c0-18.286,14.994-33.28,33.28-33.28h99.474c18.286,0,33.28,14.994,33.28,33.28V221.257z"/>
</g>
<g>
	<path style="fill:#76CEFF;" d="M138.24,22.309H38.766c-18.286,0-33.28,14.994-33.28,33.28v118.126   c0,18.286,14.994,33.28,33.28,33.28h99.474c18.286,0,33.28-14.994,33.28-33.28V55.589C171.154,37.303,156.526,22.309,138.24,22.309   z"/>
	<path style="fill:#76CEFF;" d="M270.629,22.309c-15.726,0-28.891,10.971-32.183,25.966c3.291,14.629,16.457,25.966,32.183,25.966   h99.474c15.726,0,28.891-10.971,32.183-25.966c-3.291-14.629-16.457-25.966-32.183-25.966   C370.469,22.309,270.629,22.309,270.629,22.309z"/>
</g>
<g>
	<path style="fill:#33363A;" d="M138.24,392.777H38.766C17.554,392.777,0,375.589,0,354.011V55.589   c0-21.211,17.189-38.766,38.766-38.766h99.474c21.211,0,38.766,17.189,38.766,38.766v298.423   C176.64,375.589,159.451,392.777,138.24,392.777z M38.4,27.794c-15.36,0-27.794,12.434-27.794,27.794v298.423   c0,15.36,12.434,27.794,27.794,27.794h99.474c15.36,0,27.794-12.434,27.794-27.794V55.589c0-15.36-12.434-27.794-27.794-27.794   L38.4,27.794L38.4,27.794z"/>
	<path style="fill:#33363A;" d="M370.469,260.023h-99.474c-21.211,0-38.766-17.189-38.766-38.766V55.223   c0-21.211,17.189-38.766,38.766-38.766h99.474c21.211,0,38.766,17.189,38.766,38.766v166.034   C408.869,242.834,391.68,260.023,370.469,260.023z M270.629,27.794c-15.36,0-27.794,12.434-27.794,27.794v166.034   c0,15.36,12.434,27.794,27.794,27.794h99.474c15.36,0,27.794-12.434,27.794-27.794V55.589c0-15.36-12.434-27.794-27.794-27.794   L270.629,27.794L270.629,27.794z"/>
	<path style="fill:#33363A;" d="M51.566,298.789H39.497c-2.926,0-5.486-2.56-5.486-5.486s2.56-5.486,5.486-5.486h12.069   c2.926,0,5.486,2.56,5.486,5.486S54.491,298.789,51.566,298.789z"/>
	<path style="fill:#33363A;" d="M167.131,298.789H98.377c-2.926,0-5.486-2.56-5.486-5.486s2.56-5.486,5.486-5.486h68.754   c2.926,0,5.486,2.56,5.486,5.486S170.423,298.789,167.131,298.789z"/>
	<path style="fill:#33363A;" d="M77.531,298.789h-4.389c-2.926,0-5.486-2.56-5.486-5.486s2.56-5.486,5.486-5.486h4.389   c2.926,0,5.486,2.56,5.486,5.486S80.457,298.789,77.531,298.789z"/>
	<path style="fill:#33363A;" d="M51.566,325.852H39.497c-2.926,0-5.486-2.56-5.486-5.486s2.56-5.486,5.486-5.486h12.069   c2.926,0,5.486,2.56,5.486,5.486S54.491,325.852,51.566,325.852z"/>
	<path style="fill:#33363A;" d="M167.131,325.852H98.377c-2.926,0-5.486-2.56-5.486-5.486s2.56-5.486,5.486-5.486h68.754   c2.926,0,5.486,2.56,5.486,5.486S170.423,325.852,167.131,325.852z"/>
	<path style="fill:#33363A;" d="M77.531,325.852h-4.389c-2.926,0-5.486-2.56-5.486-5.486s2.56-5.486,5.486-5.486h4.389   c2.926,0,5.486,2.56,5.486,5.486S80.457,325.852,77.531,325.852z"/>
	<path style="fill:#33363A;" d="M51.566,352.914H39.497c-2.926,0-5.486-2.56-5.486-5.486s2.56-5.486,5.486-5.486h12.069   c2.926,0,5.486,2.56,5.486,5.486S54.491,352.914,51.566,352.914z"/>
	<path style="fill:#33363A;" d="M167.131,352.914H98.377c-2.926,0-5.486-2.56-5.486-5.486s2.56-5.486,5.486-5.486h68.754   c2.926,0,5.486,2.56,5.486,5.486S170.423,352.914,167.131,352.914z"/>
	<path style="fill:#33363A;" d="M77.531,352.914h-4.389c-2.926,0-5.486-2.56-5.486-5.486s2.56-5.486,5.486-5.486h4.389   c2.926,0,5.486,2.56,5.486,5.486S80.457,352.914,77.531,352.914z"/>
	<path style="fill:#33363A;" d="M286.72,170.057h-12.069c-2.926,0-5.486-2.56-5.486-5.486s2.56-5.486,5.486-5.486h12.069   c2.926,0,5.486,2.56,5.486,5.486S290.011,170.057,286.72,170.057z"/>
	<path style="fill:#33363A;" d="M402.651,170.057h-68.754c-2.926,0-5.486-2.56-5.486-5.486s2.56-5.486,5.486-5.486h68.754   c2.926,0,5.486,2.56,5.486,5.486S405.577,170.057,402.651,170.057z"/>
	<path style="fill:#33363A;" d="M312.686,170.057h-4.389c-2.926,0-5.486-2.56-5.486-5.486s2.56-5.486,5.486-5.486h4.389   c2.926,0,5.486,2.56,5.486,5.486S315.977,170.057,312.686,170.057z"/>
	<path style="fill:#33363A;" d="M286.72,197.12h-12.069c-2.926,0-5.486-2.56-5.486-5.486s2.56-5.486,5.486-5.486h12.069   c2.926,0,5.486,2.56,5.486,5.486S290.011,197.12,286.72,197.12z"/>
	<path style="fill:#33363A;" d="M402.651,197.12h-68.754c-2.926,0-5.486-2.56-5.486-5.486s2.56-5.486,5.486-5.486h68.754   c2.926,0,5.486,2.56,5.486,5.486S405.577,197.12,402.651,197.12z"/>
	<path style="fill:#33363A;" d="M312.686,197.12h-4.389c-2.926,0-5.486-2.56-5.486-5.486s2.56-5.486,5.486-5.486h4.389   c2.926,0,5.486,2.56,5.486,5.486S315.977,197.12,312.686,197.12z"/>
	<path style="fill:#33363A;" d="M286.72,224.183h-12.069c-2.926,0-5.486-2.56-5.486-5.486s2.56-5.486,5.486-5.486h12.069   c2.926,0,5.486,2.56,5.486,5.486S290.011,224.183,286.72,224.183z"/>
	<path style="fill:#33363A;" d="M402.651,224.183h-68.754c-2.926,0-5.486-2.56-5.486-5.486s2.56-5.486,5.486-5.486h68.754   c2.926,0,5.486,2.56,5.486,5.486S405.577,224.183,402.651,224.183z"/>
	<path style="fill:#33363A;" d="M312.686,224.183h-4.389c-2.926,0-5.486-2.56-5.486-5.486s2.56-5.486,5.486-5.486h4.389   c2.926,0,5.486,2.56,5.486,5.486S315.977,224.183,312.686,224.183z"/>
</g>
<g>
</g>
<g>
</g>
<g>
</g>
<g>
</g>
<g>
</g>
<g>
</g>
<g>
</g>
<g>
</g>
<g>
</g>
<g>
</g>
<g>
</g>
<g>
</g>
<g>
</g>
<g>
</g>
<g>
</g>
</svg>
