<?xml version="1.0" encoding="iso-8859-1"?>
<!-- Generator: Adobe Illustrator 19.0.0, SVG Export Plug-In . SVG Version: 6.00 Build 0)  -->
<svg xmlns="http://www.w3.org/2000/svg" xmlns:xlink="http://www.w3.org/1999/xlink" version="1.1" id="Capa_1" x="0px" y="0px" viewBox="0 0 462.264 462.264" style="enable-background:new 0 0 462.264 462.264;" xml:space="preserve">
<path style="fill:#6D8599;" d="M295.314,365.714c-8.046,4.023-23.771,7.314-35.474,7.68c-35.474,1.097-42.057-25.234-42.423-44.251  V188.708h88.503V120.32h-88.137V5.485h-64.731c-1.097,0-2.926,1.097-3.291,3.291c-3.657,35.109-19.749,96.914-86.674,121.417v58.149  h44.617v147.383c0,50.469,36.571,122.149,132.389,120.32c32.549-0.731,68.389-14.263,76.434-26.331L295.314,365.714z"/>
<path style="fill:#4C5054;" d="M295.314,365.714c-8.046,4.023-23.771,7.314-35.474,7.68c-35.474,1.097-42.057-25.234-42.423-44.251  V188.708h88.503V120.32h-88.137V5.485h-64.731c-1.097,0-2.926,1.097-3.291,3.291c-5.486,50.103,2.194,102.766-86.674,121.417v58.149  h55.954l-11.337,147.383c0,50.469,36.571,122.149,132.389,120.32c32.549-0.731,68.389-14.263,76.434-26.331L295.314,365.714z"/>
<g>
	<path style="fill:#33363A;" d="M316.526,430.08l-21.211-64.366c-8.046,4.023-23.771,7.314-35.474,7.68   c-35.474,1.097-42.057-25.234-42.423-44.251V188.708h0.366l-0.366-0.366L107.703,298.057v38.034c0,24.137,8.411,53.029,27.794,76.8   l16.091,16.091c20.846,17.189,50.103,28.16,88.869,27.794C272.64,456.046,308.846,442.148,316.526,430.08z"/>
	<path style="fill:#33363A;" d="M237.166,461.897c-39.497,0-73.143-12.434-97.28-36.206c-23.406-23.04-37.669-56.686-37.669-89.6   V194.194H63.086c-2.926,0-5.486-2.56-5.486-5.486V130.56c0-2.194,1.463-4.389,3.657-5.12c64-23.771,79.726-83.383,83.383-117.029   C145.371,2.926,149.394,0,153.417,0h64.731c2.926,0,5.486,2.56,5.486,5.486v109.349h82.651c2.926,0,5.486,2.56,5.486,5.486v68.389   c0,2.926-2.56,5.486-5.486,5.486h-83.017v134.949c0,9.509,2.194,22.674,10.606,30.72c5.851,5.851,14.629,8.411,26.331,8.411   c10.606-0.366,25.6-3.657,33.28-7.314c1.463-0.731,2.926-0.731,4.389,0s2.56,1.829,2.926,3.291l21.211,64.366   c0.366,1.463,0.366,3.291-0.731,4.754c-9.509,14.629-48.274,28.16-80.823,28.891C239.36,461.897,238.263,461.897,237.166,461.897z    M68.571,183.223h39.131c2.926,0,5.486,2.56,5.486,5.486v147.383c0,29.989,12.8,60.709,34.377,81.92   c23.04,22.674,54.126,33.646,92.526,32.914c30.72-0.366,61.44-12.8,70.217-21.943l-18.286-55.954   c-9.143,3.291-21.943,5.851-32.183,5.851c-14.263,0.366-25.966-3.291-34.011-11.337c-8.777-8.411-13.897-21.943-13.897-38.4   V188.708c0-2.926,2.56-5.486,5.486-5.486h83.017v-57.417h-82.651c-2.926,0-5.486-2.56-5.486-5.486V10.971h-57.051   c-4.023,35.84-20.846,96.914-86.674,123.246L68.571,183.223L68.571,183.223z"/>
	<path style="fill:#33363A;" d="M344.32,95.817c-1.463,0-2.926-0.366-4.023-1.463c-2.194-2.194-2.194-5.486,0-7.68l5.12-5.12   c2.194-2.194,5.486-2.194,7.68,0s2.194,5.486,0,7.68l-5.12,5.12C346.88,95.085,345.783,95.817,344.32,95.817z"/>
	<path style="fill:#33363A;" d="M360.411,79.36c-1.463,0-2.926-0.731-4.023-1.829c-2.194-2.194-1.829-5.851,0.366-7.68   c2.194-2.194,5.851-2.194,8.046,0c2.194,2.194,2.194,5.486,0,7.68l-0.366,0.366C363.337,78.994,361.874,79.36,360.411,79.36z"/>
	<path style="fill:#33363A;" d="M295.68,63.634c-2.926,0-5.486-2.56-5.486-5.486v-7.314c0-2.926,2.56-5.486,5.486-5.486   s5.486,2.56,5.486,5.486v7.314C301.166,61.44,298.606,63.634,295.68,63.634z"/>
	<path style="fill:#33363A;" d="M295.68,40.96c-2.926,0-5.486-2.56-5.486-5.486s2.56-5.851,5.486-5.851l0,0   c2.926,0,5.486,2.194,5.486,5.12v0.366C301.166,38.4,298.971,40.594,295.68,40.96L295.68,40.96z"/>
	<path style="fill:#33363A;" d="M383.451,144.457h-7.314c-2.926,0-5.486-2.56-5.486-5.486s2.56-5.486,5.486-5.486h7.314   c2.926,0,5.486,2.56,5.486,5.486S386.743,144.457,383.451,144.457z"/>
	<path style="fill:#33363A;" d="M399.543,144.457L399.543,144.457c-3.291,0-5.851-2.56-5.851-5.486s2.56-5.486,5.486-5.486   s5.486,2.56,5.486,5.486S402.469,144.457,399.543,144.457z"/>
</g>
<g>
</g>
<g>
</g>
<g>
</g>
<g>
</g>
<g>
</g>
<g>
</g>
<g>
</g>
<g>
</g>
<g>
</g>
<g>
</g>
<g>
</g>
<g>
</g>
<g>
</g>
<g>
</g>
<g>
</g>
</svg>
