<?xml version="1.0" encoding="iso-8859-1"?>
<!-- Generator: Adobe Illustrator 19.0.0, SVG Export Plug-In . SVG Version: 6.00 Build 0)  -->
<svg xmlns="http://www.w3.org/2000/svg" xmlns:xlink="http://www.w3.org/1999/xlink" version="1.1" id="Capa_1" x="0px" y="0px" viewBox="0 0 472.006 472.006" style="enable-background:new 0 0 472.006 472.006;" xml:space="preserve">
<path style="fill:#24A9E6;" d="M453.395,74.723c-18.286,10.971-38.4,19.017-59.977,23.406c-17.189-18.651-41.691-30.72-69.12-30.72  c-52.297,0-94.354,43.52-94.354,96.914c0,7.68,0.731,14.994,2.56,21.943c-78.629-4.023-148.114-42.423-194.56-101.303  c-8.046,14.263-12.8,31.086-12.8,48.64c0,33.646,16.823,63.269,42.057,80.457c-15.36-0.366-29.989-4.754-42.789-12.069v1.097  c0,46.811,32.549,85.943,75.703,95.086c-8.046,2.194-16.457,3.291-24.869,3.291c-6.217,0-12.069-0.731-17.92-1.829  c12.069,38.4,46.811,66.56,88.137,67.291c-32.183,25.966-73.143,41.326-117.394,41.326c-7.68,0-14.994-0.366-22.674-1.463  c41.691,27.429,91.429,43.52,144.823,43.52c173.714,0,268.8-147.383,268.8-275.749c0-4.023,0-8.411-0.366-12.434  c18.286-13.531,34.377-30.72,47.177-50.103c-16.823,7.68-35.109,12.8-54.126,15.36C431.452,116.414,446.447,97.397,453.395,74.723z"/>
<g>
	<path style="fill:#0A8CDD;" d="M57.327,185.534c-13.166-8.777-23.771-21.211-31.086-35.474   c1.829,11.703,5.851,22.674,11.703,32.549C44.161,184.437,50.744,185.534,57.327,185.534z"/>
	<path style="fill:#0A8CDD;" d="M402.195,99.226c16.091-1.829,31.451-5.851,46.08-11.703c1.829-4.023,3.657-8.411,5.12-12.8   c-13.531,8.046-28.16,14.629-43.52,19.383C407.315,95.934,404.755,97.763,402.195,99.226z"/>
	<path style="fill:#0A8CDD;" d="M465.83,113.123c-14.994,6.949-31.086,11.703-47.909,14.263c-2.926,2.194-5.486,4.754-8.411,6.949   c0,4.023,0.366,8.411,0.366,12.434c0,128-95.086,275.749-268.8,275.749c-30.354,0-59.977-5.12-87.04-14.994   c-8.411,1.097-16.823,1.829-25.6,1.829c-7.68,0-14.994-0.366-22.674-1.463c41.691,27.429,91.429,43.52,144.823,43.52   c173.714,0,268.8-147.383,268.8-275.749c0-4.023,0-8.411-0.366-12.434C437.304,149.329,453.395,132.506,465.83,113.123z"/>
	<path style="fill:#0A8CDD;" d="M51.841,272.209c4.389,0.731,9.143,1.097,13.897,1.097c8.777,0,16.823-1.097,24.869-3.291   c-28.16-5.851-51.931-24.503-65.097-50.103C28.801,240.026,37.944,258.311,51.841,272.209z"/>
	<path style="fill:#0A8CDD;" d="M63.178,301.466c-2.194-0.366-4.023-0.731-5.851-1.097c8.046,25.6,25.966,46.446,49.371,57.783   c10.606-5.486,20.48-12.069,29.623-19.383C106.332,338.037,80.001,323.409,63.178,301.466z"/>
</g>
<path style="fill:#3DC8F9;" d="M453.395,74.723c-18.286,10.971-38.4,19.017-59.977,23.406c-17.189-18.651-41.691-30.72-69.12-30.72  c-52.297,0-94.354,43.52-94.354,96.914c0,7.68,0.731,14.994,2.56,21.943c-64.731-3.291-123.246-29.989-167.863-72.046  c46.08,48.64,108.983,79.726,179.2,83.383c-1.463-6.949-2.56-14.629-2.56-21.943c0-53.394,42.423-96.914,94.354-96.914  c27.063,0,51.931,11.703,68.754,30.72"/>
<g>
	<path style="fill:#33363A;" d="M150.218,456.529c-52.297,0-103.497-15.36-147.749-44.251c-2.194-1.463-2.926-4.023-2.194-6.583   c0.731-2.56,3.291-4.023,5.851-3.657c6.949,0.731,14.629,1.463,21.943,1.463c36.937,0,72.411-10.971,102.766-31.817   c-36.571-6.217-67.291-32.914-78.629-69.851c-0.731-1.829,0-4.023,1.097-5.12c1.463-1.463,3.291-2.194,5.12-1.829   c5.851,1.097,12.069,1.829,18.286,1.463c-34.743-16.457-57.783-52.297-57.783-92.891v-1.097c0-1.829,1.097-3.657,2.56-4.754   c1.829-1.097,3.657-1.097,5.486,0c6.949,4.023,14.263,6.949,21.943,8.777c-18.651-19.017-29.257-44.983-29.257-72.411   c0-17.92,4.754-35.84,13.531-51.566c0.731-1.463,2.56-2.56,4.389-2.926c1.829,0,3.657,0.731,4.754,2.194   c45.714,57.417,112.274,92.891,183.589,98.743c-0.731-5.12-1.097-10.606-1.097-16.091c0-56.32,44.983-102.4,99.84-102.4   c26.697,0,52.297,10.971,70.949,29.989c19.383-4.389,38.034-11.703,55.223-22.309c1.829-1.097,4.389-1.097,6.217,0.366   c1.829,1.463,2.56,3.657,1.829,5.851c-5.12,16.091-13.897,30.72-25.966,42.423c10.606-2.56,21.211-6.217,31.086-10.971   c2.194-1.097,4.754-0.366,6.583,1.463c1.829,1.829,1.829,4.389,0.366,6.583c-12.434,19.383-28.16,35.84-46.08,49.737   c0,3.291,0,6.583,0,9.874c0,68.023-25.6,137.143-70.583,189.44C318.081,406.792,253.715,456.529,150.218,456.529z M27.704,414.471   c37.669,20.48,79.726,31.086,122.514,31.086c164.937,0,263.314-137.143,263.314-269.897c0-4.023,0-8.411-0.366-12.434   c0-1.829,0.731-3.657,2.194-4.754c13.166-9.874,24.869-20.846,35.109-33.646c-12.434,4.023-25.234,6.949-38.034,8.777   c-2.56,0.366-5.12-1.097-5.851-3.657s0-5.12,2.194-6.583c14.263-8.777,25.966-21.577,33.646-36.571   c-15.36,7.68-31.451,13.166-48.274,16.457c-1.829,0.366-3.657-0.366-5.12-1.829c-16.823-18.286-40.229-28.891-64.731-28.891   c-49.006,0-88.869,40.96-88.869,91.429c0,7.314,0.731,14.263,2.194,20.846c0.366,1.829,0,3.291-1.097,4.754   s-2.926,2.194-4.389,1.829c-74.606-4.023-144.457-39.131-193.463-96.914c-5.486,12.069-8.411,25.234-8.411,38.766   c0,30.72,14.994,59.246,39.497,76.069c1.829,1.463,2.926,4.023,2.194,6.217c-0.731,2.194-2.926,4.023-5.486,3.657   c-12.434-0.366-25.234-3.291-36.937-8.411c3.291,40.229,32.183,73.874,70.949,81.554c2.56,0.366,4.389,2.56,4.389,5.12   s-1.463,4.754-4.023,5.486c-11.337,3.291-23.771,4.389-35.84,3.291c13.897,32.549,44.983,54.491,80.091,54.857   c2.194,0,4.389,1.463,5.12,3.657s0,4.754-1.829,6.217c-34.743,27.794-76.434,42.789-120.686,42.789   C28.07,414.471,27.704,414.471,27.704,414.471z"/>
	<path style="fill:#33363A;" d="M293.212,222.471c-1.463,0-2.926-0.731-4.023-1.829c-16.091-18.286-38.766-28.891-62.903-29.257   c-2.926,0-5.486-2.56-5.486-5.486s2.56-5.486,5.486-5.486c27.063,0,53.029,12.069,70.949,32.914   c1.829,2.194,1.829,5.851-0.366,7.68C295.772,222.106,294.31,222.471,293.212,222.471z"/>
	<path style="fill:#33363A;" d="M220.801,83.5c-1.463,0-2.926-0.366-4.023-1.463l-5.486-5.486c-2.194-2.194-2.194-5.486,0-7.68   s5.486-2.194,7.68,0l5.486,5.486c2.194,2.194,2.194,5.486,0,7.68C223.727,83.134,222.264,83.5,220.801,83.5z"/>
	<path style="fill:#33363A;" d="M203.978,66.677c-1.463,0-2.926-0.731-4.023-1.829c-2.194-2.194-2.194-5.851,0-8.046   c2.194-2.194,5.486-2.194,7.68,0l0.366,0.367c2.194,2.194,2.194,5.486,0,7.68C206.538,66.311,205.075,66.677,203.978,66.677z"/>
	<path style="fill:#33363A;" d="M187.521,133.969h-7.68c-2.926,0-5.486-2.56-5.486-5.486c0-2.926,2.56-5.486,5.486-5.486h7.68   c2.926,0,5.486,2.56,5.486,5.486C193.007,131.409,190.447,133.969,187.521,133.969z"/>
	<path style="fill:#33363A;" d="M163.75,133.969c-2.926,0-5.486-2.56-5.486-5.486c0-2.926,2.194-5.486,5.12-5.486h0.366l0,0   c2.926,0,5.486,2.56,5.486,5.486C169.235,131.409,166.675,133.969,163.75,133.969L163.75,133.969z"/>
	<path style="fill:#33363A;" d="M271.27,50.586c-2.926,0-5.486-2.56-5.486-5.486v-7.68c0-2.926,2.56-5.486,5.486-5.486   s5.486,2.56,5.486,5.486v7.68C276.755,48.026,274.195,50.586,271.27,50.586z"/>
	<path style="fill:#33363A;" d="M271.27,26.449c-2.926,0-5.486-2.56-5.486-5.486s2.56-5.486,5.486-5.486s5.486,2.194,5.486,5.486   v0.366C276.755,24.254,274.195,26.449,271.27,26.449z"/>
	<path style="fill:#33363A;" d="M354.652,137.26c-12.434,0-23.04-10.24-23.04-23.04c0-2.926,2.56-5.486,5.486-5.486   s5.486,2.56,5.486,5.486c0,6.583,5.486,12.069,12.069,12.069s12.069-5.486,12.069-12.069c0-2.926,2.56-5.486,5.486-5.486   s5.486,2.56,5.486,5.486C377.327,127.02,367.087,137.26,354.652,137.26z"/>
	<path style="fill:#33363A;" d="M105.967,229.054c-0.366,0-0.731,0-1.463,0l-15.726-4.023c-2.926-0.731-4.754-3.657-4.023-6.583   c0.731-2.926,3.657-4.754,6.583-4.023l15.726,4.023c2.926,0.731,4.754,3.657,4.023,6.583   C110.721,227.592,108.527,229.054,105.967,229.054z"/>
	<path style="fill:#33363A;" d="M133.03,309.877c-0.366,0-0.731,0-1.463,0l-15.726-4.023c-2.926-0.731-4.754-3.657-4.023-6.583   c0.731-2.926,3.657-4.754,6.583-4.023l15.726,4.023c2.926,0.731,4.754,3.657,4.023,6.583   C137.784,308.049,135.59,309.877,133.03,309.877z"/>
</g>
<g>
</g>
<g>
</g>
<g>
</g>
<g>
</g>
<g>
</g>
<g>
</g>
<g>
</g>
<g>
</g>
<g>
</g>
<g>
</g>
<g>
</g>
<g>
</g>
<g>
</g>
<g>
</g>
<g>
</g>
</svg>
