<?xml version="1.0" encoding="iso-8859-1"?>
<!-- Generator: Adobe Illustrator 19.0.0, SVG Export Plug-In . SVG Version: 6.00 Build 0)  -->
<svg xmlns="http://www.w3.org/2000/svg" xmlns:xlink="http://www.w3.org/1999/xlink" version="1.1" id="Capa_1" x="0px" y="0px" viewBox="0 0 468.214 468.214" style="enable-background:new 0 0 468.214 468.214;" xml:space="preserve">
<path style="fill:#A981D3;" d="M444.765,397.265c-5.486,13.897-25.966,39.497-40.594,50.469  c-13.166,9.874-22.309,13.897-34.743,14.263c-10.24,0.366-14.263-0.366-27.063-5.851c-100.937-41.691-181.76-103.863-245.76-189.074  c-33.28-44.617-58.88-90.697-76.434-138.606C9.93,100.671,9.565,88.237,17.976,73.974c3.657-5.851,19.017-20.846,29.989-29.257  C66.616,30.82,75.028,25.7,81.976,24.237c4.754-1.097,12.8-0.366,17.92,1.463c2.56,0.731,6.217,2.926,8.777,4.389  c13.531,9.143,51.931,57.783,64.366,81.92c6.949,13.897,9.509,24.137,7.314,31.817c-2.194,8.046-6.217,12.434-23.04,26.331  c-6.949,5.486-13.166,11.337-14.263,12.8c-2.56,3.657-4.754,10.971-4.754,16.091c0,12.069,8.046,33.646,17.92,50.469  c8.046,13.166,21.943,29.623,36.206,42.423c16.457,14.994,31.086,25.234,47.543,33.646c21.211,10.606,34.011,13.166,43.52,8.777  c2.194-1.097,4.754-2.56,5.851-3.291c0.731-0.731,6.217-7.314,12.434-14.994c11.703-14.629,14.263-17.189,22.309-19.749  c10.24-3.291,20.48-2.56,31.086,2.926c8.046,4.023,25.234,14.629,36.206,22.674c14.629,10.24,46.08,35.84,50.469,40.96  C448.422,372.397,449.519,384.465,444.765,397.265z"/>
<path style="fill:#9165B7;" d="M440.742,363.254c-4.389-5.12-35.474-30.72-50.469-40.96c-11.337-7.68-28.526-18.651-36.206-22.674  c-10.606-5.486-20.846-6.217-31.086-2.926c-1.463,0.731-2.926,1.097-4.389,1.829c0,0,0,0-0.366,0.366  c-6.217,7.314-11.703,14.263-12.434,14.994s-3.291,2.194-5.486,3.291c-5.851,7.314-11.337,13.897-12.069,14.629  s-3.291,2.194-5.851,3.291c-9.509,4.389-22.309,1.829-43.52-8.777c-16.457-8.046-31.086-18.286-47.543-33.646  c-13.897-12.8-28.16-29.623-36.206-42.423c-10.24-16.823-17.92-38.4-17.92-50.469c0-5.12,2.194-12.434,4.754-16.091  c1.097-1.463,7.314-7.314,14.263-12.8c0.366-0.366,1.097-0.731,1.463-1.097c0.731-1.463,1.463-2.926,1.829-3.657  c1.097-1.463,7.314-7.314,14.263-12.8c1.097-0.731,2.194-1.463,2.926-2.56c1.097-1.829,1.829-4.023,2.56-6.217  c2.194-7.68,0-17.92-7.314-31.817c-12.434-24.137-50.469-72.777-64.366-81.92c-2.194-1.463-6.217-3.291-8.777-4.389  c-5.12-1.829-13.166-2.56-17.92-1.463c-6.949,1.463-15.36,6.583-34.011,20.48c-2.926,2.194-6.217,5.12-9.509,8.046  c-1.097,1.463-2.194,2.56-2.56,3.657c-8.411,14.263-7.68,26.331,2.194,54.491c17.554,47.909,42.789,93.989,76.434,138.606  c64,85.211,144.823,147.383,245.76,189.074c12.8,5.486,17.189,6.217,27.063,5.851c12.069-0.731,21.577-4.389,34.743-14.263  c0.731-0.366,1.097-0.731,1.829-1.463c9.509-10.971,17.92-23.406,21.211-31.451C449.519,384.465,448.422,372.397,440.742,363.254z"/>
<path style="fill:#DFC7FF;" d="M175.965,9.608c4.389-4.023,7.314-4.389,22.309-4.023c7.68,0.366,19.383,1.097,25.6,1.829  c31.817,4.023,57.417,11.703,85.577,25.234c27.794,13.531,45.349,26.331,69.12,49.737c21.943,21.943,34.011,38.766,47.177,64.731  c17.92,36.206,28.16,78.994,29.989,126.537c0.731,16.091,0.366,19.749-3.657,24.503c-6.949,8.777-22.309,7.314-27.794-2.56  c-1.829-3.291-2.194-6.217-2.56-19.017c-1.097-19.749-2.194-32.549-5.12-47.909c-10.971-59.977-39.863-107.886-85.943-142.629  c-38.4-28.891-77.897-42.789-129.829-45.714c-17.554-1.097-20.48-1.829-24.503-4.754C169.382,29.722,169.016,15.825,175.965,9.608z"/>
<path style="fill:#A981D3;" d="M286.045,128.465c-18.651-10.971-46.08-19.383-70.949-21.211c-9.143-0.731-13.897-2.56-17.554-6.583  c-5.12-5.851-5.851-14.263-1.463-20.846c4.754-7.314,12.069-8.777,34.377-5.486c55.954,8.046,99.474,34.377,128,76.434  c16.091,23.771,25.966,51.931,29.257,81.92c1.097,10.971,1.097,31.086,0,34.377s-5.12,7.314-8.411,9.143  c-3.657,1.829-11.337,1.829-15.36-0.731c-6.949-3.657-9.143-9.143-9.143-24.869c0-23.771-6.217-49.006-16.823-68.754  C325.542,159.551,307.987,141.265,286.045,128.465z"/>
<path style="fill:#9165B7;" d="M317.496,251.345c-5.486,5.12-15.36,5.12-21.577,0.366c-4.389-3.291-5.851-6.949-6.949-16.457  c-1.097-12.8-3.291-21.577-7.314-29.623c-8.046-17.554-22.309-26.331-46.811-29.623c-11.337-1.463-14.629-2.56-18.651-6.949  c-6.583-8.046-4.023-21.211,5.12-25.966c3.657-1.829,5.12-1.829,12.8-1.463c4.754,0.366,12.069,1.097,15.726,1.829  c18.286,4.023,32.183,10.971,43.886,21.943c15.36,14.629,23.771,32.183,27.429,57.051  C324.079,239.642,323.347,246.225,317.496,251.345z"/>
<g>
	<path style="fill:#33363A;" d="M439.645,309.494c-0.731,0-1.463,0-2.194,0c-7.68-0.731-14.263-5.12-17.554-11.337   c-2.194-4.754-2.926-8.411-3.291-21.577c-0.731-19.017-2.194-31.817-5.12-47.177c-10.606-58.88-38.766-105.326-83.749-138.971   c-37.303-28.16-76.434-41.691-126.903-44.617l0,0c-17.554-1.097-22.309-1.829-27.429-5.851c-4.754-3.657-7.68-9.874-8.046-16.823   c-0.366-6.949,2.194-13.531,6.949-17.554c6.217-5.486,11.337-5.851,26.331-5.486c8.411,0.366,20.114,1.097,26.331,1.829   c32.183,4.023,58.514,11.703,87.406,25.966c28.16,13.897,46.446,27.063,70.583,50.834c22.309,22.309,35.109,39.863,48.274,66.194   c18.651,37.303,28.891,80.457,30.72,128.731c0.731,16.091,0.366,21.577-4.754,28.16   C452.81,306.568,446.593,309.494,439.645,309.494z M191.325,10.705c-8.411,0-9.509,0.731-11.337,2.926   c-2.194,1.829-3.291,5.486-3.291,9.143s1.463,6.583,3.657,8.411c2.56,1.829,4.023,2.56,21.577,3.657l0,0   c52.663,2.926,93.623,17.554,132.754,46.811c47.177,35.109,76.8,84.48,87.771,145.92c2.926,15.726,4.389,28.891,5.12,48.64   c0.366,12.8,1.097,14.629,2.194,16.823c1.463,2.926,4.754,5.12,8.777,5.486s7.68-1.097,9.509-3.657   c2.194-2.926,2.926-4.389,2.194-20.846c-1.829-46.811-11.703-88.503-29.623-124.343c-12.8-25.6-24.503-41.326-46.08-63.269   c-23.04-23.04-40.229-35.474-67.657-48.64c-27.794-13.531-53.029-20.846-83.749-24.869c-5.851-0.731-17.189-1.463-25.234-1.829   C195.347,11.071,193.153,10.705,191.325,10.705z"/>
	<path style="fill:#33363A;" d="M372.719,282.797c-4.023,0-8.046-0.731-11.337-2.56c-10.24-5.12-12.069-14.263-12.069-29.623   c0-23.04-5.851-47.177-16.091-65.829c-11.703-21.577-28.891-39.131-49.737-51.566c-17.92-10.606-44.251-18.651-68.754-20.48   c-10.606-0.731-16.823-3.291-21.211-8.411c-6.949-8.046-7.68-18.651-1.829-27.429c6.949-10.606,17.92-10.971,39.497-7.68   c57.783,8.411,102.034,35.109,131.657,78.994c16.457,24.137,26.697,53.394,30.354,84.114c1.097,9.509,1.463,31.817-0.366,36.937   c-1.829,4.389-6.583,9.509-10.971,12.069C379.667,282.065,376.01,282.797,372.719,282.797z M212.17,77.997   c-7.68,0-9.509,1.829-11.337,4.754c-2.926,4.754-2.926,10.24,0.731,14.263c2.194,2.194,5.12,4.023,13.897,4.754   c25.966,2.194,54.126,10.606,73.509,21.943c22.309,13.166,40.96,32.549,53.394,55.589c11.337,20.48,17.554,46.446,17.554,71.314   c0,15.726,2.194,17.92,6.217,19.749c2.926,1.463,8.777,1.463,10.606,0.731c2.194-1.097,5.12-4.389,5.851-6.217   c0.731-2.926,1.097-20.846-0.366-31.817c-3.291-28.891-13.166-56.32-28.526-79.36c-27.794-41.326-69.486-66.194-124.343-74.24   C222.045,78.728,216.193,77.997,212.17,77.997z"/>
	<path style="fill:#33363A;" d="M306.525,260.854c-5.12,0-10.24-1.463-13.897-4.389c-6.217-4.754-8.046-10.24-8.777-20.114   c-1.097-11.703-3.291-20.114-6.583-28.16c-7.314-15.726-20.114-23.406-42.423-26.331c-11.703-1.463-16.823-2.926-21.943-8.777   c-4.389-5.12-5.851-12.069-4.754-18.651c1.463-6.949,5.486-12.434,11.337-15.36c4.754-2.56,7.314-2.56,15.726-2.194   c4.754,0.366,12.434,1.097,16.457,2.194c19.017,4.023,34.011,11.337,46.811,23.406c16.457,15.36,25.234,34.011,29.257,60.343   c2.56,16.091,2.194,25.6-6.217,32.914C317.13,259.025,312.01,260.854,306.525,260.854z M228.993,147.482   c-2.56,0-3.291,0.366-4.754,1.097c-2.926,1.463-5.12,4.389-5.851,7.68c-0.731,3.657,0,6.949,2.194,9.509s4.023,3.657,14.994,5.12   c26.331,3.291,42.057,13.166,50.834,32.549c4.023,9.143,6.583,18.286,7.68,31.451c1.097,8.777,2.194,10.606,4.754,12.434   c4.023,3.291,11.337,2.926,14.629,0c3.657-3.291,5.12-7.68,2.56-23.406c-3.657-23.771-11.337-40.594-25.966-54.126   c-10.971-10.24-24.137-16.823-41.326-20.48l0,0c-3.291-0.731-9.874-1.463-14.994-1.829   C231.919,147.482,230.456,147.482,228.993,147.482z"/>
	<path style="fill:#33363A;" d="M365.039,467.848c-8.046,0-13.531-1.463-24.869-6.217c-5.486-2.194-11.337-4.754-17.92-7.68   c-1.097-0.366-2.56-1.097-3.657-1.463l-2.194-1.097c-4.023-1.829-7.68-3.657-11.337-5.486c-1.829-0.731-3.657-1.829-5.486-2.56   l-1.463-0.731c-3.291-1.829-6.949-3.291-10.24-5.12c-2.56-1.097-4.754-2.56-6.949-3.657c-3.291-1.829-6.217-3.291-9.509-5.12   c-2.56-1.463-4.754-2.56-7.314-4.023c-2.926-1.829-6.217-3.657-9.143-5.486l-0.731-0.366c-2.194-1.097-4.023-2.56-6.217-3.657   c-2.926-1.829-6.217-4.023-9.143-5.851l-1.829-1.097c-1.463-1.097-2.926-1.829-4.754-2.926c-3.657-2.194-6.949-4.754-10.606-7.314   c-49.737-35.109-92.526-76.434-130.194-126.537c-3.657-5.12-7.68-10.606-11.703-16.091c-3.291-4.754-6.583-9.509-10.24-15.36   l-0.366-0.731c-23.04-35.109-41.326-71.314-54.857-108.251C3.713,101.768,3.347,87.871,12.49,72.145   c4.389-7.314,20.846-23.04,31.451-31.086C63.324,26.43,72.101,21.31,80.147,19.848c5.486-1.097,14.629-0.366,20.846,1.829   c2.926,1.097,7.314,3.291,9.874,4.754c14.263,9.509,53.394,58.88,66.194,84.114c8.046,15.36,10.24,26.697,7.68,35.84   c-2.926,9.874-7.68,14.994-24.869,28.891c-4.023,3.291-7.68,6.217-10.24,8.777l0,0l-1.097,1.097l0,0c0,0-0.366,0-0.366,0.366   l0.366,0.366l-1.463,1.463c-1.829,2.56-3.657,9.143-3.657,13.166c0,10.971,7.68,31.817,17.189,47.543   c7.68,12.434,21.577,28.891,35.109,41.326c16.091,14.629,30.354,24.869,46.08,32.549c19.017,9.509,31.086,12.069,38.766,8.777   l0.366-0.366c1.463-0.731,2.926-1.463,3.657-1.829h0.366c0.731-0.731,3.291-3.657,11.703-14.263   c11.703-14.629,14.994-18.286,24.869-21.577c11.703-4.023,23.406-2.926,35.109,2.926c8.046,4.023,25.6,14.994,36.937,23.04   c13.897,9.874,46.446,36.206,51.566,42.057l0,0c8.777,10.606,10.24,24.503,4.754,39.497c-5.486,14.629-27.063,41.326-42.423,52.663   c-13.897,10.606-24.137,14.629-37.669,15.36C367.965,467.482,366.502,467.848,365.039,467.848z M79.416,233.425   c3.657,5.486,6.949,10.606,10.24,14.994c3.657,5.486,7.68,10.606,11.337,15.726c36.937,49.371,78.629,89.966,127.634,124.343   c3.291,2.56,6.949,4.754,10.24,6.949c1.463,1.097,2.926,1.829,4.389,2.926l1.829,1.097c2.926,1.829,5.851,4.023,9.143,5.851   c2.194,1.097,4.023,2.56,6.217,3.657l0.731,0.366c2.926,1.829,5.851,3.657,9.143,5.486c2.194,1.463,4.754,2.56,6.949,4.023   c2.926,1.829,6.217,3.291,9.143,5.12c2.194,1.097,4.754,2.56,6.949,3.657c3.291,1.829,6.583,3.291,9.874,5.12l1.463,0.731   c1.829,0.731,3.657,1.829,5.12,2.56c3.657,1.829,7.68,3.657,11.337,5.12l2.194,1.097c1.097,0.366,2.194,1.097,3.291,1.463   c6.217,2.926,12.069,5.12,17.554,7.68c12.069,5.12,15.726,5.851,24.869,5.12c10.971-0.366,19.383-4.023,31.451-13.166   c13.531-10.24,34.011-35.474,38.766-47.909c2.926-7.68,4.754-19.017-2.926-28.526c-3.657-4.389-34.011-29.257-49.371-39.863   c-10.971-7.68-27.794-18.286-35.84-22.309c-9.143-4.754-17.92-5.486-26.697-2.56c-6.583,2.194-8.411,3.657-19.749,17.92   c-11.703,14.629-12.434,14.994-13.166,15.726c-0.366,0.366-1.097,0.731-1.463,1.097c-1.463,0.731-3.291,1.829-5.12,2.56h-0.366   c-11.337,5.12-25.234,2.56-48.274-8.777c-16.823-8.411-31.817-19.017-48.64-34.377c-14.263-13.166-28.891-30.354-36.937-43.52   c-10.971-17.92-18.651-40.229-19.017-53.394c0-6.583,2.56-14.629,5.486-19.383c0-0.366,0.366-0.731,1.097-1.097l3.291-3.291l0,0   c2.926-2.56,6.949-5.851,10.971-9.509c16.823-13.531,19.383-16.823,21.211-23.406c1.829-6.217-0.366-15.36-6.949-27.794   c-12.067-23.405-49.37-71.314-62.17-80.091c-1.829-1.097-5.486-2.926-7.314-3.657c-4.389-1.463-11.337-2.194-14.994-1.463   c-5.851,1.097-14.263,6.217-31.817,19.383c-11.337,8.411-25.6,22.674-28.526,27.794c-6.583,11.337-7.68,20.846,2.926,49.737   c13.166,35.84,31.086,71.68,53.76,106.057l-4.389,3.291L79.416,233.425z"/>
</g>
<g>
</g>
<g>
</g>
<g>
</g>
<g>
</g>
<g>
</g>
<g>
</g>
<g>
</g>
<g>
</g>
<g>
</g>
<g>
</g>
<g>
</g>
<g>
</g>
<g>
</g>
<g>
</g>
<g>
</g>
</svg>
