<svg version="1.1" id="Layer_1" xmlns="http://www.w3.org/2000/svg" xmlns:xlink="http://www.w3.org/1999/xlink" x="0px" y="0px" viewBox="0 0 1280 720" style="enable-background:new 0 0 1280 720;" xml:space="preserve">
 <style type="text/css">
  .st0{fill:#1AB7EA;}
 </style>
 <g>
  <path class="st0" d="M411.7,353.1c-0.8,18-13.4,42.6-37.7,73.9c-25.1,32.7-46.4,49-63.8,49c-10.8,0-19.9-9.9-27.3-29.8
		c-5-18.2-9.9-36.5-14.9-54.7c-5.5-19.9-11.5-29.8-17.8-29.8c-1.4,0-6.2,2.9-14.5,8.7l-8.7-11.2c9.1-8,18.1-16,27-24.1
		c12.2-10.5,21.3-16,27.4-16.6c14.4-1.4,23.2,8.4,26.5,29.5c3.6,22.7,6.1,36.8,7.5,42.4c4.1,18.8,8.7,28.2,13.7,28.2
		c3.9,0,9.7-6.1,17.4-18.3c7.7-12.2,11.9-21.5,12.4-27.9c1.1-10.5-3-15.8-12.4-15.8c-4.4,0-9,1-13.7,3c9.1-29.7,26.4-44.2,52-43.4
		C403.8,316.7,412.7,329,411.7,353.1z">
  </path>
  <path class="st0" d="M525.7,411.4c-7.7,14.6-18.4,27.9-31.9,39.8c-18.5,16-37.1,24-55.6,24c-8.6,0-15.2-2.8-19.7-8.3
		c-4.6-5.5-6.7-12.7-6.4-21.6c0.3-9.1,3.1-23.2,8.5-42.3c5.4-19.1,8.1-29.3,8.1-30.7c0-7.2-2.5-10.8-7.5-10.8
		c-1.7,0-6.4,2.9-14.1,8.7l-9.5-11.2c8.8-8,17.7-16,26.5-24.1c11.9-10.5,20.7-16,26.6-16.6c9.1-0.8,15.8,1.9,20.1,8.1
		c4.3,6.2,5.9,14.3,4.8,24.2c-3.6,16.8-7.5,38.2-11.6,64.1c-0.3,11.9,4,17.8,12.9,17.8c3.9,0,10.8-4.1,20.7-12.3
		c8.3-6.8,15.1-13.2,20.3-19.2L525.7,411.4z M489.6,263.9c-0.3,6.9-3.7,13.5-10.4,19.8c-7.5,7.2-16.3,10.7-26.5,10.7
		c-15.8,0-23.4-6.9-22.8-20.6c0.3-7.2,4.5-14,12.6-20.6c8.2-6.6,17.2-9.9,27.2-9.9c5.8,0,10.6,2.3,14.5,6.8
		C488.1,254.6,489.9,259.2,489.6,263.9z">
  </path>
  <path class="st0" d="M784.7,411.4c-7.7,14.6-18.4,27.9-31.9,39.8c-18.5,16-37.1,24-55.6,24c-18,0-26.7-9.9-26.1-29.8
		c0.3-8.8,2-19.5,5.2-31.9c3.2-12.4,4.9-22.1,5.2-29c0.3-10.5-2.9-15.8-9.6-15.8c-7.2,0-15.8,8.6-25.8,25.7
		c-10.5,18-16.2,35.4-17.1,52.3c-0.6,11.9,0.6,21,3.5,27.4c-19.3,0.6-32.8-2.6-40.5-9.5c-6.9-6.1-10.1-16.2-9.5-30.3
		c0.3-8.8,1.6-17.7,4.1-26.5c2.4-8.8,3.8-16.7,4.1-23.7c0.6-10.2-3.2-15.3-11.2-15.3c-6.9,0-14.4,7.9-22.4,23.6
		c-8,15.8-12.5,32.2-13.3,49.4c-0.6,15.5,0.4,26.3,3,32.4c-19,0.6-32.5-3.4-40.4-12c-6.6-7.2-9.6-18-9.1-32.7
		c0.3-7.2,1.5-17.2,3.8-30c2.3-12.8,3.6-22.8,3.8-30c0.5-5-0.7-7.4-3.7-7.4c-1.7,0-6.4,2.8-14.1,8.4l-10-11.2
		c1.4-1.1,10.1-9.1,26.1-24.1c11.6-10.8,19.5-16.3,23.6-16.6c7.2-0.6,13,2.4,17.4,8.9c4.4,6.5,6.6,14,6.6,22.6
		c0,2.8-0.3,5.4-0.8,7.9c4.1-6.4,9-11.9,14.5-16.6c12.7-11.1,27-17.3,42.7-18.7c13.6-1.1,23.2,2.1,29,9.5c4.7,6.1,6.9,14.8,6.6,26.1
		c1.9-1.6,4-3.5,6.2-5.4c6.4-7.5,12.6-13.4,18.7-17.8c10.2-7.5,20.9-11.6,31.9-12.4c13.3-1.1,22.8,2.1,28.6,9.5
		c5,6.1,7.2,14.7,6.6,26c-0.3,7.7-2.1,18.9-5.6,33.7c-3.5,14.7-5.2,23.2-5.2,25.4c-0.3,5.8,0.3,9.8,1.7,12c1.4,2.2,4.7,3.3,10,3.3
		c3.9,0,10.8-4.1,20.7-12.3c8.3-6.8,15.1-13.2,20.3-19.2L784.7,411.4z">
  </path>
  <path class="st0" d="M940.3,411c-8,13.3-23.8,26.5-47.3,39.8c-29.3,16.8-59,25.3-89.2,25.3c-22.4,0-38.5-7.5-48.1-22.4
		c-6.9-10.2-10.2-22.4-10-36.5c0.3-22.4,10.2-43.7,29.9-63.9c21.6-22.1,47-33.2,76.3-33.2c27.1,0,41.5,11,43.1,33.1
		c1.1,14.1-6.6,28.5-23.2,43.4c-17.7,16.3-40,26.6-66.8,31c5,6.9,12.4,10.3,22.4,10.3c19.9,0,41.6-5.1,65.1-15.2
		c16.9-7.1,30.1-14.5,39.8-22.2L940.3,411z M846.1,367.6c0.3-7.4-2.8-11.1-9.1-11.1c-8.3,0-16.7,5.7-25.3,17.1
		c-8.6,11.4-13,22.4-13.2,32.8c-0.2,0-0.2,1.8,0,5.4c13.5-4.9,25.3-12.5,35.2-22.7C841.7,380.3,845.8,373.2,846.1,367.6z">
  </path>
  <path class="st0" d="M1052.9,383.2c-1.1,25.4-10.5,47.4-28.2,65.9c-17.7,18.5-39.7,27.7-66,27.7c-21.8,0-38.4-7-49.8-21.1
		c-8.3-10.5-12.9-23.6-13.7-39.3c-1.4-23.7,7.2-45.6,25.7-65.4c19.9-22.1,44.9-33.1,75.1-33.1c19.3,0,34,6.5,44,19.5
		C1049.4,349.1,1053.7,364.4,1052.9,383.2z M1006,381.6c0.3-7.5-0.8-14.3-3.1-20.6c-2.4-6.2-5.7-9.4-10.2-9.4
		c-14.1,0-25.7,7.6-34.8,22.9c-7.8,12.5-11.9,25.8-12.5,39.9c-0.3,6.9,1,13,3.7,18.3c3,6.1,7.3,9.1,12.9,9.1
		c12.4,0,23.1-7.3,31.9-22C1001.5,407.6,1005.5,394.9,1006,381.6z">
  </path>
 </g>
</svg>