<?xml version="1.0" encoding="iso-8859-1"?>
<!-- Generator: Adobe Illustrator 19.0.0, SVG Export Plug-In . SVG Version: 6.00 Build 0)  -->
<svg xmlns="http://www.w3.org/2000/svg" xmlns:xlink="http://www.w3.org/1999/xlink" version="1.1" id="Capa_1" x="0px" y="0px" viewBox="0 0 470.583 470.583" style="enable-background:new 0 0 470.583 470.583;" xml:space="preserve">
<path style="fill:#1CB1E6;" d="M397.239,64.869c-64-2.194-107.52,33.28-130.194,106.057c11.703-4.754,23.04-6.949,34.011-6.949  c23.406,0,33.646,12.8,31.086,38.766c-1.463,15.726-11.703,38.4-31.086,68.389s-33.646,44.983-43.52,44.983  c-12.434,0-23.771-23.04-34.011-69.486c-3.291-13.531-9.509-48.274-18.651-104.229c-8.411-51.566-30.354-76.069-66.194-72.411  c-14.994,1.463-38.034,14.994-68.023,40.96c-21.943,19.749-44.617,39.497-67.291,59.246l21.577,27.794  c20.846-14.263,32.549-21.577,36.206-21.577c15.726,0,30.72,24.503,44.251,73.509c12.434,44.983,24.869,89.966,37.303,134.949  c18.651,49.006,41.326,73.509,68.023,73.509c43.154,0,96.549-40.229,159.086-120.686c60.343-76.8,91.794-137.509,93.989-181.76  C467.091,96.32,444.417,65.966,397.239,64.869z"/>
<g>
	<path style="fill:#1CDDF7;" d="M269.971,310.263c-9.143,8.046-13.897,6.217-10.24,6.217c9.509,0,25.6,0,64.366-45.349   c23.04-27.063,29.623-52.663,31.086-68.389c2.926-25.966-7.68-38.766-31.086-38.766c-4.023,0-8.411,0.366-12.8,1.097   c16.091,3.291,23.04,15.726,20.846,37.669c-1.463,15.726-11.703,38.4-31.086,68.389   C288.622,290.149,278.382,303.314,269.971,310.263z"/>
	<path style="fill:#1CDDF7;" d="M403.457,65.234c-2.194,0-4.023-0.366-6.217-0.366c-64-2.194-107.52,33.28-130.194,106.057   c8.411-3.657,16.823-5.486,24.869-6.583C313.125,102.171,350.428,69.257,403.457,65.234z"/>
	<path style="fill:#1CDDF7;" d="M26.771,169.829c22.674-19.749,44.983-39.497,67.291-59.246   c27.063-23.406,48.274-36.571,63.269-39.863c-5.486-1.097-11.703-1.463-17.92-0.731c-14.994,1.463-38.034,14.994-68.023,40.96   c-21.943,19.749-44.617,39.497-67.291,59.246l21.577,27.794"/>
	<path style="fill:#1CDDF7;" d="M166.108,384.503c-12.434-44.983-24.869-89.966-37.303-134.949   c-13.897-49.006-49.737-73.874-65.463-73.874c-1.463,0,2.194,0.366,10.24,5.12c11.337,9.509,22.309,32.183,32.549,68.754   c12.434,44.983,24.869,89.966,37.303,134.949c18.651,49.006,41.326,73.509,68.023,73.509c4.023,0,8.411-0.366,12.8-1.097   C201.582,451.429,182.199,427.291,166.108,384.503z"/>
</g>
<g>
	<path style="fill:#33363A;" d="M211.457,463.497c-29.257,0-53.76-25.966-73.143-77.166v-0.366   c-5.851-21.577-11.703-42.789-17.554-64c-6.583-23.406-13.166-47.177-19.383-70.583c-0.731-2.56-1.463-5.486-2.194-8.046   l-0.731-2.194c-0.731-1.829-1.097-3.657-1.829-5.486l-0.731-2.194c-0.731-2.194-1.463-4.389-2.194-6.583l-0.366-1.097   c-0.731-1.829-1.463-3.657-1.829-5.12l-0.731-2.194c-0.366-1.097-1.097-2.56-1.463-3.657l-0.731-2.194   c-0.731-1.829-1.463-3.291-2.194-4.754l-0.731-1.829c-0.366-1.097-1.097-1.829-1.463-2.926c-0.366-0.731-0.731-1.463-1.097-2.194   s-0.731-1.463-1.097-2.194s-0.731-1.463-1.097-1.829c-0.731-1.097-1.097-1.829-1.829-2.56c-0.366-0.731-1.097-1.463-1.463-2.194   c-0.366-0.366-0.731-1.097-1.097-1.463s-0.731-1.097-1.097-1.463s-0.731-0.731-1.097-1.097c-0.731-0.731-0.731-1.097-1.097-1.097   c-0.366-0.366-0.366-0.366-0.731-0.731l-0.731-0.731l0,0c-3.657-2.194-6.217-3.291-7.68-3.657c-0.366,0-0.731,0-1.097,0   c-0.731,0.366-6.583,2.194-32.914,20.48c-2.56,1.829-5.486,1.097-7.314-1.097L1.171,173.486c-1.829-2.194-1.463-5.486,0.731-7.68   c20.114-17.554,41.326-36.206,66.926-59.246c31.451-27.063,54.491-40.594,71.314-42.423c1.829,0,4.023-0.366,6.217-0.366   c0.731,0,1.463,0,2.194,0c1.463,0,2.56,0,3.657,0.366c1.097,0,1.829,0,2.56,0.366c1.829,0.366,3.291,0.366,5.12,0.731   c27.429,5.851,45.349,31.451,52.297,76.069c8.411,54.126,14.994,89.966,18.286,103.863c13.531,60.709,25.6,65.097,28.891,65.097   c1.097,0,3.657-0.366,8.046-4.023l0.366-0.366c5.12-4.023,10.606-10.606,17.189-19.017l0.366-0.366   c1.097-1.463,2.194-2.926,3.291-4.389l1.097-1.829c0.731-1.097,1.829-2.56,2.56-4.023l1.463-1.829   c1.463-1.829,2.56-4.023,4.023-6.217c18.651-28.891,28.891-51.2,29.989-65.829c0-1.463,0.366-2.926,0.366-4.023v-1.463   c0-0.731,0-1.463,0-2.194s0-1.097,0-1.829c0-0.366,0-1.097,0-1.463c0-0.731,0-1.463-0.366-1.829v-0.731   c-1.463-10.24-6.949-15.726-16.457-17.92c-0.366,0-0.731,0-1.097-0.366c-4.754-0.731-10.24-0.731-16.091-0.366h-0.366   c-5.486,0.731-11.337,1.829-17.189,3.657l-1.097,0.366c-1.829,0.731-3.657,1.463-5.486,2.194s-4.389,0.366-5.851-1.097   c-1.463-1.463-2.194-3.657-1.463-5.851c23.406-75.337,69.12-112.274,135.314-110.08c2.194,0,4.023,0.366,5.851,0.366h0.731   c0,0,0,0,0.366,0c46.08,4.389,68.023,36.571,65.463,96.183c-2.194,45.714-33.28,106.423-95.086,185.051   C310.199,423.269,256.805,463.497,211.457,463.497z M148.554,383.04c17.554,46.08,38.766,69.851,62.903,69.851   c41.326,0,93.623-39.863,154.697-118.491c59.611-75.703,90.697-135.68,92.526-178.834c2.56-53.394-15.726-81.189-55.589-84.846   c0,0,0,0-0.366,0h-0.366c-1.829,0-3.657-0.366-5.486-0.366c-58.88-1.829-98.377,28.16-121.051,91.794   c5.12-1.463,10.24-2.56,15.36-3.291h0.366c7.68-0.731,14.994-0.731,21.211,0.731c0.366,0,0.731,0.366,1.097,0.366   c13.166,3.291,21.577,12.434,23.406,26.697c0,0.366,0,0.731,0,1.097c0,0.731,0,1.463,0.366,2.56c0,0.731,0,1.097,0,1.829   c0,0.731,0,1.463,0,2.194s0,1.829,0,2.56v1.463c0,1.463-0.366,2.926-0.366,4.754c-1.463,16.823-12.069,39.863-31.817,70.949   c-1.463,2.194-2.926,4.389-4.023,6.217l-1.463,2.194c-1.097,1.463-1.829,2.56-2.926,4.023l-1.097,1.829   c-1.097,1.463-2.194,3.291-3.291,4.754l-0.366,0.366c-6.949,9.509-13.166,16.457-19.017,20.846l-0.366,0.366l-0.366,0.366   c-5.486,4.389-10.24,6.583-14.994,6.583c-15.726,0-28.16-22.674-39.497-73.874c-3.657-13.897-9.874-50.103-18.651-104.594   c-6.217-39.863-21.211-62.171-43.886-67.291c-1.463-0.366-2.56-0.366-4.023-0.731c-0.731,0-1.097,0-1.829,0   c-1.463,0-2.194,0-3.291-0.366c-0.731,0-1.463,0-1.829,0c-1.829,0-3.291,0-5.12,0.366c-9.509,0.731-28.891,8.411-65.097,39.497   c-24.137,21.577-44.251,39.131-63.269,55.589l15.36,19.383c26.331-17.92,31.817-19.383,35.109-19.383c1.097,0,2.194,0,3.657,0.366   c0.366,0,0.731,0,1.097,0.366c1.097,0.366,4.754,1.829,10.24,5.12c0.366,0,0.366,0.366,0.731,0.366   c0.366,0.366,0.731,0.731,1.097,0.731l0.366,0.366c0.366,0.366,0.731,0.731,1.097,1.097s0.731,0.731,1.463,1.463   c0.731,0.731,1.097,1.097,1.463,1.463c0.366,0.731,1.097,1.097,1.463,1.829c0.366,0.731,0.731,1.097,1.463,1.829   c0.731,0.731,1.097,1.463,1.829,2.194c0.731,1.097,1.463,1.829,1.829,2.926c0.366,0.731,0.731,1.097,1.097,1.829   c0.731,1.097,1.097,1.829,1.463,2.56s0.731,1.463,1.097,2.194c0.366,1.097,1.097,2.194,1.463,3.291l0.731,1.829   c0.731,1.829,1.463,3.291,2.194,5.12l0.731,1.829c0.731,1.463,1.097,2.926,1.829,4.023l0.731,2.194   c0.731,1.829,1.463,3.657,2.194,5.486l0.366,1.097c0.731,2.194,1.463,4.754,2.56,6.949l0.731,2.194   c0.731,1.829,1.097,3.657,1.829,5.486l0.731,2.56c0.731,2.56,1.463,5.12,2.194,8.046c6.583,23.406,13.166,47.177,19.383,70.583   C136.851,340.251,142.702,361.463,148.554,383.04z"/>
	<path style="fill:#33363A;" d="M135.388,39.634c-2.926,0-5.486-2.56-5.486-5.486V27.2c0-2.926,2.56-5.486,5.486-5.486l0,0   c2.926,0,5.486,2.56,5.486,5.486v6.949C140.874,37.44,138.679,39.634,135.388,39.634L135.388,39.634z"/>
	<path style="fill:#33363A;" d="M135.388,18.423L135.388,18.423c-3.291,0-5.486-2.56-5.486-5.486s2.56-5.486,5.486-5.486   s5.486,2.56,5.486,5.486v0.366C140.874,15.863,138.679,18.423,135.388,18.423z"/>
	<path style="fill:#33363A;" d="M82.359,50.606c-1.463,0-2.926-0.366-4.023-1.463l-4.754-4.754c-2.194-2.194-2.194-5.486,0-7.68   s5.486-2.194,7.68,0l4.754,4.754c2.194,2.194,2.194,5.486,0,7.68C85.285,50.24,83.822,50.606,82.359,50.606z"/>
	<path style="fill:#33363A;" d="M66.999,35.611c-1.463,0-2.926-0.366-3.657-1.463c-2.194-2.194-2.194-5.851-0.366-8.046   c2.194-2.194,5.486-2.194,7.68-0.366l0.366,0.366c2.194,2.194,2.194,5.486,0,7.68C69.925,34.88,68.462,35.611,66.999,35.611z"/>
	<path style="fill:#33363A;" d="M188.782,50.606c-1.463,0-2.926-0.366-4.023-1.463c-2.194-2.194-2.194-5.486,0-7.68l4.754-4.754   c2.194-2.194,5.486-2.194,7.68,0s2.194,5.486,0,7.68l-4.754,4.754C191.708,50.24,190.245,50.606,188.782,50.606z"/>
	<path style="fill:#33363A;" d="M203.777,35.611c-1.463,0-2.926-0.366-4.023-1.463c-2.194-2.194-2.194-5.486,0-7.68   s5.851-2.194,8.046,0c2.194,2.194,2.194,5.486,0,7.68l-0.366,0.366C206.702,34.88,205.239,35.611,203.777,35.611z"/>
	<path style="fill:#33363A;" d="M380.417,39.634c-2.926,0-5.486-2.56-5.486-5.486V27.2c0-2.926,2.56-5.486,5.486-5.486l0,0   c2.926,0,5.486,2.56,5.486,5.486v6.949C385.902,37.44,383.342,39.634,380.417,39.634L380.417,39.634z"/>
	<path style="fill:#33363A;" d="M380.417,18.423C380.051,18.423,380.051,18.423,380.417,18.423c-3.291,0-5.486-2.56-5.486-5.851   s2.56-5.486,5.851-5.486c2.926,0,5.486,2.56,5.486,5.486v0.366C385.537,15.863,383.342,18.423,380.417,18.423z"/>
	<path style="fill:#33363A;" d="M327.022,50.606c-1.463,0-2.926-0.366-4.023-1.463l-4.754-4.754c-2.194-2.194-2.194-5.486,0-7.68   s5.486-2.194,7.68,0l4.754,4.754c2.194,2.194,2.194,5.486,0,7.68C329.948,50.24,328.485,50.606,327.022,50.606z"/>
	<path style="fill:#33363A;" d="M312.028,35.611c-1.463,0-2.926-0.366-3.657-1.463c-2.194-2.194-2.194-5.851-0.366-8.046   c2.194-2.194,5.486-2.194,7.68-0.366l0.366,0.366c2.194,2.194,2.194,5.486,0,7.68C314.588,34.88,313.491,35.611,312.028,35.611z"/>
	<path style="fill:#33363A;" d="M433.445,50.606c-1.463,0-2.926-0.366-4.023-1.463c-2.194-2.194-2.194-5.486,0-7.68l4.754-4.754   c2.194-2.194,5.486-2.194,7.68,0s2.194,5.486,0,7.68l-4.754,4.754C436.371,50.24,434.908,50.606,433.445,50.606z"/>
	<path style="fill:#33363A;" d="M448.805,35.611c-1.463,0-2.926-0.366-4.023-1.463c-2.194-2.194-2.194-5.486,0-7.68   s5.851-2.194,8.046,0c2.194,2.194,2.194,5.486,0,7.68l-0.366,0.366C451.365,34.88,449.902,35.611,448.805,35.611z"/>
	<path style="fill:#33363A;" d="M233.034,356.709c-1.463,0-3.291-0.731-4.389-1.829c-1.829-2.194-1.463-5.851,0.731-7.68   c15.726-12.8,33.646-32.914,54.126-59.977c1.829-2.56,5.12-2.926,7.68-1.097s2.926,5.12,1.097,7.68   c-20.846,27.794-39.497,48.64-55.589,61.806C235.594,356.343,234.497,356.709,233.034,356.709z"/>
</g>
<g>
</g>
<g>
</g>
<g>
</g>
<g>
</g>
<g>
</g>
<g>
</g>
<g>
</g>
<g>
</g>
<g>
</g>
<g>
</g>
<g>
</g>
<g>
</g>
<g>
</g>
<g>
</g>
<g>
</g>
</svg>
