<?xml version="1.0" encoding="utf-8"?>
<!-- Generator: Adobe Illustrator 19.2.1, SVG Export Plug-In . SVG Version: 6.00 Build 0)  -->
<svg version="1.1" id="Layer_1" xmlns="http://www.w3.org/2000/svg" xmlns:xlink="http://www.w3.org/1999/xlink" x="0px" y="0px"
	 viewBox="0 0 2500 2157" style="enable-background:new 0 0 2500 2157;" xml:space="preserve">
<style type="text/css">
	.st0{fill:#1AB7EA;}
</style>
<title>Layer 1</title>
<path class="st0" d="M2498.5,499c-11.2,242.7-181.1,575.1-509.7,997.1c-339.8,440.6-627.4,661-862.6,661
	c-145.6,0-268.9-134.4-369.7-403.3l-201.6-739.4C480.1,745.4,399.8,611,314,611c-18.7,0-84,39.2-196.1,117.6L0.3,577.4
	C122.5,470,243.8,361.7,364.4,252.5C528.7,110.6,651.9,35.9,734.1,28.5c194.2-18.7,313.7,113.9,358.5,397.7
	c48.5,306.2,82.2,496.7,100.8,571.3c56,253.9,117.6,380.9,184.8,380.9c52.3,0,130.7-82.2,235.3-246.5
	c104.6-164.3,160.6-289.4,168-375.3c14.9-141.9-41.1-212.9-168-212.9c-59.7,0-121.4,13.1-184.8,39.2
	c123.2-399.6,358.5-593.7,705.8-582.5C2392.1,7.9,2513.4,174.1,2498.5,499L2498.5,499z"/>
</svg>
