<svg id="Layer_1" style="enable-background:new 0 0 120 120;" version="1.1" viewBox="0 0 120 120" x="0px" xml:space="preserve" xmlns="http://www.w3.org/2000/svg" xmlns:xlink="http://www.w3.org/1999/xlink" y="0px">
 <style type="text/css">
  .st0{fill:#1AB7EA;}
	.st1{fill:#FFFFFF;}
 </style>
 <g>
  <path class="st0" d="M120,108c0,6.6-5.4,12-12,12H12c-6.6,0-12-5.4-12-12V12C0,5.4,5.4,0,12,0h96c6.6,0,12,5.4,12,12V108z">
  </path>
  <g>
   <path class="st1" d="M101,39.9c-0.4,8.4-6.3,20-17.7,34.7c-11.8,15.3-21.8,23-29.9,23c-5.1,0-9.3-4.7-12.8-14
			c-2.3-8.6-4.7-17.1-7-25.7c-2.6-9.3-5.4-14-8.4-14c-0.6,0-2.9,1.4-6.8,4.1l-4.1-5.3c4.3-3.8,8.5-7.5,12.7-11.3
			c5.7-4.9,10-7.5,12.9-7.8c6.7-0.6,10.9,4,12.5,13.8c1.7,10.7,2.9,17.3,3.5,19.9c1.9,8.8,4.1,13.3,6.4,13.3c1.8,0,4.5-2.9,8.2-8.6
			c3.6-5.7,5.6-10.1,5.8-13.1c0.5-4.9-1.4-7.4-5.8-7.4c-2.1,0-4.2,0.5-6.4,1.4c4.3-14,12.4-20.7,24.4-20.3
			C97.3,22.8,101.5,28.6,101,39.9z">
   </path>
  </g>
 </g>
</svg>