<?xml version="1.0" encoding="iso-8859-1"?>
<!-- Generator: Adobe Illustrator 19.0.0, SVG Export Plug-In . SVG Version: 6.00 Build 0)  -->
<svg xmlns="http://www.w3.org/2000/svg" xmlns:xlink="http://www.w3.org/1999/xlink" version="1.1" id="Capa_1" x="0px" y="0px" viewBox="0 0 465.92 465.92" style="enable-background:new 0 0 465.92 465.92;" xml:space="preserve">
<path style="fill:#CAFFE9;" d="M414.768,193.829c10.24-22.674,15.726-52.297,15.726-78.263c0-69.486-35.109-110.08-99.84-110.08  c-66.56,0-105.326,51.566-105.326,119.223c0,67.291,31.086,125.074,82.651,151.406c-21.577,43.52-49.006,81.92-77.897,110.811  c-51.931-63.269-99.109-148.114-118.491-313.051h-76.8C70.265,348.891,175.956,436.297,203.75,453.12  c15.726,9.509,29.257,9.143,43.886,0.731c22.674-13.166,90.697-81.554,128.731-162.011c15.726,0,34.743-1.829,53.76-6.217v-54.126  c-11.703,2.56-23.04,4.023-32.914,4.023c-57.051,0-100.571-40.229-100.571-109.714c0-34.011,13.166-51.931,31.451-51.931  c17.554,0,29.257,16.091,29.257,48.274c0,18.286-4.754,38.4-8.411,50.469C349.305,172.617,366.859,203.337,414.768,193.829z"/>
<g>
	<path style="fill:#44FCB6;" d="M248.002,454.217c22.674-13.166,90.697-81.554,128.731-162.011c15.726,0,34.743-1.829,53.76-6.217   V273.92c-6.583,1.097-13.166,1.463-19.017,1.463c-50.103,0-89.966-31.086-98.743-86.309c-9.874-16.823-15.726-38.034-15.726-63.269   c0-34.011,13.166-51.931,31.451-51.931c17.189,0,28.526,14.994,29.257,44.983c8.777,7.314,13.897,21.211,13.897,42.789   c0,9.143-1.097,18.651-2.926,27.794c10.24,5.12,25.6,8.777,46.08,4.389c10.24-22.674,15.726-52.297,15.726-78.263   c0-9.874-0.731-19.383-2.194-28.16c-16.091-27.429-44.617-42.423-83.749-42.423c-66.56,0-105.326,51.566-105.326,119.223   c0,15.36,1.829,30.354,4.754,44.617c14.263,29.257,36.206,52.663,64,66.926c-3.657,7.68-7.68,14.994-12.069,22.309   c8.046,6.583,16.457,12.434,25.6,17.189c-21.577,43.52-49.006,81.92-77.897,110.811c-34.011-41.326-65.829-91.794-89.234-167.863   c-15.36-39.497-28.526-86.674-37.669-145.189H48.322c8.411,65.829,20.846,120.686,35.474,166.4   c44.617,116.663,100.571,161.646,119.954,173.349C219.842,462.629,233.373,462.263,248.002,454.217z"/>
	<path style="fill:#44FCB6;" d="M428.299,233.692c0.366-0.731,0.366-1.097,0.731-1.829c-8.046,1.829-15.726,2.926-23.04,3.291   C412.573,235.52,419.888,235.154,428.299,233.692z"/>
</g>
<path style="fill:#33363A;" d="M226.79,465.92c-8.411,0-16.823-2.56-25.6-8.046c-10.24-6.217-46.08-30.72-83.749-94.72  C74.288,289.646,44.665,192.731,29.305,74.606c-0.366-1.463,0.366-3.291,1.463-4.389c1.097-1.097,2.56-1.829,4.023-1.829h76.8  c2.926,0,5.12,2.194,5.486,4.754c19.749,167.497,67.657,249.051,113.371,305.371c26.697-27.794,50.834-62.537,70.217-100.206  c-50.103-28.16-80.823-86.309-80.823-153.6C219.842,50.103,264.459,0,330.653,0c66.926,0,105.326,42.057,105.326,115.566  c0,27.794-6.217,57.783-16.091,80.457c-0.731,1.463-2.194,2.926-4.023,3.291c-30.72,5.851-49.737-3.291-60.709-12.069  c-2.194-1.829-11.337-10.24-11.337-14.629c0-0.366,0-1.097,0.366-1.463c2.56-8.411,8.411-29.623,8.411-49.006  c0-27.063-8.777-42.789-23.771-42.789c-16.457,0-25.966,17.189-25.966,46.446c0,63.269,37.303,104.229,95.086,104.229  c10.24,0,21.211-1.463,31.817-3.657c1.463-0.366,3.291,0,4.754,1.097s2.194,2.56,2.194,4.389v54.126c0,2.56-1.829,4.754-4.389,5.486  c-16.457,3.657-34.743,5.851-51.566,6.217c-37.669,77.897-104.96,147.383-129.463,161.28  C242.516,463.36,234.47,465.92,226.79,465.92z M41.008,79.36c38.4,284.891,152.869,361.326,165.669,369.371  c13.531,8.046,24.869,8.411,38.4,0.731c19.383-10.971,87.406-77.166,126.537-159.817c0.731-1.829,2.926-3.291,5.12-3.291  c15.726,0,32.549-1.829,48.274-5.12v-42.789c-9.143,1.829-18.651,2.56-27.429,2.56c-63.634,0-106.057-46.446-106.057-115.2  c0-42.423,19.017-57.417,36.937-57.417c21.943,0,34.743,20.114,34.743,53.76c0,18.651-4.754,38.034-8.046,49.371  c4.389,5.851,20.48,23.406,55.589,17.554c8.777-20.846,14.263-48.274,14.263-73.509c0-67.657-33.646-104.594-94.354-104.594  c-59.611,0-99.84,45.714-99.84,113.737c0,65.097,30.354,121.417,79.726,146.286c2.56,1.463,3.657,4.754,2.56,7.314  c-21.211,42.789-48.64,81.92-78.994,112.274c-1.097,1.097-2.56,1.829-4.023,1.463c-1.463,0-2.926-0.731-4.023-1.829  C178.882,332.8,128.048,250.88,107.202,78.994H41.008V79.36z"/>
<path style="fill:#159B81;" d="M296.642,125.806c0-34.011,13.166-51.931,31.451-51.931c17.554,0,29.257,16.091,29.257,48.274  c0,18.286-4.754,38.4-8.411,50.469c0,0,17.554,30.72,65.463,21.211c10.24-22.674,15.726-52.297,15.726-78.263  c0-69.486-35.109-110.08-99.84-110.08c-66.56,0-105.326,51.566-105.326,119.223c0,67.291,31.086,125.074,82.651,151.406  c-19.017,38.034-42.423,72.046-66.926,99.474c-18.651,24.137-40.594,43.154-65.097,55.223c12.069,11.703,21.943,18.651,28.16,22.674  c15.726,9.509,29.257,9.143,43.886,0.731c22.674-13.166,90.697-81.554,128.731-162.011c15.726,0,34.743-1.829,53.76-6.217v-54.126  c-11.703,2.56-23.04,4.023-32.914,4.023C340.528,235.52,296.642,195.292,296.642,125.806z"/>
<path style="fill:#CAFFE9;" d="M430.493,285.623v-54.126c-11.703,2.56-23.04,4.023-32.914,4.023  c-57.051,0-100.571-40.229-100.571-109.714c0-34.011,13.166-51.931,31.451-51.931c17.554,0,29.257,16.091,29.257,48.274  c0,18.286-4.754,38.4-8.411,50.469c0,0,17.554,30.72,65.463,21.211c10.24-22.674,15.726-52.297,15.726-78.263  c0-69.486-35.109-110.08-99.84-110.08c-66.56,0-105.326,51.566-105.326,119.223c0,66.926,30.72,124.343,81.92,150.674  c5.851,2.194,12.069,4.023,18.286,5.486c24.137,6.583,47.909,9.509,71.314,9.874C407.453,290.012,418.79,288.549,430.493,285.623z"/>
<path style="fill:#44FCB6;" d="M296.642,165.303c0-6.583,0.366-12.8,1.463-18.286c-1.097-6.949-1.463-13.897-1.463-21.211  c0-34.011,13.166-51.931,31.451-51.931c17.554,0,29.257,16.091,29.257,48.274c0,6.949-0.731,13.897-1.829,20.48  c1.097,5.486,1.829,11.703,1.829,19.017c0,6.217-0.731,12.8-1.463,19.017c9.143,8.411,27.429,19.383,58.514,13.166  c7.68-17.189,12.8-38.034,14.629-58.149c-6.217-57.417-40.594-90.697-98.743-90.697c-59.977,0-97.646,42.057-104.229,100.206  c5.486,57.783,35.109,106.423,80.823,130.194c5.851,2.194,12.069,4.023,18.286,5.486c24.137,6.583,47.909,9.509,71.314,9.874  c10.971-1.097,22.309-2.56,34.011-5.12v-14.629c-11.703,2.56-23.04,4.023-32.914,4.023  C340.528,275.017,296.642,235.154,296.642,165.303z"/>
<path style="fill:#2DB487;" d="M404.528,34.377C354.425-0.731,310.539,54.492,303.956,89.6c5.486-10.24,14.263-15.726,24.137-15.726  c17.554,0,29.257,16.091,29.257,48.274c0,18.286-4.754,38.4-8.411,50.469c0,0,17.554,30.72,65.463,21.211  c10.24-22.674,15.726-52.297,15.726-78.263C430.493,80.823,421.716,53.394,404.528,34.377z"/>
<path style="fill:#159B81;" d="M307.979,83.749c21.943-27.794,70.949-48.274,112.64-23.771c-4.023-9.874-9.509-18.286-15.726-25.6  C354.791-0.731,310.905,54.492,304.322,89.6c1.097-2.194,2.56-4.389,4.023-6.217C307.979,83.383,307.979,83.749,307.979,83.749z"/>
<path style="fill:#33363A;" d="M303.956,95.086c-0.731,0-1.097,0-1.829-0.366c-2.56-0.731-4.023-3.657-3.657-6.217  c4.389-23.771,24.137-54.857,51.931-66.56c19.017-7.68,38.766-5.12,57.051,7.68c0.366,0.366,0.731,0.366,1.097,0.731  c6.949,7.68,12.434,16.823,16.823,27.063c1.097,2.926,0,5.851-2.926,7.314c-2.926,1.097-5.851,0-7.314-2.926  c-3.657-9.143-8.777-16.823-14.629-23.771c-15.36-10.606-30.72-12.434-46.08-6.217C334.674,39.863,318.949,60.708,312,79.726  c1.463,2.194,1.829,4.754,0,6.949c-1.463,1.829-2.56,3.291-3.657,5.12C307.979,93.989,306.151,95.086,303.956,95.086z"/>
<path style="fill:#0E8971;" d="M325.168,281.234c-6.217-1.829-12.434-3.657-18.286-5.486  c-23.771-12.434-43.154-31.451-57.051-55.223l0,0c13.897,24.137,33.646,43.52,57.783,55.589  c-4.754,9.509-9.509,18.286-14.629,27.429c6.583,0.731,13.531,1.097,20.48,1.097c24.137,0,46.08-4.754,62.903-12.434  c0,0,0,0,0-0.366h0.366c1.097-0.366,2.56-1.097,3.657-1.463C362.47,289.28,343.819,286.354,325.168,281.234z"/>
<g>
	<path style="fill:#33363A;" d="M396.482,296.594L396.482,296.594c-24.137-0.366-48.64-3.657-72.411-9.874   c-5.851-1.463-12.069-3.291-18.651-5.486c-0.366,0-0.366-0.366-0.731-0.366c-52.297-27.063-84.846-86.674-84.846-155.794   c0-74.606,44.617-124.709,110.811-124.709c66.926,0,105.326,42.057,105.326,115.566c0,27.794-6.217,57.783-16.091,80.457   c-0.731,1.463-2.194,2.926-4.023,3.291c-51.2,10.24-70.583-22.674-71.314-24.137s-1.097-2.926-0.366-4.389   c2.56-8.411,8.411-29.623,8.411-49.006c0-27.063-8.777-42.789-23.771-42.789c-16.457,0-25.966,17.189-25.966,46.446   c0,63.269,37.303,104.229,95.086,104.229c10.24,0,21.211-1.463,31.817-3.657c1.463-0.366,3.291,0,4.754,1.097   s2.194,2.56,2.194,4.389v54.126c0,2.56-1.829,4.754-4.389,5.486c-10.971,2.56-22.674,4.389-34.743,5.486   C396.848,296.594,396.482,296.594,396.482,296.594z M309.076,270.629c6.217,2.194,12.069,3.657,17.554,5.486   c23.04,6.217,46.446,9.509,69.486,9.509c9.874-0.731,19.749-2.194,28.526-4.023v-42.789c-9.143,1.829-18.651,2.56-27.429,2.56   c-63.634,0-106.057-46.446-106.057-115.2c0-42.423,19.017-57.417,36.937-57.417c21.943,0,34.743,20.114,34.743,53.76   c0,18.651-4.754,38.034-8.046,49.371c4.389,5.851,20.48,23.406,55.589,17.554c8.777-20.846,14.263-48.274,14.263-73.509   c0-67.657-33.646-104.594-94.354-104.594c-59.611,0-99.84,45.714-99.84,113.737C230.813,189.44,260.802,245.029,309.076,270.629z"/>
	<path style="fill:#33363A;" d="M226.79,465.92c-8.411,0-16.823-2.56-25.6-8.046c-5.12-2.926-15.36-10.24-29.257-23.406   c-1.097-1.097-1.829-2.926-1.463-4.754c0.366-1.829,1.463-3.291,2.926-4.023c23.04-11.337,44.983-29.989,62.903-53.394l0.366-0.366   c24.137-26.697,46.08-58.88,63.634-93.623c-50.103-28.16-80.823-86.309-80.823-153.6C219.476,50.103,264.093,0,330.288,0   c66.926,0,105.326,42.057,105.326,115.566c0,27.794-6.217,57.783-16.091,80.457c-0.731,1.463-2.194,2.926-4.023,3.291   c-51.2,10.24-70.583-22.674-71.314-24.137s-1.097-2.926-0.366-4.389c2.56-8.411,8.411-29.623,8.411-49.006   c0-27.063-8.777-42.789-23.771-42.789c-16.457,0-25.966,17.189-25.966,46.446c0,31.817,9.509,58.514,27.429,77.166   c17.189,17.554,40.594,27.063,67.657,27.063c10.24,0,21.211-1.463,31.817-3.657c1.463-0.366,3.291,0,4.754,1.097   s2.194,2.56,2.194,4.389v54.126c0,2.56-1.829,4.754-4.389,5.486c-16.457,3.657-34.743,5.851-51.566,6.217   c-37.669,77.897-104.96,147.383-129.463,161.28C242.516,463.36,234.47,465.92,226.79,465.92z M185.465,431.909   c9.874,9.143,17.554,14.263,21.577,16.457c13.531,8.046,24.869,8.411,38.4,0.731c19.383-10.971,87.406-77.166,126.537-159.817   c0.731-1.829,2.926-3.291,5.12-3.291c15.726,0,32.549-1.829,48.274-5.12V238.08c-9.143,1.829-18.651,2.56-27.429,2.56   c-29.989,0-56.686-10.971-75.703-30.354c-20.114-20.846-30.72-50.103-30.72-84.846c0-42.423,19.017-57.417,36.937-57.417   c21.943,0,34.743,20.114,34.743,53.76c0,18.651-4.754,38.034-8.046,49.371c4.389,5.851,20.48,23.406,55.589,17.554   c8.777-20.846,14.263-48.274,14.263-73.509c0-67.657-33.646-104.594-94.354-104.594c-59.611,0-99.84,45.714-99.84,113.737   c0,65.097,30.354,121.417,79.726,146.286c2.56,1.463,3.657,4.754,2.56,7.314c-18.286,37.303-41.691,72.046-67.657,100.571   C227.888,401.554,207.408,419.84,185.465,431.909z"/>
</g>
<g>
</g>
<g>
</g>
<g>
</g>
<g>
</g>
<g>
</g>
<g>
</g>
<g>
</g>
<g>
</g>
<g>
</g>
<g>
</g>
<g>
</g>
<g>
</g>
<g>
</g>
<g>
</g>
<g>
</g>
</svg>
