<?xml version="1.0" encoding="iso-8859-1"?>
<!-- Generator: Adobe Illustrator 19.0.0, SVG Export Plug-In . SVG Version: 6.00 Build 0)  -->
<svg xmlns="http://www.w3.org/2000/svg" xmlns:xlink="http://www.w3.org/1999/xlink" version="1.1" id="Capa_1" x="0px" y="0px" viewBox="0 0 460.069 460.069" style="enable-background:new 0 0 460.069 460.069;" xml:space="preserve">
<path style="fill:#25D800;" d="M230.035,5.486L230.035,5.486L230.035,5.486C106.058,5.486,5.487,106.057,5.487,230.034  c0,49.006,15.726,94.72,42.789,131.657l-27.795,83.383l86.309-27.429c35.474,23.406,77.897,36.937,123.611,36.937  c123.611,0,224.183-100.571,224.183-224.549C454.583,106.423,354.011,5.486,230.035,5.486z M360.594,322.56  c-5.486,15.36-27.063,27.794-43.886,31.817c-11.703,2.56-27.063,4.389-78.629-16.823c-65.829-27.429-108.251-94.354-111.543-98.743  c-3.291-4.389-26.697-35.474-26.697-67.657s16.457-47.909,23.04-54.491c5.486-5.486,14.263-8.046,23.04-8.046  c2.926,0,5.12,0,7.68,0.366c6.583,0.366,9.874,0.731,14.263,10.971c5.486,13.166,18.651,45.349,20.114,48.64  s3.291,7.68,1.097,12.069s-4.023,6.583-7.314,10.24s-6.583,6.583-9.874,10.971c-2.926,3.657-6.583,7.314-2.56,13.897  c3.657,6.583,16.823,27.794,36.571,45.349c24.869,22.309,45.349,29.257,52.663,32.549c5.486,2.194,11.703,1.829,15.726-2.56  c5.12-5.486,11.337-14.263,17.554-23.04c4.389-6.217,10.24-7.314,16.091-4.754c6.217,2.194,38.034,17.92,44.617,21.211  s10.971,4.754,12.434,7.68C366.081,294.034,366.081,307.2,360.594,322.56z"/>
<path style="fill:#2AC106;" d="M106.79,417.28c35.474,23.406,77.897,36.937,123.611,36.937  c115.931,0,211.383-88.503,223.086-201.143C441.784,140.069,346.331,51.932,230.4,51.932l0,0  c-115.931,0-211.383,88.137-223.086,201.143c4.023,40.229,19.017,77.531,41.691,108.617l-10.24,30.72  c3.291,5.486,6.583,10.606,10.24,15.726l-10.605,31.451L106.79,417.28z M99.475,170.789c0-32.183,16.457-47.909,23.04-54.491  c5.486-5.486,14.263-8.046,23.04-8.046c2.926,0,5.12,0,7.68,0.366c6.583,0.366,9.874,0.731,14.263,10.971  c5.486,13.166,18.651,45.349,20.114,48.64s3.291,7.68,1.097,12.069s-4.023,6.583-7.314,10.24c-0.731,1.097-1.829,1.829-2.56,2.926  c4.389,10.24,8.046,19.383,8.777,21.211c1.463,3.291,3.291,7.68,1.097,12.069c-1.829,4.023-3.291,5.851-5.851,8.777  c5.851,8.046,13.897,16.823,22.674,24.869c25.234,22.309,45.349,29.257,52.663,32.549c5.486,2.194,11.703,1.829,15.726-2.56  c5.12-5.486,11.337-14.263,17.554-23.04c4.389-6.217,10.24-7.314,16.091-4.754c6.217,2.194,38.034,17.92,44.617,21.211  s10.971,4.754,12.434,7.68s1.463,15.726-3.657,31.086c-1.097,3.291-2.926,6.217-5.486,9.143c4.754,2.194,8.046,3.657,9.143,5.851  c1.463,2.926,1.463,15.726-3.657,31.086c-5.486,15.36-27.063,27.794-43.886,31.817c-11.703,2.56-27.063,4.389-78.629-16.823  c-65.829-27.429-108.251-94.354-111.543-98.743c-3.291-4.389-26.697-35.474-26.697-67.657c0-9.143,1.463-17.189,3.291-23.771  C100.938,186.149,99.475,178.469,99.475,170.789z"/>
<path style="fill:#08A548;" d="M307.201,262.583c1.463,0.366,4.754,1.829,8.411,3.657L165.67,116.297  c0.366,1.097,1.097,2.194,1.463,3.291c5.486,13.166,18.651,45.349,20.114,48.64s3.291,7.68,1.097,12.069s-4.023,6.583-7.314,10.24  s-6.583,6.583-9.874,10.971c-2.926,3.657-6.583,7.314-2.56,13.897c3.657,6.583,16.823,27.794,36.571,45.349  c25.234,22.309,45.349,29.257,52.663,32.549c5.486,2.194,11.703,1.829,15.726-2.56c5.12-5.486,11.337-14.263,17.554-23.04  C295.497,261.12,301.349,260.389,307.201,262.583z"/>
<path style="fill:#5CAA4F;" d="M99.84,171.154l-1.463,1.463l1.463,1.463C99.84,173.349,99.84,172.252,99.84,171.154z"/>
<g>
	<path style="fill:#33363A;" d="M230.035,460.069c-44.251,0-87.406-12.8-124.343-36.571l-83.749,26.697   c-1.829,0.731-4.023,0-5.486-1.463s-1.829-3.657-1.463-5.486l27.063-80.823C14.63,323.657,0.001,277.943,0.001,230.034   C0.001,103.131,103.132,0,230.035,0l0,0c126.903,0,229.669,103.131,230.034,230.034   C460.07,356.937,356.938,460.069,230.035,460.069z M106.79,411.794c1.097,0,2.194,0.366,2.926,0.731   c35.84,23.771,77.531,36.206,120.32,36.206c120.686,0,219.063-98.377,219.063-219.063S351.086,10.606,230.035,10.606l0,0   c-120.686,0-219.063,98.377-219.063,219.063c0,46.446,14.263,90.697,41.691,128.366c1.097,1.463,1.463,3.291,0.731,5.12   L28.89,436.298l76.069-24.137C105.692,412.16,106.058,411.794,106.79,411.794z M303.544,361.326   c-13.166,0-31.817-4.023-67.657-18.651c-40.229-16.823-80.457-51.931-112.64-98.743c-0.731-0.731-1.097-1.463-1.097-1.829   l-0.366-0.366c-10.24-13.897-27.429-41.691-27.429-70.583c0-33.646,16.823-50.469,24.137-57.783l0.731-0.731   c5.851-6.217,15.726-9.509,26.697-9.509c2.926,0,5.486,0,7.68,0.366c8.046,0.366,13.531,1.463,19.017,14.629l5.486,13.531   c5.486,13.531,13.531,32.549,14.629,34.743c1.097,2.56,4.754,9.874,0.731,17.189c-2.194,4.754-4.389,6.949-7.314,10.606   l-0.731,0.731c-1.463,1.829-2.926,3.291-4.389,4.754c-1.829,1.829-3.657,3.657-5.486,5.851l-0.366,0.366   c-3.291,3.657-3.657,4.754-1.829,7.314c5.851,9.874,18.286,28.526,35.474,43.886c22.309,19.749,40.229,27.063,49.006,30.72   l2.194,0.731c2.926,1.097,7.314,1.463,9.874-1.097c4.023-4.389,9.143-11.337,14.263-18.651l2.926-4.023   c5.486-7.68,13.531-10.24,22.309-6.949c6.949,2.56,44.983,21.211,45.349,21.577c1.463,0.731,2.56,1.097,3.657,1.829   c5.12,2.56,9.143,4.389,11.337,8.046c3.291,5.486,1.463,21.577-3.291,35.84c-6.217,17.554-29.257,31.086-47.909,35.109   C313.417,360.594,309.029,361.326,303.544,361.326z M145.555,113.737c-8.046,0-14.994,2.56-19.017,6.217l-0.731,0.731   c-6.583,6.949-20.846,21.211-20.846,50.103c0,18.651,9.143,42.057,25.234,64l0.366,0.366c0.366,0.366,0.731,1.097,1.463,2.194   c31.086,45.349,69.486,78.994,107.886,94.72c51.931,21.577,65.463,18.651,75.337,16.457c15.726-3.291,35.474-14.994,39.863-28.16   l0,0c5.12-13.897,4.754-24.503,4.023-26.697c-0.731-0.731-4.023-2.194-6.217-3.657c-1.097-0.731-2.56-1.097-3.657-1.829   c-10.971-5.486-39.131-19.017-43.886-20.846c-4.389-1.829-7.314-0.731-9.874,2.926l-2.926,4.023   c-5.486,7.68-10.606,14.994-14.994,19.749c-5.486,5.851-13.897,7.314-21.943,4.023l-1.829-0.731   c-8.411-3.291-28.526-11.337-52.297-32.549c-18.286-16.091-31.451-36.206-37.303-46.446c-5.851-9.874,0-16.457,2.926-20.114   c2.194-2.56,4.023-4.754,5.851-6.583c1.463-1.463,2.56-2.926,4.023-4.389l0.731-0.731c2.56-3.291,4.023-4.754,5.851-8.046   c1.097-1.829,0.731-4.023-0.731-7.314c-1.097-2.194-6.949-16.823-14.629-35.109l-5.486-13.531c-3.291-7.314-4.023-7.314-9.509-7.68   C150.674,113.737,148.115,113.737,145.555,113.737z"/>
	<path style="fill:#33363A;" d="M289.281,171.52c-1.463,0-2.926-0.366-4.023-1.463c-2.194-2.194-2.194-5.486,0-7.68l6.217-6.217   c2.194-2.194,5.486-2.194,7.68,0c2.194,2.194,2.194,5.486,0,7.68l-6.217,6.217C291.841,170.789,290.378,171.52,289.281,171.52z"/>
	<path style="fill:#33363A;" d="M309.029,151.772c-1.463,0-2.926-0.731-4.023-1.829c-2.194-2.194-1.829-5.851,0.366-7.68   l0.366-0.366c2.194-2.194,5.486-1.829,7.68,0.366c2.194,2.194,1.829,5.851-0.366,7.68l-0.366,0.366   C311.589,151.04,310.127,151.772,309.029,151.772z"/>
	<path style="fill:#33363A;" d="M230.035,132.389c-2.926,0-5.486-2.56-5.486-5.486v-8.777c0-2.926,2.56-5.486,5.486-5.486   s5.486,2.56,5.486,5.486v8.777C235.521,130.194,232.961,132.389,230.035,132.389z"/>
	<path style="fill:#33363A;" d="M230.035,104.594c-2.926,0-5.486-2.56-5.486-5.486v-0.366c0-2.926,2.194-5.486,5.486-5.486   c2.926,0,5.486,2.194,5.486,5.486v0.366C235.521,102.034,233.327,104.594,230.035,104.594L230.035,104.594z"/>
	<path style="fill:#33363A;" d="M337.19,230.4h-8.777c-2.926,0-5.486-2.56-5.486-5.486s2.56-5.486,5.486-5.486h8.777   c2.926,0,5.486,2.56,5.486,5.486S340.115,230.4,337.19,230.4z"/>
	<path style="fill:#33363A;" d="M356.572,230.4h-0.366c-2.926,0-5.486-2.56-5.486-5.486s2.56-5.486,5.486-5.486h0.366   c2.926,0,5.486,2.56,5.486,5.486S359.497,230.4,356.572,230.4z"/>
</g>
<g>
</g>
<g>
</g>
<g>
</g>
<g>
</g>
<g>
</g>
<g>
</g>
<g>
</g>
<g>
</g>
<g>
</g>
<g>
</g>
<g>
</g>
<g>
</g>
<g>
</g>
<g>
</g>
<g>
</g>
</svg>
