<svg width="1192" height="770" viewBox="0 0 1192 770" fill="none" xmlns="http://www.w3.org/2000/svg">
<path d="M169.827 666.625H169.348L138.27 541.428H100.858L69.2637 665.3H68.7481L39.9895 541.502H0L48.1274 723.369H88.6324L118.938 599.571H119.416L150.237 723.369H189.969L238.869 541.502H199.653L169.827 666.625ZM360.826 602.701C356.966 597.795 351.888 593.986 346.097 591.654C338.462 588.873 330.355 587.621 322.236 587.972C314.967 588.083 307.821 589.872 301.358 593.201C293.973 596.889 287.857 602.697 283.793 609.882H283.02V541.317H247.007L247.007 723.185H283.167L283.167 654.253C283.167 640.849 285.377 631.239 289.795 625.347C294.214 619.455 301.321 616.583 311.189 616.583C319.843 616.583 325.918 619.234 329.269 624.611C332.62 629.987 334.351 638.051 334.351 648.914L334.351 723.296H370.511L370.511 642.286C370.571 634.804 369.843 627.337 368.338 620.008C367.166 613.748 364.599 607.832 360.826 602.701V602.701ZM509.775 693.801V625.384C510.12 618.568 508.247 611.824 504.435 606.162C500.871 601.299 496.15 597.401 490.7 594.821C484.834 592.013 478.556 590.161 472.105 589.334C465.442 588.417 458.725 587.949 452 587.935C444.692 587.941 437.402 588.669 430.237 590.108C423.363 591.444 416.765 593.934 410.721 597.472C405.004 600.817 400.129 605.427 396.471 610.949C392.513 617.32 390.315 624.626 390.101 632.122L426.261 632.122C426.293 629.213 426.947 626.344 428.179 623.709C429.411 621.073 431.193 618.731 433.404 616.841C438.354 613.527 444.247 611.911 450.195 612.238C453.226 612.23 456.253 612.439 459.254 612.864C461.855 613.228 464.358 614.104 466.618 615.442C468.781 616.72 470.551 618.567 471.737 620.781C473.135 623.667 473.793 626.856 473.651 630.06C473.828 631.646 473.619 633.251 473.042 634.738C472.465 636.225 471.537 637.551 470.337 638.603C467.481 640.791 464.173 642.313 460.653 643.059C456.043 644.182 451.352 644.946 446.624 645.342C441.358 645.857 436.019 646.557 430.606 647.404C425.114 648.161 419.669 649.218 414.293 650.571C409.195 651.897 404.362 654.09 400.006 657.051C395.767 660.176 392.333 664.266 389.99 668.982C387.165 674.696 385.811 681.024 386.05 687.393C385.902 693.428 387.07 699.422 389.475 704.958C391.649 709.725 394.917 713.914 399.012 717.183C403.253 720.489 408.11 722.917 413.299 724.327C419.023 725.883 424.932 726.652 430.863 726.61C438.981 726.585 447.049 725.344 454.798 722.927C462.546 720.585 469.559 716.286 475.161 710.445C475.342 712.631 475.637 714.806 476.045 716.962C476.485 719.065 477.038 721.142 477.702 723.185H514.525C512.462 719.41 511.208 715.246 510.842 710.96C510.141 705.304 509.784 699.611 509.775 693.911V693.801ZM473.651 672.112C473.599 674.848 473.378 677.578 472.989 680.287C472.53 683.833 471.366 687.251 469.564 690.339C467.47 693.89 464.488 696.834 460.911 698.882C455.823 701.588 450.096 702.86 444.341 702.564C441.524 702.57 438.713 702.311 435.945 701.791C433.416 701.352 430.993 700.44 428.801 699.103C426.765 697.827 425.101 696.036 423.978 693.911C422.725 691.373 422.117 688.565 422.21 685.736C422.104 682.836 422.711 679.953 423.978 677.341C425.125 675.187 426.735 673.314 428.691 671.854C430.784 670.345 433.11 669.188 435.577 668.43C438.202 667.569 440.885 666.893 443.604 666.405C446.476 665.889 449.348 665.447 452.221 665.116C455.093 664.784 457.891 664.342 460.506 663.827C463.004 663.371 465.466 662.731 467.87 661.912C469.983 661.264 471.939 660.186 473.615 658.745L473.651 672.112ZM577.271 551.922H541.111V591.654H519.201V615.847H541.111V693.543C540.872 699.074 542.011 704.578 544.425 709.561C546.489 713.496 549.614 716.774 553.446 719.024C557.55 721.321 562.045 722.832 566.703 723.48C571.97 724.247 577.287 724.629 582.61 724.621C586.292 724.621 589.975 724.621 593.657 724.364C597.062 724.218 600.455 723.874 603.82 723.333V695.31C602.057 695.671 600.274 695.929 598.481 696.084C596.603 696.084 594.798 696.341 592.626 696.341C586.513 696.341 582.426 695.31 580.401 693.285C578.375 691.26 577.344 687.173 577.344 681.06V615.7H603.82V591.654H577.344L577.271 551.922ZM726.734 665.373C724.394 661.251 721.176 657.693 717.308 654.953C713.213 652.044 708.708 649.761 703.941 648.177C698.89 646.47 693.753 645.031 688.549 643.869C683.468 642.691 678.46 641.586 673.525 640.555C669.096 639.658 664.719 638.515 660.417 637.13C657.017 636.079 653.853 634.378 651.1 632.122C649.925 631.178 648.983 629.976 648.344 628.61C647.706 627.244 647.389 625.75 647.418 624.242C647.289 621.909 648.008 619.607 649.443 617.762C650.791 616.163 652.493 614.902 654.415 614.079C656.478 613.201 658.663 612.642 660.895 612.422C663.289 612.201 665.498 612.054 667.523 612.054C673.345 611.934 679.112 613.196 684.351 615.736C686.81 617.172 688.838 619.242 690.225 621.729C691.611 624.216 692.304 627.03 692.231 629.876H726.587C726.217 622.715 724.079 615.757 720.364 609.624C716.997 604.425 712.52 600.036 707.255 596.773C701.718 593.436 695.635 591.105 689.286 589.887C682.461 588.519 675.515 587.841 668.554 587.861C661.55 587.843 654.56 588.484 647.676 589.776C641.202 590.906 634.973 593.149 629.265 596.404C623.867 599.508 619.344 603.929 616.119 609.256C612.574 615.626 610.854 622.85 611.148 630.134C610.994 635.289 612.269 640.387 614.83 644.863C617.171 648.842 620.381 652.241 624.22 654.805C628.358 657.538 632.857 659.682 637.586 661.176C642.594 662.796 647.75 664.195 652.978 665.373C663.227 667.353 673.318 670.072 683.173 673.511C690.39 676.236 693.999 680.311 693.999 685.736C694.122 688.588 693.321 691.404 691.716 693.764C690.216 695.875 688.25 697.614 685.972 698.845C683.597 700.18 681.024 701.125 678.349 701.644C675.715 702.244 673.023 702.553 670.322 702.564C666.845 702.569 663.381 702.136 660.012 701.276C656.868 700.494 653.888 699.16 651.211 697.336C648.652 695.53 646.526 693.178 644.988 690.45C643.299 687.374 642.46 683.905 642.558 680.397H608.349C608.266 687.636 610.061 694.772 613.559 701.109C617.057 707.447 622.138 712.769 628.307 716.557C634.309 720.244 640.916 722.837 647.823 724.216C655.189 725.739 662.69 726.504 670.211 726.499C677.63 726.505 685.03 725.778 692.305 724.327C699.116 723.092 705.635 720.594 711.527 716.962C717.582 713.199 722.522 707.887 725.836 701.575C729.151 695.264 730.719 688.181 730.38 681.06C730.575 675.636 729.316 670.258 726.734 665.484V665.373ZM798.539 541.207L729.791 723.075H770.038L784.288 682.57H852.484L866.219 723.075H907.718L839.744 541.207H798.539ZM794.857 652.78L818.534 586.02H819.049L841.953 652.78H794.857ZM1032.55 609.329C1027.64 602.849 1021.35 597.542 1014.14 593.79C1005.78 589.689 996.556 587.691 987.256 587.972C979.514 587.884 971.851 589.532 964.831 592.796C957.836 596.224 951.999 601.626 948.039 608.335H947.524V591.654H913.131V769.435H949.328V706.91H949.807C954.036 713.244 959.885 718.33 966.745 721.639C973.78 724.991 981.488 726.691 989.281 726.61C998.025 726.756 1006.68 724.798 1014.5 720.902C1021.57 717.296 1027.75 712.164 1032.58 705.879C1037.52 699.402 1041.19 692.058 1043.41 684.227C1045.83 675.949 1047.07 667.37 1047.09 658.745C1047.08 649.66 1045.84 640.618 1043.41 631.865C1041.27 623.726 1037.58 616.075 1032.55 609.329V609.329ZM1009.42 673.254C1008.53 677.996 1006.75 682.529 1004.19 686.62C1001.6 690.755 997.96 694.126 993.638 696.391C989.317 698.655 984.471 699.731 979.597 699.508C974.447 699.61 969.363 698.339 964.867 695.826C960.897 693.558 957.536 690.361 955.073 686.51C952.491 682.418 950.681 677.887 949.733 673.143C948.699 668.141 948.193 663.043 948.224 657.935C948.197 652.632 948.703 647.34 949.733 642.138C950.632 637.351 952.404 632.77 954.962 628.624C957.386 624.721 960.706 621.451 964.646 619.087C969.119 616.515 974.219 615.24 979.376 615.405C984.535 615.216 989.641 616.493 994.105 619.087C998.066 621.509 1001.42 624.81 1003.9 628.735C1006.52 632.917 1008.38 637.53 1009.39 642.359C1010.42 647.486 1010.9 652.707 1010.82 657.935C1010.84 663.074 1010.38 668.204 1009.42 673.254V673.254ZM1187.57 631.865C1185.37 623.712 1181.62 616.06 1176.52 609.329C1171.61 602.849 1165.33 597.542 1158.11 593.79C1149.8 589.695 1140.61 587.685 1131.34 587.935C1123.61 587.852 1115.96 589.5 1108.95 592.759C1101.96 596.188 1096.12 601.59 1092.16 608.298H1091.83V591.654H1057.44V769.435H1093.6V706.91H1094.12C1098.34 713.244 1104.19 718.33 1111.05 721.639C1118.09 724.986 1125.8 726.686 1133.59 726.61C1142.36 726.808 1151.05 724.888 1158.92 721.013C1165.99 717.406 1172.16 712.274 1177 705.989C1181.94 699.513 1185.61 692.168 1187.83 684.337C1190.27 676.064 1191.51 667.482 1191.51 658.856C1191.44 649.72 1190.12 640.638 1187.57 631.865V631.865ZM1153.44 673.254C1152.57 677.998 1150.81 682.535 1148.24 686.62C1143.93 692.684 1137.56 696.973 1130.32 698.687C1123.07 700.401 1115.46 699.423 1108.88 695.936C1104.91 693.668 1101.55 690.472 1099.09 686.62C1096.49 682.531 1094.67 678 1093.71 673.254C1092.62 668.159 1092.07 662.962 1092.09 657.751C1092.08 652.449 1092.59 647.159 1093.6 641.954C1094.5 637.167 1096.27 632.586 1098.83 628.44C1101.26 624.545 1104.58 621.277 1108.51 618.903C1112.99 616.331 1118.09 615.056 1123.24 615.221C1128.4 615.038 1133.51 616.314 1137.97 618.903C1141.93 621.325 1145.28 624.626 1147.77 628.551C1150.38 632.733 1152.24 637.346 1153.25 642.175C1154.36 647.293 1154.91 652.515 1154.91 657.751C1154.96 662.952 1154.49 668.146 1153.51 673.254H1153.44Z" fill="#25D366"/>
<path fill-rule="evenodd" clip-rule="evenodd" d="M736.863 57.4497C702.708 23.6781 657.484 3.41071 609.547 0.393047C561.61 -2.62462 514.201 11.8114 476.081 41.0333C437.961 70.2552 411.707 112.288 402.17 159.363C392.633 206.439 400.459 255.375 424.201 297.129L396.031 400.049L501.344 372.432C530.465 388.31 563.105 396.628 596.273 396.624V396.624C635.538 396.554 673.902 384.86 706.53 363.017C739.158 341.175 764.589 310.162 779.617 273.887C794.645 237.613 798.598 197.701 790.976 159.183C783.354 120.666 764.5 85.2672 736.789 57.4497H736.863ZM596.347 363.079C566.781 363.078 537.758 355.129 512.317 340.065L506.279 336.382L443.68 352.768L460.397 291.974L456.494 285.751C437.032 254.748 428.425 218.158 432.024 181.73C435.623 145.303 451.226 111.104 476.378 84.5096C501.531 57.9152 534.808 40.4331 570.978 34.8111C607.149 29.1891 644.162 35.7461 676.2 53.4514C708.238 71.1566 733.485 99.0063 747.971 132.623C762.457 166.239 765.362 203.716 756.228 239.164C747.095 274.611 726.441 306.018 697.514 328.448C668.586 350.878 633.026 363.06 596.421 363.079H596.347ZM686.747 239.428C681.813 236.924 657.289 224.92 652.833 223.263C648.378 221.606 644.99 220.796 641.786 225.767C638.583 230.738 628.972 241.895 626.063 245.209C623.154 248.523 620.282 248.891 615.311 246.461C600.708 240.671 587.216 232.399 575.432 222.011C564.586 211.966 555.28 200.377 547.815 187.618C544.942 182.647 547.52 179.959 549.987 177.492C552.454 175.025 554.958 171.711 557.352 168.802C559.389 166.294 561.052 163.503 562.286 160.517C562.95 159.15 563.261 157.638 563.19 156.12C563.119 154.602 562.669 153.126 561.881 151.826C560.666 149.323 550.834 124.909 546.599 115.004C542.365 105.098 538.462 106.645 535.553 106.498C532.644 106.35 529.366 106.498 526.052 106.498C523.538 106.565 521.066 107.152 518.79 108.224C516.515 109.295 514.487 110.826 512.833 112.721C507.236 117.97 502.785 124.321 499.763 131.375C496.74 138.428 495.21 146.031 495.269 153.704C495.269 178.155 513.054 201.574 515.521 205.035C517.988 208.497 550.539 258.502 600.213 280.007C609.446 283.997 618.886 287.488 628.493 290.464C638.621 293.533 649.325 294.201 659.756 292.416C669.293 290.98 689.214 280.412 693.265 268.812C697.315 257.213 697.389 247.271 696.174 245.209C694.958 243.147 691.865 241.895 686.747 239.428Z" fill="#25D366"/>
</svg>
