<?xml version="1.0" encoding="iso-8859-1"?>
<!-- Generator: Adobe Illustrator 19.0.0, SVG Export Plug-In . SVG Version: 6.00 Build 0)  -->
<svg xmlns="http://www.w3.org/2000/svg" xmlns:xlink="http://www.w3.org/1999/xlink" version="1.1" id="Capa_1" x="0px" y="0px" viewBox="0 0 468.941 468.941" style="enable-background:new 0 0 468.941 468.941;" xml:space="preserve">
<g>
	<polygon style="fill:#0E73D8;" points="5.35,244.392 5.716,400.187 192.596,425.787 192.23,245.855  "/>
	<polygon style="fill:#0E73D8;" points="463.225,5.581 214.905,41.787 214.905,224.644 463.225,222.815  "/>
</g>
<g>
	<polygon style="fill:#1B8EED;" points="5.35,70.312 5.716,226.107 192.596,225.009 192.596,45.078  "/>
	<polygon style="fill:#1B8EED;" points="214.905,428.347 463.225,463.455 463.225,247.318 214.539,246.952  "/>
	<polygon style="fill:#1B8EED;" points="5.35,318.632 5.716,400.187 192.596,425.787 192.23,319.729  "/>
	<polygon style="fill:#1B8EED;" points="214.905,224.644 463.225,222.815 463.225,79.821 214.905,115.661  "/>
</g>
<g>
	<polygon style="fill:#20B5EC;" points="5.35,144.552 5.716,226.107 192.596,225.009 192.596,118.952  "/>
	<polygon style="fill:#20B5EC;" points="463.225,463.455 463.225,321.558 214.905,320.827 214.905,428.347  "/>
</g>
<g>
	<path style="fill:#33363A;" d="M192.596,431.272c-0.366,0-0.366,0-0.731,0l-186.88-25.6c-2.56-0.366-4.754-2.56-4.754-5.486   V244.392c0-1.463,0.731-2.926,1.463-4.023c1.097-1.097,2.194-1.463,4.023-1.463l186.88,1.097c2.926,0,5.486,2.56,5.486,5.486   V425.42c0,1.463-0.731,2.926-1.829,4.023C195.156,430.907,193.693,431.272,192.596,431.272z M11.202,395.432l175.909,24.137   V251.341l-175.909-1.097C11.202,250.244,11.202,395.432,11.202,395.432z"/>
	<path style="fill:#33363A;" d="M214.905,230.129c-1.463,0-2.926-0.731-4.023-1.463c-1.097-1.097-1.463-2.56-1.463-4.023V41.787   c0-2.56,1.829-5.12,4.754-5.486L462.128,0.095c1.463-0.366,3.291,0.366,4.389,1.463s1.829,2.56,1.829,4.023V222.45   c0,2.926-2.56,5.486-5.486,5.486L214.905,230.129C215.27,230.129,215.27,230.129,214.905,230.129z M220.39,46.541v172.617   l236.983-1.829V12.164L220.39,46.541z"/>
	<path style="fill:#33363A;" d="M5.716,231.592c-1.463,0-2.926-0.731-4.023-1.463c-1.097-1.097-1.463-2.56-1.463-4.023V70.678   c0-2.926,2.194-5.12,4.754-5.486L192.23,39.958c1.463-0.366,3.291,0.366,4.389,1.463s1.829,2.56,1.829,4.023v179.931   c0,2.926-2.56,5.486-5.486,5.486L5.716,231.592L5.716,231.592z M10.836,75.067v145.189l175.909-1.097V50.93L10.836,75.067z"/>
	<path style="fill:#33363A;" d="M463.225,468.941c-0.366,0-0.366,0-0.731,0L214.54,434.198c-2.56-0.366-4.754-2.56-4.754-5.486   l-0.366-181.394c0-1.463,0.731-2.926,1.463-4.023c1.097-1.097,2.56-1.463,4.023-1.463l0,0l248.32,0.366   c2.926,0,5.486,2.56,5.486,5.486v216.137c0,1.463-0.731,2.926-1.829,4.023C465.785,468.575,464.322,468.941,463.225,468.941z    M220.39,423.592l236.983,33.28V252.438l-237.349-0.366L220.39,423.592z"/>
</g>
<g>
</g>
<g>
</g>
<g>
</g>
<g>
</g>
<g>
</g>
<g>
</g>
<g>
</g>
<g>
</g>
<g>
</g>
<g>
</g>
<g>
</g>
<g>
</g>
<g>
</g>
<g>
</g>
<g>
</g>
</svg>
