<?xml version="1.0" encoding="iso-8859-1"?>
<!-- Generator: Adobe Illustrator 19.0.0, SVG Export Plug-In . SVG Version: 6.00 Build 0)  -->
<svg xmlns="http://www.w3.org/2000/svg" xmlns:xlink="http://www.w3.org/1999/xlink" version="1.1" id="Capa_1" x="0px" y="0px" viewBox="0 0 467.383 467.383" style="enable-background:new 0 0 467.383 467.383;" xml:space="preserve">
<path style="fill:#FFFFFF;" d="M233.691,461.897c-125.806,0-228.206-102.034-228.206-228.206S107.521,5.486,233.691,5.486  S461.898,107.52,461.898,233.691S359.864,461.897,233.691,461.897z"/>
<path style="fill:#EAF4F9;" d="M461.898,233.691c0,125.806-102.034,228.206-228.206,228.206  c-125.806,0-228.206-102.034-228.206-228.206"/>
<g>
	<path style="fill:#33363A;" d="M233.691,467.383c-128.731,0-233.691-104.96-233.691-233.692S104.961,0,233.691,0   s233.691,104.96,233.691,233.691S362.424,467.383,233.691,467.383z M233.691,10.971c-122.88,0-222.72,99.84-222.72,222.72   s99.84,222.72,222.72,222.72s222.72-99.84,222.72-222.72S356.572,10.971,233.691,10.971z"/>
	<path style="fill:#33363A;" d="M67.658,233.691c0,65.829,38.034,122.514,93.623,149.211L82.287,166.034   C72.778,186.88,67.658,209.554,67.658,233.691z"/>
	<path style="fill:#33363A;" d="M236.618,248.32l-49.737,144.823c14.994,4.389,30.72,6.583,46.811,6.583   c19.383,0,38.034-3.291,55.223-9.509c-0.366-0.731-0.731-1.463-1.097-2.194L236.618,248.32z"/>
	<path style="fill:#33363A;" d="M345.601,225.28c0-20.48-7.314-34.743-13.531-45.714c-8.411-13.531-16.457-25.234-16.457-38.766   c0-15.36,11.703-29.623,27.794-29.623c0.731,0,1.463,0,2.194,0c-29.623-27.063-68.754-43.52-111.909-43.52   c-58.149,0-108.983,29.623-138.606,74.971c4.023,0,7.68,0.366,10.606,0.366c17.189,0,44.251-2.194,44.251-2.194   c8.777-0.366,9.874,12.8,1.097,13.531c0,0-9.143,1.097-19.017,1.463l60.343,179.931l36.206-108.983l-25.966-70.949   c-8.777-0.366-17.554-1.463-17.554-1.463c-8.777-0.366-8.046-14.263,1.097-13.531c0,0,27.429,2.194,43.886,2.194   c17.189,0,44.251-2.194,44.251-2.194c8.777-0.366,9.874,12.8,1.097,13.531c0,0-9.143,1.097-19.017,1.463l59.977,178.469   L332.8,279.04C340.115,256,345.601,239.543,345.601,225.28z"/>
	<path style="fill:#33363A;" d="M380.344,171.154c0,16.823-3.291,35.84-12.8,59.611l-50.834,146.651   c49.371-28.891,82.651-82.286,82.651-143.36c0-28.891-7.314-55.954-20.48-79.726C379.977,159.451,380.344,164.937,380.344,171.154z   "/>
</g>
<g>
</g>
<g>
</g>
<g>
</g>
<g>
</g>
<g>
</g>
<g>
</g>
<g>
</g>
<g>
</g>
<g>
</g>
<g>
</g>
<g>
</g>
<g>
</g>
<g>
</g>
<g>
</g>
<g>
</g>
</svg>
