<?xml version="1.0" encoding="iso-8859-1"?>
<!-- Generator: Adobe Illustrator 19.0.0, SVG Export Plug-In . SVG Version: 6.00 Build 0)  -->
<svg xmlns="http://www.w3.org/2000/svg" xmlns:xlink="http://www.w3.org/1999/xlink" version="1.1" id="Capa_1" x="0px" y="0px" viewBox="0 0 462.768 462.768" style="enable-background:new 0 0 462.768 462.768;" xml:space="preserve">
<g>
	<path style="fill:#F93838;" d="M150.443,292.346c7.314-1.829,12.434-8.777,12.8-17.554c0.366-9.143-4.023-17.189-11.703-19.749   l-20.846-8.777c-71.68-29.989-74.971-31.086-78.629-31.451c-5.486-0.366-10.606,2.56-13.897,8.046   c-7.314,11.703-10.24,48.64-7.68,73.509c0.731,8.046,2.194,14.994,4.389,19.017c2.926,5.486,7.68,8.777,13.166,9.143   c3.657,0.366,5.851-0.366,72.411-22.309C120.455,302.22,150.078,292.346,150.443,292.346z"/>
	<path style="fill:#F93838;" d="M187.746,320.14c-8.411-3.291-17.189-1.097-22.309,5.12l-14.629,17.554   c-50.469,59.977-52.297,62.903-53.76,66.194c-0.731,2.194-1.097,4.389-0.731,6.583c0.366,3.291,1.829,6.217,4.023,9.143   c11.703,14.263,67.657,35.109,85.577,31.817c6.217-1.097,10.606-4.754,12.8-9.874c1.097-3.291,1.463-5.851,1.463-77.166   c0,0,0-31.451,0-31.817C200.912,330.38,195.792,323.431,187.746,320.14z"/>
	<path style="fill:#F93838;" d="M255.403,259.066c0,0-0.366,0.366-0.366,0.731c3.657-1.463,10.606-3.291,22.674-6.217   c75.703-18.651,78.629-19.749,81.92-21.577c4.754-3.291,6.949-8.411,6.583-14.629c0-0.366,0-0.366,0-0.731   c-1.829-19.017-34.743-68.023-50.834-76.069c-5.851-2.926-11.337-2.56-16.091,0.731c-2.926,1.829-5.12,4.754-45.714,61.44   c0,0-18.286,25.234-18.651,25.6c-4.754,5.851-4.754,14.629-0.366,21.943C239.312,257.603,247.723,261.26,255.403,259.066z"/>
	<path style="fill:#F93838;" d="M189.94,17.328c-1.463-5.851-5.851-9.874-12.434-11.337c-19.383-4.754-93.257,16.091-107.154,30.72   c-4.389,4.754-5.851,10.24-4.754,15.36c2.194,4.389,93.989,151.04,93.989,151.04c13.531,22.309,24.503,19.017,28.16,17.554   c3.657-1.097,14.629-4.754,13.166-30.72C200.18,159.591,191.037,23.911,189.94,17.328z"/>
	<path style="fill:#F93838;" d="M291.243,308.803c0,0-29.257-9.874-29.623-9.874c-6.949-2.926-14.994-0.366-20.48,6.583   c-5.486,6.949-6.583,16.091-1.829,23.04l11.703,19.383c39.497,65.463,42.789,69.851,45.349,72.411   c4.389,3.657,9.874,4.023,15.726,1.829c16.823-6.949,53.76-54.491,56.32-72.777c0.731-6.217-1.097-11.703-5.486-15.36   C359.998,331.843,357.803,331.111,291.243,308.803z"/>
</g>
<g>
	<path style="fill:#CC2414;" d="M150.443,292.346c7.314-1.829,12.434-8.777,12.8-17.554c0.366-9.143-4.023-17.189-11.703-19.749   l-20.846-8.777c-71.68-29.989-64-8.777-67.291-8.777c-5.486-0.366-10.606,2.56-13.897,8.046   c-7.314,11.703-21.211,26.331-19.017,50.834c0.731,8.046,2.194,14.994,4.389,19.017c2.926,5.486,7.68,8.777,13.166,9.143   c3.657,0.366,5.851-0.366,72.411-22.309C120.455,302.22,150.078,292.346,150.443,292.346z"/>
	<path style="fill:#CC2414;" d="M187.746,320.14c-8.411-3.291-10.971,15.726-16.091,22.309l-14.629,17.554   c-50.469,59.977-58.514,45.714-59.611,49.006c-0.731,2.194-1.097,4.389-0.731,6.583c0.366,3.291,1.829,6.217,4.023,9.143   c11.703,14.263,67.657,35.109,85.577,31.817c6.217-1.097,10.606-4.754,12.8-9.874c1.097-3.291,1.463-5.851,1.463-77.166   c0,0,0-31.451,0-31.817C200.912,330.38,195.792,323.431,187.746,320.14z"/>
	<path style="fill:#CC2414;" d="M255.403,259.066c0,0-0.366,0.366-0.366,0.731c3.657-1.463,10.606-3.291,22.674-6.217   c75.703-18.651,78.629-19.749,81.92-21.577c4.754-3.291,6.949-8.411,6.583-14.629c0-0.366,0-0.366,0-0.731   c-1.829-19.017-25.6-46.811-41.326-54.857c-5.851-2.926-11.337-2.56-16.091,0.731c-2.926,1.829-14.263-16.457-54.857,39.863   c0,0-18.286,25.234-18.651,25.6c-4.754,5.851-4.754,14.629-0.366,21.943C239.312,257.603,247.723,261.26,255.403,259.066z"/>
	<path style="fill:#CC2414;" d="M189.94,17.328c-1.463-5.851-5.851-9.874-12.434-11.337c-19.383-4.754-54.857,23.771-68.754,38.034   c-4.389,4.754-6.217,10.606-4.754,15.36c2.194,4.389,55.589,143.36,55.589,143.36c13.531,22.309,24.503,19.017,28.16,17.554   c3.657-1.097,14.629-4.754,13.166-30.72C200.18,159.591,191.037,23.911,189.94,17.328z"/>
	<path style="fill:#CC2414;" d="M291.243,308.803c0,0-18.286-3.657-18.651-4.023c-6.949-2.926-14.994-0.366-20.48,6.583   c-5.486,6.949-6.583,16.091-1.829,23.04l0.731,13.531c39.497,65.463,42.789,69.851,45.349,72.411   c4.389,3.657,9.874,4.023,15.726,1.829c16.823-6.949,53.76-54.491,56.32-72.777c0.731-6.217-1.097-11.703-5.486-15.36   C359.998,331.843,357.803,331.111,291.243,308.803z"/>
</g>
<g>
	<path style="fill:#33363A;" d="M49.14,329.648c-0.366,0-0.731,0-1.463,0c-7.314-0.366-13.897-4.754-17.92-12.069   c-2.194-4.389-4.023-11.337-5.12-20.846c-2.56-25.6,0.366-63.634,8.411-76.8c4.389-6.949,11.337-10.971,18.651-10.606   c4.389,0,5.12,0,80.457,31.817l20.846,8.777c9.509,3.657,15.726,13.897,14.994,25.234s-7.314,20.114-16.823,22.674   c-1.829,0.731-7.68,2.56-27.063,8.777l-2.56,0.731C59.38,327.82,53.163,329.648,49.14,329.648z M51.335,220.3   c-4.389,0-7.314,2.926-8.777,5.486c-5.851,9.874-9.509,44.983-6.949,69.851c1.097,10.606,2.926,14.994,4.023,16.823   c1.829,3.657,5.12,5.851,8.777,6.217c2.926,0,11.337-2.56,70.583-21.943l0,0c0.731-0.366,1.829-0.731,2.56-0.731   c6.949-2.194,25.6-8.411,27.063-8.777h0.366c5.12-1.463,8.411-6.217,8.777-12.8c0.366-6.583-2.926-12.434-8.046-14.629   L128.5,251.02c-64.731-27.063-73.874-30.72-76.434-30.72C51.7,220.3,51.7,220.3,51.335,220.3z"/>
	<path style="fill:#33363A;" d="M181.895,462.768c-23.406,0-73.509-19.383-85.577-34.011c-2.926-3.657-4.754-8.046-5.12-12.069   c-0.366-2.926,0-5.851,1.097-8.777c1.463-4.389,1.829-5.12,54.491-68.023l14.629-17.554c6.217-8.046,17.92-10.971,28.526-6.583l0,0   c10.24,4.023,16.457,13.166,16.091,23.406c0,0.366,0,31.451,0,31.451c-0.366,74.24-0.366,74.606-1.829,78.629   c-2.56,7.314-8.777,12.069-16.823,13.531C185.552,462.403,183.723,462.768,181.895,462.768z M179.7,324.163   c-4.023,0-7.68,1.463-9.874,4.389l-14.629,17.92c-44.617,53.394-51.566,61.806-52.663,64.731c-0.366,1.463-0.731,2.926-0.366,4.023   c0.366,2.194,1.097,4.389,2.926,6.583c10.24,12.434,64.366,32.549,80.091,29.989c2.926-0.731,6.949-2.194,8.411-6.583   c0.731-2.56,1.097-10.24,1.097-75.337c0,0,0-31.451,0-31.817c0.366-5.486-3.291-10.606-9.143-12.8   C183.723,324.528,181.895,324.163,179.7,324.163z"/>
	<path style="fill:#33363A;" d="M255.037,265.283c-0.366,0-1.097,0-1.463-0.366c-8.777,1.097-17.92-3.657-23.406-12.069   c-5.851-9.509-5.851-20.48,0.366-28.16c1.097-1.097,11.337-15.726,18.286-25.6c42.423-58.88,43.154-59.977,47.177-62.537   c6.217-4.389,14.263-4.754,21.577-1.097c14.994,7.314,40.229,43.52,49.737,66.926c1.463,3.657,2.56,6.949,3.291,10.606   c0.366,1.097,0.366,2.194,0.366,3.291c0,0.366,0,0.731,0,1.097c0.366,8.046-2.926,14.994-8.777,19.383   c-4.023,2.56-4.389,2.926-83.383,22.309c-11.337,2.56-18.286,4.389-21.943,5.851C256.135,265.283,255.403,265.283,255.037,265.283z    M238.946,231.637L238.946,231.637c-3.291,4.023-3.291,10.24,0,15.36c3.657,5.486,9.509,8.411,14.629,6.949   c0.731-0.366,1.463-0.366,1.829-0.366c4.023-1.097,10.24-2.926,20.48-5.12c69.486-17.189,77.531-19.383,80.091-20.846   c3.657-2.56,4.389-6.949,4.023-9.874c0,0,0-0.366,0-0.731c0-0.731-0.366-1.097-0.366-1.829c-0.366-2.56-1.463-5.486-2.56-8.411   c-9.143-22.674-33.28-55.589-44.617-61.44c-2.56-1.463-6.583-2.194-10.606,0.366c-2.194,1.463-7.68,8.777-44.251,59.977   C242.238,226.883,239.678,230.906,238.946,231.637z"/>
	<path style="fill:#33363A;" d="M182.992,227.248c-9.874,0-19.383-6.949-27.794-21.211C139.837,181.534,63.403,59.02,61.209,54.631   c0-0.366-0.366-0.731-0.366-1.097c-1.829-6.949,0.366-14.629,5.851-20.48c15.36-16.091,90.697-37.669,112.274-32.183   c8.411,2.194,14.263,7.68,16.091,15.36v0.366c1.097,6.949,10.24,143.36,11.337,173.349c1.097,20.114-4.754,32.183-17.189,36.206   C187.38,226.883,185.186,227.248,182.992,227.248z M71.083,50.243c4.389,8.046,57.783,93.257,93.257,149.943   c11.337,18.651,19.383,16.091,21.943,15.36s10.606-3.291,9.509-25.234c-1.463-31.817-10.24-163.109-11.337-171.886   c-1.463-4.754-5.12-6.583-8.411-7.314c-17.189-4.389-89.6,16.091-101.669,28.891C71.815,43.294,70.718,46.951,71.083,50.243z"/>
	<path style="fill:#33363A;" d="M305.14,429.123c-4.389,0-8.777-1.463-12.434-4.389c-3.657-2.926-5.486-5.486-46.811-73.874   l-11.703-19.383c-5.486-8.777-4.754-20.48,2.56-29.623c6.949-8.777,17.554-12.069,26.697-8.411   c1.463,0.366,18.286,6.217,29.257,9.874c69.486,23.04,69.851,23.406,73.143,25.966l0,0c5.851,4.754,8.411,12.069,7.314,20.48   c-2.926,20.48-40.594,69.486-59.611,76.8C310.992,428.391,308.066,429.123,305.14,429.123z M255.769,303.317   c-3.657,0-7.68,1.829-10.606,5.486c-4.389,5.12-4.754,11.703-1.829,16.823l11.703,19.749c35.84,59.246,42.057,69.12,44.251,70.949   c2.926,2.194,6.217,2.56,10.24,1.097c14.994-6.217,50.469-51.931,53.029-68.389c0.731-4.389-0.731-8.046-3.291-10.24   c-2.194-1.463-9.874-4.389-70.217-24.503c-24.503-8.046-28.891-9.874-29.989-10.24l0,0   C258.329,303.683,256.866,303.317,255.769,303.317z"/>
	<path style="fill:#33363A;" d="M384.866,157.031c-1.829,0-3.291-0.731-4.389-2.194c-1.829-2.56-1.097-5.851,1.097-7.68l6.217-4.389   c2.56-1.829,5.851-1.097,7.68,1.097c1.829,2.56,1.097,5.851-1.097,7.68l-6.217,4.389   C387.06,157.031,385.963,157.031,384.866,157.031z"/>
	<path style="fill:#33363A;" d="M404.249,143.134c-1.463,0-3.291-0.731-4.389-2.194c-1.829-2.56-1.463-5.851,0.731-7.68   c2.56-1.829,5.851-1.463,7.68,0.731c1.829,2.56,1.463,5.851-0.731,7.68l-0.366,0.366   C406.443,142.768,405.346,143.134,404.249,143.134z"/>
	<path style="fill:#33363A;" d="M417.415,213.351c-0.366,0-0.731,0-0.731,0l-7.68-1.097c-2.926-0.366-5.12-3.291-4.754-6.217   s3.291-5.12,6.217-4.754l7.68,1.097c2.926,0.366,5.12,3.291,4.754,6.217C422.535,211.157,419.975,213.351,417.415,213.351z"/>
	<path style="fill:#33363A;" d="M433.872,215.911c-0.366,0-0.731,0-0.731,0h-0.366c-2.926-0.366-5.12-3.291-4.754-6.217   s3.291-5.12,6.217-4.754c2.926,0.366,5.12,3.291,4.754,6.217C438.626,213.717,436.432,215.911,433.872,215.911z"/>
	<path style="fill:#33363A;" d="M340.249,116.803c-0.366,0-0.731,0-0.731,0c-2.926-0.366-5.12-3.291-4.754-6.217l1.097-7.68   c0.366-2.926,3.291-5.12,6.217-4.754s5.12,3.291,4.754,6.217l-1.097,7.68C345.003,114.974,342.809,116.803,340.249,116.803z"/>
	<path style="fill:#33363A;" d="M343.906,93.031c-0.366,0-0.366,0-0.731,0c-2.926-0.366-5.12-3.291-4.754-6.217   s3.291-5.12,6.217-4.754c2.926,0.366,5.12,2.926,4.754,5.851v0.366C348.66,91.203,346.466,93.031,343.906,93.031z"/>
</g>
<g>
</g>
<g>
</g>
<g>
</g>
<g>
</g>
<g>
</g>
<g>
</g>
<g>
</g>
<g>
</g>
<g>
</g>
<g>
</g>
<g>
</g>
<g>
</g>
<g>
</g>
<g>
</g>
<g>
</g>
</svg>
