<?xml version="1.0" encoding="iso-8859-1"?>
<!-- Generator: Adobe Illustrator 19.0.0, SVG Export Plug-In . SVG Version: 6.00 Build 0)  -->
<svg xmlns="http://www.w3.org/2000/svg" xmlns:xlink="http://www.w3.org/1999/xlink" version="1.1" id="Capa_1" x="0px" y="0px" viewBox="0 0 461.532 461.532" style="enable-background:new 0 0 461.532 461.532;" xml:space="preserve">
<path style="fill:#FFFFFF;" d="M230.766,5.487c-124.343,0-225.28,100.937-225.28,225.28s100.937,225.28,225.28,225.28  s225.28-100.937,225.28-225.28S355.109,5.487,230.766,5.487z"/>
<path style="fill:#C8D8E8;" d="M5.486,230.767c0,124.343,100.937,225.28,225.28,225.28s225.28-100.937,225.28-225.28"/>
<path style="fill:#C8131A;" d="M230.766,5.487c-124.343,0-225.28,100.937-225.28,225.28s100.937,225.28,225.28,225.28  s225.28-100.937,225.28-225.28S355.109,5.487,230.766,5.487z M179.931,300.252V161.281l132.389,69.486L179.931,300.252z"/>
<path style="fill:#F2303F;" d="M230.766,5.487c-124.343,0-225.28,100.937-225.28,225.28v0.366h174.811v-69.852l132.389,69.486  l-0.366,0.366h144.091v-0.366C456.046,106.424,355.109,5.487,230.766,5.487z"/>
<polygon style="fill:#E01726;" points="303.909,235.521 196.754,291.474 196.754,317.807 329.143,248.687 "/>
<path style="fill:#8E0919;" d="M312.32,231.132l-13.531,6.949l-118.491,62.171l138.24,138.24  c44.983-19.017,82.286-52.297,106.789-93.989L312.32,231.132z"/>
<path style="fill:#33363A;" d="M230.766,461.531C103.497,461.531,0,358.034,0,230.767S103.497,0.001,230.766,0.001  s230.766,103.497,230.766,230.766S358.034,461.531,230.766,461.531z M230.766,10.972c-121.051,0-219.794,98.743-219.794,219.794  S109.714,450.56,230.766,450.56S450.56,351.818,450.56,230.767S351.817,10.972,230.766,10.972z M179.931,305.737  c-1.097,0-1.829-0.366-2.926-0.731c-1.463-1.097-2.56-2.926-2.56-4.754V161.281c0-1.829,1.097-3.657,2.56-4.754s3.657-1.097,5.486,0  l132.389,69.486c1.829,1.097,2.926,2.926,2.926,4.754c0,1.829-1.097,4.023-2.926,4.754l-132.389,69.12  C181.76,305.372,181.029,305.737,179.931,305.737z M185.417,170.424v120.686l115.2-59.977L185.417,170.424z"/>
<g>
</g>
<g>
</g>
<g>
</g>
<g>
</g>
<g>
</g>
<g>
</g>
<g>
</g>
<g>
</g>
<g>
</g>
<g>
</g>
<g>
</g>
<g>
</g>
<g>
</g>
<g>
</g>
<g>
</g>
</svg>
