<svg version="1.1" id="Layer_1" xmlns="http://www.w3.org/2000/svg" xmlns:xlink="http://www.w3.org/1999/xlink" x="0px" y="0px" viewBox="0 0 59.9 59.9" style="enable-background:new 0 0 59.9 59.9;" xml:space="preserve">
 <style type="text/css">
  .st0{fill:#007A73;}
 </style>
 <g id="layer1" transform="translate(-66.948993,-156.00435)">
  <g id="g14189" transform="translate(0.26458445,-0.26457685)">
   <path id="path13366" class="st0" d="M81.7,171.2c0-8.3,6.7-15,15-15c8.3,0,15,6.7,15,15H81.7z M81.7,201.2c0-8.3,6.7-15,15-15
			c-8.3,0-15-6.7-15-15c-8.3,0-15,6.7-15,15C66.7,194.5,73.4,201.2,81.7,201.2 M81.7,201.2c0,8.3,6.7,15,15,15c8.3,0,15-6.7,15-15
			H81.7z M96.6,186.2c8.3,0,15,6.7,15,15c8.3,0,15-6.7,15-15c0-8.3-6.7-15-15-15C111.6,179.5,104.9,186.2,96.6,186.2">
   </path>
  </g>
 </g>
</svg>