<svg version="1.1" id="Layer_1" xmlns:x="ns_extend;" xmlns:i="ns_ai;" xmlns:graph="ns_graphs;" xmlns="http://www.w3.org/2000/svg" xmlns:xlink="http://www.w3.org/1999/xlink" x="0px" y="0px" viewBox="0 0 968.5 938.8" style="enable-background:new 0 0 968.5 938.8;" xml:space="preserve">
 <style type="text/css">
  .st0{fill:#25F4EE;}
	.st1{fill:#FE2C55;}
	.st2{fill:#FFFFFF;}
 </style>
 <metadata>
  <sfw xmlns="ns_sfw;">
   <slices>
   </slices>
   <sliceSourceBounds bottomLeftOrigin="true" height="938.8" width="968.5" x="172.5" y="191.1">
   </sliceSourceBounds>
  </sfw>
 </metadata>
 <g id="LOGOS">
  <path class="st0" d="M427.2,241v-24.4c-8.3-1.2-16.6-1.7-24.9-1.8c-102.1,0-185.1,83-185.1,185.1c0,60.4,29.5,117,79,151.6
		c-30.8-33.1-49.1-77.4-49.1-126.1C246.9,325.2,327,243.3,427.2,241z">
  </path>
  <path class="st0" d="M431.5,510.6c45.5,0,83.2-36.8,84.9-81.9l0.4-402.5h73l-0.1-0.6c-1.6-8.4-2.4-17-2.4-25.5H486.8l-0.2,403.1
		c-1.6,46.6-40.7,83-87.2,81.4c-12.7-0.4-25.1-3.7-36.4-9.7C378.4,496.1,403.4,510.6,431.5,510.6z">
  </path>
  <path class="st0" d="M727.3,163.6V140c-27.1,0-53.6-7.9-76.2-22.7C670.7,139.8,697.2,157.1,727.3,163.6z">
  </path>
  <path class="st1" d="M651.1,117.3c-22.2-25.4-34.4-58-34.4-91.8h-27.4C596.4,63.9,619.6,96.8,651.1,117.3z">
  </path>
  <path class="st1" d="M402.2,314.6c-46.6,0-85.1,38.7-85.1,85.3c0,32.5,19,60.7,45.9,74.8c-27.3-37.8-18.8-90.5,18.9-117.9
		c14.4-10.4,31.8-16,49.6-16c8.5,0,16.9,1.3,25,3.9V242.2c-8.3-1.2-16.6-1.8-25-1.8c-1.5,0-2.9,0.1-4.4,0.1h-0.4l-0.2,77.8
		C418.7,315.8,410.5,314.6,402.2,314.6z">
  </path>
  <path class="st1" d="M727.3,162.4l-0.5-0.1v77.7c-50.3-0.1-99.3-16-140.1-45.5V400c0.1,101.8-82.3,184.5-184.2,184.6
		c-0.1,0-0.2,0-0.4,0c-39.5,0-76-11.9-106.1-33c34.9,37.7,84,59.1,135.4,59c102.1,0,185.2-83,185.2-185.1V221.1
		c40.8,29.3,89.7,45.1,139.9,45V165.5C746.8,165.5,737,164.4,727.3,162.4z">
  </path>
  <path class="st2" d="M587.4,400V195.5c40.8,29.3,89.7,45.1,139.9,45v-78.2c-29.6-6.4-56.4-22.2-76.2-45.1
		c-32.1-20.9-54.3-54.1-61.4-91.8h-73.6L516,428.7c-1.6,46.6-40.7,83-87.3,81.4c-26.2-0.9-50.4-13.9-65.6-35.2
		c-41.4-21.6-57.3-72.7-35.7-114.1c14.6-27.9,43.4-45.3,74.9-45.3c8.5,0,16.9,1.3,25,3.9v-78.9c-100.1,2.3-180.8,84.4-180.8,185
		c0,46.8,17.7,91.9,49.7,126.1c31.1,21.9,68.1,33.6,106.1,33.6C504.3,585.1,587.4,502.1,587.4,400z">
  </path>
  <path class="st2" d="M0,720.8h162.2l-14.9,46.4h-42.1v171.6H52.8V767.1L0,767.2L0,720.8z">
  </path>
  <path class="st2" d="M427.9,720.8h166L579,767.2h-45.8v171.6h-52.5V767.1l-52.8,0.1L427.9,720.8z">
  </path>
  <polygon class="st2" points="172.1,790.1 224.1,790.1 224.1,938.7 172.4,938.7 	">
  </polygon>
  <path class="st2" d="M244.7,720.1h52v101.5l51.5-50.5h62l-65.1,63.2l73,104.4h-57.3l-48.7-72.4l-15.4,15v57.4h-52L244.7,720.1z">
  </path>
  <path class="st2" d="M795.2,720.1h52v101.5l51.5-50.5h62l-65.2,63.2l72.9,104.4h-57.2l-48.7-72.4l-15.4,15v57.4h-52L795.2,720.1z">
  </path>
  <circle class="st2" cx="198.1" cy="746.9" r="26.2">
  </circle>
  <path class="st0" d="M587.6,849.8c0-46.4,35.7-85,82-88.7c-2.3-0.2-5.8-0.3-8.2-0.3c-49.2,0-89,39.8-89,89s39.8,89,89,89
		c2.3,0,5.9-0.1,8.2-0.3C623.4,934.8,587.7,896.2,587.6,849.8z">
  </path>
  <path class="st1" d="M689.5,760.8c-2.4,0-5.9,0.1-8.2,0.3c49,4.2,85.3,47.2,81.1,96.2c-3.7,43.2-37.9,77.5-81.1,81.1
		c2.3,0.2,5.9,0.3,8.2,0.3c49.2,0,89-39.8,89-89S738.7,760.7,689.5,760.8L689.5,760.8L689.5,760.8z">
  </path>
  <path class="st2" d="M675.4,760.8c-49.2,0-89,39.8-89,89c0,49.2,39.8,89,89,89s89-39.8,89-89C764.4,800.6,724.6,760.8,675.4,760.8
		L675.4,760.8z M675.4,893c-23.9,0-43.3-19.4-43.3-43.3s19.4-43.3,43.3-43.3c23.9,0,43.3,19.4,43.3,43.3c0,0,0,0,0,0
		C718.7,873.6,699.3,893,675.4,893C675.4,893,675.4,893,675.4,893z">
  </path>
 </g>
</svg>