<svg version="1.1" id="Layer_1" xmlns:x="ns_extend;" xmlns:i="ns_ai;" xmlns:graph="ns_graphs;" xmlns:cc="http://creativecommons.org/ns#" xmlns:dc="http://purl.org/dc/elements/1.1/" xmlns:inkscape="http://www.inkscape.org/namespaces/inkscape" xmlns:rdf="http://www.w3.org/1999/02/22-rdf-syntax-ns#" xmlns:sodipodi="http://sodipodi.sourceforge.net/DTD/sodipodi-0.dtd" xmlns:svg="http://www.w3.org/2000/svg" xmlns="http://www.w3.org/2000/svg" xmlns:xlink="http://www.w3.org/1999/xlink" x="0px" y="0px" viewBox="0 0 254.6 253.5" style="enable-background:new 0 0 254.6 253.5;" xml:space="preserve">
 <style type="text/css">
  .st0{fill:#E82127;}
 </style>
 <metadata id="metadata43">
  <rdf:RDF>
   <cc:Work rdf:about="">
    <dc:format>
     image/svg+xml
    </dc:format>
    <dc:type rdf:resource="http://purl.org/dc/dcmitype/StillImage">
    </dc:type>
    <dc:title>
    </dc:title>
   </cc:Work>
  </rdf:RDF>
  <sfw xmlns="ns_sfw;">
   <slices>
   </slices>
   <sliceSourceBounds bottomLeftOrigin="true" height="252.5" width="253.6" x="0.5" y="0.5">
   </sliceSourceBounds>
  </sfw>
 </metadata>
 <sodipodi:namedview bordercolor="#666666" borderlayer="false" borderopacity="1" fit-margin-bottom="0.5" fit-margin-left="0.5" fit-margin-right="0.5" fit-margin-top="0.5" gridtolerance="10" guidetolerance="10" id="namedview39" inkscape:current-layer="T" inkscape:cx="-189.9977" inkscape:cy="107.77935" inkscape:pageopacity="0" inkscape:pageshadow="2" inkscape:showpageshadow="false" inkscape:window-height="1057" inkscape:window-maximized="1" inkscape:window-width="1920" inkscape:window-x="-8" inkscape:window-y="-8" inkscape:zoom="1.0423407" objecttolerance="10" pagecolor="#ffffff" showgrid="false">
 </sodipodi:namedview>
 <g id="T" transform="translate(-45.84,-64.297)">
  <path id="path35" inkscape:connector-curvature="0" class="st0" d="M173.1,317.3l35.5-199.5c33.8,0,44.5,3.7,46,18.8
		c0,0,22.7-8.5,34.1-25.6c-44.6-20.7-89.5-21.6-89.5-21.6l-26.2,31.9l0.1,0L147,89.4c0,0-44.9,0.9-89.5,21.6
		c11.4,17.2,34.1,25.6,34.1,25.6c1.5-15.1,12.2-18.8,45.8-18.9L173.1,317.3">
  </path>
  <path id="path37" inkscape:connector-curvature="0" class="st0" d="M173.1,80.2c36.1-0.3,77.4,5.6,119.7,24
		c5.7-10.2,7.1-14.7,7.1-14.7C253.7,71.2,210.4,65,173.1,64.8C135.9,65,92.6,71.2,46.3,89.5c0,0,2.1,5.5,7.1,14.7
		C95.7,85.7,137,79.9,173.1,80.2L173.1,80.2">
  </path>
 </g>
</svg>