<svg version="1.1" id="Layer_1" xmlns:x="ns_extend;" xmlns:i="ns_ai;" xmlns:graph="ns_graphs;" xmlns="http://www.w3.org/2000/svg" xmlns:xlink="http://www.w3.org/1999/xlink" x="0px" y="0px" viewBox="0 0 90.9 60" style="enable-background:new 0 0 90.9 60;" xml:space="preserve">
 <style type="text/css">
  .st0{fill-rule:evenodd;clip-rule:evenodd;fill:#CD2026;}
 </style>
 <metadata>
  <sfw xmlns="ns_sfw;">
   <slices>
   </slices>
   <sliceSourceBounds bottomLeftOrigin="true" height="60.2" width="90.8" x="0.1" y="-0.2">
   </sliceSourceBounds>
  </sfw>
 </metadata>
 <g>
  <path class="st0" d="M85.3,1.5c-1.5,0.7-2.7,0-4.6,3.8C74.9,17.3,70.4,27,65,40.9c0.2-11.5,2.2-20.6,3.4-31.8
		c0.2-2.1,0.5-4.9,0.5-7c0-1.6-1.7-1.9-5-0.2c-1.8,0.9-4,0.8-4.9,3C55.4,14.2,47.1,40,43.3,54.6c-0.9,3.5,2.5,4.1,3.6,0.5
		c2.5-8.7,8.3-28,11.8-37.9c-0.3,9.1-2.8,23.4-1.7,31c0.4,2.4,2.6,3.4,3.7,5.4c0.8,1.4,2.1,1.6,2.8-0.4c3.4-9.2,9.9-25.4,16.2-38.3
		c-1.2,5.7-6,29.9-7.3,39.6c-0.3,1.9,2.1,2,4.2,4.9c0.5,0.7,2.3,1.4,2.6-0.3c1.1-5.8,8.5-43.4,11.3-55.3C91.4,0.4,91.2-1.2,85.3,1.5
		 M37.2,28.8c2.5-3.8,3.3-3,3.9-4.2c0.8-1.4,0.3-2.8-2.5-2.5c0,0-1,0.1-2.9,0.3c3-7.7,5.6-14.3,7.5-19.2C43.9,1.5,44,0.3,42.9,0
		s-4.3,1.5-6.3,1.8C36,2,35.3,2.6,35.1,3.1c-3,6.8-5.8,13.7-8.5,20.7c-3.2,0.5-6.9,1.2-11,2.2c3-7.6,6-15.1,8.9-22.3
		c1.4-3.5-2.3-3.9-3.8-0.3c-3.2,7.8-6.4,15.7-9.4,23.6c-2.9,0.7-6,1.5-9.2,2.5c-2.3,0.7-2.4,1.3-1.4,2.7c0.6,0.8,1.7,0.7,2.2,1.3
		c1.4,1.4,2.2,3.2,4.6,3.4c-2.2,5.8-4.3,11.7-6.3,17.6C0,58.1,3.5,58.9,4.9,55c2.2-6.2,4.5-12.5,6.9-18.7c2-0.5,6.7-1.5,11.2-2.4
		c-3.5,9.6-5.8,16.9-6.7,20.4c-0.2,0.7,0.1,1.1,0.3,1.3c1.2,1.7,2.3,1.8,3.8,3.9c0.4,0.6,1.2,0.7,1.8,0.2c0.2-0.2,0.4-0.5,0.5-0.7
		c3-9.1,6.3-18.2,9.7-27.2C33.5,31.5,35.8,30.9,37.2,28.8">
  </path>
  <path class="st0" d="M39.6,43.7c-0.2,0.2-0.5,0.4-0.7,0.7c-0.3-0.8-0.5-1.7-0.8-2.5c0.8-0.9,1.5-1.9,2.1-2.8
		c2.6-4.1-2.5-6.4-4.8-3.8c-1.2,1.4-0.9,2.8-0.6,4l0.4,1.5c-0.6,0.6-1.4,1.5-2.4,2.6c-2.5,2.9-1.8,6.7,0.9,7.6
		c1.6,0.5,3.2-0.2,4.5-1.4c0.1,0.2,0.1,0.4,0.2,0.5c0.7,1.8,2.9,1.2,2-0.9c-0.1-0.4-0.3-0.9-0.5-1.5c0.4-0.5,0.8-1,1.2-1.6
		C42.8,43.7,41.3,42.3,39.6,43.7L39.6,43.7z M37.9,38.1c-0.2,0.3-0.5,0.5-0.7,0.8c-0.1-0.2-0.1-0.4-0.2-0.6
		C36.3,35.5,39.6,36.3,37.9,38.1L37.9,38.1z M36.2,46.8c-1,0.6-1.8,0-0.4-1.9c0.2-0.3,0.5-0.6,0.7-0.9c0.2,0.7,0.4,1.4,0.7,2.1
		C36.8,46.3,36.5,46.6,36.2,46.8L36.2,46.8z">
  </path>
 </g>
</svg>