<svg version="1.1" id="Layer_1" xmlns="http://www.w3.org/2000/svg" xmlns:xlink="http://www.w3.org/1999/xlink" x="0px" y="0px" viewBox="0 0 63.7 68.6" style="enable-background:new 0 0 63.7 68.6;" xml:space="preserve">
 <style type="text/css">
  .st0{fill:url(#SVGID_1_);}
 </style>
 <g>
  <radialGradient id="SVGID_1_" cx="-386.8773" cy="-164.3455" r="0.9848" gradientTransform="matrix(71.4087 0 0 71.4086 27628.1523 11748.0391)" gradientUnits="userSpaceOnUse">
   <stop offset="0" style="stop-color:#20C4F4">
   </stop>
   <stop offset="0.304" style="stop-color:#09B4F0">
   </stop>
   <stop offset="0.5" style="stop-color:#00AEEF">
   </stop>
   <stop offset="0.8" style="stop-color:#0092C8">
   </stop>
   <stop offset="1" style="stop-color:#006E98">
   </stop>
  </radialGradient>
  <path class="st0" d="M61.4,15c-0.7-1.4-1.8-3.2-3.5-4.6c-0.7-0.7-1.6-1.2-2.8-1.4c-0.9-0.2-1.8-0.5-2.8-0.5h-0.2
		c-1.2,0-3.5,0.2-4.8,2.1c-0.7,0.7-0.9,1.8-0.7,3c0.2,0.9,0.7,1.6,1.6,1.8c0,0,0.2,0,0.7,0.2c-0.2,0-0.5,0.5-0.5,0.5
		c-0.5,0.7-1.6,1.8-4.8,1.8h-0.2c-1.6,0-3-0.5-4.6-2.5c-0.9-1.4-1.6-3.5-1.6-7.1c0-1.8-0.2-3.5-0.7-4.6c-0.2-0.9-0.9-1.6-1.6-2.1
		c-0.5-0.5-1.2-0.7-2.1-0.9C31.9,0,30.5,0,29.4,0c-1.4,0-2.1,0.2-2.5,0.9c0,0,0,0.2-0.2,0.2h-0.9c-0.7,0-1.4,0.2-2.1,0.2
		c-1.4,0.2-2.1,0.7-3,1.4c-0.2,0.2-0.9,0.9-1.2,1.8c-0.2,0.7,0,1.2,0.2,1.4c0,0,0,0.2,0.2,0.2c0.5-0.5,1.2-0.7,2.3-0.7
		c1.4,0,3.5,0.7,4.1,1.8c0.9,1.6,0.7,2.8,0.5,4.4c-0.5,3.9-2.1,6-5.1,6.4h-1.6c-2.3,0-3.9-0.7-4.6-2.1c-0.5-0.5-0.5-0.7-0.5-0.7
		s0.2,0,0.5-0.2c0.9-0.5,1.4-0.9,1.6-1.8s0-2.1-0.7-3c-1.2-1.2-2.8-1.8-4.8-1.8c-1.2,0-2.1,0.2-2.8,0.5c-2.8,0.7-4.8,2.5-6.4,6
		c-1.2,2.3-2.1,5.5-2.3,8.7c-0.2,3.2-0.2,6,0,8.5c0.5,4.1,1.2,6.7,2.1,9.2c0.9,2.8,2.3,5.3,3.7,7.6c0.5,0.9,0.7,1.4,0.9,1.6
		c0.2-0.2,0.5-0.5,0.7-0.9c0.5-0.5,2.1-2.5,2.5-3.2c0.7-0.5,1.4-1.8,1.8-2.8l0.2-0.5l0.5,0.5c0.5,0.5,0.7,0.9,0.7,1.6
		c0,0.7-0.2,1.4-0.5,2.8c-0.5,1.4-1.2,3.2-2.1,4.6c0,0.2-0.2,0.5-0.2,0.5c-0.5,0.9-0.7,1.4-0.5,1.6c0.2,0,0.9-0.2,1.6-0.9
		C12.4,53.4,14,52,16,49c1.6-2.1,2.8-4.4,3.9-6.9l0.2-0.5l0.5,0.2c0.2,0,0.5,0.2,0.5,0.5c0.2,0.5,0.2,0.9,0.2,1.6
		c-0.2,1.6-1.2,3.9-1.8,5.5c-1.2,2.8-3.5,6-5.1,8.3c0,0-0.5,0.5-0.5,0.7c0.2,0.2,0.5,0.5,0.9,0.7l0.7,0.5c2.3,1.8,4.4,3.5,7.1,4.8
		c2.1,1.2,6.4,3.5,9.2,4.1c2.8-0.7,7.1-3,9.2-4.1c2.8-1.6,4.8-3,7.1-4.8l0.7-0.5c0.5-0.2,0.7-0.7,0.9-0.7c0,0-0.2-0.2-0.2-0.5
		l-0.2-0.2c-1.6-2.3-3.9-5.5-5.1-8.3c-0.7-1.6-1.6-4.1-1.8-5.5c0-0.7,0-1.2,0.2-1.6c0-0.2,0.2-0.2,0.5-0.5c0.2-0.2,0.5-0.2,0.5-0.2
		l0.2,0.5c1.2,2.5,2.5,4.6,3.9,6.9c2.1,3,3.7,4.4,4.4,4.8c0.7,0.5,1.4,0.9,1.6,0.9H54c0.2-0.2,0-0.7-0.5-1.6c0-0.2-0.2-0.5-0.2-0.5
		c-0.9-1.6-1.6-3.2-2.1-4.6c-0.5-1.4-0.7-2.1-0.7-2.8c0-0.7,0.2-1.4,0.7-1.6l0.5-0.2l0.2,0.5c0.5,0.9,1.4,2.3,1.6,2.8
		c0.5,0.7,2.1,2.5,2.5,3.2l0.7,0.7c0.2-0.2,0.5-0.7,0.9-1.4V49c1.4-2.3,2.5-4.8,3.7-7.6c0.9-2.8,1.6-5.1,2.1-9.2
		c0.2-2.5,0.5-5.3,0-8.5C63.4,20.5,62.8,17.3,61.4,15z">
  </path>
 </g>
</svg>