<svg xmlns="http://www.w3.org/2000/svg" xmlns:xlink="http://www.w3.org/1999/xlink" viewBox="0 0 48 48"><defs><linearGradient id="a" x1="5.822" y1="11.568" x2="20.178" y2="36.432" gradientUnits="userSpaceOnUse"><stop offset="0" stop-color="#058f92"/><stop offset="0.5" stop-color="#038489"/><stop offset="1" stop-color="#026d71"/></linearGradient></defs><title>Forms_48x</title><path d="M45,24V42.169A1.831,1.831,0,0,1,43.169,44H13.831A1.831,1.831,0,0,1,12,42.169V24l17-2Z" fill="#036c70"/><path d="M13.831,4H43.169A1.831,1.831,0,0,1,45,5.831V24a0,0,0,0,1,0,0H12a0,0,0,0,1,0,0V5.831A1.831,1.831,0,0,1,13.831,4Z" fill="#37c6d0"/><rect x="30" y="29" width="10" height="10" fill="#1a9ba1"/><circle cx="35" cy="14" r="6" fill="#1a9ba1"/><circle cx="35" cy="14" r="3" fill="#036c70"/><path d="M24.167,12H12V37H24.167A1.839,1.839,0,0,0,26,35.167V13.833A1.839,1.839,0,0,0,24.167,12Z" opacity="0.1"/><path d="M23.167,13H12V38H23.167A1.839,1.839,0,0,0,25,36.167V14.833A1.839,1.839,0,0,0,23.167,13Z" opacity="0.2"/><path d="M23.167,13H12V36H23.167A1.839,1.839,0,0,0,25,34.167V14.833A1.839,1.839,0,0,0,23.167,13Z" opacity="0.2"/><path d="M22.167,13H12V36H22.167A1.839,1.839,0,0,0,24,34.167V14.833A1.839,1.839,0,0,0,22.167,13Z" opacity="0.2"/><rect x="2" y="13" width="22" height="22" rx="1.833" fill="url(#a)"/><rect width="48" height="48" fill="none"/><path d="M16.713,19.98h-5.16v3.249h4.811v1.928H11.553v4.8H9.218V18.043h7.5Z" fill="#fff"/></svg>