<?xml version="1.0" encoding="utf-8"?>
<!-- Generator: Adobe Illustrator 26.5.0, SVG Export Plug-In . SVG Version: 6.00 Build 0)  -->
<svg version="1.1" id="Layer_1" xmlns="http://www.w3.org/2000/svg" xmlns:xlink="http://www.w3.org/1999/xlink" x="0px" y="0px"
	 viewBox="0 0 101.5 103" style="enable-background:new 0 0 101.5 103;" xml:space="preserve">
<style type="text/css">
	.st0{fill:#A22322;}
	.st1{fill:#DB382C;}
	.st2{fill:#FFFFFF;}
	.st3{fill:#741113;}
	.st4{fill:#AB2724;}
	.st5{fill:#364253;stroke:#FFFFFF;stroke-width:1.52;stroke-miterlimit:10;}
</style>
<path class="st0" d="M96.8,66.1c-5.3,2.8-33,14.1-38.8,17.2s-9.1,3-13.8,0.8S10.1,70,4.8,67.5c-2.7-1.3-4-2.3-4-3.3V54
	c0,0,38.3-8.3,44.5-10.6s8.3-2.3,13.6-0.4s36.7,7.6,41.9,9.5v10C100.8,62.6,99.5,64.7,96.8,66.1z"/>
<path class="st1" d="M96.8,56c-5.3,2.8-33,14.1-38.8,17.2s-9.1,3-13.8,0.8S10.1,59.9,4.8,57.4s-5.4-4.3-0.2-6.3s34.5-13.5,40.6-15.7
	S53.6,33,58.8,35s32.7,12.8,37.9,14.7S102.2,53.2,96.8,56z"/>
<path class="st0" d="M96.8,49.6c-5.3,2.8-33,14.2-38.8,17.2s-9.1,3-13.8,0.8S10.1,53.5,4.8,51c-2.7-1.3-4-2.3-4-3.3V37.6
	c0,0,38.3-8.3,44.4-10.5s8.3-2.3,13.6-0.4s36.7,7.6,41.9,9.5v10C100.8,46.1,99.5,48.2,96.8,49.6z"/>
<path class="st1" d="M96.8,39.5c-5.3,2.8-33,14.1-38.8,17.2s-9.1,3-13.8,0.8S10.1,43.4,4.8,40.9s-5.4-4.3-0.2-6.3S39.1,21,45.2,18.8
	s8.3-2.3,13.6-0.4s32.7,12.9,37.9,14.8S102.2,36.7,96.8,39.5z"/>
<path class="st0" d="M96.8,32.5c-5.3,2.8-33,14.1-38.8,17.2s-9.1,3-13.8,0.8S10.1,36.4,4.8,33.9c-2.7-1.3-4-2.3-4-3.4V20.4
	c0,0,38.3-8.3,44.4-10.6s8.3-2.3,13.6-0.4s36.7,7.6,41.9,9.5v10C100.8,29,99.5,31.1,96.8,32.5z"/>
<path class="st1" d="M96.8,22.4c-5.3,2.8-33,14.1-38.8,17.2s-9.1,3-13.8,0.8S10.1,26.3,4.8,23.8s-5.4-4.3-0.2-6.3S39.1,4,45.2,1.7
	s8.3-2.3,13.6-0.4s32.7,12.9,37.9,14.8S102.2,19.6,96.8,22.4z"/>
<path class="st2" d="M52.3,8l6.6-2.2l-1.8,4.3l6.7,2.5l-8.7,0.9l-2,4.7L50.1,13l-10-0.9l7.5-2.7l-2.2-4.1L52.3,8z"/>
<path class="st2" d="M52.7,35.3l-16.2-6.7l23.2-3.5L52.7,35.3z"/>
<ellipse class="st2" cx="30.3" cy="20.1" rx="12.4" ry="4.8"/>
<path class="st3" d="M74.1,13.9l13.7,5.4l-13.7,5.4L74.1,13.9z"/>
<path class="st4" d="M74.1,13.9l0,10.8l-1.5,0.6l-13.7-5.4L74.1,13.9z"/>
<path class="st5" d="M0.8,75h100v27.3H0.8L0.8,75z"/>
<g>
	<path class="st2" d="M17.9,83.7v1.5h-4.4v2.7h3.4v1.4h-3.4v2.8h4.4v1.5h-6.2v-9.9L17.9,83.7z"/>
	<path class="st2" d="M20.6,83.7c0,0,0.1,0,0.1,0c0,0,0.1,0.1,0.1,0.1c0,0.1,0.1,0.1,0.1,0.2l5.2,6.6c0-0.2,0-0.3,0-0.5
		c0-0.2,0-0.3,0-0.4v-6h1.6v9.9h-0.9c-0.1,0-0.3,0-0.4-0.1c-0.1-0.1-0.2-0.1-0.3-0.2L21,86.7v0.4v0.4v6.1h-1.5v-9.9L20.6,83.7
		L20.6,83.7z"/>
	<path class="st2" d="M36.7,83.7v1.5h-3v8.4h-1.8v-8.4h-3v-1.5H36.7z"/>
	<path class="st2" d="M44.1,83.7v1.5h-4.4v2.7h3.4v1.4h-3.4v2.8h4.4v1.5h-6.2v-9.9L44.1,83.7z"/>
	<path class="st2" d="M47.6,89.7v3.9h-1.8v-9.9h3c0.6,0,1.2,0.1,1.7,0.2c0.4,0.1,0.8,0.3,1.2,0.6c0.3,0.2,0.5,0.5,0.7,0.9
		c0.1,0.4,0.2,0.8,0.2,1.2c0,0.3,0,0.6-0.2,0.9c-0.1,0.3-0.2,0.6-0.4,0.8c-0.2,0.2-0.4,0.5-0.7,0.6c-0.3,0.2-0.6,0.3-0.9,0.4
		c0.2,0.1,0.4,0.3,0.6,0.6l2.5,3.6h-1.7c-0.1,0-0.3,0-0.4-0.1c-0.1-0.1-0.2-0.2-0.3-0.3L49,90c-0.1-0.1-0.1-0.2-0.2-0.2
		c-0.1-0.1-0.3-0.1-0.4-0.1L47.6,89.7z M47.6,88.4h1.2c0.3,0,0.6,0,0.9-0.1c0.2-0.1,0.4-0.2,0.6-0.4c0.2-0.1,0.3-0.3,0.4-0.5
		c0.1-0.2,0.1-0.5,0.1-0.7c0-0.4-0.2-0.9-0.5-1.2c-0.4-0.3-1-0.4-1.5-0.4h-1.2L47.6,88.4z"/>
	<path class="st2" d="M56.5,90.1v3.5h-1.8v-9.9h3.2c0.6,0,1.2,0.1,1.7,0.2c0.4,0.1,0.8,0.3,1.2,0.7c0.3,0.3,0.6,0.6,0.7,1
		c0.3,0.8,0.3,1.7,0,2.6c-0.2,0.4-0.4,0.7-0.7,1c-0.3,0.3-0.8,0.5-1.2,0.7c-0.5,0.2-1.1,0.3-1.7,0.2L56.5,90.1z M56.5,88.6h1.4
		c0.3,0,0.6,0,0.9-0.1c0.2-0.1,0.4-0.2,0.6-0.4c0.2-0.2,0.3-0.4,0.4-0.6c0.1-0.2,0.1-0.5,0.1-0.8c0-0.2,0-0.5-0.1-0.7
		c-0.1-0.2-0.2-0.4-0.4-0.5c-0.2-0.2-0.4-0.3-0.6-0.3c-0.3-0.1-0.6-0.1-0.9-0.1h-1.4V88.6z"/>
	<path class="st2" d="M65,89.7v3.9h-1.8v-9.9h3c0.6,0,1.2,0.1,1.7,0.2c0.4,0.1,0.8,0.3,1.2,0.6c0.3,0.2,0.5,0.5,0.7,0.9
		c0.2,0.4,0.2,0.8,0.2,1.2c0,0.3,0,0.6-0.1,0.9c-0.1,0.3-0.2,0.6-0.4,0.8c-0.2,0.2-0.4,0.5-0.7,0.6c-0.3,0.2-0.6,0.3-0.9,0.4
		c0.2,0.1,0.4,0.3,0.6,0.6l2.5,3.6h-1.7c-0.1,0-0.3,0-0.4-0.1c-0.1-0.1-0.2-0.2-0.3-0.3L66.5,90c-0.1-0.1-0.2-0.2-0.3-0.2
		c-0.1-0.1-0.3-0.1-0.4-0.1L65,89.7z M65,88.4h1.2c0.3,0,0.6,0,0.9-0.1c0.2-0.1,0.5-0.2,0.6-0.4c0.2-0.1,0.3-0.3,0.4-0.5
		c0.1-0.2,0.1-0.5,0.1-0.7c0-0.4-0.2-0.9-0.5-1.2c-0.4-0.3-1-0.4-1.5-0.4H65L65,88.4z"/>
	<path class="st2" d="M74.1,93.5h-1.8v-9.9h1.8V93.5z"/>
	<path class="st2" d="M81.6,85.5c0,0.1-0.1,0.2-0.2,0.2c-0.1,0-0.1,0.1-0.2,0.1c-0.1,0-0.2,0-0.3-0.1l-0.4-0.2
		c-0.2-0.1-0.4-0.2-0.5-0.2c-0.2-0.1-0.5-0.1-0.7-0.1c-0.2,0-0.4,0-0.7,0.1c-0.2,0.1-0.3,0.1-0.5,0.3c-0.1,0.1-0.2,0.2-0.3,0.4
		c-0.1,0.2-0.1,0.3-0.1,0.5c0,0.2,0.1,0.4,0.2,0.6c0.1,0.2,0.3,0.3,0.5,0.4c0.2,0.1,0.5,0.2,0.7,0.3l0.8,0.3
		c0.3,0.1,0.6,0.2,0.8,0.3c0.3,0.1,0.5,0.3,0.7,0.5c0.2,0.2,0.4,0.4,0.5,0.7c0.1,0.3,0.2,0.7,0.2,1c0,0.4-0.1,0.9-0.2,1.3
		c-0.2,0.4-0.4,0.7-0.7,1c-0.3,0.3-0.7,0.5-1.1,0.7c-0.5,0.2-1,0.3-1.4,0.2c-0.3,0-0.6,0-0.9-0.1c-0.3-0.1-0.6-0.1-0.9-0.3
		c-0.3-0.1-0.5-0.2-0.8-0.4c-0.2-0.2-0.5-0.3-0.7-0.5l0.5-0.9c0.1-0.1,0.1-0.1,0.2-0.2c0.1,0,0.1-0.1,0.2-0.1c0.1,0,0.3,0.1,0.4,0.1
		c0.1,0.1,0.3,0.2,0.5,0.3c0.2,0.1,0.4,0.2,0.7,0.3c0.3,0.1,0.6,0.1,0.9,0.1c0.4,0,0.9-0.1,1.2-0.4c0.3-0.3,0.5-0.7,0.4-1.1
		c0-0.2-0.1-0.5-0.2-0.6c-0.1-0.2-0.3-0.3-0.5-0.4c-0.2-0.1-0.5-0.2-0.7-0.3c-0.3-0.1-0.6-0.2-0.8-0.3c-0.3-0.1-0.6-0.2-0.8-0.3
		c-0.3-0.1-0.5-0.3-0.7-0.5c-0.2-0.2-0.4-0.5-0.5-0.8C76,87.2,76,86.8,76,86.4c0-0.4,0.1-0.7,0.2-1.1c0.1-0.3,0.4-0.7,0.6-0.9
		c0.3-0.3,0.6-0.5,1-0.6c0.4-0.2,0.9-0.2,1.4-0.2c0.5,0,1.1,0.1,1.6,0.3c0.5,0.2,0.9,0.4,1.3,0.8L81.6,85.5z"/>
	<path class="st2" d="M89.9,83.7v1.5h-4.4v2.7H89v1.4h-3.5v2.8h4.4v1.5h-6.2v-9.9L89.9,83.7z"/>
</g>
</svg>
