<svg version="1.1" id="Layer_2" xmlns="http://www.w3.org/2000/svg" xmlns:xlink="http://www.w3.org/1999/xlink" x="0px" y="0px" viewBox="-219.2 -87 592.3 160.9" style="enable-background:new -219.2 -87 592.3 160.9;" xml:space="preserve">
 <style type="text/css">
  .st0{fill:#5F259F;}
	.st1{fill:#FFFFFF;}
 </style>
 <g>
  <circle class="st0" cx="-138.8" cy="-6.6" r="80.4">
  </circle>
  <path class="st0" d="M187.5,39.4V10.2c0-7.2-2.7-10.8-9.4-10.8c-2.7,0-5.8,0.4-7.6,0.9V43c0,1.3-1.3,2.7-2.7,2.7h-10.3
		c-1.3,0-2.7-1.3-2.7-2.7V-6.9c0-1.8,1.3-3.1,2.7-3.6c6.7-2.2,13.5-3.6,20.7-3.6c16.2,0,25.2,8.5,25.2,24.3v33.2
		c0,1.3-1.3,2.7-2.7,2.7h-6.3C190.2,46.1,187.5,43,187.5,39.4z M227.9,21.9l-0.4,4c0,5.4,3.6,8.5,9.4,8.5c4.5,0,8.5-1.3,13-3.6
		c0.4,0,0.9-0.4,1.3-0.4c0.9,0,1.3,0.4,1.8,0.9c0.4,0.4,1.3,1.8,1.3,1.8c0.9,1.3,1.8,3.1,1.8,4.5c0,2.2-1.3,4.5-3.1,5.4
		c-4.9,2.7-10.8,4-17.1,4c-7.2,0-13-1.8-17.5-5.4c-4.5-4-7.2-9.4-7.2-16.2V7.9c0-13.9,9-22.5,24.3-22.5c14.8,0,23.4,8.1,23.4,22.5
		v10.8c0,1.3-1.3,2.7-2.7,2.7h-28.3L227.9,21.9z M227.5,12h17.1V7.5c0-5.4-3.1-9-8.5-9s-8.5,3.1-8.5,9C227.5,7.5,227.5,12,227.5,12z
		 M342,21.9l-0.4,4c0,5.4,3.6,8.5,9.4,8.5c4.5,0,8.5-1.3,13-3.6c0.4,0,0.9-0.4,1.3-0.4c0.9,0,1.3,0.4,1.8,0.9
		c0.4,0.4,1.3,1.8,1.3,1.8c0.9,1.3,1.8,3.1,1.8,4.5c0,2.2-1.3,4.5-3.1,5.4c-4.9,2.7-10.8,4-17.1,4c-7.2,0-13-1.8-17.5-5.4
		c-4.5-4-7.2-9.4-7.2-16.2V7.9c0-13.9,9-22.5,24.3-22.5c14.8,0,23.4,8.1,23.4,22.5v10.8c0,1.3-1.3,2.7-2.7,2.7H342L342,21.9z
		 M341.6,12h17.1V7.5c0-5.4-3.1-9-8.5-9c-5.4,0-8.5,3.1-8.5,9V12z M77.4,46.1h6.3c1.3,0,2.7-1.3,2.7-2.7V10.2
		c0-15.3-8.1-24.3-21.6-24.3c-4,0-8.5,0.9-11.2,1.8v-16.6c0-3.6-3.1-6.7-6.7-6.7h-6.3c-1.3,0-2.7,1.3-2.7,2.7v76.4
		c0,1.3,1.3,2.7,2.7,2.7h10.3c1.3,0,2.7-1.3,2.7-2.7V1.2c2.2-0.9,5.4-1.3,7.6-1.3c6.7,0,9.4,3.1,9.4,10.8v29.2
		C71.1,43,73.8,46.1,77.4,46.1z M145.2,8.4V25c0,13.9-9.4,22.5-25.2,22.5c-15.3,0-25.2-8.5-25.2-22.5V8.4c0-13.9,9.4-22.5,25.2-22.5
		S145.2-5.5,145.2,8.4z M129.5,8.4c0-5.4-3.1-9-9-9s-9,3.1-9,9V25c0,5.4,3.1,8.5,9,8.5s9-3.1,9-8.5V8.4z M29.3,0.8
		C29.3,15.1,18.5,25,4.2,25c-3.6,0-6.7-0.4-9.9-1.8v20.2c0,1.3-1.3,2.7-2.7,2.7h-10.3c-1.3,0-2.7-1.3-2.7-2.7V-28
		c0-1.8,1.3-3.1,2.7-3.6c6.7-2.2,13.5-3.6,20.7-3.6c16.2,0,27.4,9.9,27.4,25.2C29.3-10,29.3,0.8,29.3,0.8z M13.2-10.9
		c0-7.2-4.9-10.8-11.7-10.8c-4,0-6.7,1.3-6.7,1.3V9.3c2.7,1.3,4,1.8,7.2,1.8c6.7,0,11.7-4,11.7-10.8v-11.2H13.2z M319.6,0.8
		c0,14.4-10.8,24.3-25.2,24.3c-3.6,0-6.7-0.4-9.9-1.8v20.2c0,1.3-1.3,2.7-2.7,2.7h-10.3c-1.3,0-2.7-1.3-2.7-2.7V-28
		c0-1.8,1.3-3.1,2.7-3.6c6.7-2.2,13.5-3.6,20.7-3.6c16.2,0,27.4,9.9,27.4,25.2C319.6-10,319.6,0.8,319.6,0.8z M303.4-10.9
		c0-7.2-4.9-10.8-11.7-10.8c-4,0-6.7,1.3-6.7,1.3V9.3c2.7,1.3,4,1.8,7.2,1.8c6.7,0,11.7-4,11.7-10.8v-11.2H303.4z">
  </path>
  <path class="st1" d="M-102.3-27.6c0-3.1-2.7-5.8-5.8-5.8h-10.8l-24.7-28.3c-2.2-2.7-5.8-3.6-9.4-2.7l-8.5,2.7
		c-1.3,0.4-1.8,2.2-0.9,3.1l27,25.6h-40.9c-1.3,0-2.2,0.9-2.2,2.2v4.5c0,3.1,2.7,5.8,5.8,5.8h6.3V1.2c0,16.2,8.5,25.6,22.9,25.6
		c4.5,0,8.1-0.4,12.6-2.2v14.4c0,4,3.1,7.2,7.2,7.2h6.3c1.3,0,2.7-1.3,2.7-2.7v-64.2h10.3c1.3,0,2.2-0.9,2.2-2.2
		C-102.3-23.1-102.3-27.6-102.3-27.6z M-131.1,11.1c-2.7,1.3-6.3,1.8-9,1.8c-7.2,0-10.8-3.6-10.8-11.7v-21.6h19.8
		C-131.1-20.4-131.1,11.1-131.1,11.1z">
  </path>
 </g>
</svg>