<?xml version="1.0" encoding="utf-8"?>
<!-- Generator: Adobe Illustrator 22.1.0, SVG Export Plug-In . SVG Version: 6.00 Build 0)  -->
<svg version="1.1" id="Layer_1" xmlns="http://www.w3.org/2000/svg" xmlns:xlink="http://www.w3.org/1999/xlink" x="0px" y="0px"
	 viewBox="0 0 500 500" style="enable-background:new 0 0 500 500;" xml:space="preserve">
<style type="text/css">
	.st0{fill:#231F20;}
	.st1{fill:#13AFF0;}
</style>
<g>
	<path class="st0" d="M76,369.3l17.1,51h-9.4L80,409H62.4l-3.5,11.3h-9.4l17.1-51H76z M65,400.6h12.4l-6.3-19.7L65,400.6z"/>
	<path class="st0" d="M100.3,420.3v-50.8h21.5c8.8,0,14.1,5.4,14.1,11.2v10.8c0,4.1-2.8,8-7.5,9.9l8.6,18.9h-9.9l-8.1-17.8h-9.4
		v17.8H100.3z M109.7,377.9v16.2h11.4c3,0,5.5-1.7,5.5-4.7v-6.7c0-3.1-2.6-4.8-5.9-4.8H109.7z"/>
	<path class="st0" d="M154.6,420.3v-42.5H142v-8.3h33.6v8.3h-11.6v42.5H154.6z"/>
	<path class="st0" d="M186.9,405.8v3.3c0,4.5,4.2,7.9,9.6,7.9h6c5.6,0,9.9-2.7,9.9-7.4V406c0-7.8-28.1-9.3-28.1-22.7v-4.6
		c0-5.1,4.9-9.6,11.4-9.6h6.7c7.3,0,12.7,4.9,12.7,10.4v4.6h-4.2v-3.8c0-4.2-3.9-7.4-8.8-7.4h-5.8c-4.3,0-7.8,2.8-7.8,6.5v3.7
		c0,10,28.1,11.3,28.1,22.3v4.9c0,6.4-5.9,10.4-13.8,10.4h-6.5c-7.9,0-13.7-5.1-13.7-11v-3.9H186.9z"/>
	<path class="st0" d="M237.7,420.3v-47.1h-14.2v-3.7h32v3.7h-13.6v47.1H237.7z"/>
	<path class="st0" d="M278.2,369.1l17.9,51.1h-4.3l-5.7-16.3h-20.3l-5.6,16.3H256l18-51.1H278.2z M267.1,400.2h17.7l-8.8-25.6
		L267.1,400.2z"/>
	<path class="st0" d="M310.9,420.3v-47.1h-14.2v-3.7h32v3.7h-13.6v47.1H310.9z"/>
	<path class="st0" d="M338.1,420.3v-50.8h4.2v50.8H338.1z"/>
	<path class="st0" d="M368.4,420.7c-7,0-12-5.1-12-11v-29.6c0-5.9,5.1-11,12-11h10.1c6.9,0,11.9,5.1,11.9,11v29.6
		c0,5.9-5,11-11.9,11H368.4z M378.2,416.9c4.5,0,8.1-3.4,8.1-7.9v-28.3c0-4.5-3.6-7.9-8.1-7.9h-9.5c-4.5,0-8.1,3.4-8.1,7.9V409
		c0,4.5,3.6,7.9,8.1,7.9H378.2z"/>
	<path class="st0" d="M404.5,420.3v-50.8h4.4l25.5,43.4v-43.4h4.2v50.8h-4.4l-25.5-43.4v43.4H404.5z"/>
</g>
<g>
	<path class="st1" d="M95.7,276.6l25.1,43.3l0,0c4.9,9.8,15.1,16.5,26.8,16.5l0,0l0,0h166.3l-34.5-59.8H95.7z"/>
	<path class="st1" d="M392.3,276.9c0-6-1.8-11.6-4.8-16.2L290.1,91.2c-5-9.5-15-15.9-26.5-15.9h-51.5l150.5,260.8l23.7-41.1
		C391.1,287.1,392.3,283.7,392.3,276.9z"/>
	<polygon class="st1" points="254.8,234.1 187.5,117.5 120.2,234.1 	"/>
</g>
</svg>
