<svg id="Layer_1" data-name="Layer 1" xmlns="http://www.w3.org/2000/svg" viewBox="0 0 623.83 196.01"><defs><style>.cls-1{fill:#171717;}.cls-2{fill:#fff;}.cls-3{fill:#13aff0;}</style></defs><title>ArtStation-logo-horizontal-dark</title><rect class="cls-1" width="623.83" height="196.01"/><path class="cls-2" d="M209.57,72.29l17.11,51h-9.42L213.63,112H196l-3.48,11.31H183.1l17.11-51Zm-10.95,31.33H211l-6.31-19.73Z"/><path class="cls-2" d="M233.86,123.27V72.44H255.4c8.85,0,14.14,5.36,14.14,11.17v10.8c0,4.06-2.75,8-7.54,9.94l8.56,18.92H260.7l-8-17.84h-9.36v17.84Zm9.43-42.42V97.09h11.39c3,0,5.51-1.74,5.51-4.71V85.64c0-3.12-2.61-4.79-5.88-4.79Z"/><path class="cls-2" d="M288.18,123.27V80.78H275.56V72.44h33.58v8.34h-11.6v42.49Z"/><path class="cls-2" d="M320.52,108.77V112c0,4.5,4.21,7.91,9.65,7.91h6c5.58,0,9.93-2.69,9.93-7.4V109c0-7.83-28.06-9.29-28.06-22.7V81.72c0-5.15,4.86-9.65,11.38-9.65h6.75c7.32,0,12.69,4.86,12.69,10.45v4.57h-4.21V83.24c0-4.2-3.91-7.39-8.84-7.39H330c-4.28,0-7.76,2.82-7.76,6.52v3.7c0,10,28.07,11.31,28.07,22.34v4.86c0,6.38-5.88,10.44-13.78,10.44H330c-7.9,0-13.7-5.08-13.7-11v-3.92Z"/><path class="cls-2" d="M371.29,123.27V76.21H357.07v-3.7h32v3.7H375.49v47.06Z"/><path class="cls-2" d="M411.75,72.15l17.91,51.12h-4.27L419.73,107H399.42l-5.58,16.31h-4.28l18-51.12Zm-11,31h17.69l-8.84-25.6Z"/><path class="cls-2" d="M444.53,123.27V76.21H430.32v-3.7h32v3.7H448.74v47.06Z"/><path class="cls-2" d="M471.73,123.27V72.51h4.2v50.76Z"/><path class="cls-2" d="M502,123.71c-7,0-12-5.08-12-11V83.1c0-5.95,5.08-11,12-11h10.08c6.89,0,11.89,5.08,11.89,11v29.59c0,5.94-5,11-11.89,11Zm9.72-3.77a7.87,7.87,0,0,0,8-7.91V83.75a7.86,7.86,0,0,0-8-7.9h-9.5a7.86,7.86,0,0,0-8.05,7.9V112a7.86,7.86,0,0,0,8.05,7.91Z"/><path class="cls-2" d="M538.08,123.27V72.51h4.35l25.46,43.37V72.44h4.2v50.83h-4.35L542.29,79.83v43.44Z"/><path class="cls-3" d="M51.42,123.26l8.93,15.45h0a10.66,10.66,0,0,0,9.53,5.87H129.2l-12.3-21.32Z"/><path class="cls-3" d="M157.19,123.37a10.63,10.63,0,0,0-1.7-5.79L120.74,57.17a10.69,10.69,0,0,0-9.44-5.68H92.93l53.68,93,8.46-14.65C156.74,127,157.19,125.79,157.19,123.37Z"/><polygon class="cls-3" points="108.15 108.11 84.16 66.56 60.16 108.11 108.15 108.11"/></svg>