<svg version="1.1" id="Layer_1" xmlns:x="ns_extend;" xmlns:i="ns_ai;" xmlns:graph="ns_graphs;" xmlns="http://www.w3.org/2000/svg" xmlns:xlink="http://www.w3.org/1999/xlink" x="0px" y="0px" viewBox="0 0 92 88.9" style="enable-background:new 0 0 92 88.9;" xml:space="preserve">
 <style type="text/css">
  .st0{fill:#FFFFFF;}
 </style>
 <metadata>
  <sfw xmlns="ns_sfw;">
   <slices>
   </slices>
   <sliceSourceBounds bottomLeftOrigin="true" height="88.9" width="92" x="0" y="0">
   </sliceSourceBounds>
  </sfw>
 </metadata>
 <path class="st0" d="M31.8,84.3L31.8,84.3h33.3c10.5,0,16.2-8.7,18.7-13.9l1.5-3.7h6.1L79.7,88.9H0.3l2.1-4.7h3c0.1,0,0.1,0,0.2,0
	c0.4,0,0.8,0,1.2,0h2.3c3.8-0.1,7.9-1.3,10.7-8.4c0.3-0.7,0.5-1.3,0.8-1.8l7.9-20.2l-17-39.5c-0.4-0.6-0.7-1.4-1.1-2.2
	C8.3,7.2,5.2,5.7,2.9,5.2H0V0h27.5v5.2h-1.3c-0.1,0-0.2,0-0.2,0c-2.3,0-4.7,0.1-3.2,3.6C22.9,9,22.9,9.2,23,9.3l12.1,28l6.6-16.9
	c0.8-2.7-0.5-3.6-1.8-3.8h-3.3l2.5-5.8h28.6l-2.5,5.8h-4.5c-2,0.5-4.6,2.1-6.8,6.5l-12,30.1l6.1,14l0.1,0.1c0.3,0.8,0.8,1.2,1.5,0
	c0-0.1,0.1-0.1,0.1-0.2l23.9-52.6c0.2-0.6,0.5-1.3,0.9-2.1c2.5-5.5,0-6.9-2-7.2H69V0h23v5.2h-3.8c-1.5,0.3-3.8,1.2-5.9,4.3
	L50.5,79.6l-10.8-0.2l-4.3-9.8l-5,12.6c0,0.1,0,0.2-0.1,0.3C29.9,83.9,30.6,84.3,31.8,84.3z">
 </path>
</svg>