<svg version="1.1" id="Layer_1" xmlns:x="ns_extend;" xmlns:i="ns_ai;" xmlns:graph="ns_graphs;" xmlns="http://www.w3.org/2000/svg" xmlns:xlink="http://www.w3.org/1999/xlink" x="0px" y="0px" viewBox="0 0 299.6 48" style="enable-background:new 0 0 299.6 48;" xml:space="preserve">
 <style type="text/css">
  .st0{fill:#FFFFFF;}
 </style>
 <metadata>
  <sfw xmlns="ns_sfw;">
   <slices>
   </slices>
   <sliceSourceBounds bottomLeftOrigin="true" height="48" width="299.6" x="50.5" y="-224.2">
   </sliceSourceBounds>
  </sfw>
 </metadata>
 <g>
  <path class="st0" d="M12.3,38.1c-2.4-3.8-3.9-9-3.9-14c0-4.9,1.3-9.6,3.6-13.6l0.3-0.5c2.3-4.6,7.4-7.7,12.4-7.7v0
		c3.3,0,6.7,1,9.4,2.4c4.9,3,8.8,7.6,11,13V9.5c0-1.8-2.8-3.9-2.8-3.9c-4.8-3.5-10.7-5.6-17.1-5.6c-2.6,0-6.2,0.7-6.2,0.7
		C8.1,3.1,0,12.7,0,24.1c0,12.2,9.2,22.3,21.1,23.6c0,0,2.4,0.4,4.1,0.3c6.9,0,13.3-2.4,18.3-6.5l0.7-0.7c0.6-0.8,1-1.8,1-2.8v-6.8
		c0-2,1-3.8,2.5-4.9H34.8c1.5,1.1,2.5,2.9,2.5,4.9l0.1,6.4c0,1.3-0.5,2.4-1.3,3.3c-1,1.2-5,3.2-5,3.2c-1.9,1-4.1,1.6-6.5,1.6
		C19.2,45.5,14.6,42.5,12.3,38.1">
  </path>
  <path class="st0" d="M142.1,24c0,11.4,8.1,20.8,18.8,23.1c0,0,3.6,0.7,6.2,0.7c6.4,0,12.2-2,17-5.5c0,0,2.9-1.8,2.9-3.6l1.1-8.7
		c-3.3,8.2-8.9,11.3-12.1,13.1c-2.7,1.4-6.2,2.4-9.4,2.4v0c-5,0-10.1-2.8-12.4-7.4l-0.3-0.5c-2.3-4-3.6-8.6-3.6-13.6
		c0-4.9,1.3-9.6,3.6-13.6l0.3-0.5c2.3-4.6,7.4-7.7,12.4-7.7v0c3.3,0,6.7,1,9.4,2.4c4.9,3,8.8,7.6,11,13V9.4c0-1.8-2.8-3.9-2.8-3.9
		C179.4,2,173.5,0,167.1,0c-2.6,0-6.2,0.7-6.2,0.7C150.1,2.9,142.1,12.5,142.1,24">
  </path>
  <path class="st0" d="M216.2,24c0,11.4,8.1,20.8,18.8,23.1c0,0,3.6,0.7,6.2,0.7c6.4,0,12.2-2,17-5.5c0,0,2.9-1.8,2.9-3.7l1.1-8.7
		c-3.3,8.2-8.9,11.3-12.1,13.1c-2.7,1.4-6.2,2.4-9.4,2.4c-5,0-10.1-2.9-12.4-7.4l-0.3-0.5c-2.3-4-3.6-8.6-3.6-13.6
		c0-4.9,1.3-9.6,3.6-13.6l0.3-0.5c2.3-4.6,7.4-7.7,12.4-7.7v0c3.3,0,6.7,1,9.4,2.4c4.9,3,8.8,7.6,11,13V9.5c0-1.8-2.8-3.9-2.8-3.9
		C253.6,2.1,247.7,0,241.3,0c-2.6,0-6.2,0.7-6.2,0.7C224.3,3,216.2,12.6,216.2,24">
  </path>
  <path class="st0" d="M299.6,2.1h-12.4c1.5,1.1,2.5,2.8,2.5,4.8V43c0,1.9-0.9,3.7-2.4,4.7h12.1c-1.4-1.1-2.4-2.8-2.4-4.7V6.9
		C297.1,4.9,298,3.1,299.6,2.1">
  </path>
  <path class="st0" d="M85.4,2.1H73c1.5,1.1,2.5,2.9,2.5,4.9l0,0v27v0c0.4,4.9,3.5,9.1,7.8,11.1l0,0c3.5,1.7,7.4,2.7,11.6,2.7
		c4.2,0,8.3-0.9,11.8-2.7l0.1,0c4.3-2,7.4-6.2,7.8-11.1V6.8c0-2,1-3.7,2.5-4.7h-7.2c1.5,1.1,2.5,2.7,2.5,4.7V34l0,0.1
		c-0.3,3-1.8,5.6-3.9,7.4l-0.1,0.1c-2.4,1.9-6.7,3.3-10.8,3.3c-2.5,0-4.9-0.5-7.2-1.4l-0.2-0.1c-4-1.4-6.9-5.1-7.4-9.5l0-0.1V7l0,0
		C82.8,4.9,83.9,3.1,85.4,2.1">
  </path>
 </g>
</svg>