<svg version="1.1" id="Layer_1" xmlns:x="ns_extend;" xmlns:i="ns_ai;" xmlns:graph="ns_graphs;" xmlns="http://www.w3.org/2000/svg" xmlns:xlink="http://www.w3.org/1999/xlink" x="0px" y="0px" viewBox="0 0 243.4 56" style="enable-background:new 0 0 243.4 56;" xml:space="preserve">
 <style type="text/css">
  .st0{fill:#4285F4;}
	.st1{fill:#34A853;}
	.st2{fill:#FBBC04;}
	.st3{fill:#EA4335;}
	.st4{fill:#C5221F;}
	.st5{fill:#444746;}
 </style>
 <metadata>
  <sfw xmlns="ns_sfw;">
   <slices>
   </slices>
   <sliceSourceBounds bottomLeftOrigin="true" height="56" width="243.4" x="-176.8" y="-303.8">
   </sliceSourceBounds>
  </sfw>
 </metadata>
 <g>
  <g>
   <path class="st0" d="M5.1,56H17V27.2L0,14.4v36.5C0,53.7,2.3,56,5.1,56">
   </path>
   <path class="st1" d="M57.7,56h11.9c2.8,0,5.1-2.3,5.1-5.1V14.4l-17,12.7">
   </path>
   <path class="st2" d="M57.7,5.1v22.1l17-12.7V7.6c0-6.3-7.2-9.9-12.2-6.1">
   </path>
   <path class="st3" d="M17,27.2V5.1l20.4,15.3L57.7,5.1v22.1L37.3,42.4">
   </path>
   <path class="st4" d="M0,7.6v6.8l17,12.7V5.1l-4.8-3.6C7.2-2.2,0,1.4,0,7.6">
   </path>
  </g>
  <g>
   <path class="st5" d="M145.5,30.6c0,5.5-1.6,10-4.9,13.3c-3.7,3.9-8.6,5.9-14.6,5.9c-5.8,0-10.6-2-14.6-6c-4-4-6-8.9-6-14.8
			c0-5.8,2-10.8,6-14.8c4-4,8.9-6,14.6-6c2.9,0,5.7,0.5,8.3,1.6c2.6,1,4.7,2.5,6.4,4.4l-3.7,3.7c-1.2-1.5-2.8-2.6-4.7-3.5
			c-1.9-0.8-4-1.2-6.2-1.2c-4.3,0-8,1.5-11,4.5c-3,3-4.4,6.8-4.4,11.4s1.5,8.3,4.4,11.4c3,3,6.7,4.5,11,4.5c4,0,7.2-1.1,9.9-3.3
			c2.6-2.2,4.1-5.3,4.5-9.2H126v-4.8h19.2C145.4,28.6,145.5,29.6,145.5,30.6z">
   </path>
   <path class="st5" d="M155.9,48.8h-5.1V21.6h4.9v3.8h0.2c0.8-1.3,2-2.4,3.6-3.3c1.6-0.9,3.2-1.3,4.8-1.3c2,0,3.8,0.5,5.3,1.4
			c1.5,0.9,2.6,2.2,3.3,3.8c2.3-3.5,5.4-5.2,9.4-5.2c3.1,0,5.6,1,7.3,2.9c1.7,1.9,2.6,4.7,2.6,8.2v17H187V32.6
			c0-2.6-0.5-4.4-1.4-5.5c-0.9-1.1-2.5-1.7-4.7-1.7c-2,0-3.6,0.8-4.9,2.5c-1.3,1.7-2,3.6-2,5.9v15h-5.1V32.6c0-2.6-0.5-4.4-1.4-5.5
			c-0.9-1.1-2.5-1.7-4.7-1.7c-2,0-3.6,0.8-4.9,2.5s-2,3.6-2,5.9V48.8z">
   </path>
   <path class="st5" d="M208.1,20.7c3.8,0,6.7,1,8.9,3c2.2,2,3.3,4.8,3.3,8.3v16.8h-4.9V45h-0.2c-2.1,3.1-4.9,4.7-8.4,4.7
			c-3,0-5.5-0.9-7.5-2.7c-2-1.8-3-4-3-6.7c0-2.8,1.1-5,3.2-6.7c2.1-1.7,5-2.5,8.5-2.5c3,0,5.5,0.6,7.5,1.7v-1.2
			c0-1.8-0.7-3.3-2.1-4.5c-1.4-1.2-3.1-1.9-4.9-1.9c-2.8,0-5.1,1.2-6.8,3.6l-4.5-2.8C199.6,22.5,203.3,20.7,208.1,20.7z M201.5,40.5
			c0,1.3,0.6,2.4,1.7,3.3c1.1,0.9,2.4,1.3,4,1.3c2.1,0,4.1-0.8,5.7-2.4c1.7-1.6,2.5-3.5,2.5-5.6c-1.6-1.3-3.8-1.9-6.7-1.9
			c-2.1,0-3.8,0.5-5.2,1.5C202.2,37.8,201.5,39,201.5,40.5z">
   </path>
   <path class="st5" d="M232.7,12.3c0,1-0.4,1.8-1.1,2.6c-0.7,0.7-1.6,1.1-2.6,1.1c-1,0-1.8-0.4-2.6-1.1c-0.7-0.7-1.1-1.6-1.1-2.6
			c0-1,0.4-1.8,1.1-2.6c0.7-0.7,1.6-1.1,2.6-1.1c1,0,1.8,0.4,2.6,1.1C232.3,10.4,232.7,11.3,232.7,12.3z M231.6,21.6v27.2h-5.1V21.6
			H231.6z">
   </path>
   <path class="st5" d="M243.4,9.1v39.7h-5.1V9.1H243.4z">
   </path>
  </g>
 </g>
</svg>