<svg version="1.1" id="Layer_1" xmlns:x="ns_extend;" xmlns:i="ns_ai;" xmlns:graph="ns_graphs;" xmlns="http://www.w3.org/2000/svg" xmlns:xlink="http://www.w3.org/1999/xlink" x="0px" y="0px" viewBox="0 0 186.7 97" style="enable-background:new 0 0 186.7 97;" xml:space="preserve">
 <style type="text/css">
  .st0{fill:#FF0D00;}
 </style>
 <metadata>
  <sfw xmlns="ns_sfw;">
   <slices>
   </slices>
   <sliceSourceBounds bottomLeftOrigin="true" height="97" width="186.7" x="466.4" y="35">
   </sliceSourceBounds>
  </sfw>
 </metadata>
 <g>
  <path class="st0" d="M90.7,53.8c-3,0-5.6,12-8,11.9c-2.1-0.1-0.3-8.3-3.5-8.3c-2,0-2.6,3.3-3.4,6.1c-0.1,0.2-1.5,5.8-3.7,5.8
		c-1.4,0-2.6-1.1-2.6-4.4c0-1.5-0.1-3.8-1.9-4.2c-3.2-0.7-2.5,2.6-5.3,2.1C54.5,61.3,48.8,77,53.4,79c5.6,2.5,9.6-7.3,11.3-7.1
		c1.3,0.2,0.4,4.5,4.4,4.2c3.2-0.2,5.8-6.9,7.1-6.8c1.1,0.1,0.1,4,2.9,4.2c3.3,0.2,4.6-5.3,6.1-5.3c0.4,0,0.5,0.3,0.5,1.6
		c0,1.8-0.3,24.9-0.3,25.7C85.3,96.9,86,97,86.3,97c0.2,0,3.4-0.1,4-0.1c0.6,0,0.7-0.6,0.7-0.9c0-0.1,0.4-33.6,0.5-40.8
		C91.5,53.8,90.9,53.8,90.7,53.8z M63.6,67.6c-0.8,2.7-3.8,7.2-5.3,7.4c-0.4,0-1.1-0.2-1-1.2c0.1-2.3,3.7-7.5,5.1-7.9
		C63.5,65.6,63.9,66.5,63.6,67.6z M185.5,38.9c-5.9,3.7-4.8-10.1-8.4-10.1c-3.9,0-5.1,8.2-6.5,8.3c-1.7,0.2,0.6-6-2.8-5.9
		c-3.7,0.2-5.8,13.7-8.6,12.7c-2.8-1.1-0.8-8.2-3.9-8.8c-1.6-0.3-2,1-2.9,1.6c-1.4,0.9-4-0.7-8.1,4c-4.6,5.4-6,14-2.5,14.6
		c4.7,0.8,9-7.3,10.1-8.3c1.5-1.4,0.7,4.2,4.8,4.3c4.3,0.1,5.6-7.1,6.9-7c1.1,0.1-0.2,3.8,1.9,4c4.5,0.6,6.9-11.1,8.8-10.9
		c1.8,0.2,1.1,7.2,5.6,7.7c3.8,0.4,6.3-4.8,6.7-5.5C187,39,186.3,38.4,185.5,38.9z M151.9,42.6c-0.9,2.4-3.3,6.3-4.9,6.6
		c-0.5,0.1-1.2-0.4-1.1-1.3c0.1-2.1,3.6-6.5,5-6.9C151.9,40.8,152.2,41.6,151.9,42.6z M42.2,76.4c-1-0.5-1.1-1.6-1.1-2.1
		s0-3.1,0-4.9s0.2-2.1,1.6-3c21.4-15.7,25.1-29.3,19.1-37.9c-12.4-17.6-54.9,9.8-58,12c-3.2,2.3-3.5,5.8-3.6,6.9
		C0,48.2,0,52.3,0,53.4c0,0.9-0.1,1.8,2.3-0.1C17.1,41,51.4,19.2,58,32.9c3.2,6.7,1.1,16.8-15.1,28.8c-1.4,1-1.7-0.3-1.8-1.1
		c0-0.6,0-23.6,0-25.2c0-2.4-2.1-1.5-2.8-1.1c-0.4,0.3-1.8,1.2-3.1,2c-1.1,0.7-1,1.3-1,1.9c0,0.4,0.1,25.5,0.1,27.5
		c0,1.7,0,2.3-0.8,2.9c-0.5,0.4-7.6,4.5-9,5.4c-1.2,0.7-0.8,1.8-0.2,2c0.5,0.2,7.8,3.7,8.9,4.2c1.3,0.6,1.2,1.4,1.2,1.9
		c0,0.4,0,8.4,0,12.7c0,2.2,1.4,1.1,1.9,0.9c0.4-0.2,2.4-1.4,3.7-2.3c1.2-0.8,1.1-2.3,1.1-2.9v-4.3c0-1.6,0.9-1.8,1.5-1.5
		c0.5,0.2,16.7,8,19.7,9.4c1.9,0.9,3.5,0.2,4.1-0.9c0.1-0.2,0.6-1.1,1.2-2.4c0.8-1.7-0.7-2.7-1.8-3.2C64.9,87.1,43.3,76.9,42.2,76.4
		L42.2,76.4z M106.5,52.4c-1.6-1.8-4.7-1.7-7.2-0.2c-3.2,2-4.1,5.1-2.5,6.8s5.3,1.4,7.6-0.1C107.2,57.1,108.1,54.2,106.5,52.4
		L106.5,52.4z M130.6,5.4c7.5,7.4-5.3,21.5-8.4,25.1c-1.4,1.6-2.7,4-0.5,6.4s4.5,4.5,6.4,6.3c2.3,2.2,1.6,6.2,0.2,8.4
		c-1,1.5-3.2,4.1-5.8,7.3c-2.5,3.3-4.9,6.2-5.1,6.6c-1.5,1.8-1.6,4.3-0.4,6.3c2.7,4.3,3,4.2,4.8,1.2c2.9-5.1,6.8-9.8,9.7-13.1
		c1.6-1.8,3.1-3.7,4.4-5.7c2.6-3.8,2.9-7.8,0.2-10.1c-3.5-3.1-7.6-5.8-11-8.3c-2-1.5-0.6-3.3,1.5-4.9c7.4-5.6,17.8-14.9,13-26.1
		c-4.6-10.8-26.3-2.5-27.1,19.9c-0.3,8,0.8,30.1,0.2,35.6c-0.3,3.2,0.9,2.9,2.1,2.4c1.1-0.4,5.2-2.5,5-7.7
		c-0.2-5.3-0.7-28.1-0.8-30.5C118,12.1,125.7,0.5,130.6,5.4z">
  </path>
 </g>
</svg>