<svg width="1122" height="403" viewBox="0 0 1122 403" fill="none" xmlns="http://www.w3.org/2000/svg" xmlns:xlink="http://www.w3.org/1999/xlink">
 <path d="M296.017 233.569C313.94 181.054 285.899 123.952 233.383 106.028C180.868 88.1047 123.767 116.147 105.843 168.662C87.9194 221.177 115.961 278.278 168.476 296.202C220.991 314.126 278.093 286.084 296.017 233.569Z" fill="#202843">
 </path>
 <path d="M115.857 254.574C131.492 247.112 184.711 220.991 195.198 214.844C203.814 209.823 216.641 202.422 216.641 202.422L222.083 213.512L230.391 268.163L236.737 264.499L240.959 188.165C253.78 180.148 265.079 172.348 276.905 164.185C281.238 161.193 285.643 158.153 290.219 155.034C288.771 152.234 287.193 149.505 285.493 146.857C280.505 149.261 275.67 151.555 270.913 153.811C257.93 159.971 245.526 165.856 232.174 172.951L163.956 138.44L157.61 142.103L200.785 176.624L207.658 186.863L207.669 186.881C207.669 186.881 194.846 194.29 186.189 199.241C175.621 205.25 126.381 238.285 112.108 248.091C113.278 250.299 114.529 252.461 115.857 254.574Z" fill="#FFC94C">
 </path>
 <path fill-rule="evenodd" clip-rule="evenodd" d="M1002.01 178.754V167.724H1021.45V268.201L1001.45 268.201V256.79C994.316 265.099 984.282 270.591 969.774 270.591C941.213 270.591 922.856 247.825 922.856 218.022C922.856 188.427 941.213 165.454 969.774 165.454C982.47 165.454 994.239 170.243 1002.01 178.754ZM1000.67 198.473C994.748 189.712 984.738 184.32 972.964 184.32C955.283 184.32 943.102 199.292 943.102 218.022C943.102 236.752 954.835 252.172 972.964 252.172C985.077 252.172 994.878 245.27 1000.67 236.323V198.473Z" fill="#202843">
 </path>
 <path d="M882.603 141.858C882.603 134.137 888.928 127.894 896.732 127.894C904.289 127.894 910.696 134.301 910.696 141.858C910.696 149.662 904.453 155.987 896.732 155.987C888.928 155.987 882.603 149.662 882.603 141.858Z" fill="#202843">
 </path>
 <path d="M886.257 167.724H907.039V268.201H886.257V167.724Z" fill="#202843">
 </path>
 <path fill-rule="evenodd" clip-rule="evenodd" d="M845.639 130.469H865.974V268.201L845.973 268.201V256.789C838.839 265.099 828.806 270.591 814.297 270.591C785.736 270.591 767.379 247.825 767.379 218.022C767.379 188.427 785.736 165.454 814.297 165.454C826.515 165.454 837.874 169.889 845.639 177.809V130.469ZM845.191 198.473C839.271 189.712 829.262 184.32 817.488 184.32C799.806 184.32 787.626 199.292 787.626 218.022C787.626 236.752 799.359 252.172 817.488 252.172C829.601 252.172 839.402 245.27 845.191 236.323V198.473Z" fill="#202843">
 </path>
 <path fill-rule="evenodd" clip-rule="evenodd" d="M708.832 270.756C717.906 270.735 726.142 269.037 733.539 265.662C740.984 262.266 747.515 257.368 753.131 250.968L740.72 237.743L740.691 237.773C736.571 242.152 731.932 245.508 726.768 248.22C721.65 250.778 715.814 252.065 709.245 252.065C693.73 252.065 680.225 240.374 678.272 224.984L756.404 224.984C756.421 224.76 756.437 224.536 756.453 224.312C756.633 221.914 756.724 219.521 756.724 217.106C756.724 188.41 736.137 165.12 707.649 165.12C678.952 165.12 657.326 187.786 657.326 217.938C657.326 248.692 678.921 270.725 708.832 270.756ZM678.769 207.816H735.484C733.482 193.841 721.989 183.418 707.219 183.418C699.823 183.418 693.06 186.622 687.947 191.389C683.04 195.964 679.694 201.942 678.769 207.816Z" fill="#202843">
 </path>
 <path fill-rule="evenodd" clip-rule="evenodd" d="M569.125 258.129L569.125 305.469H548.79L548.79 167.737L568.791 167.737L568.791 179.148C575.925 170.839 585.959 165.347 600.467 165.347C629.028 165.347 647.386 188.113 647.386 217.915C647.386 247.511 629.028 270.484 600.467 270.484C588.249 270.484 576.89 266.048 569.125 258.129ZM569.574 237.464C575.493 246.226 585.503 251.617 597.276 251.617C614.958 251.617 627.139 236.645 627.139 217.915C627.139 199.185 615.405 183.766 597.276 183.766C585.163 183.766 575.363 190.668 569.574 199.615L569.574 237.464Z" fill="#202843">
 </path>
 <path d="M476.684 216.545L441.244 167.73H466.331L489.971 201.028L513.611 167.73H538.363L502.768 216.758L540.011 268.203H514.896L489.705 232.643L464.513 268.203H439.286L476.684 216.545Z" fill="#202843">
 </path>
 <path d="M374.291 209.259H426.484V189.544H374.291V153.726H431.002V134.011H351.581V268.202H431.412V248.488H374.291V209.259Z" fill="#202843">
 </path>
</svg>