<svg xmlns="http://www.w3.org/2000/svg"  viewBox="0 0 40 40" width="40px" height="40px"><path fill="#ffb5d2" d="M20,38.5C9.799,38.5,1.5,30.201,1.5,20S9.799,1.5,20,1.5S38.5,9.799,38.5,20S30.201,38.5,20,38.5z"/><path fill="#ea4c89" d="M20,2c9.925,0,18,8.075,18,18s-8.075,18-18,18S2,29.925,2,20S10.075,2,20,2 M20,1 C9.507,1,1,9.507,1,20s8.507,19,19,19s19-8.507,19-19S30.493,1,20,1L20,1z"/><path fill="none" stroke="#ea4c89" stroke-miterlimit="10" d="M28.352 36.914c0 0-3.032-21.087-15.63-34.292M1.269 17.848c0 0 24.2 2.117 32.075-11.102M7.804 34.152c0 0 8.624-19.807 31.058-12.194"/></svg>