<svg height="1611" viewBox="-.01853775 0 153.17523059 98.69260254" width="2500" xmlns="http://www.w3.org/2000/svg"><path d="m93.14 80.94h-13v-59.81l13-3.58z" fill="#1a1a1a"/><path d="m22.17 36.33a8.9 8.9 0 1 1 8.9-8.9 8.91 8.91 0 0 1 -8.9 8.9z" fill="#4d64ae"/><path d="m29.14 80.83a26.48 26.48 0 0 1 -1.31 9.17 12.12 12.12 0 0 1 -3.62 5.4 12.33 12.33 0 0 1 -5.64 2.6 36.64 36.64 0 0 1 -7.32.67 22.47 22.47 0 0 1 -4.81-.47 13 13 0 0 1 -3.54-1.27 6 6 0 0 1 -2.14-1.86 3.62 3.62 0 0 1 -.76-2.19 4.26 4.26 0 0 1 1.59-3.38 6.47 6.47 0 0 1 4.33-1.35 5 5 0 0 1 1.87.32 6 6 0 0 1 1.43.79 12 12 0 0 1 1.16 1.07c.31.4.59.77.83 1.12a7.58 7.58 0 0 0 1.51 1.55 2.3 2.3 0 0 0 1.15.4 1.85 1.85 0 0 0 1-.28 2 2 0 0 0 .71-1 7.18 7.18 0 0 0 .4-1.91 23.12 23.12 0 0 0 .16-3.06v-46.67l13-3.58zm19-42.89v30.06a6.14 6.14 0 0 0 .47 2.39 6.45 6.45 0 0 0 1.39 1.85 7 7 0 0 0 2 1.27 6.12 6.12 0 0 0 2.4.48 4.2 4.2 0 0 0 1.61-.4 8.42 8.42 0 0 0 1.8-1.12 13.27 13.27 0 0 0 1.81-1.66 12.92 12.92 0 0 0 1.61-2.11v-30.76h13v43h-13v-4a22.47 22.47 0 0 1 -5.43 3.53 13.62 13.62 0 0 1 -5.59 1.28 16.52 16.52 0 0 1 -5.9-1 15.59 15.59 0 0 1 -4.76-2.89 13.56 13.56 0 0 1 -3.17-4.28 12.41 12.41 0 0 1 -1.15-5.29v-30.35z" fill="#1a1a1a"/><path d="m105.79 36.33a8.9 8.9 0 1 1 8.91-8.9 8.91 8.91 0 0 1 -8.91 8.9z" fill="#ca3c32"/><path d="m127.18 36.33a8.9 8.9 0 1 1 8.91-8.9 8.91 8.91 0 0 1 -8.91 8.9z" fill="#9259a3"/><path d="m116.49 17.8a8.9 8.9 0 1 1 8.9-8.9 8.89 8.89 0 0 1 -8.9 8.9z" fill="#399746"/><path d="m100.14 40.6 13-3.58v43.92h-13zm40 18.17a37.64 37.64 0 0 0 -3.77 1.87 21.89 21.89 0 0 0 -3.46 2.3 12.77 12.77 0 0 0 -2.55 2.67 5.12 5.12 0 0 0 -1 2.94 8.53 8.53 0 0 0 .32 2.34 7 7 0 0 0 .87 1.91 5.15 5.15 0 0 0 1.23 1.27 2.67 2.67 0 0 0 1.51.48 6.3 6.3 0 0 0 3.18-1 41.31 41.31 0 0 0 3.62-2.47zm13 22.17h-13v-3.42c-.71.61-1.42 1.17-2.11 1.67a14.2 14.2 0 0 1 -2.3 1.35 13.56 13.56 0 0 1 -2.82.88 19.75 19.75 0 0 1 -3.78.31 16 16 0 0 1 -5.33-.83 12.23 12.23 0 0 1 -4-2.31 10.23 10.23 0 0 1 -2.51-3.53 11 11 0 0 1 -.87-4.37 10.27 10.27 0 0 1 .91-4.42 13.11 13.11 0 0 1 2.55-3.57 19.36 19.36 0 0 1 3.77-2.86 40.26 40.26 0 0 1 4.65-2.31c1.67-.69 3.4-1.32 5.17-1.91l5.25-1.71 1.43-.31v-4.26a11.91 11.91 0 0 0 -.44-3.45 5.82 5.82 0 0 0 -1.15-2.31 4 4 0 0 0 -1.79-1.31 6.6 6.6 0 0 0 -2.34-.4 7.38 7.38 0 0 0 -2.59.4 4.37 4.37 0 0 0 -1.67 1.11 3.94 3.94 0 0 0 -.91 1.59 6.52 6.52 0 0 0 -.28 2 9.51 9.51 0 0 1 -.28 2.35 4.85 4.85 0 0 1 -.91 2 4.47 4.47 0 0 1 -1.79 1.28 6.84 6.84 0 0 1 -2.9.52 7.51 7.51 0 0 1 -2.51-.4 6.16 6.16 0 0 1 -1.91-1.15 6 6 0 0 1 -1.27-1.75 5.59 5.59 0 0 1 -.44-2.18 6.42 6.42 0 0 1 1.51-4.1 13.16 13.16 0 0 1 4.06-3.3 23.45 23.45 0 0 1 5.92-2.14 31.07 31.07 0 0 1 7.12-.8 32.21 32.21 0 0 1 7.87.84 16.37 16.37 0 0 1 5.49 2.34 9.55 9.55 0 0 1 3.18 3.66 10.91 10.91 0 0 1 1 4.81z" fill="#1a1a1a"/></svg>