<svg version="1.1" id="Layer_1" xmlns:x="ns_extend;" xmlns:i="ns_ai;" xmlns:graph="ns_graphs;" xmlns="http://www.w3.org/2000/svg" xmlns:xlink="http://www.w3.org/1999/xlink" x="0px" y="0px" viewBox="0 0 210 59" style="enable-background:new 0 0 210 59;" xml:space="preserve">
 <style type="text/css">
  .st0{fill-rule:evenodd;clip-rule:evenodd;fill:#FFFFFF;}
 </style>
 <metadata>
  <sfw xmlns="ns_sfw;">
   <slices>
   </slices>
   <sliceSourceBounds bottomLeftOrigin="true" height="59" width="210" x="0" y="0">
   </sliceSourceBounds>
  </sfw>
 </metadata>
 <g>
  <path class="st0" d="M206.6,31.9c0.4-0.5,1.2-0.5,1.6,0.1h0l1.5,2.1c0.3,0.4,0.3,1,0,1.4c-2.7,3.5-7.3,6.8-13,7.1
		c-4.4,0.3-8.1-1.4-10.1-4.6c-0.4-0.6-1.3-0.7-1.7-0.1c-2.4,3.2-5.2,5.7-8.2,5.8c-5.3,0.3-6.8-3.3-5.5-11.1c0.1-0.8-0.6-1.4-1.3-1.2
		c-1.1,0.3-2.3,0.4-3.5,0.3c-0.5,0-1,0.3-1.1,0.7c-2,6.5-6.6,12.5-12.7,12.8c-3.9,0.2-9.6-2-9.1-11.3c0-0.8-0.6-1.3-1.3-1.1
		c-1.2,0.4-2.5,0.5-3.8,0.4c-0.5,0-1,0.3-1.1,0.7c-2,6.5-6.6,12.5-12.7,12.8c-3.9,0.2-9.6-2-9.1-11.3c0-0.8-0.6-1.3-1.3-1.1
		c-1.2,0.4-2.5,0.5-3.8,0.4c-0.5,0-1,0.3-1.1,0.7c-2,6.5-6.6,12.5-12.7,12.8c-2.8,0.2-6.5-0.9-8.2-4.9c-0.3-0.8-1.3-0.9-1.8-0.2
		c-2.4,3.3-5.3,5.8-8.3,6c-3.1,0.2-4.8-1.1-5.6-3.3c-0.3-0.8-1.2-1-1.8-0.4c-2.1,2.5-4.6,4.3-7,4.5c-3.8,0.2-6-2.6-6.1-6
		c-0.2-4,1.5-8.6,3.4-13.7c0.3-0.7-0.2-1.5-0.9-1.5c-1.1,0-2.4-0.2-3.5-0.4c-0.5-0.1-1.1,0.2-1.2,0.8c-2.3,8.1-5.7,16-8.7,20.7
		c-0.3,0.5-1,0.7-1.5,0.3l-2.2-1.6c-0.5-0.3-0.6-1-0.3-1.5c4.2-6.8,8-17.4,9.3-25.2c0.1-0.5,0.5-0.9,1-0.9l3-0.2
		c0.7,0,1.2,0.6,1.1,1.3l0,0.1c-0.1,0.6,0.3,1.2,0.9,1.3c2.7,0.4,6.6,0.4,9.3,0.3c0.8,0,1.3,0.8,1,1.5c-2.2,5.8-5.1,13.8-4.9,16.9
		c0.1,1.4,0.7,2.2,1.8,2.1c2.1-0.1,5.4-4.4,7.9-9.1c0-0.1,0.1-0.2,0.1-0.3c0.8-3.7,2.1-7.9,3.3-12.1l0.1-0.3
		c0.1-0.4,0.5-0.7,0.9-0.8l3.6-0.2c0.7,0,1.3,0.7,1.1,1.4c-0.2,0.6-0.4,1.2-0.5,1.8c-3.1,10.3-5.8,18.9-2.2,18.7
		c2.3-0.1,5.6-4.1,8.4-9.6c0-0.1,0.1-0.2,0.1-0.3c0.1-0.7,0.3-1.5,0.5-2.3c1.6-6.6,3.5-13.1,5.4-19.6c0.6-2,1.2-4,1.7-6
		c0.1-0.4,0.5-0.8,1-0.8l3.7-0.2c0.7,0,1.3,0.7,1.1,1.4c-1.5,4.6-3,9.4-4.4,14.1c-0.3,1,0.8,1.8,1.6,1.2c1.4-1,3.1-1.6,4.7-1.7
		c4.1-0.2,6.9,3.1,7.2,8.2c0,0.3,0,0.6,0,0.9c0,0.6,0.4,1,1,1.1c1.9,0.2,3.9-0.4,5.4-1.8c0.2-0.1,0.3-0.3,0.3-0.5
		c1.5-5.9,3.2-11.7,4.9-17.6c0.6-2,1.1-4,1.7-6c0.1-0.4,0.5-0.8,1-0.8l3.7-0.2c0.7,0,1.3,0.7,1.1,1.4c-1.5,4.6-3,9.4-4.4,14.1
		c-0.3,1,0.8,1.8,1.6,1.2c1.4-1,3.1-1.6,4.7-1.7c4.1-0.2,6.9,3.1,7.2,8.2c0,0.3,0,0.6,0,0.9c0,0.6,0.4,1,1,1.1
		c1.9,0.2,3.9-0.4,5.4-1.8c0.2-0.1,0.3-0.3,0.3-0.5c1.5-5.9,3.2-11.7,4.9-17.6c0.6-2,1.1-4,1.7-6c0.1-0.4,0.5-0.8,1-0.8l3.7-0.2
		c0.7,0,1.3,0.7,1.1,1.4c-1.5,4.6-3,9.4-4.4,14.1c-0.3,1,0.8,1.8,1.6,1.2c1.4-1,3.1-1.6,4.7-1.7c4.1-0.2,6.9,3.1,7.2,8.2
		c0,0.3,0,0.6,0,0.9c0,0.6,0.4,1,1,1.1c1.9,0.2,3.8-0.4,5.3-1.6c0.2-0.1,0.3-0.3,0.3-0.6c1.7-6.6,4.3-15.4,6.7-23.7
		c0.1-0.4,0.5-0.7,0.9-0.8l3.6-0.2c0.7,0,1.3,0.7,1.1,1.4c-3.4,11.2-6.1,20.9-7.6,26.7c-2,7.8-2.1,10.1,0.2,9.9
		c1.9-0.1,4.5-2.8,6.9-6.9c0.1-0.2,0.1-0.3,0.2-0.5c0.3-8.2,5.4-15.7,12.9-16.1c5-0.3,7.8,3.5,8,7.2c0.4,7.1-6.7,11.7-13.5,11.3
		c-0.8-0.1-1.4,0.8-1,1.5c1,2,3,3.2,6.4,3C201,37.3,204.5,34.4,206.6,31.9z M93.8,33.9c-1.6,6.5,0.3,9,2.9,8.9
		c4.2-0.2,8.2-7.9,7.9-13.8c-0.1-2.6-1.6-3.9-3.4-3.8C98.2,25.4,95.1,28.7,93.8,33.9z M121.8,32.3c-1.6,6.5,0.3,9,2.9,8.9h0
		c4.2-0.2,8.2-7.9,7.9-13.8c-0.1-2.6-1.6-3.9-3.4-3.8C126.3,23.8,123.1,27.1,121.8,32.3z M149.9,30.7c-1.6,6.5,0.3,9,2.9,8.9h0
		c4.2-0.2,8.2-7.9,7.9-13.8c-0.1-2.6-1.6-3.9-3.4-3.8C154.3,22.2,151.2,25.5,149.9,30.7z M200.6,22.2c0-1.7-1.1-2.9-2.8-2.8h0
		c-3.3,0.2-5.9,3.8-6.8,8.2c-0.1,0.7,0.4,1.3,1.1,1.3C196.4,28.8,200.7,25.9,200.6,22.2z M44.4,25.4c-0.4-13.2-9-21.9-21.7-21.4
		C17.2,4.2,11,6.3,6.3,9.9c-0.4,0.3-0.6,1-0.3,1.5l2,3.2c0.3,0.6,1.1,0.7,1.6,0.3c3.6-3,8.4-4.9,13.1-5.1
		c8.7-0.4,15.1,5.2,15.4,15.9c0.5,12.5-7.9,26.8-21.4,27.6c-0.5,0-1,0-1.5,0c-0.7,0-1.2-0.7-1-1.4c2.6-10.5,5.6-21.8,8.7-32.3
		c0.2-0.7-0.3-1.5-1.1-1.4L18,18.5c-0.4,0-0.8,0.3-1,0.8c-3,10.3-6,21.5-8.6,32c-0.2,0.6-0.8,1-1.3,0.8c-1.4-0.5-2.7-1-3.8-1.7
		c-0.5-0.3-1.2-0.1-1.5,0.5l-1.7,3.5c-0.3,0.5-0.1,1.2,0.4,1.4c3.8,2.2,9.7,3.4,15.6,3.1C35.4,57.8,44.9,40,44.4,25.4L44.4,25.4z
		 M82.3,9.2C80,9.3,77.9,12,78,14.7c0.1,1.8,1.3,3.1,3.1,3c2.3-0.1,4.5-2.9,4.4-5.6C85.4,10.3,84,9.1,82.3,9.2z">
  </path>
 </g>
</svg>