<svg xmlns="http://www.w3.org/2000/svg"  viewBox="0 0 48 48" width="48px" height="48px" clip-rule="evenodd"><circle cx="24" cy="24" r="19.375" fill="#ed3675"/><path fill="#bd1949" fill-rule="evenodd" d="M24,4C12.959,4,4,12.959,4,24c0,11.041,8.959,20,20,20	c11.02,0,20-8.959,20-20C44,12.959,35.02,4,24,4z M37.21,13.219c2.386,2.907,3.818,6.616,3.861,10.629	c-0.564-0.108-6.204-1.258-11.887-0.542c-0.13-0.282-0.239-0.586-0.369-0.889c-0.347-0.824-0.738-1.67-1.128-2.473	C33.978,17.384,36.842,13.696,37.21,13.219z M24,6.95c4.338,0,8.308,1.627,11.323,4.295c-0.304,0.434-2.885,3.883-8.959,6.16	c-2.798-5.141-5.9-9.349-6.377-10C21.267,7.102,22.612,6.95,24,6.95z M16.733,8.555c0.455,0.607,3.492,4.837,6.334,9.87	c-7.983,2.126-15.033,2.083-15.792,2.083C8.382,15.215,11.961,10.811,16.733,8.555z M6.907,24.022c0-0.174,0-0.347,0-0.521	c0.738,0.022,9.024,0.13,17.549-2.43c0.499,0.954,0.954,1.931,1.388,2.907c-0.217,0.065-0.456,0.13-0.672,0.195	c-8.807,2.842-13.492,10.607-13.883,11.258C8.577,32.417,6.907,28.403,6.907,24.022z M24,41.093c-3.948,0-7.592-1.345-10.477-3.601	c0.304-0.629,3.774-7.31,13.406-10.672c0.043-0.022,0.065-0.022,0.109-0.043c2.408,6.226,3.384,11.453,3.644,12.95	C28.62,40.616,26.364,41.093,24,41.093z M33.523,38.165c-0.174-1.041-1.085-6.03-3.319-12.169	c5.358-0.846,10.043,0.542,10.629,0.738C40.096,31.484,37.362,35.583,33.523,38.165z" clip-rule="evenodd"/></svg>