<svg version="1.1" id="svg2" xmlns:svg="http://www.w3.org/2000/svg" xmlns:cc="http://creativecommons.org/ns#" xmlns:dc="http://purl.org/dc/elements/1.1/" xmlns:rdf="http://www.w3.org/1999/02/22-rdf-syntax-ns#" xmlns="http://www.w3.org/2000/svg" xmlns:xlink="http://www.w3.org/1999/xlink" x="0px" y="0px" viewBox="18.5 18.2 162.9 163.7" enable-background="new 18.5 18.2 162.9 163.7" xml:space="preserve">
 <path id="path3022" fill="#FFFFFF" d="M71,70.9l49.6-49.6c3.7-3.7,7.9-4.4,12.4,0l46.1,46.1c3.3,3.3,3,8.3,0,11.3L78.8,178.9
	c-3.6,3.6-8.3,4.2-12.5,0l-45.1-45.1c-3.6-3.6-3.3-9.3,0-12.6L71,70.9z">
 </path>
 <path id="path3000" fill="#006491" d="M71.8,76l51.9,51.9l-47.2,47.2c-2.9,2.9-5.9,3-8.9,0l-43.2-43.2c-2.7-2.7-2.5-5.7,0-8.2
	L71.8,76z">
 </path>
 <path id="path3002" fill="#E31837" d="M127,124.8L75.1,72.9l47.2-47.2c2.9-2.9,5.9-3,8.9,0l43.2,43.2c2.7,2.7,2.5,5.7,0,8.2
	L127,124.8z">
 </path>
 <circle fill="#FFFFFF" cx="126.7" cy="73" r="12.8">
 </circle>
 <circle fill="#FFFFFF" cx="90.8" cy="127.9" r="12.8">
 </circle>
 <circle fill="#FFFFFF" cx="53.4" cy="127.9" r="12.8">
 </circle>
</svg>