<svg version="1.1" id="Layer_1" xmlns="http://www.w3.org/2000/svg" xmlns:xlink="http://www.w3.org/1999/xlink" x="0px" y="0px" viewBox="0 0 321.9 173.9" style="enable-background:new 0 0 321.9 173.9;" xml:space="preserve">
 <style type="text/css">
  .st0{fill:#00006C;}
 </style>
 <g>
  <path class="st0" d="M249.8,173.9H72.4L0,87.3L72.4,0h177.5l72.1,87.5L249.8,173.9z M76.3,165.1h169.6l64.7-77.6L245.9,8.9H76.3
		l-65,78.4L76.3,165.1z">
  </path>
  <g>
   <path class="st0" d="M76.2,116.4V86h7.2c1.9,0,3.4,0.5,4.4,1.6c1,1,1.6,2.8,1.8,5.2l2.5,23.7h9.8l-2.7-24.6c-0.3-2.9-1-5.2-2-6.8
			c-1-1.6-2.4-2.7-4.1-3.3c2.8-1.4,4.9-3.3,6.5-5.7c1.6-2.4,2.4-5.8,2.4-10.1c0-5.5-1.5-9.9-4.5-13.1c-3-3.2-7.1-4.8-12.3-4.8H66.2
			v68.2H76.2z M76.2,77V57.1h8.2c2.4,0,4.3,0.8,5.7,2.4c1.3,1.6,2,4.1,2,7.5c0,3.4-0.7,5.9-2,7.5c-1.3,1.6-3.2,2.4-5.7,2.4H76.2z
			 M125.2,117.6c3.4,0,6.5-0.8,9.2-2.5c2.7-1.7,4.7-4.1,6.2-7.2c1.5-3.1,2.2-6.8,2.2-10.9v-9.4c0-4.2-0.7-7.8-2.2-10.9
			c-1.5-3.1-3.5-5.5-6.2-7.2c-2.7-1.7-5.7-2.5-9.2-2.5c-3.4,0-6.5,0.8-9.2,2.5c-2.7,1.7-4.7,4.1-6.2,7.2c-1.5,3.1-2.2,6.8-2.2,10.9
			v9.4c0,4.2,0.7,7.8,2.2,10.9c1.5,3.1,3.5,5.5,6.2,7.2C118.7,116.7,121.8,117.6,125.2,117.6 M125.2,108.7c-2.5,0-4.5-1-6-3
			c-1.5-2-2.3-4.8-2.3-8.4V87.1c0-3.6,0.7-6.4,2.3-8.3c1.5-2,3.5-3,6-3c2.5,0,4.5,1,6,3c1.5,2,2.3,4.8,2.3,8.3v10.2
			c0,3.6-0.7,6.4-2.3,8.4C129.7,107.7,127.7,108.7,125.2,108.7 M168,117.6c4.8,0,8.5-1.4,11.3-4.1c2.8-2.8,4.6-6.6,5.5-11.7l-8.5-2
			c-0.5,2.9-1.5,5.1-2.8,6.6c-1.4,1.6-3.2,2.3-5.4,2.3c-2.5,0-4.5-1-6.1-2.9c-1.5-1.9-2.3-4.7-2.3-8.4V87.1c0-3.6,0.8-6.4,2.3-8.3
			c1.5-2,3.6-3,6.1-3c4.5,0,7.3,3,8.4,9l8.5-2.1c-0.7-5-2.4-8.9-5.3-11.6c-2.8-2.8-6.7-4.1-11.6-4.1c-5.3,0-9.6,1.9-12.8,5.6
			c-3.2,3.7-4.8,8.8-4.8,15.2v9.1c0,6.4,1.6,11.4,4.8,15.2C158.4,115.7,162.7,117.6,168,117.6 M201.2,116.4V84.2
			c0-2.7,0.7-4.8,2.2-6.3c1.4-1.6,3.3-2.3,5.4-2.3c2.2,0,4,0.8,5.4,2.3c1.4,1.6,2.2,3.7,2.2,6.3v32.3h9v-34c0-4.9-1.2-8.7-3.7-11.4
			c-2.4-2.7-5.8-4.1-10-4.1c-2.3,0-4.4,0.5-6.4,1.5c-1.9,1-3.4,2.2-4.2,3.7V48.2h-9v68.2H201.2z M266.4,87.3c0-6.4-1.5-11.4-4.6-15
			c-3-3.6-7.1-5.4-12.3-5.4c-3.3,0-6.3,0.8-8.9,2.5c-2.6,1.7-4.6,4.1-6.1,7.2c-1.5,3.1-2.2,6.8-2.2,11v9.1c0,6.4,1.6,11.4,4.7,15.2
			c3.1,3.8,7.3,5.7,12.6,5.7c4.6,0,8.2-1.3,10.9-4c2.7-2.7,4.5-6.2,5.3-10.6l-8.3-1.9c-0.5,2.6-1.4,4.6-2.7,6.1
			c-1.3,1.5-3,2.2-5.2,2.2c-2.3,0-4.2-1-5.7-3c-1.5-2-2.3-4.8-2.3-8.4V94h24.7V87.3z M249.6,75c2.5,0,4.5,1,5.9,3
			c1.4,2,2.2,4.6,2.2,8v1.5h-16v-1.1c0-3.5,0.7-6.3,2.1-8.3C245.2,76,247.1,75,249.6,75">
   </path>
  </g>
 </g>
</svg>