<svg width="237px" height="299px" viewBox="0 0 237 299" version="1.1" xmlns="http://www.w3.org/2000/svg" xmlns:xlink="http://www.w3.org/1999/xlink">
 <!-- Generator: Sketch 64 (93537) - https://sketch.com -->
 <title>
  lockup-vert-color
 </title>
 <desc>
  Created with Sketch.
 </desc>
 <g id="Logos" stroke="none" stroke-width="1" fill="none" fill-rule="evenodd">
  <g id="lockup-vert-color" transform="translate(-138.000000, -106.000000)" fill="#5F5CFF" fill-rule="nonzero">
   <g transform="translate(138.000000, 106.000000)">
    <path d="M119.830764,0 L176.842105,56.9803753 L175.795895,58.304 L176.842105,59.1440086 L165.715895,72.368 L119.549641,195.536842 L91.4917096,107.823258 L91.3788947,107.619 L90.4421053,107.385556 L90.6878947,106.363 L63.1578947,56.2913199 L119.830764,0 Z M121.012895,11.52 L98.3758947,105.353 L117.725895,165.847 L117.726316,118.063869 L159.306895,68.642 L160.203266,66.2510445 L167.072344,57.5539546 L121.012895,11.52 Z M151.637895,89.1 L125.098077,120.64542 L125.097895,159.906 L151.637895,89.1 Z M111.981895,18.101 L72.2186798,57.5976554 L93.2328947,95.817 L111.981895,18.101 Z" id="polyLogo">
    </path>
    <g id="polygon.io" transform="translate(0.000000, 252.631579)">
     <path d="M6.16223913,45.3271153 L6.16223913,35.3570953 L5.78591918,31.8554297 L6.16223913,31.8554297 C6.78943904,32.9253831 7.73807891,33.8170109 9.00815873,34.5303131 C10.2782385,35.2436154 11.7286383,35.6002665 13.3593581,35.6002665 C15.5231978,35.6002665 17.4910375,35.0409727 19.2628773,33.9223851 C21.034717,32.8037975 22.4223968,31.2475017 23.4259167,29.2534977 C24.4294365,27.2594937 24.9311965,24.9817899 24.9311965,22.4203864 C24.9311965,19.8914057 24.4294365,17.6218077 23.4259167,15.6115923 C22.4223968,13.6013769 21.034717,12.0369753 19.2628773,10.9183877 C17.4910375,9.79980013 15.5231978,9.24050633 13.3593581,9.24050633 C11.7286383,9.24050633 10.2860785,9.60526316 9.03167872,10.3347768 C7.7772789,11.0642905 6.82079904,11.964024 6.16223913,13.0339773 L6.16223913,13.0339773 L5.78591918,13.0339773 L5.78591918,10.0186542 L0,10.0186542 L0,45.3271153 L6.16223913,45.3271153 Z M12.2774383,29.715523 C11.1484784,29.715523 10.0822386,29.4075061 9.07871872,28.7914724 C8.07519886,28.1754386 7.27551897,27.3162336 6.67967906,26.2138574 C6.08383914,25.1114812 5.78591918,23.8469909 5.78591918,22.4203864 C5.78591918,20.9937819 6.08383914,19.7292916 6.67967906,18.6269154 C7.27551897,17.5245392 8.07519886,16.6734399 9.07871872,16.0736176 C10.0822386,15.4737952 11.1484784,15.1738841 12.2774383,15.1738841 C13.4377581,15.1738841 14.5196779,15.4737952 15.5231978,16.0736176 C16.5267177,16.6734399 17.3263975,17.5245392 17.9222375,18.6269154 C18.5180774,19.7292916 18.8159973,20.9937819 18.8159973,22.4203864 C18.8159973,23.8469909 18.5180774,25.1114812 17.9222375,26.2138574 C17.3263975,27.3162336 16.5267177,28.1754386 15.5231978,28.7914724 C14.5196779,29.4075061 13.4377581,29.715523 12.2774383,29.715523 Z M41.1599942,35.6002665 C43.6060738,35.6002665 45.8012735,35.0247613 47.7455932,33.8737508 C49.689913,32.7227404 51.2030328,31.1502332 52.2849526,29.1562292 C53.3668725,27.1622252 53.9078324,24.9169443 53.9078324,22.4203864 C53.9078324,19.9562514 53.3668725,17.7190762 52.2849526,15.7088608 C51.2030328,13.6986453 49.689913,12.1180324 47.7455932,10.967022 C45.8012735,9.81601155 43.6060738,9.24050633 41.1599942,9.24050633 C38.6825545,9.24050633 36.4716748,9.81601155 34.5273551,10.967022 C32.5830354,12.1180324 31.0699156,13.6986453 29.9879958,15.7088608 C28.9060759,17.7190762 28.365116,19.9562514 28.365116,22.4203864 C28.365116,24.9169443 28.9060759,27.1622252 29.9879958,29.1562292 C31.0699156,31.1502332 32.5830354,32.7227404 34.5273551,33.8737508 C36.4716748,35.0247613 38.6825545,35.6002665 41.1599942,35.6002665 Z M41.1599942,29.715523 C39.9683143,29.715523 38.8707145,29.4237175 37.8671946,28.8401066 C36.8636748,28.2564957 36.0561549,27.4053964 35.444635,26.2868088 C34.8331151,25.1682212 34.5273551,23.8794137 34.5273551,22.4203864 C34.5273551,20.9613591 34.8331151,19.6806573 35.444635,18.5782811 C36.0561549,17.475905 36.8636748,16.6329114 37.8671946,16.0493005 C38.8707145,15.4656895 39.9683143,15.1738841 41.1599942,15.1738841 C42.351674,15.1738841 43.4492739,15.4656895 44.4527937,16.0493005 C45.4563136,16.6329114 46.2559935,17.475905 46.8518334,18.5782811 C47.4476733,19.6806573 47.7455932,20.9613591 47.7455932,22.4203864 C47.7455932,23.9118366 47.4476733,25.2087497 46.8518334,26.3111259 C46.2559935,27.4135021 45.4563136,28.2564957 44.4527937,28.8401066 C43.4492739,29.4237175 42.351674,29.715523 41.1599942,29.715523 Z M64.7740708,34.8221186 L64.7740708,0 L58.6118317,0 L58.6118317,34.8221186 L64.7740708,34.8221186 Z M79.8268687,45.3271153 L94.6444666,10.0186542 L87.7766276,10.0186542 L81.8025484,25.4357095 L81.4262285,25.4357095 L75.2169494,10.0186542 L68.2079904,10.0186542 L78.3215889,33.6548967 L73.1942296,45.3271153 L79.8268687,45.3271153 Z M109.085745,46.1052632 C111.563184,46.1052632 113.727024,45.5783922 115.577264,44.5246502 C117.427503,43.4709083 118.854383,41.9713524 119.857903,40.0259827 C120.861423,38.0806129 121.363183,35.778592 121.363183,33.1199201 L121.363183,33.1199201 L121.363183,10.0186542 L115.436144,10.0186542 L115.436144,12.6449034 L115.059824,12.6449034 C114.307184,11.5425272 113.319344,10.6995336 112.096304,10.1159227 C110.873264,9.53231179 109.477745,9.24050633 107.909745,9.24050633 C105.934065,9.24050633 104.091665,9.7673773 102.382546,10.8211193 C100.673426,11.8748612 99.301426,13.3663113 98.2665461,15.2954697 C97.2316663,17.224628 96.7142263,19.4699089 96.7142263,22.0313125 C96.7142263,24.592716 97.2316663,26.8379969 98.2665461,28.7671552 C99.301426,30.6963136 100.673426,32.1877637 102.382546,33.2415057 C104.091665,34.2952476 105.934065,34.8221186 107.909745,34.8221186 C109.477745,34.8221186 110.873264,34.5303131 112.096304,33.9467022 C113.319344,33.3630913 114.307184,32.5200977 115.059824,31.4177215 L115.059824,31.4177215 L115.436144,31.4177215 L115.436144,33.3630913 C115.436144,35.6326893 114.863824,37.3835221 113.719184,38.6155896 C112.574544,39.8476571 111.030064,40.4636909 109.085745,40.4636909 C107.768625,40.4636909 106.592625,40.1070398 105.557745,39.3937375 C104.522865,38.6804353 103.754545,37.7077504 103.252785,36.4756829 L103.252785,36.4756829 L97.4668662,38.9073951 C98.1567861,40.8851877 99.5052659,42.5792805 101.512306,43.9896736 C103.519345,45.4000666 106.043825,46.1052632 109.085745,46.1052632 Z M109.179825,29.0346436 C107.423665,29.0346436 105.934065,28.4186098 104.711025,27.1865423 C103.487985,25.9544748 102.876465,24.2360648 102.876465,22.0313125 C102.876465,19.8265601 103.487985,18.1081501 104.711025,16.8760826 C105.934065,15.6440151 107.423665,15.0279813 109.179825,15.0279813 C110.935984,15.0279813 112.417744,15.6359094 113.625104,16.8517655 C114.832464,18.0676216 115.436144,19.7941372 115.436144,22.0313125 C115.436144,24.203642 114.824624,25.9139463 113.601584,27.1622252 C112.378544,28.4105041 110.904624,29.0346436 109.179825,29.0346436 Z M138.86206,35.6002665 C141.30814,35.6002665 143.50334,35.0247613 145.447659,33.8737508 C147.391979,32.7227404 148.905099,31.1502332 149.987019,29.1562292 C151.068939,27.1622252 151.609899,24.9169443 151.609899,22.4203864 C151.609899,19.9562514 151.068939,17.7190762 149.987019,15.7088608 C148.905099,13.6986453 147.391979,12.1180324 145.447659,10.967022 C143.50334,9.81601155 141.30814,9.24050633 138.86206,9.24050633 C136.384621,9.24050633 134.173741,9.81601155 132.229421,10.967022 C130.285102,12.1180324 128.771982,13.6986453 127.690062,15.7088608 C126.608142,17.7190762 126.067182,19.9562514 126.067182,22.4203864 C126.067182,24.9169443 126.608142,27.1622252 127.690062,29.1562292 C128.771982,31.1502332 130.285102,32.7227404 132.229421,33.8737508 C134.173741,35.0247613 136.384621,35.6002665 138.86206,35.6002665 Z M138.86206,29.715523 C137.670381,29.715523 136.572781,29.4237175 135.569261,28.8401066 C134.565741,28.2564957 133.758221,27.4053964 133.146701,26.2868088 C132.535181,25.1682212 132.229421,23.8794137 132.229421,22.4203864 C132.229421,20.9613591 132.535181,19.6806573 133.146701,18.5782811 C133.758221,17.475905 134.565741,16.6329114 135.569261,16.0493005 C136.572781,15.4656895 137.670381,15.1738841 138.86206,15.1738841 C140.05374,15.1738841 141.15134,15.4656895 142.15486,16.0493005 C143.15838,16.6329114 143.95806,17.475905 144.5539,18.5782811 C145.149739,19.6806573 145.447659,20.9613591 145.447659,22.4203864 C145.447659,23.9118366 145.149739,25.2087497 144.5539,26.3111259 C143.95806,27.4135021 143.15838,28.2564957 142.15486,28.8401066 C141.15134,29.4237175 140.05374,29.715523 138.86206,29.715523 Z M162.476137,34.8221186 L162.476137,22.1772152 C162.476137,20.1669998 162.985737,18.4972241 164.004937,17.1678881 C165.024137,15.8385521 166.364776,15.1738841 168.026856,15.1738841 C169.438056,15.1738841 170.535656,15.6115923 171.319656,16.4870087 C172.103656,17.362425 172.495656,18.5944926 172.495656,20.1832112 L172.495656,20.1832112 L172.495656,34.8221186 L178.657895,34.8221186 L178.657895,19.4050633 C178.657895,16.2600489 177.905255,13.7797024 176.399975,11.964024 C174.894695,10.1483455 172.699496,9.24050633 169.814376,9.24050633 C168.277736,9.24050633 166.850856,9.58905174 165.533737,10.2861426 C164.216617,10.9832334 163.197417,11.9316012 162.476137,13.1312458 L162.476137,13.1312458 L162.099817,13.1312458 L162.099817,10.0186542 L156.313898,10.0186542 L156.313898,34.8221186 L162.476137,34.8221186 Z" id="polygon">
     </path>
     <path d="M188.580087,34.1185087 C189.727407,34.1185087 190.70741,33.7271357 191.520095,32.9443899 C192.33278,32.1616441 192.739122,31.2177448 192.739122,30.1126918 C192.739122,29.0076389 192.33278,28.0714136 191.520095,27.3040157 C190.70741,26.5366178 189.727407,26.1529189 188.580087,26.1529189 C187.432767,26.1529189 186.452765,26.5366178 185.64008,27.3040157 C184.827395,28.0714136 184.421053,29.0076389 184.421053,30.1126918 C184.421053,31.2177448 184.827395,32.1616441 185.64008,32.9443899 C186.452765,33.7271357 187.432767,34.1185087 188.580087,34.1185087 Z M202.013291,7.78141425 C203.128741,7.78141425 204.076874,7.39771533 204.857689,6.63031747 C205.638504,5.86291962 206.028911,4.94204219 206.028911,3.86768519 C206.028911,2.79332819 205.638504,1.88012475 204.857689,1.12807485 C204.076874,0.376024949 203.128741,0 202.013291,0 C200.897841,0 199.941741,0.376024949 199.144992,1.12807485 C198.348242,1.88012475 197.949867,2.79332819 197.949867,3.86768519 C197.949867,4.94204219 198.348242,5.86291962 199.144992,6.63031747 C199.941741,7.39771533 200.897841,7.78141425 202.013291,7.78141425 Z M205.120616,33.8422454 L205.120616,10.359871 L198.858162,10.359871 L198.858162,33.8422454 L205.120616,33.8422454 Z M223.33432,34.5789474 C225.820179,34.5789474 228.051079,34.0340949 230.027019,32.9443899 C232.002959,31.854685 233.540686,30.3659331 234.640201,28.4781344 C235.739716,26.5903357 236.289474,24.4646436 236.289474,22.1010582 C236.289474,19.7681688 235.739716,17.6501507 234.640201,15.747004 C233.540686,13.8438573 232.002959,12.3474315 230.027019,11.2577265 C228.051079,10.1680216 225.820179,9.62316911 223.33432,9.62316911 C220.81659,9.62316911 218.569755,10.1680216 216.593815,11.2577265 C214.617875,12.3474315 213.080148,13.8438573 211.980633,15.747004 C210.881118,17.6501507 210.331361,19.7681688 210.331361,22.1010582 C210.331361,24.4646436 210.881118,26.5903357 211.980633,28.4781344 C213.080148,30.3659331 214.617875,31.854685 216.593815,32.9443899 C218.569755,34.0340949 220.81659,34.5789474 223.33432,34.5789474 Z M223.33432,29.0076389 C222.12326,29.0076389 221.00781,28.7313757 219.98797,28.1788493 C218.96813,27.6263228 218.147478,26.820555 217.526013,25.761546 C216.904548,24.702537 216.593815,23.4823744 216.593815,22.1010582 C216.593815,20.7197421 216.904548,19.5072535 217.526013,18.4635924 C218.147478,17.4199313 218.96813,16.6218375 219.98797,16.0693111 C221.00781,15.5167846 222.12326,15.2405214 223.33432,15.2405214 C224.54538,15.2405214 225.660829,15.5167846 226.680669,16.0693111 C227.700509,16.6218375 228.513194,17.4199313 229.118724,18.4635924 C229.724254,19.5072535 230.027019,20.7197421 230.027019,22.1010582 C230.027019,23.5130703 229.724254,24.7409069 229.118724,25.7845679 C228.513194,26.828229 227.700509,27.6263228 226.680669,28.1788493 C225.660829,28.7313757 224.54538,29.0076389 223.33432,29.0076389 Z" id=".io">
     </path>
    </g>
   </g>
  </g>
 </g>
</svg>