<svg version="1.1" id="Layer_1" xmlns:x="ns_extend;" xmlns:i="ns_ai;" xmlns:graph="ns_graphs;" xmlns="http://www.w3.org/2000/svg" xmlns:xlink="http://www.w3.org/1999/xlink" x="0px" y="0px" viewBox="0 0 145.2 55" style="enable-background:new 0 0 145.2 55;" xml:space="preserve">
 <metadata>
  <sfw xmlns="ns_sfw;">
   <slices>
   </slices>
   <sliceSourceBounds bottomLeftOrigin="true" height="55" width="145.2" x="-93.9" y="6.4">
   </sliceSourceBounds>
  </sfw>
 </metadata>
 <g>
  <path d="M117.8,27.3l13.8,25.9h13.6L117.8,1.9L90.5,53.1H104L117.8,27.3z">
  </path>
  <path d="M72.9,41.1l0-39.3H61v51.3h23.1l6.4-12H72.9z">
  </path>
  <path d="M27.4,0C22,0,16.7,1.6,12.2,4.6c-4.5,3-8,7.3-10.1,12.3C0,22-0.5,27.5,0.5,32.8C1.6,38.2,4.2,43.1,8,46.9
		c3.8,3.8,8.7,6.5,14,7.5c5.3,1.1,10.8,0.5,15.8-1.6c5-2.1,9.3-5.6,12.3-10.1c3-4.5,4.6-9.8,4.6-15.3c0-7.3-2.9-14.3-8-19.4
		C41.6,2.9,34.6,0,27.4,0z M27.4,42.3c-2.9,0-5.8-0.9-8.2-2.5c-2.4-1.6-4.3-3.9-5.4-6.6c-1.1-2.7-1.4-5.7-0.9-8.6
		c0.6-2.9,2-5.5,4-7.6c2.1-2.1,4.7-3.5,7.5-4.1c2.9-0.6,5.8-0.3,8.5,0.8c2.7,1.1,5,3,6.6,5.5c1.6,2.4,2.5,5.3,2.5,8.2
		c0,3.9-1.6,7.7-4.3,10.5C35,40.8,31.2,42.3,27.4,42.3L27.4,42.3z">
  </path>
 </g>
</svg>