<svg version="1.1" id="Layer_1" xmlns:x="ns_extend;" xmlns:i="ns_ai;" xmlns:graph="ns_graphs;" xmlns="http://www.w3.org/2000/svg" xmlns:xlink="http://www.w3.org/1999/xlink" x="0px" y="0px" viewBox="0 0 237.5 72" style="enable-background:new 0 0 237.5 72;" xml:space="preserve">
 <style type="text/css">
  .st0{fill:#A6A8AB;}
	.st1{fill:#A5CD39;}
 </style>
 <metadata>
  <sfw xmlns="ns_sfw;">
   <slices>
   </slices>
   <sliceSourceBounds bottomLeftOrigin="true" height="72" width="237.5" x="-8.2" y="-2.5">
   </sliceSourceBounds>
  </sfw>
 </metadata>
 <g>
  <path class="st0" d="M28.9,16.1C46.7,16.1,58,29,58,44.1C58,58.8,47.2,72,28.9,72C11.2,72.2,0,59,0,44.2C0,29,11.5,16.1,28.9,16.1z
		 M28.9,65.1c12,0,21.1-8.8,21.1-20.8c0-12-8.9-20.8-21.1-20.8C16.9,23.4,8,32.2,8,44.2C8,56.1,16.9,65.1,28.9,65.1z M81.3,17.2
		c10.9,0,17.8,5.8,17.8,15c0,6.2-3.2,10.8-9.1,13.2c4.9,3.2,7.9,8.2,12.1,14.9c2.4,3.7,3.7,5.5,7.4,10.7h-9.3l-7.2-11
		c-7.2-11-10.4-12.3-14.5-12.3h-3.2v23.4h-7.7V17.2H81.3z M75.4,40.6h5c8.4,0,10.8-4.3,10.6-8.7c0-5-3-8.2-10.6-8.2h-5.1L75.4,40.6
		L75.4,40.6z M157.5,29.1c-6.6-3.9-12.3-5.7-18.4-5.7c-12.3,0-21.4,8.8-21.4,20.8c0,12.2,8.8,20.6,21.6,20.6c6,0,12.6-2.2,18.8-6.1
		v8.6c-5.3,2.9-11,4.7-19.4,4.7c-20.1,0-28.9-15.7-28.9-27.2c0-16.5,12.3-28.7,29.4-28.7c5.5,0,11.1,1.4,18.4,4.4L157.5,29.1
		L157.5,29.1z">
  </path>
  <path class="st1" d="M188.1,17.2h20.8c19.8,0,28.6,14.2,28.6,26.9c0,13.8-10.8,26.9-28.5,26.9h-21V17.2z M195.7,63.9H208
		c17.5,0,21.5-13.3,21.5-20c0-10.8-6.8-20-21.8-20h-11.8v40L195.7,63.9L195.7,63.9z">
  </path>
  <g>
   <path class="st1" d="M176.4,70.9h-7.8V16.5h7.8v30.2V70.9z M177.5,5.1c0,2.9-2.4,5.1-5.1,5.1c-2.9,0-5.1-2.4-5.1-5.1
			c0-2.7,2.4-5.1,5.1-5.1C175.3,0,177.5,2.4,177.5,5.1z">
   </path>
  </g>
 </g>
</svg>