<svg version="1.1" id="Layer_1" xmlns:x="ns_extend;" xmlns:i="ns_ai;" xmlns:graph="ns_graphs;" xmlns="http://www.w3.org/2000/svg" xmlns:xlink="http://www.w3.org/1999/xlink" x="0px" y="0px" viewBox="0 0 1017.7 100" style="enable-background:new 0 0 1017.7 100;" xml:space="preserve">
 <style type="text/css">
  .st0{fill:#006241;}
 </style>
 <metadata>
  <sfw xmlns="ns_sfw;">
   <slices>
   </slices>
   <sliceSourceBounds bottomLeftOrigin="true" height="100" width="1017.7" x="-384.4" y="-242.8">
   </sliceSourceBounds>
  </sfw>
 </metadata>
 <g>
  <desc>
   Starbucks Wordmark
  </desc>
  <path class="st0" d="M652.4,54.3c0,29.7-16.6,45.6-47.6,45.6c-30.4,0-47.6-16.3-47.6-45.4V2h34.2v51c0,14.1,3.9,20.4,13.1,20.4
		s13.6-5.7,13.6-21.8V2h34.2L652.4,54.3z">
  </path>
  <polygon class="st0" points="161.7,26.3 161.7,98 127.1,98 127.1,26.3 98.2,26.3 98.2,2 190.6,2 190.6,26.3 	">
  </polygon>
  <path class="st0" d="M248.9,23.9l-8.5,32.9h17.3L248.9,23.9z M271.1,98l-5.8-17.6h-32.5L226.7,98h-34.5l35-96.1H271L305.5,98
		L271.1,98z">
  </path>
  <path class="st0" d="M763.4,90.5L753,65.6c-6.1,4.6-12.3,8.7-22.3,8.7c-13.6,0-22.6-11.2-22.6-24.8c0-13.8,7.9-25.3,22.1-25.3
		c8.9,0,16.7,4.4,22.9,9.4l10.2-24.3C751.4,3,738.1-0.1,724.7,0c-29,0-51.1,19.9-51.1,49.3c0,31,21.5,50.7,52.1,50.7
		C742.5,100,754.4,96.1,763.4,90.5z">
  </path>
  <polygon class="st0" points="841.1,98 819.5,63 819.5,98 785.9,98 785.9,2 819.5,2 819.5,37.1 839.7,2 877.3,2 845.7,49.3 
		881.3,98 	">
  </polygon>
  <path class="st0" d="M40.4,100c21.8,0,44.4-7.8,44.4-32.3c0-22.1-18.8-28.2-33.5-31.4c-11.1-2.4-16.4-3.5-16.4-7.9
		c0-5.9,7.5-6.3,11.5-6.3c10,0,19.3,4.1,27.2,8.9l9-21.9C70.7,4,56.6,0,43.3,0C20.7,0,3,10.9,3,32.9c0,18,13.7,24.9,28.7,28.7
		c10.5,2.5,17.1,3.3,17.1,8.5s-5.1,6.7-10.1,6.7c-10.2-0.1-20.1-3.8-27.9-10.3L0,87.6C12,95.5,26,99.8,40.4,100z">
  </path>
  <path class="st0" d="M932.2,100c21.8,0,44.4-7.8,44.4-32.3c0-22.1-18.8-28.2-33.6-31.4c-11.1-2.4-16.4-3.5-16.4-7.9
		c0-5.9,7.5-6.3,11.5-6.3c10,0,19.3,4.1,27.2,8.9l9-21.9c-11.8-5-25.9-9-39.2-9c-22.6,0-40.3,10.9-40.3,32.9
		c0,18,13.7,24.9,28.7,28.7c10.4,2.6,17.1,3.4,17.1,8.5c0,5.2-5.1,6.7-10.1,6.7c-10.2-0.2-20-3.8-27.9-10.3l-10.8,21.2
		C903.8,95.5,917.8,99.8,932.2,100z">
  </path>
  <path class="st0" d="M396.7,62.1c11.8-4.3,18.1-16.1,18.1-27.2c0-22.7-15.5-32.9-37.5-32.9h-51.8v96h33.3V69.5h8.4L384.5,98h35.9
		L396.7,62.1z M381.1,35.1c0,6.3-4,10-10.6,10h-11.8V24.9h11.9c6.3,0,10.4,3.2,10.4,9.8V35.1z">
  </path>
  <path class="st0" d="M513.4,48.9c12.5-2.7,18.6-9.7,18.6-21.5C532,11.1,519.8,2,498.2,2h-54.8V98H496c25.4,0,38.1-8.9,38.1-27
		C534.1,58.4,526.2,50,513.4,48.9z M476.4,22.8h12.1c6.4,0,10.5,2.8,10.5,8.4v0.2c0,5.4-4,8.5-10.6,8.5h-11.9V22.8z M499.5,68.2
		c0,5.7-4.1,8.9-10.9,8.9h-12.2v-18h12.3c6.5,0,10.8,2.9,10.8,8.8L499.5,68.2z">
  </path>
  <path class="st0" d="M1003.1,0c8.1,0,14.6,6.6,14.6,14.6c0,8.1-6.6,14.6-14.6,14.6c0,0,0,0,0,0c-8,0-14.6-6.4-14.6-14.5
		c0-0.1,0-0.1,0-0.2c-0.1-8,6.4-14.6,14.4-14.6C1003,0,1003,0,1003.1,0z M1003.1,27.2c6.7-0.1,12.1-5.6,12.1-12.3c0-0.1,0-0.2,0-0.2
		c0.2-6.7-5-12.2-11.7-12.4c-6.7-0.2-12.2,5-12.4,11.7c0,0.3,0,0.5,0,0.8c-0.2,6.7,5,12.3,11.7,12.5
		C1002.9,27.2,1003,27.2,1003.1,27.2z M997.5,6.1h6.5c4.1,0,6,1.6,6,4.9s-2,4.4-4.5,4.7l4.9,7.6h-2.8l-4.7-7.4h-2.7v7.3h-2.6
		L997.5,6.1z M1000.1,13.7h2.7c2.4,0,4.6-0.1,4.6-2.9c0-2.4-2.1-2.6-3.8-2.6h-3.4V13.7z">
  </path>
 </g>
</svg>