<?xml version="1.0" encoding="UTF-8"?>
<svg width="180px" height="72px" viewBox="0 0 180 72" version="1.1" xmlns="http://www.w3.org/2000/svg" xmlns:xlink="http://www.w3.org/1999/xlink">
    <!-- Generator: Sketch 57 (83077) - https://sketch.com -->
    <title>A Brand / Logos / alan-logo-horizontal-color</title>
    <desc>Created with Sketch.</desc>
    <defs>
        <linearGradient x1="63.9066032%" y1="30.1204183%" x2="34.7430855%" y2="69.8795817%" id="linearGradient-1">
            <stop stop-color="#47B0FF" offset="0%"></stop>
            <stop stop-color="#009DFF" offset="100%"></stop>
        </linearGradient>
        <linearGradient x1="30.5461988%" y1="69.695643%" x2="57.5382%" y2="30.304357%" id="linearGradient-2">
            <stop stop-color="#32BEFF" offset="0%"></stop>
            <stop stop-color="#5ECCFF" offset="100%"></stop>
        </linearGradient>
        <linearGradient x1="25.0938778%" y1="83.4411528%" x2="63.629194%" y2="16.5588472%" id="linearGradient-3">
            <stop stop-color="#1970E3" offset="0%"></stop>
            <stop stop-color="#115FC6" offset="100%"></stop>
        </linearGradient>
        <linearGradient x1="28.5756119%" y1="0%" x2="79.9231513%" y2="100%" id="linearGradient-4">
            <stop stop-color="#62BBFF" offset="0%"></stop>
            <stop stop-color="#009DFF" offset="100%"></stop>
        </linearGradient>
    </defs>
    <g id="A-Brand-/-Logos-/-alan-logo-horizontal-color" stroke="none" stroke-width="1" fill="none" fill-rule="evenodd">
        <g id="logo" transform="translate(16.000000, 18.000000)">
            <g>
                <path d="M17.4143578,0.00591153645 C17.3557387,0.00198691072 17.2967372,-6.03961325e-14 17.2374346,-6.03961325e-14 L16.2179837,-6.03961325e-14 L30.2145085,-6.03961325e-14 L31.5787095,-6.03961325e-14 L30.5592586,-6.03961325e-14 C30.499956,-6.03961325e-14 30.4409545,0.00198691072 30.3823354,0.00591153645 C31.1981241,0.0634989899 31.9305371,0.538095061 32.3081892,1.26564537 L47.869585,31.2448173 C47.9076346,31.3181203 47.9274834,31.3993564 47.9274834,31.4817814 C47.9274834,31.7679856 47.6932563,32 47.4043226,32 L36.721224,32 C35.9370796,32 35.2187376,31.565757 34.8601745,30.8749819 L23.8983466,9.75691969 L18.2704105,20.5991903 L22.6543294,20.5991903 C23.4401466,20.5991903 24.1597265,21.0352693 24.5175007,21.7283072 L29.0415098,30.4916839 C29.1169222,30.6377639 29.1562457,30.7994913 29.1562457,30.9635628 C29.1562457,31.5359712 28.6877916,32 28.1099242,32 L0.820999453,32 C0.387598887,32 0.036258309,31.6519784 0.036258309,31.2226721 C0.036258309,31.0990345 0.0660314168,30.9771804 0.123105895,30.8672259 L15.488504,1.26564537 C15.8661561,0.538095061 16.5985691,0.0634989899 17.4143578,0.00591153645 Z" id="bg" fill="#009DFF"></path>
                <path d="M18.2704105,20.5991903 L22.6543294,20.5991903 C23.4401466,20.5991903 24.1597265,21.0352693 24.5175007,21.7283072 L29.0415098,30.4916839 C29.1169222,30.6377639 29.1562457,30.7994913 29.1562457,30.9635628 C29.1562457,31.5359712 28.6877916,32 28.1099242,32 L11.0754692,32 C11.8596136,32 12.5779556,31.565757 12.9365187,30.8749819 L18.2704105,20.5991903 Z" id="shape" fill="url(#linearGradient-1)"></path>
                <path d="M18.2704105,20.5991903 L12.9365187,30.8749819 C12.5779556,31.565757 11.8596136,32 11.0754692,32 L0.890308908,32 C0.766081788,32 0.643629464,31.970786 0.533024649,31.914761 C0.14714925,31.7193024 -0.00570295669,31.2509931 0.191619691,30.868763 L4.83743029,21.8694468 C5.23992623,21.0897791 6.0494536,20.5991903 6.93349794,20.5991903 L18.2704105,20.5991903 L18.2704105,20.5991903 Z" id="shape" fill="url(#linearGradient-2)"></path>
                <path d="M18.2704105,20.5991903 L6.93349794,20.5991903 C6.0494536,20.5991903 5.23992623,21.0897791 4.83743029,21.8694468 L15.488504,1.26564537 C15.8918875,0.488523348 16.7000221,0 17.5821846,0 L31.5787095,0 L30.5592586,0 C29.5790781,0 28.6811507,0.542803719 28.2329468,1.40627263 L18.2704105,20.5991903 Z" id="shape" fill="url(#linearGradient-3)"></path>
                <path d="M19.5637464,1.40627263 C19.1155425,0.542803719 18.2176151,0 17.2374346,0 L16.2179837,0 L30.2145085,0 C31.0966711,0 31.9048057,0.488523348 32.3081892,1.26564537 L47.869585,31.2448173 C47.9076346,31.3181203 47.9274834,31.3993564 47.9274834,31.4817814 C47.9274834,31.7679856 47.6932563,32 47.4043226,32 L36.721224,32 C35.9370796,32 35.2187376,31.565757 34.8601745,30.8749819 L19.5637464,1.40627263 Z" id="shape" fill="url(#linearGradient-4)"></path>
            </g>
            <path d="M56.8648638,31.5833333 C56.6177586,31.5833333 56.4118407,31.5000008 56.2471039,31.3333333 C56.0823672,31.1666658 56,30.9583346 56,30.7083333 L56.082368,30.3333333 L65.9665252,3.45833333 C66.2410865,2.76388542 66.7352894,2.41666667 67.4491487,2.41666667 L71.9793874,2.41666667 C72.6932468,2.41666667 73.1874497,2.76388542 73.462011,3.45833333 L83.3461682,30.3333333 L83.4285362,30.7083333 C83.4285362,30.9583346 83.3393051,31.1666658 83.1608403,31.3333333 C82.9823754,31.5000008 82.7833215,31.5833333 82.5636724,31.5833333 L78.8982975,31.5833333 C78.3217188,31.5833333 77.9236109,31.3194471 77.7039618,30.7916667 L75.8094984,25.75 L63.6190378,25.75 L61.7245744,30.7916667 C61.5049253,31.3194471 61.1068174,31.5833333 60.5302387,31.5833333 L56.8648638,31.5833333 Z M65.0604774,20.9166667 L74.3680588,20.9166667 L69.7142681,8.08333333 L65.0604774,20.9166667 Z M88.2877119,31.5833333 C88.0131507,31.5833333 87.7797771,31.4861121 87.5875841,31.2916667 C87.3953912,31.0972213 87.2992962,30.8611125 87.2992962,30.5833333 L87.2992962,3 C87.2992962,2.69444292 87.3953912,2.45138979 87.5875841,2.27083333 C87.7797771,2.09027688 88.0131507,2 88.2877119,2 L91.747167,2 C92.0491844,2 92.2894219,2.09027688 92.4678868,2.27083333 C92.6463516,2.45138979 92.7355827,2.69444292 92.7355827,3 L92.7355827,30.5833333 C92.7355827,30.8611125 92.6463516,31.0972213 92.4678868,31.2916667 C92.2894219,31.4861121 92.0491844,31.5833333 91.747167,31.5833333 L88.2877119,31.5833333 Z M104.966692,32 C103.56643,32 102.282875,31.7152806 101.115989,31.1458333 C99.9491039,30.576386 99.0293374,29.8055604 98.3566622,28.8333333 C97.6839871,27.8611063 97.3476545,26.7916725 97.3476545,25.625 C97.3476545,23.7361017 98.1026867,22.2083392 99.6127739,21.0416667 C101.122861,19.8749942 103.195768,19.0833354 105.831556,18.6666667 L111.473762,17.8333333 L111.473762,16.9583333 C111.473762,15.7638829 111.17175,14.8611142 110.567715,14.25 C109.96368,13.6388858 109.00273,13.3333333 107.684836,13.3333333 C106.778783,13.3333333 106.051207,13.5 105.502084,13.8333333 C104.952962,14.1666683 104.506806,14.5069427 104.163605,14.8541667 L103.484069,15.5416667 C103.374244,15.8750017 103.168326,16.0416667 102.866309,16.0416667 L99.6539579,16.0416667 C99.4068527,16.0416667 99.1940709,15.9583342 99.015606,15.7916667 C98.8371412,15.6249992 98.7479101,15.4027792 98.7479101,15.125 C98.7753662,14.4305521 99.1116988,13.6458377 99.7569178,12.7708333 C100.402137,11.895829 101.397407,11.1319477 102.742757,10.4791667 C104.088107,9.82638563 105.749178,9.5 107.72602,9.5 C110.965843,9.5 113.327035,10.2361038 114.809666,11.7083333 C116.292297,13.1805629 117.033601,15.1110992 117.033601,17.5 L117.033601,30.5833333 C117.033601,30.8611125 116.94437,31.0972213 116.765905,31.2916667 C116.58744,31.4861121 116.347203,31.5833333 116.045185,31.5833333 L112.626914,31.5833333 C112.352353,31.5833333 112.118979,31.4861121 111.926786,31.2916667 C111.734593,31.0972213 111.638498,30.8611125 111.638498,30.5833333 L111.638498,28.9583333 C111.034464,29.8472267 110.183336,30.576386 109.085091,31.1458333 C107.986846,31.7152806 106.61406,32 104.966692,32 Z M106.366948,28 C107.877035,28 109.112542,27.500005 110.073507,26.5 C111.034471,25.499995 111.514946,24.055565 111.514946,22.1666667 L111.514946,21.3333333 L107.396548,22 C104.239093,22.5000025 102.660389,23.5694363 102.660389,25.2083333 C102.660389,26.0972267 103.024177,26.7847198 103.751765,27.2708333 C104.479352,27.7569469 105.351071,28 106.366948,28 Z M123.828424,31.5833333 C123.553863,31.5833333 123.320489,31.4861121 123.128296,31.2916667 C122.936103,31.0972213 122.840008,30.8611125 122.840008,30.5833333 L122.840008,10.9166667 C122.840008,10.6111096 122.936103,10.3680565 123.128296,10.1875 C123.320489,10.0069435 123.553863,9.91666667 123.828424,9.91666667 L127.246695,9.91666667 C127.548713,9.91666667 127.78895,10.0069435 127.967415,10.1875 C128.14588,10.3680565 128.235111,10.6111096 128.235111,10.9166667 L128.235111,12.625 C129.909935,10.5416563 132.202487,9.5 135.112837,9.5 C137.638801,9.5 139.643068,10.333325 141.125699,12 C142.60833,13.666675 143.349635,15.9583188 143.349635,18.875 L143.349635,30.5833333 C143.349635,30.8611125 143.260403,31.0972213 143.081939,31.2916667 C142.903474,31.4861121 142.663236,31.5833333 142.361219,31.5833333 L138.65466,31.5833333 C138.380099,31.5833333 138.146725,31.4861121 137.954532,31.2916667 C137.762339,31.0972213 137.666244,30.8611125 137.666244,30.5833333 L137.666244,19.125 C137.666244,17.5138808 137.275,16.256949 136.492501,15.3541667 C135.710001,14.4513844 134.59118,14 133.136005,14 C131.735743,14 130.610058,14.4583288 129.758918,15.375 C128.907778,16.2916713 128.482215,17.5416588 128.482215,19.125 L128.482215,30.5833333 C128.482215,30.8611125 128.392984,31.0972213 128.214519,31.2916667 C128.036054,31.4861121 127.795816,31.5833333 127.493799,31.5833333 L123.828424,31.5833333 Z" id="Alan" fill="#081746"></path>
        </g>
    </g>
</svg>