<?xml version="1.0" encoding="utf-8"?>
<svg version="1.1" xmlns="http://www.w3.org/2000/svg" xmlns:xlink="http://www.w3.org/1999/xlink" viewBox="0 0 24 24">
	<style type="text/css">
		.st0{fill:#AE0F0A;}
		.st1{fill:#4F81C1;}
		.st2{fill:#FFD400;}
	</style>
	<path class="st0" d="M22.5,10.5c0.8,0,1.5,0.7,1.5,1.5v7.5c0,0.8-0.7,1.5-1.5,1.5h-3c-0.8,0-1.5-0.7-1.5-1.5V12c0-0.8,0.7-1.5,1.5-1.5H22.5z"/>
	<path class="st1" d="M13.5,3C14.3,3,15,3.7,15,4.5v15c0,0.8-0.7,1.5-1.5,1.5h-3C9.7,21,9,20.3,9,19.5v-15C9,3.7,9.7,3,10.5,3H13.5z"/>
	<path class="st2" d="M4.5,7.5C5.3,7.5,6,8.2,6,9v10.5C6,20.3,5.3,21,4.5,21h-3C0.7,21,0,20.3,0,19.5V9c0-0.8,0.7-1.5,1.5-1.5H4.5z"/>
</svg>
