<svg width="60px" height="56px" viewBox="0 0 60 56" version="1.1" xmlns="http://www.w3.org/2000/svg" xmlns:xlink="http://www.w3.org/1999/xlink">
 <!-- Generator: Sketch 59.1 (86144) - https://sketch.com -->
 <title>
  Wendy's Logo
 </title>
 <desc>
  Created with Sketch.
 </desc>
 <g id="Rachel---VD" stroke="none" stroke-width="1" fill="none" fill-rule="evenodd">
  <g id="branding/cameo/full-color">
   <g id="Cameo_Full_RGB">
    <path d="M30.0533971,2.9945567 C15.5316746,2.9945567 3.75933014,14.8310515 3.75933014,29.4323299 C3.75933014,44.0336082 15.5316746,55.8703918 30.0533971,55.8703918 C44.5751196,55.8703918 56.347177,44.0336082 56.347177,29.4323299 C56.347177,14.8310515 44.5751196,2.9945567 30.0533971,2.9945567" id="Fill-1" fill="#3B302F">
    </path>
    <path d="M30.0533971,53.7828041 C16.6998086,53.7828041 5.83607656,42.8593402 5.83607656,29.4323299 C5.83607656,16.0056082 16.6998086,5.08214433 30.0533971,5.08214433 C43.4069856,5.08214433 54.2707177,16.0056082 54.2707177,29.4323299 C54.2707177,42.8593402 43.4069856,53.7828041 30.0533971,53.7828041" id="Fill-2" fill="#FFFFFE">
    </path>
    <path d="M42.529378,29.4828454 C42.0439234,29.9343093 41.7241148,29.832701 41.5759809,29.7334021 C41.5762679,29.7362887 41.576555,29.7394639 41.5768421,29.7426392 C41.576555,29.7394639 41.5756938,29.7362887 41.5754067,29.7334021 C41.4249761,30.5817732 41.2096651,32.1281237 40.8442105,33.4282474 C40.1758852,35.8053608 39.4360766,36.8133608 38.6313876,37.7581443 C38.0127273,38.4867216 37.4925359,38.9664742 36.4716746,39.9254021 C35.583445,40.7607835 34.9211483,41.3461856 33.6433493,42.0886186 C33.0488038,42.4341443 32.0552153,43.1531959 30.2282297,43.174268 C28.2866986,43.1976495 26.8711005,42.2084124 26.1002871,41.7194227 C25.2312919,41.1686598 24.8885167,40.8898144 24.1168421,40.2671753 C23.5406699,39.802433 22.6355024,39.0481649 22.196555,38.5854433 C21.448134,37.7974021 20.6592344,36.9045773 20.0385646,35.783134 C19.4181818,34.7084536 19.0845933,33.8863505 18.6823923,32.1084948 C18.5942584,31.7190928 18.3542584,30.4839175 18.1932057,29.7391753 C18.1932057,29.7383093 18.1932057,29.7371546 18.1932057,29.7362887 L18.1929187,29.7362887 C17.9773206,29.9218969 17.558756,29.8202887 17.2398086,29.485732 C16.7308134,28.952 16.1641148,27.648701 16.207177,26.515134 C16.2447847,25.5319588 16.4644019,24.4503505 17.0394258,24.3164124 C17.4683254,24.2165361 17.661244,24.4324536 17.844689,24.8547629 C17.9431579,25.0819381 18.0364593,25.7117938 18.0364593,25.7117938 C18.0364593,25.7117938 18.1943541,23.6296907 19.5146411,22.6430515 C21.0858373,21.4690722 27.7512919,20.7823505 32.1996172,15.2354639 C31.7523445,17.8195464 30.5299522,20.1224742 28.1201914,22.4355052 C32.4002871,22.9859794 37.037512,16.6995464 37.2413397,15.3904742 C37.8852632,18.3931134 41.7611483,22.133567 41.9244976,24.8518763 C42.123445,24.4364948 42.3008612,24.2136495 42.7297608,24.3135258 C43.3047847,24.4474639 43.542201,25.5284948 43.5617225,26.5122474 C43.5838278,27.634268 43.069378,28.980866 42.529378,29.4828454" id="Fill-3" fill="#EFD1CF">
    </path>
    <path d="M37.3185646,40.6834227 C34.6337799,42.9776907 32.3244976,44.4218557 30.1366507,44.4478351 C27.9878469,44.4726598 25.7425837,43.0417732 22.7793301,40.5841237 C22.7552153,41.7696495 22.7457416,42.9465155 22.7219139,44.5529072 C22.8502392,44.7636289 23.0150239,45.0124536 23.2418182,45.3285361 C23.6322488,45.8743918 24.194067,44.0330309 24.8721531,44.4178144 C25.5978947,44.8314639 25.5608612,46.1200412 26.3379904,46.7331546 C26.798756,47.096 27.6568421,45.0312165 28.1092823,46.1613196 C28.5973206,47.3826392 29.4723445,47.6626392 30.4205742,48.1487423 C30.8443062,47.7740619 31.4641148,47.7218144 31.9825837,47.1066804 C32.4691866,46.5302268 32.76,45.9407835 33.1194258,45.8287835 C33.674067,45.6558763 34.0013397,47.0322062 34.6010526,46.8125361 C35.5788517,46.4525773 35.40689,44.6409485 36.3143541,44.3958763 C36.7736842,44.2711753 36.8477512,45.0658557 37.3911962,45.1484124 C37.5855502,45.178433 37.7764593,44.9503918 37.9544498,44.6112165 L37.934067,43.413567 C37.7480383,43.7818969 37.5195215,43.218433 37.3185646,40.6834227" id="Fill-4" fill="#EFD1CF">
    </path>
    <path d="M29.862488,49.294433 C30.1088038,49.1931134 30.59311,49.1512577 30.896555,49.3564948 C31.1896651,49.5542268 31.3389474,49.6939381 31.4776077,49.9505567 C31.62,50.2146804 31.7494737,50.6017732 31.6584689,51.0252371 C31.5315789,51.6126598 30.7644976,52.0652784 29.9428708,51.8545567 C28.5663158,51.5015258 29.0552153,49.6261031 29.862488,49.294433" id="Fill-5" fill="#2390C1">
    </path>
    <path d="M23.2162679,46.6774433 C22.6197129,46.579299 22.4092823,46.2617732 22.2166507,45.8694845 C22.1207656,46.2326186 21.9967464,46.6419381 21.6456459,47.4207423 C21.1722488,48.4781031 19.7819139,49.5874227 21.197799,50.008 C21.6533971,50.120866 21.9278469,49.9407423 22.1135885,49.7736082 C22.8950239,49.0635052 23.6144498,47.5240825 23.992823,46.4554639 C23.7737799,46.6070103 23.5042105,46.7250722 23.2162679,46.6774433" id="Fill-6" fill="#2390C1">
    </path>
    <path d="M26.0635407,48.0852371 C25.8051675,48.0390515 25.5051675,47.7714639 25.2324402,47.4060206 C24.7355024,49.7946804 23.8510048,50.497567 24.1581818,51.1730309 C24.2638278,51.4002062 24.504689,51.5910103 24.504689,51.5910103 C24.6709091,51.6940619 24.8242105,51.7408247 24.9703349,51.7465979 C25.2017225,51.745732 25.4437321,51.6908866 25.6260287,51.4778557 C26.4080383,50.5151753 26.9707177,48.860866 27.1274641,47.8000412 C26.8736842,47.9888247 26.5056459,48.1643299 26.0635407,48.0852371" id="Fill-7" fill="#2390C1">
    </path>
    <path d="M34.7503349,48.1960825 C34.2502392,48.1983918 33.9114833,47.9400412 33.6666029,47.7206598 C34.0880383,49.586268 34.7735885,50.9008247 35.1769378,51.4134845 C35.3572249,51.6242062 35.5995215,51.7578557 35.8754067,51.8057732 C36.0577033,51.8132784 36.1866029,51.7893196 36.3453589,51.7079175 C36.3453589,51.7079175 36.6884211,51.5494433 36.7725359,51.3147629 C37.0007656,50.678268 36.1182775,49.6786392 35.6715789,47.6352165 C35.4166507,47.9556289 35.1080383,48.1946392 34.7503349,48.1960825" id="Fill-8" fill="#2390C1">
    </path>
    <path d="M38.336555,45.8403299 C38.1080383,46.1665155 37.8040191,46.5388866 37.5703349,46.6015258 C37.2091866,46.6996701 36.8603828,46.3830103 36.6628708,46.1543918 C37.1115789,48.2806598 38.1163636,49.3917113 38.3862201,49.6763299 C38.6827751,49.9866392 38.9138756,50.0160825 39.1725359,50.035134 C39.4937799,50.0616907 39.7136842,49.9612371 39.9123445,49.7441649 C40.3547368,49.0868866 39.2483254,48.0621443 38.710622,46.8185979 C38.5507177,46.4456495 38.4206699,46.1396701 38.336555,45.8403299" id="Fill-9" fill="#2390C1">
    </path>
    <path d="M51.3261244,35.7190515 C52.0501435,34.9145567 53.2550239,33.8886598 52.4707177,33.1011959 C52.0642105,32.6927423 51.3763636,32.3163299 50.6422967,31.9592577 C49.8981818,31.5972784 49.1379904,31.332866 48.7042105,31.304 C47.6632536,31.234433 46.6524402,35.2473814 46.6642105,35.7756289 C46.6969378,36.3388041 46.8898565,36.3985567 46.8355981,36.485732 C46.7715789,36.5876289 45.7050718,36.371134 45.0091866,37.6149691 C44.5398086,38.4535258 44.3339713,39.4574845 44.8156938,39.7695258 C45.3063158,40.0873402 44.2742584,40.3829278 43.4833493,41.1181443 C42.53311,42.0020206 41.7622967,43.316 41.7120574,43.4828454 C41.5696651,43.9331546 41.5254545,44.268 42.7067943,45.136866 C43.6400957,45.8230103 45.3562679,46.2346392 45.656555,46.2802474 C46.5878469,46.4211134 46.962488,45.9456907 47.1508134,45.0439175 C47.3695694,43.9952165 47.4955981,43.371134 47.6015311,42.8856082 C48.0132057,41.0035464 47.4180861,41.2494845 47.4660287,40.9717938 C47.5004785,40.7717526 48.1923445,41.1799175 48.945933,39.9796701 C49.0888995,39.760866 49.7256459,38.6148866 49.3576077,38.2898557 C49.0581818,38.0251546 49.2442105,37.912866 49.4124402,37.729567 C49.8723445,37.2284536 50.3397129,36.8159588 51.3261244,35.7190515" id="Fill-10" fill="#2390C1">
    </path>
    <path d="M17.7941627,42.8492371 C17.4766507,42.4852371 15.4288995,40.4666392 15.3040191,40.3419381 C14.9534928,39.9935258 15.1487081,39.9037526 15.2879426,39.6635876 C15.5069856,39.2865979 14.7499522,37.2610722 13.817512,37.1652371 C13.0877512,37.0901856 13.7242105,36.9911753 13.7282297,36.5587629 C13.7273684,36.2758763 13.3225837,34.1729897 12.9838278,32.9158763 C12.5836364,31.4310103 11.6819139,31.3660619 11.3279426,31.3911753 C11.0514833,31.4128247 9.6307177,31.7875052 8.67559809,32.5862268 C7.67971292,33.3468454 7.66449761,33.9036701 7.78966507,34.2994227 C7.89043062,34.6137732 8.37043062,35.491299 8.74162679,35.9635464 C9.80038278,37.2705979 11.3856459,37.5988041 10.7256459,38.0626804 C10.5341627,38.2734021 10.5852632,38.6330722 10.8114833,39.4447835 C10.9934928,39.9467629 11.1700478,40.389567 11.3488995,40.6744742 C11.9339713,41.7630103 12.5951196,41.3487835 12.6780861,41.5150515 C12.7297608,41.6192577 12.54689,41.7367423 12.5534928,42.2358351 C12.5569378,42.4806186 12.9129187,43.1826392 13.1710048,44.0526598 C13.5330144,45.2728247 14.0555024,46.4898144 14.8044976,46.5149278 C16.3360766,46.5660206 18.2560766,45.290433 18.4475598,44.5442474 C18.6548325,43.736 18.1228708,43.2262268 17.7941627,42.8492371" id="Fill-11" fill="#2390C1">
    </path>
    <path d="M46.7850718,35.0427216 C46.3644976,34.4192165 45.6978947,33.8332371 44.5400957,33.4747216 C52.6311962,24.1922887 45.483445,12.7423093 44.6566507,10.6420206 C42.9416268,6.28412371 40.6576077,0.716742268 35.0454545,2.48651546 C34.1514833,-0.768123711 24.6235407,-0.373525773 20.3959809,3.11175258 C16.2054545,6.56672165 13.8496651,11.2251134 12.7682297,18.9092371 C11.9009569,20.9460206 9.85808612,27.1848247 15.5520574,33.6210722 C14.6374163,33.8159175 13.9828708,34.5603711 13.531866,35.3536082 C13.6487081,35.9566186 13.7279426,36.4343505 13.7282297,36.5587629 C13.7242105,36.9911753 13.0877512,37.0901856 13.817512,37.1652371 C14.7499522,37.2610722 15.5069856,39.2865979 15.2879426,39.6635876 C15.1487081,39.9037526 14.9534928,39.9935258 15.3040191,40.3419381 C15.3568421,40.3947629 15.7573206,40.7899381 16.2238278,41.2538144 C18.2666986,41.077732 20.0503349,40.5503505 21.2896651,39.0270928 C20.9049761,38.5340619 19.8200957,36.8237526 19.6073684,36.4256907 C19.4052632,36.0466804 19.217512,35.6082062 18.9444976,34.8345979 C18.7202871,34.1940619 18.48,33.236866 18.3482297,32.0412371 C18.2075598,30.8150103 18.2288038,30.5223093 18.1923445,29.7362887 C17.9770335,29.9221856 17.5578947,29.8205773 17.2386603,29.485732 C16.7299522,28.952 16.1629665,27.648701 16.2066029,26.515134 C16.2439234,25.5319588 16.4632536,24.4503505 17.0382775,24.3164124 C17.467177,24.2165361 17.6600957,24.4324536 17.8435407,24.8547629 C17.9420096,25.0819381 18.035311,25.7117938 18.035311,25.7117938 C18.035311,25.7117938 18.1932057,23.6296907 19.5134928,22.6430515 C21.084689,21.4690722 27.7501435,20.7823505 32.1990431,15.2354639 C31.7511962,17.8195464 30.5290909,20.1224742 28.1190431,22.4355052 C32.3991388,22.9859794 37.0363636,16.6995464 37.2401914,15.3904742 C37.8841148,18.3931134 41.76,22.133567 41.9236364,24.8518763 C42.1222967,24.4364948 42.2997129,24.2136495 42.7286124,24.3135258 C43.3039234,24.4474639 43.5410526,25.5284948 43.5605742,26.5122474 C43.5829665,27.634268 43.0682297,28.980866 42.5282297,29.4828454 C42.0427751,29.9343093 41.7232536,29.832701 41.5748325,29.7334021 C41.5952153,30.0347629 41.661244,30.4051134 41.5679426,31.5770722 C41.4800957,32.4263093 41.392823,33.2030928 41.2079426,33.9824742 C40.9406699,35.1160412 40.6960766,35.8752165 40.2482297,36.7004948 C39.8385646,37.4567835 39.6935885,37.6028454 39.1222967,38.4463093 C40.2941627,40.7293196 41.8007656,41.1660619 43.4121531,41.187134 C43.4359809,41.1643299 43.4595215,41.1406598 43.4833493,41.1181443 C44.2742584,40.3829278 45.3063158,40.0873402 44.8156938,39.7695258 C44.3339713,39.4574845 44.5398086,38.4535258 45.0091866,37.6149691 C45.7050718,36.371134 46.7715789,36.5876289 46.8355981,36.485732 C46.8898565,36.3985567 46.6969378,36.3388041 46.6642105,35.7756289 C46.6616268,35.6636289 46.7055502,35.3948866 46.7850718,35.0427216 Z M11.3488995,40.6744742 C11.1700478,40.389567 10.9934928,39.9467629 10.8114833,39.4447835 C10.5852632,38.6330722 10.5341627,38.2734021 10.7256459,38.0626804 C10.8522488,37.9737732 10.8950239,37.8894845 10.8757895,37.8025979 C5.02047847,38.2266392 3.54602871,35.2895258 2.67043062,34.3773608 C2.21138756,33.9882474 2.34200957,36.1739794 3.67119617,37.729567 C2.20507177,37.7769072 1.43741627,37.0001237 0.85291866,36.261732 C0.201244019,35.5276701 -0.331578947,38.2021031 1.02315789,40.0039175 C2.01961722,41.3294433 3.23483254,41.5447835 3.23483254,41.5447835 C2.42354067,41.7875464 1.67942584,41.3698557 1.47014354,41.2543918 C1.03578947,41.0142268 1.71990431,43.1618557 5.71665072,43.7891134 C7.41014354,44.0546804 9.48574163,43.6693196 11.4169378,42.1036289 C11.7631579,41.8227629 12.1039234,41.6192577 12.4360766,41.4651134 C12.17311,41.4590515 11.7439234,41.4091134 11.3488995,40.6744742 Z M58.9251675,41.2714227 C59.1490909,41.7061443 56.9457416,44.1886186 52.8134928,43.7833402 C49.5384689,43.4623505 48.391866,41.4249897 47.9285167,41.2942268 C47.8211483,41.2639175 47.7134928,41.2382268 47.6052632,41.2154227 C47.5260287,41.1097732 47.4476555,41.0797526 47.4660287,40.9717938 C47.5004785,40.7717526 48.1923445,41.1799175 48.945933,39.9796701 C49.0888995,39.760866 49.7256459,38.6148866 49.3576077,38.2898557 C49.1064115,38.0678763 49.1974163,37.9529897 49.3326316,37.813567 C50.4146411,37.9469278 51.9066029,37.899299 53.4284211,37.449567 C56.0689952,36.6696082 57.342201,34.5681649 57.5566507,34.3860206 C58.0329187,33.9816082 57.8867943,36.1664742 56.5584689,37.7217732 C58.6125359,37.8265567 59.2527273,36.1338557 59.6207656,36.1338557 C60.0660287,36.1338557 60.787177,40.2914227 57.0169378,41.5254433 C57.7360766,41.9382268 58.7985646,41.0249072 58.9251675,41.2714227 L58.9251675,41.2714227 Z" id="Fill-12" fill="#BB252D">
    </path>
    <path d="M20.57311,30.0679588 C20.57311,29.9065979 20.6793301,29.7853608 20.8733971,29.7853608 C21.0312919,29.7882474 21.2440191,29.9077526 21.2411483,30.0725773 C21.2480383,30.2809897 21.0275598,30.4166598 20.8642105,30.4111753 C20.6730144,30.4108866 20.5690909,30.2752165 20.57311,30.0679588" id="Fill-13" fill="#BB252D">
    </path>
    <path d="M22.0581818,31.0704742 C22.0576077,30.9004536 22.2218182,30.7203299 22.3983732,30.7261031 C22.5783732,30.716 22.7689952,30.8972784 22.7689952,31.0716289 C22.7669856,31.2220206 22.5723445,31.3545155 22.3903349,31.3545155 C22.2241148,31.3669278 22.0564593,31.2176907 22.0581818,31.0704742" id="Fill-14" fill="#BB252D">
    </path>
    <path d="M23.3133014,29.2115052 C23.3138756,29.0758351 23.5188517,28.9089897 23.7129187,28.9101384 C23.837512,28.9130309 24.0378947,29.0741031 24.0344498,29.2213196 C23.964689,29.4632165 23.8441148,29.5656907 23.7120574,29.5654027 C23.4568421,29.5607835 23.3092823,29.4600412 23.3133014,29.2115052" id="Fill-15" fill="#BB252D">
    </path>
    <path d="M24.83311,30.5116289 C24.8379904,30.3349691 24.9200957,30.1814021 25.1313876,30.1822644 C25.3047847,30.1842887 25.4368421,30.3364124 25.4356938,30.5032577 C25.4356938,30.687134 25.298756,30.8637938 25.1247847,30.8418557 C24.9152153,30.8418557 24.8333971,30.6773196 24.83311,30.5116289" id="Fill-16" fill="#BB252D">
    </path>
    <path d="M26.3141627,28.9196701 C26.315311,28.7450309 26.428134,28.6079175 26.6273684,28.6079175 C26.8294737,28.6139794 26.9491866,28.7458969 26.9451675,28.9130309 C26.9443062,29.0853608 26.8248804,29.2285361 26.6173206,29.2279588 C26.4206699,29.2294021 26.3121531,29.0795876 26.3141627,28.9196701" id="Fill-17" fill="#BB252D">
    </path>
    <path d="M33.3215311,29.006268 C33.3516746,28.8215258 33.4469856,28.7176082 33.6467943,28.7548454 C33.8173206,28.7923711 33.9232536,28.9329485 33.914067,29.1275052 C33.8790431,29.2937732 33.7205742,29.3564124 33.53311,29.3183093 C33.3511005,29.2842474 33.296555,29.1321237 33.3215311,29.006268" id="Fill-18" fill="#BB252D">
    </path>
    <path d="M35.322488,29.3766186 C35.3517703,29.2294021 35.4752153,29.1015258 35.6155981,29.1275052 C35.7895694,29.1592577 35.8900478,29.3232165 35.8593301,29.4811134 C35.8286124,29.6540206 35.6819139,29.7712165 35.5088038,29.7383093 C35.3606699,29.7085773 35.2903349,29.5506804 35.322488,29.3766186" id="Fill-19" fill="#BB252D">
    </path>
    <path d="M37.9825837,29.1289485 C38.0196172,28.9482474 38.1579904,28.8602062 38.4020096,28.9061031 C38.5894737,28.9404536 38.6669856,29.0709278 38.6325359,29.2533608 C38.5946411,29.4476289 38.4757895,29.6014845 38.2825837,29.5656907 C38.0368421,29.5200825 37.9469856,29.3226392 37.9825837,29.1289485" id="Fill-20" fill="#BB252D">
    </path>
    <path d="M36.437799,30.5846598 C36.476555,30.3776907 36.6479426,30.2861856 36.8727273,30.3216907 C37.0475598,30.3597938 37.1572249,30.5321237 37.1210526,30.7119588 C37.0888995,30.8802474 36.9232536,31.0133196 36.7584689,30.9792577 C36.5207656,30.9362474 36.4062201,30.7535258 36.437799,30.5846598" id="Fill-21" fill="#BB252D">
    </path>
    <path d="M38.5231579,30.7324536 C38.562201,30.532701 38.7295694,30.4463918 38.9290909,30.4873814 C39.1139713,30.5124948 39.2483254,30.6651959 39.2072727,30.8545567 C39.1733971,31.0335258 38.9876555,31.1567835 38.8162679,31.1244536 C38.6130144,31.0872165 38.4849761,30.9157526 38.5231579,30.7324536" id="Fill-22" fill="#BB252D">
    </path>
    <path d="M29.4554067,11.2453196 C27.0683254,11.4802887 20.4700478,17.1868041 17.5946411,18.0848247 C22.542201,19.3477113 26.6299522,12.8719175 29.4554067,11.2453196 Z M45.6795215,26.0858969 C45.021244,22.0152165 41.2105263,20.5271753 39.4897608,17.4497732 C37.7560766,14.3498557 37.9116746,11.2453196 35.9721531,10.9003711 C35.9721531,10.9003711 35.3509091,19.0628041 28.1207656,22.4334845 C28.1204785,22.4340619 28.1196172,22.4346392 28.1190431,22.4355052 C32.3994258,22.9859794 37.0363636,16.6995464 37.2401914,15.3904742 C37.8841148,18.3931134 41.7602871,22.133567 41.9236364,24.8518763 C42.1225837,24.4364948 42.2997129,24.2136495 42.7286124,24.3135258 C43.3039234,24.4474639 43.5413397,25.5284948 43.5608612,26.5122474 C43.5829665,27.634268 43.0682297,28.980866 42.5285167,29.4828454 C42.0427751,29.9343093 41.7232536,29.832701 41.5748325,29.7334021 C41.5952153,30.0347629 41.661244,30.4051134 41.5679426,31.5770722 C41.4800957,32.4263093 41.392823,33.2030928 41.2079426,33.9824742 C40.9406699,35.1160412 40.6960766,35.8752165 40.2482297,36.7004948 C39.8385646,37.4567835 39.6935885,37.6028454 39.1222967,38.4463093 C40.2941627,40.7293196 41.8007656,41.1660619 43.4124402,41.187134 C43.4362679,41.1643299 43.4595215,41.1406598 43.4836364,41.1181443 C44.2742584,40.3829278 45.3066029,40.0873402 44.8156938,39.7695258 C44.3339713,39.4574845 44.5398086,38.4535258 45.0094737,37.6149691 C45.0338756,37.5710928 45.0594258,37.5332784 45.0849761,37.4931546 C44.0164593,37.4772784 43.0929187,37.3447835 42.8767464,36.2210309 C42.4159809,33.8251546 46.5341627,31.3718351 45.6795215,26.0858969 Z M52.7313876,42.0606186 C51.2061244,41.564701 50.1338756,40.3863918 49.2637321,39.3711753 C49.1431579,39.6485773 49.0039234,39.8907629 48.945933,39.9796701 C48.1926316,41.1799175 47.5007656,40.7717526 47.4663158,40.9717938 C47.4476555,41.0797526 47.5263158,41.1097732 47.6052632,41.2154227 C47.7134928,41.2382268 47.8214354,41.2639175 47.9285167,41.2942268 C48.391866,41.4249897 49.5384689,43.4623505 52.8134928,43.7833402 C56.174067,44.112701 58.2585646,42.532866 58.8,41.6971959 C58.4557895,41.9610309 56.4809569,43.2799175 52.7313876,42.0606186 Z M48.0244019,26.5985567 C48.5511962,24.0950103 48.4027751,21.631299 47.9509091,19.4071753 L47.9509091,19.4068866 C46.4698565,14.8431753 42.1581818,12.7371134 39.7911962,7.5822268 C40.0802871,15.6759588 48.7802871,18.1131134 48.0244019,26.5985567 Z M18.9444976,34.8345979 C18.7205742,34.1940619 18.48,33.236866 18.3482297,32.0412371 C18.2078469,30.8150103 18.2290909,30.5223093 18.1923445,29.7362887 C17.9770335,29.9221856 17.5578947,29.8205773 17.2386603,29.485732 C16.7299522,28.952 16.1632536,27.648701 16.2066029,26.515134 C16.2439234,25.5319588 16.4632536,24.4503505 17.0385646,24.3164124 C17.4674641,24.2165361 17.6600957,24.4324536 17.8438278,24.8547629 C17.9420096,25.0819381 18.035311,25.7117938 18.035311,25.7117938 C18.035311,25.7117938 18.1932057,23.6296907 19.5134928,22.6430515 C19.6349282,22.552701 19.7896651,22.4649485 19.9682297,22.3777732 C22.1029665,21.3345567 28.0891866,20.3548454 32.1941627,15.2412371 C32.1993301,15.2294021 32.2053589,15.2172784 32.2105263,15.2054433 C33.7464115,13.0754227 33.5755981,11.3844536 33.1825837,10.977732 C33.1825837,10.977732 31.5324402,13.7878351 29.5070813,15.624866 C25.1262201,19.5979794 15.7822967,20.4850309 13.7267943,24.0600825 C12.6783732,18.0677938 16.2172249,14.5972371 16.2172249,14.5972371 C15.8626794,14.475134 14.0804785,16.6204536 13.2884211,17.8541856 C16.6762679,-1.08824742 33.6335885,1.10383505 34.6578947,4.87950515 C40.5605742,1.03426804 44.0474641,11.6817732 46.0599043,13.6729485 L46.062488,13.6475464 C45.4274641,12.2074227 44.8567464,11.1503505 44.6569378,10.6420206 C42.9416268,6.28412371 40.6576077,0.716742268 35.0454545,2.48651546 C34.1517703,-0.768123711 24.6235407,-0.373525773 20.3959809,3.11175258 C16.2054545,6.56672165 13.8496651,11.2251134 12.7682297,18.9092371 C11.9009569,20.9460206 9.85808612,27.1848247 15.5520574,33.6210722 C15.5520574,33.6210722 17.0181818,35.2710515 16.8399043,36.6618144 C16.7247847,37.5601237 15.9511005,37.7520825 14.8139713,38.0020619 C15.2032536,38.6385567 15.4177033,39.4401649 15.2882297,39.6635876 C15.1487081,39.9037526 14.9534928,39.9935258 15.3040191,40.3419381 C15.3574163,40.3947629 15.7573206,40.7899381 16.2238278,41.2538144 C18.2666986,41.077732 20.050622,40.5503505 21.2896651,39.0270928 C20.9049761,38.5340619 19.8200957,36.8237526 19.6073684,36.4256907 C19.4052632,36.0466804 19.217512,35.6082062 18.9444976,34.8345979 Z M12.4360766,41.4651134 C12.1039234,41.6192577 11.763445,41.8227629 11.4169378,42.1036289 C9.48574163,43.6693196 7.41014354,44.0546804 5.71665072,43.7891134 C3.16736842,43.3890309 1.96708134,42.3709278 1.54392344,41.748 C1.99205742,42.0557113 3.37004785,42.840866 5.4292823,42.5458557 C9.00889952,42.0329072 9.77684211,40.6453196 10.8803828,39.6298144 C11.0385646,40.0532784 11.1927273,40.4259381 11.3488995,40.6744742 C11.7439234,41.4091134 12.17311,41.4590515 12.4360766,41.4651134 L12.4360766,41.4651134 Z" id="Fill-23" fill="#912637">
    </path>
    <path d="M26.5099522,36.6462268 C27.2509091,37.0491959 28.1497608,37.6291134 29.2108134,37.7012784 C30.2603828,37.7748866 31.5950239,37.772866 32.3247847,37.4149278 C33.0074641,37.0800825 33.3944498,36.3861443 33.8707177,35.9427629 C32.4887081,36.3402474 31.122488,35.9517113 29.6276555,36.0922887 C29.4752153,36.104701 28.8887081,36.162433 28.7377033,36.1690722 C27.7897608,36.232866 26.9804785,36.0374433 26.0276555,36.0299381 C26.2111005,36.1757113 26.3796172,36.4187629 26.5099522,36.6462268" id="Fill-24" fill="#FFFFFE">
    </path>
    <path d="M24.952823,25.800701 C24.885933,26.1595052 24.8712919,26.5795052 24.6264115,26.7550103 C24.0508134,26.7070928 23.4786603,26.6998763 23.2409569,27.0035464 C23.1884211,27.0552165 23.0371292,26.9951753 22.9105263,26.8395876 C22.7833493,26.6851546 22.6441148,26.234268 22.9992344,25.859299 C23.1872727,25.7778969 23.3704306,25.9964124 23.6227751,25.940701 C23.7875598,25.9046186 23.8558852,25.7588454 23.8656459,25.5671753 C23.7355981,25.3223918 23.3945455,25.1523711 22.9550239,25.4675876 C22.4712919,25.7239175 22.0616268,26.3699381 22.0263158,26.7703093 C22.0197129,26.8912577 22.2269856,27.1539381 22.5183732,27.1643299 C22.5786603,27.1654845 22.6576077,27.1986804 22.6989474,27.2642062 C23.3842105,27.2893196 25.2760766,27.2021443 25.8123445,26.6049072 C25.5533971,26.2065567 25.3484211,25.3492371 24.952823,25.800701" id="Fill-25" fill="#FFFFFE">
    </path>
    <path d="M37.1348325,27.1848247 C37.132823,26.8574845 37.5011483,26.8924124 37.6533014,26.7151753 C37.8453589,26.3814845 37.637799,25.7331546 37.1827751,25.7141031 C37.1839234,25.929732 37.1908134,26.430268 36.9163636,26.7047835 C36.642201,26.9764124 36.1148325,26.6230928 35.5785646,26.6305979 C35.2458373,26.6360825 35.1657416,26.894433 34.8278469,26.7558763 C34.8608612,26.2400412 35.089378,25.8235052 35.2423923,25.7905979 C35.3951196,25.7579794 35.6988517,25.8766186 36.0206699,25.8509278 C36.1461244,25.7859794 36.3129187,25.4687423 36.1449761,25.3223918 C35.8558852,25.0949278 35.5182775,25.1971134 35.2877512,25.3304742 C35.0394258,25.4719175 34.5732057,25.9513814 34.3487081,26.2625567 C34.295311,26.3364536 34.2485167,26.4216082 34.2020096,26.5096495 C34.517512,26.9680412 35.3092823,27.2945155 36.2417225,27.2916479 C36.5526316,27.2907629 36.8664115,27.2526598 37.1348325,27.1848247" id="Fill-26" fill="#FFFFFE">
    </path>
    <path d="M48.1711005,37.561567 C47.7976077,37.2414433 47.4223923,36.8993814 47.0397129,36.9109278 C46.6561722,36.9250722 46.5097608,36.9833814 46.4316746,37.3006186 C46.3547368,37.6169897 46.5826794,37.5240412 46.9386603,37.5754227 C47.2969378,37.6244948 47.6850718,37.8805361 47.869378,38.0254433 C48.0703349,38.1896907 48.4555981,38.3103505 48.5580861,38.1362887 C48.6594258,37.9642474 48.5196172,37.8635052 48.1711005,37.561567" id="Fill-27" fill="#FFFFFE">
    </path>
    <path d="M12.7191388,37.4256082 C12.2804785,37.4717938 11.75311,37.5075876 11.5243062,37.8028866 C11.2972249,38.0961649 11.2627751,38.1732371 11.4232536,38.4578557 C11.5825837,38.7456495 11.661244,38.5072165 11.9147368,38.2765773 C12.1705263,38.0456495 12.48,37.9157526 12.6895694,37.8837113 C12.9203828,37.8499381 13.2043062,37.7284124 13.2849761,37.4732371 C13.3469856,37.2778144 13.1311005,37.3828866 12.7191388,37.4256082" id="Fill-28" fill="#FFFFFE">
    </path>
    <path d="M29.862488,49.294433 C30.1088038,49.1931134 30.59311,49.1512577 30.896555,49.3564948 C31.189378,49.5542268 31.3389474,49.6939381 31.4776077,49.9505567 C31.62,50.2146804 31.7494737,50.6017732 31.6584689,51.0252371 C31.5315789,51.6126598 30.7644976,52.0652784 29.9428708,51.8545567 C28.5663158,51.5015258 29.0552153,49.6261031 29.862488,49.294433 Z M30.1366507,44.4478351 C32.3244976,44.4218557 34.6337799,42.9776907 37.3185646,40.6834227 C37.7408612,46.0109278 38.2845933,42.6396701 38.3026794,40.1837526 C38.3253589,39.5977732 38.34689,39.5680412 38.8874641,38.795299 C39.6625837,37.6273814 39.7866029,37.5511753 40.2476555,36.7004948 C40.6955024,35.8752165 40.9400957,35.1160412 41.2073684,33.9824742 C41.3922488,33.2030928 41.4795215,32.4263093 41.5673684,31.5770722 C41.6606699,30.4051134 41.5946411,30.0347629 41.5742584,29.7334021 C41.4238278,30.5817732 41.2085167,32.1281237 40.8430622,33.4282474 C40.1747368,35.8053608 39.4349282,36.8133608 38.6302392,37.7581443 C38.0115789,38.4867216 37.4913876,38.9664742 36.4705263,39.9254021 C35.5822967,40.7607835 34.92,41.3461856 33.642488,42.0886186 C33.0479426,42.4341443 32.054067,43.1531959 30.2270813,43.174268 C28.2855502,43.1976495 26.8702392,42.2084124 26.0991388,41.7194227 C25.2304306,41.1686598 24.8873684,40.8898144 24.1156938,40.2671753 C23.5398086,39.802433 22.6343541,39.0484536 22.1954067,38.5854433 C21.4469856,37.7974021 20.6580861,36.9045773 20.0374163,35.783134 C19.4173206,34.7084536 19.083445,33.8863505 18.6815311,32.1084948 C18.59311,31.7185155 18.3525359,30.4801649 18.1917703,29.7362887 C18.2288038,30.5223093 18.2069856,30.8150103 18.3479426,32.0412371 C18.4794258,33.236866 18.7197129,34.1940619 18.9439234,34.8345979 C19.2169378,35.6082062 19.404689,36.0466804 19.6067943,36.4256907 C19.828134,36.8396289 20.9942584,38.6760825 21.3335885,39.0836701 C21.6608612,39.4621031 21.7909091,39.9929485 21.7883254,40.2746804 C21.783445,40.9152165 21.7182775,42.7230928 21.7182775,42.7230928 C21.1751196,42.1512577 20.3549282,41.6917113 20.4456459,42.5253608 C20.5584689,43.5705979 20.4823923,44.5754227 20.1752153,45.6434639 C19.8984689,46.6012371 18.9996172,47.6727423 18.4630622,47.8912577 C19.0647847,48.2953814 20.438756,47.2290722 20.9144498,46.2710103 C21.1725359,45.7525773 21.2862201,45.2820619 21.3399043,44.9431753 C21.4085167,44.5225979 21.7423923,45.011299 21.8420096,45.1596701 C22.2941627,45.8345567 22.2832536,46.5238763 23.2162679,46.6774433 C23.9147368,46.7929072 24.5072727,45.9381856 24.5199043,45.9794639 C24.7820096,46.9040412 25.5166507,47.9876701 26.0635407,48.0852371 C26.922201,48.2385155 27.5049761,47.4325773 27.5049761,47.4325773 C27.9048804,48.02 28.4511962,48.4902268 29.1370335,48.6726598 C28.3955024,49.2063918 27.6312919,50.3390928 27.9950239,51.5800412 C28.3245933,52.5545567 29.5754067,52.9924536 30.6080383,52.921732 C32.0394258,52.8146392 33.2543541,51.7743093 32.897512,50.1289485 L32.897512,50.1272165 C32.7100478,49.4341443 32.2797129,49.0395464 31.7827751,48.6562062 C32.7123445,48.3164536 32.9405742,47.8398763 33.1243062,47.5197526 C33.3688995,47.0896495 33.7162679,48.200701 34.7503349,48.1960825 C35.8538756,48.1914639 36.4980861,45.9399175 36.4980861,45.9399175 C36.4980861,45.9399175 37.0211483,46.7504742 37.5703349,46.6015258 C37.9992344,46.4866392 38.6655502,45.3285361 38.6655502,45.3285361 C39.0232536,44.6773196 38.8894737,44.6882887 39.3717703,45.949732 C40.1463158,47.9764124 42.1205742,48.4945567 41.3443062,47.559299 C40.5677512,46.6231753 39.9266986,45.2803299 39.8664115,43.8806186 C39.8262201,42.8821443 39.7998086,42.3036701 39.3717703,42.1414433 C39.0688995,42.0248247 38.8696651,42.1376907 38.7292823,42.530268 C38.4505263,43.3229278 37.9332057,45.2321237 37.3911962,45.1484124 C36.8477512,45.0658557 36.7736842,44.2711753 36.3143541,44.3958763 C35.40689,44.6409485 35.5788517,46.4525773 34.6010526,46.8125361 C34.0013397,47.0322062 33.674067,45.6558763 33.1194258,45.8287835 C32.76,45.9407835 32.4691866,46.5302268 31.9825837,47.1066804 C31.4641148,47.7218144 30.8443062,47.7740619 30.4205742,48.1487423 C29.4723445,47.6626392 28.5973206,47.3826392 28.1092823,46.1613196 C27.6568421,45.0312165 26.798756,47.096 26.3379904,46.7331546 C25.5608612,46.1200412 25.5978947,44.8314639 24.8721531,44.4178144 C24.194067,44.0330309 23.6322488,45.8743918 23.2418182,45.3285361 C23.0150239,45.0124536 22.8502392,44.7636289 22.7219139,44.5529072 C22.7457416,42.9465155 22.7552153,41.7696495 22.7793301,40.5841237 C25.7425837,43.0417732 27.9878469,44.4726598 30.1366507,44.4478351 L30.1366507,44.4478351 Z" id="Fill-29" fill="#3B302F">
    </path>
    <path d="M28.7377033,36.1690722 C28.8887081,36.162433 29.4752153,36.104701 29.6276555,36.0922887 C31.122488,35.9517113 32.4887081,36.3402474 33.8707177,35.9427629 C33.3944498,36.3861443 33.0074641,37.0800825 32.3247847,37.4149278 C31.595311,37.772866 30.2603828,37.7748866 29.2108134,37.7012784 C28.1497608,37.6291134 27.2509091,37.0491959 26.5099522,36.6462268 C26.3089952,37.2489485 26.6641148,37.4798763 27.1237321,37.8897732 C27.6450718,38.358268 28.4560766,38.9973608 29.6813397,39.0299794 C31.4534928,39.0758763 32.8510048,38.9029691 33.7400957,37.4299381 C34.0136842,36.9470103 34.7460287,35.9548866 35.509378,35.5874227 C35.9385646,35.3821856 36.9163636,34.9223505 36.755311,34.6680412 C36.4650718,34.2942268 35.8866029,34.3600412 35.4720574,34.4541443 C35.1571292,34.5185155 35.0621053,35.0998763 34.5347368,35.1428866 C33.2882297,35.3033814 32.0770335,34.8654845 30.54,34.9148454 C29.4341627,34.9463093 28.5622967,35.2046598 27.3789474,35.2993402 C26.2392344,35.3899794 25.8433493,34.7849485 24.77311,34.6527423 C24.2873684,34.5903918 24.197512,34.872701 24.5655502,35.3388866 C24.9109091,35.6965361 25.5132057,36.0362887 25.9894737,36.0287835 C26.9592344,36.0310928 27.7768421,36.233732 28.7377033,36.1690722" id="Fill-30" fill="#3B302F">
    </path>
    <path d="M33.363445,22.4661031 C33.4076555,22.6548866 34.07311,22.4684124 34.3857416,22.3465979 C34.6254545,22.2527835 34.8255502,22.1494433 35.1301435,22.0847835 C35.3394258,22.0403299 35.6414354,22.0105979 35.8466986,22.0091546 C36.3172249,22.006268 36.6232536,22.0134845 37.0297608,22.0798763 C37.6708134,22.1858144 38.8811483,22.8237526 38.9807656,22.5434639 C39.0912919,22.0204124 38.6354067,21.5989691 38.2888995,21.4104742 C37.4311005,20.9471753 36.1240191,20.705567 34.9555981,21.1818557 C34.5645933,21.3694845 34.4313876,21.5282474 34.0613397,21.7799588 C33.8058373,21.9525773 33.3347368,22.2343093 33.363445,22.4661031" id="Fill-31" fill="#3B302F">
    </path>
    <path d="M31.951866,31.3562474 C31.2737799,31.151299 31.1161722,31.8818969 30.4254545,31.8804536 C29.4582775,31.879299 29.2567464,31.2566598 28.7431579,31.3103505 C28.3222967,31.3571134 28.1035407,32.0028454 27.8158852,32.0470103 C27.5856459,31.9996701 27.6335885,32.3899381 27.9255502,32.4649897 C28.5057416,32.6116289 28.3791388,32.1226392 28.7629665,32.257732 C28.9880383,32.3451959 29.036555,32.7369072 29.6873684,33.0353814 C30.3373206,33.3324124 30.9815311,32.9788041 31.5643062,32.4494021 C31.8835407,32.1382268 32.4482297,32.1145567 32.4789474,31.9702268 C32.4944498,31.8977732 32.3784689,31.8446598 32.3316746,31.7742268 C32.2228708,31.6096907 32.114067,31.403299 31.951866,31.3562474" id="Fill-32" fill="#3B302F">
    </path>
    <path d="M21.3907177,27.1377732 C21.6645933,27.2832577 22.2513876,27.567299 22.715311,27.4324948 C22.7698565,27.2541031 22.6177033,27.1660619 22.5183732,27.1643299 C22.2269856,27.1539381 22.0197129,26.8912577 22.0263158,26.7703093 C22.0616268,26.3699381 22.4715789,25.7239175 22.9550239,25.4675876 C23.3945455,25.1523711 23.7355981,25.3223918 23.8656459,25.5671753 C23.8558852,25.7588454 23.7875598,25.9046186 23.6227751,25.940701 C23.3704306,25.9964124 23.1872727,25.7778969 22.9992344,25.859299 C22.6441148,26.234268 22.7833493,26.6851546 22.9105263,26.8395876 C23.0371292,26.9951753 23.1884211,27.0552165 23.2409569,27.0035464 C23.4786603,26.6998763 24.0505263,26.7070928 24.6264115,26.7550103 C24.8712919,26.5795052 24.885933,26.1595052 24.952823,25.800701 C25.3636364,25.3322062 25.5686124,26.2749691 25.842201,26.6493608 C26.0193301,26.8932784 26.2133971,27.1859794 26.4577033,27.2108041 C26.8733971,27.2535258 27.4145455,26.9166598 27.2089952,26.3012371 C27.0892823,26.1433402 26.7585646,26.4623093 26.6288038,26.3569485 C26.1295694,25.8812371 26.5782775,24.9093196 25.5456459,24.3894433 C24.4392344,23.8323299 22.7233493,24.0260206 22.0366507,24.8922887 C21.769378,25.2294433 21.4794258,25.6018144 21.2623923,26.1707629 C21.1584689,26.5500619 21.0591388,26.9406186 21.3907177,27.1377732" id="Fill-33" fill="#3B302F">
    </path>
    <path d="M35.791866,24.1697732 C35.3411483,24.318433 34.6386603,24.9598351 34.3926316,25.3330722 C34.0880383,25.7952165 33.8951196,26.6254021 33.5026794,26.6398351 C33.3499522,26.5858557 33.4955024,26.2423505 33.2664115,26.2668866 C32.9707177,26.3332784 32.7912919,26.5945155 32.8690909,26.9013608 C32.9253589,27.0555052 33.0591388,27.1718351 33.2704306,27.1969485 C33.9726316,27.2896082 34.08,26.6369485 34.3487081,26.2625567 C34.5732057,25.9513814 35.0394258,25.4719175 35.2877512,25.3304742 C35.5182775,25.1971134 35.8558852,25.0949278 36.1449761,25.3223918 C36.3129187,25.4687423 36.1461244,25.7856907 36.0206699,25.8509278 C35.6988517,25.8766186 35.3951196,25.7579794 35.2423923,25.7905979 C35.089378,25.8235052 34.8608612,26.2400412 34.8278469,26.7558763 C35.1657416,26.894433 35.2458373,26.6360825 35.5785646,26.6305979 C36.1148325,26.6230928 36.642201,26.9764124 36.9163636,26.7047835 C37.1908134,26.430268 37.1839234,25.929732 37.1827751,25.7141031 C37.637799,25.7331546 37.8453589,26.3814845 37.6533014,26.7151753 C37.5011483,26.8924124 37.132823,26.8574845 37.1348325,27.1848247 C38.6908134,27.4997526 38.837799,26.8485361 38.957512,26.4937732 C39.042201,26.2091546 39.0100478,25.9756289 38.8785646,25.5868041 C38.4226794,24.4246598 37.037512,23.7616082 35.791866,24.1697732" id="Fill-34" fill="#3B302F">
    </path>
    <path d="M25.9438278,21.6515052 C25.623445,21.4508866 25.3607656,21.2540206 25.0122488,21.1114227 C24.7329187,21.0106804 24.2971292,20.9292784 23.9115789,20.9252371 C22.9538756,21.2924124 22.0791388,21.5799175 21.3465072,21.8353814 C21.102201,22.1225979 20.9882297,22.469567 21.0772249,22.721567 C21.1771292,23.0030103 22.3676555,22.2986804 22.9980861,22.1367423 C23.470622,22.0152165 23.7066029,22.0181031 24.1751196,21.9921237 C24.3795215,21.980866 24.6835407,21.9999175 24.8942584,22.0244536 C25.2338756,22.064 25.3888995,22.1696495 25.6550239,22.2380619 C25.9768421,22.3240825 26.6150239,22.4845773 26.6819139,22.2937732 C26.714067,22.0680412 26.2039234,21.8148866 25.9438278,21.6515052" id="Fill-35" fill="#3B302F">
    </path>
    <path d="M46.8203828,40.7016082 C45.7314833,40.6314639 45.7667943,40.5272577 45.4027751,40.2836289 C45.2842105,40.2059794 44.8122488,40.4429691 45.1501435,40.7472165 C45.2666986,40.8485361 45.5199043,41.1516289 45.4225837,41.5173608 C45.2936842,41.9930722 44.6015311,42.9000412 45.278756,42.8094021 C46.0501435,42.7106804 46.2304306,41.6146392 46.3156938,41.4524124 C46.4023923,41.2878763 46.5335885,41.2229278 46.7018182,41.2004124 C47.0273684,41.1611546 47.3741627,40.7362474 46.8203828,40.7016082" id="Fill-36" fill="#3B302F">
    </path>
    <path d="M49.0369378,36.1214433 C48.8199043,36.595134 48.6588517,37.2365361 48.0295694,36.8993814 C47.2389474,36.4764948 48.2267943,35.8405773 48.8319617,35.1971546 C49.3998086,34.5964536 49.2054545,35.7487835 49.0369378,36.1214433" id="Fill-37" fill="#3B302F">
    </path>
    <path d="M13.2350239,40.8621031 C14.1947368,40.4666392 14.1680383,40.4527835 14.5208612,40.1670103 C14.6322488,40.0778144 14.9138756,40.2270515 14.6537799,40.6652371 C14.5441148,40.8430515 14.3738756,40.7587629 14.4091866,41.1539381 C14.4562679,41.6634227 15.5296651,42.4350103 14.8067943,42.5813608 C14.1499522,42.7141443 13.7750239,41.4916701 13.7242105,41.3167423 C13.669378,41.1444124 13.3794258,41.3323299 13.2358852,41.3187629 C12.9264115,41.287299 12.6729187,41.0959175 13.2350239,40.8621031" id="Fill-38" fill="#3B302F">
    </path>
    <path d="M11.1637321,35.8524124 C11.2538756,36.5425979 11.7955981,37.3254433 12.2408612,36.8924536 C12.5239234,36.6164948 11.982488,36.5425979 11.6023923,34.9445773 C11.3566507,33.907134 11.092823,35.3186804 11.1637321,35.8524124" id="Fill-39" fill="#3B302F">
    </path>
    <path d="M53.1364593,46.3729072 L53.4378947,46.3729072 C53.5903349,46.3729072 53.7011483,46.2808247 53.7011483,46.1310103 C53.7011483,45.9889897 53.5903349,45.8894021 53.4378947,45.8894021 L53.1364593,45.8894021 L53.1364593,46.3729072 Z M53.9339713,46.9444536 L53.9339713,46.9753402 L53.7315789,46.9753402 L53.4074641,46.5339794 L53.1364593,46.5339794 L53.1364593,46.9753402 L52.9415311,46.9753402 L52.9415311,45.7205361 L53.45311,45.7205361 C53.7011483,45.7205361 53.8957895,45.8700619 53.8957895,46.1310103 C53.8957895,46.3192165 53.781244,46.4724948 53.6018182,46.507134 L53.9339713,46.9444536 Z M54.4225837,46.3460619 C54.4225837,44.8646598 52.2930144,44.8646598 52.2930144,46.3460619 C52.2930144,47.8234227 54.4225837,47.8234227 54.4225837,46.3460619 Z M52.0639234,46.3460619 C52.0639234,44.5999588 54.6476555,44.5999588 54.6476555,46.3460619 C54.6476555,48.0921649 52.0639234,48.0996701 52.0639234,46.3460619 L52.0639234,46.3460619 Z" id="Fill-40" fill="#3B302F">
    </path>
   </g>
  </g>
 </g>
</svg>