<svg width="2500" height="635" viewBox="0 0 512 130" xmlns="http://www.w3.org/2000/svg" preserveAspectRatio="xMidYMid"><path d="M80.134 23.666V.243H56.71L54.373 2.6 43.32 23.664l-3.475 2.345H.397v32.167h21.686l1.932 2.336L.397 105.644v23.424H23.82l2.338-2.357 11.053-21.064 3.475-2.345h39.448V71.135H58.447l-1.929-2.352 23.616-45.117" fill="#45AD47"/><path d="M125.9 106.717l6.654-12.702 3.07 12.702H125.9zm.648-35.579l-30.314 57.93h17.989l4.398-8.43 20.312-.001 2.01 8.43h17.987l-13.864-57.929h-18.518zM187.22 98.22h-7.686V86.507h7.686c4.683 0 6.462 2.343 6.462 5.903 0 3.469-1.78 5.81-6.462 5.81zm24.08-6.095c0-13.303-8.997-20.987-21.646-20.987h-27.449v57.935h17.33v-16.897h4.216l3.442-.01 8.39 16.907h17.99l-10.699-20.442c5.247-3.342 8.426-9.008 8.426-16.506zm2.563-20.987v15.358h16.374v42.577h9.867l7.45-14.25V86.495h14.85l8.03-15.358h-56.57zM310.946.243h17.313v57.926h-17.313V.243zm-147.26.029l-7.78 14.852h4.777c8.529 0 13.929 5.45 13.929 14.075 0 8.523-5.4 13.976-13.93 13.976h-5.398V16.31l-16.748 31.973v9.878h23.302c18.776 0 29.813-11.322 29.813-28.963 0-17.058-10.317-28.202-27.965-28.926zm32.544 57.897h44.216V42.814h-26.904v-6.26h24.736V21.856h-24.736v-6.258h26.904V.243H196.23v57.926zm75-22.872L262.837.243h-17.97l13.871 57.924h18.486L307.567.243h-17.99l-18.348 35.054zM455.062.238v15.358h16.374v42.577h9.866l7.45-14.25V15.595h14.851l8.03-15.358h-56.571zm-93.769 35.584l6.644-12.69 3.07 12.69h-9.714zm.674-35.58l-30.322 57.925h17.959l4.414-8.44h20.292l2.015 8.44 17.963.002L380.425.243h-18.457zm72.074 27.44L414.652.242h-17.075V58.17h17.308V28.751l21.467 29.418h15V.243h-17.31v27.439z" fill="#1F211F"/></svg>