<svg width="2500" height="2500" viewBox="0 0 100 100" fill="none" xmlns="http://www.w3.org/2000/svg">
<path d="M36.5472 21.494C23.4791 19.1139 13.1463 21.6056 9.02834 28.7375C5.9554 34.0595 6.83263 41.1167 11.1573 48.6601C11.2448 48.813 11.3616 48.947 11.5009 49.0547C11.6403 49.1623 11.7994 49.2415 11.9694 49.2876C12.1393 49.3337 12.3167 49.3458 12.4913 49.3234C12.666 49.3009 12.8345 49.2442 12.9872 49.1565C13.2956 48.9796 13.5211 48.6874 13.6142 48.3442C13.7073 48.0011 13.6603 47.635 13.4836 47.3264C9.58751 40.5321 8.82821 34.4416 11.3496 30.0775C14.77 24.1528 23.9854 21.9303 36.066 24.131C36.2844 24.1741 36.5101 24.1622 36.7227 24.0964C36.9354 24.0305 37.1283 23.9127 37.284 23.7537C37.4398 23.5946 37.5534 23.3993 37.6148 23.1853C37.6762 22.9714 37.6834 22.7455 37.6356 22.5281C37.5779 22.2666 37.4433 22.0285 37.2491 21.8443C37.0549 21.66 36.81 21.5381 36.5459 21.4943L36.5472 21.494ZM17.953 57.8283C23.2366 63.6354 30.1016 69.0818 37.9308 73.6025C56.8867 84.5469 77.0673 87.4722 87.0126 80.6905C87.299 80.4873 87.4943 80.1799 87.5564 79.8343C87.6186 79.4887 87.5426 79.1325 87.3448 78.8423C87.147 78.5521 86.8433 78.3512 86.4989 78.2826C86.1545 78.2141 85.7969 78.2835 85.5031 78.4758C76.6016 84.5456 57.4317 81.7665 39.2711 71.2812C31.6752 66.8953 25.0281 61.6219 19.9357 56.0252C19.7586 55.8243 19.5255 55.681 19.2663 55.6138C19.007 55.5465 18.7336 55.5584 18.4812 55.6478C18.2714 55.7224 18.0834 55.848 17.9344 56.0134C17.7853 56.1788 17.6798 56.3788 17.6273 56.5952C17.5749 56.8116 17.5772 57.0377 17.6341 57.253C17.691 57.4682 17.8006 57.666 17.953 57.8283V57.8283Z" fill="#2DD0ED"></path>
<path d="M83.8411 56.1982C92.3976 46.0901 95.3857 35.9228 91.2766 28.8052C88.2528 23.568 81.8597 20.8029 73.3647 20.6926C73.0094 20.6881 72.6667 20.8247 72.4121 21.0726C72.1574 21.3206 72.0116 21.6594 72.0066 22.0148C72.0027 22.2799 72.0777 22.5402 72.2221 22.7626C72.3664 22.985 72.5736 23.1595 72.8174 23.2639C72.9791 23.3335 73.153 23.3705 73.329 23.3729C80.9696 23.4717 86.4778 25.8544 88.9556 30.1454C92.3681 36.0576 89.7044 45.1243 81.7956 54.4671C81.6779 54.6008 81.588 54.7566 81.5312 54.9255C81.4744 55.0944 81.4519 55.2729 81.465 55.4506C81.4781 55.6282 81.5265 55.8015 81.6074 55.9602C81.6883 56.119 81.8001 56.26 81.9362 56.375C82.0722 56.4898 82.2298 56.5764 82.3997 56.6297C82.5696 56.683 82.7484 56.702 82.9257 56.6856C83.103 56.6691 83.2752 56.6176 83.4324 56.5339C83.5895 56.4502 83.7285 56.3361 83.8411 56.1982V56.1982ZM61.8509 21.9404C54.1139 23.5985 45.8795 26.8393 37.9718 31.4048C18.4019 42.7033 5.63628 59.362 7.40992 71.4426C7.43198 71.6197 7.48919 71.7906 7.5782 71.9453C7.6672 72.1 7.78621 72.2353 7.92823 72.3434C8.07025 72.4514 8.23243 72.53 8.40524 72.5746C8.57806 72.6191 8.75803 72.6287 8.93459 72.6027C9.11116 72.5768 9.28075 72.5158 9.43344 72.4234C9.58612 72.331 9.7188 72.209 9.82371 72.0647C9.92862 71.9203 10.0036 71.7564 10.0443 71.5827C10.0851 71.4089 10.0906 71.2288 10.0608 71.0528C8.48729 60.3278 20.5871 44.5357 39.3108 33.7261C46.9823 29.2966 54.9565 26.1596 62.4127 24.5603C62.7497 24.4756 63.0406 24.2635 63.2241 23.9685C63.4077 23.6735 63.4696 23.3188 63.3967 22.9791C63.3239 22.6394 63.122 22.3413 62.8337 22.1475C62.5453 21.9538 62.193 21.8795 61.8509 21.9404Z" fill="#2DD0ED"></path>
<path d="M30.1476 79.8172C34.6233 92.3084 41.9411 100 50.1719 100C56.1736 100 61.7267 95.9095 66.0574 88.7059C66.1545 88.555 66.2203 88.3862 66.251 88.2094C66.2817 88.0326 66.2766 87.8514 66.236 87.6766C66.1853 87.4576 66.0802 87.2549 65.9306 87.0872C65.7809 86.9195 65.5914 86.7921 65.3796 86.7168C65.1678 86.6416 64.9405 86.6208 64.7185 86.6565C64.4966 86.6922 64.2872 86.7831 64.1096 86.921C63.9678 87.031 63.8496 87.1681 63.7619 87.3247C59.8695 93.7986 55.0886 97.3215 50.1719 97.3215C43.3363 97.3215 36.8075 90.4604 32.6716 78.9132C32.6148 78.7441 32.525 78.5879 32.4072 78.4539C32.2895 78.3199 32.1462 78.2107 31.9858 78.1326C31.8253 78.0548 31.651 78.0097 31.4729 78C31.2948 77.9906 31.1166 78.0168 30.9488 78.0771C30.7809 78.1373 30.6268 78.2305 30.4953 78.351C30.3639 78.4715 30.2578 78.6171 30.1833 78.7791C30.1087 78.9411 30.0672 79.1163 30.0612 79.2946C30.0554 79.4729 30.0852 79.6506 30.1489 79.8172H30.1476ZM71.014 77.3728C73.33 69.9733 74.5729 61.4347 74.5729 52.5371C74.5729 30.3378 66.8038 11.1999 55.7363 6.28553C55.4128 6.14946 55.0489 6.14567 54.7227 6.27496C54.3965 6.40426 54.134 6.65632 53.9916 6.97703C53.8492 7.29774 53.8382 7.6615 53.9611 7.99019C54.084 8.31888 54.3308 8.58628 54.6487 8.73496C64.5196 13.1185 71.8939 31.2804 71.8939 52.5371C71.8939 61.1678 70.6884 69.4372 68.4569 76.5728C68.3992 76.742 68.3759 76.921 68.3886 77.0993C68.4012 77.2777 68.4495 77.4516 68.5305 77.611C68.6524 77.8511 68.8438 78.0489 69.0798 78.1786C69.3158 78.3083 69.5854 78.364 69.8534 78.3383C70.1215 78.3125 70.3756 78.2067 70.5826 78.0345C70.7896 77.8623 70.94 77.6317 71.014 77.3728V77.3728ZM96.2513 76.0609C96.2567 75.2152 96.0948 74.3768 95.7749 73.594C95.455 72.8111 94.9834 72.0992 94.3874 71.4994C93.7913 70.8995 93.0824 70.4234 92.3016 70.0985C91.5208 69.7736 90.6835 69.6064 89.8378 69.6064C88.9921 69.6064 88.1548 69.7737 87.374 70.0986C86.5932 70.4235 85.8843 70.8996 85.2883 71.4995C84.6922 72.0995 84.2207 72.8113 83.9008 73.5942C83.581 74.3771 83.4191 75.2155 83.4245 76.0611C83.4354 77.755 84.1159 79.3757 85.3175 80.5696C86.5191 81.7635 88.1442 82.4335 89.838 82.4335C91.5319 82.4335 93.157 81.7633 94.3585 80.5694C95.5601 79.3755 96.2405 77.7547 96.2513 76.0609ZM93.571 76.0609C93.5708 77.0509 93.1774 78.0004 92.4773 78.7004C91.7773 79.4005 90.8278 79.7939 89.8378 79.7941C89.0995 79.794 88.3778 79.5751 87.764 79.1649C87.1501 78.7547 86.6717 78.1717 86.3892 77.4896C86.1067 76.8075 86.0328 76.0569 86.1768 75.3328C86.3209 74.6087 86.6764 73.9436 87.1984 73.4215C87.7205 72.8995 88.3856 72.5439 89.1097 72.3999C89.8338 72.2559 90.5844 72.3298 91.2665 72.6123C91.9486 72.8948 92.5316 73.3732 92.9418 73.987C93.352 74.6009 93.571 75.3226 93.571 76.0609V76.0609ZM10.4135 82.4744C11.2558 82.4745 12.0898 82.3087 12.868 81.9864C13.6462 81.6641 14.3532 81.1917 14.9488 80.5962C15.5444 80.0006 16.0168 79.2935 16.3391 78.5153C16.6613 77.7372 16.8271 76.9031 16.827 76.0609C16.8271 75.2186 16.6613 74.3846 16.339 73.6064C16.0167 72.8282 15.5442 72.1211 14.9486 71.5256C14.353 70.93 13.646 70.4576 12.8678 70.1353C12.0896 69.8131 11.2555 69.6472 10.4133 69.6473C9.57102 69.6473 8.73703 69.8132 7.95891 70.1355C7.18078 70.4578 6.47377 70.9302 5.87823 71.5258C5.28269 72.1213 4.8103 72.8284 4.48803 73.6065C4.16577 74.3846 3.99993 75.2186 4 76.0609C3.99993 76.9031 4.16577 77.7371 4.48806 78.5153C4.81034 79.2935 5.28276 80.0005 5.87832 80.5961C6.47389 81.1916 7.18094 81.6641 7.95909 81.9863C8.73725 82.3086 9.57127 82.4745 10.4135 82.4744V82.4744ZM10.4135 79.7941C9.4232 79.7941 8.47343 79.4007 7.77317 78.7004C7.0729 78.0002 6.6795 77.0504 6.6795 76.0601C6.6795 75.0698 7.0729 74.12 7.77317 73.4197C8.47343 72.7195 9.4232 72.3261 10.4135 72.3261C11.4038 72.3261 12.3536 72.7195 13.0539 73.4197C13.7541 74.12 14.1475 75.0698 14.1475 76.0601C14.1475 77.0504 13.7541 78.0002 13.0539 78.7004C12.3536 79.4007 11.4038 79.7941 10.4135 79.7941V79.7941Z" fill="#2DD0ED"></path>
<path d="M50.1719 12.8275C51.4404 12.8276 52.6805 12.4515 53.7352 11.7467C54.7899 11.0419 55.6119 10.0402 56.0972 8.86815C56.5005 7.89373 56.6574 6.83488 56.5539 5.78536C56.4504 4.73585 56.0898 3.72803 55.5039 2.85116C54.918 1.97429 54.1249 1.25541 53.1948 0.758182C52.2648 0.26095 51.2265 0.000704831 50.1719 0.000488374C48.9034 0.000272862 47.6632 0.37628 46.6084 1.08095C45.5536 1.78562 44.7315 2.78729 44.246 3.95927C43.7605 5.13124 43.6336 6.42087 43.8811 7.66502C44.1287 8.90917 44.7397 10.052 45.6368 10.9488C46.2324 11.5444 46.9394 12.0168 47.7175 12.3391C48.4957 12.6614 49.3297 12.8273 50.1719 12.8272V12.8275ZM50.1719 10.147C49.4336 10.1469 48.7119 9.9279 48.0979 9.51772C47.484 9.10755 47.0055 8.52459 46.7229 7.84252C46.5351 7.38963 46.4384 6.90415 46.4384 6.41387C46.4384 5.92358 46.5351 5.43811 46.7229 4.98521C46.9104 4.53227 47.1853 4.12071 47.532 3.77407C47.8786 3.42742 48.2902 3.15248 48.7431 2.96495C49.2532 2.75369 49.8037 2.65817 50.3552 2.68527C50.9066 2.71237 51.4451 2.86142 51.932 3.12168C52.4189 3.38194 52.842 3.74693 53.1709 4.19037C53.4998 4.63381 53.7262 5.14466 53.8339 5.68614C53.9416 6.22761 53.9279 6.78623 53.7937 7.32177C53.6596 7.85731 53.4083 8.35643 53.0581 8.78319C52.7079 9.20996 52.2674 9.55374 51.7683 9.78979C51.2692 10.0258 50.724 10.1483 50.1719 10.1483V10.147ZM51.1516 57.0741C49.9484 57.3338 48.6914 57.1051 47.6568 56.4383C46.8852 55.9409 46.2783 55.2259 45.9131 54.3837C45.5479 53.5414 45.4406 52.6098 45.605 51.7066C45.7693 50.8034 46.1978 49.9692 46.8363 49.3096C47.4748 48.6499 48.2946 48.1945 49.192 48.0008C50.3869 47.7621 51.6277 48.0027 52.6468 48.6709C53.6658 49.339 54.3812 50.381 54.6387 51.572C54.8957 52.7631 54.6742 54.0075 54.0218 55.0366C53.3694 56.0657 52.3385 56.7971 51.1516 57.0728V57.0741Z" fill="#2DD0ED"></path>
</svg>