<svg width="384" height="116" viewBox="0 0 384 116" fill="none" xmlns="http://www.w3.org/2000/svg" xmlns:xlink="http://www.w3.org/1999/xlink">
 <path d="M0 10.601C0 8.99927 0.263423 7.54825 0.790268 6.24798C1.31711 4.92887 2.04152 3.80763 2.9635 2.88425C3.9043 1.96087 5.01444 1.2542 6.29392 0.764247C7.59221 0.255447 9.01281 0.00104689 10.5557 0.00104689C12.1174 -0.0177973 13.5474 0.217759 14.8457 0.707715C16.144 1.17883 17.2636 1.87607 18.2044 2.79945C19.1452 3.72283 19.879 4.83465 20.4058 6.13491C20.9327 7.43518 21.1961 8.8862 21.1961 10.488C21.1961 12.0521 20.9327 13.4748 20.4058 14.7562C19.879 16.0377 19.1452 17.1401 18.2044 18.0634C17.2636 18.9868 16.144 19.7123 14.8457 20.24C13.5474 20.7488 12.1174 21.0126 10.5557 21.0314C9.01281 21.0314 7.59221 20.7865 6.29392 20.2965C5.01444 19.7877 3.9043 19.081 2.9635 18.1765C2.04152 17.2531 1.31711 16.1507 0.790268 14.8693C0.263423 13.5879 0 12.1651 0 10.601ZM3.72555 10.3749C3.72555 11.449 3.88548 12.4384 4.20535 13.3429C4.54404 14.2474 5.01444 15.0295 5.61655 15.689C6.21865 16.3486 6.93366 16.8668 7.76156 17.2437C8.60827 17.6206 9.54907 17.809 10.5839 17.809C11.6188 17.809 12.5596 17.6206 13.4063 17.2437C14.253 16.8668 14.9775 16.3486 15.5796 15.689C16.1817 15.0295 16.6427 14.2474 16.9625 13.3429C17.3012 12.4384 17.4706 11.449 17.4706 10.3749C17.4706 9.37616 17.3012 8.44336 16.9625 7.57651C16.6427 6.70967 16.1817 5.95589 15.5796 5.31518C14.9775 4.65562 14.253 4.14682 13.4063 3.78878C12.5596 3.41189 11.6188 3.22345 10.5839 3.22345C9.54907 3.22345 8.60827 3.41189 7.76156 3.78878C6.93366 4.14682 6.21865 4.65562 5.61655 5.31518C5.01444 5.95589 4.54404 6.70967 4.20535 7.57651C3.88548 8.44336 3.72555 9.37616 3.72555 10.3749Z" transform="translate(135.119 32) scale(2)" fill="#3291E9">
 </path>
 <path d="M25.2807 6.95465H28.4982V8.98985H28.5547C29.0439 8.16069 29.7025 7.55767 30.5304 7.18078C31.3583 6.80389 32.252 6.61545 33.2116 6.61545C34.2465 6.61545 35.1779 6.80389 36.0058 7.18078C36.8337 7.53882 37.5393 8.0382 38.1226 8.67891C38.7059 9.31963 39.148 10.0734 39.4491 10.9402C39.7501 11.8071 39.9007 12.7399 39.9007 13.7386C39.9007 14.7374 39.7407 15.6702 39.4209 16.537C39.101 17.4039 38.6494 18.1577 38.0661 18.7984C37.5016 19.4391 36.8149 19.9479 36.0058 20.3248C35.1967 20.6828 34.3124 20.8618 33.3527 20.8618C32.713 20.8618 32.1485 20.7959 31.6593 20.664C31.1701 20.5321 30.7373 20.3625 30.361 20.1552C29.9847 19.9479 29.6648 19.7312 29.4014 19.505C29.138 19.2601 28.9216 19.0245 28.7523 18.7984H28.6676V26.9674H25.2807V6.95465ZM36.5138 13.7386C36.5138 13.211 36.4197 12.7022 36.2316 12.2122C36.0622 11.7223 35.7988 11.2889 35.4413 10.912C35.1026 10.5351 34.6887 10.2336 34.1995 10.0074C33.7102 9.78131 33.1552 9.66825 32.5342 9.66825C31.9133 9.66825 31.3583 9.78131 30.869 10.0074C30.3798 10.2336 29.9565 10.5351 29.599 10.912C29.2603 11.2889 28.9969 11.7223 28.8087 12.2122C28.6394 12.7022 28.5547 13.211 28.5547 13.7386C28.5547 14.2663 28.6394 14.7751 28.8087 15.265C28.9969 15.755 29.2603 16.1884 29.599 16.5653C29.9565 16.9422 30.3798 17.2437 30.869 17.4698C31.3583 17.696 31.9133 17.809 32.5342 17.809C33.1552 17.809 33.7102 17.696 34.1995 17.4698C34.6887 17.2437 35.1026 16.9422 35.4413 16.5653C35.7988 16.1884 36.0622 15.755 36.2316 15.265C36.4197 14.7751 36.5138 14.2663 36.5138 13.7386Z" transform="translate(135.119 32) scale(2)" fill="#3291E9">
 </path>
 <path d="M46.7759 14.9258C46.8888 15.9434 47.2839 16.7349 47.9613 17.3002C48.6387 17.8656 49.4572 18.1482 50.4168 18.1482C51.2635 18.1482 51.9691 17.9786 52.5336 17.6394C53.1169 17.2814 53.6249 16.8386 54.0577 16.3109L56.4849 18.1482C55.6947 19.1282 54.8103 19.8254 53.8319 20.24C52.8535 20.6546 51.828 20.8618 50.7555 20.8618C49.7394 20.8618 48.7798 20.6922 47.8767 20.353C46.9735 20.0138 46.1926 19.5333 45.5341 18.9114C44.8755 18.2896 44.3487 17.5452 43.9535 16.6784C43.5772 15.7927 43.3891 14.8128 43.3891 13.7386C43.3891 12.6645 43.5772 11.694 43.9535 10.8272C44.3487 9.94149 44.8755 9.18771 45.5341 8.56585C46.1926 7.94398 46.9735 7.46345 47.8767 7.12425C48.7798 6.78505 49.7394 6.61545 50.7555 6.61545C51.6963 6.61545 52.5524 6.78505 53.3239 7.12425C54.1141 7.4446 54.7821 7.91571 55.3277 8.53758C55.8922 9.15945 56.325 9.93207 56.626 10.8554C56.9459 11.76 57.1058 12.8058 57.1058 13.993V14.9258H46.7759ZM53.719 12.3818C53.7002 11.3831 53.3897 10.601 52.7876 10.0357C52.1855 9.45154 51.3482 9.15945 50.2757 9.15945C49.2596 9.15945 48.4505 9.45154 47.8484 10.0357C47.2651 10.6199 46.9076 11.4019 46.7759 12.3818H53.719Z" transform="translate(135.119 32) scale(2)" fill="#3291E9">
 </path>
 <path d="M61.2811 6.95465H64.4986V9.13118H64.555C64.8749 8.45278 65.3641 7.8686 66.0227 7.37865C66.6812 6.86985 67.575 6.61545 68.7039 6.61545C69.6071 6.61545 70.3692 6.7662 70.9901 7.06771C71.6298 7.36923 72.1473 7.76496 72.5424 8.25491C72.9375 8.74487 73.2198 9.3102 73.3891 9.95091C73.5585 10.5916 73.6431 11.2606 73.6431 11.9578V20.5226H70.2563V13.6538C70.2563 13.277 70.2374 12.8624 70.1998 12.4101C70.1622 11.939 70.0587 11.5056 69.8894 11.1098C69.7388 10.6953 69.4942 10.3561 69.1555 10.0922C68.8168 9.80958 68.3559 9.66825 67.7726 9.66825C67.2081 9.66825 66.7283 9.76247 66.3332 9.95091C65.9568 10.1394 65.637 10.3938 65.3735 10.7141C65.1289 11.0345 64.9502 11.4019 64.8373 11.8165C64.7244 12.2311 64.6679 12.6645 64.6679 13.1168V20.5226H61.2811V6.95465Z" transform="translate(135.119 32) scale(2)" fill="#3291E9">
 </path>
 <path d="M88.5999 4.80638C88.2236 4.25989 87.7155 3.86416 87.0758 3.61918C86.4549 3.35536 85.7963 3.22345 85.1001 3.22345C84.6862 3.22345 84.2816 3.27056 83.8865 3.36478C83.5102 3.459 83.1621 3.60976 82.8422 3.81705C82.5412 4.02434 82.2966 4.29758 82.1084 4.63678C81.9202 4.95714 81.8261 5.34345 81.8261 5.79571C81.8261 6.47411 82.0614 6.99234 82.5318 7.35038C83.0022 7.70842 83.5854 8.01936 84.2816 8.28318C84.9778 8.547 85.7399 8.8014 86.5678 9.04638C87.3957 9.29136 88.1577 9.63056 88.8539 10.064C89.5501 10.4974 90.1334 11.0722 90.6038 11.7882C91.0742 12.5043 91.3094 13.456 91.3094 14.6432C91.3094 15.7173 91.1118 16.6595 90.7167 17.4698C90.3215 18.2613 89.7853 18.9209 89.1079 19.4485C88.4493 19.9762 87.6779 20.3719 86.7936 20.6357C85.9092 20.8995 84.9778 21.0314 83.9994 21.0314C82.7575 21.0314 81.5627 20.8242 80.415 20.4096C79.2672 19.995 78.2794 19.2978 77.4515 18.3178L80.1327 15.7173C80.5655 16.3769 81.13 16.8951 81.8261 17.272C82.5412 17.63 83.2938 17.809 84.0841 17.809C84.498 17.809 84.912 17.7525 85.3259 17.6394C85.7399 17.5264 86.1162 17.3568 86.4549 17.1306C86.7936 16.9045 87.0664 16.6218 87.2734 16.2826C87.4803 15.9246 87.5838 15.5194 87.5838 15.0672C87.5838 14.3322 87.3486 13.7669 86.8782 13.3712C86.4078 12.9754 85.8245 12.6457 85.1283 12.3818C84.4322 12.0992 83.6701 11.8354 82.8422 11.5904C82.0143 11.3454 81.2523 11.0156 80.5561 10.601C79.8599 10.1676 79.2766 9.60229 78.8062 8.90505C78.3358 8.18896 78.1006 7.23731 78.1006 6.05011C78.1006 5.01367 78.3076 4.11856 78.7215 3.36478C79.1543 2.611 79.7094 1.98914 80.3867 1.49918C81.0829 0.990381 81.8732 0.613492 82.7575 0.368514C83.6419 0.123536 84.545 0.00104689 85.467 0.00104689C86.5207 0.00104689 87.5368 0.161225 88.5152 0.481581C89.5124 0.801937 90.4062 1.32958 91.1965 2.06451L88.5999 4.80638Z" transform="translate(135.119 32) scale(2)" fill="#3291E9">
 </path>
 <path d="M98.4199 14.9258C98.5328 15.9434 98.9279 16.7349 99.6053 17.3002C100.283 17.8656 101.101 18.1482 102.061 18.1482C102.907 18.1482 103.613 17.9786 104.178 17.6394C104.761 17.2814 105.269 16.8386 105.702 16.3109L108.129 18.1482C107.339 19.1282 106.454 19.8254 105.476 20.24C104.497 20.6546 103.472 20.8618 102.399 20.8618C101.383 20.8618 100.424 20.6922 99.5206 20.353C98.6175 20.0138 97.8366 19.5333 97.178 18.9114C96.5195 18.2896 95.9926 17.5452 95.5975 16.6784C95.2212 15.7927 95.033 14.8128 95.033 13.7386C95.033 12.6645 95.2212 11.694 95.5975 10.8272C95.9926 9.94149 96.5195 9.18771 97.178 8.56585C97.8366 7.94398 98.6175 7.46345 99.5206 7.12425C100.424 6.78505 101.383 6.61545 102.399 6.61545C103.34 6.61545 104.196 6.78505 104.968 7.12425C105.758 7.4446 106.426 7.91571 106.972 8.53758C107.536 9.15945 107.969 9.93207 108.27 10.8554C108.59 11.76 108.75 12.8058 108.75 13.993V14.9258H98.4199ZM105.363 12.3818C105.344 11.3831 105.034 10.601 104.432 10.0357C103.829 9.45154 102.992 9.15945 101.92 9.15945C100.904 9.15945 100.094 9.45154 99.4924 10.0357C98.9091 10.6199 98.5516 11.4019 98.4199 12.3818H105.363Z" transform="translate(135.119 32) scale(2)" fill="#3291E9">
 </path>
 <path d="M121.392 18.657H121.308C120.818 19.4297 120.197 19.995 119.445 20.353C118.692 20.6922 117.864 20.8618 116.961 20.8618C116.34 20.8618 115.729 20.777 115.127 20.6074C114.543 20.4378 114.016 20.1834 113.546 19.8442C113.094 19.505 112.727 19.081 112.445 18.5722C112.163 18.0634 112.022 17.4698 112.022 16.7914C112.022 16.0565 112.154 15.4346 112.417 14.9258C112.68 14.3982 113.029 13.9648 113.461 13.6256C113.913 13.2675 114.43 12.9849 115.014 12.7776C115.597 12.5703 116.199 12.4195 116.82 12.3253C117.46 12.2122 118.099 12.1463 118.739 12.1274C119.379 12.0898 119.981 12.0709 120.545 12.0709H121.392V11.7034C121.392 10.8554 121.101 10.2242 120.517 9.80958C119.934 9.37616 119.191 9.15945 118.288 9.15945C117.573 9.15945 116.905 9.29136 116.284 9.55518C115.663 9.80016 115.127 10.1394 114.675 10.5728L112.897 8.79198C113.649 8.01936 114.524 7.46345 115.522 7.12425C116.538 6.78505 117.582 6.61545 118.654 6.61545C119.614 6.61545 120.423 6.72851 121.082 6.95465C121.74 7.16194 122.286 7.43518 122.719 7.77438C123.151 8.11358 123.481 8.50931 123.707 8.96158C123.951 9.395 124.121 9.83785 124.215 10.2901C124.327 10.7424 124.393 11.1852 124.412 11.6186C124.431 12.0332 124.44 12.4007 124.44 12.721V20.5226H121.392V18.657ZM121.195 14.4453H120.489C120.019 14.4453 119.492 14.4642 118.909 14.5018C118.325 14.5395 117.77 14.6338 117.243 14.7845C116.735 14.9164 116.302 15.1237 115.945 15.4064C115.587 15.6702 115.409 16.0471 115.409 16.537C115.409 16.8574 115.475 17.1306 115.606 17.3568C115.757 17.5641 115.945 17.7431 116.171 17.8938C116.397 18.0446 116.651 18.1577 116.933 18.233C117.215 18.2896 117.497 18.3178 117.78 18.3178C118.946 18.3178 119.802 18.0446 120.348 17.4981C120.912 16.9328 121.195 16.1696 121.195 15.2085V14.4453Z" transform="translate(135.119 32) scale(2)" fill="#3291E9">
 </path>
 <rect width="58" height="58" rx="29" transform="translate(116) scale(-2 2)" fill="#3291E9">
 </rect>
 <rect width="58" height="58" rx="29" transform="translate(116) scale(-2 2)" fill="url(#paint0_linear)">
 </rect>
 <g opacity="0.5" transform="scale(2)">
  <path fill-rule="evenodd" clip-rule="evenodd" d="M47.8188 7.05188C46.6938 8.23254 45.3071 9.38745 43.6412 10.4972C38.0594 14.2157 33.6055 19.528 33.4813 30.1419C33.3437 41.8977 38.6627 47.7509 44.9654 53.1281C40.3739 56.2056 34.8546 58 28.9174 58C12.9467 58 0 45.0162 0 29C0 12.9838 12.9467 0 28.9174 0C36.1432 0 42.75 2.65784 47.8188 7.05188Z" fill="#3291E9">
  </path>
  <path fill-rule="evenodd" clip-rule="evenodd" d="M47.8188 7.05188C46.6938 8.23254 45.3071 9.38745 43.6412 10.4972C38.0594 14.2157 33.6055 19.528 33.4813 30.1419C33.3437 41.8977 38.6627 47.7509 44.9654 53.1281C40.3739 56.2056 34.8546 58 28.9174 58C12.9467 58 0 45.0162 0 29C0 12.9838 12.9467 0 28.9174 0C36.1432 0 42.75 2.65784 47.8188 7.05188Z" fill="url(#paint1_linear)">
  </path>
 </g>
 <g opacity="0.5" transform="scale(2)">
  <path fill-rule="evenodd" clip-rule="evenodd" d="M36.1514 0.914795C35.3777 3.0177 34.035 5.2406 32.0482 7.53455C27.6537 12.6083 24.7688 18.9177 27.459 29.181C30.8602 42.1567 39.0762 45.8248 47.8345 49.735C48.1297 49.8668 48.4255 49.9989 48.7218 50.1316C43.5473 55.0107 36.5804 58 28.9174 58C12.9467 58 0 45.0162 0 29C0 12.9838 12.9467 0 28.9174 0C31.4154 0 33.8394 0.317627 36.1514 0.914795Z" fill="#3291E9">
  </path>
  <path fill-rule="evenodd" clip-rule="evenodd" d="M36.1514 0.914795C35.3777 3.0177 34.035 5.2406 32.0482 7.53455C27.6537 12.6083 24.7688 18.9177 27.459 29.181C30.8602 42.1567 39.0762 45.8248 47.8345 49.735C48.1297 49.8668 48.4255 49.9989 48.7218 50.1316C43.5473 55.0107 36.5804 58 28.9174 58C12.9467 58 0 45.0162 0 29C0 12.9838 12.9467 0 28.9174 0C31.4154 0 33.8394 0.317627 36.1514 0.914795Z" fill="url(#paint2_linear)">
  </path>
 </g>
 <g opacity="0.3" transform="translate(0 36.5269) scale(2)">
  <path fill-rule="evenodd" clip-rule="evenodd" d="M2.04652 0C2.13884 0.378784 2.24104 0.762817 2.35338 1.15186C6.07399 14.0385 16.4482 17.1005 27.5071 20.3647C35.2392 22.647 43.3061 25.028 49.6675 30.9348C44.4124 36.3634 37.0577 39.7366 28.9174 39.7366C12.9467 39.7366 0 26.7528 0 10.7366C0 6.9436 0.726105 3.32068 2.04652 0Z" fill="#3291E9">
  </path>
  <path fill-rule="evenodd" clip-rule="evenodd" d="M2.04652 0C2.13884 0.378784 2.24104 0.762817 2.35338 1.15186C6.07399 14.0385 16.4482 17.1005 27.5071 20.3647C35.2392 22.647 43.3061 25.028 49.6675 30.9348C44.4124 36.3634 37.0577 39.7366 28.9174 39.7366C12.9467 39.7366 0 26.7528 0 10.7366C0 6.9436 0.726105 3.32068 2.04652 0Z" fill="url(#paint3_linear)">
  </path>
 </g>
 <path d="M20.8753 41.8698C32.4044 41.8698 41.7505 32.4969 41.7505 20.9349C41.7505 9.37288 32.4044 0 20.8753 0C9.34618 0 0 9.37288 0 20.9349C0 32.4969 9.34618 41.8698 20.8753 41.8698Z" transform="translate(16 16.4734) scale(2)" fill="white">
 </path>
 <path d="M1.41246 4.2724e-08V1.31038L-3.39407e-07 1.11998V4.2724e-08C0.211312 0.123198 0.444868 0.190397 0.700667 0.190397C0.956466 0.190397 1.20114 0.123198 1.41246 4.2724e-08Z" transform="translate(57.1777 37.5466) scale(2)" fill="#24D7D0">
 </path>
 <path d="M1.41246 0.0268114V3.27477H0V0.0156109C0.433746 -0.00678877 0.911979 -0.00678809 1.41246 0.0268114Z" transform="translate(57.0856 65.1566) scale(2)" fill="#24D7D0">
 </path>
 <path d="M2.80267 1.42238C2.80267 1.94877 2.52462 2.40797 2.102 2.65436C1.89069 2.77756 1.65713 2.84476 1.40133 2.84476C1.14553 2.84476 0.900857 2.77756 0.700667 2.65436C0.278043 2.40797 0 1.94877 0 1.42238C0 0.638391 0.633936 0 1.41245 0C2.19097 0 2.80267 0.638391 2.80267 1.42238Z" transform="translate(55.7064 32.2603) scale(2)" fill="#14869F">
 </path>
 <path d="M5.9962 1.46876V7.62868C5.9962 7.71827 5.92947 7.78547 5.8405 7.78547H0.157311C0.046094 7.78547 -0.0317579 7.67347 0.0127288 7.56148L2.90437 0.102379C2.93773 0.0127804 3.03783 -0.0208187 3.11568 0.0127809L5.90723 1.32316C5.96283 1.34556 5.9962 1.41276 5.9962 1.46876Z" transform="translate(39.4019 47.7576) scale(2)" fill="#1EB6D1">
 </path>
 <path d="M6.05526 7.7173C5.68825 8.57969 5.16553 9.38608 4.57608 10.1253C4.14233 10.6629 3.6641 11.1669 3.16362 11.6261C2.57556 12.1767 1.97793 12.6695 1.39737 13.0955C1.32238 13.1506 1.20309 13.1171 1.25069 13.0372V13.0372C1.52873 12.4436 2.0737 10.8197 1.9736 7.31411C1.86239 3.51736 0.538904 1.05339 0.0273058 0.247006C-0.050546 0.135007 0.0495494 -0.0105909 0.18301 0.00060896L3.16362 0.392604L4.57608 0.583001L6.62247 0.851797V0.851797C6.6464 0.851797 6.65916 0.872794 6.66624 0.895655C6.77384 1.24332 7.58212 4.11892 6.05526 7.7173Z" transform="translate(50.8504 39.0237) scale(2)" fill="#6BD9FC">
 </path>
 <path d="M9.27549 7.88469C9.27549 12.9022 7.50714 13.3838 7.06227 13.7422C6.99554 13.787 6.90657 13.787 6.85096 13.731C6.55068 13.4398 5.76104 12.5774 4.01493 12.331C3.78137 12.2974 3.54782 12.275 3.31426 12.2526C2.82491 12.219 2.34668 12.219 1.90181 12.2302C1.14553 12.2638 0.522719 12.3534 0.155704 12.4094V12.4094C0.0588572 12.4257 0.0653975 12.2953 0.144371 12.237C0.329803 12.0999 0.515235 11.9558 0.700667 11.8046C0.767397 11.7486 0.834126 11.7038 0.900857 11.6478C1.23451 11.379 1.56816 11.0878 1.90181 10.7743C1.96854 10.7183 2.03527 10.6511 2.09088 10.5951C2.14649 10.5391 2.20209 10.4831 2.26882 10.4271C2.29337 10.4023 2.31792 10.381 2.3406 10.3594C2.37679 10.3248 2.40739 10.289 2.44121 10.2521V10.2521C2.47503 10.2152 2.50906 10.1741 2.54413 10.1384C2.59323 10.0884 2.64234 10.0368 2.69145 9.97906C2.74706 9.92307 2.79154 9.86707 2.84715 9.81107C2.90276 9.75507 2.95837 9.68787 3.00286 9.63187C3.10295 9.51987 3.20305 9.39667 3.30314 9.27347C3.34763 9.20627 3.40324 9.15028 3.44772 9.08308C3.49221 9.01588 3.54782 8.95988 3.59231 8.89268C3.63679 8.82548 3.68128 8.76948 3.72577 8.70228C3.77025 8.63508 3.81474 8.57908 3.85923 8.51188C3.88147 8.47828 3.91484 8.43348 3.93708 8.39989C3.97044 8.35509 3.99269 8.31029 4.02605 8.26549C4.09278 8.16469 4.15951 8.06389 4.21512 7.96309C4.23736 7.91829 4.27073 7.87349 4.29297 7.82869V7.82869C4.33895 7.7361 4.39934 7.65078 4.44428 7.55768C4.44575 7.55464 4.44721 7.55165 4.44868 7.5487C4.53765 7.3919 4.6155 7.2239 4.69335 7.0671C4.72672 6.9999 4.76008 6.93271 4.78233 6.86551C6.32898 3.22047 5.47955 0.31707 5.37946 0.0215248C5.37583 0.0108106 5.38299 0.000202274 5.39101 0.00818043V0.00818043C5.39223 0.00939691 5.39427 0.0113184 5.3958 0.0121087C5.76152 0.200618 9.27549 3.30032 9.27549 7.88469Z" transform="translate(53.3741 40.7048) scale(2)" fill="#1EB6D1">
 </path>
 <path d="M25.3241 0.373224C25.3241 0.507622 25.2462 0.64202 25.1128 0.709219V0.709219C23.546 1.46681 22.5691 3.02098 21.9941 4.66354C21.7342 5.40601 21.4005 6.11287 21.0021 6.77637C20.7424 7.20887 20.2442 7.4823 19.7855 7.27233V7.27233L19.0737 6.95873C18.5399 6.72354 17.9615 6.72354 17.4277 6.95873L16.7159 7.27233C16.1821 7.50753 15.6037 7.50753 15.0699 7.27233L14.3581 6.95873C13.8243 6.72354 13.2459 6.72354 12.7121 6.95873L12.0003 7.27233C11.4665 7.50753 10.8881 7.50753 10.3543 7.27233L9.64251 6.95873C9.10867 6.72354 8.53034 6.72354 7.9965 6.95873L7.28471 7.27233C6.75087 7.50753 6.16142 7.50753 5.6387 7.27233L4.92691 6.95873C4.39307 6.72354 3.80362 6.72354 3.2809 6.95873L2.62472 7.24993V7.24993C2.31343 7.38708 1.96145 7.23167 1.77706 6.94582C0.638352 5.18049 0 3.09888 0 0.866016C0 0.709218 0 0.552421 0.0111217 0.395623C0.0111217 0.306024 0.0889735 0.238826 0.166825 0.238826H6.19478C6.28376 0.238826 6.35049 0.306024 6.35049 0.395623V1.16841C6.35049 2.2548 7.2291 3.13959 8.3079 3.13959H16.8716C17.817 3.13959 18.5955 2.4676 18.7845 1.58281C18.7957 1.51561 18.8624 1.45961 18.9402 1.45961V1.45961C20.8434 1.45961 22.7221 1.02999 24.4361 0.202778L24.7791 0.0372282C24.9018 -0.0245161 25.0455 -0.00648059 25.1522 0.0693437C25.2501 0.138947 25.3241 0.253107 25.3241 0.373224V0.373224Z" transform="translate(34 65.4045) scale(2)" fill="#14869F">
 </path>
 <defs>
  <linearGradient id="paint0_linear" x2="1" gradientUnits="userSpaceOnUse" gradientTransform="matrix(58 58 -545.75 88.5729 272.875 -44.2864)">
   <stop offset="0.048" stop-color="#1F66A9">
   </stop>
   <stop offset="0.685348" stop-color="#3291E9">
   </stop>
  </linearGradient>
  <linearGradient id="paint1_linear" x2="1" gradientUnits="userSpaceOnUse" gradientTransform="matrix(-71.836 -7.39043 -1.87601 160.271 46.343 -3.10209)">
   <stop stop-color="#E9A332" stop-opacity="0">
   </stop>
   <stop offset="0.0001" stop-color="#23DC7D" stop-opacity="0">
   </stop>
   <stop offset="1" stop-color="#23DC7D">
   </stop>
  </linearGradient>
  <linearGradient id="paint2_linear" x2="1" gradientUnits="userSpaceOnUse" gradientTransform="matrix(-71.1866 12.0393 40.6313 155.011 24.3905 -29.4596)">
   <stop stop-color="#E9A332" stop-opacity="0">
   </stop>
   <stop offset="0.0001" stop-color="#23DC7D" stop-opacity="0">
   </stop>
   <stop offset="1" stop-color="#23DC7D">
   </stop>
  </linearGradient>
  <linearGradient id="paint3_linear" x2="1" gradientUnits="userSpaceOnUse" gradientTransform="matrix(88.4485 40.5135 17.9137 -131.803 -26.3883 98.3667)">
   <stop stop-color="#23DC7D">
   </stop>
   <stop offset="1" stop-color="#23DC7D" stop-opacity="0">
   </stop>
  </linearGradient>
 </defs>
</svg>