<svg version="1.1" id="Layer_1" xmlns:x="ns_extend;" xmlns:i="ns_ai;" xmlns:graph="ns_graphs;" xmlns="http://www.w3.org/2000/svg" xmlns:xlink="http://www.w3.org/1999/xlink" x="0px" y="0px" viewBox="0 0 397.9 138.2" style="enable-background:new 0 0 397.9 138.2;" xml:space="preserve">
 <style type="text/css">
  .st0{fill:#FFFFFF;}
 </style>
 <metadata>
  <sfw xmlns="ns_sfw;">
   <slices>
   </slices>
   <sliceSourceBounds bottomLeftOrigin="true" height="138.2" width="397.9" x="1.5" y="-269.3">
   </sliceSourceBounds>
  </sfw>
 </metadata>
 <g>
  <g>
   <path class="st0" d="M328.4,138.2c-15.8,0-30.9-5.2-43.1-14.9c-12.2,9.6-27.3,14.9-43.1,14.9s-30.9-5.2-43.1-14.9
			c-12.2,9.6-27.3,14.9-43.1,14.9s-30.9-5.2-43.1-14.9c-12.2,9.6-27.3,14.9-43.1,14.9c-18.4,0-35.7-7-48.8-19.8
			C7.7,105.6,0.3,88.5,0,70.3C-0.3,52,6.5,34.7,19.2,21.4C31.8,8.2,48.9,0.6,67.3,0l0.3,0l4.4,0c15,0.5,29.2,5.7,40.8,14.8
			C124.3,5.7,138.5,0.5,153.5,0l0.3,7.8V0l4.4,0c15,0.5,29.2,5.7,40.8,14.8C210.6,5.7,224.7,0.5,239.8,0l0.3,0l4.4,0
			c15,0.5,29.2,5.7,40.8,14.8C296.8,5.7,311,0.5,326.1,0l0.3,7.8V0l4.4,0c18.3,0.6,35.4,8.2,48.1,21.4
			c12.7,13.2,19.5,30.6,19.2,48.8c-0.3,18.3-7.7,35.4-20.8,48.2C364,131.2,346.7,138.2,328.4,138.2z M296.7,112
			c8.9,6.5,19.9,10.4,31.7,10.4c29.1,0,53.2-23.5,53.6-52.3c0.5-28.8-22.7-53-51.7-54.1h-3.8c-11.1,0.4-21.3,4.2-29.7,10.3
			c10,12.5,15.2,27.9,15,44C311.4,85.6,306.2,100.1,296.7,112z M210.5,112c8.9,6.5,19.9,10.4,31.7,10.4s22.7-3.9,31.6-10.4
			c-9.4-11.8-14.7-26.4-15-41.7c-0.3-16.1,5-31.5,15-44c-8.4-6.1-18.6-9.9-29.7-10.3h-3.8c-11.1,0.4-21.3,4.2-29.7,10.3
			c10,12.5,15.2,27.9,15,44C225.2,85.6,219.9,100.1,210.5,112z M124.2,112c8.9,6.5,19.9,10.4,31.7,10.4c11.8,0,22.7-3.9,31.6-10.4
			c-9.4-11.8-14.7-26.4-15-41.7c-0.3-16.1,5-31.5,15-44c-8.4-6.1-18.6-9.9-29.7-10.3h-3.8c-11.1,0.4-21.3,4.2-29.7,10.3
			c10,12.5,15.2,27.9,15,44C138.9,85.6,133.6,100.1,124.2,112z M67.7,15.9c-29,1-52.2,25.3-51.7,54.1c0.5,28.8,24.5,52.3,53.6,52.3
			c11.8,0,22.7-3.9,31.6-10.4c-9.4-11.8-14.7-26.4-15-41.7c-0.3-16.1,5-31.5,15-44c-8.4-6.1-18.6-9.9-29.7-10.3H67.7z M199,37.6
			c-6.8,9.1-10.7,20.3-10.5,32.4c0.2,11.4,4.1,22,10.5,30.6c6.4-8.6,10.3-19.2,10.5-30.6C209.7,57.9,205.7,46.7,199,37.6z
			 M112.7,37.6c-6.8,9.1-10.7,20.3-10.5,32.4c0.2,11.4,4.1,22,10.5,30.6C119.1,92,123,81.4,123.2,70
			C123.4,57.9,119.5,46.7,112.7,37.6z M285.2,37.6c-6.8,9.1-10.7,20.3-10.5,32.4c0.2,11.4,4.1,22,10.5,30.6
			c6.4-8.6,10.3-19.2,10.5-30.6C296,57.9,292,46.7,285.2,37.6z">
   </path>
  </g>
 </g>
</svg>