<svg version="1.1" id="Layer_1" xmlns="http://www.w3.org/2000/svg" xmlns:xlink="http://www.w3.org/1999/xlink" x="0px" y="0px" viewBox="0 0 91.8 94.9" style="enable-background:new 0 0 91.8 94.9;" xml:space="preserve">
 <style type="text/css">
  .st0{fill:#776D65;}
 </style>
 <g>
  <g>
   <path class="st0" d="M62.3,38.1c-0.5-0.3-1.1-0.7-1.4-0.9c-1.7,0.7-3.3,2.2-4.7,3.7c-3.2,3.4-2.9,5.3-6.4,6.6
			c-0.9,0.3-1.9,0.7-3.3,1c-0.8-2.4-2.8-4.9-4.9-4.9c-1.5,0-3.1,0.8-5.1,1.6c-2.3,1-4.4,2.2-5,2.6l0.9,1.2c0.7-0.4,2.6-1.3,4.6-2.2
			c1.7-0.7,3.2-1.3,4.3-1.3c1.7,0,2.8,1.9,3.4,3.4c-2.2,0.5-5.8,0.6-6.9,0.6c-0.5,0-0.7,0.1-0.9,0.2c-0.2,0.1-0.3,0.4-0.4,0.8
			l-0.1,0.5h1.2c6.1,0,11.8-1,15.4-3.2c0.5,0.1,1,0.2,1.6,0.2c2.1,0,4.3-1.1,5.6-2.2c0.5-0.4,0.6-0.7,0.6-1.1c0-0.2,0-0.3,0-0.5
			l-0.1-0.6c-1.9,1.5-3.6,2.7-5.6,2.7c-0.4,0-0.6,0-0.8-0.1C56.2,43.2,58,40.4,62.3,38.1">
   </path>
   <path class="st0" d="M49.4,41.8c-1.4,0-1.2-2.3-1.3-4.2c-4.9,0.5-7.9,1.9-11.2,3.7l0.4,1.5c3-1.8,5.9-2.8,9-3.2
			c0,1.8,0.8,4.2,2.8,4.2c2.2,0,4.8-3.4,7.9-7.4l0.8-1.1c-0.4-0.3-0.9-0.6-1.2-0.9C53.4,38.5,50.7,41.8,49.4,41.8">
   </path>
   <path class="st0" d="M38.8,16.8c-0.5,0-1-0.1-1.6-0.2c-0.5-0.1-1-0.2-1.7-0.2c-1.3,0-2.7,0.5-3.6,1.4c-1.7,1.6-1.8,3.4-1.9,5
			c-0.1,2.1-0.5,2.6-1.7,4.1c-0.9,1.2-2.2,2.9-3.2,4.6c0.3,0.1,1.3,0.7,1.7,0.9c1.1-1.7,2.7-3.8,3.7-5.3c0.9-1.4,1.3-2,1.4-3.9
			c0-0.3,0-0.6,0-0.9c0.1-1,0.3-2,1.3-2.9c0.7-0.7,1.7-1.1,2.7-1.1c1,0,1.5,0.3,2.4,0.3c0.6,0,1-0.1,1.4-0.3l0.3-0.1l-0.7,1.8
			l1.7,0.7c-1.1,0.7-3.6,3.7-3.6,7.2c0,1.3,0.2,2.5,0.5,3.5c0,0.1,0.1,0.2,0.3,0.2c0.2,0,0.3-0.1,0.3-0.3l0-0.4
			c0.1-1.1,0.1-2.8,0.6-4.3c0.7-2.6,2.7-5,4.6-6.2L41,19.1l1.2-2.9l-1.3,0.3C40.1,16.6,39.5,16.8,38.8,16.8">
   </path>
   <path class="st0" d="M49.3,4.7c-1.1,0-1.3,1-1.3,1.6c0,0.5,0.2,1,0.7,1c0.5,0,1-0.3,1.5-0.7C50.7,6.2,51,5.9,51,5.6
			c0-0.3-0.3-0.5-0.6-0.7C50,4.8,49.7,4.7,49.3,4.7">
   </path>
   <polygon class="st0" points="49.8,25.2 42.9,25.2 42.1,26.7 50.4,26.7 		">
   </polygon>
   <path class="st0" d="M33.3,11.5c0.4-0.3,0.8-0.6,0.8-1c0-0.2-0.1-0.4-0.3-0.5c-0.3-0.3-0.7-0.4-1.1-0.4c-0.8,0-1.2,0.8-1.2,1.5
			c0,0.5,0.3,0.8,0.8,0.8C32.6,11.8,33,11.7,33.3,11.5">
   </path>
   <path class="st0" d="M81.4,41.2l0.8,0.5c0.1,0.1,0.2,0.1,0.3,0.1c0.2,0,0.3-0.2,0.3-0.3c0-0.1,0-0.2-0.1-0.2
			c-2.4-2.2-4.9-4.8-7.3-7.3c-1.9-2-3.8-4.1-5.5-6.2c-0.1-0.1-0.2-0.2-0.3-0.2c-0.2,0-0.3,0.1-0.3,0.3c0,0.2,0.2,0.5,0.6,1.2
			c1.2,2.1,2.8,4.2,4.6,6.2C76.5,37.4,78.9,39.4,81.4,41.2">
   </path>
   <path class="st0" d="M69.3,94.6h1.9c0.5,0,0.8-0.2,1.1-0.5c0.2-0.2,0.3-0.6,0.3-1V71.9c0-0.4-0.1-0.7-0.3-1
			c-0.2-0.3-0.6-0.5-1.1-0.5h-1.9c-0.5,0-0.8,0.2-1.1,0.5c-0.2,0.2-0.3,0.6-0.3,1v21.2c0,0.4,0.1,0.7,0.3,1
			C68.5,94.4,68.8,94.6,69.3,94.6">
   </path>
   <path class="st0" d="M37.5,19.9c-0.3-0.2-0.6-0.3-0.9-0.3c-0.7,0-1,0.4-1.1,0.8c-0.1,0.2-0.1,0.4-0.1,0.6c0,0.6,0.3,1,0.7,1
			c0.6,0,1.7-0.8,1.7-1.5C37.8,20.3,37.7,20,37.5,19.9">
   </path>
   <path class="st0" d="M15.4,40.4l0.1,0.7c0,0.3,0.2,0.5,0.4,0.6c0.3,0.1,0.7,0.2,1.4,0.2c1.8,0,3.2-0.2,4-0.4c2,3,4.7,4.1,7.4,4.1
			c2.3,0,4.5-0.8,6.7-2L35,42c-2.1,1.2-4.4,2-6.3,2c-2.2,0-4.1-0.9-5.8-3.4c-0.7-1-1.2-2.3-1.9-3.5c-0.8-1.4-1.6-2.1-3.1-2.1
			c-1.3,0-2.7,0.6-4,1.2l0.1,0.3c0.1,0.5,0.3,0.9,0.8,0.9c0.2,0,0.4-0.1,0.5-0.1c0.8-0.2,1.3-0.5,2.1-0.5c1.2,0,1.8,0.7,2.6,2.5
			l0.3,0.6c-0.8,0.3-2.8,0.4-4.3,0.4H15.4z">
   </path>
   <path class="st0" d="M91.4,86.8c0.3-0.3,0.4-0.6,0.4-1.3c0-2.1-0.7-4.3-2.1-6c-1.4-1.7-3.6-2.9-6.7-2.9c-5.6,0-8.8,4.4-8.8,9
			c0,4.9,3.4,9.3,8.8,9.3c2.7,0,5.4-1,6.9-2.8c0.7-0.8,1.2-1.9,1.2-2.5c0-0.2,0-0.4-0.2-0.6c-0.1-0.2-0.3-0.3-0.7-0.3h-2.6
			c-0.5,0-0.9,0.2-1.1,0.6c-0.8,1.1-1.9,1.7-3.5,1.7c-2.4,0-4-1.8-4.1-3.9h11.3C90.8,87.1,91.2,87,91.4,86.8 M79,83.7
			c0.2-2,1.7-3.5,4-3.5c2.3,0,3.8,1.5,4,3.5H79z">
   </path>
   <path class="st0" d="M78.6,1.9c-1,2-5,8.3-7.2,10.9l1.2,1.3c1.2-1.3,2.4-3.5,3.8-5.7h0.3c0,0.1,0,0.2,0,0.4c0,1.8,0.9,3.2,3.3,3.2
			c1.4,0,3.7-0.7,5.8-1.4c1.7-0.6,3.3-1.2,4.1-1.4V7.3c-0.9,0.3-2.8,1-4.7,1.7c-2,0.7-4,1.3-5.1,1.3c-1.3,0-1.6-0.7-1.6-1.7
			c0-2,1.3-5,2.1-6.6H78.6z">
   </path>
   <path class="st0" d="M62.7,8.5c-1.6-1.6-2.9-3.4-3.7-4.2C57.3,2.4,55,0,51.2,0c-3.6,0-6,2.4-6.8,4.4C44.2,5,44,5.7,43.9,6
			c-0.4,0.6-2,3.3-2.6,4.4h3l-1.5,2.8c1.7-0.4,2.9-0.7,4.5-0.7c1.4,0,2.5,0.3,2.9,1.2c0.8,1.7,0.8,6.8,2.3,10.6
			c1.3,3.6,4.6,7.1,8.2,9.8l0.2,0.1c0.2,0,0.3-0.1,0.3-0.3c0-0.1,0-0.2-0.1-0.2c-3-3-5.5-6.4-6.9-10.1C52.9,20,53.1,15,52,12.7
			c-0.8-1.5-2.4-1.9-3.9-1.9c-1.2,0-2.3,0.2-2.8,0.4L46.6,9h-2.2c0.5-0.8,1-1.6,1.2-2c0.2-0.4,0.3-0.9,0.5-1.5
			c0.8-2.1,2.7-3.5,5.1-3.5c3,0,4.8,2,6.6,3.9c0.8,0.9,2.1,2.8,3.7,4.2c1.1,1,3.1,2.1,6.2,5.2c1.8,1.8,3.9,4.2,6,7.5
			c7.8,11.4,13,21.5,15.8,29.4l0,0c-8.2-5.6-15.3-10.8-21-17.3c-4.1-4.6-7.6-10-10.7-16.8c-0.2-0.5-0.4-0.9-0.6-1.3
			c-0.1-0.2-0.2-0.2-0.3-0.2c-0.2,0-0.3,0.1-0.3,0.3c0,0.2,0.1,0.6,0.3,1.3c1.6,7.1,6.2,13.4,11,18.7c4.8,5.2,10.3,9.7,14.8,13
			l3.5,10c0.1,0.2,0.2,0.5,0.2,0.7c0,0.2,0,0.3-0.2,0.4c-0.1,0.1-0.2,0.1-0.5,0.1h-1.1c-0.5,0-0.6-0.1-0.8-0.2
			c-0.2-0.1-0.3-0.3-0.4-0.6c-0.3-0.9-2.2-6.2-2.5-7.3c-0.1-0.2-0.2-0.3-0.3-0.3c-0.2,0-0.3,0.1-0.3,0.3c0,0.1,0,0.3,0.1,0.7
			c0.5,2.4,1,5.1,1.2,6.1c0.1,0.5,0.2,0.9,0.2,1.2c0,0.3-0.1,0.5-0.3,0.7L80.5,63c-0.3,0.3-0.4,0.3-0.6,0.3c-0.3,0-0.5-0.2-0.6-0.6
			c-1.2-5.8-3.1-12.9-3.6-14.8c-0.1-0.4-0.2-0.7-0.5-0.7c-0.2,0-0.3,0.2-0.3,0.4c0,0.1,0,0.3,0.1,0.5c0.3,2,1.5,9.5,2.8,16.3
			c0.2,1.2,0.7,1.8,1.7,1.8c0.5,0,0.9-0.2,1.3-0.6c0.7-0.7,0.9-0.8,1.7-1.6c0.6-0.5,1-0.8,1.9-0.8h2.4c0.6,0,0.9-0.1,1.1-0.4
			c0.3-0.2,0.4-0.6,0.4-1.1c0-0.5-0.1-0.9-0.3-1.4c-0.6-1.7-2.6-7.2-3.2-8.8l0,0c2,1.5,5,3.5,6.3,3.5c0.4,0,0.6-0.2,0.6-0.8
			c0-3-5-15.2-16.3-32.1C69.5,13,64.2,9.9,62.7,8.5">
   </path>
   <path class="st0" d="M84.4,16.1c1.9-0.8,5.4-2.2,7.4-2.9v-2c-4,1.5-11.1,4.4-15.9,7c0.1,0.2,1,1.3,1.1,1.5c2-0.8,3.9-1.4,5.5-1.4
			c2.3,0,4.2,0,7.4-0.7v-1.5c-1.8,0.3-3.7,0.7-4.9,0.7c-0.7,0-0.9-0.1-0.9-0.3C84,16.4,84.1,16.3,84.4,16.1">
   </path>
  </g>
  <g>
   <path class="st0" d="M38,7.5c-1.1,0-1.8,0-2.8-0.5c-1.3-0.6-2-0.9-3.1-0.9c-1.4,0-2.7,0.5-3.7,1.5c-1.2,1.1-1.6,2.6-2,4.2
			c-0.3,1.3-0.7,2.7-1.6,3.9c-0.8,1.1-1.3,1.6-3,3.7c-2.3,2.7-3.5,4.9-5.5,9.7c0.3,0,0.8-0.1,1.3-0.1c0.3,0,0.5,0,0.8,0l0.2-0.5
			c1.1-2.4,2.6-5.6,4.7-8.1l0.7-0.9c2.2-2.5,3.5-4,4.4-7.5c0.3-1.2,0.5-2.3,1.4-3.1c0.7-0.7,1.7-1,2.6-1c0.8,0,1.4,0.2,2.3,0.6
			C35.4,8.9,35.7,9,36.5,9c0.3,0,0.5,0,0.7,0l-1.1,1.5l1.5,1.1c-1.9,0.6-2.9,2.4-3.3,3.3c-0.1,0.2-0.1,0.3-0.1,0.4
			c0,0.1,0.1,0.3,0.3,0.3c0.2,0,0.4-0.2,0.6-0.5c0.9-1.1,1.7-1.9,5.1-3l-2.4-1.8l1.8-2.7H38z">
   </path>
   <path class="st0" d="M7.6,13.4c-4,0-5.7,1.9-5.7,3.2c-1.2,0.5-1.9,1.8-1.9,3c0,2.4,1.8,4.1,4.1,4.1c0.8,0,1.6-0.3,2.1-0.7
			c0.4,0.1,0.9,0.2,1.5,0.2c1.1,0,2.4-0.4,3.2-1.7c0.1,0,0.2,0,0.4,0c1.4,0,2.7-0.9,3.3-2.2c0.2-0.3,0.2-0.5,0.2-0.7
			c0-0.2-0.1-0.3-0.3-0.3c-0.2,0-0.3,0.2-0.7,0.6c-0.9,0.8-2.3,1.1-3.7,1.1c-0.7,1-1.6,1.6-2.5,1.6c-0.7,0-1.3-0.2-1.9-0.6
			c-0.5,0.5-1.1,0.7-1.6,0.7c-1.3,0-2.2-0.9-2.2-2.2c0-0.9,0.6-1.7,1.4-2c0.1-1.6,1.9-2.7,4-2.7c0.3,0,0.5,0,0.8,0
			c0.3-0.5,1.1-1.1,2.2-1.2c0.2,0,0.4,0,0.5-0.1c0.1-0.1,0.2-0.2,0.2-0.3c0-0.1,0-0.2-0.2-0.3c-0.1-0.1-0.3-0.1-0.5-0.1
			c-1-0.2-2.2-0.8-2.9-2.4c-2.4,0-4.2-2-4.2-4.2V6.1C2.5,5.8,1.9,5,1.9,4.1c0-1.2,1-2.2,2.2-2.2c0.7,0,1.4,0.4,1.8,0.9
			C6.2,2.7,6.6,2.7,7,2.7c1.8,0,3.8,1.1,4.1,3.4c2.3,0.2,2.9,2.2,3,3c0.1,0.4,0.1,0.8,0.4,0.8c0.3,0,0.4-0.3,0.5-0.8
			c0.2-0.8,0.5-1.5,1.1-2c0-2.1,1.6-3.9,3.8-3.9c0.3-0.7,1.1-1.3,2-1.3c1.2,0,2.2,0.9,2.2,2.2c0,0.7-0.3,1.4-0.9,1.7
			c0.1,0.4,0.2,0.8,0.2,1.1c0,1.4-0.8,2.3-2.3,2.8c-0.2,0.8-0.5,1.6-1.1,2.1c-1,0.9-2,0.9-2,1.3c0,0.2,0.1,0.3,0.5,0.3
			c1.8,0,3.6-1,3.8-2.7c1.7-0.6,2.8-2.3,2.8-3.7c0-0.4,0-0.7-0.2-1c0.5-0.5,1-1.2,1-2.4c0-1-0.4-2-1.2-2.8C24.1,0.4,23.1,0,22,0
			c-1.6,0-2.7,0.9-3.3,1.7c-1.8,0-4,2-4,4.8h-0.2c-0.2-1-1.2-1.6-2-1.7C11.7,2.8,10.2,1,7.7,1c-0.3,0-0.6,0-1,0.1C6,0.4,5.1,0,4,0
			C1.8,0,0,1.8,0,4c0,1.4,0.6,2.3,1.8,3.2l0,0.3c0,1.8,1.9,4.6,4.8,4.6c0,0.5,0.6,1.1,1.2,1.2v0.2H7.6z">
   </path>
  </g>
  <g>
   <path class="st0" d="M48.1,91.2c-0.8,0-1.6-0.1-2.2-0.5c-0.5-0.2-0.8-0.5-1.1-1c-0.2-0.4-0.3-0.6-0.7-0.9
			c-0.2-0.1-0.5-0.1-0.9-0.1h-2c-0.4,0-0.6,0.1-0.8,0.3c-0.1,0.2-0.2,0.4-0.2,0.7c0,0.6,0.2,1.5,0.8,2.2c1.2,1.7,3.8,3,7.1,3
			c3.2,0,7.7-1.3,7.7-5.7c0-1.1-0.3-2.1-0.9-2.9c-0.8-1-1.8-1.7-3.7-2.1l-3.7-0.9c-1.5-0.4-2.2-0.7-2.2-1.6c0-0.9,0.8-1.6,2.7-1.6
			c1.1,0,2.1,0.2,2.8,0.9c0.5,0.6,0.4,0.9,0.9,1.1c0.3,0.1,0.6,0.1,1,0.1h1.8c0.3,0,0.5,0,0.7-0.2c0.1-0.1,0.2-0.4,0.2-0.7
			c0-0.8-0.5-1.9-1.5-2.8c-1.3-1.1-3.3-1.9-5.8-1.9c-4.4,0-7.3,2.1-7.3,5.5c0,1.2,0.4,2.2,1.1,2.9c0.8,0.9,2,1.5,3.7,1.9l3.7,0.9
			c1,0.3,1.9,0.6,1.9,1.5C51.1,90.7,49.6,91.2,48.1,91.2">
   </path>
   <path class="st0" d="M14.2,13.7c0.9,1.2,2.3,3.7,3.7,6.9c0.2-0.4,1-1.4,1.3-1.7c-1.2-2.5-3.3-4.9-4.2-5.9L14.2,13.7z">
   </path>
   <path class="st0" d="M37.3,35.6c1.4-0.7,3.6-1,4.8-1c1,0,2.1,0.1,3,0.2c1.1,0.1,2.4,0.3,3.7,0.3c3,0,6-1.6,6.5-1.9
			c-0.4-0.3-0.8-0.8-1.1-1.1c-1,0.4-3.2,1.2-5.4,1.2c-1.1,0-2-0.1-3-0.2c-1.3-0.2-2.5-0.3-3.5-0.3c-1.7,0-3.8,0.2-5.8,1.6L37.3,35.6
			z">
   </path>
   <path class="st0" d="M34.4,34.3l-0.9-1.2c-3.6,1.4-7.7,3.6-7.7,5.9c0,1.3,1,2.3,3.2,2.3c3.2,0,6.6-1.6,9.4-3.1L38,37.8
			c-0.2-0.3-0.4-0.4-0.7-0.4c-0.2,0-0.4,0.1-0.6,0.2c-2.3,1.1-4.9,2.3-7.3,2.3c-1.4,0-1.7-0.4-1.7-1C27.7,37.1,32.2,35.2,34.4,34.3">
   </path>
   <path class="st0" d="M65.6,80.5c0.3,0,0.6-0.1,0.8-0.3c0.2-0.2,0.3-0.5,0.3-0.8v-1.1c0-0.4-0.1-0.6-0.3-0.8
			c-0.2-0.2-0.5-0.3-0.8-0.3h-2.9v-5.3c0-0.4-0.1-0.7-0.3-1c-0.2-0.3-0.6-0.5-1.1-0.5h-1.8c-0.5,0-0.8,0.2-1.1,0.5
			c-0.2,0.2-0.3,0.6-0.3,1v5.3h-0.9c-0.3,0-0.6,0.1-0.8,0.3c-0.2,0.2-0.3,0.5-0.3,0.8v1.1c0,0.4,0.1,0.7,0.3,0.8
			c0.2,0.2,0.5,0.3,0.8,0.3H58v8.1c0,2.1,0.6,3.4,1.6,4.4c1,1,2.2,1.6,4.4,1.6h1.4c0.3,0,0.6-0.1,0.8-0.3c0.2-0.2,0.3-0.5,0.3-0.8
			v-1.4c0-0.4-0.1-0.6-0.3-0.8C66,91.1,65.8,91,65.5,91h-0.2c-0.9,0-1.5-0.2-1.9-0.6c-0.5-0.5-0.7-1.1-0.7-2.1v-7.8H65.6z">
   </path>
   <path class="st0" d="M90.2,74.1c0.3,0,0.6-0.1,0.8-0.3c0.2-0.2,0.3-0.5,0.3-0.8v-1.5c0-0.6-0.1-0.9-0.3-1.1
			c-0.2-0.2-0.5-0.3-0.8-0.3c-0.3,0-0.5,0-1,0.1l-12.9,1.3c-0.4,0-0.5,0.1-0.7,0.3c-0.1,0.2-0.2,0.4-0.2,0.7v0.8
			c0,0.3,0.1,0.5,0.2,0.6c0.1,0.2,0.4,0.2,0.6,0.2H90.2z">
   </path>
  </g>
  <g>
   <path class="st0" d="M66.5,40.2c-2.4,5.1-6.1,8.8-9.9,11c-1.8,1-3.4,1.7-6.9,1.7h-7.6c-2.7,0-4.4,0.4-5.7,0.7
			c-1.4,0.4-2.3,0.7-3.8,0.7c-2.1,0-4.1-1.1-5.1-2.1l1.8-1.4l-0.9-1.2c-0.5,0.4-6.8,5.1-8.2,6.1l-0.1,0c0-0.3,0-0.6,0-0.9
			c0-3.6-1.7-4.4-4.2-5.4l-1.7,1c3.4,1.1,4.3,2.1,4.3,4.6c0,2-0.7,2.8-1.8,3.5c-1.1,0.6-2.4,0.9-3.6,0.9c-0.5,0-0.7,0.1-0.9,0.3
			c-0.2,0.2-0.3,0.5-0.3,0.9v0.6h0.4c2.2,0,4.2-0.3,6.4-2.1l7.2-5.6c1,1.2,3.6,2.8,6.6,2.8c1.7,0,2.8-0.4,4.4-0.8
			c1.2-0.3,2.4-0.6,5.1-0.6h7.6c3.9,0,5.8-0.8,7.8-2c4.5-2.5,8.3-6.8,10.5-11.7C67.4,40.8,66.9,40.5,66.5,40.2">
   </path>
   <path class="st0" d="M0.1,56h0.6C1.9,56,2,55.3,2,54.6c0-0.5,0-1,0-1.6c0-1.3,0.1-2.5,2.2-3.5c0.9-0.4,5.2-2.1,8.4-3.5
			c0.9-0.4,1.8-0.7,2.8-0.7c1.1,0,2.3,0.5,3.9,1.4c1.3,0.8,2.7,1.8,3.8,3l1.4-1.1c-1.2-1.4-2.8-2.6-4.5-3.6c-1.6-1-3.1-1.5-4.3-1.5
			c-0.5,0-1,0.1-1.3,0.2c-0.4,0.1-0.8,0.2-1.4,0.2c-0.6,0-1.1-0.1-1.8-1c-0.3-0.3-2-2.3-2.4-2.9c-0.2-0.3-0.5-0.8-0.5-1.5
			c0-0.3,0-0.6,0.2-0.9c1.5,1.2,3.4,1.9,5.6,2.2l-0.3-1.5C10.5,37.5,7,34.6,7,32.8c0-0.4,0.1-0.7,0.2-1c1.3,1.2,4.2,2.4,5.8,2.4
			c0.9,0,1.6-0.3,2.3-0.6c0.6-0.3,1.3-0.5,2.2-0.5c2.1,0,4.6,1,6.9,2c0.1,0,0.3,0.1,0.4,0.1c0.4,0,0.6-0.2,0.8-0.5l0.3-0.5
			c-2.5-1.4-6.4-3-8.5-3c-0.9,0-1.6,0.2-2.3,0.5c-0.7,0.3-1.4,0.6-2,0.6c-1.6,0-5.8-1.6-5.8-3.2c0-1.8,6.7-2.6,7.4-2.6l0.7-1.5
			c-4.8,0-10.6,1.7-10.6,4c0,0.6,0.4,1,0.4,1.6c0,0.8-0.4,1.4-0.4,2.3c0,0.6,0.4,1.4,0.8,2c0.5,0.7,1,1.2,1,1.7c0,0.4-0.3,1-0.3,2
			c0,2.2,1.2,3.5,3.7,6.1l0.5,0.5c-2,0.8-5.8,2.4-6.6,2.8c-3,1.3-3.8,2.8-3.8,5.2C0,54,0,55.1,0.1,56">
   </path>
  </g>
  <g>
   <path class="st0" d="M21,5.6c0-0.1-0.1-0.3-0.3-0.3c-0.1,0-0.2,0.1-0.4,0.2c-0.6,0.5-1.2,1.1-1.7,1.7c-0.8,0.9-1.5,2.2-2.1,3.5
			l0.9,0.5C18,10.4,20,7.4,21,5.8C21,5.8,21,5.7,21,5.6">
   </path>
  </g>
  <g>
   <path class="st0" d="M0,92.9c0,0.5,0.1,0.8,0.4,1.1c0.3,0.3,0.7,0.5,1.3,0.5h1.5c0.6,0,1-0.2,1.3-0.5c0.2-0.3,0.4-0.6,0.4-1.1
			V77.9h0.1c0,0,8.4,14.8,8.7,15.3c0.5,0.8,1.3,1.4,2.4,1.4h2.6c0.6,0,1-0.2,1.3-0.5c0.2-0.3,0.4-0.6,0.4-1.1V74.1H54
			c0.3,0,0.6-0.1,0.8-0.3c0.2-0.2,0.3-0.5,0.3-0.8v-1.4c0-0.4-0.1-0.6-0.3-0.8c-0.2-0.2-0.5-0.3-0.8-0.3H17.1c-0.6,0-1,0.2-1.3,0.5
			c-0.2,0.3-0.4,0.6-0.4,1.1v14.7h-0.1c0,0-8-14.3-8.4-15c-0.3-0.5-0.6-0.8-1-1c-0.4-0.2-0.8-0.4-1.6-0.4H1.6c-0.6,0-1,0.2-1.3,0.5
			C0.1,71.2,0,71.5,0,72.1V92.9z">
   </path>
  </g>
  <g>
   <path class="st0" d="M38.9,86.8c0.3-0.3,0.4-0.6,0.4-1.3c0-2.1-0.7-4.3-2.1-6c-1.4-1.7-3.6-2.9-6.7-2.9c-5.6,0-8.8,4.4-8.8,9
			c0,4.9,3.4,9.3,8.8,9.3c2.7,0,5.4-1,6.9-2.8c0.7-0.8,1.2-1.9,1.2-2.5c0-0.2,0-0.4-0.2-0.6c-0.1-0.2-0.3-0.3-0.7-0.3h-2.6
			c-0.5,0-0.9,0.2-1.1,0.6c-0.8,1.1-1.9,1.7-3.5,1.7c-2.4,0-4-1.8-4.1-3.9h11.3C38.3,87.1,38.6,87,38.9,86.8 M26.5,83.7
			c0.2-2,1.7-3.5,4-3.5c2.3,0,3.8,1.5,4,3.5H26.5z">
   </path>
   <path class="st0" d="M5.8,18.7C5.8,18.8,5.9,19,6,19c0.1,0,0.2,0,0.4-0.1l5.9-2l-0.3-1c-2.4,0.4-4.2,1-6.2,2.6
			C5.8,18.5,5.8,18.6,5.8,18.7">
   </path>
   <path class="st0" d="M9.4,7.1C8.5,6.4,7.4,5.9,6.2,5.4L6,5.3c-0.2,0-0.3,0.1-0.3,0.2c0,0.1,0,0.2,0.2,0.3c1.4,1.2,4.1,3.5,5,4.2
			l0.7-0.8C10.9,8.4,10.1,7.7,9.4,7.1">
   </path>
  </g>
 </g>
</svg>