<svg version="1.1" id="Layer_1" xmlns="http://www.w3.org/2000/svg" xmlns:xlink="http://www.w3.org/1999/xlink" x="0px" y="0px" viewBox="0 0 195.1 45" style="enable-background:new 0 0 195.1 45;" xml:space="preserve">
 <path d="M97.1,27.9c0-5.2,4.2-9.4,9.4-9.4s9.4,4.2,9.4,9.4s-4.2,9.4-9.4,9.4S97.1,33.2,97.1,27.9 M135.5,27.9c0-5.2,4.2-9.4,9.4-9.4
	c5.2,0,9.4,4.2,9.4,9.4s-4.2,9.4-9.4,9.4C139.7,37.4,135.5,33.2,135.5,27.9 M46.4,27.9c0-5.2,4.2-9.4,9.4-9.4c5.2,0,9.4,4.2,9.4,9.4
	s-4.2,9.4-9.4,9.4C50.6,37.4,46.4,33.2,46.4,27.9 M8,27.9c0-5.2,4.2-9.4,9.4-9.4c5.2,0,9.4,4.2,9.4,9.4s-4.2,9.4-9.4,9.4
	C12.2,37.4,8,33.2,8,27.9 M85.7,11.2h-8.2v33h8.2V11.2z M26.8,44.3H35v-33h-8.2v2.7c-2.8-1.9-6.1-3-9.8-3C7.6,10.9,0,18.5,0,27.9
	C0,37.4,7.6,45,17.1,45c3.6,0,7-1.1,9.8-3V44.3z M154.3,44.3h8.2v-33h-8.2v2.7c-2.8-1.9-6.1-3-9.8-3c-9.4,0-17.1,7.6-17.1,17.1
	c0,9.5,7.6,17.1,17.1,17.1c3.6,0,7-1.1,9.8-3V44.3z M165.5,33.6c0.3,6.7,5.9,11.4,15.5,11.4c7.8,0,14.2-3.4,14.2-10.8
	c0-5.2-2.9-8.2-9.6-9.5l-5.2-1c-3.4-0.6-5.7-1.3-5.7-3.3c0-2.2,2.3-3.2,5.1-3.2c4.1,0,5.8,2.1,5.9,4.5h8.3
	c-0.5-6.5-5.6-10.8-14-10.8c-8.6,0-13.7,4.7-13.7,10.9c0,7.5,6.1,8.7,11.3,9.7l4.3,0.8c3.1,0.6,4.5,1.5,4.5,3.3
	c0,1.6-1.6,3.2-5.2,3.2c-5.4,0-7.1-2.8-7.2-5.2H165.5z M65.2,0v13.9c-2.8-1.9-6.1-3-9.8-3c-9.4,0-17.1,7.6-17.1,17.1
	C38.4,37.4,46,45,55.5,45c3.6,0,7-1.1,9.8-3v2.3h8.2V0L65.2,0z M115.9,0v13.9c-2.8-1.9-6.1-3-9.8-3c-9.4,0-17.1,7.6-17.1,17.1
	c0,9.5,7.6,17.1,17.1,17.1c3.6,0,7-1.1,9.8-3v2.3h8.2V0L115.9,0z M77.5,0v8.2h8.2V0 M115.9,0 M115.9,0 M85.7,0">
 </path>
</svg>