<svg version="1.1" id="Layer_1" xmlns:x="ns_extend;" xmlns:i="ns_ai;" xmlns:graph="ns_graphs;" xmlns="http://www.w3.org/2000/svg" xmlns:xlink="http://www.w3.org/1999/xlink" x="0px" y="0px" viewBox="0 0 236.4 75" style="enable-background:new 0 0 236.4 75;" xml:space="preserve">
 <style type="text/css">
  .st0{fill:#00BCF1;}
	.st1{fill:#172B75;}
 </style>
 <metadata>
  <sfw xmlns="ns_sfw;">
   <slices>
   </slices>
   <sliceSourceBounds bottomLeftOrigin="true" height="75" width="236.4" x="-79.2" y="-212.6">
   </sliceSourceBounds>
  </sfw>
 </metadata>
 <g>
  <path class="st0" d="M235.6,22.1c-2.2-6.2-8-10.7-14.9-10.7h-0.2c-4.5,0-8.5,1.9-11.4,4.9c-2.9-3-6.9-4.9-11.4-4.9h-0.2
		c-3.9,0-7.5,1.5-10.3,3.8v-1.2c-0.1-1.2-1.1-2.2-2.3-2.2h-10.5c-1.3,0-2.3,1.1-2.3,2.4v57.9c0,1.3,1.1,2.4,2.3,2.4h10.5
		c1.2,0,2.2-0.9,2.3-2.1V30.9c0-0.2,0-0.3,0-0.4c0.2-1.8,1.5-3.4,3.6-3.6h1.9c0.9,0.1,1.6,0.4,2.2,0.9c0.9,0.7,1.4,1.9,1.4,3.1
		l0.1,41.4c0,1.3,1.1,2.4,2.3,2.4h10.5c1.3,0,2.3-1,2.3-2.3V30.9c0-1.4,0.6-2.6,1.7-3.3c0.5-0.4,1.2-0.6,1.9-0.7h1.9
		c2.3,0.2,3.7,1.9,3.6,4l0.1,41.3c0,1.3,1.1,2.4,2.3,2.4h10.5c1.3,0,2.3-1.1,2.3-2.4V27.7C236.4,24.7,236.1,23.4,235.6,22.1z">
  </path>
  <path class="st0" d="M164.3,12.1h-6V2.2c0-1.2-0.9-2.2-2.1-2.2c-0.1,0-0.3,0-0.4,0.1c-6.7,1.8-5.3,11.2-17.5,12H137
		c-0.2,0-0.3,0-0.5,0.1c-1.1,0.2-1.8,1.2-1.8,2.3v10.7c0,1.3,1.1,2.4,2.3,2.4h6.4v45.2c0,1.3,1,2.3,2.3,2.3h10.4
		c1.3,0,2.3-1.1,2.3-2.3V27.4h5.9c1.3,0,2.3-1.1,2.3-2.4V14.4C166.6,13.1,165.6,12.1,164.3,12.1z">
  </path>
  <path class="st1" d="M126.4,12.1h-10.5c-1.3,0-2.3,1.1-2.3,2.4v22.1c0,1.4-1.1,2.5-2.5,2.5h-4.4c-1.4,0-2.5-1.1-2.5-2.5l-0.1-22
		c0-1.3-1.1-2.4-2.3-2.4H91.3c-1.3,0-2.3,1.1-2.3,2.4v24.2c0,9.2,6.5,15.7,15.5,15.7c0,0,6.8,0,7,0.1c1.2,0.2,2.2,1.2,2.2,2.5
		c0,1.3-0.9,2.3-2.2,2.5c-0.1,0-0.1,0-0.2,0l-15.4,0.1c-1.3,0-2.3,1.1-2.3,2.4v10.6c0,1.3,1.1,2.4,2.3,2.4h17.2
		c8.6,0,15.5-7.1,15.5-15.7V14.4C128.7,13.1,127.6,12.1,126.4,12.1L126.4,12.1z">
  </path>
  <path class="st1" d="M25.3,12.1h-23c-1.3,0-2.3,1-2.3,2.3v10.4v0.1C0,24.9,0,25,0,25v47.3c0,1.3,0.9,2.3,2.1,2.4h10.7
		c1.3,0,2.3-1.1,2.3-2.4l0.1-16.2h10.1c8.4,0,14.3-5.9,14.3-14.5v-15C39.6,18,33.7,12.1,25.3,12.1z M24.4,31.6v6.6
		c0,1.4-1.1,2.5-2.5,2.5h-6.7V27.5h6.7c1.4,0,2.5,1.1,2.5,2.5V31.6L24.4,31.6z">
  </path>
  <path class="st1" d="M66.4,12.1H51.8c-1.3,0-2.3,1-2.3,2.2v4.2v0.1v5.7c0,1.3,1.1,2.3,2.5,2.3h13.9c1.1,0.2,2,1,2.1,2.3v1.4
		c-0.1,1.2-1,2.1-2,2.2h-6.9c-9.2,0-15.7,6.2-15.7,14.8v12.4c0,8.6,5.6,14.7,14.7,14.7h19.1c3.4,0,6.2-2.6,6.2-5.9V28.1
		C83.4,18.3,78.4,12.1,66.4,12.1z M68.1,56.6v1.7c0,0.1,0,0.3-0.1,0.4c0,0.1-0.1,0.2-0.1,0.3c-0.3,0.9-1.3,1.6-2.3,1.6h-4.4
		c-1.4,0-2.5-1.1-2.5-2.3v-2.1v-5.4v-1.7c0-1.3,1.1-2.3,2.5-2.3h4.4c1.4,0,2.5,1.1,2.5,2.3V56.6z">
  </path>
 </g>
</svg>