<svg version="1.1" id="Layer_1" xmlns:x="ns_extend;" xmlns:i="ns_ai;" xmlns:graph="ns_graphs;" xmlns="http://www.w3.org/2000/svg" xmlns:xlink="http://www.w3.org/1999/xlink" x="0px" y="0px" viewBox="0 0 95.8 48.1" style="enable-background:new 0 0 95.8 48.1;" xml:space="preserve">
 <metadata>
  <sfw xmlns="ns_sfw;">
   <slices>
   </slices>
   <sliceSourceBounds bottomLeftOrigin="true" height="48.1" width="95.8" x="0" y="0.9">
   </sliceSourceBounds>
  </sfw>
 </metadata>
 <g>
  <path d="M7.6,10.1h14.2c4.2,0,7.2,1.2,9.1,3.6c1.9,2.4,2.5,5.6,1.9,9.7c-0.2,1.9-0.8,3.7-1.6,5.5c-0.8,1.8-1.9,3.4-3.4,4.9
		c-1.8,1.8-3.7,3-5.7,3.5c-2,0.5-4.1,0.7-6.3,0.7H9.4l-2,10.1H0L7.6,10.1L7.6,10.1 M13.8,16.2l-3.2,15.9c0.2,0,0.4,0.1,0.6,0.1
		c0.2,0,0.5,0,0.7,0c3.4,0,6.2-0.3,8.5-1c2.3-0.7,3.8-3.3,4.6-7.7c0.6-3.7,0-5.8-1.9-6.4c-1.9-0.6-4.2-0.8-7-0.8
		c-0.4,0-0.8,0.1-1.2,0.1C14.5,16.2,14.1,16.2,13.8,16.2L13.8,16.2">
  </path>
  <path d="M41.1,0h7.3l-2.1,10.1h6.6c3.6,0.1,6.3,0.8,8.1,2.2c1.8,1.4,2.3,4.1,1.6,8.1L59,38.1h-7.4L55,21.2c0.4-1.8,0.2-3-0.3-3.8
		c-0.6-0.7-1.8-1.1-3.7-1.1l-5.9-0.1l-4.3,21.8h-7.3L41.1,0L41.1,0">
  </path>
  <path d="M70.4,10.1h14.2c4.2,0,7.2,1.2,9.1,3.6c1.9,2.4,2.5,5.6,1.9,9.7c-0.2,1.9-0.8,3.7-1.6,5.5c-0.8,1.8-1.9,3.4-3.4,4.9
		c-1.8,1.8-3.7,3-5.7,3.5c-2,0.5-4.1,0.7-6.3,0.7h-6.4l-2,10.1h-7.4L70.4,10.1L70.4,10.1 M76.6,16.2l-3.2,15.9
		c0.2,0,0.4,0.1,0.6,0.1c0.2,0,0.5,0,0.7,0c3.4,0,6.2-0.3,8.5-1c2.3-0.7,3.8-3.3,4.6-7.7c0.6-3.7,0-5.8-1.9-6.4
		c-1.9-0.6-4.2-0.8-7-0.8c-0.4,0-0.8,0.1-1.2,0.1C77.3,16.2,76.9,16.2,76.6,16.2L76.6,16.2">
  </path>
 </g>
</svg>