<?xml version="1.0" encoding="utf-8"?>
<!-- Generator: Adobe Illustrator 25.2.3, SVG Export Plug-In . SVG Version: 6.00 Build 0)  -->
<svg version="1.1" id="Layer_1" xmlns="http://www.w3.org/2000/svg" xmlns:xlink="http://www.w3.org/1999/xlink" x="0px" y="0px"
	 viewBox="0 0 1160 250.9" style="enable-background:new 0 0 1160 250.9;" xml:space="preserve">
<style type="text/css">
	.st0{fill:#FF7A00;}
	.st1{fill-rule:evenodd;clip-rule:evenodd;fill:#FF7A00;}
	.st2{fill-rule:evenodd;clip-rule:evenodd;fill:#0684BC;}
	.st3{fill:#0684BC;}
</style>
<path class="st0" d="M1160,29.4h-27.2v173.8h27.2V29.4z"/>
<path class="st1" d="M1064.4,87.6c-25.1,0-44.6,12.2-47.9,37.1h26.8c1.9-9.4,8.8-15,21.1-15c14.3,0,20.9,8.2,20.9,21.1v5.9h-27.5
	c-25.3,0-44,11.3-44,34.3s15.3,35,37.3,35c17.1,0,28.4-7.3,34.5-19h1.2V203h25.8v-71.3C1112.6,104.2,1098.5,87.6,1064.4,87.6z
	 M1058.9,185.1c-10.6,0-17.1-5.2-17.1-13.8c0-9.9,7-15,19.7-15h23.7l0.1,1.6C1085.3,174.9,1075.5,185.1,1058.9,185.1L1058.9,185.1z"
	/>
<path class="st1" d="M965.6,203.1v-58.5c0-17.4,10.8-28.4,27.9-28.4h10.7V90.4h-11c-12.9,0-22.3,4.9-28.2,16h-0.9v-16h-25.6v112.8
	L965.6,203.1z"/>
<path class="st1" d="M921.2,178.2v24.9h-18.6c-26.1,0-40.4-12.1-40.4-38.2v-52.2h-18.6V90.4h18.6V60.5h27.2v29.9h31.7v22.4h-31.7v49
	c0,10.3,6.1,16.4,16.4,16.4H921.2z"/>
<path class="st1" d="M754.5,203.1v-65.3c0-16,9.9-26.4,25.8-26.4c15.3,0,24.4,8.8,24.4,26.1v65.6H832v-70c0-28.4-13.8-45.5-42-45.5
	c-17.2,0-30.3,7.7-36.2,18.3h-1V90.4h-25.5v112.8L754.5,203.1z"/>
<path class="st1" d="M654.3,183.7c-17.1,0-28.7-11.5-29.1-29.6h83.4l-0.1-8.8c0-37.8-24.4-57.5-54.2-57.5c-32.2,0-55.8,23-55.8,59.2
	s21.8,59.2,55.8,59.2c28.4,0,47-15,52.4-37.1h-26.4C677.2,177.4,670.1,183.7,654.3,183.7z M654.2,110.3c17.8,0,28.4,10.1,29.1,24.2
	h-58.2C627.7,120.1,636.4,110.3,654.2,110.3L654.2,110.3z"/>
<path class="st1" d="M517,206.2c40.6,0,63.6-22.5,69-56h-27.6c-4.1,15.3-15.2,29.3-41.4,29.3c-27,0-48.6-18.4-48.6-58.7
	c0-40.3,21.6-58.7,48.6-58.7c27,0,37.8,14.1,41.4,29.1H586C581.5,57.8,558.9,36,517,36c-45.1,0-77.7,31.5-77.7,85.2
	c0,53.7,32.6,85.2,77.7,85.2V206.2z"/>
<path class="st2" d="M395,90.4v15.5h-1.3c-6.1-10.8-18.8-18.3-36.8-18.3c-26.4,0-50.2,20.9-50.2,57.8c0,36.9,23.5,58,50.2,58
	c17.4,0,27.6-7.1,35.5-19h1.2v23.8c0,12.7-7,18.6-18.6,18.6h-55.2v24.3h54.7c30.3,0,46.5-16.9,46.5-44.6V90.4H395z M364.3,178.7
	c-18.1,0-29.6-11.3-29.6-33.3s11.4-33.3,29.6-33.3c17.6,0,29.3,11.3,29.3,33.3S382.1,178.7,364.3,178.7z"/>
<path class="st2" d="M212.5,203.1v-65.3c0-16,9.9-26.4,25.8-26.4c15.3,0,24.4,8.8,24.4,26.1v65.6H290v-70c0-28.4-13.8-45.5-42-45.5
	c-17.1,0-30.4,7.7-36.3,18.3h-0.9V90.4h-25.5v112.8L212.5,203.1z"/>
<path class="st3" d="M162.3,90.4H135v112.7h27.2V90.4z"/>
<path class="st2" d="M87.6,125.4v-1.1c16.7-4.6,27.9-15.8,27.9-40.9c0-25.8-19.3-44.6-55-44.6H0v164.4h28.2v-65.3h34.3
	c16,0,24,8,24,24v41.4h28.2v-41.4C114.6,138.6,104.7,129.2,87.6,125.4z M59.1,112.5H28.2V64.2h30.9c15.3,0,27,6.4,27,24.2
	C86.1,106.2,74.2,112.5,59.1,112.5L59.1,112.5z"/>
<path class="st1" d="M148.6,72.3c3.6,0,7.1-1.1,10.1-3c3-2,5.3-4.8,6.7-8.1c1.4-3.3,1.7-6.9,1-10.5c-0.7-3.5-2.4-6.7-5-9.3
	c-2.5-2.5-5.8-4.3-9.3-5s-7.2-0.3-10.5,1c-3.3,1.4-6.1,3.7-8.1,6.7c-2,3-3,6.5-3,10.1c0,3.6,1,7.1,3,10.1c2,3,4.8,5.3,8.1,6.7
	C143.9,71.9,146.3,72.4,148.6,72.3L148.6,72.3z"/>
<path class="st1" d="M127.9,4.1c-6.6,2.8-12.6,6.8-17.6,11.9L123,28.8c3.3-3.4,7.3-6,11.7-7.9c4.4-1.8,9.1-2.8,13.8-2.8
	c4.7,0,9.5,0.9,13.8,2.7c4.4,1.8,8.4,4.5,11.8,7.8l12.8-12.8C179.4,8.3,169.7,3.1,159.2,1C148.7-1,137.8,0,127.9,4.1L127.9,4.1z"/>
</svg>
