<?xml version="1.0" encoding="utf-8"?>
<!-- Generator: Adobe Illustrator 16.0.4, SVG Export Plug-In . SVG Version: 6.00 Build 0)  -->
<!DOCTYPE svg PUBLIC "-//W3C//DTD SVG 1.1//EN" "http://www.w3.org/Graphics/SVG/1.1/DTD/svg11.dtd">
<svg version="1.1" id="Layer_1" xmlns="http://www.w3.org/2000/svg" xmlns:xlink="http://www.w3.org/1999/xlink" x="0px" y="0px"
	 width="1000px" height="462.974px" viewBox="156.666 156.667 1000 462.974" enable-background="new 156.666 156.667 1000 462.974"
	 xml:space="preserve">
<g>
	<polygon fill="#FF6B4A" points="567.992,156.667 567.992,180.506 624.943,174.64 645.966,174.64 645.966,213.229 610.568,224.056 
		562.609,235.624 569.729,258.931 615.69,241.271 645.966,232.021 645.966,295.364 624.943,295.364 567.992,289.495 
		567.992,313.334 741.913,313.334 741.913,289.495 684.96,295.364 663.938,295.364 663.938,232.021 694.062,241.223 
		740.178,258.931 747.294,235.624 699.466,224.09 663.938,213.229 663.938,174.64 684.96,174.64 741.913,180.506 741.913,156.667 	
		"/>
	<polygon fill="#FF6B4A" points="516.105,461.032 516.105,617.697 536.957,617.697 536.957,543.526 627.275,543.526 
		627.275,522.925 536.957,522.925 536.957,481.881 638.65,481.881 638.65,461.032 	"/>
	<path fill="#FF6B4A" d="M780.558,558.19c0,1.682-0.46,41.17-40.289,41.17c-37.069,0-40.208-31.523-40.288-41.17v-97.158h-20.852
		v97.158c0,28.348,16.014,61.45,61.14,61.45c45.124,0,61.139-33.104,61.139-61.45v-97.158h-20.85V558.19z"/>
	<path fill="#FF6B4A" d="M980.379,510.556c0-24.646-17.141-49.521-55.43-49.521h-67.112v156.662h20.847v-57.624h40.099
		l35.196,57.624h25.138l-36.701-59.758C952.299,555.615,980.379,545.892,980.379,510.556z M878.683,539.229v-57.539h46.268
		c12.922,0,34.595,3.751,34.595,28.866c0,23.697-18.812,28.673-34.595,28.673H878.683z"/>
	<polygon fill="#FF6B4A" points="430.212,461.032 430.212,585.537 425.66,585.537 352.082,461.032 325.104,461.032 325.104,617.697 
		345.952,617.697 345.952,497.131 350.502,497.131 420.748,617.697 451.057,617.697 451.057,461.032 	"/>
	<polygon fill="#FF6B4A" points="156.666,461.032 156.666,480.371 202.964,480.371 202.964,598.362 156.666,598.362 
		156.666,617.697 270.108,617.697 270.108,598.362 223.812,598.362 223.812,480.371 270.108,480.371 270.108,461.032 	"/>
	<path fill="#FF6B4A" d="M1099.751,460.901h-24.979l-56.918,156.796h21.914l17.154-47.479h60.649l17.178,47.479h21.917
		L1099.751,460.901z M1064.25,549.934l20.492-56.717h4.975l20.52,56.717H1064.25z"/>
</g>
</svg>
