<svg version="1.1" id="Layer_1" xmlns:x="ns_extend;" xmlns:i="ns_ai;" xmlns:graph="ns_graphs;" xmlns="http://www.w3.org/2000/svg" xmlns:xlink="http://www.w3.org/1999/xlink" x="0px" y="0px" viewBox="0 0 132 55" style="enable-background:new 0 0 132 55;" xml:space="preserve">
 <style type="text/css">
  .st0{fill-rule:evenodd;clip-rule:evenodd;fill:#FFFFFF;}
 </style>
 <metadata>
  <sfw xmlns="ns_sfw;">
   <slices>
   </slices>
   <sliceSourceBounds bottomLeftOrigin="true" height="55" width="132" x="134.5" y="-227.7">
   </sliceSourceBounds>
  </sfw>
 </metadata>
 <g>
  <path class="st0" d="M105.7,0l19.6,53.3l6.8,0v0.4h-21.5v-0.4h6.3l-6.4-17.5H97.3v0l0.1,0.2c0.5,1.5,0.8,3.2,0.8,4.8v6.6
		c0,3.4,1.5,6.8,4.3,6.8c1.7,0,3-0.6,4.6-2l0.2,0.2c-1.7,1.8-3.8,2.6-7,2.6c-2.4,0-4.4-0.6-6-1.7L94,53.1c-2.1-1.6-3.5-4.3-4.1-7.9
		l-0.1-0.6l-0.1-0.9l0-0.2l-3.6,9.8h5.1v0.4H80.5v-0.4h5.2l4-10.8v0c0-0.6-0.1-1.3-0.1-1.9V36c0-5.8-4.3-9.1-11.8-9.1h-7.4v26.5h6.4
		v0.4H51.9v-0.4h6.3l-6.4-17.5H33.9l-6.4,17.3l0.3,0c8.4-1.4,12.2-7.8,12.3-14.5h0.4v15.2H0L30.1,2.2H18C8,2.2,3.4,9.9,3.3,17.6H3
		V1.8h36.5l-0.2,0.4L9.4,53.4h15.7c0.4,0,0.8,0,1.2,0c0.3,0,0.5,0,0.8-0.1l0.1,0L46.7,0h0.4l0,0L62.5,42V2.2h-6.3V1.8h21.8
		c10.5,0,17.8,5.4,17.8,13.1c0,5.6-5,10.3-12.4,11.6l-1.4,0.2l1.4,0.1c4.5,0.5,8.1,1.9,10.6,4.1l0,0L105.3,0L105.7,0
		C105.7,0,105.7,0,105.7,0z M97.1,35.4L97.1,35.4l13.1,0.1l-8.8-23.9l-7.2,19.7l0,0l0.4,0.4C95.7,32.7,96.5,34,97.1,35.4L97.1,35.4z
		 M70.4,26.5V2.2H76c7.5,0,11.5,4.4,11.5,12.8c0,8.9-2.3,11.6-9.7,11.6C77.8,26.5,70.4,26.5,70.4,26.5z M42.9,11.5l-8.8,23.9h17.6
		L42.9,11.5L42.9,11.5z">
  </path>
 </g>
</svg>