<svg version="1.1" id="Layer_1" xmlns:x="ns_extend;" xmlns:i="ns_ai;" xmlns:graph="ns_graphs;" xmlns="http://www.w3.org/2000/svg" xmlns:xlink="http://www.w3.org/1999/xlink" x="0px" y="0px" viewBox="0 0 51.2 45.4" style="enable-background:new 0 0 51.2 45.4;" xml:space="preserve">
 <style type="text/css">
  .st0{fill-rule:evenodd;clip-rule:evenodd;fill:#E10A0A;}
 </style>
 <metadata>
  <sfw xmlns="ns_sfw;">
   <slices>
   </slices>
   <sliceSourceBounds bottomLeftOrigin="true" height="45.4" width="51.2" x="174.9" y="-222.9">
   </sliceSourceBounds>
  </sfw>
 </metadata>
 <g>
  <path class="st0" d="M43.6,10.1c0.4-0.2,0.9-0.3,1.4-0.1c0,0,0,0,0.1,0c0.1,0,0.2,0.2,0.3,0.2c0.1,0.1,0.1,0.2,0.2,0.4
		c0,0.1,0,0.2,0.2,0.3c-0.1,0.1-0.1,0.1-0.1,0.2c0,0.1,0.1,0.1,0.1,0.2v0.3c-0.1,0-0.1,0.1-0.1,0.2l0,0.3l0.1,0c0,0.1,0,0.2,0,0.3
		c0,0.1,0,0.2,0,0.3c0,0.1,0,0.2,0,0.3c0,0-0.2,0-0.2,0.1c0,0.1,0,0.1,0.1,0.2c-0.1,0.1-0.1,0.1,0,0.2c0,0-0.1,0.1-0.1,0.1
		c0,0.3,0,0.6,0,0.9c0,0.1,0,0.1,0.1,0.3c0,0-0.1,0.1,0,0.2c0,0,0,0.1,0,0.1c0,0.1,0,0.2,0.1,0.2c0,0.1,0,0.1,0,0.1
		c0,0.1,0,0.1,0,0.2c0,0,0,0.1,0,0.1c0,0.1,0,0.1,0,0.2c-0.1,0.1,0,0.1,0.1,0.1l-0.1,0.2l0.1,0.1c-0.1,0.1-0.1,0.1-0.1,0.2
		c0,0.1,0,0.1,0,0.2c0,0,0,0,0,0c-0.1,0.1,0.1,0.2,0.1,0.2c0,0,0,0.1-0.1,0.1c-0.1,0.1-0.1,0.1,0,0.1c0,0,0,0.1,0,0.1
		c0,0.1,0,0.2,0.1,0.2c0,0,0,0,0.1,0.1c0.1,0.2,0.3,0.2,0.5,0.1c0.3-0.1,0.6-0.3,1-0.4c0.5-0.2,0.9-0.5,1.4-0.7
		c0.5-0.2,1-0.3,1.5-0.2c0.1,0,0.2,0,0.3,0c0.1,0,0.2,0.1,0.3,0.1c0.2,0.2,0.3,0.4,0.4,0.6c0,0,0,0,0,0.1v0.1
		c-0.1,0.1-0.1,0.1,0,0.2v0.1c0,0-0.1,0-0.1,0c-0.1,0.1-0.1,0.2-0.2,0.3c-0.2,0.5-0.6,0.8-1.1,1.1c-0.4,0.3-0.9,0.4-1.4,0.5
		c-0.6,0.2-1.1,0.4-1.7,0.6c-0.6,0.2-1.2,0.5-1.7,0.7c-0.4,0.2-0.8,0.4-1.1,0.6c-0.4,0.2-0.9,0.5-1.3,0.7c-0.6,0.3-1.1,0.6-1.7,0.9
		c-0.8,0.5-1.7,0.9-2.5,1.4c-0.6,0.3-1.1,0.6-1.7,1c-0.5,0.3-1,0.5-1.4,0.8c-0.4,0.3-0.8,0.5-1.2,0.8c-0.2,0.1-0.3,0.3-0.5,0.4
		c-0.5,0.2-0.9,0.5-1.3,0.8c-0.2,0.1-0.4,0.3-0.6,0.4c0,0,0,0-0.1,0c0,0.2-0.2,0.2-0.3,0.3c-0.1,0.1-0.2,0.2-0.2,0.3
		c0,0.2,0,0.4,0,0.6c0,0,0,0.1,0,0.1c0.1,0.1,0,0.1,0,0.2c0,0,0,0.1,0,0.1c0.1,0.1,0,0.2,0,0.4c0.1,0.1,0.1,0.2,0.1,0.3
		c0,0.1-0.1,0.3,0,0.4c0,0-0.1,0.1-0.1,0.1c0,0,0,0.1,0,0.1c0.1,0.1,0.1,0.2,0,0.3c0,0,0,0.1,0,0.1c0.1,0.1,0,0.2,0,0.3
		c0,0.3,0,0.5,0,0.8c0,0.1,0,0.2,0,0.3c0,0,0,0.1,0,0.1c-0.1,0.1-0.1,0.2,0,0.2c0,0.1,0,0.2,0,0.2c0,0.3,0,0.7,0,1
		c0,0.1,0,0.2,0,0.3c0,0.1,0,0.1,0,0.2c0,0,0,0,0,0.1c0,0.1,0,0.3,0,0.4c0,0.1,0,0.3,0,0.4c0,0.1-0.1,0.1-0.1,0.2c0,0.1,0,0.2,0,0.2
		c0,0,0.1,0.1,0.1,0.1c0,0,0,0,0,0.1l-0.2,0L31,37c0,0,0,0.1,0,0.1c0.1,0.1,0,0.2,0,0.2c0,0.1-0.1,0.2-0.1,0.3
		c0,0.1,0.1,0.2,0.1,0.4c0,0,0,0.1,0,0.1c-0.2,0.1-0.1,0.3,0,0.4l0,0.1c-0.1,0-0.2,0.2-0.1,0.3c0,0,0,0,0,0c0.1,0,0.1,0.1,0.2,0.2
		l-0.1,0.1c0.1,0.2,0.1,0.2,0,0.4l0.2,0.2L31,40l0.1,0c-0.1,0.1-0.1,0.2,0,0.2c0,0.1,0.1,0.2,0,0.4l-0.1,0.1c0.1,0.1,0.1,0.2,0,0.3
		c0,0.1,0,0.2,0.1,0.2c0.1,0,0.1,0.1,0.1,0.1c0,0.2,0.1,0.4,0.2,0.5c-0.1,0.1-0.1,0.3-0.3,0.3l0.1,0l0,0l-0.1,0.1c0,0.1,0,0.2,0,0.3
		c0,0.1,0.1,0.1,0.2,0.1c0.1,0,0.2,0.1,0.2,0.1c0,0.1,0,0.1,0.1,0.2c-0.1,0.1,0,0.3-0.2,0.3l0.1,0l-0.1,0.2c0.1,0.1,0.1,0.1,0.2,0.3
		c0,0,0.1,0.1,0.2,0.1c-0.1,0.1-0.1,0.1-0.1,0.3c0,0,0,0,0,0.1c0,0,0,0.1-0.1,0.1l0.2,0.1c-0.1,0.1-0.1,0.1-0.2,0.2
		c0,0.1-0.1,0.2-0.1,0.2c-0.1,0.1-0.2,0.2-0.3,0.3c-0.2,0.1-0.3,0.2-0.5,0.3c-0.1,0.1-0.2,0.1-0.3,0.1c-0.2,0-0.3,0-0.4,0
		c0,0-0.1,0-0.1,0c-0.3-0.1-0.5-0.2-0.7-0.4c-0.2-0.2-0.2-0.4-0.3-0.6c-0.2-0.6-0.2-1.2-0.2-1.7c0-0.4,0-0.9,0-1.3c0-0.3,0-0.6,0-1
		c0-0.3,0-0.6,0-0.9c0-0.3,0-0.5,0-0.8c0-0.2,0-0.4,0-0.7c0-0.2,0-0.3,0-0.5c0-0.2,0-0.4,0-0.6c0-0.1,0-0.2,0-0.2c0,0,0-0.1,0-0.1
		c0.1-0.1,0.1-0.2,0.1-0.4c0-0.7,0-1.3,0-2l0-1.7c0-0.4,0-0.9,0-1.3c0-0.1,0-0.3,0-0.4c0,0,0-0.1,0-0.1c-0.2,0.1-0.4,0.2-0.6,0.3
		c-0.3,0.2-0.7,0.5-1,0.8c-0.3,0.3-0.7,0.5-1,0.8l-0.7,0.6c-0.3,0.2-0.5,0.4-0.8,0.6c-0.4,0.4-0.9,0.7-1.3,1.1
		c-0.3,0.2-0.6,0.5-0.9,0.7l-1.3,1.1c-0.3,0.3-0.6,0.5-1,0.8c0,0,0,0,0,0c-0.2,0.2-0.4,0.4-0.5,0.5c-0.1,0.1-0.1,0.2-0.2,0.3
		c-0.2,0.2-0.4,0.3-0.6,0.5c-0.2,0.2-0.4,0.4-0.6,0.6c-0.1,0.1-0.2,0.2-0.4,0.3c-0.1,0.1-0.1,0.1-0.2,0.2c-0.1,0.1-0.1,0.1-0.2,0.2
		c-0.1,0.1-0.2,0.2-0.3,0.3l-1.3,1.3c-0.1,0.1-0.1,0.1-0.2,0.2l-0.4,0.5c0,0.1-0.1,0.1-0.2,0.2l-0.3,0.3c0,0-0.1,0.1-0.1,0.1
		c-0.2,0.2-0.3,0.3-0.5,0.5l-0.5,0.5c-0.2,0.1-0.3,0.2-0.5,0.2c-0.4,0-0.7,0-1.1-0.2c-0.2-0.1-0.3-0.2-0.4-0.4
		c-0.1-0.2-0.2-0.5-0.2-0.7c0-0.2,0-0.3,0.1-0.5c0.2-0.2,0.3-0.4,0.5-0.6c0.4-0.5,0.9-1,1.4-1.4c0.3-0.3,0.7-0.6,1.1-1
		c0.3-0.3,0.6-0.5,0.9-0.8c0.3-0.3,0.6-0.6,1-0.8c0.4-0.3,0.7-0.6,1.1-0.9c0.3-0.3,0.6-0.5,0.9-0.7c0.2-0.2,0.5-0.4,0.7-0.6
		c0.2-0.1,0.3-0.2,0.5-0.4l0.9-0.7l0.8-0.6c0.2-0.1,0.4-0.3,0.5-0.4c0.1-0.1,0.2-0.2,0.4-0.3c0.1-0.1,0.2-0.2,0.3-0.2l1.2-0.9
		c0.3-0.2,0.6-0.5,1-0.7l0.9-0.6c0.3-0.2,0.5-0.4,0.8-0.6c0.5-0.3,0.9-0.7,1.4-1c0.3-0.2,0.6-0.4,0.9-0.7c0.1,0,0.1-0.1,0.1-0.2
		c0-0.2,0-0.5,0-0.7c0-0.1,0-0.3,0-0.4c0,0,0-0.1-0.1-0.1c0,0-0.1,0-0.1,0.1c-0.2,0.2-0.5,0.3-0.7,0.5c0,0-0.1,0-0.1,0
		c-0.2,0-0.3,0.1-0.5,0.2c0,0-0.1,0-0.1,0.1c0,0-0.1,0-0.1,0c-0.1,0-0.2,0-0.3,0c-0.3,0.1-0.6,0.1-0.9,0.1c-0.5,0-1-0.2-1.3-0.7
		c-0.2-0.2-0.2-0.4-0.3-0.7c-0.1-0.5-0.1-1-0.1-1.5c0-0.2,0-0.5,0-0.7c0-0.1,0-0.3,0-0.4c0-0.1,0-0.1,0-0.2c0.1-0.4,0.1-0.8,0.1-1.2
		c0.1-0.6,0.2-1.3,0.4-1.9c0.2-0.6,0.4-1.1,0.8-1.6c0.2-0.2,0.3-0.4,0.5-0.6c0.2-0.2,0.4-0.4,0.7-0.5c0,0,0.1,0,0.1-0.1
		c0.3-0.3,0.6-0.3,1-0.4c0.2,0,0.3,0,0.5,0c0.1,0,0.2,0.1,0.2,0.2c0,0.1,0.1,0.2,0,0.4c0,0.1,0,0.2-0.1,0.3c0,0.2-0.2,0.4-0.3,0.6
		c0,0.1-0.1,0.1-0.2,0.1c-0.1,0.1-0.2,0.2-0.2,0.3c0,0,0,0.1-0.1,0.1c-0.1,0.1-0.1,0.2-0.2,0.3c0,0.1-0.1,0.2-0.2,0.3
		c0,0.1-0.1,0.2-0.1,0.2c0,0.1,0,0.2-0.1,0.3c-0.1,0.1-0.1,0.1-0.1,0.2c-0.1,0.2-0.1,0.4-0.2,0.6c-0.1,0.2-0.1,0.4-0.1,0.5
		c0,0.1,0,0.2,0,0.3c0.1,0.1,0.1,0.2,0,0.3c0,0.1,0,0.1,0,0.2c0,0.1,0,0.3-0.1,0.4c0,0.1,0,0.2,0,0.3c0,0,0,0.1,0,0.1
		c-0.1,0.3,0,0.7,0,1c0,0.2,0.1,0.3,0.2,0.5c0.1,0.2,0.3,0.3,0.5,0.3c0.4,0,0.8-0.2,1.1-0.5c0.3-0.3,0.4-0.6,0.5-1
		c0.1-0.5,0.2-1.1,0.2-1.6c0-0.3,0.1-0.6,0.1-1c0-0.2,0.1-0.3,0-0.5c0,0,0,0,0,0c0.1-0.2,0.1-0.3,0.1-0.5c0-0.3,0.1-0.6,0.1-0.9
		c0-0.5,0.1-0.9,0.1-1.4c0-0.3,0-0.6,0.1-0.9c0.1-0.4,0.4-0.7,0.7-0.8c0.3-0.1,0.5-0.1,0.8-0.1c0.2,0,0.4,0.1,0.5,0.2
		c0.2,0.2,0.2,0.4,0.2,0.6c0,0.1,0,0.2,0,0.4c0,0,0,0.1,0,0.1c0,0,0,0.1,0,0.1c0,0,0,0,0,0c0.1,0.2-0.1,0.5,0,0.7
		c-0.1,0.2,0,0.4-0.1,0.7c-0.1,0.2-0.1,0.5-0.1,0.7c0,0.4,0,0.9-0.1,1.3c0,0.4-0.1,0.9-0.1,1.3c0,0.2,0,0.4,0,0.6c0,0.1,0,0.2,0,0.3
		c0,0.3,0,0.6,0,0.8c0,0.1,0,0.3,0,0.4c0,0.1,0,0.2,0,0.3c0,0.2,0,0.3,0,0.5c0,0.2,0,0.3,0,0.5c0,0.1,0,0.3,0,0.4c0,0.2,0,0.3,0,0.5
		c0,0,0,0.1,0,0.2c0.1,0,0.1-0.1,0.2-0.1c0.3-0.2,0.5-0.4,0.8-0.5c0.5-0.3,1-0.6,1.5-0.9c0.4-0.2,0.8-0.5,1.2-0.7
		c0.3-0.2,0.5-0.3,0.8-0.5c0.1-0.1,0.3-0.2,0.4-0.2c0.2-0.1,0.3-0.2,0.5-0.3c0,0,0.1,0,0.1,0c0.1,0,0.2,0,0.2-0.1
		c0.5-0.3,1-0.6,1.4-0.8c0.4-0.2,0.8-0.5,1.2-0.7l2.1-1.2l1.5-0.8c0.1-0.1,0.3-0.2,0.4-0.2c0,0,0.1,0,0.1-0.1c0.1-0.1,0.1-0.1,0-0.2
		c-0.1-0.1-0.2-0.1-0.3-0.2c-0.2-0.2-0.2-0.4-0.3-0.6c0-0.3,0-0.5,0-0.8c0-0.3,0.1-0.7,0.1-1c0,0,0-0.1,0-0.1c-0.1-0.2,0-0.5,0-0.7
		c0,0,0-0.1,0-0.1c0-0.1-0.1-0.2,0-0.4c0-0.4,0.2-0.7-0.1-1.1c-0.1-0.2-0.1-0.5,0-0.7c0.2-0.3,0.1-0.5-0.1-0.6c0,0-0.1-0.1-0.1-0.1
		c-0.2,0-0.5-0.1-0.7,0.1c-0.2,0.1-0.3,0.2-0.5,0.3c-0.1,0.1-0.2,0.2-0.2,0.3c0,0.1-0.1,0.1-0.1,0.2c-0.1,0.1-0.2,0.2-0.3,0.4
		c0,0.1-0.1,0.1-0.2,0.2c0,0.1,0,0.3-0.1,0.4c0,0,0,0.1,0,0.1c0,0.1,0,0.3-0.1,0.4c0,0,0,0,0,0.1c0,0.1,0,0.1-0.1,0.1L40.6,15
		l0.1,0.1v0.2c0,0-0.1,0-0.1,0.1c0,0,0,0.1,0,0.2c0,0.1,0,0.2,0.1,0.2c0,0.1,0,0.1,0,0.2c-0.1,0.1-0.1,0.1-0.2,0.2c0,0,0,0.1,0,0.1
		c0.1,0.1,0.1,0.2,0.1,0.3l0,0.1c0,0-0.1,0.1-0.1,0c0,0.1-0.1,0.2,0,0.3c0,0,0,0,0,0c-0.1,0.2,0,0.5-0.1,0.8c0,0.1,0.1,0.1,0.1,0.1
		c-0.1,0.1-0.2,0.2,0,0.4l-0.1,0.1l0.1,0.1c0,0.1-0.1,0.2-0.1,0.3c0,0.1,0,0.2,0,0.2c-0.1,0.1,0,0.1,0,0.2c0,0,0,0.1,0,0.2
		c-0.1,0.2-0.2,0.3-0.2,0.5c0,0,0,0,0,0c0,0.3-0.3,0.4-0.5,0.6c-0.2,0.1-0.4,0.2-0.6,0.3c-0.2,0.1-0.5,0.1-0.7,0.1
		c-0.3-0.1-0.4-0.3-0.5-0.6c0-0.1,0-0.3,0-0.4c0-0.7,0.1-1.4,0.1-2c0-0.3,0-0.6,0-0.9c0-0.5,0.1-1,0.1-1.5c0-0.4,0-0.8,0.1-1.1
		c0-0.2,0-0.5,0-0.7c0.1-0.4,0.2-0.9,0.6-1.2c0.4-0.4,0.9-0.6,1.5-0.5c0.1,0,0.1,0,0.2,0c0.1-0.1,0.2-0.1,0.4,0
		c0.2,0.1,0.4,0.1,0.6,0c0.3-0.1,0.5-0.3,0.7-0.5c0-0.1,0.1-0.1,0.2-0.2c0.2-0.2,0.3-0.3,0.5-0.5c0,0,0.1-0.1,0.2-0.1
		C43.1,10.3,43.3,10.2,43.6,10.1L43.6,10.1z M18.4,0c0.1,0,0.3,0,0.4,0c0.2,0,0.3,0.1,0.5,0.1c0.6,0.2,1,0.6,1.2,1.2
		c0.1,0.2,0.1,0.5,0.1,0.8c0,0.3-0.1,0.6-0.3,0.8c-0.1,0.1-0.2,0.3-0.3,0.4c0,0,0,0.1,0,0.1c0,0.1-0.1,0.2-0.1,0.3c0,0,0,0-0.1,0
		c-0.1,0-0.2,0.1-0.3,0.2c0,0.1,0,0.1-0.1,0c-0.1,0.1-0.3,0.2-0.4,0.4c-0.3,0.4-0.7,0.8-0.9,1.2c-0.1,0.1-0.2,0.3-0.3,0.5
		c-0.5,0.6-0.7,1.4-1,2c-0.2,0.4-0.4,0.8-0.5,1.2c0,0.1-0.1,0.2-0.1,0.4c0,0.1,0,0.1,0,0.2c0,0.1-0.1,0.2-0.1,0.3
		c-0.1,0.3-0.3,0.5-0.4,0.8c-0.1,0.1-0.1,0.3-0.1,0.4c0,0.2-0.1,0.3-0.2,0.4c-0.1,0.1-0.1,0.3-0.2,0.4c-0.1,0.2-0.1,0.4-0.2,0.6
		c-0.1,0.2-0.1,0.4-0.2,0.6c0,0.2-0.1,0.3-0.1,0.5c-0.1,0.3-0.1,0.6-0.3,0.9c0,0.1,0,0.1,0,0.2c0,0.1,0,0.1,0,0.2
		c-0.1,0.2-0.2,0.3-0.2,0.5c-0.1,0.3-0.1,0.5-0.2,0.8c-0.1,0.1-0.1,0.3-0.1,0.4c0,0.3-0.1,0.5-0.1,0.8c0,0.1,0,0.1,0,0.2
		c0,0.2-0.1,0.3-0.1,0.5c0,0,0,0.1-0.1,0.1c-0.1,0.1-0.2,0.2-0.2,0.3L13.3,19c0,0,0,0.1,0,0.1c-0.1,0.1-0.1,0.3-0.2,0.4
		c0,0.1-0.1,0.2-0.1,0.2c-0.1,0.2-0.2,0.5-0.2,0.7l-0.1,0.5c-0.1,0.5-0.2,1-0.3,1.4c-0.1,0.4-0.2,0.7-0.3,1.1c0,0,0,0.1,0,0.1l0,0.2
		c0,0,0,0.1,0,0.1c-0.1,0.1,0,0.1,0,0.2c0,0.1-0.1,0.1,0,0.2c0,0,0,0.1,0,0.2c-0.1,0.2-0.2,0.4-0.2,0.6c0.1,0.2,0.1,0.5-0.1,0.7
		c0,0.1-0.1,0.1-0.1,0.2c0.1,0.2,0,0.4-0.1,0.5c0,0.1-0.1,0.2-0.1,0.3c0,0.2,0,0.3,0,0.5c0,0,0,0.1-0.1,0.1
		c-0.1,0.1-0.1,0.1-0.1,0.2c0,0.1,0,0.1,0,0.2c-0.1,0.3-0.1,0.6-0.2,0.9c0,0.1,0,0.3-0.1,0.4c0,0.1,0.1,0.2,0.2,0.2
		c0,0.2,0,0.3,0,0.5c-0.1,0.2,0,0.4-0.2,0.5c-0.1,0.1-0.1,0.2-0.1,0.4c0,0.2,0,0.4-0.1,0.7c0,0.1,0,0.1,0,0.2c0,0.1,0,0.2,0.1,0.2
		c0.1,0.1,0.1,0.2-0.1,0.3c0,0.2-0.1,0.4-0.1,0.5c-0.1,0.2-0.1,0.4-0.1,0.6c-0.1,0.5-0.1,1.1-0.2,1.6c-0.1,0.6-0.1,1.2-0.2,1.8
		c-0.1,0.6-0.2,1.2-0.2,1.7c-0.1,0.4-0.1,0.9-0.2,1.3c-0.1,0.3-0.1,0.7-0.2,1c-0.1,0.5-0.6,0.8-1,0.8c-0.5,0.1-1-0.4-1-0.8
		c-0.1-0.5-0.2-0.9-0.3-1.4c-0.1-0.4-0.1-0.8-0.2-1.2c-0.1-0.4-0.1-0.7-0.2-1.1c0,0,0-0.1,0-0.1c0-0.1-0.1-0.1,0-0.2
		c0,0,0-0.1,0-0.1c-0.1-0.3-0.1-0.7-0.2-1c0-0.1,0-0.1-0.1-0.1c0.1-0.2,0.1-0.3-0.1-0.4c0,0,0-0.1,0-0.1c0-0.1,0-0.3,0-0.4l-0.1-0.3
		C6,33.6,5.9,33,5.8,32.5c-0.1-0.4-0.1-0.8-0.2-1.1l-0.2-1.5c-0.1-0.4-0.1-0.8-0.2-1.1c-0.1-0.4-0.1-0.8-0.2-1.2c0,0,0-0.1,0-0.1
		c-0.1-0.2-0.1-0.4-0.1-0.6c0-0.1,0-0.2,0-0.3c-0.1-0.5-0.2-1-0.2-1.5c0-0.2,0-0.3-0.1-0.5c0-0.1-0.1-0.1-0.1-0.2
		c-0.1-0.1-0.1-0.1-0.1-0.2c0-0.1,0-0.2,0-0.2c0-0.1,0-0.2,0-0.3c0-0.1,0-0.1,0-0.2c-0.1-0.1-0.1,0-0.2,0c0,0,0-0.1,0-0.1
		c0-0.1,0-0.2-0.1-0.2C4.1,23.1,4,23,3.9,23c0,0-0.1,0-0.1,0.1c0,0.1-0.1,0.2-0.1,0.3c0,0.1-0.1,0.1-0.1,0.1c0,0-0.1,0-0.1,0
		c0,0.1-0.1,0.1-0.1,0.2c0,0.2,0,0.3-0.1,0.4c-0.1,0.1-0.2,0.3-0.2,0.4C3,24.8,3,25,3,25.2c0,0,0,0.1,0,0.1l-0.1,0.2
		c0,0.2-0.1,0.3-0.2,0.4c0,0-0.1,0.1,0,0.1c-0.1,0.1-0.1,0.2-0.1,0.2c0,0.2-0.2,0.3-0.2,0.5c-0.1,0.2-0.1,0.3-0.2,0.5
		c0,0.1-0.2,0.2-0.1,0.3c-0.1,0.1-0.2,0.2-0.3,0.3c-0.3,0.2-0.7,0.3-1.1,0.2c-0.4-0.2-0.7-0.6-0.6-1c0-0.1,0.1-0.2,0.1-0.3
		c0.1-0.4,0.3-0.8,0.4-1.3c0.1-0.4,0.3-0.7,0.4-1.1c0-0.1,0-0.2,0-0.2c0.1-0.2,0.1-0.3,0.2-0.4c0.1-0.1,0.1-0.2,0.1-0.4
		c0-0.1,0-0.2,0.1-0.3c0.1-0.2,0.2-0.4,0.2-0.6c0.1-0.3,0.2-0.6,0.3-0.8L2.1,21c0.1-0.2,0.1-0.4,0.1-0.5c0.1-0.2,0.2-0.4,0.2-0.7
		c0.3-0.6,0.4-1.3,0.7-1.9c0.1-0.2,0.1-0.4,0.2-0.6c0.1-0.3,0.3-0.6,0.6-0.7c0.5-0.3,1.3-0.2,1.6,0.3c0.2,0.2,0.3,0.5,0.3,0.7
		c0.1,0.7,0.2,1.3,0.3,2c0.1,0.3,0.1,0.6,0.1,0.9c0,0.1,0,0.2,0.1,0.3c0,0,0,0.1,0,0.1c0,0,0,0.1,0,0.1c0.1,0.2,0.1,0.4,0.1,0.6
		c0,0,0,0.1,0,0.1c0,0,0,0.1,0,0.1c0.1,0.1,0.1,0.2,0.1,0.3c0,0,0,0,0,0.1c-0.1,0.3,0,0.5,0.1,0.8c0,0.3,0.1,0.5,0.1,0.8
		c0,0.2,0,0.3,0.1,0.5c0,0.1,0.1,0.1,0.1,0.2c0,0.1,0,0.1,0,0.2c0.1,0.3,0.2,0.5,0.2,0.8c0,0.1,0.1,0.2,0.1,0.3
		c-0.1,0.2,0,0.3,0,0.5c0.1,0.2,0.1,0.3,0.1,0.5c0,0.2,0.1,0.4,0.2,0.6c0,0,0,0.1,0,0.1c0.1,0.1,0.1,0.3,0,0.4
		c-0.1,0.2-0.1,0.4-0.1,0.5c0,0.2,0,0.4,0.2,0.5c0,0,0.1,0.1,0.1,0.2c0,0.1,0,0.2,0,0.4c0,0.1,0,0.2,0,0.2C8,29.8,7.9,30.1,8,30.3
		c0,0.1,0,0.1,0.1,0.2c0,0,0,0,0,0.1c0,0.1,0,0.3,0,0.4c0,0.1,0,0.1,0.1,0.2c0,0,0.1,0.1,0.2,0.1c0-0.1,0.1-0.2,0.1-0.3
		c0.1-0.4,0.1-0.7,0.1-1.1c0.1-0.6,0.2-1.2,0.3-1.8c0-0.3,0.1-0.5,0.1-0.8C9,27.1,9,26.9,9,26.7c0.1-0.5,0.2-1,0.3-1.5
		c0.1-0.5,0.2-1.1,0.3-1.6c0-0.2,0.1-0.4,0.1-0.6l0.2-1.3c0-0.1,0.1-0.3,0.1-0.4l0.2-0.9c0-0.1,0.1-0.2,0.1-0.3
		c0.2-0.7,0.4-1.4,0.6-2.1c0.1-0.2,0.1-0.4,0.2-0.6c0-0.2,0-0.3,0.1-0.5c0.1-0.3,0.2-0.6,0.3-0.9c0.1-0.3,0.2-0.7,0.3-1
		c0.1-0.2,0.1-0.4,0.2-0.6c0,0,0,0,0,0C12,14.1,12,14,12,13.8c0,0,0-0.1,0-0.1c0.1-0.2,0.2-0.5,0.2-0.7c0.1-0.4,0.2-0.7,0.4-1
		c0.1-0.2,0.2-0.4,0.2-0.6c0-0.2,0.1-0.3,0.2-0.5c0.1-0.1,0.1-0.2,0.1-0.3C13.4,9.7,13.7,9,14,8.3c0.1-0.3,0.2-0.7,0.4-1
		c0.2-0.5,0.4-1.1,0.6-1.6c0.2-0.6,0.4-1.1,0.6-1.7c0.1-0.2,0.2-0.4,0.2-0.6c0.1-0.3,0.2-0.5,0.3-0.8c0.1-0.4,0.3-0.8,0.5-1.1
		c0.2-0.3,0.4-0.6,0.7-0.9C17.7,0.3,18,0.1,18.4,0z M15.8,22.3l0.1,0c0.2,0,0.4,0.2,0.4,0.3c0,0.1,0.1,0.2,0.1,0.4
		c0,0.1,0.1,0.1,0.1,0.2c-0.1,0.1-0.2,0.1-0.1,0.2c0,0.1,0.1,0.2,0.1,0.4c0,0.1-0.1,0.2,0,0.3c0,0,0,0.1,0,0.2
		c-0.1,0.1-0.1,0.2-0.1,0.3c0,0.1,0,0.3,0,0.4c0,0.2,0,0.4-0.2,0.6c0,0,0,0.1,0,0.1c0,0.3,0,0.5,0,0.8c0,0.1,0,0.3-0.1,0.4
		C16,27,16,27.1,16,27.2c0,0.1,0,0.3-0.1,0.4c0,0.1-0.1,0.3-0.1,0.4c0,0.3-0.1,0.6-0.1,0.9c0,0.2,0,0.4,0,0.5c0,0.2,0.1,0.5,0,0.8
		c-0.1,0.2-0.1,0.4-0.1,0.5c0,0.1,0,0.1-0.1,0.2c0,0.1,0,0.1,0,0.2l0.2,0l0,0.2c-0.1,0-0.2,0-0.2,0.1c0,0,0,0-0.1,0
		c-0.1,0-0.2,0.1-0.2,0.1c-0.3,0.2-0.5,0.4-0.8,0.5c-0.2,0.1-0.3,0.1-0.5,0.1c-0.4,0-0.6-0.2-0.6-0.6c0-0.4,0-0.8,0-1.2
		c0-0.4,0-0.7,0.1-1.1c0-0.3,0-0.6,0.1-1c0-0.1,0-0.3,0-0.5c0,0,0-0.1,0-0.1c0.1,0,0.1-0.1,0.1-0.1v-0.1l0.1-1.1c0-0.2,0-0.5,0-0.7
		c0,0,0-0.1,0-0.1c0-0.3,0.1-0.7,0.1-1c0-0.4,0.2-0.8,0.3-1.2c0.2-0.4,0.5-0.7,0.8-0.9c0.2-0.1,0.5-0.3,0.7-0.3c0.1,0,0.3-0.1,0.4,0
		L15.8,22.3z M22.4,19.8c0.2,0,0.4,0.1,0.5,0.3c0.1,0.1,0.1,0.3,0.2,0.4c0,0.1,0,0.2,0,0.2c0,0,0,0.1,0,0.1c0,0.4-0.3,0.7-0.6,0.9
		c-0.2,0.2-0.4,0.3-0.6,0.5c-0.3,0.2-0.6,0.6-0.8,0.9c-0.1,0.1-0.1,0.2-0.1,0.3c0,0.1-0.1,0.1-0.1,0.2c0,0.1,0,0.3-0.1,0.4
		c0,0.1,0,0.2,0,0.3c-0.1,0.1-0.1,0.2-0.1,0.3c0,0.2-0.1,0.4,0,0.6c0,0.1,0,0.3,0,0.4c0,0.5,0,1-0.1,1.5c0,0.4,0,0.7-0.1,1
		c-0.1,0.3-0.2,0.6-0.4,0.8c-0.4,0.4-0.8,0.6-1.2,0.6c-0.2,0-0.4-0.1-0.6-0.3c-0.1-0.1-0.1-0.3-0.1-0.5c0-0.2,0-0.4,0-0.7
		c0-0.2,0.1-0.4,0-0.6c0-0.2,0.1-0.5,0-0.7c0-0.1,0-0.3,0-0.4c0-0.1,0-0.1,0-0.2c0-0.2,0-0.3,0-0.5c0,0,0,0,0,0c0-0.2,0-0.4,0.1-0.6
		c0-0.1,0-0.2,0-0.3c0-0.2,0-0.4,0.1-0.6c0-0.3,0-0.6,0.1-1c0-0.3,0-0.7,0-1c0-0.4,0.1-0.7,0.3-1c0.2-0.3,0.4-0.5,0.7-0.7
		c0.3-0.2,0.6-0.2,1-0.3c0.2,0,0.4-0.1,0.6-0.2c0.1-0.1,0.2-0.1,0.4-0.1c0.1-0.1,0.2-0.1,0.4-0.2C22,19.9,22.2,19.8,22.4,19.8z
		 M35.7,13.2l0.1,0c0.2,0,0.3,0.1,0.3,0.3c0,0.1,0.1,0.2,0.1,0.3c0.1,0.1,0,0.2,0,0.3c0,0.1,0,0.2-0.1,0.3c-0.1,0.1,0,0.2,0,0.3
		c0,0.2,0,0.3-0.1,0.5c0,0,0.1,0.1,0.1,0.1c0,0.1-0.1,0.2-0.1,0.4c0,0.2,0,0.4,0,0.6c0,0.1,0,0.2,0,0.2c0,0.1,0,0.1,0,0.2
		c0,0,0,0,0,0c0,0.2,0,0.4,0,0.6c0,0.1,0,0.2,0,0.3c0,0.2,0,0.3-0.1,0.4c-0.1,0.1,0,0.2,0,0.3c0,0.1,0,0.2,0.1,0.2
		c0,0,0,0.1,0.1,0.1l-0.2,0c0,0.1,0,0.1,0.1,0.1c0,0,0,0.1,0.1,0.1l-0.2,0c0,0.1,0,0.2,0,0.3c0,0.4,0,0.7-0.1,1.1c0,0,0,0,0,0.1
		l0,0.1c0,0.1,0,0.1,0,0.2c0,0.1,0,0.1,0,0.2c0,0.2-0.1,0.3-0.3,0.5c-0.1,0.2-0.3,0.4-0.5,0.5c-0.2,0.1-0.5,0.2-0.7,0.3
		c-0.2,0.1-0.4,0.1-0.6,0.1c-0.5,0-0.7-0.2-0.7-0.6c0-0.3,0-0.6,0.1-0.9c0-0.5,0.1-1,0.2-1.5c0.1-0.7,0.1-1.4,0.2-2
		c0.1-0.6,0.2-1.2,0.2-1.8c0-0.1,0-0.3,0-0.4c0-0.3,0.2-0.7,0.4-1c0.2-0.3,0.5-0.5,0.8-0.7c0.3-0.1,0.6-0.1,0.9-0.1L35.7,13.2z
		 M16.7,16.5c0.3,0,0.4,0.1,0.4,0.2c0,0.1,0,0.1,0.1,0.2c0.1,0.2,0.1,0.5,0,0.7c-0.1,0.1-0.2,0.3-0.3,0.4c0,0,0,0,0,0
		c-0.2,0.3-0.5,0.5-0.8,0.6c-0.1,0.1-0.3,0.2-0.5,0.2c-0.2,0.1-0.4,0-0.6-0.1c-0.2-0.1-0.2-0.3-0.2-0.5c0-0.2,0-0.3,0.1-0.5
		c0.1-0.1,0.1-0.3,0.2-0.4c0.1-0.1,0.2-0.2,0.3-0.3c0.2-0.2,0.4-0.3,0.6-0.5C16.3,16.6,16.5,16.5,16.7,16.5L16.7,16.5z M36.1,9.1
		c0.2-0.1,0.4-0.1,0.6,0c0.1,0,0.1,0,0.2,0c0.1,0.1,0.2,0.3,0.2,0.5c0,0.1,0,0.2,0,0.3c-0.1,0.3-0.2,0.5-0.4,0.7
		c0,0-0.1,0.1-0.1,0.1c-0.2,0.3-0.5,0.5-0.8,0.7c-0.2,0.1-0.4,0.1-0.6,0c-0.1,0-0.2-0.1-0.3-0.2c-0.1-0.1-0.1-0.1-0.1-0.2
		c-0.2-0.5,0-1,0.4-1.4C35.4,9.4,35.7,9.2,36.1,9.1L36.1,9.1z">
  </path>
 </g>
</svg>