<svg version="1.1" id="Capa_1" xmlns="http://www.w3.org/2000/svg" xmlns:xlink="http://www.w3.org/1999/xlink" x="0px" y="0px" width="225px" height="53px" viewBox="0 0 225 53" enable-background="new 0 0 225 53" xml:space="preserve">
 <g>
  <path fill="#006491" d="M67.732,20.885H56.164c-0.384,0-0.693,0.308-0.693,0.695v26.044c0,0.38,0.309,0.689,0.693,0.689H67.77
		c9.119,0,15.013-5.389,15.013-13.733C82.782,26.259,76.874,20.885,67.732,20.885 M67.732,41.081H63.78V28.123h3.989
		c4.12,0,6.581,2.411,6.581,6.457C74.35,37.809,72.078,41.081,67.732,41.081">
  </path>
  <path fill="#006491" d="M134.066,27.959c-3.192,0-5.788,1.754-6.947,3.496c-0.85-2.32-2.776-3.496-5.716-3.496
		c-3.255,0-5.721,1.647-6.58,2.753v-1.567c0-0.385-0.311-0.691-0.692-0.691h-6.019c-0.382,0-0.689,0.307-0.689,0.691v18.479
		c0,0.379,0.307,0.689,0.689,0.689h6.019c0.382,0,0.692-0.311,0.692-0.689V36.059l0.001-0.006c0.436-0.502,1.34-1.556,3.001-1.556
		c1.458,0,2.264,0.791,2.264,2.221v10.906c0,0.379,0.31,0.689,0.69,0.689h6.019c0.381,0,0.693-0.311,0.693-0.689V36.059
		c0.433-0.507,1.339-1.562,3.039-1.562c1.44,0,2.264,0.81,2.264,2.221v10.906c0,0.379,0.308,0.689,0.691,0.689h6.021
		c0.381,0,0.691-0.311,0.691-0.689V33.923C140.197,30.076,138.021,27.959,134.066,27.959">
  </path>
  <path fill="#006491" d="M149.923,28.453h-6.019c-0.383,0-0.693,0.309-0.693,0.691v18.479c0,0.379,0.311,0.689,0.693,0.689h6.019
		c0.38,0,0.692-0.311,0.692-0.689V29.145C150.615,28.762,150.303,28.453,149.923,28.453">
  </path>
  <path fill="#006491" d="M147.094,18.706c-2.289,0-4.154,1.864-4.154,4.153c0,2.293,1.865,4.153,4.154,4.153
		c2.288,0,4.155-1.86,4.155-4.153C151.249,20.569,149.382,18.706,147.094,18.706">
  </path>
  <path fill="#006491" d="M167.978,27.959c-3.836,0-5.923,1.726-6.822,2.753v-1.567c0-0.385-0.312-0.691-0.692-0.691h-6.021
		c-0.379,0-0.691,0.307-0.691,0.691v18.479c0,0.379,0.312,0.689,0.691,0.689h6.021c0.38,0,0.692-0.311,0.692-0.689V36.059
		c0.479-0.544,1.375-1.562,3.164-1.562c1.912,0,2.88,0.955,2.88,2.833v10.294c0,0.379,0.31,0.689,0.693,0.689h6.017
		c0.383,0,0.691-0.311,0.691-0.689V34.212C174.601,30.296,172.127,27.959,167.978,27.959">
  </path>
  <path fill="#006491" d="M94.715,27.867c-5.791,0-10.485,4.697-10.485,10.479c0,5.798,4.694,10.49,10.485,10.49
		c5.792,0,10.485-4.692,10.485-10.49C105.201,32.564,100.507,27.867,94.715,27.867 M94.715,41.782c-1.977,0-3.575-1.602-3.575-3.584
		c0-1.974,1.598-3.571,3.575-3.571s3.579,1.598,3.579,3.571C98.294,40.181,96.692,41.782,94.715,41.782">
  </path>
  <path fill="#006491" d="M187.278,27.899c-5.787,0-10.48,4.694-10.48,10.481c0,5.796,4.693,10.487,10.48,10.487
		c5.793,0,10.491-4.691,10.491-10.487C197.77,32.594,193.071,27.899,187.278,27.899 M187.278,41.813
		c-1.974,0-3.574-1.605-3.574-3.584c0-1.971,1.601-3.571,3.574-3.571c1.98,0,3.579,1.601,3.579,3.571
		C190.857,40.208,189.259,41.813,187.278,41.813">
  </path>
  <path fill="#006491" d="M203.551,22.041c0-0.004,0-0.008-0.001-0.012c-0.001-0.005-0.004-0.009-0.004-0.014
		c-0.003-0.014-0.007-0.03-0.011-0.042l-0.002,0c-0.463-2.066-2.711-3.56-4.928-3.102c-2.238,0.464-3.708,2.547-3.274,4.645
		c0.359,1.731,1.901,2.935,3.686,3.044c-0.114,0.708-0.739,1.341-1.26,1.635c-0.349,0.195-0.14,0.571-0.14,0.571l0.46,0.681
		c0.133,0.231,0.335,0.349,0.573,0.25C203.236,27.817,204.023,23.911,203.551,22.041z">
  </path>
  <path fill="#006491" d="M208.886,34.362c-0.019-0.741,0.943-1.069,2.148-1.069c2.395,0,3.76,0.684,5.287,1.69
		c0.158,0.106,0.354,0.143,0.54,0.097c0.187-0.044,0.347-0.165,0.439-0.332l2.032-3.534c0.187-0.326,0.075-0.739-0.245-0.932
		c-1.67-0.997-4.116-2.284-8.364-2.284c-6.124,0-9.404,2.883-8.855,7.028c0.963,7.284,12.29,4.787,12.113,7.273
		c-0.04,0.575-1.042,1.004-2.776,1.004c-2.242,0-4.789-1.124-6.397-2.118c-0.158-0.099-0.354-0.129-0.533-0.08
		c-0.184,0.047-0.337,0.163-0.429,0.328l-2.349,3.913c-0.178,0.316-0.087,0.715,0.214,0.918c2.254,1.521,5.894,2.543,9.054,2.543
		c6.132,0,9.666-2.634,9.668-6.962C220.435,33.858,208.937,36.334,208.886,34.362">
  </path>
  <g>
   <path fill="none" d="M11.076,29.229c-1.002,0-2.003,0.381-2.767,1.144c-0.763,0.766-1.145,1.769-1.145,2.77
			c0,0.999,0.379,2.002,1.144,2.766c0.764,0.76,1.765,1.141,2.767,1.142c1,0,2.002-0.383,2.768-1.142
			c0.764-0.763,1.143-1.767,1.143-2.768c0-0.999-0.379-2.002-1.143-2.767C13.08,29.609,12.076,29.229,11.076,29.229z">
   </path>
   <path fill="none" d="M22.558,37.207c1-0.001,2.003-0.385,2.766-1.146c0.767-0.761,1.149-1.765,1.149-2.763
			c0-1.005-0.382-2.004-1.149-2.768c-0.763-0.765-1.765-1.146-2.766-1.146c-1,0-2.002,0.382-2.766,1.146
			c-0.765,0.764-1.146,1.766-1.146,2.768c0,0.996,0.382,1.998,1.146,2.763C20.555,36.823,21.557,37.207,22.558,37.207z">
   </path>
   <path fill="none" d="M34.684,1.839c-0.325-0.326-0.752-0.488-1.179-0.488s-0.853,0.162-1.179,0.488L21,13.165l-3.301,3.301
			l15.864,15.863l1.346-1.347l13.281-13.281c0.651-0.65,0.651-1.707,0-2.357L34.684,1.839z">
   </path>
   <path fill="#FFFFFF" d="M49.145,14.389L35.639,0.883C35.069,0.313,34.312,0,33.505,0c-0.806,0-1.564,0.314-2.134,0.884
			L20.044,12.209L1.193,31.061c-1.177,1.178-1.177,3.093,0,4.269l13.506,13.508c0.57,0.569,1.328,0.884,2.134,0.884
			s1.564-0.314,2.134-0.884l16.897-16.899l13.28-13.28C50.321,17.481,50.321,15.566,49.145,14.389z">
   </path>
   <path fill="#E31837" d="M48.189,15.349L34.684,1.844c-0.651-0.651-1.707-0.651-2.357,0L17.724,16.446L33.586,32.31l14.603-14.603
			C48.84,17.056,48.84,16,48.189,15.349z M36.312,19.253c-0.765,0.764-1.769,1.145-2.767,1.145c-1,0-2.001-0.381-2.767-1.145
			c-0.763-0.763-1.147-1.766-1.147-2.765c0-1.001,0.385-2.005,1.147-2.767c0.766-0.763,1.766-1.148,2.767-1.147
			c0.998,0,2.002,0.381,2.767,1.147c0.762,0.761,1.147,1.766,1.146,2.767C37.459,17.486,37.074,18.491,36.312,19.253z">
   </path>
   <path fill="#006491" d="M2.148,32.016c-0.651,0.653-0.651,1.708,0,2.358l13.506,13.507c0.326,0.325,0.752,0.489,1.179,0.489
			c0.427,0,0.854-0.164,1.179-0.489l14.596-14.596L16.743,17.42L2.148,32.016z M13.844,35.907c-0.765,0.759-1.768,1.142-2.768,1.142
			c-1.002-0.001-2.003-0.382-2.767-1.142c-0.765-0.764-1.144-1.767-1.144-2.766c0-1.001,0.381-2.004,1.145-2.77
			c0.764-0.763,1.765-1.144,2.767-1.144c1,0,2.003,0.381,2.768,1.145c0.764,0.765,1.144,1.768,1.143,2.767
			C14.987,34.141,14.607,35.145,13.844,35.907z M19.792,30.531c0.763-0.765,1.766-1.146,2.766-1.146c1,0,2.003,0.382,2.766,1.146
			c0.767,0.764,1.149,1.763,1.149,2.768c0,0.998-0.382,2.002-1.149,2.763c-0.763,0.761-1.765,1.145-2.766,1.146
			c-1,0-2.002-0.384-2.766-1.146c-0.765-0.765-1.146-1.767-1.146-2.763C18.646,32.297,19.027,31.295,19.792,30.531z">
   </path>
  </g>
  <g>
   <path fill="#006491" d="M225,29.141c0,0.385-0.095,0.744-0.285,1.077c-0.191,0.333-0.451,0.595-0.781,0.787
			c-0.33,0.191-0.687,0.287-1.066,0.287c-0.381,0-0.736-0.096-1.065-0.287c-0.329-0.192-0.59-0.454-0.781-0.787
			s-0.286-0.692-0.286-1.077c0-0.384,0.095-0.742,0.286-1.076s0.452-0.598,0.781-0.788c0.329-0.192,0.685-0.288,1.065-0.288
			c0.38,0,0.736,0.096,1.066,0.288c0.33,0.19,0.59,0.454,0.781,0.788C224.905,28.398,225,28.757,225,29.141z M224.587,29.141
			c0-0.479-0.168-0.89-0.505-1.229c-0.335-0.339-0.741-0.509-1.215-0.509c-0.477,0-0.882,0.17-1.219,0.509
			c-0.334,0.339-0.504,0.749-0.504,1.229s0.17,0.889,0.504,1.229c0.337,0.339,0.742,0.508,1.219,0.508
			c0.474,0,0.88-0.169,1.215-0.508C224.419,30.029,224.587,29.62,224.587,29.141z M221.9,27.989h1.019
			c0.29,0,0.498,0.06,0.627,0.176c0.13,0.119,0.194,0.276,0.194,0.474c0,0.154-0.05,0.287-0.148,0.4
			c-0.098,0.113-0.253,0.194-0.465,0.245c0.087,0.034,0.15,0.07,0.191,0.106c0.059,0.054,0.119,0.132,0.182,0.235
			c0.004,0.007,0.126,0.229,0.369,0.665h-0.672c-0.217-0.438-0.363-0.699-0.438-0.785c-0.074-0.085-0.149-0.129-0.223-0.129
			c-0.017,0-0.041,0.003-0.069,0.008v0.906H221.9V27.989z M222.468,28.966h0.244c0.165,0,0.28-0.027,0.347-0.08
			c0.068-0.054,0.101-0.124,0.101-0.208c0-0.085-0.032-0.154-0.096-0.207c-0.064-0.054-0.175-0.081-0.329-0.081h-0.267V28.966z">
   </path>
  </g>
  <g>
   <path fill="#006491" d="M27.873,46.117c0,0.385-0.095,0.744-0.286,1.076c-0.191,0.333-0.452,0.596-0.781,0.788
			c-0.33,0.19-0.686,0.286-1.067,0.286c-0.379,0-0.734-0.096-1.064-0.286c-0.329-0.192-0.59-0.455-0.781-0.788
			c-0.191-0.332-0.286-0.691-0.286-1.076c0-0.383,0.095-0.742,0.286-1.076c0.191-0.333,0.452-0.597,0.781-0.788
			c0.33-0.191,0.685-0.288,1.064-0.288c0.382,0,0.738,0.097,1.067,0.288c0.329,0.191,0.59,0.455,0.781,0.788
			C27.778,45.375,27.873,45.734,27.873,46.117z M27.46,46.117c0-0.48-0.168-0.889-0.504-1.229c-0.336-0.34-0.742-0.509-1.217-0.509
			c-0.475,0-0.88,0.169-1.216,0.509c-0.337,0.34-0.504,0.748-0.504,1.229c0,0.479,0.167,0.888,0.504,1.228
			c0.336,0.34,0.742,0.51,1.216,0.51c0.475,0,0.881-0.17,1.217-0.51C27.292,47.005,27.46,46.597,27.46,46.117z M24.772,44.966h1.02
			c0.289,0,0.498,0.06,0.627,0.177c0.129,0.117,0.194,0.275,0.194,0.472c0,0.154-0.049,0.288-0.148,0.401
			c-0.098,0.112-0.254,0.193-0.466,0.245c0.087,0.033,0.152,0.069,0.193,0.107c0.058,0.053,0.118,0.13,0.182,0.233
			c0.003,0.009,0.126,0.229,0.368,0.666h-0.67c-0.218-0.438-0.364-0.7-0.438-0.785c-0.075-0.086-0.149-0.128-0.224-0.128
			c-0.017,0-0.04,0.002-0.07,0.008v0.905h-0.567V44.966z M25.339,45.942h0.246c0.164,0,0.279-0.026,0.347-0.08
			c0.067-0.054,0.101-0.123,0.101-0.208c0-0.084-0.032-0.154-0.096-0.208c-0.064-0.053-0.174-0.08-0.329-0.08h-0.268V45.942z">
   </path>
  </g>
 </g>
</svg>