<svg version="1.1" id="Layer_1" xmlns="http://www.w3.org/2000/svg" xmlns:xlink="http://www.w3.org/1999/xlink" x="0px" y="0px" viewBox="0 0 126.3 139.1" style="enable-background:new 0 0 126.3 139.1;" xml:space="preserve">
 <style type="text/css">
  .st0{fill:#FF8732;}
	.st1{fill-rule:evenodd;clip-rule:evenodd;fill:#D62300;}
 </style>
 <g>
  <path class="st0" d="M116.8,131.5c-10.5,5.9-28.6,7.6-53.6,7.6s-43.1-1.7-53.6-7.6c-6.3-3.6-9.5-8.4-9.5-11.9c0-2,1.1-3.1,3.4-3.1
		h119.5c2.4,0,3.4,1.1,3.4,3.1C126.3,123.1,123.1,127.9,116.8,131.5z M122.9,39.2H3.4C1.1,39.2,0,38,0,35.8C0,22.9,19.5,0,63.1,0
		c43.2,0,63.1,22.9,63.1,35.8C126.3,38,125.2,39.2,122.9,39.2z">
  </path>
  <path class="st1" d="M86.4,60.9c0,5.9-4,10-10.4,10c-6,0-12.2-4.2-12.2-13.4c0-9.5,6.1-13.7,12.4-13.7c3.6,0,6,0.9,7.7,2.2
		c0.9,0.7,1.5,1.8,1.5,3.2c0,1.9-1.5,3.6-3.6,3.6c-0.8,0-1.4-0.3-2-0.6c-0.7-0.4-1.5-0.8-3-0.8c-2.2,0-5,1.6-5,6.1
		c0,4,2.1,6.2,5.1,6.2c1,0,1.8-0.5,1.8-1.2c0-0.6-0.5-0.8-1.3-0.8c-1.5,0-3.5-1.1-3.5-3.4c0-2.5,1.9-3.7,4.3-3.7h1.3
		C84.1,54.5,86.4,57.1,86.4,60.9z M25,91.5c0,0.2,0,0.5,0.4,1.1c1,1.5,3.6,4.7,5.9,7.2c1.8,1.9,2.7,3.6,2.7,5.7
		c0,3.5-3.2,6.8-6.9,6.8c-2.2,0-4.3-1.2-6-3c-2.5-2.8-5.2-7.5-6.2-9.8c0,0,0-0.1-0.1-0.2c-0.1-0.3-0.3-0.8-0.9-0.8
		c-0.5,0-0.7,0.4-0.7,0.8v5.7c0,4-2.4,7.2-6.6,7.2c-4.3,0-6.6-3.2-6.6-7.2V80.3c0-4,2.3-7.2,6.6-7.2c4.3,0,6.6,3.2,6.6,7.2v4
		c0,0.5,0.2,0.8,0.7,0.8c0.3,0,0.5-0.1,0.9-0.4c1.5-1.4,3.7-5,5.6-8.1c1.4-2.3,3.5-3.6,5.8-3.6c3.5,0,6.7,2.8,6.7,6.3
		c0,1.4-0.5,3-1.7,4.9c-1.5,2.4-4.3,5-5.5,6.1C25.3,90.8,25,91.1,25,91.5z M4.7,70.6h5.7c5.4,0,8.7-3.6,8.7-8.1c0-3.5-2-5.2-2.6-5.6
		l0,0l0,0c-0.2-0.2-0.4-0.3-0.4-0.5c0-0.2,0.1-0.2,0.2-0.4h0l0,0c0,0,0.1-0.1,0.1-0.1c0.8-0.9,1.5-2.3,1.5-4.4
		c0-4.9-3.3-7.4-8.4-7.4H4.7C1.5,44,0,45.8,0,48.4v17.8C0,68.7,1.5,70.6,4.7,70.6z M7.1,50.9c0-0.5,0.3-0.9,1-0.9h0.5
		c1.7,0,2.3,1.2,2.3,2.3c0,1-0.5,2.3-2.3,2.3H8.1c-0.7,0-1-0.4-1-0.9V50.9z M7.1,60.4c0-0.5,0.3-0.9,1-0.9h0.7
		c1.9,0,2.5,1.3,2.5,2.5c0,1.1-0.6,2.5-2.5,2.5H8.1c-0.7,0-1-0.4-1-0.9V60.4z M114.6,66.4c0,2.4-1.4,4.4-4,4.4c-2.6,0-4-1.9-4-4.4
		v-18c0-2.5,1.5-4.4,4.7-4.4h4.6c5.1,0,9.4,2.9,9.4,8.1c0,3.4-1.5,5.5-2.7,6.5c-0.4,0.3-0.4,0.6-0.3,0.9c0.5,1.4,1.4,2.5,2.8,4.3
		c0.7,0.9,1.3,1.9,1.3,3.3c0,2.1-1.8,3.7-3.9,3.7c-1.3,0-2.6-0.6-4-2.4c-1.1-1.4-2.1-4.2-2.4-6.3c-0.1-0.5-0.2-0.8-0.7-0.8
		c-0.4,0-0.6,0.2-0.6,0.8V66.4z M115.1,50.7c-0.7,0-1,0.4-1,0.9v2.8c0,0.5,0.3,0.9,1,0.9h0.6c1.7,0,2.2-1.3,2.2-2.3
		c0-1.1-0.5-2.3-2.2-2.3H115.1z M43.9,73.1c-4.5,0-7,3.4-7,7.6v24c0,4.2,2.5,7.6,7,7.6c4.5,0,7-3.4,7-7.6v-24
		C50.9,76.5,48.5,73.1,43.9,73.1z M114,88.7h2c6.8,0,10.3,3.8,10.3,9.2c0,8.6-6,14.4-15.6,14.4c-9.1,0-18.3-6.2-18.3-19.4
		c0-13.8,9.2-19.8,18.6-19.8c5.3,0,9,1.3,11.5,3.2c1.4,1.1,2.3,2.6,2.3,4.6c0,2.7-2.2,5.3-5.4,5.3c-1.3,0-2.1-0.4-3-0.9
		c-1.1-0.5-2.3-1.1-4.5-1.1c-3.3,0-7.5,2.3-7.5,8.8c0,5.8,3.1,8.9,7.7,8.9c1.4,0,2.7-0.7,2.7-1.7c0-0.8-0.8-1.2-1.9-1.2
		c-2.2,0-5.2-1.6-5.2-4.9C107.7,90.4,110.4,88.7,114,88.7z M100.7,70.6c2.3,0,4.1-1.3,4.1-3.8c0-2.4-1.8-3.7-4.1-3.7H97
		c-0.7,0-1-0.4-1-0.9v-0.8c0-0.5,0.3-0.9,1-0.9h2.8c1.9,0,3.5-1.2,3.5-3.2c0-2.1-1.5-3.2-3.5-3.2H97c-0.7,0-1-0.4-1-0.9v-0.6
		c0-0.5,0.3-0.9,1-0.9h3.6c2.3,0,4.1-1.3,4.1-3.8c0-2.4-1.8-3.7-4.1-3.7H93c-3.2,0-4.7,1.9-4.7,4.4v17.8c0,2.5,1.5,4.4,4.7,4.4
		L100.7,70.6L100.7,70.6z M41.1,61.9c0,4.9-3.5,8.9-10.1,8.9c-6.6,0-10-3.9-10-8.9V48.3c0-2.4,1.4-4.4,4-4.4c2.6,0,4.1,1.9,4.1,4.4
		v13.2c0,1,0.5,2.1,1.9,2.1c1.5,0,2-1.1,2-2.1V48.3c0-2.4,1.4-4.4,4-4.4c2.6,0,4,1.9,4,4.4V61.9z M59.5,70.8c2.1,0,3.9-1.7,3.9-3.7
		c0-1.4-0.6-2.4-1.3-3.3l-0.2-0.3c-1.1-1.4-2.1-2.7-2.6-4c-0.1-0.3,0-0.6,0.3-0.9c1.3-1,2.7-3.1,2.7-6.5c0-5.1-4.3-8.1-9.4-8.1h-4.6
		c-3.2,0-4.7,1.9-4.7,4.4v18c0,2.4,1.4,4.4,4,4.4c2.6,0,4-1.9,4-4.4v-4.3c0-0.5,0.2-0.8,0.6-0.8c0.5,0,0.6,0.3,0.7,0.8
		c0.4,2.1,1.3,4.9,2.4,6.3C56.9,70.2,58.2,70.8,59.5,70.8z M52.8,55.3h-0.6c-0.7,0-1-0.4-1-0.9v-2.7c0-0.5,0.3-0.9,1-0.9h0.6
		c1.7,0,2.2,1.2,2.2,2.3C55.1,54,54.5,55.3,52.8,55.3z M76.3,80.2c0-3.9,2.3-7,6.4-7c4.2,0,6.4,3.1,6.4,7v25c0,4-2.4,7.2-6.6,7.2
		c-2.5,0-4.8-1-6.9-5.1l-5.6-10.9c-0.3-0.6-0.5-0.8-0.9-0.8c-0.4,0-0.7,0.3-0.7,1.1v8.7c0,3.9-2.3,7-6.4,7c-4.2,0-6.4-3.1-6.4-7v-25
		c0-4,2.4-7.2,6.6-7.2c2.6,0,4.8,1,6.9,5.1l5.6,10.9c0.3,0.6,0.5,0.8,0.9,0.8c0.4,0,0.7-0.3,0.7-1.1V80.2z">
  </path>
 </g>
</svg>