<svg version="1.1" id="Layer_1" xmlns="http://www.w3.org/2000/svg" xmlns:xlink="http://www.w3.org/1999/xlink" x="0px" y="0px" viewBox="0 0 144.1 111.3" style="enable-background:new 0 0 144.1 111.3;" xml:space="preserve">
 <desc>
  Created with Sketch.
 </desc>
 <g id="_x30_X-Modul-Lib_x5F_Desktop" transform="translate(-192.000000, -1631.000000)">
  <g id="M-02-Footer_desktop" transform="translate(0.000000, 1596.000000)">
   <g id="puma_logo_footer" transform="translate(192.000000, 35.000000)">
    <path id="Shape" d="M13.6,0.9c-0.9,0.2-1.8,3.4-3.7,5.3C8.6,7.4,7,7.4,6.1,8.9c-0.4,0.5-0.2,1.6-0.6,2.5c-0.7,2-3.3,2.2-3.3,4.2
				c0,2.2,2.2,2.7,4,4.4c1.5,1.3,1.7,2.2,3.3,2.7c1.5,0.5,3.7-1.1,5.7-0.5c1.7,0.5,3.3,0.9,3.7,2.5c0.4,1.6,0,4-2,3.6
				c-0.7,0-3.7-1.1-7.2-0.7c-4.4,0.5-9.4,1.8-9.7,6.7c-0.2,2.7,3.1,5.8,6.2,5.3c2.2-0.4,1.1-3.1,2.4-4.4c1.7-1.6,10.6,5.6,19.1,5.6
				c3.5,0,6.2-0.9,8.8-3.6c0.2-0.2,0.6-0.7,0.9-0.7c0.4,0,0.9,0.4,1.1,0.5c6.8,5.4,11.9,16.2,36.7,16.3c3.5,0,7.5,1.6,10.8,4.5
				c2.9,2.7,4.6,6.9,6.2,11.1c2.6,6.4,7,12.5,13.8,19.2c0.4,0.4,5.9,4.7,6.4,4.9c0,0,0.6,1.1,0.4,1.6c-0.2,4.2-0.7,16,8.3,16.5
				c2.2,0.2,1.7-1.5,1.7-2.5c0-2-0.4-4.2,0.7-6.2c1.5-2.9-3.1-4.2-3.1-10.5c0.2-4.7-3.9-4-5.9-7.4c-1.1-2-2.2-3.3-2.2-5.8
				c0.4-14.3-3.1-23.8-4.8-26c-1.3-1.8-2.6-2.4-1.3-3.3c7.5-4.9,9.2-9.4,9.2-9.4c4-9.3,7.5-17.8,12.5-21.4c0.9-0.7,3.5-2.7,5.1-3.4
				c4.6-2.2,7-3.4,8.3-4.7c2-2,3.9-6.4,1.8-8.9c-2.6-3.3-6.8-0.7-8.8,0.5c-13.8,8.2-15.8,22.3-20.6,30.5
				c-3.9,6.5-9.9,11.4-15.4,11.8c-4.2,0.4-8.6-0.5-13-2.5c-10.8-4.7-16.7-10.7-18.2-11.8C64.3,27.9,41.9,6,23.5,5
				c0,0-2.2-4.5-2.8-4.5c-1.3-0.2-2.8,2.7-3.7,3.1C16,4.1,14.5,0.7,13.6,0.9z">
    </path>
   </g>
  </g>
 </g>
</svg>