<svg version="1.1" id="Layer_1" xmlns="http://www.w3.org/2000/svg" xmlns:xlink="http://www.w3.org/1999/xlink" x="0px" y="0px" viewBox="0 0 215.2 106.6" style="enable-background:new 0 0 215.2 106.6;" xml:space="preserve">
 <style type="text/css">
  .st0{enable-background:new    ;}
 </style>
 <desc>
  Created with Sketch.
 </desc>
 <g id="_x30_X-Modul-Lib_x5F_Desktop" transform="translate(-192.000000, -1631.000000)">
  <g id="M-02-Footer_desktop" transform="translate(0.000000, 1596.000000)">
   <g id="puma_logo_footer" transform="translate(192.000000, 35.000000)">
    <path id="Shape" d="M115.9,0.7c-0.7,0.1-1.4,2.6-2.8,4c-1,1-2.2,1-2.9,2.1c-0.3,0.4-0.1,1.2-0.4,1.9c-0.6,1.5-2.5,1.7-2.5,3.2
				c0,1.7,1.7,2.1,3.1,3.3c1.1,1,1.3,1.7,2.5,2.1c1.1,0.4,2.8-0.8,4.3-0.4c1.3,0.4,2.5,0.7,2.8,1.9c0.3,1.2,0,3-1.5,2.8
				c-0.6,0-2.8-0.8-5.4-0.6c-3.4,0.4-7.1,1.4-7.4,5.1c-0.1,2.1,2.4,4.4,4.7,4c1.7-0.3,0.8-2.4,1.8-3.3c1.3-1.2,8.1,4.3,14.5,4.3
				c2.7,0,4.7-0.7,6.7-2.8c0.1-0.1,0.4-0.6,0.7-0.6c0.3,0,0.7,0.3,0.8,0.4c5.2,4.1,9.1,12.3,27.9,12.4c2.7,0,5.7,1.2,8.2,3.5
				c2.2,2.1,3.5,5.2,4.7,8.4c2,4.8,5.3,9.5,10.5,14.6c0.3,0.3,4.5,3.6,4.9,3.7c0,0,0.4,0.8,0.3,1.2c-0.1,3.2-0.6,12.2,6.3,12.6
				c1.7,0.1,1.3-1.1,1.3-1.9c0-1.5-0.3-3.2,0.6-4.7c1.1-2.2-2.4-3.2-2.4-8c0.1-3.6-2.9-3-4.5-5.7c-0.8-1.5-1.7-2.5-1.7-4.4
				c0.3-10.9-2.4-18.1-3.6-19.8c-1-1.4-2-1.8-1-2.5c5.7-3.7,7-7.2,7-7.2c3.1-7,5.7-13.5,9.5-16.3c0.7-0.6,2.7-2.1,3.9-2.6
				c3.5-1.7,5.3-2.6,6.3-3.6c1.5-1.5,2.9-4.8,1.4-6.8c-2-2.5-5.2-0.6-6.7,0.4c-10.5,6.2-12,17-15.6,23.2c-2.9,5-7.5,8.7-11.7,9
				c-3.2,0.3-6.6-0.4-9.9-1.9c-8.2-3.6-12.7-8.1-13.8-9c-2.2-1.7-19.3-18.4-33.2-19.1c0,0-1.7-3.5-2.1-3.5c-1-0.1-2.1,2.1-2.8,2.4
				C117.8,3.2,116.6,0.5,115.9,0.7z M54.9,100.1c-1.3,0-2.3-1.1-2.4-2.4v-43H38.1v47.4c0,2.4,2,4.3,4.2,4.3h24.9
				c2.4,0,4.2-1.9,4.2-4.3V54.8H57.3v43C57.2,99.1,56.2,100.1,54.9,100.1L54.9,100.1z M102.7,54.8H81c-2.5,0-4.6,2.1-4.6,4.6v47
				h14.2v-43c0-1.4,1.1-2.4,2.4-2.4c1.4,0,2.4,1,2.4,2.4v43.1h14.2V63.2c0-1.2,1.1-2.4,2.4-2.4c1.3,0,2.4,1.1,2.4,2.4v43.1h14.2v-47
				c0-2.6-2.1-4.6-4.6-4.6H102.7L102.7,54.8z M28.6,93.4H14.2v13H0V54.8h28.8c2.5,0,4.6,2.1,4.6,4.7v29.3
				C33.4,91.4,31.3,93.4,28.6,93.4L28.6,93.4z M19.1,63.4c0-1.4-1.1-2.5-2.4-2.5h-2.4V87h2.4c1.3,0,2.4-1,2.4-2.5V63.4L19.1,63.4z
				 M151.5,106.6V93.7h-4.9v12.9h-14.3V59.8c0-2.6,2.1-4.5,4.6-4.5H161c2.5,0,4.6,2.1,4.6,4.5v46.8H151.5z M151.5,87.4V63.8
				c0-1.2-1.1-2.3-2.4-2.3s-2.4,1.1-2.4,2.3v23.7L151.5,87.4L151.5,87.4z">
    </path>
    <g id="Oval">
     <path d="M178.6,106c-3.9,0-7-3.1-7-7c0-3.9,3.1-7,7-7c3.9,0,7,3.1,7,7C185.6,102.9,182.5,106,178.6,106z M178.6,93.1
					c-3.3,0-5.9,2.7-5.9,5.9s2.7,5.9,5.9,5.9s5.9-2.7,5.9-5.9S181.9,93.1,178.6,93.1z">
     </path>
    </g>
    <g class="st0">
     <path d="M176.5,96.1h2.3c0.5,0,0.9,0.1,1.2,0.4c0.4,0.3,0.6,0.7,0.6,1.3c0,0.8-0.4,1.4-1.1,1.7l1.4,2.7h-1.1l-1.2-2.6h-1.1v2.6
					h-0.9V96.1z M177.4,98.8h1.4c0.3,0,0.6-0.1,0.8-0.3c0.2-0.2,0.3-0.4,0.3-0.7c0-0.3-0.1-0.6-0.3-0.7c-0.2-0.1-0.4-0.2-0.7-0.2
					h-1.4V98.8z">
     </path>
    </g>
   </g>
  </g>
 </g>
</svg>