<svg version="1.1" id="Layer_1" xmlns:x="ns_extend;" xmlns:i="ns_ai;" xmlns:graph="ns_graphs;" xmlns="http://www.w3.org/2000/svg" xmlns:xlink="http://www.w3.org/1999/xlink" x="0px" y="0px" viewBox="0 0 401.2 63" style="enable-background:new 0 0 401.2 63;" xml:space="preserve">
 <metadata>
  <sfw xmlns="ns_sfw;">
   <slices>
   </slices>
   <sliceSourceBounds bottomLeftOrigin="true" height="63" width="401.2" x="-157.4" y="-207">
   </sliceSourceBounds>
  </sfw>
 </metadata>
 <g>
  <path d="M47.2,38.9H25.9v15.3c0,7.4,6.9,7.4,7.9,7.4v0.9H0v-0.9c0.9,0,7.9-0.5,7.9-7.4V8.3c0-7.4-6.9-7.4-7.9-7.4V0h47.2
		c14.8,0,22.2,9.7,22.2,19.5S62.5,38.9,47.2,38.9z M38.9,4.2h-13v30.6h13c9.7,0,14.4-6.9,14.4-15.3C53.3,11.6,48.6,4.2,38.9,4.2z
		 M132.5,63l-29.2-24.1v15.3c0,7.4,6.9,7.4,7.9,7.4v0.9H77.4v-0.9c0.9,0,7.9-0.5,7.9-7.4V8.3c0-7.4-6.9-7.4-7.9-7.4V0h47.2
		c14.8,0,22.2,9.7,22.2,19.5s-6.9,19.5-22.2,19.5h-14.4c3.2,3.2,10.2,4.6,16.2,4.6c2.8,0,5.6-0.5,7.9-0.9l24.1,19.5V63
		C158.4,63,132.5,63,132.5,63z M116.3,4.2h-13.4v30.6h13.4c9.7,0,14.4-6.9,14.4-15.3C130.6,11.6,126,4.2,116.3,4.2z M210.3,63v-0.9
		c3.2,0,4.6-0.9,4.6-3.2c0-0.9-0.5-2.3-0.9-3.7l-6.5-10.7h-26.4l-4.6,9.3c-0.5,1.4-0.9,2.8-0.9,4.2c0,2.3,0.9,3.7,3.7,3.7v0.9h-16.2
		v-0.9c3.7,0,6.5-2.8,8.8-7.4l19.5-38.9l-5.6-8.8c-2.8-4.6-5.6-5.6-8.8-5.6V0h25.9l31.5,55.1c1.9,3.2,4.2,6.9,8.3,6.9V63
		C242.7,63,210.3,63,210.3,63z M193.6,19.9l-10.2,19.9h21.8L193.6,19.9z M286.3,63h-37.1v-0.9c0.9,0,7.9-0.5,7.9-7.4V8.8
		c0-7.4-6.9-7.4-7.9-7.4V0.5h37.1c16.7,0,33.8,10.7,33.8,31.5C320.6,52.3,303,63,286.3,63z M299.2,19.9c0-11.6-7.4-15.8-15.3-15.8
		h-8.8v54.7h8.8c7.9,0,15.3-4.2,15.3-15.7V19.9z M368.7,63v-0.9c3.2,0,4.6-0.9,4.6-3.2c0-0.9-0.5-2.3-0.9-3.7l-6-10.7H340l-4.6,9.3
		c-0.5,1.4-0.9,2.8-0.9,4.2c0,2.3,0.9,3.7,3.7,3.7v0.9h-16.2v-0.9c3.7,0,6.5-2.8,8.8-7.4l19.5-38.9l-5.6-8.8
		c-2.8-4.6-5.6-5.6-8.8-5.6V0h25.5l31.5,55.1c1.9,3.2,4.2,6.9,8.3,6.9V63C401.2,63,368.7,63,368.7,63z M352.1,19.9l-10.2,20.4h21.8
		L352.1,19.9z">
  </path>
 </g>
</svg>