<svg width="266px" height="183px" viewBox="0 0 266 183" version="1.1" xmlns="http://www.w3.org/2000/svg" xmlns:xlink="http://www.w3.org/1999/xlink">
 <title>
  Logo_with_name
 </title>
 <defs>
  <linearGradient x1="11.6613419%" y1="17.8913738%" x2="88.3386581%" y2="82.1086262%" id="linearGradient-1">
   <stop stop-color="#FFFFFF" offset="0%">
   </stop>
   <stop stop-color="#E7E8E6" offset="10%">
   </stop>
   <stop stop-color="#CDD0D0" offset="10%">
   </stop>
   <stop stop-color="#B5BBBD" offset="20%">
   </stop>
   <stop stop-color="#A5ACAF" offset="20%">
   </stop>
   <stop stop-color="#9BA3A7" offset="30%">
   </stop>
   <stop stop-color="#98A0A4" offset="30%">
   </stop>
   <stop stop-color="#828A8F" offset="40%">
   </stop>
   <stop stop-color="#667075" offset="50%">
   </stop>
   <stop stop-color="#535C63" offset="60%">
   </stop>
   <stop stop-color="#475158" offset="70%">
   </stop>
   <stop stop-color="#434D54" offset="80%">
   </stop>
   <stop stop-color="#475157" offset="100%">
   </stop>
  </linearGradient>
  <linearGradient x1="11.7346939%" y1="17.8571429%" x2="88.2653061%" y2="82.1428571%" id="linearGradient-2">
   <stop stop-color="#0B1F2A" offset="0%">
   </stop>
   <stop stop-color="#333F47" offset="20%">
   </stop>
   <stop stop-color="#777F84" offset="50%">
   </stop>
   <stop stop-color="#81898D" offset="50%">
   </stop>
   <stop stop-color="#B3B8B8" offset="70%">
   </stop>
   <stop stop-color="#D2D5D3" offset="80%">
   </stop>
   <stop stop-color="#DEE0DD" offset="80%">
   </stop>
   <stop stop-color="#FBFBFB" offset="100%">
   </stop>
  </linearGradient>
  <linearGradient x1="67.1446875%" y1="97.0423438%" x2="32.9259375%" y2="2.97984375%" id="linearGradient-3">
   <stop stop-color="#E1E3E1" offset="0%">
   </stop>
   <stop stop-color="#C1C5C4" offset="10%">
   </stop>
   <stop stop-color="#9BA1A2" offset="30%">
   </stop>
   <stop stop-color="#7D8487" offset="50%">
   </stop>
   <stop stop-color="#687074" stop-opacity="0" offset="70%">
   </stop>
   <stop stop-color="#5B6469" stop-opacity="0" offset="80%">
   </stop>
   <stop stop-color="#576065" stop-opacity="0" offset="100%">
   </stop>
  </linearGradient>
  <linearGradient x1="25%" y1="6.70289855%" x2="75%" y2="93.2971014%" id="linearGradient-4">
   <stop stop-color="#E1E3E1" offset="0%">
   </stop>
   <stop stop-color="#C1C5C4" offset="10%">
   </stop>
   <stop stop-color="#9BA1A2" offset="30%">
   </stop>
   <stop stop-color="#7D8487" offset="50%">
   </stop>
   <stop stop-color="#687074" stop-opacity="0" offset="70%">
   </stop>
   <stop stop-color="#5B6469" stop-opacity="0" offset="80%">
   </stop>
   <stop stop-color="#576065" stop-opacity="0" offset="100%">
   </stop>
  </linearGradient>
  <linearGradient x1="50.4098361%" y1="49.3191632%" x2="43.442623%" y2="55.9313768%" id="linearGradient-5">
   <stop stop-color="#27343C" offset="0%">
   </stop>
   <stop stop-color="#00111E" stop-opacity="0" offset="100%">
   </stop>
  </linearGradient>
  <linearGradient x1="52.916627%" y1="91.1439114%" x2="51.3153416%" y2="74.5387454%" id="linearGradient-6">
   <stop stop-color="#02131F" offset="10%">
   </stop>
   <stop stop-color="#02131F" stop-opacity="0" offset="90%">
   </stop>
  </linearGradient>
  <linearGradient x1="100.406504%" y1="42.2639771%" x2="83.3333333%" y2="45.0630757%" id="linearGradient-7">
   <stop stop-color="#02131F" offset="20%">
   </stop>
   <stop stop-color="#02131F" stop-opacity="0" offset="90%">
   </stop>
  </linearGradient>
  <linearGradient x1="53.164557%" y1="54.9923762%" x2="50.6329114%" y2="51.3313665%" id="linearGradient-8">
   <stop stop-color="#02131F" offset="0%">
   </stop>
   <stop stop-color="#02131F" offset="10%">
   </stop>
   <stop stop-color="#02131F" stop-opacity="0" offset="100%">
   </stop>
  </linearGradient>
  <linearGradient x1="50.8193466%" y1="48.5122898%" x2="48.7558071%" y2="49.949691%" id="linearGradient-9">
   <stop stop-color="#02131F" offset="30%">
   </stop>
   <stop stop-color="#02131F" offset="30%">
   </stop>
   <stop stop-color="#02131F" stop-opacity="0" offset="80%">
   </stop>
  </linearGradient>
  <linearGradient x1="50.8800389%" y1="48.1529395%" x2="49.4841151%" y2="49.2309904%" id="linearGradient-10">
   <stop stop-color="#27343C" offset="40%">
   </stop>
   <stop stop-color="#3B474E" stop-opacity="0" offset="100%">
   </stop>
  </linearGradient>
  <linearGradient x1="33.1798115%" y1="32.0099256%" x2="71.488649%" y2="71.9602978%" id="linearGradient-11">
   <stop stop-color="#24303A" stop-opacity="0" offset="0%">
   </stop>
   <stop stop-color="#25323B" stop-opacity="0" offset="0%">
   </stop>
   <stop stop-color="#27343C" offset="10%">
   </stop>
  </linearGradient>
  <linearGradient x1="50%" y1="102.109072%" x2="50%" y2="0.873606312%" id="linearGradient-12">
   <stop stop-color="#A5ABAF" offset="30%">
   </stop>
   <stop stop-color="#A5ABAF" stop-opacity="0" offset="100%">
   </stop>
  </linearGradient>
  <linearGradient x1="50.1597444%" y1="0%" x2="50.1597444%" y2="100%" id="linearGradient-13">
   <stop stop-color="#DEE0DD" offset="0%">
   </stop>
   <stop stop-color="#C5C9C7" offset="0%">
   </stop>
   <stop stop-color="#9EA4A5" offset="0%">
   </stop>
   <stop stop-color="#82898C" offset="0%">
   </stop>
   <stop stop-color="#71797D" offset="0%">
   </stop>
   <stop stop-color="#6B7378" offset="0%">
   </stop>
   <stop stop-color="#333F47" offset="20%">
   </stop>
   <stop stop-color="#27343C" offset="50%">
   </stop>
   <stop stop-color="#333F47" offset="80%">
   </stop>
   <stop stop-color="#434D54" offset="100%">
   </stop>
  </linearGradient>
  <linearGradient x1="10%" y1="0%" x2="10%" y2="0%" id="linearGradient-14">
   <stop stop-color="#DEE0DD" offset="0%">
   </stop>
   <stop stop-color="#C5C9C7" offset="0%">
   </stop>
   <stop stop-color="#9EA4A5" offset="0%">
   </stop>
   <stop stop-color="#82898C" offset="0%">
   </stop>
   <stop stop-color="#71797D" offset="0%">
   </stop>
   <stop stop-color="#6B7378" offset="0%">
   </stop>
   <stop stop-color="#333F47" offset="20%">
   </stop>
   <stop stop-color="#27343C" offset="50%">
   </stop>
   <stop stop-color="#333F47" offset="80%">
   </stop>
   <stop stop-color="#434D54" offset="100%">
   </stop>
  </linearGradient>
  <linearGradient x1="64.3637403%" y1="12.2249389%" x2="43.0657771%" y2="60.6356968%" id="linearGradient-15">
   <stop stop-color="#27343C" offset="70%">
   </stop>
   <stop stop-color="#2B373F" offset="70%">
   </stop>
   <stop stop-color="#36424A" offset="70%">
   </stop>
   <stop stop-color="#49545B" offset="70%">
   </stop>
   <stop stop-color="#646D73" stop-opacity="0" offset="80%">
   </stop>
   <stop stop-color="#868D92" stop-opacity="0" offset="80%">
   </stop>
   <stop stop-color="#B0B5B8" stop-opacity="0" offset="80%">
   </stop>
   <stop stop-color="#E1E3E4" stop-opacity="0" offset="80%">
   </stop>
   <stop stop-color="#FFFFFF" stop-opacity="0" offset="80%">
   </stop>
  </linearGradient>
 </defs>
 <g id="Logo_with_name" stroke="none" stroke-width="1" fill="none" fill-rule="evenodd">
  <g id="Group" transform="translate(77.000000, 0.000000)" fill-rule="nonzero">
   <g>
    <path d="M110.775,56 C110.775,86.275 86.275,110.775 56,110.775 C25.725,110.775 1.225,86.275 1.225,56 C1.225,25.725 25.725,1.225 56,1.225 C86.275,1.225 110.775,25.725 110.775,56 Z M56,4.55 C27.475,4.55 4.55,27.475 4.55,56 C4.55,84.525 27.65,107.45 56,107.45 C84.525,107.45 107.45,84.35 107.45,56 C107.45,27.475 84.525,4.55 56,4.55 Z" id="outer_24_" fill="url(#linearGradient-1)">
    </path>
    <path d="M56,4.55 C27.475,4.55 4.55,27.475 4.55,56 C4.55,84.525 27.65,107.45 56,107.45 C84.525,107.45 107.45,84.35 107.45,56 C107.45,27.475 84.525,4.55 56,4.55 Z M56,104.125 C29.4,104.125 7.875,82.6 7.875,56 C7.875,29.4 29.4,7.875 56,7.875 C82.6,7.875 104.125,29.4 104.125,56 C104.125,82.6 82.6,104.125 56,104.125 Z" id="Shape" fill="url(#linearGradient-2)">
    </path>
    <path d="M56,110.775 C86.275,110.775 110.775,86.275 110.775,56 C110.775,25.725 86.275,1.225 56,1.225 C25.725,1.225 1.225,25.725 1.225,56 C1.225,86.275 25.725,110.775 56,110.775 L56,110.775 Z M56,0 C86.8,0 112,25.2 112,56 C112,86.8 86.8,112 56,112 C25.2,112 0,86.8 0,56 C0,25.2 25.2,0 56,0 L56,0 Z" id="Shape" fill="url(#linearGradient-3)" opacity="0.4">
    </path>
    <path d="M3.85,56.175 C3.85,27.475 27.125,3.85 56,3.85 L56,3.85 C84.875,3.85 108.15,27.3 108.15,56.175 L108.15,56.175 C108.15,84.875 84.875,108.15 56,108.15 L56,108.15 C27.125,108.15 3.85,84.875 3.85,56.175 L3.85,56.175 Z M20.125,20.125 C10.85,29.4 5.075,42.175 5.075,56.175 L5.075,56.175 C5.075,70.175 10.85,82.95 19.95,92.05 L19.95,92.05 C29.225,101.15 42,106.925 56,106.925 L56,106.925 C70,106.925 82.775,101.325 91.875,92.05 L91.875,92.05 C101.15,82.95 106.75,70.175 106.75,56.175 L106.75,56.175 C106.75,42.175 100.975,29.4 91.875,20.125 L91.875,20.125 C82.775,10.85 70,5.075 56,5.075 L56,5.075 C42,5.075 29.225,10.85 20.125,20.125 L20.125,20.125 Z" id="Shape" fill="#FFFFFF">
    </path>
    <path d="M56,104.3 C43.05,104.3 30.975,99.225 21.875,90.125 C12.775,81.025 7.7,68.95 7.7,56 C7.7,43.05 12.775,30.975 21.875,21.875 C30.975,12.775 43.05,7.7 56,7.7 C68.95,7.7 81.025,12.775 90.125,21.875 C99.225,30.975 104.3,43.05 104.3,56 C104.3,68.95 99.225,81.025 90.125,90.125 C81.025,99.225 68.95,104.3 56,104.3 L56,104.3 Z M56,102.9 C68.425,102.9 80.325,98 89.075,89.25 C98,80.325 102.725,68.6 102.725,56.175 C102.725,43.75 97.825,31.85 89.075,23.1 C80.15,14.175 68.425,9.45 56,9.45 C43.575,9.45 31.675,14.35 22.925,23.1 C14,31.675 9.1,43.575 9.1,56 C9.1,68.425 14,80.325 22.75,89.075 C31.675,98 43.575,102.9 56,102.9 L56,102.9 Z" id="Shape" fill="url(#linearGradient-4)" opacity="0.4">
    </path>
    <path d="M98.525,78.75 C97.65,78.05 63.875,51.275 63.875,51.275 L56,6.3 C55.475,6.475 54.775,7 54.425,7.7 L48.825,51.45 L14,78.225 C14,78.225 13.3,79.1 12.95,79.625 C12.775,79.975 12.775,80.5 12.775,81.025 C12.775,81.025 12.775,81.025 12.775,81.025 L55.825,63.35 L98.875,81.025 C98.875,81.025 98.875,81.025 98.875,81.025 C99.225,80.15 98.875,79.275 98.525,78.75 Z" id="Shape" fill="#FFFFFF">
    </path>
    <path d="M56.35,57.4 L56,65.45 L95.55,81.375 C96.95,82.075 98,81.725 99.05,81.025 L56.875,57.225 C56.7,57.05 56.35,57.225 56.35,57.4 Z" id="Shape" fill="#565F64">
    </path>
    <path d="M56.35,57.4 C56.35,57.4 58.625,61.425 61.25,64.225 C64.925,68.25 69.825,71.05 69.825,71.05 L95.55,81.375 C96.95,82.075 98,81.725 99.05,81.025 L56.875,57.225 C56.7,57.05 56.35,57.225 56.35,57.4 Z" id="Shape" fill="url(#linearGradient-5)">
    </path>
    <path d="M98.875,79.45 C98.875,79.275 98.7,79.1 98.525,78.75 L62.475,52.325 L57.575,55.475 C57.575,55.475 57.925,55.65 58.1,55.475 C58.625,55.3 59.675,55.125 60.725,55.475 C61.6,55.825 98.875,79.625 98.875,79.625 C98.875,79.625 98.875,79.625 98.875,79.45 Z" id="Shape" fill-opacity="0.6" fill="#A4AAAE">
    </path>
    <path d="M97.65,77.875 L64.05,51.275 L64.05,51.275 L62.475,52.325 L98.525,78.925 C98.35,78.575 98,78.225 97.65,77.875 Z" id="Shape" fill="#333E46">
    </path>
    <path d="M56.875,54.775 C56.7,54.95 56.7,54.95 56.7,54.95 C56.7,54.95 56.7,55.3 57.05,55.125 C57.225,54.95 62.3,52.325 64.05,51.275 L57.925,9.275 C57.75,7.7 57.05,7 55.825,6.475 L56.525,55.125 L56.875,54.775 Z" id="Shape" fill="#565F64">
    </path>
    <path d="M53.9,9.275 L53.9,11.55 L50.05,50.225 C50.05,50.75 50.225,51.275 50.75,51.625 L53.025,53.375 L54.6,10.675 L54.775,7.35 C54.25,7.7 54.075,8.4 53.9,9.275 Z" id="Shape" fill-opacity="0.6" fill="#A4AAAE">
    </path>
    <path d="M51.8,54.075 L49.7,52.325 L14.175,78.05 C14.175,78.05 13.125,78.75 12.95,79.45 L12.95,79.45 C12.95,79.45 12.95,79.45 12.95,79.45 L12.95,79.45 L14.175,78.75 L14.175,78.75 L51.45,55.3 C52.15,54.95 52.325,54.6 51.8,54.075 Z" id="Shape" fill-opacity="0.6" fill="#A4AAAE">
    </path>
    <path d="M55.475,57.4 C55.475,57.225 55.3,57.05 55.125,57.225 L12.775,81.2 C13.825,81.9 14.875,82.075 16.275,81.55 L55.825,65.625 L55.475,57.4 Z" id="Shape" fill="#565F64">
    </path>
    <path d="M56.7,54.95 L56.875,54.775 C56.7,54.95 56.7,54.95 56.7,54.95 L56.7,54.95 C56.7,54.95 56.7,55.125 56.875,55.125 C56.875,55.125 57.05,55.125 57.05,55.125 C57.225,54.95 62.3,52.325 64.05,51.275 L63.35,46.2 L63.35,46.2 L57.925,9.275 C57.925,8.575 57.75,8.05 57.4,7.7 C57.4,7.7 60.025,43.05 60.025,46.9 C60.025,51.975 56.7,54.95 56.7,54.95 Z" id="Shape" fill="url(#linearGradient-6)">
    </path>
    <path d="M55.475,57.4 C55.475,57.225 55.3,57.05 55.125,57.225 L12.775,81.2 C13.825,81.9 14.875,82.075 16.275,81.55 L55.825,65.625 L55.475,57.4 Z" id="Shape" fill-opacity="0.8" fill="url(#linearGradient-7)">
    </path>
    <path d="M16.275,81.375 L55.825,65.45 L55.475,57.75 C54.775,59.85 53.55,62.125 50.225,63.875 C50.225,63.875 50.225,63.875 50.225,63.875 C47.775,65.275 24.325,76.825 15.925,80.85 C15.4,81.2 14.7,81.375 14.35,81.55 C15.05,81.9 15.575,81.725 16.275,81.375 Z" id="Shape" fill="url(#linearGradient-8)" opacity="0.8">
    </path>
    <path d="M56.875,54.775 C56.7,54.95 56.7,54.95 56.7,54.95 C56.7,54.95 56.7,55.3 57.05,55.125 C57.225,54.95 62.3,52.325 64.05,51.275 L57.925,9.275 C57.75,7.7 57.05,7 55.825,6.475 L56.525,55.125 L56.875,54.775 Z" id="Shape" fill="url(#linearGradient-9)">
    </path>
    <path d="M56.875,54.775 C56.7,54.95 56.7,54.95 56.7,54.95 C56.7,54.95 56.7,55.3 57.05,55.125 C57.225,54.95 62.3,52.325 64.05,51.275 L57.925,9.275 C57.75,7.7 57.05,7 55.825,6.475 L56.525,55.125 L56.875,54.775 Z" id="Shape" fill="url(#linearGradient-10)">
    </path>
    <path d="M8.925,77.7 C7.7,74.9 0.7,61.25 8.4,35 L5.425,35 C3.85,40.25 2.625,43.4 1.925,48.125 C1.925,48.125 1.575,49.875 1.4,51.8 C1.225,53.725 1.225,54.775 1.225,56 C1.225,66.5 3.85,72.625 3.85,72.625 C6.65,81.375 11.55,89.25 18.2,95.2 C23.975,100.275 32.9,104.125 40.25,105.525 C39.025,105.35 18.025,96.425 8.925,77.7 Z" id="Shape" fill="url(#linearGradient-11)">
    </path>
    <path d="M56.7,57.05 L55.125,57.05 L55.125,57.05 C55.3,57.05 55.475,57.05 55.475,57.225 L55.825,65.275 L55.825,65.275 L56,65.275 L56.35,57.225 C56.35,57.05 56.525,56.875 56.7,57.05 L56.7,57.05 L56.7,57.05 Z" id="Shape" fill="url(#linearGradient-12)">
    </path>
    <path d="M73.5,4.025 C91.875,11.025 109.2,30.275 109.2,54.6 C109.2,84 85.75,107.975 56,107.975 L56,110.775 C85.75,110.775 110.775,86.275 110.775,56 C110.775,31.85 95.375,11.55 73.5,4.025 Z" id="Shape" fill="url(#linearGradient-13)">
    </path>
    <path d="M56.525,1.225 C56.35,1.225 56.175,1.225 56,1.225 C56.175,1.225 56.35,1.225 56.525,1.225 C56.525,1.225 56.525,1.225 56.525,1.225 Z" id="Shape" fill="url(#linearGradient-14)">
    </path>
    <path d="M102.9,35.35 C90.65,7.175 63,5.6 61.425,5.425 C61.425,5.425 61.425,5.425 61.25,5.425 L61.25,5.425 C82.425,9.275 95.9,23.1 100.625,37.625 C100.625,37.625 100.625,37.8 100.625,37.8 C102.725,43.4 103.775,49.35 103.95,55.825 C104.125,61.95 102.725,68.775 100.1,75.075 C99.925,75.95 99.75,77 99.575,77 L102.375,77 C110.775,61.25 107.1,45.325 102.9,35.35 Z" id="Shape" fill="url(#linearGradient-15)">
    </path>
    <path d="M3.85,56.175 C3.85,27.475 27.125,3.85 56,3.85 L56,3.85 C84.875,3.85 108.15,27.3 108.15,56.175 L108.15,56.175 C108.15,84.875 84.875,108.15 56,108.15 L56,108.15 C27.125,108.15 3.85,84.875 3.85,56.175 L3.85,56.175 Z M20.125,20.125 C10.85,29.4 5.075,42.175 5.075,56.175 L5.075,56.175 C5.075,70.175 10.85,82.95 19.95,92.05 L19.95,92.05 C29.225,101.15 42,106.925 56,106.925 L56,106.925 C70,106.925 82.775,101.325 91.875,92.05 L91.875,92.05 C101.15,82.95 106.75,70.175 106.75,56.175 L106.75,56.175 C106.75,42.175 100.975,29.4 91.875,20.125 L91.875,20.125 C82.775,10.85 70,5.075 56,5.075 L56,5.075 C42,5.075 29.225,10.85 20.125,20.125 L20.125,20.125 Z" id="Shape" fill="#FBFBFB">
    </path>
    <path d="M13.825,78.4 L13.825,78.4 L49.525,52.675 C51.45,53.725 54.6,55.125 54.95,55.125 C55.3,55.3 55.3,54.95 55.3,54.95 L50.925,51.275 C50.4,50.925 50.225,50.4 50.225,49.875 L54.425,7.7 C54.25,7.875 54.25,8.225 54.075,8.4 C53.9,8.75 53.9,8.925 53.9,9.275 L47.775,51.45 L14.175,77.875 C14,78.05 13.825,78.225 13.825,78.4 Z" id="Shape" fill="#333F47">
    </path>
   </g>
  </g>
  <g id="Logo_brand-without-claim" transform="translate(0.000000, 152.000000)" fill="#FFFFFF" fill-rule="nonzero">
   <rect id="rect2" x="170.8" y="16.8" width="11.2" height="2.8">
   </rect>
   <path d="M6.03448276,3.15275591 L5.06896552,26.192126 L5.06896552,26.6771654 C5.06896552,28.6173228 5.55172414,29.1023622 8.68965517,29.3448819 L8.68965517,30.3149606 C6.51724138,30.0724409 5.55172414,30.0724409 4.34482759,30.0724409 C3.13793103,30.0724409 2.17241379,30.0724409 0,30.3149606 L0,29.3448819 C3.13793103,29.1023622 3.62068966,28.8598425 3.62068966,26.4346457 L4.5862069,4.60787402 L4.5862069,4.36535433 C4.5862069,2.42519685 3.86206897,1.94015748 0.965517241,1.6976378 L0.965517241,0.48503937 C2.65517241,0.727559055 3.37931034,0.727559055 4.5862069,0.727559055 C6.27586207,0.727559055 7,0.727559055 8.68965517,0.48503937 L16.8965517,23.0393701 L25.3448276,0.48503937 C27.2758621,0.727559055 28.2413793,0.727559055 29.6896552,0.727559055 C30.8965517,0.727559055 31.6206897,0.727559055 33.3103448,0.48503937 L33.3103448,1.6976378 C30.4137931,1.94015748 29.6896552,2.42519685 29.6896552,4.36535433 L29.6896552,4.60787402 L30.1724138,26.4346457 C30.1724138,28.8598425 30.6551724,29.1023622 33.7931034,29.3448819 L33.7931034,30.3149606 C30.8965517,30.0724409 29.9310345,30.0724409 28.2413793,30.0724409 C26.5517241,30.0724409 25.5862069,30.0724409 22.6896552,30.3149606 L22.6896552,29.3448819 C25.5862069,29.1023622 26.3103448,28.6173228 26.3103448,26.6771654 L26.3103448,26.4346457 L25.8275862,3.39527559 L18.3448276,23.0393701 L17.862069,24.4944882 L17.137931,26.192126 L16.6551724,27.8897638 L16.1724138,29.3448819 L15.4482759,29.3448819 L14.9655172,27.8897638 L14.2413793,26.192126 L13.7586207,24.4944882 L13.2758621,22.7968504 L6.03448276,3.15275591 Z M45.137931,29.3448819 C41.0344828,29.3448819 39.3448276,26.192126 39.3448276,19.1590551 L52.6206897,19.1590551 C52.6206897,12.3685039 49.7241379,8.73070866 44.4137931,8.73070866 C39.1034483,8.73070866 35.7241379,13.096063 35.7241379,19.8866142 C35.7241379,26.6771654 39.1034483,30.8 44.6551724,30.8 C49,30.8 51.8965517,28.1322835 52.3793103,23.5244094 L50.6896552,23.5244094 C50.2068966,27.1622047 48.2758621,29.3448819 45.137931,29.3448819 M39.3448276,17.4614173 C39.8275862,12.3685039 41.5172414,9.7007874 44.4137931,9.7007874 C47.3103448,9.7007874 48.7586207,12.1259843 49,17.4614173 L39.3448276,17.4614173 Z M55.0344828,10.1858268 L55.0344828,9.45826772 C57.4482759,9.21574803 59.137931,8.97322835 60.8275862,8.48818898 C61.0689655,10.1858268 61.0689655,10.9133858 61.3103448,12.1259843 L61.3103448,12.6110236 C62.2758621,10.1858268 64.2068966,8.48818898 66.3793103,8.48818898 C68.5517241,8.48818898 70.2413793,9.94330709 70.2413793,12.1259843 C70.2413793,13.3385827 69.5172414,14.3086614 68.3103448,14.3086614 C67.3448276,14.3086614 66.3793103,13.5811024 66.3793103,12.8535433 C66.3793103,12.8535433 66.3793103,12.6110236 66.3793103,12.3685039 L66.3793103,11.8834646 L66.3793103,11.6409449 C66.3793103,10.9133858 65.8965517,10.6708661 64.9310345,10.6708661 C62.5172414,10.6708661 61.0689655,13.5811024 61.0689655,17.9464567 L61.0689655,27.1622047 C61.0689655,29.1023622 61.5517241,29.3448819 64.2068966,29.5874016 L64.2068966,30.5574803 C61.7931034,30.3149606 60.8275862,30.3149606 59.3793103,30.3149606 C57.6896552,30.3149606 56.9655172,30.3149606 54.3103448,30.5574803 L54.3103448,29.5874016 C56.9655172,29.3448819 57.4482759,29.1023622 57.4482759,27.1622047 L57.4482759,13.096063 L57.4482759,12.3685039 C57.4482759,10.4283465 57.2068966,10.1858268 54.7931034,10.1858268 L55.0344828,10.1858268 Z M87.3793103,8.24566929 L87.3793103,15.5212598 L86.4137931,15.5212598 C85.6896552,11.6409449 84,9.7007874 81.3448276,9.7007874 C77.9655172,9.7007874 76.0344828,13.3385827 76.0344828,19.6440945 C76.0344828,25.9496063 77.7241379,29.1023622 81.1034483,29.1023622 C83.7586207,29.1023622 85.4482759,27.1622047 85.9310345,23.2818898 L87.862069,23.2818898 C87.3793103,28.1322835 84.7241379,30.5574803 80.862069,30.5574803 C75.7931034,30.5574803 72.1724138,26.192126 72.1724138,19.6440945 C72.1724138,13.096063 75.7931034,8.48818898 80.862069,8.48818898 C82.7931034,8.48818898 84,8.97322835 85.4482759,10.4283465 L86.6551724,8.24566929 L87.3793103,8.24566929 Z M100.413793,29.3448819 C96.3103448,29.3448819 94.6206897,26.192126 94.6206897,19.1590551 L107.896552,19.1590551 C107.896552,12.3685039 105,8.73070866 99.6896552,8.73070866 C94.3793103,8.73070866 91,13.096063 91,19.8866142 C91,26.6771654 94.3793103,30.8 99.9310345,30.8 C104.275862,30.8 107.172414,28.1322835 107.655172,23.5244094 L105.965517,23.5244094 C105.482759,27.1622047 103.551724,29.3448819 100.413793,29.3448819 M94.6206897,17.4614173 C95.1034483,12.3685039 96.7931034,9.7007874 99.6896552,9.7007874 C102.586207,9.7007874 104.034483,12.1259843 104.275862,17.4614173 L94.6206897,17.4614173 Z M128.413793,25.7070866 L128.413793,0 C126.241379,0.48503937 124.310345,0.97007874 121.655172,1.21259843 L121.655172,1.94015748 C124.551724,1.94015748 124.793103,2.18267717 124.793103,4.60787402 L124.793103,12.3685039 C123.103448,9.7007874 121.896552,8.97322835 119.482759,8.97322835 C114.655172,8.97322835 111.517241,13.5811024 111.517241,19.8866142 C111.517241,26.192126 114.896552,30.8 119.724138,30.8 C122.137931,30.8 124.068966,29.5874016 125.275862,27.1622047 C125.517241,28.8598425 125.517241,29.1023622 126,30.8 C127.931034,30.3149606 128.655172,30.0724409 131.068966,29.8299213 L131.793103,29.8299213 L131.793103,29.1023622 C128.655172,28.6173228 128.413793,28.3748031 128.413793,25.7070866 M119.965517,29.5874016 C116.827586,29.5874016 115.137931,26.192126 115.137931,19.8866142 C115.137931,13.3385827 116.586207,10.1858268 119.965517,10.1858268 C123.344828,10.1858268 125.034483,13.5811024 125.034483,20.1291339 C124.793103,26.192126 123.103448,29.5874016 119.965517,29.5874016 M142.655172,29.3448819 C138.551724,29.3448819 136.862069,26.192126 136.862069,19.1590551 L150.137931,19.1590551 C150.137931,12.3685039 147.241379,8.73070866 141.931034,8.73070866 C136.62069,8.73070866 133.241379,13.096063 133.241379,19.8866142 C133.241379,26.6771654 136.62069,30.8 142.172414,30.8 C146.517241,30.8 149.413793,28.1322835 149.896552,23.5244094 L148.206897,23.5244094 C147.724138,27.1622047 145.793103,29.3448819 142.655172,29.3448819 M136.862069,17.4614173 C137.344828,12.3685039 139.034483,9.7007874 141.931034,9.7007874 C144.827586,9.7007874 146.275862,12.1259843 146.517241,17.4614173 L136.862069,17.4614173 Z M153.758621,30.8 L153.758621,23.2818898 L154.724138,23.2818898 C155.448276,27.4047244 157.37931,29.3448819 160.517241,29.3448819 C163.172414,29.3448819 165.103448,27.6472441 165.103448,25.2220472 C165.103448,23.7669291 164.37931,22.7968504 162.206897,21.584252 L160.517241,20.8566929 L158.344828,20.1291339 C155.206897,18.6740157 154,17.4614173 154,14.7937008 C154,11.1559055 156.655172,8.97322835 160.758621,8.97322835 C162.448276,8.97322835 163.655172,9.45826772 165.344828,10.4283465 L166.068966,8.48818898 L166.793103,8.48818898 L166.793103,15.2787402 L165.827586,15.2787402 C165.344828,11.6409449 163.896552,9.94330709 161.241379,9.94330709 C158.827586,9.94330709 157.137931,11.6409449 157.137931,13.5811024 C157.137931,15.2787402 157.862069,16.0062992 161.724138,17.703937 L163.655172,18.4314961 C167.034483,19.8866142 168.241379,21.3417323 168.241379,24.0094488 C168.241379,27.6472441 165.344828,30.3149606 161,30.3149606 C159.068966,30.3149606 157.37931,29.8299213 155.689655,28.3748031 L154.724138,30.3149606 L153.758621,30.3149606 L153.758621,30.8 Z M201.551724,7.76062992 C201.551724,5.33543307 200.586207,3.39527559 198.896552,2.18267717 C197.448276,0.97007874 195.758621,0.48503937 192.862069,0.48503937 L181.275862,0.48503937 L181.275862,1.6976378 C184.413793,1.94015748 184.896552,2.18267717 184.896552,4.60787402 L184.896552,26.192126 C184.896552,28.6173228 184.655172,28.8598425 181.275862,29.1023622 L181.275862,30.0724409 L192.37931,30.0724409 C195.758621,30.0724409 197.448276,29.5874016 199.37931,28.6173228 C201.551724,27.1622047 203,24.4944882 203,21.584252 C203,19.1590551 202.034483,16.976378 200.344828,15.7637795 C199.37931,15.0362205 198.413793,14.5511811 196.724138,14.3086614 C199.862069,13.096063 201.551724,10.9133858 201.551724,7.76062992 M188.517241,1.94015748 L192.37931,1.94015748 C196,1.94015748 197.689655,3.88031496 197.689655,8.00314961 C197.689655,9.94330709 197.206897,11.6409449 196.241379,12.6110236 C195.275862,13.823622 194.068966,14.0661417 191.655172,14.0661417 L188.517241,14.0661417 L188.517241,1.94015748 Z M192.862069,15.2787402 C195.275862,15.2787402 196.482759,15.7637795 197.448276,16.7338583 C198.413793,17.703937 199.137931,19.6440945 199.137931,21.8267717 C199.137931,26.192126 196.965517,28.8598425 192.862069,28.8598425 L191.172414,28.8598425 C188.758621,28.8598425 188.517241,28.6173228 188.517241,26.4346457 L188.517241,15.2787402 L192.862069,15.2787402 Z M216.034483,29.3448819 C211.931034,29.3448819 210.241379,26.192126 210.241379,19.1590551 L223.517241,19.1590551 C223.517241,12.3685039 220.62069,8.73070866 215.310345,8.73070866 C210,8.73070866 206.62069,13.096063 206.62069,19.8866142 C206.62069,26.6771654 210,30.8 215.551724,30.8 C219.896552,30.8 222.793103,28.1322835 223.275862,23.5244094 L221.586207,23.5244094 C221.103448,27.1622047 219.172414,29.3448819 216.034483,29.3448819 M210.241379,17.4614173 C210.724138,12.3685039 212.413793,9.7007874 215.310345,9.7007874 C218.206897,9.7007874 219.655172,12.1259843 219.896552,17.4614173 L210.241379,17.4614173 Z M225.689655,10.4283465 L225.689655,9.7007874 C228.344828,9.45826772 229.793103,8.97322835 231.482759,8.24566929 C231.724138,9.21574803 231.724138,10.4283465 231.965517,12.1259843 C233.655172,9.7007874 235.344828,8.73070866 238,8.73070866 C240.655172,8.73070866 243.068966,10.1858268 243.793103,12.3685039 C244.275862,13.3385827 244.517241,14.7937008 244.517241,16.4913386 L244.517241,27.1622047 C244.517241,29.1023622 245,29.3448819 247.655172,29.5874016 L247.655172,30.5574803 C245.241379,30.3149606 244.517241,30.3149606 242.827586,30.3149606 C241.137931,30.3149606 240.413793,30.3149606 238,30.5574803 L238,29.5874016 C240.413793,29.5874016 240.896552,29.1023622 240.896552,27.1622047 L240.896552,16.2488189 C240.896552,12.3685039 239.689655,10.9133858 236.793103,10.9133858 C233.896552,10.9133858 232.206897,12.8535433 232.206897,16.4913386 L232.206897,27.1622047 C232.206897,28.8598425 232.689655,29.3448819 235.103448,29.5874016 L235.103448,30.5574803 C232.689655,30.3149606 231.965517,30.3149606 230.275862,30.3149606 C228.827586,30.3149606 227.862069,30.3149606 225.448276,30.5574803 L225.448276,29.5874016 C228.103448,29.3448819 228.586207,29.1023622 228.586207,27.1622047 L228.586207,13.3385827 L228.586207,12.6110236 C228.586207,10.6708661 228.344828,10.4283465 226.172414,10.4283465 C226.172414,10.4283465 225.931034,10.4283465 225.689655,10.4283465 M249.344828,30.3149606 L261.413793,10.4283465 L255.862069,10.4283465 C252.965517,10.4283465 252.241379,11.1559055 250.793103,15.0362205 L249.827586,15.0362205 L250.793103,9.21574803 L266,9.21574803 L253.931034,29.1023622 L259,29.1023622 C261.896552,29.1023622 263.344828,27.8897638 264.551724,23.7669291 L265.517241,23.7669291 L264.310345,30.0724409 L249.344828,30.0724409 L249.344828,30.3149606 Z" id="path4">
   </path>
  </g>
 </g>
</svg>