<svg width="2190" height="409" viewBox="0 0 2190 409" fill="none" xmlns="http://www.w3.org/2000/svg" xmlns:xlink="http://www.w3.org/1999/xlink">
 <path d="M741.775 223.972H824.229C835.811 223.972 845.2 233.431 845.2 245.1C845.2 256.769 835.811 266.229 824.229 266.229H724.776C723.223 266.229 721.722 266.787 720.542 267.804L690.514 293.688C685.917 297.65 688.698 305.235 694.748 305.235H819.248C819.299 305.235 819.341 305.193 819.341 305.142C819.341 305.087 819.387 305.044 819.441 305.048C821.008 305.172 822.591 305.235 824.189 305.235C857.215 305.235 883.988 278.312 883.988 245.1C883.988 213.562 859.845 187.694 829.131 185.168C829.078 185.163 829.038 185.119 829.038 185.066C829.038 185.01 828.993 184.965 828.937 184.965H740.109C728.527 184.965 719.138 175.506 719.138 163.837C719.138 152.168 728.527 142.708 740.109 142.708H839.424C841.06 142.708 842.635 142.088 843.837 140.972L871.721 115.089C876.083 111.04 873.239 103.702 867.308 103.702H741.775C741.769 103.702 741.764 103.706 741.764 103.712C741.764 103.718 741.759 103.723 741.753 103.723C741.22 103.709 740.685 103.702 740.148 103.702C707.122 103.702 680.35 130.625 680.35 163.837C680.35 197.048 707.122 223.972 740.148 223.972C740.685 223.972 741.22 223.964 741.753 223.95C741.759 223.95 741.764 223.955 741.764 223.961C741.764 223.967 741.769 223.972 741.775 223.972Z" fill="white">
 </path>
 <path d="M1222.02 103.702C1218.41 103.702 1215.49 106.639 1215.49 110.263V298.674C1215.49 302.297 1218.41 305.235 1222.02 305.235H1373C1374.8 305.235 1376.53 304.484 1377.76 303.161L1396.66 282.896C1400.57 278.705 1397.61 271.846 1391.9 271.846H1260.07C1256.47 271.846 1253.54 268.909 1253.54 265.285V110.263C1253.54 106.639 1250.62 103.702 1247.02 103.702H1222.02Z" fill="white">
 </path>
 <path fill-rule="evenodd" clip-rule="evenodd" d="M980.193 103.702C980.183 103.702 980.175 103.71 980.175 103.719C980.175 103.729 980.168 103.737 980.158 103.737C960.861 104.573 945.365 120.102 944.531 139.441C944.53 139.45 944.522 139.458 944.513 139.458C944.508 139.458 944.503 139.46 944.5 139.464C944.497 139.467 944.495 139.471 944.495 139.475V266.212C944.495 266.221 944.503 266.229 944.512 266.229C944.522 266.229 944.53 266.237 944.529 266.246C944.507 266.779 944.495 267.315 944.495 267.854C944.495 287.949 960.317 304.34 980.158 305.2C980.168 305.2 980.175 305.208 980.175 305.217L980.177 305.225L980.182 305.231C980.185 305.234 980.189 305.235 980.193 305.235H1117.19C1117.2 305.235 1117.21 305.227 1117.21 305.217L1117.21 305.207L1117.22 305.202L1117.23 305.2C1137.07 304.34 1152.89 287.949 1152.89 267.854C1152.89 267.315 1152.88 266.779 1152.86 266.246C1152.86 266.237 1152.86 266.229 1152.87 266.229C1152.88 266.229 1152.89 266.221 1152.89 266.212V139.475C1152.89 139.466 1152.88 139.458 1152.87 139.458C1152.86 139.458 1152.85 139.45 1152.85 139.441C1152.02 120.102 1136.52 104.573 1117.23 103.737C1117.22 103.737 1117.21 103.729 1117.21 103.719C1117.21 103.71 1117.2 103.702 1117.19 103.702L980.193 103.702ZM1005.73 139.458L1005.72 139.462L1005.72 139.469C1005.72 139.475 1005.71 139.48 1005.71 139.48C993.647 140.006 983.963 149.774 983.441 161.939C983.441 161.944 983.436 161.949 983.43 161.949C983.424 161.949 983.419 161.954 983.419 161.96V241.682C983.419 241.688 983.424 241.692 983.43 241.692C983.436 241.692 983.441 241.697 983.44 241.703C983.426 242.039 983.419 242.376 983.419 242.715C983.419 255.355 993.308 265.666 1005.71 266.206C1005.71 266.207 1005.72 266.212 1005.72 266.217L1005.72 266.224L1005.72 266.227L1005.73 266.229H1091.66L1091.66 266.228L1091.66 266.223L1091.67 266.217C1091.67 266.212 1091.67 266.207 1091.68 266.206C1104.08 265.666 1113.97 255.355 1113.97 242.715C1113.97 242.376 1113.96 242.039 1113.95 241.703L1113.95 241.701L1113.95 241.698L1113.96 241.692C1113.96 241.692 1113.97 241.688 1113.97 241.682V161.96C1113.97 161.954 1113.96 161.949 1113.96 161.949C1113.95 161.949 1113.94 161.944 1113.94 161.939C1113.42 149.774 1103.74 140.006 1091.68 139.48C1091.67 139.48 1091.67 139.475 1091.67 139.469L1091.66 139.463L1091.66 139.459L1091.66 139.458H1005.73Z" fill="white">
 </path>
 <path fill-rule="evenodd" clip-rule="evenodd" d="M1616.21 298.674C1616.21 302.297 1619.1 305.235 1622.68 305.235H1648.28C1651.86 305.235 1654.76 302.297 1654.76 298.674V142.725C1654.76 142.716 1654.75 142.708 1654.74 142.708L1654.73 142.706L1654.73 142.704C1654.73 142.7 1654.72 142.696 1654.72 142.69C1654.75 142.157 1654.76 141.621 1654.76 141.083C1654.76 120.988 1639.09 104.597 1619.43 103.737C1619.43 103.737 1619.42 103.729 1619.42 103.719C1619.42 103.71 1619.41 103.702 1619.4 103.702H1487.88C1487.87 103.702 1487.86 103.709 1487.86 103.719C1487.86 103.728 1487.85 103.736 1487.84 103.736C1487.32 103.713 1486.79 103.702 1486.25 103.702C1465.85 103.702 1449.31 120.438 1449.31 141.083C1449.31 141.621 1449.32 142.157 1449.34 142.69C1449.34 142.7 1449.33 142.708 1449.32 142.708C1449.31 142.708 1449.31 142.716 1449.31 142.725V298.674C1449.31 302.297 1452.21 305.235 1455.78 305.235H1481.39C1484.96 305.235 1487.86 302.297 1487.86 298.674V233.784C1487.86 230.16 1490.76 227.222 1494.33 227.222H1609.73C1613.31 227.222 1616.21 230.16 1616.21 233.784V298.674ZM1487.86 191.406V158.961C1487.86 146.394 1497.93 136.207 1510.35 136.207H1593.72C1606.14 136.207 1616.21 146.394 1616.21 158.961V191.406C1616.21 195.03 1613.31 197.967 1609.73 197.967H1494.33C1490.76 197.967 1487.86 195.03 1487.86 191.406Z" fill="white">
 </path>
 <path fill-rule="evenodd" clip-rule="evenodd" d="M2156.72 305.235C2153.11 305.235 2150.18 302.297 2150.18 298.674V233.784C2150.18 230.16 2147.25 227.222 2143.65 227.222H2026.97C2023.36 227.222 2020.44 230.16 2020.44 233.784V298.674C2020.44 302.297 2017.51 305.235 2013.9 305.235H1988.05C1984.44 305.235 1981.51 302.297 1981.51 298.674V142.725L1981.51 142.721L1981.52 142.715C1981.52 142.711 1981.52 142.708 1981.53 142.708C1981.54 142.708 1981.55 142.7 1981.55 142.69C1981.52 142.157 1981.51 141.621 1981.51 141.083C1981.51 120.438 1998.21 103.702 2018.81 103.702C2019.35 103.702 2019.89 103.713 2020.42 103.736C2020.43 103.736 2020.44 103.728 2020.44 103.719C2020.44 103.709 2020.44 103.702 2020.45 103.702L2153.41 103.702C2153.42 103.702 2153.42 103.71 2153.42 103.719C2153.42 103.729 2153.43 103.737 2153.44 103.737C2173.28 104.597 2189.1 120.988 2189.1 141.083C2189.1 141.621 2189.09 142.157 2189.07 142.69C2189.07 142.7 2189.08 142.708 2189.09 142.708C2189.09 142.708 2189.1 142.71 2189.1 142.713C2189.1 142.716 2189.1 142.721 2189.1 142.725V298.674C2189.1 302.297 2186.18 305.235 2182.57 305.235H2156.72ZM2020.44 158.961V191.406C2020.44 195.03 2023.36 197.967 2026.97 197.967H2143.65C2147.25 197.967 2150.18 195.03 2150.18 191.406V158.961C2150.18 146.394 2140.02 136.207 2127.48 136.207H2043.14C2030.6 136.207 2020.44 146.394 2020.44 158.961Z" fill="white">
 </path>
 <path d="M1751.14 103.702C1753.04 103.702 1754.84 104.544 1756.07 106.006L1870.9 242.904C1874.81 247.545 1882.3 244.746 1882.3 238.646V110.263C1882.3 106.639 1885.2 103.702 1888.78 103.702H1914.38C1917.96 103.702 1920.86 106.639 1920.86 110.263V298.674C1920.86 302.297 1917.96 305.235 1914.38 305.235H1882.55C1882.41 305.235 1882.3 305.125 1882.3 304.99C1882.3 304.931 1882.28 304.873 1882.24 304.829L1765.48 168.885C1761.54 164.319 1754.13 167.139 1754.13 173.201V298.674C1754.13 302.297 1751.23 305.235 1747.65 305.235H1721.88C1718.31 305.235 1715.41 302.297 1715.41 298.674V110.263C1715.41 106.639 1718.31 103.702 1721.88 103.702H1751.14Z" fill="white">
 </path>
 <path d="M85.0529 312.174C88.2458 308.984 92.5747 307.192 97.0884 307.192H513.548C521.135 307.192 524.933 316.365 519.566 321.728L437.275 403.954C434.082 407.144 429.753 408.937 425.239 408.937H8.77891C1.1923 408.937 -2.60553 399.763 2.76114 394.4L85.0529 312.174Z" fill="url(#paint0_linear)">
 </path>
 <path d="M85.0529 4.98247C88.2458 1.79211 92.5747 0 97.0884 0H513.548C521.135 0 524.933 9.17393 519.566 14.5363L437.275 96.7625C434.082 99.9529 429.753 101.745 425.239 101.745H8.77891C1.1923 101.745 -2.60553 92.571 2.76114 87.2086L85.0529 4.98247Z" fill="url(#paint1_linear)">
 </path>
 <path d="M437.275 157.6C434.082 154.41 429.753 152.617 425.239 152.617H8.77891C1.1923 152.617 -2.60554 161.791 2.76114 167.154L85.0529 249.38C88.2458 252.57 92.5747 254.362 97.0884 254.362H513.548C521.135 254.362 524.933 245.188 519.566 239.826L437.275 157.6Z" fill="url(#paint2_linear)">
 </path>
 <defs>
  <linearGradient id="paint0_linear" x1="353.037" y1="-112.174" x2="64.8109" y2="439.895" gradientUnits="userSpaceOnUse">
   <stop stop-color="#00FFA3">
   </stop>
   <stop offset="1" stop-color="#DC1FFF">
   </stop>
  </linearGradient>
  <linearGradient id="paint1_linear" x1="353.037" y1="-112.174" x2="64.8109" y2="439.895" gradientUnits="userSpaceOnUse">
   <stop stop-color="#00FFA3">
   </stop>
   <stop offset="1" stop-color="#DC1FFF">
   </stop>
  </linearGradient>
  <linearGradient id="paint2_linear" x1="353.037" y1="-112.174" x2="64.8109" y2="439.895" gradientUnits="userSpaceOnUse">
   <stop stop-color="#00FFA3">
   </stop>
   <stop offset="1" stop-color="#DC1FFF">
   </stop>
  </linearGradient>
 </defs>
</svg>