<svg width="2189" height="409" viewBox="0 0 2189 409" fill="none" xmlns="http://www.w3.org/2000/svg" xmlns:xlink="http://www.w3.org/1999/xlink">
 <path d="M741.527 223.972H823.981C835.563 223.972 844.951 233.431 844.951 245.1C844.951 256.769 835.563 266.229 823.981 266.229H724.528C722.975 266.229 721.474 266.787 720.294 267.804L690.266 293.688C685.669 297.65 688.45 305.235 694.5 305.235H819C819.051 305.235 819.093 305.193 819.093 305.142C819.093 305.087 819.139 305.044 819.193 305.048C820.76 305.172 822.343 305.235 823.941 305.235C856.967 305.235 883.74 278.312 883.74 245.1C883.74 213.562 859.597 187.694 828.883 185.168C828.83 185.163 828.79 185.119 828.79 185.066C828.79 185.01 828.745 184.965 828.689 184.965H739.861C728.279 184.965 718.89 175.506 718.89 163.837C718.89 152.168 728.279 142.708 739.861 142.708H839.176C840.811 142.708 842.387 142.088 843.589 140.972L871.473 115.089C875.835 111.04 872.991 103.702 867.06 103.702H741.527C741.521 103.702 741.516 103.706 741.516 103.712C741.516 103.718 741.511 103.723 741.505 103.723C740.972 103.709 740.437 103.702 739.9 103.702C706.874 103.702 680.102 130.625 680.102 163.837C680.102 197.048 706.874 223.972 739.9 223.972C740.437 223.972 740.972 223.964 741.505 223.95C741.511 223.95 741.516 223.955 741.516 223.961C741.516 223.967 741.521 223.972 741.527 223.972Z" fill="black">
 </path>
 <path d="M1221.77 103.702C1218.16 103.702 1215.24 106.639 1215.24 110.263V298.674C1215.24 302.297 1218.16 305.235 1221.77 305.235H1372.75C1374.55 305.235 1376.28 304.484 1377.51 303.161L1396.41 282.896C1400.32 278.705 1397.36 271.846 1391.65 271.846H1259.82C1256.22 271.846 1253.3 268.909 1253.3 265.285V110.263C1253.3 106.639 1250.37 103.702 1246.77 103.702H1221.77Z" fill="black">
 </path>
 <path fill-rule="evenodd" clip-rule="evenodd" d="M979.945 103.702C979.935 103.702 979.927 103.71 979.927 103.719C979.927 103.729 979.92 103.737 979.91 103.737C960.613 104.573 945.117 120.102 944.283 139.441C944.282 139.45 944.274 139.458 944.265 139.458C944.26 139.458 944.255 139.46 944.252 139.464C944.249 139.467 944.247 139.471 944.247 139.475V266.212C944.247 266.221 944.255 266.229 944.264 266.229C944.274 266.229 944.282 266.237 944.281 266.246C944.259 266.779 944.247 267.315 944.247 267.854C944.247 287.949 960.069 304.34 979.91 305.2C979.92 305.2 979.927 305.208 979.927 305.217L979.929 305.225L979.934 305.231C979.937 305.234 979.941 305.235 979.945 305.235H1116.94C1116.95 305.235 1116.96 305.227 1116.96 305.217L1116.96 305.207L1116.97 305.202L1116.98 305.2C1136.82 304.34 1152.64 287.949 1152.64 267.854C1152.64 267.315 1152.63 266.779 1152.61 266.246C1152.61 266.237 1152.62 266.229 1152.62 266.229C1152.63 266.229 1152.64 266.221 1152.64 266.212V139.475C1152.64 139.466 1152.63 139.458 1152.62 139.458C1152.61 139.458 1152.61 139.45 1152.61 139.441C1151.77 120.102 1136.28 104.573 1116.98 103.737C1116.97 103.737 1116.96 103.729 1116.96 103.719C1116.96 103.71 1116.95 103.702 1116.94 103.702L979.945 103.702ZM1005.48 139.458L1005.47 139.462L1005.47 139.469C1005.47 139.475 1005.47 139.48 1005.46 139.48C993.399 140.006 983.715 149.774 983.193 161.939C983.193 161.944 983.188 161.949 983.182 161.949C983.176 161.949 983.171 161.954 983.171 161.96V241.682C983.171 241.688 983.176 241.692 983.182 241.692C983.188 241.692 983.192 241.697 983.192 241.703C983.178 242.039 983.171 242.376 983.171 242.715C983.171 255.355 993.06 265.666 1005.46 266.206C1005.47 266.207 1005.47 266.212 1005.47 266.217L1005.47 266.224L1005.48 266.227L1005.48 266.229H1091.41L1091.41 266.228L1091.42 266.223L1091.42 266.217C1091.42 266.212 1091.42 266.207 1091.43 266.206C1103.83 265.666 1113.72 255.355 1113.72 242.715C1113.72 242.376 1113.71 242.039 1113.7 241.703L1113.7 241.701L1113.7 241.698L1113.71 241.692C1113.71 241.692 1113.72 241.688 1113.72 241.682V161.96C1113.72 161.954 1113.71 161.949 1113.71 161.949C1113.7 161.949 1113.7 161.944 1113.7 161.939C1113.17 149.774 1103.49 140.006 1091.43 139.48C1091.42 139.48 1091.42 139.475 1091.42 139.469L1091.42 139.463L1091.41 139.459L1091.41 139.458H1005.48Z" fill="black">
 </path>
 <path fill-rule="evenodd" clip-rule="evenodd" d="M1615.96 298.674C1615.96 302.297 1618.86 305.235 1622.43 305.235H1648.04C1651.61 305.235 1654.51 302.297 1654.51 298.674V142.725C1654.51 142.716 1654.5 142.708 1654.49 142.708L1654.49 142.706L1654.48 142.704C1654.48 142.7 1654.48 142.696 1654.48 142.69C1654.5 142.157 1654.51 141.621 1654.51 141.083C1654.51 120.988 1638.84 104.597 1619.19 103.737C1619.18 103.737 1619.17 103.729 1619.17 103.719C1619.17 103.71 1619.16 103.702 1619.15 103.702H1487.63C1487.62 103.702 1487.61 103.709 1487.61 103.719C1487.61 103.728 1487.6 103.736 1487.59 103.736C1487.07 103.713 1486.54 103.702 1486.01 103.702C1465.6 103.702 1449.06 120.438 1449.06 141.083C1449.06 141.621 1449.07 142.157 1449.09 142.69C1449.09 142.7 1449.09 142.708 1449.08 142.708C1449.07 142.708 1449.06 142.716 1449.06 142.725V298.674C1449.06 302.297 1451.96 305.235 1455.53 305.235H1481.14C1484.71 305.235 1487.61 302.297 1487.61 298.674V233.784C1487.61 230.16 1490.51 227.222 1494.08 227.222H1609.48C1613.06 227.222 1615.96 230.16 1615.96 233.784V298.674ZM1487.61 191.406V158.961C1487.61 146.394 1497.68 136.207 1510.1 136.207H1593.47C1605.89 136.207 1615.96 146.394 1615.96 158.961V191.406C1615.96 195.03 1613.06 197.967 1609.48 197.967H1494.09C1490.51 197.967 1487.61 195.03 1487.61 191.406Z" fill="black">
 </path>
 <path fill-rule="evenodd" clip-rule="evenodd" d="M2156.47 305.235C2152.86 305.235 2149.93 302.297 2149.93 298.674V233.784C2149.93 230.16 2147.01 227.222 2143.4 227.222H2026.72C2023.11 227.222 2020.19 230.16 2020.19 233.784V298.674C2020.19 302.297 2017.26 305.235 2013.65 305.235H1987.8C1984.19 305.235 1981.26 302.297 1981.26 298.674V142.725L1981.26 142.721L1981.27 142.715C1981.27 142.711 1981.28 142.708 1981.28 142.708C1981.29 142.708 1981.3 142.7 1981.3 142.69C1981.28 142.157 1981.26 141.621 1981.26 141.083C1981.26 120.438 1997.96 103.702 2018.57 103.702C2019.1 103.702 2019.64 103.713 2020.17 103.736C2020.18 103.736 2020.19 103.728 2020.19 103.719C2020.19 103.709 2020.19 103.702 2020.2 103.702L2153.16 103.702C2153.17 103.702 2153.18 103.71 2153.18 103.719C2153.18 103.729 2153.18 103.737 2153.19 103.737C2173.03 104.597 2188.86 120.988 2188.86 141.083C2188.86 141.621 2188.84 142.157 2188.82 142.69C2188.82 142.7 2188.83 142.708 2188.84 142.708C2188.84 142.708 2188.85 142.71 2188.85 142.713C2188.85 142.716 2188.86 142.721 2188.86 142.725V298.674C2188.86 302.297 2185.93 305.235 2182.32 305.235H2156.47ZM2020.19 158.961V191.406C2020.19 195.03 2023.11 197.967 2026.72 197.967H2143.4C2147.01 197.967 2149.93 195.03 2149.93 191.406V158.961C2149.93 146.394 2139.77 136.207 2127.23 136.207H2042.89C2030.35 136.207 2020.19 146.394 2020.19 158.961Z" fill="black">
 </path>
 <path d="M1750.89 103.702C1752.79 103.702 1754.59 104.544 1755.82 106.006L1870.66 242.904C1874.56 247.545 1882.06 244.746 1882.06 238.646V110.263C1882.06 106.639 1884.95 103.702 1888.53 103.702H1914.14C1917.71 103.702 1920.61 106.639 1920.61 110.263V298.674C1920.61 302.297 1917.71 305.235 1914.14 305.235H1882.3C1882.16 305.235 1882.06 305.125 1882.06 304.99C1882.06 304.931 1882.03 304.873 1882 304.829L1765.23 168.885C1761.29 164.319 1753.88 167.139 1753.88 173.201V298.674C1753.88 302.297 1750.98 305.235 1747.41 305.235H1721.63C1718.06 305.235 1715.16 302.297 1715.16 298.674V110.263C1715.16 106.639 1718.06 103.702 1721.63 103.702H1750.89Z" fill="black">
 </path>
 <path d="M84.8048 312.174C87.9977 308.984 92.3267 307.192 96.8403 307.192H513.3C520.887 307.192 524.685 316.365 519.318 321.728L437.026 403.954C433.834 407.144 429.505 408.937 424.991 408.937H8.53086C0.944257 408.937 -2.85358 399.763 2.5131 394.4L84.8048 312.174Z" fill="url(#paint0_linear)">
 </path>
 <path d="M84.8048 4.98247C87.9977 1.79211 92.3267 0 96.8403 0H513.3C520.887 0 524.685 9.17393 519.318 14.5363L437.026 96.7625C433.834 99.9529 429.505 101.745 424.991 101.745H8.53086C0.944257 101.745 -2.85358 92.571 2.5131 87.2086L84.8048 4.98247Z" fill="url(#paint1_linear)">
 </path>
 <path d="M437.026 157.6C433.834 154.41 429.505 152.617 424.991 152.617H8.53086C0.944255 152.617 -2.85358 161.791 2.5131 167.154L84.8048 249.38C87.9977 252.57 92.3267 254.362 96.8403 254.362H513.3C520.887 254.362 524.685 245.188 519.318 239.826L437.026 157.6Z" fill="url(#paint2_linear)">
 </path>
 <defs>
  <linearGradient id="paint0_linear" x1="352.789" y1="-112.174" x2="64.5629" y2="439.895" gradientUnits="userSpaceOnUse">
   <stop stop-color="#00FFA3">
   </stop>
   <stop offset="1" stop-color="#DC1FFF">
   </stop>
  </linearGradient>
  <linearGradient id="paint1_linear" x1="352.789" y1="-112.174" x2="64.5629" y2="439.895" gradientUnits="userSpaceOnUse">
   <stop stop-color="#00FFA3">
   </stop>
   <stop offset="1" stop-color="#DC1FFF">
   </stop>
  </linearGradient>
  <linearGradient id="paint2_linear" x1="352.789" y1="-112.174" x2="64.5629" y2="439.895" gradientUnits="userSpaceOnUse">
   <stop stop-color="#00FFA3">
   </stop>
   <stop offset="1" stop-color="#DC1FFF">
   </stop>
  </linearGradient>
 </defs>
</svg>