<svg height="2500" viewBox="5.370000000000001 33.59 133.015 81.32399999999998" width="2500" xmlns="http://www.w3.org/2000/svg"><path d="M27.71 33.618c-9.547-.028-22.34 6.798-21.632 23.904C7.184 84.25 31.535 86.73 41.27 86.945c1.068 5.013 12.522 22.305 21.002 23.216h37.152c22.278-1.668 38.961-75.756 26.594-76.038-46.782 2.477-49.996 2.138-88.6 0-2.495-.027-5.972-.495-9.708-.505zm2.491 9.458C31.553 56.77 33.757 64.78 38.22 77.02c-11.382-1.505-21.07-5.225-22.851-19.11-.951-7.411 2.39-15.168 14.833-14.834z" fill="#609926" stroke="#428f29"/><g fill="#fff"><rect height="34.762" ry="5.483" transform="rotate(25.915)" width="34.762" x="87.509" y="18.292"/><path d="M79.805 57.36l3.241 1.609V35.256h-3.263z"/></g><g fill="#609926"><circle cx="49.065" cy="90.078" r="3.475" transform="rotate(-19.796)"/><circle cx="36.81" cy="102.105" r="3.475" transform="rotate(-19.796)"/><circle cx="46.484" cy="111.439" r="3.475" transform="rotate(-19.796)"/><path d="M79.54 58.935l2.402 1.173L69.98 84.606l-2.402-1.173z"/></g><path d="M76.558 68.116c12.976 6.396 13.013 4.102 4.891 20.908" fill="none" stroke="#609926" stroke-width="2.68"/></svg>