<svg version="1.1" id="Layer_1" xmlns:x="ns_extend;" xmlns:i="ns_ai;" xmlns:graph="ns_graphs;" xmlns="http://www.w3.org/2000/svg" xmlns:xlink="http://www.w3.org/1999/xlink" x="0px" y="0px" viewBox="0 0 317.5 77" style="enable-background:new 0 0 317.5 77;" xml:space="preserve">
 <style type="text/css">
  .st0{fill:#8B1057;}
	.st1{fill:#F9B000;}
 </style>
 <metadata>
  <sfw xmlns="ns_sfw;">
   <slices>
   </slices>
   <sliceSourceBounds bottomLeftOrigin="true" height="77" width="317.5" x="1.6" y="-219">
   </sliceSourceBounds>
  </sfw>
 </metadata>
 <g>
  <g>
   <path class="st0" d="M10.1,61.8l5.2-14.2l5,14.2H10.1z M25.4,76.1h4.8L17.8,41.9H13L0,76.1h4.8l3.8-10.5h13L25.4,76.1z M48.1,68.8
			c0,2.8-2.3,4.3-6.1,4.3c-3.1,0-5.2-0.9-6.4-2.9L31,71c1.8,3.7,5.5,5.4,10.8,5.4c7.1,0,10.9-4,10.9-8.2c0-5.4-5-6.9-10.7-8
			c-2.8-0.6-6-1.6-6-4c0-1.7,1.7-3.8,5.1-3.8c3.5,0,5.6,2.4,5.9,3.3l4-1.7c-1.9-3.5-5.6-5-9.5-5c-6,0-10,3-10,7.7
			c0,5.4,4.6,6.4,9,7.4C44.4,65,48.1,65.9,48.1,68.8 M62.3,41.9l-4.5,1.9v6.3h-4.1v3.6h4.1v16.7c-0.1,3.4-0.1,5.8,5,5.8
			c1.6,0,3.5-0.3,4.2-0.4v-3.6c-0.9,0.3-2,0.6-2.9,0.6c-1.9,0-1.9-1.3-1.9-4.4V53.7H67v-3.6h-4.7V41.9z M70.9,50.1v26h4.4V64.1
			c0-2.2-0.1-4.9,1.1-6.7c1.4-2.3,3.5-3.2,7.8-3.2v-4.5c-1.8,0.1-6.4,0.2-8.9,5.1v-4.6H70.9z M110,41.9v4.2h19.4l-19.4,25.5v4.4H135
			V72h-19.8l19.3-25.8v-4.3H110z M162.3,50.1v26h4.4V61.3c0-1.9,0-3.9,1.9-5.8c1.4-1.4,3-2,5-2c2.4,0,4.8,1.1,5.6,3.6
			c0.3,0.9,0.3,1.6,0.3,4.3v14.7h4.3V60.7c0-2.2,0-3.8-0.4-5.3c-1.3-4.3-5.2-5.9-8.5-5.9c-1.5,0-5.7,0.4-8.1,4.6v-4H162.3z
			 M230,69.8c-0.9,1.8-2.6,3.4-6,3.4c-2.9,0-7.9-1.8-7.9-10.4c0-2.3,0.4-10.5,7.6-10.5c3.6,0,5.3,2,6.1,3.7l4.1-1.7
			c-2.5-4.2-7.1-5.2-10.3-5.2c-8.3,0-12.3,6.7-12.3,14c0,6.4,3.5,13.4,12.6,13.4c5.3,0,8.3-2.6,9.9-5.1L230,69.8z M141.3,60.4h13.8
			c-0.4-6.8-4.3-7.9-6.9-7.9C144.4,52.4,141.8,55.2,141.3,60.4 M158.7,71.1c-1.5,2.5-4.4,5.4-10,5.4c-7.7,0-12.1-5.2-12.1-13.9
			c0-9.8,6.4-13.5,11.9-13.5c4.8,0,9.3,2.6,10.9,9.2c0.5,2.2,0.5,4.2,0.5,5.3h-18.6c-0.1,4.3,1.7,9.8,7.8,9.7c2.5,0,4.3-1.2,5.4-3
			L158.7,71.1z M190.8,60.4h13.8c-0.4-6.8-4.3-7.9-6.9-7.9C194,52.4,191.3,55.2,190.8,60.4 M208.2,71.1c-1.5,2.5-4.4,5.4-10,5.4
			c-7.7,0-12.1-5.2-12.1-13.9c0-9.8,6.4-13.5,11.9-13.5c4.8,0,9.3,2.6,10.9,9.2c0.5,2.2,0.5,4.2,0.5,5.3h-18.7
			c-0.1,4.3,1.7,9.8,7.8,9.7c2.5,0,4.3-1.2,5.4-3L208.2,71.1z M257.7,76.1l-4.5,0c0,0-0.4-1.8-0.5-3.8c-1.3,1.4-3.8,4.2-8.7,4.2
			c-5,0-8.8-3-8.8-7.4c0-1.4,0.4-2.8,1.2-3.9c1.5-2.2,4.2-4,12-4.6l4.1-0.3v-0.7c0-2.7,0-7.2-5.8-7.2c-3.6,0-4.9,1.8-5.3,3.4l-4-1.7
			c0.1-0.1,0.1-0.3,0.2-0.4c1.5-2.8,4.6-4.6,8.9-4.6c2.4,0,5.5,0.6,7.6,2.2c2.9,2.2,2.8,6.5,2.8,6.5l0.2,13.3
			C257,71.1,257.2,75,257.7,76.1 M251.8,68.9c0.7-1.4,0.7-2,0.7-5.8c-1.7,0.3-4,0.6-6.8,1.2c-4.8,1-5.6,2.9-5.6,4.7
			c0,2.1,1.6,3.8,4.9,3.8C247.9,72.8,250.5,71.6,251.8,68.9 M106.9,76.1l-4.5,0c0,0-0.4-1.8-0.5-3.8c-1.3,1.4-3.8,4.2-8.7,4.2
			c-5,0-8.8-3-8.8-7.4c0-1.4,0.4-2.8,1.2-3.9c1.5-2.2,4.2-4,12-4.6l4.1-0.3v-0.7c0-2.7,0-7.2-5.8-7.2c-3.6,0-4.9,1.8-5.3,3.4l-4-1.7
			c0.1-0.1,0.1-0.3,0.2-0.4c1.5-2.8,4.6-4.6,8.9-4.6c2.4,0,5.5,0.6,7.5,2.2c2.9,2.2,2.8,6.5,2.8,6.5l0.2,13.3
			C106.2,71.1,106.3,75,106.9,76.1 M100.9,68.9c0.7-1.4,0.7-2,0.7-5.8c-1.7,0.3-4,0.6-6.8,1.2c-4.8,1-5.7,2.9-5.7,4.7
			c0,2.1,1.6,3.8,4.9,3.8C97.1,72.8,99.6,71.6,100.9,68.9">
   </path>
   <path class="st1" d="M286.1,54.2c-0.7,0.4-1.4,0.9-2,1.3c-7.8-4.3-24.6-12.7-26.1-13.5c-1.6-0.8-4.3-1.9-3.9-4.5
			c0.5-3.6,6.8-11.6,9.5-14.9C278,4.9,284.5-0.5,288.8,0c4.6,0.6,7.1,5.3,7.5,27.6c-2.6-0.8-5.4-1.6-8.4-2.4
			c-0.2-3.2-0.8-8.1-1.1-9.8c-0.3-1.9-0.6-2.6-1.4-2.7c-0.9-0.1-3,1.9-4.9,3.9c-0.9,0.9-3.3,3.4-6.1,6.1c-2.3-0.1-3.8,0.3-4.6,1.4
			c-0.7,0.9-0.8,2.1-0.4,3.7c-1.5,1.5-2.7,2.7-3.5,3.5c-3,3-6.2,5.5-6.4,6.7c-0.1,1,1.4,2,3.6,3.3C268.4,44.6,281.5,51.7,286.1,54.2
			 M306.5,32c-5.1-1.8-17.8-6.5-31.1-8.2c-4.6-0.6-6.4,1-4.5,5.4c1.9,4.3,6.7,11.6,11.8,17c5.1,5.4,10.6,6.9,12.3-1.5
			c0.1-0.3,0.1-0.6,0.2-0.9c0.4-2.2,0.7-4.2,0.9-6.1c-2.2-1-4.8-2.1-7.3-3.2c0.1,1.9,0.4,5.2,0.5,7.8c0,0.3,0,0.6,0,0.9
			c0.2,4.1-1.3,4.1-3.6,2.4c-2.7-2-11.1-13-12.1-17.9c0-0.3,0.1-0.3,0.3-0.3c0.1,0,0.1,0.1,0.2,0.1c0,0,0,0,0,0
			c1.9,0.7,8.2,3.2,14.6,5.9c2.6,1.1,5.1,2.2,7.4,3.2c2.3,1,4.3,2,5.8,2.8c2.8,1.5,3.8,2.5,2.7,3.7c-5.8,5.8-25.8,14.1-32.8,24.4
			c0,0,0,0-0.1,0.1c-0.1,0.1-0.2,0.2-0.2,0.4c0,0,0,0.1-0.1,0.1c-0.3,0.6-0.8,1.7-1,3.1c-0.3,2.2,0.9,4.3,4.1,5.2
			c0.8,0.2,1.7,0.4,2.7,0.5c0.2,0,0.4,0,0.6,0c6.2,0.3,22.3-3.2,27.2-5.4c5.1-2.2,3.5-4.5,2.1-5.6c-1.1-0.9-6.7-4-9.5-5.5
			c-0.7,0.5-1.3,0.8-2,1.3c4.6,2.8,6.5,4.2,7.6,5.1c0.4,0.3,0.2,0.7-0.4,0.8c-0.2,0-0.3,0-0.5,0c-4.4,0.3-12.8,0.9-16.7,1.1
			c-0.6,0-1.2,0.1-1.6,0.1c1-0.9,2.1-1.7,2.6-2.1c8.4-5.9,22.4-14.2,26.5-17.8C316,46.3,324.3,38.2,306.5,32">
   </path>
  </g>
 </g>
</svg>