<svg version="1.1" id="svg5838" inkscape:version="0.92.0 r15299" xmlns:cc="http://creativecommons.org/ns#" xmlns:dc="http://purl.org/dc/elements/1.1/" xmlns:inkscape="http://www.inkscape.org/namespaces/inkscape" xmlns:rdf="http://www.w3.org/1999/02/22-rdf-syntax-ns#" xmlns:sodipodi="http://sodipodi.sourceforge.net/DTD/sodipodi-0.dtd" xmlns:svg="http://www.w3.org/2000/svg" xmlns="http://www.w3.org/2000/svg" xmlns:xlink="http://www.w3.org/1999/xlink" x="0px" y="0px" viewBox="0 0 249.2 48.2" style="enable-background:new 0 0 249.2 48.2;" xml:space="preserve">
 <style type="text/css">
  .st0{fill:#EE2841;}
 </style>
 <sodipodi:namedview bordercolor="#666666" borderopacity="1.0" fit-margin-bottom="0" fit-margin-left="0" fit-margin-right="0" fit-margin-top="0" id="base" inkscape:current-layer="layer1" inkscape:cx="53.333237" inkscape:cy="3.5403569" inkscape:document-units="mm" inkscape:pageopacity="0.0" inkscape:pageshadow="2" inkscape:window-height="744" inkscape:window-maximized="1" inkscape:window-width="1280" inkscape:window-x="-4" inkscape:window-y="-4" inkscape:zoom="8.4093905" pagecolor="#ffffff" showgrid="false" units="px">
 </sodipodi:namedview>
 <g id="layer1" transform="translate(-64.507962,-181.84103)" inkscape:groupmode="layer" inkscape:label="Layer 1">
  <g id="g5994" transform="translate(0.13229173,-0.13228748)">
   <path id="path3013" inkscape:connector-curvature="0" class="st0" d="M307.1,196.5c-0.2,0-0.4-0.2-0.4-0.4v-2.8h-0.8
			c-0.2,0-0.4-0.2-0.4-0.4c0-0.2,0.2-0.4,0.4-0.4h2.4c0.2,0,0.4,0.2,0.4,0.4c0,0.2-0.2,0.4-0.4,0.4h-0.8v2.8
			C307.5,196.3,307.4,196.5,307.1,196.5 M313.1,196.5c-0.2,0-0.4-0.2-0.4-0.4v-2.4l-1,2.7c0,0.1-0.1,0.2-0.2,0.2
			c-0.1,0-0.2-0.1-0.2-0.2l-1-2.7v2.4c0,0.2-0.2,0.4-0.4,0.4c-0.2,0-0.4-0.2-0.4-0.4v-2.9c0-0.4,0.3-0.7,0.7-0.7
			c0.3,0,0.5,0.2,0.6,0.4l0.8,2l0.8-2c0.1-0.3,0.3-0.4,0.6-0.4c0.4,0,0.7,0.3,0.7,0.7v2.9C313.5,196.3,313.4,196.5,313.1,196.5">
   </path>
   <path id="path3017" inkscape:connector-curvature="0" class="st0" d="M93.8,191.3c0-1.4,0.4-2.7,1.2-3.8c-2.2,0.7-3.9,2.7-3.9,5.1
			v4.3l2.7,0.1V191.3z">
   </path>
   <path id="path3021" inkscape:connector-curvature="0" class="st0" d="M91.2,220.8c0,2.4,1.6,4.5,3.9,5.1c-0.7-1.1-1.2-2.4-1.2-3.8
			v-8h-2.7V220.8z">
   </path>
   <path id="path3025" inkscape:connector-curvature="0" class="st0" d="M97.9,214.1h-2.7v8c0,2.4,1.6,4.5,3.9,5.1
			c-0.7-1.1-1.2-2.4-1.2-3.8V214.1z">
   </path>
   <path id="path3029" inkscape:connector-curvature="0" class="st0" d="M97.9,190c0-1.4,0.4-2.7,1.2-3.8c-2.2,0.7-3.9,2.7-3.9,5.1
			v5.8l2.7,0.1V190z">
   </path>
   <path id="path3033" inkscape:connector-curvature="0" class="st0" d="M67.7,188.3c-2,1.2-3.3,3.3-3.3,5.7v25.5
			c0,2.4,1.3,4.6,3.3,5.7c-0.4-0.9-0.6-2-0.6-3.1v-30.8C67.1,190.3,67.3,189.2,67.7,188.3">
   </path>
   <path id="path3037" inkscape:connector-curvature="0" class="st0" d="M71.1,188.7c0-1.1,0.2-2.1,0.6-3.1c-2,1.2-3.3,3.3-3.3,5.7
			v30.8c0,2.9,1.8,5.3,4.4,6.3c-1.1-1.4-1.7-3.1-1.7-4.9L71.1,188.7z">
   </path>
   <path id="path3041" inkscape:connector-curvature="0" class="st0" d="M104.6,184.7c-3,0-5.4,2.4-5.4,5.4v8.7L85.8,198v-9.4
			c0-3.7-3-6.7-6.7-6.7c-3.7,0-6.7,3-6.7,6.7v34.8c0,3.7,3,6.7,6.7,6.7s6.7-3,6.7-6.7v-10.7h13.4v10.7c0,3,2.4,5.4,5.4,5.4
			c3,0,5.4-2.4,5.4-5.4V190C109.9,187,107.5,184.7,104.6,184.7">
   </path>
   <path id="path3045" inkscape:connector-curvature="0" class="st0" d="M150.8,217.3v-9.9h-14.5v9.9c0,1.1-0.9,2-1.9,2
			c-1.1,0-2-0.9-2-2v-22.6c0-1.1,0.9-2,2-2c1.1,0,2,0.9,2,2v9.2h14.5v-9.2c0-1.1,0.9-2,2-2c1.1,0,2,0.9,2,2v22.6c0,1.1-0.9,2-2,2
			C151.7,219.2,150.8,218.3,150.8,217.3">
   </path>
   <path id="path3049" inkscape:connector-curvature="0" class="st0" d="M157.5,209.5c0-5.5,3.7-9.9,9.6-9.9c5.9,0,9.6,4.5,9.6,9.9
			c0,5.5-3.6,10-9.6,10C161.2,219.5,157.5,215,157.5,209.5 M173,209.5c0-3.6-2.1-6.8-5.9-6.8c-3.8,0-5.9,3.2-5.9,6.8
			c0,3.6,2.1,6.8,5.9,6.8C170.9,216.4,173,213.2,173,209.5">
   </path>
   <path id="path3053" inkscape:connector-curvature="0" class="st0" d="M197.2,199.6c5.7,0,9.2,4.4,9.2,9.4c0,1.1-0.7,1.7-2.1,1.7
			h-12.9c0.3,3.2,2.6,5.9,6.4,5.9c1.6,0,3.3-0.5,4.7-1.5c0.2-0.2,0.5-0.2,0.8-0.2c0.8,0,1.4,0.6,1.4,1.4c0,0.5-0.2,0.9-0.6,1.2
			c-1.9,1.4-4.1,2-6.6,2c-5.6,0-9.8-4-9.8-10C187.7,204.1,191.6,199.6,197.2,199.6 M191.4,208.2h11.6c-0.1-2.5-1.8-5.6-5.8-5.6
			C193.4,202.5,191.5,205.6,191.4,208.2">
   </path>
   <path id="path3057" inkscape:connector-curvature="0" class="st0" d="M208.6,217.5v-23c0-1,0.8-1.8,1.8-1.8c0.9,0,1.8,0.8,1.8,1.8
			v23c0,1-0.8,1.8-1.8,1.8C209.4,219.2,208.6,218.5,208.6,217.5">
   </path>
   <path id="path3061" inkscape:connector-curvature="0" class="st0" d="M214.4,216.1c0-0.9,0.7-1.5,1.5-1.5c0.3,0,0.6,0.1,0.9,0.3
			c1.5,1.1,3.3,1.8,5.3,1.8c2.7,0,4.1-1.1,4.1-2.7c0-1.9-2.2-2.5-4.6-3.1c-3.2-0.7-7-1.6-7-5.7c0-3,2.6-5.6,7.2-5.6
			c2.6,0,4.7,0.8,6.3,2c0.4,0.3,0.6,0.7,0.6,1.2c0,0.8-0.7,1.4-1.4,1.4c-0.3,0-0.6-0.1-0.8-0.3c-1.2-0.9-2.9-1.4-4.7-1.4
			c-2.4,0-3.9,0.9-3.9,2.5c0,1.6,2,2.2,4.4,2.7c3.3,0.7,7.2,1.6,7.2,6c0,3.3-2.7,5.8-7.6,5.8c-2.6,0-5-0.7-6.9-2.1
			C214.7,217.1,214.4,216.6,214.4,216.1">
   </path>
   <path id="path3065" inkscape:connector-curvature="0" class="st0" d="M234.3,214.6c1.3,0,2.5,1.1,2.5,2.4s-1.1,2.5-2.5,2.5
			c-1.3,0-2.4-1.1-2.4-2.5C231.8,215.7,232.9,214.6,234.3,214.6">
   </path>
   <path id="path3069" inkscape:connector-curvature="0" class="st0" d="M255.1,209.5c0-5.5,3.7-9.9,9.6-9.9c5.9,0,9.6,4.5,9.6,9.9
			c0,5.5-3.6,10-9.6,10C258.7,219.5,255.1,215,255.1,209.5 M270.5,209.5c0-3.6-2.1-6.8-5.9-6.8c-3.8,0-5.9,3.2-5.9,6.8
			c0,3.6,2.1,6.8,5.9,6.8C268.4,216.4,270.5,213.2,270.5,209.5">
   </path>
   <path id="path3073" inkscape:connector-curvature="0" class="st0" d="M303.4,205.4v12.1c0,1-0.8,1.8-1.8,1.8
			c-0.9,0-1.7-0.8-1.7-1.8v-11.1c0-2.2-1-3.3-3.3-3.3c-1.9,0-3.8,2.2-4.7,3.5v10.8c0,1-0.8,1.8-1.8,1.8c-0.9,0-1.8-0.8-1.8-1.8
			v-11.1c0-2.2-0.9-3.3-3.3-3.3c-1.8,0-3.7,2.3-4.6,3.7v10.7c0,1-0.8,1.8-1.8,1.8c-1,0-1.8-0.8-1.8-1.8v-15.8c0-1,0.8-1.8,1.7-1.8
			c1,0,1.8,0.8,1.8,1.8v1.1c0.8-1.2,3.3-3.1,6.1-3.1c2.9,0,4.6,1.5,5.1,3.5c1.1-1.8,3.7-3.5,6.4-3.5
			C301.6,199.6,303.4,201.6,303.4,205.4">
   </path>
   <path id="path3077" inkscape:connector-curvature="0" class="st0" d="M247.3,199.6c2.7,0,4.6,0.9,6,2.2c0.3,0.3,0.5,0.7,0.5,1.2
			c0,0.9-0.7,1.6-1.6,1.6c-0.4,0-0.8-0.2-1.1-0.4c-1.1-1-2.3-1.5-3.8-1.5c-3.7,0-6.1,2.9-6.1,6.8c0,3.9,2.4,6.7,6.1,6.8
			c2.5,0.1,5-1.7,7.1-5c0.3-0.4,0.6-1.1,0.9-1.5c0.6-0.7,1-0.4,1.3,0c0.6,0.7,0.6,2.2,0.2,3c-1.1,2.1-2.1,3.1-3.2,4.2
			c-1.5,1.5-3.8,2.5-6.5,2.5c-5.7,0-9.6-4.3-9.6-10C237.7,203.9,241.6,199.6,247.3,199.6">
   </path>
   <path id="path3081" inkscape:connector-curvature="0" class="st0" d="M190.2,216.1c0,0.7-1.9,2.2-3.3,2.8
			c-0.8,0.4-1.6,0.5-2.7,0.5c-3,0-4.5-1.7-4.5-4.7v-11.6h-1.8c-0.8,0-1.6-0.7-1.6-1.6c0-0.8,0.7-1.5,1.6-1.5h1.8v-3.6
			c0-1,0.8-1.8,1.8-1.8c0.9,0,1.8,0.8,1.8,1.8v3.6h2.5c0.9,0,1.6,0.7,1.6,1.5c0,0.9-0.7,1.6-1.6,1.6h-2.5v10.9
			c0,1.3,0.6,2.3,1.8,2.3c2.2,0,3.9-3.4,4.8-3.4C190.8,213,190.2,215.3,190.2,216.1">
   </path>
  </g>
 </g>
</svg>