<svg version="1.1" id="svg5838" inkscape:version="0.92.0 r15299" xmlns:cc="http://creativecommons.org/ns#" xmlns:dc="http://purl.org/dc/elements/1.1/" xmlns:inkscape="http://www.inkscape.org/namespaces/inkscape" xmlns:rdf="http://www.w3.org/1999/02/22-rdf-syntax-ns#" xmlns:sodipodi="http://sodipodi.sourceforge.net/DTD/sodipodi-0.dtd" xmlns:svg="http://www.w3.org/2000/svg" xmlns="http://www.w3.org/2000/svg" xmlns:xlink="http://www.w3.org/1999/xlink" x="0px" y="0px" viewBox="0 0 45.5 48.2" style="enable-background:new 0 0 45.5 48.2;" xml:space="preserve">
 <style type="text/css">
  .st0{fill:#EE2841;}
 </style>
 <sodipodi:namedview bordercolor="#666666" borderopacity="1.0" fit-margin-bottom="0" fit-margin-left="0" fit-margin-right="0" fit-margin-top="0" id="base" inkscape:current-layer="layer1" inkscape:cx="53.333237" inkscape:cy="3.5403569" inkscape:document-units="mm" inkscape:pageopacity="0.0" inkscape:pageshadow="2" inkscape:window-height="744" inkscape:window-maximized="1" inkscape:window-width="1280" inkscape:window-x="-4" inkscape:window-y="-4" inkscape:zoom="8.4093905" pagecolor="#ffffff" showgrid="false" units="px">
 </sodipodi:namedview>
 <g id="layer1" transform="translate(-64.507962,-181.84103)" inkscape:groupmode="layer" inkscape:label="Layer 1">
  <g id="g5994" transform="translate(0.13229173,-0.13228748)">
   <path id="path3017" inkscape:connector-curvature="0" class="st0" d="M93.8,191.3c0-1.4,0.4-2.7,1.2-3.8c-2.2,0.7-3.9,2.7-3.9,5.1
			v4.3l2.7,0.1V191.3z">
   </path>
   <path id="path3021" inkscape:connector-curvature="0" class="st0" d="M91.2,220.8c0,2.4,1.6,4.5,3.9,5.1c-0.7-1.1-1.2-2.4-1.2-3.8
			v-8h-2.7V220.8z">
   </path>
   <path id="path3025" inkscape:connector-curvature="0" class="st0" d="M97.9,214.1h-2.7v8c0,2.4,1.6,4.5,3.9,5.1
			c-0.7-1.1-1.2-2.4-1.2-3.8V214.1z">
   </path>
   <path id="path3029" inkscape:connector-curvature="0" class="st0" d="M97.9,190c0-1.4,0.4-2.7,1.2-3.8c-2.2,0.7-3.9,2.7-3.9,5.1
			v5.8l2.7,0.1V190z">
   </path>
   <path id="path3033" inkscape:connector-curvature="0" class="st0" d="M67.7,188.3c-2,1.2-3.3,3.3-3.3,5.7v25.5
			c0,2.4,1.3,4.6,3.3,5.7c-0.4-0.9-0.6-2-0.6-3.1v-30.8C67.1,190.3,67.3,189.2,67.7,188.3">
   </path>
   <path id="path3037" inkscape:connector-curvature="0" class="st0" d="M71.1,188.7c0-1.1,0.2-2.1,0.6-3.1c-2,1.2-3.3,3.3-3.3,5.7
			v30.8c0,2.9,1.8,5.3,4.4,6.3c-1.1-1.4-1.7-3.1-1.7-4.9L71.1,188.7z">
   </path>
   <path id="path3041" inkscape:connector-curvature="0" class="st0" d="M104.6,184.7c-3,0-5.4,2.4-5.4,5.4v8.7L85.8,198v-9.4
			c0-3.7-3-6.7-6.7-6.7c-3.7,0-6.7,3-6.7,6.7v34.8c0,3.7,3,6.7,6.7,6.7s6.7-3,6.7-6.7v-10.7h13.4v10.7c0,3,2.4,5.4,5.4,5.4
			c3,0,5.4-2.4,5.4-5.4V190C109.9,187,107.5,184.7,104.6,184.7">
   </path>
  </g>
 </g>
</svg>