<?xml version="1.0" encoding="UTF-8"?>
<svg width="500px" height="110px" viewBox="0 0 500 110" version="1.1" xmlns="http://www.w3.org/2000/svg" xmlns:xlink="http://www.w3.org/1999/xlink">
    <!-- Generator: Sketch 51.3 (57544) - http://www.bohemiancoding.com/sketch -->
    <title>letterboxd-logo-h-neg-rgb</title>
    <desc>Created with Sketch.</desc>
    <defs></defs>
    <g id="letterboxd-logo-h-neg-rgb" stroke="none" stroke-width="1" fill="none" fill-rule="evenodd">
        <g id="Horizontal-Lockup" transform="translate(31.000000, 30.000000)">
            <g id="Dots" transform="translate(0.000000, 11.000000)">
                <ellipse id="Blue" fill="#40BCF4" cx="79.2100081" cy="18" rx="18.0271053" ry="18"></ellipse>
                <ellipse id="Green" fill="#00E054" cx="48.6185567" cy="18" rx="18.0271053" ry="18"></ellipse>
                <ellipse id="Orange" fill="#FF8000" cx="18.0271053" cy="18" rx="18.0271053" ry="18"></ellipse>
                <path d="M33.322831,27.5305134 C31.5918989,24.7666961 30.5914514,21.5000059 30.5914514,18 C30.5914514,14.4999941 31.5918989,11.2333039 33.322831,8.46948657 C35.0537631,11.2333039 36.0542106,14.4999941 36.0542106,18 C36.0542106,21.5000059 35.0537631,24.7666961 33.322831,27.5305134 Z" id="Overlap" fill="#FFFFFF"></path>
                <path d="M63.9142824,8.46948657 C65.6452145,11.2333039 66.645662,14.4999941 66.645662,18 C66.645662,21.5000059 65.6452145,24.7666961 63.9142824,27.5305134 C62.1833504,24.7666961 61.1829028,21.5000059 61.1829028,18 C61.1829028,14.4999941 62.1833504,11.2333039 63.9142824,8.46948657 Z" id="Overlap" fill="#FFFFFF"></path>
            </g>
            <path d="M210.044026,11.8490254 C211.321248,11.8490254 212.192052,11.7319901 213.352678,11.4972468 C215.500704,11.2046584 216.312876,10.2670305 216.661331,7.39562898 C216.835225,5.98918706 216.951155,4.75829815 217.009786,3.35185624 L225.716486,3.35185624 L225.716486,11.8490254 L233.726943,11.8490254 L233.726943,21.2838225 L225.716486,21.2838225 L225.716486,29.4285404 C225.716486,35.2883788 226.587289,35.9334183 231.578917,35.9334183 L233.726943,35.9334183 L233.726943,45.8363568 L228.386194,45.8363568 C218.228377,45.8363568 215.732563,42.1450353 215.732563,31.5385396 L215.732563,21.2838225 L212.90977,21.2838225 L201.710587,21.2838225 L201.710587,29.4285404 C201.710587,35.2883788 202.580724,35.9334183 207.572352,35.9334183 L209.720378,35.9334183 L209.720378,45.8363568 L204.379629,45.8363568 C194.221812,45.8363568 191.726664,42.1450353 191.726664,31.5385396 L191.726664,21.2838225 L186.038127,21.2838225 L186.038127,12.4348747 C187.314683,12.4348747 188.185486,12.3178394 189.346113,12.0830961 C191.494139,11.7905077 192.306978,10.8528798 192.654766,7.98147829 C192.829326,6.57503637 192.945256,4.75829815 193.002554,3.35185624 L201.710587,3.35185624 L201.710587,11.8490254 L210.044026,11.8490254 Z M119,3.82067021 L129.912691,3.82067021 L129.912691,35.347569 L147.384056,35.347569 L147.384056,45.8363568 L119,45.8363568 L119,3.82067021 Z M167.464766,46.7153998 C155.797868,46.7153998 150.341855,40.1526768 150.341855,29.6632164 L150.341855,28.6670708 C150.341855,17.7679868 157.133055,11.1460735 167.63866,11.1460735 C179.53875,11.1460735 184.588343,18.9396854 184.588343,28.1397392 L184.588343,31.9487686 L160.848127,31.9487686 C161.369809,36.0503864 163.692395,38.2774209 167.755256,38.2774209 C170.715454,38.2774209 172.341131,36.9880144 173.153303,35.0549134 L184.356484,35.0549134 C182.498948,42.2034857 177.274794,46.7153998 167.464766,46.7153998 Z M160.848127,25.2683377 L174.140702,25.2683377 C173.675652,21.4593082 171.702853,19.2322737 167.755256,19.2322737 C163.808325,19.2322737 161.54437,21.2837552 160.848127,25.2683377 Z M253.402433,46.7153998 C241.735535,46.7153998 236.278856,40.1526768 236.278856,29.6632164 L236.278856,28.6670708 C236.278856,17.7679868 243.070056,11.1460735 253.576327,11.1460735 C265.475751,11.1460735 270.525344,18.9396854 270.525344,28.1397392 L270.525344,31.9487686 L246.785128,31.9487686 C247.308143,36.0503864 249.629396,38.2774209 253.692257,38.2774209 C256.653121,38.2774209 258.278132,36.9880144 259.09097,35.0549134 L270.293485,35.0549134 C268.435949,42.2034857 263.211795,46.7153998 253.402433,46.7153998 Z M246.785128,25.2683377 L260.077703,25.2683377 C259.613319,21.4593082 257.639854,19.2322737 253.692257,19.2322737 C249.745326,19.2322737 247.482037,21.2837552 246.785128,25.2683377 Z M274.877028,45.8363568 L274.877028,11.8490254 L283.351869,11.8490254 L284.802986,18.8220447 C285.906314,13.5487283 289.33023,11.3802114 295.367222,11.3802114 L297.282723,11.3802114 L297.282723,22.5725565 L293.336458,22.5725565 C287.182204,22.5725565 285.673789,24.7410733 285.673789,30.7764647 L285.673789,45.8363568 L274.877028,45.8363568 Z M311.096115,40.1529459 L310.28261,45.8365586 L301.053561,45.8365586 L301.053561,0.715399818 L311.501868,0.715399818 L311.501868,17.2987692 C313.301439,13.4312221 316.668056,11.1463425 321.369195,11.1463425 C328.915268,11.2041876 334.488542,16.4196589 334.488542,27.9052649 L334.488542,28.9599282 C334.488542,40.5040519 329.437617,46.7149962 321.137336,46.7149962 C316.029112,46.7149962 312.721125,44.1368557 311.096115,40.1529459 Z M323.982271,28.9014106 L323.982271,28.080818 C323.982271,22.6897936 321.427826,19.9946177 317.770718,19.9946177 C313.939717,19.9946177 311.327973,22.9830545 311.327973,27.9637826 L311.327973,28.7258575 C311.327973,34.6442136 313.881752,37.3985797 317.71342,37.3985797 C321.602386,37.3985797 323.982271,34.8789569 323.982271,28.9014106 Z M337.735099,29.6634855 L337.735099,28.6081496 C337.735099,17.0640259 344.817455,11.1463425 354.74208,11.1463425 C364.842599,11.1463425 371.692429,17.2402516 371.692429,28.6081496 L371.692429,29.6634855 C371.692429,40.9728659 364.958528,46.7149962 354.684782,46.7149962 C343.772091,46.7149962 337.735099,40.9728659 337.735099,29.6634855 Z M361.186158,29.5457775 L361.186158,28.6081496 C361.186158,23.0415722 358.864238,20.1701707 354.800711,20.1701707 C350.853114,20.1701707 348.241371,22.9245369 348.241371,28.6081496 L348.241371,29.5457775 C348.241371,34.7612489 350.853114,37.5156151 354.74208,37.5156151 C358.631713,37.5156151 361.186158,34.8789569 361.186158,29.5457775 Z M388.522385,36.226612 L382.37013,45.8362895 L369.947691,45.8362895 L382.37013,28.1397392 L371.108984,11.8489581 L383.066372,11.8489581 L388.581016,20.4631626 L394.094326,11.8489581 L405.994416,11.8489581 L394.791235,28.0227039 L406.748624,45.8362895 L394.67464,45.8362895 L388.522385,36.226612 Z M428.746233,39.9182698 C427.062592,43.9028523 423.695974,46.4816654 418.530452,46.4816654 C410.403399,46.4816654 405.295175,40.5626368 405.295175,28.9014778 L405.295175,27.9046596 C405.295175,16.4782439 410.868449,11.2042548 418.58775,11.2042548 C423.464115,11.2042548 426.656839,13.2557364 428.339814,16.7129872 L428.339814,0.71546708 L438.72949,0.71546708 L438.72949,45.8366259 L429.732966,45.8366259 L428.746233,39.9182698 Z M428.455744,28.8429601 L428.455744,28.0808852 C428.455744,22.9246041 425.95993,19.994685 422.187559,19.994685 C418.239962,19.994685 415.918708,22.7483785 415.918708,28.0808852 L415.918708,28.8429601 C415.918708,34.9375418 418.413856,37.398647 422.012332,37.398647 C425.901965,37.398647 428.455744,34.5857631 428.455744,28.8429601 Z" id="Letterboxd" fill="#FFFFFF"></path>
        </g>
    </g>
</svg>