<?xml version="1.0" encoding="UTF-8"?>
<svg width="500px" height="270px" viewBox="0 0 500 270" version="1.1" xmlns="http://www.w3.org/2000/svg" xmlns:xlink="http://www.w3.org/1999/xlink">
    <!-- Generator: Sketch 51.3 (57544) - http://www.bohemiancoding.com/sketch -->
    <title>letterboxd-logo-v-neg-rgb</title>
    <desc>Created with Sketch.</desc>
    <defs></defs>
    <g id="letterboxd-logo-v-neg-rgb" stroke="none" stroke-width="1" fill="none" fill-rule="evenodd">
        <g id="Vertical-Lockup" transform="translate(60.000000, 46.000000)">
            <g id="Dots" transform="translate(58.000000, 0.000000)">
                <ellipse id="Blue" fill="#40BCF4" cx="213.426966" cy="48.5" rx="48.5730337" ry="48.5"></ellipse>
                <ellipse id="Green" fill="#00E054" cx="131" cy="48.5" rx="48.5730337" ry="48.5"></ellipse>
                <ellipse id="Orange" fill="#FF8000" cx="48.5730337" cy="48.5" rx="48.5730337" ry="48.5"></ellipse>
                <path d="M89.7865169,74.179439 C85.1226166,66.7324866 82.4269663,57.9305714 82.4269663,48.5 C82.4269663,39.0694286 85.1226166,30.2675134 89.7865169,22.820561 C94.4504171,30.2675134 97.1460674,39.0694286 97.1460674,48.5 C97.1460674,57.9305714 94.4504171,66.7324866 89.7865169,74.179439 Z" id="Overlap" fill="#FFFFFF"></path>
                <path d="M172.213483,22.820561 C176.877383,30.2675134 179.573034,39.0694286 179.573034,48.5 C179.573034,57.9305714 176.877383,66.7324866 172.213483,74.179439 C167.549583,66.7324866 164.853933,57.9305714 164.853933,48.5 C164.853933,39.0694286 167.549583,30.2675134 172.213483,22.820561 Z" id="Overlap" fill="#FFFFFF"></path>
            </g>
            <path d="M108.176631,138.32236 C109.694201,138.32236 110.728871,138.183301 112.107904,137.904384 C114.660144,137.556736 115.62515,136.442666 116.039177,133.030926 C116.245794,131.359821 116.383539,129.897304 116.453203,128.226199 L126.798324,128.226199 L126.798324,138.32236 L136.316184,138.32236 L136.316184,149.532591 L126.798324,149.532591 L126.798324,159.209977 C126.798324,166.172515 127.832995,166.938938 133.763945,166.938938 L136.316184,166.938938 L136.316184,178.705405 L129.970417,178.705405 C117.901108,178.705405 114.935634,174.319453 114.935634,161.717034 L114.935634,149.532591 L111.581649,149.532591 L98.2750111,149.532591 L98.2750111,159.209977 C98.2750111,166.172515 99.3088899,166.938938 105.239839,166.938938 L107.792079,166.938938 L107.792079,178.705405 L101.446312,178.705405 C89.3770035,178.705405 86.4123203,174.319453 86.4123203,161.717034 L86.4123203,149.532591 L79.6533177,149.532591 L79.6533177,139.018454 C81.1700955,139.018454 82.204766,138.879395 83.5837989,138.600478 C86.1360388,138.25283 87.1018367,137.13876 87.5150716,133.72702 C87.7224807,132.055915 87.8602257,129.897304 87.9283065,128.226199 L98.2750111,128.226199 L98.2750111,138.32236 L108.176631,138.32236 Z M0,128.783234 L12.9662337,128.783234 L12.9662337,166.242844 L33.7253489,166.242844 L33.7253489,178.705405 L0,178.705405 L0,128.783234 Z M57.5848338,179.749866 C43.7224663,179.749866 37.2397452,171.952174 37.2397452,159.488814 L37.2397452,158.305214 C37.2397452,145.355148 45.3089082,137.487127 57.7914513,137.487127 C71.9308921,137.487127 77.9307141,146.747336 77.9307141,157.67865 L77.9307141,162.20446 L49.7230799,162.20446 C50.3429323,167.077917 53.1025812,169.724034 57.9299879,169.724034 C61.4472341,169.724034 63.3788301,168.191987 64.3438364,165.895117 L77.6552242,165.895117 C75.4481383,174.388903 69.2409072,179.749866 57.5848338,179.749866 Z M49.7230799,154.26691 L65.5170435,154.26691 C64.9644804,149.741099 62.6204412,147.094983 57.9299879,147.094983 C53.2403262,147.094983 50.5503413,149.532511 49.7230799,154.26691 Z M159.694195,179.749866 C145.831828,179.749866 139.348315,171.952174 139.348315,159.488814 L139.348315,158.305214 C139.348315,145.355148 147.417478,137.487127 159.900813,137.487127 C174.039462,137.487127 180.039284,146.747336 180.039284,157.67865 L180.039284,162.20446 L151.83165,162.20446 C152.453085,167.077917 155.211151,169.724034 160.038558,169.724034 C163.556596,169.724034 165.4874,168.191987 166.453198,165.895117 L179.763794,165.895117 C177.556708,174.388903 171.349477,179.749866 159.694195,179.749866 Z M151.83165,154.26691 L167.625613,154.26691 C167.073842,149.741099 164.729011,147.094983 160.038558,147.094983 C155.348896,147.094983 152.659703,149.532511 151.83165,154.26691 Z M185.209866,178.705405 L185.209866,138.32236 L195.279497,138.32236 L197.003684,146.607557 C198.314636,140.341912 202.382862,137.765325 209.555891,137.765325 L211.831849,137.765325 L211.831849,151.063838 L207.142979,151.063838 C199.830622,151.063838 198.038354,153.640425 198.038354,160.811552 L198.038354,178.705405 L185.209866,178.705405 Z M228.244636,171.952494 L227.278047,178.705645 L216.312281,178.705645 L216.312281,125.093616 L228.726744,125.093616 L228.726744,144.797633 C230.864957,140.202293 234.865102,137.487447 240.450898,137.487447 C249.416986,137.556177 256.039035,143.753092 256.039035,157.400052 L256.039035,158.653181 C256.039035,172.369671 250.03763,179.749386 240.175408,179.749386 C234.105922,179.749386 230.17544,176.686093 228.244636,171.952494 Z M243.555701,158.583652 L243.555701,157.608641 C243.555701,151.203137 240.520562,148.000784 236.175263,148.000784 C231.623346,148.000784 228.520126,151.551583 228.520126,157.469582 L228.520126,158.375063 C228.520126,165.407132 231.554473,168.679813 236.107182,168.679813 C240.727971,168.679813 243.555701,165.686049 243.555701,158.583652 Z M259.896528,159.489133 L259.896528,158.235205 C259.896528,144.518716 268.311636,137.487447 280.103871,137.487447 C292.105099,137.487447 300.243926,144.728103 300.243926,158.235205 L300.243926,159.489133 C300.243926,172.926706 292.242844,179.749386 280.03579,179.749386 C267.069557,179.749386 259.896528,172.926706 259.896528,159.489133 Z M287.760591,159.349275 L287.760591,158.235205 C287.760591,151.621113 285.001734,148.209373 280.173535,148.209373 C275.483082,148.209373 272.379862,151.482054 272.379862,158.235205 L272.379862,159.349275 C272.379862,165.546191 275.483082,168.818872 280.103871,168.818872 C284.725452,168.818872 287.760591,165.686049 287.760591,159.349275 Z M320.240931,167.287305 L312.930949,178.705325 L298.170864,178.705325 L312.930949,157.67865 L299.550689,138.32228 L313.75821,138.32228 L320.310595,148.5575 L326.861397,138.32228 L341.000838,138.32228 L327.68945,157.539591 L341.896972,178.705325 L327.550914,178.705325 L320.240931,167.287305 Z M368.034078,171.673656 C366.033609,176.408055 362.033464,179.472148 355.895897,179.472148 C346.2395,179.472148 340.170014,172.43928 340.170014,158.583732 L340.170014,157.399333 C340.170014,143.822702 346.792064,137.556257 355.963978,137.556257 C361.757974,137.556257 365.551502,139.993785 367.551179,144.101619 L367.551179,125.093696 L379.895977,125.093696 L379.895977,178.705725 L369.206493,178.705725 L368.034078,171.673656 Z M367.688924,158.514202 L367.688924,157.60872 C367.688924,151.482134 364.723449,148.000864 360.241196,148.000864 C355.550743,148.000864 352.792677,151.272746 352.792677,157.60872 L352.792677,158.514202 C352.792677,165.755658 355.75736,168.679893 360.032996,168.679893 C364.654576,168.679893 367.688924,165.337682 367.688924,158.514202 Z" id="Letterboxd" fill="#FFFFFF"></path>
        </g>
    </g>
</svg>