<?xml version="1.0" encoding="utf-8"?>
<!-- Generator: Adobe Illustrator 16.0.4, SVG Export Plug-In . SVG Version: 6.00 Build 0)  -->
<!DOCTYPE svg PUBLIC "-//W3C//DTD SVG 1.1//EN" "http://www.w3.org/Graphics/SVG/1.1/DTD/svg11.dtd">
<svg version="1.1" id="Layer_1" xmlns="http://www.w3.org/2000/svg" xmlns:xlink="http://www.w3.org/1999/xlink" x="0px" y="0px"
	 width="1000px" height="158.741px" viewBox="81.207 78.333 1000 158.741" enable-background="new 81.207 78.333 1000 158.741"
	 xml:space="preserve">
<path fill="#FF6B4A" d="M563.191,78.464v20.849H461.498v41.044h90.318v20.602h-90.318v74.172h-20.852V78.464H563.191z
	 M705.099,175.623c0,1.682-0.46,41.17-40.289,41.17c-37.069,0-40.208-31.523-40.288-41.17V78.464H603.67v97.159
	c0,28.348,16.014,61.451,61.14,61.451c45.124,0,61.139-33.105,61.139-61.451V78.464h-20.85V175.623z M866.955,175.371l36.701,59.758
	h-25.139l-35.195-57.623h-40.1v57.623h-20.846V78.467h67.112c38.289,0,55.43,24.873,55.43,49.521
	C904.92,163.324,876.84,173.046,866.955,175.371z M849.49,156.659c15.783,0,34.595-4.975,34.595-28.672
	c0-25.116-21.673-28.867-34.595-28.867h-46.268v57.539H849.49z M354.753,78.464v124.504h-4.552L276.623,78.464h-26.978v156.665
	h20.848V114.562h4.55l70.246,120.566h30.309V78.464H354.753z M81.207,78.464v19.339h46.298v117.992H81.207v19.334h113.441v-19.334
	h-46.296V97.803h46.296V78.464H81.207z M1081.207,235.128h-21.917l-17.178-47.479h-60.649l-17.154,47.479h-21.914l56.919-156.795
	h24.979L1081.207,235.128z M1034.776,167.365l-20.52-56.717h-4.975l-20.492,56.717H1034.776z"/>
</svg>
