<svg version="1.1" id="Layer_1" xmlns:x="ns_extend;" xmlns:i="ns_ai;" xmlns:graph="ns_graphs;" xmlns="http://www.w3.org/2000/svg" xmlns:xlink="http://www.w3.org/1999/xlink" x="0px" y="0px" viewBox="0 0 601.8 56" style="enable-background:new 0 0 601.8 56;" xml:space="preserve">
 <style type="text/css">
  .st0{fill:#EB1700;}
 </style>
 <metadata>
  <sfw xmlns="ns_sfw;">
   <slices>
   </slices>
   <sliceSourceBounds bottomLeftOrigin="true" height="56" width="601.8" x="-297.9" y="1">
   </sliceSourceBounds>
  </sfw>
 </metadata>
 <g>
  <path class="st0" d="M59.5,51.3c-5.9,0-9.2-5.6-9.2-15.7c0-10.3,3.3-15.7,9.2-15.7s9.2,5.5,9.2,15.7C68.7,45.9,65.4,51.3,59.5,51.3
		z M59.5,15.8c-12,0-18.7,9-18.7,19.9c0,10.9,6.7,19.9,18.7,19.9s18.7-9,18.7-19.9C78.2,24.7,71.5,15.8,59.5,15.8z M143,15.8
		c-5.7,0-8.8,2.5-10.6,5.6H132v-4.8h-9v38.3h9V30.1c0-5.7,2.9-9,7.6-9c4.5,0,6.5,3,6.5,7.5v26.2h9V28.5
		C155.1,20.6,150.9,15.8,143,15.8z M175.6,15.8c-8.3,0-14.6,3.5-14.6,11c0,6.4,4.4,9.8,9.3,11l7.6,1.9c4.1,1,5.9,2.5,5.9,5.7
		c0,3.9-2.8,6.1-7.6,6.1c-5.2,0-7.9-2.5-8.7-8.9l-8.1,2.3c0.5,6.6,6.6,10.6,15.8,10.6c10.3,0,15.9-4.8,15.9-12.5
		c0-7.2-5-10.2-10.2-11.5l-7.3-1.8c-3.7-0.9-5.3-2.6-5.3-5.1c0-3.1,2.6-4.9,6.5-4.9c4.6,0,7.4,2.5,7.8,7.3l7.6-2.3
		C189.3,19.5,184,15.8,175.6,15.8z M213.5,51.3c-5.9,0-9.2-5.6-9.2-15.7c0-10.3,3.3-15.7,9.2-15.7s9.2,5.5,9.2,15.7
		C222.7,45.9,219.4,51.3,213.5,51.3z M213.5,15.8c-12,0-18.7,9-18.7,19.9c0,10.9,6.7,19.9,18.7,19.9s18.7-9,18.7-19.9
		C232.2,24.7,225.5,15.8,213.5,15.8z M257.6,15.8c-5.7,0-8.8,2.5-10.6,5.6h-0.5v-4.8h-9v38.3h9V30.1c0-5.7,2.9-9,7.6-9
		c4.5,0,6.5,3,6.5,7.5v26.2h9V28.5C269.6,20.6,265.5,15.8,257.6,15.8z M391.7,51.3c-5.9,0-9.2-5.6-9.2-15.7
		c0-10.3,3.3-15.7,9.2-15.7c5.9,0,9.2,5.5,9.2,15.7C400.8,45.9,397.6,51.3,391.7,51.3z M391.7,15.8c-12,0-18.7,9-18.7,19.9
		c0,10.9,6.7,19.9,18.7,19.9c12,0,18.7-9,18.7-19.9C410.3,24.7,403.7,15.8,391.7,15.8z M475.1,15.8c-5.7,0-8.8,2.5-10.6,5.6h-0.5
		v-4.8h-9v38.3h9V30.1c0-5.7,2.9-9,7.6-9c4.5,0,6.5,3,6.5,7.5v26.2h9V28.5C487.2,20.6,483.1,15.8,475.1,15.8z M507.7,15.8
		c-8.3,0-14.6,3.5-14.6,11c0,6.4,4.4,9.8,9.3,11l7.6,1.9c4.1,1,5.9,2.5,5.9,5.7c0,3.9-2.8,6.1-7.6,6.1c-5.2,0-7.9-2.5-8.7-8.9
		l-8.1,2.3c0.5,6.6,6.6,10.6,15.8,10.6c10.3,0,15.9-4.8,15.9-12.5c0-7.2-5-10.2-10.2-11.5l-7.3-1.8c-3.7-0.9-5.3-2.6-5.3-5.1
		c0-3.1,2.6-4.9,6.5-4.9c4.6,0,7.4,2.5,7.8,7.3l7.6-2.3C521.5,19.5,516.2,15.8,507.7,15.8z M545.7,51.3c-5.9,0-9.2-5.6-9.2-15.7
		c0-10.3,3.3-15.7,9.2-15.7s9.2,5.5,9.2,15.7C554.8,45.9,551.5,51.3,545.7,51.3z M545.7,15.8c-12,0-18.7,9-18.7,19.9
		c0,10.9,6.7,19.9,18.7,19.9c12,0,18.7-9,18.7-19.9C564.3,24.7,557.7,15.8,545.7,15.8z M589.7,15.8c-5.7,0-8.8,2.5-10.6,5.6h-0.5
		v-4.8h-9v38.3h9V30.1c0-5.7,2.9-9,7.6-9c4.5,0,6.5,3,6.5,7.5v26.2h9V28.5C601.8,20.6,597.7,15.8,589.7,15.8z M35.5,1.2H26v39.5
		c0,6.4-2.5,10.2-8.3,10.2C12,51,9.5,47,9.5,40v-7.3L0,35v3.3C0,48.3,5,56,17.7,56c12.8,0,17.7-7.6,17.7-17.7V1.2z M92.6,1.2h-9
		v53.5h9V30.1c0-5.7,2.9-9,7.6-9c4.5,0,6.5,3,6.5,7.5v26.2h9V28.5c0-7.9-4.1-12.8-12.1-12.8c-5.7,0-8.8,2.5-10.6,5.6h-0.5V1.2z
		 M367.6,1.2h-9.5v39.5c0,6.4-2.5,10.2-8.3,10.2c-5.7,0-8.3-4.1-8.3-11v-7.3l-9.5,2.4v3.3c0,10,5,17.7,17.7,17.7
		c12.8,0,17.7-7.6,17.7-17.7V1.2z M424.7,1.2h-9v53.5h9V30.1c0-5.7,2.9-9,7.6-9c4.5,0,6.5,3,6.5,7.5v26.2h9V28.5
		c0-7.9-4.1-12.8-12.1-12.8c-5.7,0-8.8,2.5-10.6,5.6h-0.5V1.2z M299.4,50.4c-7.3,0-11.9-6-11.9-12.3c0-4,1.8-7.6,4.7-9.7l17.3,18.9
		C306.3,49.2,302.7,50.4,299.4,50.4z M316.2,41l-15-16.5c2.7-1.1,5.3-1.5,7.4-1.5c6.2,0,10,3.6,10,9.8
		C318.7,35.6,317.9,38.4,316.2,41z M299.2,22.3l-3.3-3.7c-2.9-3.2-3.7-5.2-3.7-7.6c0-4.4,2.8-7,7.3-7c4.5,0,7.2,2.6,7.2,7.3
		C306.6,15.8,304.5,19.9,299.2,22.3z M299.6,0c-10.6,0-15.8,5.9-15.8,13.2c0,4,1.7,8,6.1,12.8l0.1,0.2c-7.5,3.6-10.9,9.4-10.9,15.4
		c0,7.9,6,14.5,15.4,14.5c5.4,0,11.6-2.2,17.3-6.2l4.6,5h12v-0.4l-9.8-10.8c4.1-4.9,6.5-10.2,6.5-14.9c0-5.8-3.9-9.7-10-9.7
		c-3.2,0-6.8,0.9-9.2,1.8l-0.2-0.3c5.8-3.1,8.3-6,8.3-10.1C314,4.6,308.8,0,299.6,0z">
  </path>
 </g>
</svg>