<svg version="1.1" id="Layer_1" xmlns:x="ns_extend;" xmlns:i="ns_ai;" xmlns:graph="ns_graphs;" xmlns="http://www.w3.org/2000/svg" xmlns:xlink="http://www.w3.org/1999/xlink" x="0px" y="0px" viewBox="0 0 100 67.1" style="enable-background:new 0 0 100 67.1;" xml:space="preserve">
 <style type="text/css">
  .st0{fill:#FFFFFF;}
 </style>
 <metadata>
  <sfw xmlns="ns_sfw;">
   <slices>
   </slices>
   <sliceSourceBounds bottomLeftOrigin="true" height="67.1" width="100" x="0" y="0.9">
   </sliceSourceBounds>
  </sfw>
 </metadata>
 <path class="st0" d="M49.7,58.3c0-2.7,2.2-4.8,4.8-4.8s4.8,2.2,4.8,4.8s-2.2,4.8-4.8,4.8S49.7,61,49.7,58.3 M69.4,58.3
	c0-2.7,2.2-4.8,4.8-4.8c2.7,0,4.8,2.2,4.8,4.8s-2.2,4.8-4.8,4.8C71.6,63.2,69.4,61,69.4,58.3 M23.8,58.3c0-2.7,2.2-4.8,4.8-4.8
	c2.7,0,4.8,2.2,4.8,4.8s-2.2,4.8-4.8,4.8C25.9,63.2,23.8,61,23.8,58.3 M4.1,58.3c0-2.7,2.2-4.8,4.8-4.8c2.7,0,4.8,2.2,4.8,4.8
	s-2.2,4.8-4.8,4.8C6.3,63.2,4.1,61,4.1,58.3 M43.9,49.8h-4.2v16.9h4.2V49.8z M13.8,66.7H18V49.8h-4.2v1.4c-1.4-1-3.1-1.6-5-1.6
	c-4.8,0-8.7,3.9-8.7,8.7c0,4.9,3.9,8.7,8.7,8.7c1.9,0,3.6-0.6,5-1.6V66.7z M79.1,66.7h4.2V49.8h-4.2v1.4c-1.4-1-3.1-1.6-5-1.6
	c-4.8,0-8.7,3.9-8.7,8.7c0,4.9,3.9,8.7,8.7,8.7c1.9,0,3.6-0.6,5-1.6V66.7z M84.8,61.2c0.1,3.4,3,5.8,7.9,5.8c4,0,7.3-1.7,7.3-5.5
	c0-2.7-1.5-4.2-4.9-4.9l-2.7-0.5c-1.7-0.3-2.9-0.7-2.9-1.7c0-1.1,1.2-1.6,2.6-1.6c2.1,0,3,1.1,3,2.3h4.2c-0.2-3.3-2.9-5.5-7.2-5.5
	c-4.4,0-7,2.4-7,5.6c0,3.8,3.1,4.5,5.8,5l2.2,0.4c1.6,0.3,2.3,0.8,2.3,1.7c0,0.8-0.8,1.7-2.7,1.7c-2.8,0-3.6-1.4-3.7-2.7H84.8z
	 M33.4,44v7.1c-1.4-1-3.1-1.6-5-1.6c-4.8,0-8.7,3.9-8.7,8.7c0,4.9,3.9,8.7,8.7,8.7c1.9,0,3.6-0.6,5-1.6v1.2h4.2V44L33.4,44z
	 M59.4,44v7.1c-1.4-1-3.1-1.6-5-1.6c-4.8,0-8.7,3.9-8.7,8.7c0,4.9,3.9,8.7,8.7,8.7c1.9,0,3.6-0.6,5-1.6v1.2h4.2V44L59.4,44z
	 M10.9,39l2.9,5h19.6l-7.8-13.5L10.9,39z M43.9,48.2V44h15.5L42.9,15.5l-14.7,8.4L39.7,44v4.2H43.9z M65.6,44h19.7L59.9,0L45.2,8.5
	L65.6,44z">
 </path>
</svg>