<svg xmlns="http://www.w3.org/2000/svg" viewBox="0 0 432 45" width="432" height="45" preserveAspectRatio="xMinYMid" xmlns:xlink="http://www.w3.org/1999/xlink">
 <path d="M428.858.793h-5.451l-.793.892V27.85L394.764 0l-.794.793v42.222l.793.793h5.452l.892-.793V16.453l27.355 27.355h1.288V1.685zm-137.568.892v6.343h7.136v35.78h7.137V8.027h6.343l.892-.892V.793h-20.715zm26.265 0v6.343h7.136v35.78h7.136V8.027h6.343l.793-.892V.793h-20.615zM7.136.793H.793L0 1.685v42.123h21.507v-7.136H7.137zm40.636 0A21.507 21.507 0 1069.28 22.3 21.507 21.507 0 0047.772.793zm0 35.78A14.371 14.371 0 1162.044 22.3a14.272 14.272 0 01-14.272 14.272zM365.327.792A21.507 21.507 0 10386.735 22.3 21.507 21.507 0 00365.327.793zm0 35.78A14.371 14.371 0 11379.599 22.3a14.272 14.272 0 01-14.272 14.272zM101.094.792l-.793.793v27.85a7.136 7.136 0 01-7.136 7.136 7.235 7.235 0 01-7.235-7.136V1.586l-.793-.793h-5.55l-.793.793v27.85a14.371 14.371 0 1028.644 0V1.586l-.793-.793zm20.616.892v42.123h6.343l.892-.793V.793h-6.343zM251.547.793l-.893.793v27.85a7.136 7.136 0 01-14.272 0V1.586l-.892-.793h-5.45l-.794.793v27.85a14.371 14.371 0 1028.644 0V1.586l-.892-.793zm20.615.892v42.123h6.343l.793-.793V.793h-6.343zM155.804 19.03a54.016 54.016 0 01-4.757-2.875c-1.586-1.09-2.478-2.28-2.379-4.162a4.956 4.956 0 014.857-4.659 5.451 5.451 0 014.856 2.974h1.289l4.162-4.163A12.786 12.786 0 00153.525.793a12.488 12.488 0 00-8.623 3.072 12.19 12.19 0 00-3.965 8.822c0 4.559 2.478 8.325 4.857 9.613l7.631 4.361a5.253 5.253 0 013.073 5.947 5.55 5.55 0 01-6.343 4.163c-1.784-.198-3.568-1.586-4.46-2.18l-1.883-1.587-5.352 5.55a15.065 15.065 0 008.523 5.254 22.498 22.498 0 004.163.396 13.876 13.876 0 0013.677-13.776c0-7.236-6.442-10.01-9.019-11.398zm47.574 8.028L192.575.793h-7.83l17.84 43.015.793.792.892-.792L222.011.793h-7.73z" fill="#FFFFFF">
 </path>
</svg>