<svg version="1.1" id="Layer_1" xmlns="http://www.w3.org/2000/svg" xmlns:xlink="http://www.w3.org/1999/xlink" x="0px" y="0px" viewBox="0 0 184.2 57.9" style="enable-background:new 0 0 184.2 57.9;" xml:space="preserve">
 <style type="text/css">
  .st0{fill-rule:evenodd;clip-rule:evenodd;fill:#F40027;}
 </style>
 <g>
  <path class="st0" d="M121.3,17.5c-0.8,0-1.5-0.7-1.4-1.6c0-0.1,0-0.1,0-0.2c0.2-3.5-1-5.6-4.9-5.6h-12.2l-3.3,14.9H117
		c0.9,0,1.6,0.8,1.4,1.7l-1.7,7.7c-0.1,0.6-0.7,1.1-1.4,1.1H97.2c0,0-2,9.1-2.1,9.5c-0.7,2.9,1.4,4.5,2.7,5.1c0.1,0,0.1,0.1,0.2,0.1
		c0.6,0.3,0.9,0.9,0.7,1.5L97.8,56c-0.1,0.6-0.7,1.1-1.4,1.1H75.1c-0.9,0-1.5-0.8-1.4-1.7l9.3-42.1c0.9-3.7-1.2-5.2-2.8-5.8
		l-0.2-0.1c-0.7-0.2-1.1-1-0.9-1.7L80,2.1c0.1-0.7,0.8-1.2,1.5-1.2h47.4c0.9,0,1.6,0.8,1.4,1.7l-3.1,13.8c-0.1,0.7-0.7,1.1-1.4,1.1
		H121.3">
  </path>
  <path class="st0" d="M50,2.1c0.1-0.7,0.8-1.2,1.5-1.2h23.2c0.9,0,1.6,0.8,1.4,1.7l-0.8,3.6c-0.1,0.6-0.6,1-1.3,1.1
		c-0.1,0-0.1,0-0.2,0c-1.7,0.2-4.9,0.8-7.5,2.8l-19.3,16v0l14.8,20.1c2.9,3.7,4.3,4.4,7.2,4.4c0.9,0,1.6,0.9,1.4,1.8L69.7,56
		c-0.1,0.6-0.7,1.1-1.4,1.1H56.8c-12.8,0-16.3-5.6-27-25.1l-3.1,14.2c-0.5,2.2,1.4,3.4,2.7,3.9l0.2,0.1c0.7,0.2,1,0.9,0.9,1.6
		L29.6,56c-0.1,0.6-0.7,1.1-1.4,1.1H1.5c-0.9,0-1.6-0.9-1.4-1.8l0.8-3.6c0.1-0.6,0.7-1.1,1.3-1.2h0.1c2.5-0.3,5-1.8,6.6-9.4
		l6.1-27.8c0.8-3.7-1.1-5.1-2.7-5.7c-0.1,0-0.2-0.1-0.2-0.1c-0.7-0.2-1.1-1-1-1.8l0.8-3.7c0.2-0.7,0.8-1.2,1.5-1.2h25.4
		c0.9,0,1.5,0.8,1.4,1.7l-0.8,3.7c-0.1,0.5-0.5,1-1.1,1.1l-0.2,0c-1.2,0.4-3.1,1.4-3.7,3.7L31,26.6c0,0,0,0,0,0l19.7-16.4
		c1.2-1,0.9-2.3-0.5-2.8h0c-0.8-0.2-1.2-1-1.1-1.8L50,2.1">
  </path>
  <path class="st0" d="M183,2.1c0.8,0.2,1.4,1.1,1.2,2l-3,13.5c-0.1,0.6-0.7,1.1-1.4,1.1h-4.3c-0.8,0-1.4-0.7-1.4-1.5
		c0-0.1,0-0.2,0-0.3c0.2-4.4-2.6-7.7-8.9-7.7c-10.5,0-18.1,8.6-19.1,19.9c-1,11.7,7.1,18.4,18.4,18.4c5.8,0,10.4-1.1,12.9-1.9
		c1-0.3,2,0.6,1.8,1.6l-1.3,7c-0.1,0.6-0.5,1.1-1.1,1.3c-2.3,0.7-8.8,2.5-18.7,2.5c-23.6,0-33.1-13.6-31.7-27.4
		C127.8,18.1,135.9,0,168,0C174.2,0,179.1,1,183,2.1">
  </path>
 </g>
</svg>