<svg version="1.1" id="Layer_2" xmlns="http://www.w3.org/2000/svg" xmlns:xlink="http://www.w3.org/1999/xlink" x="0px" y="0px" viewBox="-51 -5 122 122" style="enable-background:new -51 -5 122 122;" xml:space="preserve">
 <style type="text/css">
  .st0{fill:#5F259F;}
	.st1{fill:#FFFFFF;}
 </style>
 <g>
  <circle class="st0" cx="10" cy="56" r="61">
  </circle>
  <path class="st1" d="M37.7,40.1c0-2.4-2-4.4-4.4-4.4h-8.2L6.3,14.2c-1.7-2-4.4-2.7-7.2-2l-6.5,2c-1,0.3-1.4,1.7-0.7,2.4L12.5,36
		h-31c-1,0-1.7,0.7-1.7,1.7v3.4c0,2.4,2,4.4,4.4,4.4h4.8v16.4c0,12.3,6.5,19.4,17.4,19.4c3.4,0,6.1-0.3,9.5-1.7v10.9
		c0,3.1,2.4,5.5,5.5,5.5h4.8c1,0,2-1,2-2V45.2H36c1,0,1.7-0.7,1.7-1.7C37.7,43.5,37.7,40.1,37.7,40.1z M15.9,69.4
		c-2,1-4.8,1.4-6.8,1.4c-5.5,0-8.2-2.7-8.2-8.9V45.5h15C15.9,45.5,15.9,69.4,15.9,69.4z">
  </path>
 </g>
</svg>