<svg version="1.1" id="Layer_1" xmlns:x="ns_extend;" xmlns:i="ns_ai;" xmlns:graph="ns_graphs;" xmlns="http://www.w3.org/2000/svg" xmlns:xlink="http://www.w3.org/1999/xlink" x="0px" y="0px" viewBox="0 0 63.5 77" style="enable-background:new 0 0 63.5 77;" xml:space="preserve">
 <style type="text/css">
  .st0{fill:#F9B000;}
 </style>
 <metadata>
  <sfw xmlns="ns_sfw;">
   <slices>
   </slices>
   <sliceSourceBounds bottomLeftOrigin="true" height="77" width="63.5" x="255.7" y="-219">
   </sliceSourceBounds>
  </sfw>
 </metadata>
 <g>
  <g>
   <path class="st0" d="M32.1,54.2c-0.7,0.4-1.4,0.9-2,1.3C22.2,51.2,5.4,42.8,4,42c-1.6-0.8-4.3-1.9-3.9-4.5
			C0.5,33.9,6.8,26,9.5,22.7C24,4.9,30.5-0.5,34.8,0c4.6,0.6,7.1,5.3,7.5,27.6c-2.6-0.8-5.4-1.6-8.4-2.4c-0.2-3.2-0.8-8.1-1.1-9.8
			c-0.3-1.9-0.6-2.6-1.4-2.7c-0.9-0.1-3,1.9-4.9,3.9c-0.9,0.9-3.3,3.4-6.1,6.1c-2.3-0.1-3.8,0.3-4.6,1.4c-0.7,0.9-0.8,2.1-0.4,3.7
			c-1.5,1.5-2.7,2.7-3.5,3.5c-3,3-6.2,5.5-6.4,6.7c-0.1,1,1.4,2,3.6,3.3C14.4,44.6,27.5,51.7,32.1,54.2 M52.5,32
			c-5.1-1.8-17.8-6.5-31.1-8.2c-4.6-0.6-6.4,1-4.5,5.4c1.9,4.3,6.7,11.6,11.8,17c5.1,5.4,10.6,6.9,12.3-1.5c0.1-0.3,0.1-0.6,0.2-0.9
			c0.4-2.2,0.7-4.2,0.9-6.1c-2.2-1-4.8-2.1-7.3-3.2c0.1,1.9,0.4,5.2,0.5,7.8c0,0.3,0,0.6,0,0.9c0.2,4.1-1.3,4.1-3.6,2.4
			c-2.7-2-11.1-13-12.1-17.9c0-0.3,0.1-0.3,0.3-0.3c0.1,0,0.1,0.1,0.2,0.1c0,0,0,0,0,0c1.9,0.7,8.2,3.2,14.6,5.9
			c2.6,1.1,5.1,2.2,7.4,3.2c2.3,1,4.3,2,5.8,2.8c2.8,1.5,3.8,2.5,2.7,3.7c-5.8,5.8-25.8,14.1-32.8,24.4c0,0,0,0-0.1,0.1
			c-0.1,0.1-0.2,0.2-0.2,0.4c0,0,0,0.1-0.1,0.1c-0.3,0.6-0.8,1.7-1,3.1c-0.3,2.2,0.9,4.3,4.1,5.2c0.8,0.2,1.7,0.4,2.7,0.5
			c0.2,0,0.4,0,0.6,0c6.2,0.3,22.3-3.2,27.2-5.4c5.1-2.2,3.5-4.5,2.1-5.6c-1.1-0.9-6.7-4-9.5-5.5c-0.7,0.5-1.3,0.8-2,1.3
			c4.6,2.8,6.5,4.2,7.6,5.1c0.4,0.3,0.2,0.7-0.4,0.8c-0.2,0-0.3,0-0.5,0c-4.4,0.3-12.8,0.9-16.7,1.1c-0.6,0-1.2,0.1-1.6,0.1
			c1-0.9,2.1-1.7,2.6-2.1c8.4-5.9,22.4-14.2,26.5-17.8C62,46.3,70.3,38.2,52.5,32">
   </path>
  </g>
 </g>
</svg>