<svg height="316.227766" viewBox="0 0 850.39368 850.39368" width="316.227766" xmlns="http://www.w3.org/2000/svg"><path d="m227.6268 390.631c-5.6392 1.1796-9.8265 3.251-12.5308 6.2722-2.7227 2.9776-2.9223 7.7116-.6038 14.1291 3.5776 9.3206 6.3846 19.9138 8.3997 31.6518 2.0597 11.7689 3.0494 23.0077 3.0494 33.7095h3.9721c2.5928-11.4491 4.0748-24.7302 4.3772-39.7927.3267-15.0674-1.9046-30.3917-6.6638-45.9699zm197.5696-262.2784c163.4956 0 296.8438 133.3482 296.8438 296.8438s-133.3482 296.8438-296.8438 296.8438-296.8438-133.3482-296.8438-296.8438 133.3482-296.8438 296.8438-296.8438zm0 12.0674c96.2356 0 181.5687 48.1673 233.1604 121.6161l-9.087-1.4403-19.1063-1.7011-14.8629 2.1188-14.8464 6.8024-17.8405 12.7353-12.7334 10.1852-10.6165 13.5805-5.5152 12.7499-13.5941 8.0586-12.7314 4.6748-7.6437 4.6729-16.9924 14.8503-12.2992 15.709c-45.7692 90.2164-13.4264-35.5947-15.1818-80.2842 7.95-36.1637 2.2187-32.715-18.7874-64.4821l-22.084-18.2573-18.4202-4.2376-14.636 3.5727-19.5843 4.5672-3.3304 11.673-15.1721 9.4738-25.0393 3.2606-12.3563.8084-15.9001 1.6303-11.3705 2.8671-18.2079 23 5.4289 9.2527 5.5346.4507-1.4413 3.6639 8.2001 16.8324c19.3264-.4623 24.2871-.9256 43.6135-1.3889 13.0804 3.437 22.7935 18.6895 22.9379 28.5926 5.5143 7.825-3.3294 27.7533-19.5241 55.2178-21.7854 36.943-13.7308 72.8188-10.283 102.9391 2.1052 11.4462 4.2076 15.7381 7.4944 24.827h-58.458c-4.6748-4.607-18.141-15.0994-44.9454-16.6299-.7017-.0426-1.3938-.0736-2.083-.1163-.4914-.3896-.9654-.8209-1.4122-1.2678 0-2.4154.3344-4.5168.9664-6.2722 2.4716-13.3963 3.2529-27.7387 2.3418-42.9186-.9199-15.2089-2.6723-29.1752-5.2642-41.8931 6.1753 1.3483 9.5571 3.219 10.0592 5.5908.5447 2.4203 1.2358 6.1326 2.1421 11.1826 4.2153-5.8719 6.5057-10.7183 6.8343-14.5469.3024-3.8248-2.3165-6.6599-7.8879-8.489 2.2904-4.4014 7.7445-5.9106 16.3594-4.5168 8.6052 1.3522 15.2109 7.382 19.8159 18.0412 0-3.5854-1.2668-8.5578-3.7724-14.8484-2.5037-6.2974-6.2586-9.4369-11.3192-9.4369.7444 0 1.6787-.2568 2.8031-.7773 1.1341-.5477 3.5825-.7192 7.351-.5477-9.3632-7.2201-16.6871-9.0326-21.926-5.4231-5.2796 3.6251-9.7955 5.4231-13.5515 5.4231 2.7625-10.1745 7.4073-15.9833 13.9402-17.4663 6.529-1.482 10.505 2.0122 11.987 10.5157.6601-1.4229.7725-3.9256.3587-7.477-.4168-3.5544-1.4966-6.2906-3.2529-8.2466-4.7902-4.9356-10.2404-4.577-16.3866 1.0507-6.1472 5.6683-10.001 10.4623-11.5984 14.4034 2.1751-8.707 4.4897-14.6458 6.9332-17.7407 2.4349-3.1395 4.7941-4.8774 7.1126-5.236 2.2826-.4042 4.4577-.1018 6.4728.8917 2.0122 1.0187 3.7259 1.2368 5.1488.7338-9.275-4.261-16.1694-5.8855-20.6863-4.9239-4.4926.9654-7.6282 2.9504-9.339 5.9746-1.7563 3.0057-2.5918 6.2266-2.5598 9.6966.026 3.4671-.099 5.5666-.3024 6.2557-7.7697-6.8595-15.9698-10.1115-24.5789-9.7257-8.614.3625-15.6354 8.3174-21.0624 23.8539 3.2248-2.9495 6.276-6.8857 9.1257-11.9269 2.8604-4.9899 9.2227-4.4006 19.1054 1.7844-1.3201.7211-3.3818 1.956-6.1151 3.6987-2.7499 1.7845-4.101 5.9979-4.101 12.7179-3.4953-1.1253-6.2877-.9625-8.4308.4779-2.145 1.45-3.7104 3.0474-4.6312 4.8183-1.8407-.9945-4.1863-1.956-7.0486-2.8623-2.8904-.9344-5.8166-.4188-8.7351 1.5382-1.6681 1.482-2.8332 3.7996-3.4991 7.0205-.6882 3.1967-.1822 5.6829 1.4403 7.4382-.9935 1.9609-2.5317 3.7279-4.5769 5.3524-2.0393 1.5954-2.8303 5.8563-2.2846 12.7498 1.1089-2.4765 3.5854-5.8738 7.4383-10.2452 3.8557-4.3308 7.2947-6.533 10.3005-6.533 0 2.4775-.083 5.2971-.2453 8.4328-.1444 3.1646.6921 6.0269 2.5357 8.6159 0-3.0765.4148-6.0309 1.2629-8.8331.8792-2.8206 1.8727-5.4677 3.0494-7.9451.4778 0 2.5472.3664 6.2625 1.0536 3.6987.7211 6.3138 2.143 7.853 4.2425-6.4175.9945-10.1114 3.7724-11.1612 8.3455-1.04 4.5449-1.7011 8.2601-1.9734 11.0488 0 .851.6029.3062 1.8116-1.5664 1.2116-1.8852 2.7779-3.912 4.763-6.0444 1.956-2.1421 4.1582-3.7967 6.56-4.9482 2.4203-1.134 4.8183-.5612 7.2347 1.7273 1.5993 1.5993 3.4991 5.3223 5.6548 11.2039 2.175 5.8738 3.913 12.4649 5.2224 19.7325 1.2824 7.2444 1.7428 14.4141 1.3561 21.5354-.3761 6.5746-2.0442 11.8125-5.0073 15.6829-29.6318 2.0955-39.2218 12.0985-40.5361 16.5736h-25.0762c-6.3516-23.5553-9.7528-48.299-9.7528-73.8152 0-156.8512 127.9251-284.7764 284.7763-284.7764zm265.0215 180.6771c1.261 3.1937 2.4474 6.4224 3.595 9.6704.029.5603.047 1.0914.047 1.578 0 2.5463 0 9.3351-2.1333 10.6165-2.1131 1.2688-5.5094 9.339-8.0731 9.339-2.5434 0-6.7889 2.9795-9.3322 6.7927-2.5502 3.8257-4.2455 13.1637-4.2455 13.1637l-4.6651 7.6437-5.9562 1.6953-5.9397 14.0138-.4168 16.1239-2.1334 70.0574 7.6428-7.6389 2.9795-16.1317c.9625.8045 1.924 2.1605 2.8768 3.6426l-.1299 1.9143s-1.2794 24.6128-1.2794 27.162c0 2.5434-3.8141 15.2933-3.8141 15.2933l-2.1285 11.8804h9.3351s4.6748-5.9388 5.9436-8.9164c1.2804-2.964.849-17.825.849-17.825s2.2158-15.2108 3.4536-23.6261c.8762-.3431 1.4529-.6039 1.4529-.6039l10.1891 11.453s-5.5143 9.3535-4.2464 12.745c1.2823 3.3964 6.7897 13.1502 6.7897 13.1502s-10.1861 5.5288-6.7897 8.9212c1.8949 1.8969 6.2373 4.5168 9.7053 6.4641-7.1658 20.2676-16.561 39.5009-27.8987 57.3899h-48.1895c.3567-.6038.5719-1.008.5719-1.008l4.2425-4.2561s8.0751-5.5152 12.7353-6.7927c4.6749-1.2678 11.8989-5.9426 11.8989-5.9426l9.3399-6.7927v-6.375l8.4851-3.8102 2.5492-5.0935-9.7713-9.7694s-2.114-2.1285-5.9378-1.2785c-3.8141.8462-14.0177 4.2561-14.0177 4.2561l-5.0935 3.8103-8.0547 2.5501-12.3185 2.5473-5.5239-3.3964-10.6001-5.5113-8.5063-1.6972-2.9641 10.6049 2.1131 9.7713 1.2833 9.3341-4.6758 8.0702-5.5104 8.9212 1.265 11.0362-.4149 15.2806-2.5502 16.1288-1.2784 14.4412-1.264 14.0138v14.8532l-.2917 7.2163c-9.025 5.5317-18.3843 10.5641-28.0305 15.0819h-49.0222c-1.0846-16.1016-2.2051-34.5963-2.3912-53.1047h29.1093l7.8347 44.2717 14.7611 4.6603 14.8639-38.5035 5.5093-44.5838-7.6379-5.5094 4.6739-17.4102-5.5249-13.1637-8.9164-3.8141 1.7108-8.075-5.5297 2.1178.851-13.5815-5.9426 6.7937-5.0926-8.9115-6.3749-3.3915 1.2823-21.2349c-2.2729-9.34-4.5313-18.679-6.8062-28.0276-2.115-.4188-4.2426-.8511-6.3614-1.2679l-2.9737 15.7101-3.8141 5.9455-8.5035-14.4306-8.4889-.4323 13.9537 20.3451-8.8931 27.1601-4.6758 2.5454-22.0074-5.4987-3.1996 10.8588-9.7713-6.7879-7.7261-11.7253-3.8277 5.9416h-11.8852l-3.8103 9.7684-12.5734-5.9785-10.2879-1.3831c-16.9953-2.9786-49.3779-23.5525-55.116-41.5054-.7948-2.5647-1.5644-7.1707-2.2943-11.5683-.568-3.4197-1.1127-6.7152-1.6274-8.8224-5.1022-20.8879-7.3616-37.9123-1.3046-63.76 12.0093-45.6791 29.1888-68.0567 32.8274-85.1432.6737-3.1637 25.618-15.364 25.2468-18.2786-7.5449 1.4336-17.9985 7.9588-25.5395 5.5094l22.5609-14.1941c-12.0249 2.9495-10.9538 4.5071-22.9767 3.5766l30.6417-14.6651-42.0394 6.2983c-.02-.3586-9.9826-6.0793-30.6864-10.8045l-33.1492 2.4378-2.6277-12.7945 11.4268-5.68-14.9889.2908-5.7585-8.7128 9.4573-11.7079 24.9976-3.8267 34.8852-.7047 7.225 5.111c10.1289-3.7472 14.6186.1057 19.6986 6.4593 1.3686 6.9604-9.0172-7.0486-13.9644-1.3521l1.4239 11.3579c13.3431-1.2668 26.0183 1.2407 31.7836-8.3668 3.8577-9.8798-.2123-18.2476-12.21-25.1062l-3.4991 8.5471-11.0304 3.566-3.1424-9.7858 22.8207-14.3405 14.3889-1.2959 18.3222 4.9676 15.7294 14.859c6.4855 5.7652-28.3978 14.478 5.7692 32.8991l-24.1932 13.126c-3.7763 2.0481 28.6218-2.6277 22.4727 18.0605 4.575 10.1929-15.6955 1.0875-40.7445 26.878 8.4637 11.6023 31.3125-10.7783 2.5938 14.7902l39.4001-14.006.1095 5.2709c-7.7212 2.1605-27.5071 10.5118-42.6375 14.5585 12.3893 3.4177 33.5273-.06 42.3962-6.5164l-1.0875 21.8659-11.9328 13.7211-11.4666 2.964 6.375 10.2036-2.1286 8.4889-9.7712 5.9388 14.2861 1.2785-6.6599 6.9681-20.348 4.8115 22.1635-.5302c8.2456 7.6495-10.2055 8.6362-23.4042 11.6536 15.3301 1.7641 28.8099 2.7847 29.3585-1.3638l1.4694 2.3893c9.8352 12.3912-13.8161 8.5606-26.5107 12.4552 19.0608 3.7705 32.904 4.4693 35.271-1.5819 3.8471 6.878 3.819 5.6587 4.0332 7.0321.6426 4.1272-17.9898 10.1629-31.8107 17.7-5.2932 2.8865 34.987.9257 45.0045-14.4703 2.4755-3.8064-21.6992 20.1881 6.6492 2.2477 2.1683-1.3715 1.9405 4.3802 3.9789 1.2649 1.5537 1.4249-.978 6.6657.5777-2.9747 2.8302 21.641 11.3754 26.1724 22.4988 22.9341 1.6953-1.6953 3.3963-3.3964 5.1071-5.0926-5.3775-10.474-10.7619-20.9461-16.1413-31.423 6.7636 8.0004 11.7815 12.5308 4.6767-7.2201 6.6444 5.5239 13.2907 11.0342 19.9535 16.5581 1.6953-1.4083 3.3964-2.8341 5.0917-4.2454-5.2642-7.6117-10.5429-15.2186-15.8119-22.8294-.8326-7.8569 1.799-11.5402 7.8861-11.0963 3.6832 1.7709 7.381 3.5515 11.0798 5.3262 1.5799.1154 3.1792.2278 4.7591.3286-5.1352-5.4677-17.352-17.9529-14.0438-33.2908l31.4239-30.9906 18.866 14.4315 2.5453 1.6963 2.9796 6.7888 6.7878 6.3778 8.0576 8.9173 27.5953 6.7927 3.8287.4149-2.9796-8.9038 3.8287-8.0702 9.3351-5.9436s-11.8853 0-14.0129.4149c-2.1149.4313-22.0704.8539-22.0704.8539l-9.3361-.4226-4.2464-6.3711 6.3624 2.5473h6.7878l2.9815-3.8141.4149-7.6389-7.6399-5.5249 3.3964-.85 9.3535 6.7917 3.3924-3.8141-3.3924-4.6777-9.3535-12.3137-8.9067-20.3742-.4313-2.1276 18.2592-10.1861 8.0673-6.371 10.6223-2.5502 9.337-7.224 6.3575-.4149 8.5035 8.489 11.4568 10.1841 7.635 9.7684 8.0741 9.7752 5.9397 6.7878 2.9815-9.337 5.0926 2.9592 2.1111-8.0528 5.109 7.2066zm-27.0418 260.1693c-10.603 16.0987-22.7839 31.0769-36.3353 44.6894h-39.2043l1.3502-4.0428 3.8112-16.5601-.4149-12.7499 5.5249-6.3594 8.9038-4.6748s3.8286.8491 5.9416.8491c.5767 0 1.2475-.4701 1.9182-1.1515zm-40.6156 48.8883c-12.9738 12.4998-27.1301 23.7793-42.2721 33.6649l3.1734-25.365 2.7721-8.2999zm-86.5012 57.292c-34.1011 14.4994-71.5743 22.526-110.8629 22.526-39.2887 0-76.7628-8.0295-110.8658-22.526h143.7058l9.1035 13.8587 30.0243-6.3051c-.1667-2.4387-.3373-4.9617-.5147-7.5536zm-231.058-4.1873c-28.617-13.4031-54.6633-31.4249-77.1709-53.1047h214.8517c-.2462 9.0618-1.5779 18.3436-3.9914 27.8386l16.5959 25.2661zm-81.4493-57.3036c-13.5544-13.6106-25.7304-28.5907-36.3353-44.6894h245.3297c6.624 14.2512 10.0165 29.1461 10.1716 44.6894zm-39.0551-48.8903c-4.6312-7.3054-8.9483-14.8289-12.9136-22.5609h234.3991c11.2785 7.983 19.3264 15.5036 24.1457 22.5609zm-14.9995-26.7481c-3.1366-6.373-6.0425-12.8788-8.7061-19.5067h199.3162c.4449.5118.8908 1.0148 1.3444 1.5072 12.022 6.2324 29.5988 12.2303 38.3814 17.9995zm-10.3422-23.6959c-1.3114-3.4196-2.5744-6.8645-3.7559-10.3451h194.6908c2.0645 3.7482 4.2793 7.1939 6.6414 10.3451zm-5.1216-14.5314c-.5293-1.643-1.0411-3.2927-1.5412-4.9482h193.1186c.7425 1.6992 1.5063 3.3469 2.2972 4.9482zm271.1638-512.0901c234.1897 0 425.1963 191.0066 425.1963 425.1973 0 234.1898-191.0066 425.1964-425.1963 425.1964-234.1908 0-425.1974-191.0066-425.1974-425.1964 0-234.1907 191.0066-425.1973 425.1974-425.1973zm0 28.8583c218.2956 0 396.3381 178.0425 396.3381 396.339 0 218.2956-178.0425 396.3381-396.3381 396.3381-218.2966 0-396.3391-178.0425-396.3391-396.3381 0-218.2965 178.0425-396.339 396.3391-396.339zm-215.3103 350.2025c.6601 0 1.8688-.5584 3.6678-1.767 1.7844-1.1806 4.1863-1.1089 7.2095.1715-.3752-4.2144-2.2303-6.6744-5.6122-7.3956-3.3963-.7027-5.1526 2.2866-5.2651 8.9911zm-25.9407 11.8426c-1.0497-1.1098-2.6791-1.7137-4.9055-1.798-2.2071-.1018-3.8606.1715-4.9676.8083-.5476.9063-1.0361 2.1421-1.5091 3.7647-.4885 1.6294-.5448 2.8933-.1861 3.8287 1.1234-1.7573 2.6887-2.6171 4.733-2.59 2.0131.0301 3.6105.1135 4.8202.3025.3285-.631.631-1.453.8762-2.3874.2433-.9382.6048-1.5983 1.1389-1.9288zm10.7619-1.5974c1.0216.3615 2.4619 1.1234 4.3588 2.2865 1.9269 1.1796 3.5543 2.5037 4.921 3.9857-.3732-.8181-1.008-2.5889-1.8978-5.2496-.9092-2.6771-1.5974-4.448-2.0859-5.3524-.693 0-1.6865.4449-2.9224 1.3221-1.2397.9073-2.0151 1.8969-2.3737 3.0077zm15.8069-2.0132c-.3567.6892-.4875 2.9476-.3848 6.7462.058 3.7976.5322 5.898 1.3551 6.3856.3576-2.588 1.0749-6.1423 2.1566-10.631 1.0924-4.4888 3.2209-6.7472 6.3895-6.7472-2.9796.3625-4.9676.7764-5.901 1.325-.9344.5157-2.143 1.5092-3.6154 2.9214zm311.824 238.663-7.9083-44.6894h-17.9035c-1.9454 13.8519-2.6142 29.212-2.5802 44.6894zm-8.6517-48.8903-.2782-1.5692-5.8041 1.5692zm-358.2175 125.6483-3.5514-33.9005-32.5018-8.3997 30.1978-13.1957-2.8206-30.7445 20.8201 22.8778 30.8763-13.4836-15.9136 29.5513 21.4801 25.2807-32.2565-6.9749zm535.5805 3.5126-16.3594-30.4798-33.7483 4.5944 23.2781-23.9848-14.4461-27.7843 28.3446 13.4836 23.7938-24.5324-3.5815 33.8704 29.8847 15.4794-32.9621 5.8437zm-200.678 87.4414-11.1661-54.5402 11.6817-2.1596 9.2557 45.2778 29.0482-5.3649 1.8969 9.2643zm-59.6222 4.7659-3.0949-55.9553 25.0209-1.2504c6.2897-.3024 10.8947-.0281 13.7958.8326 2.8942.8646 5.2854 2.5317 7.1367 5.0082 1.8572 2.5047 2.8662 5.395 3.0523 8.7032.2307 4.1892-.8782 7.7261-3.3091 10.5922-2.4474 2.8623-6.2441 4.7766-11.3648 5.743 2.6432 1.3056 4.86 2.7605 6.6347 4.386 1.7525 1.6264 4.1689 4.5304 7.2444 8.7458l7.8017 10.5622-14.2144.7007-9.2644-11.7505c-3.2984-4.2018-5.5249-6.8344-6.7054-7.9141-1.1981-1.0633-2.4339-1.7845-3.7124-2.145-1.2823-.3587-3.28-.474-6.0308-.3267l-2.3883.1134 1.2823 23.3654zm10.1144-32.8914 8.7768-.4323c5.6974-.2869 9.2508-.6872 10.6466-1.2068 1.3928-.5302 2.46-1.3812 3.2092-2.5482.7328-1.1505 1.0653-2.5734.9616-4.2406-.098-1.9017-.7154-3.3837-1.8407-4.4935-1.1088-1.105-2.6471-1.7525-4.5885-1.9657-.978-.0737-3.8713 0-8.6906.2374l-9.2653.4643zm-65.0597 29.6715 4.099-55.8856 43.5787 2.8943-.6882 9.465-31.7108-2.114-.9208 12.3873 29.5232 1.956-.6911 9.4088-29.5242-1.956-1.1098 15.2079 32.8362 2.1867-.6931 9.4233zm-53.4091-11.643 13.251-54.5867 18.6052 4.0884c7.0341 1.5392 11.5684 2.8313 13.5815 3.8538 3.093 1.5237 5.4222 3.912 6.9779 7.1543 1.5557 3.2344 1.7989 7.0166.7482 11.3473-.8219 3.3537-2.143 6.0405-3.9856 8.0285-1.8281 2.0161-3.8849 3.4526-6.1898 4.3162-2.271.8791-4.4839 1.2969-6.6163 1.2649-2.9049-.0834-6.9759-.693-12.2284-1.8542l-7.5526-1.6556-5.0082 20.5933zm22.6045-42.8032-3.7686 15.4784 6.343 1.3986c4.5759 1.0071 7.699 1.3938 9.3845 1.1651 1.6643-.2452 3.0901-.8636 4.2697-1.8862 1.167-1.0362 1.9395-2.3418 2.3466-3.9682.474-1.9735.2607-3.7579-.663-5.3233-.8927-1.5402-2.2594-2.7053-4.0603-3.4264-1.3347-.5573-4.0845-1.2959-8.2572-2.2012zm395.2448-273.1508 55.3311 8.7622-6.0134 37.9414-9.3671-1.4821 4.2425-26.7588-13.0891-2.0762-3.6696 23.0931-9.3633-1.4782 3.6659-23.092-23.506-3.7308zm30.285-63.3461c5.7119 0 10.5021.8471 14.3724 2.5608 2.8487 1.2775 5.4086 3.0057 7.6845 5.2225 2.2545 2.1992 3.9401 4.6176 5.0334 7.2346 1.482 3.4982 2.2148 7.5129 2.2148 12.0724 0 8.2601-2.5414 14.8629-7.6805 19.8256-5.1091 4.952-12.2294 7.4246-21.3542 7.4246-9.0462 0-16.1268-2.4581-21.2339-7.3801-5.0926-4.92-7.6524-11.4946-7.6524-19.7131 0-8.3309 2.5453-14.9618 7.6107-19.8673 5.0926-4.92 12.0995-7.38 21.0052-7.38zm.3732 11.6536c-6.3294 0-11.1516 1.4646-14.418 4.3869-3.2762 2.935-4.9065 6.6619-4.9065 11.1651 0 4.5033 1.6129 8.2185 4.8793 11.1089 3.251 2.8729 8.1158 4.3298 14.6032 4.3298 6.4166 0 11.2067-1.4103 14.3714-4.2174 3.1686-2.8206 4.734-6.561 4.734-11.2213 0-4.6612-1.5974-8.4152-4.7902-11.2824-3.1928-2.8293-8.0111-4.2696-14.4732-4.2696zm-13.6562-56.4303-.7153 11.4684c-6.3478-.1453-11.4249-1.7572-15.2535-4.8337-3.8257-3.062-6.4738-7.5255-7.9267-13.3673-1.799-7.2105-.8055-13.7676 2.964-19.6366 3.7676-5.8728 9.9428-9.8876 18.488-12.0151 9.0501-2.2585 16.6463-1.6711 22.8313 1.7524 6.1607 3.4283 10.1997 8.9358 12.0995 16.564 1.6545 6.6308 1.0361 12.5308-1.8581 17.666-1.6953 3.0523-4.5866 5.7391-8.6285 8.0605l-5.3107-10.2162c2.6762-1.3385 4.5624-3.2393 5.6858-5.7013 1.1214-2.4435 1.3201-5.1197.5874-8.042-.9945-4.0158-3.2626-6.9333-6.7743-8.7177-3.5098-1.7844-8.519-1.8727-14.9899-.2598-6.8818 1.7137-11.4714 4.1592-13.7579 7.3685-2.3146 3.1928-2.9611 6.7752-1.988 10.7328.7377 2.9185 2.2933 5.1914 4.6642 6.8305 2.3738 1.6448 5.6722 2.4173 9.8827 2.3466zm-37.1911-49.9682 51.581-21.8969 4.418 10.4159-51.583 21.8843zm-20.475-42.6724 49.0648-26.088 5.3068 9.9884-40.7261 21.6526 13.2054 24.8358-8.3455 4.4276zm14.1195-78.9175 12.8467 18.3436c2.5434 3.6289 4.2852 6.4495 5.237 8.4618.948 1.9831 1.422 4.0137 1.454 6.1006.025 2.0859-.4323 4.1427-1.3842 6.2024-.9208 2.0539-2.3883 3.7821-4.3763 5.1662-2.1411 1.5063-4.5119 2.3147-7.1193 2.4126-2.6161.1017-5.0625-.5302-7.3355-1.8824 1.1341 3.3644 1.2494 6.4864.3432 9.3526-.9063 2.8913-2.6888 5.2505-5.3379 7.1048-2.0858 1.4548-4.4606 2.4028-7.1047 2.8109-2.6491.4138-5.1711.1812-7.5129-.6688-2.3428-.8452-4.5343-2.4164-6.5329-4.6845-1.2359-1.4259-3.9586-5.082-8.141-10.9655l-10.9373-15.6257zm-1.1515 14.6177-10.6039 7.4392 4.2425 6.0705c2.5288 3.6155 4.1582 5.8147 4.8784 6.6183 1.2823 1.4549 2.7004 2.3185 4.2561 2.5879 1.5392.2782 3.0532-.1124 4.5352-1.1621 1.4219-.9906 2.3001-2.1877 2.6442-3.5825.3334-1.4083.056-2.9495-.8462-4.6186-.5331-.9935-2.3321-3.6667-5.3814-8.0285zm-18.2467 12.777-12.271 8.5907 6.0017 8.5742c2.3418 3.3401 3.9091 5.394 4.7311 6.1588 1.2087 1.2087 2.6199 1.8978 4.1853 2.0868 1.5712.1861 3.1792-.2878 4.8067-1.4258 1.3792-.9625 2.3039-2.1178 2.8041-3.4535.4895-1.3512.5214-2.8051.072-4.3744-.4468-1.5673-2.1431-4.4577-5.0926-8.6721zm-29.1054-75.4485 8.2718 7.7135-20.6873 22.1964c-3.2839 3.5117-5.3106 5.9-6.0861 7.1368-1.2077 1.9977-1.6119 4.1475-1.2397 6.3885.3897 2.2575 1.7418 4.4742 4.0419 6.6163 2.3466 2.2061 4.5769 3.3721 6.6628 3.5272 2.0869.157 3.8975-.3586 5.4367-1.5382 1.5557-1.1671 3.8286-3.3819 6.8664-6.6183l21.136-22.6743 8.2708 7.7242-20.0679 21.5112c-4.5943 4.921-8.0566 8.202-10.4032 9.809-2.3321 1.6129-4.7485 2.5657-7.2676 2.8352-2.4891.2743-5.1508-.1125-7.9258-1.1486-2.7915-1.0507-5.8021-3.0949-9.0502-6.1142-3.8994-3.6561-6.4592-6.8635-7.6291-9.654-1.1767-2.7925-1.6788-5.4561-1.5073-7.9888.1716-2.5453.8045-4.7766 1.9144-6.7006 1.641-2.8661 4.6011-6.5746 8.8892-11.168zm-81.1314 11.295 30.5138-46.9886 15.2254 9.8818c5.7537 3.7404 9.3632 6.4311 10.8036 8.0265 2.2487 2.462 3.5117 5.458 3.7966 8.9949.2782 3.5534-.7899 7.193-3.2238 10.9189-1.8678 2.8904-3.9692 4.9763-6.3012 6.2577-2.3282 1.2833-4.6429 1.9705-7.0069 2.0442-2.3282.0717-4.4461-.2598-6.343-.978-2.5608-1.0197-5.9843-2.9195-10.2869-5.712l-6.1888-4.0099-11.5083 17.7213zm34.83-32.8769-8.6459 13.3217 5.1808 3.3683c3.7404 2.4299 6.403 3.8141 7.9868 4.1436 1.5654.316 3.0474.2007 4.4558-.3896 1.3977-.5894 2.5511-1.5674 3.4554-2.9495 1.1079-1.7118 1.5111-3.4497 1.2368-5.2235-.284-1.7379-1.1059-3.2771-2.4581-4.5449-.9935-.9654-3.2102-2.5308-6.6162-4.7475zm-81.9067 10.1706 22.7906-51.171 37.9394 16.8858-3.8577 8.6653-27.6079-12.303-5.0655 11.3502 25.6955 11.4394-3.8257 8.6188-25.6936-11.4394-6.2034 13.9266 28.5889 12.7333-3.8423 8.6198zm-54.6459-16.3866 15.4396-53.8656 22.8885 6.5737c5.7565 1.64 9.7994 3.3401 12.1315 5.0509 2.3291 1.7127 3.9265 4.0273 4.7901 6.9506.851 2.936.8229 5.9659-.083 9.1626-1.1661 4.0293-3.3082 7.035-6.4351 8.991-3.121 1.9463-7.1639 2.5928-12.0839 1.9143 1.955 2.0617 3.4651 4.1165 4.5294 6.2024 1.0507 2.0723 2.2759 5.5666 3.6745 10.5021l3.5679 12.4048-12.9951-3.7268-4.5032-13.9896c-1.5974-4.9898-2.7489-8.1691-3.47-9.5493-.7028-1.3841-1.5935-2.4474-2.6171-3.1783-1.0497-.7337-2.8041-1.4539-5.3106-2.174l-2.2003-.6349-6.4457 22.4872zm19.7984-27.9685 8.0285 2.3011c5.2225 1.4956 8.5452 2.2167 9.971 2.1605 1.4229-.0736 2.649-.5476 3.6988-1.4083 1.0322-.8646 1.7989-2.1043 2.2584-3.7308.5302-1.8116.4604-3.407-.19-4.8037-.6455-1.3987-1.8087-2.4911-3.4943-3.2965-.85-.3567-3.4661-1.1796-7.8811-2.4436l-8.4793-2.4299zm-76.1958 4.2329v-9.4553h24.3841v22.3137c-2.3708 2.303-5.8088 4.3162-10.2976 6.0715-4.5052 1.7418-9.0685 2.6064-13.6697 2.6064-5.8583 0-10.9605-1.2222-15.3233-3.6697-4.3569-2.4765-7.6243-5.9862-9.8275-10.5573-2.1866-4.5808-3.279-9.558-3.279-14.9201 0-5.8302 1.2222-11.0245 3.6522-15.5695 2.461-4.5197 6.0299-8.0004 10.7648-10.4178 3.5824-1.8677 8.0566-2.7915 13.409-2.7915 6.9477 0 12.3844 1.4539 16.2867 4.3715 3.912 2.9233 6.4341 6.9555 7.5546 12.1043l-11.2388 2.0965c-.7909-2.7459-2.273-4.9307-4.4616-6.5164-2.1692-1.5974-4.8919-2.3883-8.1409-2.3883-4.9472 0-8.8747 1.5712-11.7971 4.6903-2.9224 3.1531-4.3763 7.7823-4.3763 13.9566 0 6.6493 1.482 11.644 4.448 14.9618 2.934 3.3227 6.8199 4.9763 11.5955 4.9763 2.3708 0 4.7485-.4556 7.1368-1.3939 2.3747-.9188 4.4325-2.0539 6.1432-3.3643v-7.1048zm-81.7526 29.0734-8.7594-55.3331 10.8773-1.7253 28.5006 33.3625-5.8583-36.9488 10.3887-1.6536 8.7642 55.337-11.2223 1.7844-28.0276-32.557 5.7245 36.0794zm-20.8172 7.9578-16.3749-53.5806 10.8229-3.3082 16.373 53.5806zm-59.7665 25.1343-22.7761-51.1904 15.4668-6.8761 24.8173 30.7726-6.3575-39.0027 15.4959-6.8935 22.7906 51.1749-9.5988 4.2784-17.9403-40.288 7.7842 44.801-9.9544 4.4325-28.0732-35.7673 17.9404 40.288zm-52.5881 39.5387-34.4859-44.1573 13.3363-10.4178 31.5383 23.8539-15.6112-36.2965 13.3683-10.4469 34.4994 44.1564-8.2708 6.4583-27.1485-34.7602 18.3717 41.6091-8.5761 6.7055-35.8982-27.9268 27.1524 34.7611zm-5.207 3.2364-8.0721 9.2964-12.8187-4.6516-14.6884 16.8945 6.5746 11.8397-7.8705 9.0637-27.9714-53.2365 7.8395-9.0201zm-30.3887 1.1971-20.76-7.8153 10.7338 19.3526zm-34.5867 83.571-45.3176-32.9302 13.9964-19.2779c3.5117-4.8358 6.4757-8.0605 8.8912-9.655 2.4028-1.608 5.1216-2.3175 8.1729-2.1285 3.0358.1967 5.8874 1.2649 8.5781 3.2209 3.3915 2.459 5.4774 5.5113 6.2402 9.1218.7657 3.5951-.014 7.6108-2.3282 12.0006 2.5986-1.1379 5.0606-1.8581 7.3791-2.1285 2.3146-.2879 6.0134-.2462 11.137.127l12.8603.8946-7.9548 10.9344-14.6758-.5476c-5.2225-.2016-8.6023-.2152-10.158-.0145-1.5557.1996-2.8342.66-3.8839 1.3802-1.0517.7202-2.3321 2.1315-3.8558 4.2425l-1.3531 1.8475 18.9203 13.7501zm-19.5077-28.1672 4.922-6.7607c3.1783-4.4034 4.9889-7.2676 5.4212-8.6324.4187-1.3521.4042-2.6771-.059-3.9585-.4566-1.2794-1.3512-2.4174-2.7198-3.4109-1.5237-1.1059-3.0474-1.5799-4.5886-1.45-1.5237.126-2.9476.8462-4.2861 2.1566-.6339.6601-2.303 2.8526-4.9937 6.5756l-5.1905 7.1223zm-12.1721 53.4236-8.6935-3.6832 9.5261-22.4465 20.5457 8.7196c1.1932 3.0949 1.7127 7.035 1.5557 11.8542-.158 4.8183-1.1234 9.3536-2.9369 13.5961-2.2856 5.394-5.4115 9.6259-9.3661 12.6781-3.9721 3.0484-8.4889 4.6884-13.5544 4.9172-5.0596.2171-10.0688-.7202-15.0179-2.8061-5.3698-2.2826-9.6686-5.4367-12.8934-9.4659-3.2063-4.0148-5.0208-8.6789-5.394-13.9576-.3198-4.0274.5758-8.5161 2.6772-13.4361 2.6994-6.404 6.1849-10.8356 10.3848-13.2956 4.2173-2.46 8.9076-3.1947 14.0865-2.2148l-2.4474 11.1506c-2.8487-.3296-5.4357.187-7.7552 1.5673-2.3137 1.3841-4.0981 3.5689-5.3795 6.56-1.9279 4.5615-2.0277 8.7904-.285 12.6927 1.7515 3.9266 5.4658 7.0786 11.137 9.4805 6.1123 2.5919 11.293 3.1947 15.5055 1.7689 4.2144-1.4248 7.2521-4.3307 9.1219-8.7487.9344-2.1847 1.4248-4.5449 1.5101-7.1047.074-2.5463-.1715-4.8794-.7163-6.9653l-6.5474-2.7779zm-30.1135 89.4032c-5.6267-.9945-10.1997-2.6636-13.7114-5.0238-2.5928-1.7553-4.8047-3.8974-6.6628-6.4728-1.8407-2.5599-3.0804-5.2225-3.7085-7.9994-.8539-3.6988-.882-7.7833-.088-12.2856 1.4404-8.1322 5.1071-14.1873 11.0071-18.172 5.8961-4.0002 13.3499-5.1953 22.3302-3.6154 8.9038 1.5712 15.4503 5.2234 19.6221 10.9518 4.1727 5.7411 5.5539 12.6462 4.1136 20.7493-1.4404 8.1972-5.0926 14.2843-10.9441 18.2564-5.8583 3.9556-13.1822 5.1526-21.958 3.6115zm1.639-11.5383c6.2422 1.0924 11.2504.474 14.9763-1.8309 3.7405-2.3147 5.9892-5.6965 6.7617-10.1425.7929-4.4277-.1551-8.3591-2.8768-11.7826-2.6898-3.3963-7.2347-5.6693-13.6242-6.8043-6.3284-1.1088-11.2804-.5476-14.891 1.6546-3.6008 2.2312-5.7953 5.6373-6.6172 10.2278-.8074 4.6079.1299 8.5771 2.7789 11.9415 2.6452 3.3672 7.1368 5.613 13.4923 6.7364zm26.3139 70.3094-56.0115.9761-.4159-23.8084c-.1008-5.9853.3315-10.3296 1.2795-13.061.9615-2.7372 2.7043-4.952 5.2535-6.6211 2.5608-1.6681 5.4793-2.5279 8.7923-2.5919 4.1998-.0668 7.6941 1.1137 10.4866 3.5263 2.7605 2.4193 4.5624 6.087 5.3533 10.9925 1.3938-2.4716 2.9175-4.5304 4.6031-6.1432 1.6836-1.6245 4.6612-3.8141 8.9774-6.5911l10.8036-7.0321.2462 13.5078-12.0578 8.4017c-4.3026 2.9815-7.0069 5.0092-8.1264 6.1006-1.106 1.0953-1.8581 2.2342-2.2769 3.4381-.4003 1.2125-.5718 3.1084-.5156 5.7138l.032 2.2875 23.3915-.4051zm-32.5298-10.7464-.1396-8.3551c-.088-5.427-.3761-8.8234-.854-10.1755-.4885-1.325-1.2968-2.3747-2.4299-3.1211-1.138-.7347-2.5327-1.1079-4.2193-1.0797-1.892.0436-3.3915.5757-4.5449 1.5954-1.1341 1.0255-1.8407 2.461-2.1276 4.3016-.098.9208-.1153 3.6668-.032 8.2602l.1474 8.8195zm40.4847 62.5125-55.1761 9.7442-3.1511-17.8667c-1.1893-6.7791-1.6807-11.2533-1.4917-13.4002.2569-3.3091 1.5954-6.2858 3.9973-8.9058 2.3883-2.617 5.7846-4.3132 10.1706-5.0935 3.3973-.5864 6.3468-.473 8.865.348 2.5318.818 4.6186 2.0548 6.2722 3.7259 1.6546 1.6545 2.8623 3.438 3.6251 5.3106.9945 2.5609 1.9415 6.3711 2.838 11.422l1.2785 7.2521 20.8162-3.6706zm-47.7931-3.0474 15.6403-2.7624-1.0643-6.0851c-.7764-4.3899-1.5809-7.2822-2.4203-8.6615-.8316-1.3667-1.9395-2.3786-3.3236-3.0067-1.3784-.6077-2.8759-.7899-4.5159-.505-1.9977.3616-3.5543 1.2388-4.6603 2.6607-1.0817 1.3958-1.6439 3.0358-1.6439 4.8939-.025 1.3841.3335 4.0709 1.0401 8.0837zm575.0291-46.6319 3.3963 13.5961s-3.8247 10.6068-4.2425 13.1482c-.4323 2.5512-.8501 12.7499-.8501 15.7149 0 2.9776-.4323 17.8405-.4323 17.8405l-8.9212 19.1064-2.114-10.6175-3.8238-9.7703-6.3623-15.2777v-17.4102s-.8491-8.9202 1.6972-10.1851c2.5463-1.2814 7.2066-4.6777 7.2066-4.6777l8.075-5.0926z" fill="#1b1918" fill-rule="evenodd"/></svg>