<svg xmlns="http://www.w3.org/2000/svg" width="128" height="15" viewBox="0 0 128 15"><path d="M121.61 2.586h.087c.2.948.287 1.38.49 2.068l1.18 4.656h-3.455l1.18-4.656c.173-.688.288-1.12.517-2.068m3.137 12.213H128L123.914.285h-4.434L115.364 14.8h3.08l.92-3.248h4.462l.92 3.247zm-16.435.2c1.785 0 3.512-.43 4.636-.89V6.84h-5.01v2.327h2.045v3.246c-.375.23-1.01.375-1.698.375-2.13 0-2.793-1.063-2.793-4.137V6.78c0-3.045.632-4.54 2.59-4.54 1.353 0 1.816.92 1.846 1.898h3.08C112.973 1.58 111.133 0 108.08 0c-4.262 0-5.814 2.47-5.814 6.467v2.127c-.03 4.338 1.44 6.406 6.044 6.406M93.892 2.586h.088c.2.948.288 1.38.488 2.068L95.65 9.31h-3.455l1.18-4.656c.172-.688.287-1.12.517-2.068M97.03 14.8h3.25L96.196.285H91.76L87.648 14.8h3.08l.92-3.248h4.46l.922 3.247zm-15.545 0h3.08V.285h-3.08V14.8zm-8.462.2c3.424 0 5.094-1.582 5.18-4.538h-3.107c-.058 1.436-.52 2.326-1.986 2.326-1.668 0-2.3-1.177-2.3-4.194V6.467c0-3.047.632-4.195 2.3-4.195 1.556 0 1.814 1.035 1.87 2.127h3.108C78.058 1.87 76.62.06 73.024.06c-4.002 0-5.468 2.5-5.468 6.407v2.127c0 3.936 1.465 6.406 5.467 6.406m-20.84-.2h2.736V6.38c0-1.178-.06-2.615-.118-3.794h.09c.43 1.494.66 2.27 1.063 3.39L59.15 14.8h4.49V.285h-2.735v8.078c0 1.06.03 2.47.058 3.82h-.086c-.23-1.007-.434-2.013-1.038-3.65L56.846.286h-4.69V14.8h.027zm-12.55 0h8.376V12.47h-5.296V8.447h4.805V6.093h-4.806V2.586h5.095V.258h-8.177v14.54zm-11.253 0h8.06V12.47h-4.98V.286h-3.08V14.8zM18.824 2.585h.087c.2.948.29 1.38.49 2.068l1.18 4.656h-3.453l1.18-4.656c.172-.688.288-1.12.517-2.068M21.962 14.8h3.253L21.127.285h-4.432L12.578 14.8h3.08l.92-3.248h4.463l.922 3.247zM3.108 12.586V8.364H4.98c1.583 0 2.33.718 2.33 2.124 0 1.55-.978 2.128-2.388 2.128H3.108v-.03zm0-6.437V2.5h1.93c1.408 0 2.013.63 2.013 1.81 0 1.18-.687 1.84-1.984 1.84H3.108zM.028 14.8h5.44c3.05 0 4.92-1.095 4.92-4.11 0-1.926-1.12-3.246-3.194-3.45v-.084c1.84-.316 2.936-1.322 2.936-3.247 0-2.502-1.44-3.622-4.518-3.622H0V14.8h.028z"/></svg>