<svg version="1.1" id="Layer_1" xmlns:x="ns_extend;" xmlns:i="ns_ai;" xmlns:graph="ns_graphs;" xmlns="http://www.w3.org/2000/svg" xmlns:xlink="http://www.w3.org/1999/xlink" x="0px" y="0px" viewBox="0 0 198.3 58" style="enable-background:new 0 0 198.3 58;" xml:space="preserve">
 <style type="text/css">
  .st0{fill-rule:evenodd;clip-rule:evenodd;}
 </style>
 <metadata>
  <sfw xmlns="ns_sfw;">
   <slices>
   </slices>
   <sliceSourceBounds bottomLeftOrigin="true" height="58" width="198.3" x="43.1" y="-212.2">
   </sliceSourceBounds>
  </sfw>
 </metadata>
 <g>
  <path class="st0" d="M190.7,58c-1.3,0-2.4-1.1-2.4-2.4V2.4c0-1.3,1.1-2.4,2.4-2.4h5.2c1.3,0,2.4,1.1,2.4,2.4v53.2
		c0,1.3-1.1,2.4-2.4,2.4H190.7z">
  </path>
  <path class="st0" d="M156.7,49.3h-6.8V8.8h4.5c11.3,0,18,7.7,18,20.5C172.4,43.1,163.2,49.3,156.7,49.3z M154.5,0h-12.3
		c-1.3,0-2.4,1.1-2.4,2.4v53.2c0,1.3,1.1,2.4,2.4,2.4h12.3c22.7,0,27.4-15.6,27.4-28.7C182,11.5,171.2,0,154.5,0z">
  </path>
  <path class="st0" d="M100.9,19l0,36.6c0,1.3-1.1,2.4-2.4,2.4h-5.3c-1.3,0-2.4-1.1-2.4-2.4V2.4C90.9,1.1,92,0,93.3,0h5.2
		c1.7,0,2.6,0.3,3.3,1.5l20.3,36.9l0-36c0-1.3,1.1-2.4,2.4-2.4h5.2c1.3,0,2.4,1.1,2.4,2.4v53.2c0,1.3-1.1,2.4-2.4,2.4h-5
		c-1.7,0-2.6-0.3-3.3-1.5L100.9,19z">
  </path>
  <path class="st0" d="M84.2,6.3c0,1.3-1.1,2.4-2.4,2.4H55v15.1H78c1.3,0,2.4,1.1,2.4,2.4v3.9c0,1.3-1.1,2.4-2.4,2.4l-22.9,0v16.6
		h26.6c1.3,0,2.4,1.1,2.4,2.4v4.1c0,1.3-1.1,2.4-2.4,2.4H47c-1.3,0-2.4-1.1-2.4-2.4V2.4C44.6,1.1,45.7,0,47,0h34.8
		c1.3,0,2.4,1.1,2.4,2.4V6.3z">
  </path>
  <path class="st0" d="M0,2.4C0,1.1,1.1,0,2.4,0H37c1.3,0,2.4,1.1,2.4,2.4v3.9c0,1.3-1.1,2.4-2.4,2.4l-27.1,0v15l18.3,0
		c1.3,0,2.4,1.1,2.4,2.4v4.2c0,1.3-1.1,2.4-2.4,2.4H9.9v23c0,1.3-1.1,2.4-2.4,2.4H2.4C1.1,58,0,56.9,0,55.6V2.4z">
  </path>
 </g>
</svg>