<?xml version="1.0" encoding="utf-8"?>
<!-- Generator: Adobe Illustrator 26.0.1, SVG Export Plug-In . SVG Version: 6.00 Build 0)  -->
<svg version="1.1" id="Layer_1" xmlns="http://www.w3.org/2000/svg" xmlns:xlink="http://www.w3.org/1999/xlink" x="0px" y="0px"
	 viewBox="0 0 354 160" style="enable-background:new 0 0 354 160;" xml:space="preserve">
<style type="text/css">
	.st0{fill:#FFFFFF;}
	.st1{fill:#04AB61;}
	.st2{fill-rule:evenodd;clip-rule:evenodd;fill:#FBB016;}
	.st3{fill:#FBB016;}
</style>
<g>
	<g>
		<path class="st0" d="M115,81.1c-2-1.7-4.8-2.6-8.4-2.6h-5.8H98h-3.4v31.4h6.2v-9.1h4.4c2.2,0,4.1-0.3,5.7-1c1.6-0.7,2.9-1.6,4-2.7
			c1-1.2,1.8-2.5,2.4-4c0.5-1.5,0.8-3.1,0.8-4.7C117.9,85.2,116.9,82.8,115,81.1z M111,92.1c-0.4,1.1-1.1,1.9-2.1,2.6
			c-1,0.6-2.3,1-3.8,1h-4.2V83.8h5.8c1.5,0,2.8,0.4,3.7,1.1c1,0.7,1.4,1.9,1.4,3.7C111.7,89.8,111.5,91,111,92.1z"/>
		<path class="st0" d="M142.5,103.5c0-0.9,0-1.7,0-2.3v-5.5c0-2.1-0.3-3.8-0.9-5.1c-0.6-1.3-1.3-2.4-2.4-3.1c-1-0.7-2.2-1.2-3.6-1.5
			c-1.4-0.3-2.9-0.4-4.5-0.4c-1.3,0-2.6,0.1-3.9,0.3c-1.3,0.2-2.5,0.5-3.5,0.8v4.8h0.4c0.7-0.3,1.6-0.6,2.7-0.8
			c1.1-0.3,2.3-0.4,3.5-0.4c1.3,0,2.5,0.1,3.4,0.4c0.9,0.2,1.6,0.7,2,1.5c0.5,0.8,0.7,1.9,0.7,3.4v0.4c-0.4-0.1-0.9-0.2-1.3-0.3
			c-0.9-0.2-2-0.3-3.3-0.3c-2,0-3.8,0.3-5.4,0.8c-1.5,0.5-2.7,1.3-3.6,2.4c-0.8,1.1-1.3,2.5-1.3,4.2c0,2.7,0.9,4.6,2.7,5.8
			c1.9,1.2,4.6,1.8,8.2,1.8c1.1,0,2.2-0.1,3.4-0.2c1.2-0.1,2.4-0.3,3.5-0.6c1.2-0.3,2.2-0.6,3.2-1l0.1-0.3c-0.1-0.5-0.2-1.2-0.3-2.1
			C142.6,105.3,142.5,104.4,142.5,103.5z M135.5,105.9c-0.9,0.2-1.9,0.3-2.9,0.3c-1.7,0-3-0.3-3.9-0.8c-0.9-0.5-1.4-1.4-1.4-2.6
			c0-1.2,0.5-2.1,1.4-2.7c0.9-0.5,2.3-0.8,4.2-0.8c0.8,0,1.7,0.1,2.6,0.3c0.4,0.1,0.7,0.1,1,0.2v1.7c0,0.7,0,1.3,0,1.8
			c0,0.5,0.1,0.9,0.1,1.3c0.1,0.3,0.1,0.7,0.2,1C136.4,105.7,136,105.8,135.5,105.9z"/>
		<polygon class="st0" points="158.4,102.7 152.9,86.1 146.4,86.1 146.4,86.6 155.4,110.3 151.6,119.5 151.6,120 157.7,120 
			170.6,86.6 170.6,86.1 164.5,86.1 		"/>
		<path class="st0" d="M207.9,87.6c-1-0.8-2.2-1.3-3.4-1.6c-1.3-0.3-2.6-0.4-4-0.4c-1.5,0-2.9,0.2-4.4,0.5c-1.2,0.3-2.4,0.7-3.5,1.1
			c-0.9-0.5-1.8-0.9-2.8-1.2c-1.3-0.3-2.6-0.5-4-0.5c-1.2,0-2.4,0.1-3.7,0.3c-1.3,0.2-2.5,0.5-3.7,0.8c-1.2,0.3-2.2,0.6-3.1,1
			l-0.1,0.3c0.1,0.5,0.2,1.2,0.3,2.1c0.1,0.9,0.1,1.8,0.1,2.7c0,0.9,0,1.6,0,2.2v14.9h6.1V94c0-0.9,0-1.7-0.1-2.4
			c0-0.2-0.1-0.4-0.1-0.6c0.4-0.1,0.7-0.2,1.1-0.3c0.9-0.2,1.8-0.3,2.7-0.3c1,0,2,0.2,2.7,0.5c0.8,0.3,1.4,0.9,1.9,1.8
			c0.5,0.8,0.7,2.1,0.7,3.7v13.5h6.1V96.2c0-2-0.3-3.7-0.8-5c0.5-0.2,1.1-0.3,1.6-0.4c0.8-0.2,1.5-0.3,2.2-0.3c1.2,0,2.2,0.2,3,0.5
			c0.8,0.3,1.5,0.9,1.9,1.8c0.4,0.8,0.7,2.1,0.7,3.7v13.5h6.1V96.2c0-2.2-0.3-4-0.9-5.4C209.8,89.4,209,88.3,207.9,87.6z"/>
		<path class="st0" d="M235.7,87.2c-1.7-1.1-3.8-1.7-6.5-1.7c-2.4,0-4.4,0.5-6.2,1.5c-1.7,1-3.1,2.4-4.1,4.3c-1,1.8-1.4,4-1.4,6.6
			c0,2.2,0.3,4,0.9,5.6c0.6,1.6,1.6,2.9,2.7,3.9c1.2,1,2.6,1.7,4.4,2.2c1.7,0.5,3.7,0.7,5.8,0.7c1.6,0,3-0.1,4.1-0.3
			c1.2-0.2,2.2-0.5,3-0.9v-4.9h-0.4c-0.6,0.3-1.5,0.7-2.5,0.9c-1.1,0.3-2.3,0.4-3.7,0.4c-1.6,0-3-0.2-4.2-0.7
			c-1.2-0.4-2.2-1.2-2.9-2.2c-0.5-0.8-0.8-1.7-1-2.9h16.3l0-1.4c0.1-2.5-0.2-4.7-0.9-6.6C238.5,89.8,237.4,88.3,235.7,87.2z
			 M234.2,95.8h-10.4c0.1-1.1,0.3-2,0.6-2.7c0.5-1.1,1.1-1.8,2-2.3c0.8-0.5,1.8-0.7,2.8-0.7c1.7,0,2.9,0.5,3.7,1.4
			c0.8,0.9,1.3,2.3,1.3,4.1V95.8z"/>
		<path class="st0" d="M264.9,87.6c-1.1-0.8-2.3-1.3-3.7-1.6c-1.3-0.3-2.7-0.5-4.2-0.5c-1.2,0-2.4,0.1-3.7,0.3
			c-1.3,0.2-2.5,0.5-3.7,0.8c-1.2,0.3-2.2,0.6-3.1,1l-0.1,0.3c0.1,0.5,0.2,1.2,0.3,2.1c0.1,0.9,0.1,1.8,0.1,2.7c0,0.9,0,1.6,0,2.2
			v14.9h6.1V94c0-0.9,0-1.7-0.1-2.4c0-0.2-0.1-0.4-0.1-0.6c0.4-0.1,0.7-0.2,1.1-0.3c0.9-0.2,1.8-0.3,2.7-0.3c1.2,0,2.2,0.2,3.1,0.5
			c0.9,0.3,1.5,0.9,2,1.8c0.5,0.8,0.7,2.1,0.7,3.7v13.5h6.1V96.2c0-2.2-0.3-3.9-0.9-5.3C266.9,89.5,266,88.4,264.9,87.6z"/>
		<path class="st0" d="M288.6,105.1c-0.5,0.1-1.1,0.2-1.6,0.2c-1.5,0-2.5-0.3-3.2-1s-1-1.7-1-3.2V91h6.5v-4.9h-6.5v-6.1h-6.1v6.1
			h-3.8V91h3.8v10.6c0,2,0.4,3.6,1.1,4.9c0.8,1.2,1.8,2.2,3.3,2.8c1.5,0.6,3.2,0.9,5.3,0.9c0.9,0,1.7-0.1,2.4-0.2
			c0.7-0.1,1.3-0.3,1.8-0.5v-4.9H290C289.6,104.8,289.2,105,288.6,105.1z"/>
		<path class="st0" d="M310.1,97c-1.1-0.5-2.3-0.9-3.7-1.1l-2-0.3c-1.3-0.2-2.3-0.5-3-0.8c-0.7-0.3-1-0.9-1-1.6c0-1,0.4-1.7,1.4-2
			c0.9-0.4,2.2-0.6,3.8-0.6c1.1,0,2.1,0.1,3.1,0.3c1,0.2,2.1,0.5,3.2,0.9h0.3v-5c-1-0.3-2-0.5-3.1-0.7c-1-0.2-2.2-0.3-3.4-0.3
			c-2.7,0-4.8,0.3-6.5,1c-1.6,0.7-2.8,1.6-3.6,2.7c-0.8,1.2-1.1,2.5-1.1,3.9c0,2,0.6,3.5,1.9,4.5c1.2,1,3,1.7,5.4,2.1l2,0.3
			c1.4,0.2,2.4,0.5,3.1,0.8c0.7,0.3,1,0.9,1,1.7c0,0.6-0.2,1.1-0.5,1.5c-0.3,0.4-0.7,0.6-1.3,0.8c-0.5,0.1-1,0.2-1.6,0.3
			c-0.6,0-1.1,0-1.6,0c-1.4,0-2.8-0.2-4.3-0.5c-1.4-0.3-2.6-0.7-3.7-1.1h-0.3v5.1c1.1,0.3,2.4,0.6,3.7,0.9c1.4,0.2,2.8,0.3,4.2,0.3
			c3.8,0,6.6-0.6,8.5-1.9c1.9-1.3,2.8-3.2,2.8-5.7c0-1.4-0.3-2.6-1-3.5C312.1,98.2,311.2,97.5,310.1,97z"/>
		<path class="st0" d="M126,71.9c2.5,1.3,5.6,2,9.2,2c1.5,0,2.8-0.1,4-0.3c1.2-0.2,2.2-0.5,3-0.9v-5.5h-0.4c-0.8,0.4-1.7,0.8-2.7,1
			c-1.1,0.2-2.2,0.3-3.4,0.3c-2.3,0-4.3-0.4-5.8-1.3c-1.6-0.8-2.8-2.1-3.6-3.7c-0.8-1.6-1.2-3.6-1.2-5.9s0.4-4.3,1.2-5.9
			c0.8-1.6,2-2.9,3.6-3.7c1.6-0.8,3.5-1.3,5.8-1.3c1.2,0,2.4,0.1,3.4,0.4c1.1,0.2,2,0.6,2.7,1h0.4v-5.5c-0.8-0.4-1.8-0.7-3-0.9
			c-1.2-0.2-2.5-0.3-4-0.3c-3.6,0-6.7,0.7-9.2,2c-2.5,1.3-4.3,3.2-5.6,5.7c-1.3,2.4-1.9,5.3-1.9,8.5c0,3.3,0.6,6.2,1.9,8.7
			C121.7,68.8,123.5,70.6,126,71.9z"/>
		<path class="st0" d="M150.3,72.1c1.9,1.2,4.6,1.8,8.2,1.8c1.1,0,2.2-0.1,3.4-0.2c1.2-0.1,2.4-0.3,3.5-0.6c1.2-0.3,2.2-0.6,3.2-1
			l0.1-0.3c-0.1-0.5-0.2-1.2-0.3-2.1c-0.1-0.9-0.1-1.8-0.1-2.7c0-0.9,0-1.7,0-2.3v-5.5c0-2.1-0.3-3.8-0.9-5.1
			c-0.6-1.3-1.3-2.4-2.4-3.1c-1-0.7-2.2-1.2-3.6-1.5c-1.4-0.3-2.9-0.4-4.5-0.4c-1.3,0-2.6,0.1-3.9,0.3c-1.3,0.2-2.5,0.5-3.5,0.8V55
			h0.4c0.7-0.3,1.6-0.6,2.7-0.8c1.1-0.3,2.3-0.4,3.5-0.4c1.3,0,2.5,0.1,3.4,0.4c0.9,0.2,1.6,0.7,2,1.5c0.5,0.8,0.7,1.9,0.7,3.4v0.4
			c-0.4-0.1-0.9-0.2-1.3-0.3c-0.9-0.2-2-0.3-3.3-0.3c-2,0-3.8,0.3-5.4,0.8c-1.5,0.5-2.7,1.3-3.6,2.4c-0.8,1.1-1.3,2.5-1.3,4.2
			C147.6,69,148.5,70.9,150.3,72.1z M154.6,63.6c0.9-0.5,2.3-0.8,4.2-0.8c0.8,0,1.7,0.1,2.6,0.3c0.4,0.1,0.7,0.1,1,0.2V65
			c0,0.7,0,1.3,0,1.8c0,0.5,0.1,0.9,0.1,1.3c0.1,0.3,0.1,0.7,0.2,1c-0.4,0.1-0.9,0.3-1.3,0.4c-0.9,0.2-1.9,0.3-2.9,0.3
			c-1.7,0-3-0.3-3.9-0.8c-0.9-0.5-1.4-1.4-1.4-2.6C153.2,65,153.7,64.1,154.6,63.6z"/>
		<path class="st0" d="M186.2,68.6c-0.5,0.1-1,0.2-1.6,0.3c-0.6,0-1.1,0-1.6,0c-1.4,0-2.8-0.2-4.3-0.5c-1.4-0.3-2.6-0.7-3.7-1.1
			h-0.3v5.1c1.1,0.3,2.4,0.6,3.7,0.9c1.4,0.2,2.8,0.3,4.2,0.3c3.8,0,6.6-0.6,8.5-1.9c1.9-1.3,2.8-3.2,2.8-5.7c0-1.4-0.3-2.6-1-3.5
			c-0.7-0.9-1.6-1.7-2.7-2.2c-1.1-0.5-2.3-0.9-3.7-1.1l-2-0.3c-1.3-0.2-2.3-0.5-3-0.8c-0.7-0.3-1-0.9-1-1.6c0-1,0.4-1.7,1.4-2
			c0.9-0.4,2.2-0.6,3.8-0.6c1.1,0,2.1,0.1,3.1,0.3c1,0.2,2.1,0.5,3.2,0.9h0.3v-5c-1-0.3-2-0.5-3.1-0.7c-1-0.2-2.2-0.3-3.4-0.3
			c-2.7,0-4.8,0.3-6.5,1c-1.6,0.7-2.8,1.6-3.6,2.7c-0.8,1.2-1.1,2.5-1.1,3.9c0,2,0.6,3.5,1.9,4.5c1.2,1,3,1.7,5.4,2.1l2,0.3
			c1.4,0.2,2.4,0.5,3.1,0.8c0.7,0.3,1,0.9,1,1.7c0,0.6-0.2,1.1-0.5,1.5C187.2,68.2,186.8,68.5,186.2,68.6z"/>
		<path class="st0" d="M221.6,73.4V59.7c0-2-0.3-3.7-0.8-5c-0.5-1.4-1.3-2.5-2.2-3.3c-0.9-0.8-2-1.4-3.2-1.8c-1.2-0.4-2.5-0.6-4-0.6
			c-1.4,0-2.6,0.1-3.7,0.4c-0.6,0.1-1.1,0.3-1.6,0.5v-9.7h-6.4l-0.1,0.3c0.1,0.5,0.2,1.2,0.3,2.1c0.1,0.9,0.1,1.8,0.1,2.7
			c0,0.9,0,1.6,0,2.2v25.8h6.1V54.7c0,0,0.1,0,0.1,0c0.6-0.1,1.2-0.3,1.8-0.4c0.7-0.1,1.3-0.2,1.9-0.2c1.1,0,2.1,0.2,2.9,0.5
			c0.8,0.3,1.5,0.9,2,1.8c0.5,0.8,0.7,2,0.7,3.6v13.4H221.6z"/>
		<path class="st0" d="M240.3,40c-2.1,0-3.9,0.3-5.4,1c-1.5,0.7-2.6,1.8-3.4,3.2c-0.8,1.4-1.1,3.2-1.2,5.3h-3.8v4.9h3.8v18.9h6.1
			V54.5h6.1v-4.9h-6c0-1.7,0.4-2.9,1-3.7c0.7-0.8,1.8-1.2,3.3-1.2c0.6,0,1.2,0.1,1.6,0.2c0.4,0.1,0.8,0.2,1.2,0.3h0.4v-4.7
			c-0.4-0.2-1-0.3-1.6-0.4C241.7,40,241,40,240.3,40z"/>
		<path class="st0" d="M246.9,56c0,0.9,0,1.6,0,2.2v15.2h6.1V57.5c0-1.2-0.1-2.2-0.2-3c0.3-0.1,0.7-0.1,1.1-0.2
			c0.9-0.1,1.8-0.2,2.7-0.2c0.5,0,1.1,0,1.6,0.1c0.6,0,1,0.1,1.5,0.2h0.4v-5c-0.6-0.1-1.2-0.1-1.8-0.2c-0.6,0-1.2,0-1.7,0
			c-1.2,0-2.4,0.1-3.7,0.2c-1.2,0.1-2.3,0.3-3.4,0.5c-1.1,0.2-2,0.5-2.8,0.8l-0.1,0.3c0.1,0.5,0.2,1.2,0.3,2.1
			C246.8,54.1,246.9,55,246.9,56z"/>
		<path class="st0" d="M281.7,73.5c1.2-0.2,2.2-0.5,3-0.9v-4.9h-0.4c-0.6,0.3-1.5,0.7-2.5,0.9c-1.1,0.3-2.3,0.4-3.7,0.4
			c-1.6,0-3-0.2-4.2-0.7c-1.2-0.4-2.2-1.2-2.9-2.2c-0.5-0.8-0.8-1.7-1-2.9h16.3l0-1.4c0.1-2.5-0.2-4.7-0.9-6.6
			c-0.7-1.9-1.9-3.5-3.6-4.5c-1.7-1.1-3.8-1.7-6.5-1.7c-2.4,0-4.4,0.5-6.2,1.5c-1.7,1-3.1,2.4-4.1,4.3c-1,1.8-1.4,4-1.4,6.6
			c0,2.2,0.3,4,0.9,5.6c0.6,1.6,1.6,2.9,2.7,3.9c1.2,1,2.6,1.7,4.4,2.2c1.7,0.5,3.7,0.7,5.8,0.7C279.2,73.8,280.6,73.7,281.7,73.5z
			 M272.5,54.3c0.8-0.5,1.8-0.7,2.8-0.7c1.7,0,2.9,0.5,3.7,1.4c0.8,0.9,1.3,2.3,1.3,4.1v0.3h-10.4c0.1-1.1,0.3-2,0.6-2.7
			C271.1,55.4,271.7,54.7,272.5,54.3z"/>
		<path class="st0" d="M313.2,55.2c-0.7-1.9-1.9-3.5-3.6-4.5c-1.7-1.1-3.8-1.7-6.5-1.7c-2.4,0-4.4,0.5-6.2,1.5
			c-1.7,1-3.1,2.4-4.1,4.3c-1,1.8-1.4,4-1.4,6.6c0,2.2,0.3,4,0.9,5.6c0.6,1.6,1.6,2.9,2.7,3.9c1.2,1,2.6,1.7,4.4,2.2
			c1.7,0.5,3.7,0.7,5.8,0.7c1.6,0,3-0.1,4.1-0.3c1.2-0.2,2.2-0.5,3-0.9v-4.9H312c-0.6,0.3-1.5,0.7-2.5,0.9c-1.1,0.3-2.3,0.4-3.7,0.4
			c-1.6,0-3-0.2-4.2-0.7c-1.2-0.4-2.2-1.2-2.9-2.2c-0.5-0.8-0.8-1.7-1-2.9H314l0-1.4C314.2,59.3,313.9,57.1,313.2,55.2z M308.1,59.3
			h-10.4c0.1-1.1,0.3-2,0.6-2.7c0.5-1.1,1.1-1.8,2-2.3c0.8-0.5,1.8-0.7,2.8-0.7c1.7,0,2.9,0.5,3.7,1.4c0.8,0.9,1.3,2.3,1.3,4.1V59.3
			z"/>
	</g>
	<path class="st1" d="M66.7,40.4c-6.3,0-11.4,5.1-11.4,11.4l0,0h42.4c6.3,0,11.4-5.1,11.4-11.4l0,0H66.7z"/>
	<path class="st1" d="M55.3,51.9c0-6.3,5.1-11.4,11.4-11.4l0,0v42.4c0,6.3-5.1,11.4-11.4,11.4l0,0V51.9z"/>
	<path class="st2" d="M70.4,55.7v11.4h13.3c6.3,0,11.4-5.1,11.4-11.4l0,0H70.4z"/>
	<path class="st3" d="M39.9,67.1c0-6.3,5.1-11.4,11.4-11.4l0,0v42.4c0,6.3-5.1,11.4-11.4,11.4l0,0V67.1z"/>
</g>
</svg>
