<svg xmlns="http://www.w3.org/2000/svg" width="4675" height="1502" viewBox="0 0 4675 1502" fill="none"><path d="M815.668 115.715H1057.83V371.579H815.668V115.715Z" fill="#FFFCFC"></path><path fill-rule="evenodd" clip-rule="evenodd" d="M773.955 370.173H247.881V828.344C247.881 935.267 247.881 938.536 359.456 938.536H815.645V412.342H1057.83V1200.94H215.726C96.9814 1200.94 0.720215 1102.12 0.720215 980.214V115.715H773.955V370.173Z" fill="#FFFCFC"></path><path d="M1099.26 27.623V112.936H1088.12V27.623H1099.26ZM1126.68 27.623V36.8809H1060.76V27.623H1126.68ZM1142.91 27.623H1153.87L1181.81 97.1738L1209.71 27.623H1220.72L1186.03 112.936H1177.48L1142.91 27.623ZM1139.33 27.623H1149L1150.58 79.6543V112.936H1139.33V27.623ZM1214.57 27.623H1224.24V112.936H1212.99V79.6543L1214.57 27.623Z" fill="#FFFCFC"></path><path d="M1449.43 937.18C1449.43 896.38 1458.63 859.78 1477.03 827.38C1495.43 794.58 1520.43 768.98 1552.03 750.58C1584.03 732.18 1619.43 722.98 1658.23 722.98C1703.83 722.98 1743.63 733.98 1777.63 755.98C1811.63 777.98 1836.43 809.18 1852.03 849.58H1786.63C1775.03 824.38 1758.23 804.98 1736.23 791.38C1714.63 777.78 1688.63 770.98 1658.23 770.98C1629.03 770.98 1602.83 777.78 1579.63 791.38C1556.43 804.98 1538.23 824.38 1525.03 849.58C1511.83 874.38 1505.23 903.58 1505.23 937.18C1505.23 970.38 1511.83 999.58 1525.03 1024.78C1538.23 1049.58 1556.43 1068.78 1579.63 1082.38C1602.83 1095.98 1629.03 1102.78 1658.23 1102.78C1688.63 1102.78 1714.63 1096.18 1736.23 1082.98C1758.23 1069.38 1775.03 1049.98 1786.63 1024.78H1852.03C1836.43 1064.78 1811.63 1095.78 1777.63 1117.78C1743.63 1139.38 1703.83 1150.18 1658.23 1150.18C1619.43 1150.18 1584.03 1141.18 1552.03 1123.18C1520.43 1104.78 1495.43 1079.38 1477.03 1046.98C1458.63 1014.58 1449.43 977.98 1449.43 937.18ZM2017.9 728.38V1146.58H1963.3V728.38H2017.9ZM2420.56 850.78C2420.56 885.58 2408.56 914.58 2384.56 937.78C2360.96 960.58 2324.76 971.98 2275.96 971.98H2195.56V1146.58H2140.96V728.38H2275.96C2323.16 728.38 2358.96 739.78 2383.36 762.58C2408.16 785.38 2420.56 814.78 2420.56 850.78ZM2275.96 926.98C2306.36 926.98 2328.76 920.38 2343.16 907.18C2357.56 893.98 2364.76 875.18 2364.76 850.78C2364.76 799.18 2335.16 773.38 2275.96 773.38H2195.56V926.98H2275.96ZM2840.62 728.38V1146.58H2786.02V956.98H2573.02V1146.58H2518.42V728.38H2573.02V911.98H2786.02V728.38H2840.62ZM3018.45 772.78V912.58H3170.85V957.58H3018.45V1101.58H3188.85V1146.58H2963.85V727.78H3188.85V772.78H3018.45ZM3630.27 1146.58H3575.67L3356.07 813.58V1146.58H3301.47V727.78H3356.07L3575.67 1060.18V727.78H3630.27V1146.58ZM3885.94 1150.78C3858.34 1150.78 3833.54 1145.98 3811.54 1136.38C3789.94 1126.38 3772.94 1112.78 3760.54 1095.58C3748.14 1077.98 3741.74 1057.78 3741.34 1034.98H3799.54C3801.54 1054.58 3809.54 1071.18 3823.54 1084.78C3837.94 1097.98 3858.74 1104.58 3885.94 1104.58C3911.94 1104.58 3932.34 1098.18 3947.14 1085.38C3962.34 1072.18 3969.94 1055.38 3969.94 1034.98C3969.94 1018.98 3965.54 1005.98 3956.74 995.98C3947.94 985.98 3936.94 978.38 3923.74 973.18C3910.54 967.98 3892.74 962.38 3870.34 956.38C3842.74 949.18 3820.54 941.98 3803.74 934.78C3787.34 927.58 3773.14 916.38 3761.14 901.18C3749.54 885.58 3743.74 864.78 3743.74 838.78C3743.74 815.98 3749.54 795.78 3761.14 778.18C3772.74 760.58 3788.94 746.98 3809.74 737.38C3830.94 727.78 3855.14 722.98 3882.34 722.98C3921.54 722.98 3953.54 732.78 3978.34 752.38C4003.54 771.98 4017.74 797.98 4020.94 830.38H3960.94C3958.94 814.38 3950.54 800.38 3935.74 788.38C3920.94 775.98 3901.34 769.78 3876.94 769.78C3854.14 769.78 3835.54 775.78 3821.14 787.78C3806.74 799.38 3799.54 815.78 3799.54 836.98C3799.54 852.18 3803.74 864.58 3812.14 874.18C3820.94 883.78 3831.54 891.18 3843.94 896.38C3856.74 901.18 3874.54 906.78 3897.34 913.18C3924.94 920.78 3947.14 928.38 3963.94 935.98C3980.74 943.18 3995.14 954.58 4007.14 970.18C4019.14 985.38 4025.14 1006.18 4025.14 1032.58C4025.14 1052.98 4019.74 1072.18 4008.94 1090.18C3998.14 1108.18 3982.14 1122.78 3960.94 1133.98C3939.74 1145.18 3914.74 1150.78 3885.94 1150.78ZM4190.09 772.78V912.58H4342.49V957.58H4190.09V1101.58H4360.49V1146.58H4135.49V727.78H4360.49V772.78H4190.09Z" fill="white"></path></svg>