<svg id="Layer_1" xmlns="http://www.w3.org/2000/svg" width="141.6" height="23.5" viewBox="0 0 141.6 23.5" xmlns:xlink="http://www.w3.org/1999/xlink">
 <style>
  .st0{fill:#00aeef}
 </style>
 <path class="st0" d="M11.2 10.1c2.4-.6 5.1-2.3 5.1-5.2C16.3.6 12.2.6 10.1.6H1.5c.4.2.6 1.3.6 2.8 0 1.8-.1 4.3-.4 7.7l-.1 1.4C1.2 18.4 1 21.8 0 22.6h7.7c5.9 0 9.5-3 9.5-6.9.1-3.6-2.5-5.2-6-5.6zM6.1 7.9c.1-1.6.3-3.2.5-4.7.5-.1 1.1-.1 1.5-.1 2.6 0 3.8 1.1 3.8 2.6 0 2.6-2.6 3.6-5.4 3.6H6l.1-1.4zm1.4 11.9c-1.5 0-2.1-.4-2.1-.6 0-1.4.1-2.5.2-4l.2-3.2h1.6c2.9 0 5.2.9 5.2 3.8 0 2.6-2 4-5.1 4zM136.7 9.8c-2.2-1.4-4.3-2.6-4.3-4.2 0-2 1.7-2.8 3.6-2.8 2.2 0 4.1 1.3 5 2.9l.6-5.2c-1.5 0-3-.4-5.4-.4-4.1 0-8.1 1.6-8.1 6.3 0 3.2 2.3 4.9 5.9 7.1 1.7 1 3.1 2.1 3.1 3.7 0 2-1.7 3.1-4 3.1-3 0-5-1.7-6.1-4l-.4 5.5c2.3.9 4.3 1.2 6.2 1.2 4.7 0 8.7-2.6 8.7-6.7 0-3.2-2.4-5-4.8-6.5zM121 10.7c1.1-1.8 6.2-9.9 7.4-10.1h-5.9c.2.2.3.8.3 1.3 0 .7-.3 1.3-.6 1.9-1.4 2.2-2.4 3.9-4 6.2-.6-1.8-1.7-4.2-3.1-7.5-.9-2-1.3-2.2-2.8-2.2-.8 0-2.6.1-3.9.2.8.4 2 2.3 3.1 4.3 1.7 3.2 2.8 5.9 3.6 8.7.1 1.9-.4 8.1-1.4 9.1h6c-.5-.5-.6-1.8-.6-2.8 0-2.4.2-4.6.5-6.2.2-.9.9-2 1.4-2.9zM56.3 18.9l-4.5-6c-.3-.4-.8-1.1-1.1-1.3 2.9-.9 5.3-2.8 5.3-6.3C56 1 52.3.6 49.7.6h-8.2c.4.2.6 1.2.6 2.8 0 1.8-.1 4.3-.4 7.7l-.1 1.4c-.5 6.8-.8 9.4-1.7 10.1h6c-.4-.2-.6-1.3-.6-2.8 0-1.3.1-3.1.2-5.4l.1-1.6h.1c.8 0 1.1.5 1.6 1.1l6.2 8.6c.5.7.9 1 2.6 1 1.1 0 2.8-.1 4-.2-.7-.5-1-.7-3.8-4.4zM47 10c-.3 0-.7 0-1-.1l.1-1.5c.2-2.6.3-4.3.5-5.2.5-.1 1.2-.1 1.7-.1 2.1 0 3.3 1 3.3 2.7 0 2.6-1.9 4.2-4.6 4.2zM34.7 12.7l-.9-3.4c-1.1-4-2.4-8.7-2.4-8.7h-4.8c.2.2.3.7.3 1.2S25.4 5.6 24 8.6l-1.5 3.3c-2.7 5.7-4.6 9.2-6.1 10.7h5.3c-.1-.2-.1-.7-.1-1 0-1.2 1.1-3.3 1.5-4.3l.5-.9h2.6c2.6 0 4.2-.3 5.2-.7l.5 1.9c1.5 5.2 1.7 5.3 3.6 5.3.6 0 2.1-.1 3.4-.2-1.5-1.3-2.5-4.1-4.2-10zm-9.9.6l3.6-7.7 2.2 7.7h-5.8zM63.6 12.2c0-4.4 1.9-9.5 6.6-9.5 2.4 0 4.2 1.3 5.2 3.3L76 .4c-1.9 0-3-.4-5.4-.4C63 0 59 5.7 59 13c0 5.3 3.3 10 9 10 4.4 0 7-2.2 8.2-5.9-2.8 2-4.5 2.5-6.4 2.5-3.5 0-6.2-2.6-6.2-7.4zM106.5 12.7l-.9-3.4c-.4-1.5-2.4-8.7-2.4-8.7h-4.8c.2.2.3.7.3 1.2 0 .6-1.4 3.7-2.9 6.8l-1.5 3.3c-1.1 2.5-2.3 4.8-3.4 6.7-1.7 1.1-2.6 1.2-6.2 1.2-1 0-1.4-.2-1.4-1.2 0-2.2.3-4.4.4-6.6l.1-1.3c.4-5.9.7-9.5 1.6-10h-6c.4.5.5 1.3.6 2.8 0 1.8-.1 4.3-.4 7.7l-.1 1.4c-.4 5.9-.7 9.1-1.6 10.1h15.6c-.1-.2-.1-.7-.1-1 0-1.2.9-2.9 1.5-4.3l.5-.9H98c2.6 0 4.2-.3 5.2-.7l.5 1.9c1.5 5.2 1.7 5.3 3.6 5.3.6 0 2.2-.1 3.4-.2-1.6-1.4-2.6-4.2-4.2-10.1zm-9.9.6l3.6-7.7 2.2 7.7h-5.8z">
 </path>
</svg>