<svg width="402" height="403" viewBox="0 0 402 403" fill="none" xmlns="http://www.w3.org/2000/svg" xmlns:xlink="http://www.w3.org/1999/xlink">
 <path d="M296.021 233.924C313.944 181.409 285.902 124.307 233.387 106.384C180.872 88.4602 123.771 116.502 105.847 169.017C87.9233 221.532 115.965 278.634 168.48 296.557C220.995 314.481 278.097 286.439 296.021 233.924Z" fill="#202843">
 </path>
 <path d="M115.861 254.929C131.496 247.467 184.715 221.346 195.202 215.2C203.818 210.178 216.645 202.777 216.645 202.777L222.087 213.867L230.395 268.518L236.741 264.855L240.962 188.52C253.784 180.503 265.083 172.704 276.908 164.54C281.242 161.548 285.647 158.508 290.223 155.39C288.775 152.589 287.197 149.86 285.497 147.212C280.509 149.616 275.674 151.91 270.917 154.167C257.934 160.327 245.53 166.212 232.178 173.306L163.96 138.795L157.614 142.458L200.789 176.979L207.662 187.218L207.673 187.237C207.673 187.237 194.85 194.645 186.193 199.596C175.625 205.606 126.385 238.64 112.111 248.446C113.282 250.654 114.533 252.817 115.861 254.929Z" fill="#FFC94C">
 </path>
</svg>