<svg version="1.1" id="Layer_1" xmlns="http://www.w3.org/2000/svg" xmlns:xlink="http://www.w3.org/1999/xlink" x="0px" y="0px" viewBox="0 0 50.1 56.5" style="enable-background:new 0 0 50.1 56.5;" xml:space="preserve">
 <style type="text/css">
  .st0{fill-rule:evenodd;clip-rule:evenodd;}
	.st1{fill-rule:evenodd;clip-rule:evenodd;fill:#7A00E6;}
 </style>
 <g>
  <path class="st0" d="M50.1,47c0,1.8-0.2,4.3-0.9,6.1c-0.5,1.6-1.2,2.2-2.8,2.2h-9.7c-1.1,0-1.6-0.7-1.6-1.5c0-0.2,0-0.5,0.1-0.7
		c0.4-1.4,0.7-2.4,0.7-4c0-15.8-34.8-7-34.8-29.8C1,7.7,10.3,0,24.8,0c7.7,0,15.7,1.8,22.4,5.7C48,6.1,48.5,7,48.5,7.9
		c0,0.5-0.1,1.1-0.5,1.8l-3.3,7.1c-0.5,1-1.4,1.5-2.4,1.5c-0.5,0-1.1-0.1-1.6-0.4c-5.5-3-10.8-4.8-16.3-4.8c-5.7,0-9.1,2-9.1,5.3
		C15.3,28.4,50.1,22.6,50.1,47">
  </path>
  <path class="st1" d="M7.3,41.5C2.9,41.5,0,44.3,0,49c0,4.5,2.9,7.4,7.7,7.4c4.4,0,7.3-2.9,7.3-7.4C15,44.3,12.1,41.5,7.3,41.5">
  </path>
 </g>
</svg>