<svg version="1.1" id="Layer_1" xmlns="http://www.w3.org/2000/svg" xmlns:xlink="http://www.w3.org/1999/xlink" x="0px" y="0px" viewBox="0 0 160.5 41.2" style="enable-background:new 0 0 160.5 41.2;" xml:space="preserve">
 <style type="text/css">
  .st0{fill-rule:evenodd;clip-rule:evenodd;}
	.st1{fill-rule:evenodd;clip-rule:evenodd;fill:#7A00E6;}
 </style>
 <g>
  <path class="st0" d="M57,13.3c-3.8-1.4-7.4-2.1-11.4-2.1c-8.8,0-14.9,5.8-14.9,15c0,9.3,5.3,15,14.8,15c3.8,0,7.5-0.6,11.5-2.3
		c0.9-0.4,1.4-1,1.4-2.3V15.6C58.4,14.3,57.9,13.6,57,13.3 M50.9,32.1c0,0.9-0.5,1.3-1.4,1.5c-1.3,0.4-2.4,0.5-4,0.5
		c-3.7,0-7.2-2.2-7.2-8.1c0-5.9,3.5-8.1,7.2-8.1c1.6,0,2.7,0.2,4,0.5c1,0.3,1.4,0.7,1.4,1.5V32.1z M26.9,36.1c0,1-0.1,2.3-0.5,3.3
		c-0.3,0.9-0.6,1.2-1.5,1.2h-5.2c-0.6,0-0.9-0.4-0.9-0.8c0-0.1,0-0.3,0.1-0.4c0.2-0.8,0.4-1.3,0.4-2.2c0-8.5-18.7-3.7-18.7-16
		c0-6.2,5-10.4,12.7-10.4c4.1,0,8.4,1,12,3.1c0.5,0.2,0.7,0.7,0.7,1.2c0,0.3-0.1,0.6-0.3,1L24,19.9c-0.3,0.5-0.8,0.8-1.3,0.8
		c-0.3,0-0.6-0.1-0.9-0.2c-3-1.6-5.8-2.6-8.8-2.6c-3.1,0-4.9,1.1-4.9,2.9C8.2,26.2,26.9,23,26.9,36.1 M91.8,22v17.4
		c0,0.7-0.5,1.2-1.2,1.2h-5.2c-0.7,0-1.2-0.5-1.2-1.2V23c0-3.4-2.5-4.9-5.6-4.9c-1.8,0-2.8,0.1-4.3,0.5C73.5,18.8,73,19.2,73,20
		v19.4c0,0.7-0.5,1.2-1.2,1.2h-5.2c-0.7,0-1.2-0.5-1.2-1.2V15.5c0-1.3,0.6-2,1.4-2.3c4.2-1.5,8.2-2.1,11.6-2.1
		C87.5,11.2,91.8,15,91.8,22 M111.8,11.2c-8.7,0-14.4,6.3-14.4,15c0,8.7,5.7,15,14.8,15c8.7,0,14.4-6.3,14.4-15
		C126.6,17.4,120.9,11.2,111.8,11.2 M112.2,34.2c-4.3,0-7.1-2.8-7.1-8.1c0-5.3,2.8-8.1,6.7-8.1c4.3,0,7.1,2.8,7.1,8.1
		C118.9,31.5,116.1,34.2,112.2,34.2 M160,12.9v26.5c0,0.7-0.5,1.2-1.2,1.2h-5.2c-0.7,0-1.2-0.5-1.2-1.2V12.9c0-0.7,0.5-1.2,1.2-1.2
		h5.2C159.5,11.7,160,12.2,160,12.9 M148.9,1.8c0,0.3-0.1,0.5-0.1,0.7l-0.6,3c-0.1,0.7-0.4,1.1-1.1,1.1c-0.4,0-1.7-0.3-2.8-0.3
		c-3.2,0-4.6,1.6-4.6,4.8v0.6h7.4c0.7,0,1.2,0.5,1.2,1.2v4c0,0.7-0.4,1.2-1.2,1.2h-7.4v21.3c0,0.7-0.5,1.2-1.2,1.2h-5.1
		c-0.7,0-1.2-0.5-1.2-1.2V12.3c0-8.3,4.7-12.1,11.9-12.1c1.2,0,2.5,0.1,3.6,0.4C148.5,0.8,148.9,1.1,148.9,1.8">
  </path>
  <path class="st1" d="M156.5,8.1c2.4,0,4-1.6,4-4.1c0-2.6-1.6-4.1-4.2-4.1c-2.4,0-4,1.5-4,4.1C152.4,6.6,153.9,8.1,156.5,8.1">
  </path>
  <path class="st1" d="M3.9,33.2c-2.4,0-3.9,1.5-3.9,4c0,2.4,1.5,4,4.1,4c2.4,0,3.9-1.6,3.9-4C8,34.7,6.5,33.2,3.9,33.2">
  </path>
 </g>
</svg>